<?xml version="1.0" encoding="UTF-8"?>
<svg version="1.1" xmlns="http://www.w3.org/2000/svg" width="667" height="374">
<path d="M0 0 C0.86278071 -0.00297112 1.72556141 -0.00594224 2.61448699 -0.0090034 C5.51080812 -0.01768756 8.4070879 -0.01919842 11.30342102 -0.02069092 C13.37805266 -0.02531933 15.45268344 -0.03034402 17.52731323 -0.03573608 C23.16799632 -0.04886076 28.8086675 -0.0553053 34.44936347 -0.05974674 C37.97386126 -0.06267765 41.49835579 -0.06678252 45.02285194 -0.07125092 C56.05130425 -0.08492667 67.07974912 -0.09459267 78.10820931 -0.09845281 C90.83659013 -0.10293243 103.56486349 -0.12047565 116.29321164 -0.1494534 C126.1328442 -0.17107648 135.97244655 -0.18115744 145.81210262 -0.18249393 C151.68823012 -0.18354159 157.56425664 -0.18944134 163.44035912 -0.20731354 C168.97006059 -0.2238047 174.49958528 -0.22594455 180.0293026 -0.21717453 C182.05574009 -0.21640469 184.08218713 -0.22073981 186.10860062 -0.23063278 C188.88177309 -0.24337433 191.6543215 -0.23746342 194.42749023 -0.22705078 C195.62139571 -0.23913539 195.62139571 -0.23913539 196.8394205 -0.25146413 C204.14159576 -0.18763852 210.9201426 1.7244244 217.09370422 5.70294189 C217.75499329 6.11673096 218.41628235 6.53052002 219.09761047 6.95684814 C219.57069641 7.34743408 220.04378235 7.73802002 220.53120422 8.14044189 C220.53120422 8.80044189 220.53120422 9.46044189 220.53120422 10.14044189 C221.19120422 10.14044189 221.85120422 10.14044189 222.53120422 10.14044189 C224.18745422 12.55450439 224.18745422 12.55450439 226.03120422 15.76544189 C226.63964172 16.80958252 227.24807922 17.85372314 227.87495422 18.92950439 C230.68400401 24.37535091 231.77609936 28.9043424 231.83979797 35.03106689 C231.8624851 36.38149728 231.88561544 37.73192027 231.90913391 39.08233643 C231.9182782 39.78505676 231.92742249 40.4877771 231.93684387 41.21179199 C232.02976053 82.52721767 232.02976053 82.52721767 250.53120422 118.14044189 C251.19120422 118.47044189 251.85120422 118.80044189 252.53120422 119.14044189 C252.53120422 119.80044189 252.53120422 120.46044189 252.53120422 121.14044189 C256.69543112 122.94494022 260.95823225 124.15479445 265.32417297 125.35919189 C267.53120422 126.14044189 267.53120422 126.14044189 269.53120422 128.14044189 C269.73014222 130.66519905 269.80967857 133.05558939 269.78120422 135.57794189 C269.7889386 136.25921143 269.79667297 136.94048096 269.80464172 137.64239502 C269.79009856 141.35453632 269.64060841 142.97633562 267.53120422 146.14044189 C265.42964172 146.87872314 265.42964172 146.87872314 262.90620422 147.45294189 C255.25353401 149.57316221 248.77810234 154.34812729 244.53120422 161.14044189 C238.78792747 172.08490041 235.34518179 182.83242548 233.90620422 195.07794189 C233.71356995 196.64934937 233.71356995 196.64934937 233.51704407 198.25250244 C232.78176153 204.88482722 232.41161613 211.46618933 232.29682922 218.13262939 C232.27521225 219.2888958 232.27521225 219.2888958 232.25315857 220.46852112 C232.18824877 224.28260572 232.15671555 228.09318585 232.17329407 231.90777588 C232.11867339 244.75278459 229.06117743 254.5908711 220.00776672 264.00762939 C212.46894658 270.50005179 204.8028523 272.28984067 195.11383057 272.28761292 C193.82790153 272.29312795 193.82790153 272.29312795 192.51599413 272.29875439 C189.63816423 272.30978319 186.76037045 272.31363374 183.88252258 272.31744385 C181.82098781 272.32370919 179.75945416 272.33035605 177.69792175 272.33735657 C170.92230515 272.35839383 164.14668834 272.36875975 157.37104797 272.37872314 C155.03723705 272.38277105 152.70342624 272.38688798 150.36961555 272.39107323 C139.40309776 272.41012543 128.43658669 272.4243555 117.47005552 272.4326852 C104.81920319 272.44245323 92.16852604 272.46876146 79.51773542 272.50918609 C69.73497208 272.5393711 59.95225887 272.55415641 50.16944987 272.55746621 C44.32899203 272.55981427 38.48872132 272.56874307 32.64831352 272.59392738 C27.14975793 272.61725419 21.65151207 272.62142267 16.15291977 272.611166 C14.14021714 272.61067163 12.12749903 272.61696283 10.11484337 272.63072205 C-2.79584457 272.71401 -14.18335213 272.42996174 -24.68754578 263.90606689 C-33.13571166 255.53200773 -36.50258182 245.34736592 -36.71488953 233.69903564 C-36.74608694 232.22279063 -36.77767741 230.74655387 -36.80961609 229.27032471 C-36.82496399 228.50353394 -36.84031189 227.73674316 -36.85612488 226.94671631 C-36.91785637 189.33631602 -36.91785637 189.33631602 -52.96879578 156.20294189 C-53.79379578 155.52231689 -54.61879578 154.84169189 -55.46879578 154.14044189 C-55.95348328 153.70216064 -56.43817078 153.26387939 -56.93754578 152.81231689 C-62.17761906 148.1604151 -66.7006989 147.07418386 -73.46879578 145.14044189 C-73.46879578 139.20044189 -73.46879578 133.26044189 -73.46879578 127.14044189 C-72.14879578 126.74856689 -70.82879578 126.35669189 -69.46879578 125.95294189 C-60.08531167 122.7663753 -52.10161607 117.2124505 -47.47026062 108.19659424 C-42.76077146 98.02251775 -39.51520106 87.93676832 -38.40629578 76.76544189 C-38.32105652 75.94036133 -38.23581726 75.11528076 -38.147995 74.26519775 C-37.60848524 68.41946917 -37.37288659 62.59643092 -37.26176453 56.73028564 C-37.23876534 55.62016113 -37.23876534 55.62016113 -37.21530151 54.48760986 C-37.14134533 50.77793743 -37.08996031 47.07005307 -37.07402039 43.35968018 C-36.92433682 30.25690798 -34.78941293 18.88472346 -25.46879578 9.14044189 C-18.02963915 2.08278048 -9.98481555 -0.01071957 0 0 Z M49.53120422 69.14044189 C48.93358178 71.76249387 48.93358178 71.76249387 49.02326965 74.68170166 C49.01199036 75.80891632 49.00071106 76.93613098 48.98908997 78.09750366 C48.99718689 79.32983734 49.00528381 80.56217102 49.0136261 81.83184814 C49.00661682 83.13298553 48.99960754 84.43412292 48.99238586 85.77468872 C48.97415435 89.34087405 48.98121894 92.90659637 48.99390221 96.47278976 C49.00403094 100.20520015 48.99463689 103.93757096 48.98835754 107.66998291 C48.98108074 113.93787756 48.99066959 120.20558368 49.00971985 126.47344971 C49.03148884 133.71949021 49.02443747 140.96508052 49.00241423 148.21111012 C48.98426105 154.43289703 48.98170144 160.65454843 48.9921689 166.87635326 C48.99840436 170.59215359 48.99923825 174.30774233 48.98602295 178.02352905 C48.97232039 182.16563571 48.99131261 186.30696655 49.0136261 190.44903564 C49.00552917 191.68136932 48.99743225 192.913703 48.98908997 194.18338013 C49.00036926 195.31059479 49.01164856 196.43780945 49.02326965 197.59918213 C49.02477776 198.57846176 49.02628586 199.55774139 49.02783966 200.56669617 C49.67571218 203.87932333 50.9142646 205.07351259 53.53120422 207.14044189 C56.21443747 207.72939933 56.21443747 207.72939933 59.19502258 207.62628174 C60.33398483 207.632435 61.47294708 207.63858826 62.64642334 207.64492798 C63.87554947 207.63055695 65.1046756 207.61618591 66.37104797 207.60137939 C68.28066063 207.60000473 68.28066063 207.60000473 70.22885132 207.59860229 C72.92856451 207.59255493 75.6269156 207.57893469 78.32637024 207.55206299 C81.74866539 207.51839049 85.17036929 207.510426 88.59281063 207.51195335 C91.89396551 207.5112702 95.19493607 207.49352466 98.49604797 207.47637939 C100.31241005 207.47304092 100.31241005 207.47304092 102.16546631 207.46963501 C117.94142055 207.29719344 134.94277847 205.37222423 147.33589172 194.65606689 C154.62503213 186.30338643 157.94154369 176.09263319 157.80854797 165.11309814 C156.88827747 155.24935377 151.99439704 147.19788991 144.78120422 140.64044189 C142.70454803 138.95554183 142.70454803 138.95554183 140.53120422 139.14044189 C140.53120422 138.48044189 140.53120422 137.82044189 140.53120422 137.14044189 C138.07365942 136.47074599 135.61525498 135.80456509 133.15620422 135.14044189 C132.45753235 134.94966064 131.75886047 134.75887939 131.03901672 134.56231689 C127.33790408 133.51133911 127.33790408 133.51133911 123.53120422 133.14044189 C125.86267335 130.4468028 127.85642673 129.53499352 131.21870422 128.45294189 C139.35378043 125.3103833 145.0864164 119.08313822 148.67964172 111.17559814 C150.98515212 102.95825147 151.07964074 93.31553113 147.40620422 85.51544189 C146.04759991 83.2176117 146.04759991 83.2176117 144.53120422 81.14044189 C144.0851886 80.48688721 143.63917297 79.83333252 143.17964172 79.15997314 C136.46972239 70.36960396 125.43611358 66.82829131 114.82966614 65.35830688 C109.5986197 64.86247014 104.33223555 64.93339021 99.08198547 64.90216064 C97.79181015 64.8940889 96.50163483 64.88601715 95.17236328 64.87770081 C92.45335528 64.8627561 89.73437267 64.852875 87.01533508 64.84527588 C83.53493203 64.83415345 80.05515811 64.79965292 76.57497883 64.76010418 C73.24400594 64.72770036 69.91310379 64.7231692 66.58198547 64.71466064 C64.71006279 64.68839851 64.71006279 64.68839851 62.80032349 64.66160583 C61.64199509 64.6645314 60.48366669 64.66745697 59.29023743 64.67047119 C57.76303825 64.66167183 57.76303825 64.66167183 56.20498657 64.6526947 C52.73591897 65.28551659 51.72485334 66.41596678 49.53120422 69.14044189 Z " fill="#7A52B3" transform="translate(235.4687957763672,50.85955810546875)"/>
<path d="M0 0 C1.15733139 -0.0049926 1.15733139 -0.0049926 2.33804321 -0.01008606 C3.98072716 -0.01516392 5.62342149 -0.01749412 7.26611328 -0.01733398 C9.74399739 -0.019492 12.22141524 -0.03755772 14.69921875 -0.05664062 C39.28795314 -0.14533236 39.28795314 -0.14533236 49.4140625 6.16796875 C54.18042181 11.25997993 57.36014837 17.48514108 57.44140625 24.54296875 C56.99572916 32.0394859 54.86195361 38.0726674 49.4765625 43.41796875 C38.26110327 51.79707121 24.33947092 50.66139286 11.1015625 50.41796875 C9.18556568 50.39786011 7.26954833 50.37961711 5.35351562 50.36328125 C0.70651499 50.31966117 -3.93947862 50.25087859 -8.5859375 50.16796875 C-8.61120588 43.20793428 -8.62876972 36.24791155 -8.64086914 29.2878418 C-8.64591091 26.91804563 -8.65274415 24.5482526 -8.66137695 22.1784668 C-8.6734494 18.78042836 -8.67916721 15.3824309 -8.68359375 11.984375 C-8.68875504 10.9177211 -8.69391632 9.8510672 -8.69923401 8.75209045 C-8.69930954 7.77114914 -8.69938507 6.79020782 -8.69946289 5.77954102 C-8.7016835 4.91128189 -8.70390411 4.04302277 -8.70619202 3.14845276 C-8.4238924 -1.5007687 -3.60456051 0.00536415 0 0 Z " fill="#7952B2" transform="translate(314.5859375,191.83203125)"/>
<path d="M0 0 C5.35272952 -0.09977129 10.70490357 -0.1718895 16.05834961 -0.21972656 C17.87485193 -0.23969343 19.69129121 -0.26687687 21.50756836 -0.30175781 C44.06212676 -0.72368628 44.06212676 -0.72368628 52.7890625 6.21875 C53.39492188 6.9715625 54.00078125 7.724375 54.625 8.5 C55.25664062 9.2528125 55.88828125 10.005625 56.5390625 10.78125 C59.91668736 15.91090486 59.56855946 22.05896566 59 28 C57.19682947 34.71882011 52.87291414 38.57680779 47 42 C39.81767029 45.50224078 32.50785753 46.12568266 24.5703125 46.1328125 C23.55661087 46.13424759 23.55661087 46.13424759 22.52243042 46.13571167 C21.10902817 46.13638679 19.6956227 46.13457956 18.28222656 46.13037109 C16.10995672 46.12496255 13.93788893 46.13036424 11.765625 46.13671875 C10.38802038 46.13605883 9.01041588 46.13477947 7.6328125 46.1328125 C6.38387207 46.13168457 5.13493164 46.13055664 3.84814453 46.12939453 C1 46 1 46 0 45 C-0.0928726 43.58774954 -0.11746772 42.17091066 -0.11352539 40.75561523 C-0.11344986 39.85475693 -0.11337433 38.95389862 -0.11329651 38.02574158 C-0.10813522 37.04658279 -0.10297394 36.06742401 -0.09765625 35.05859375 C-0.0962413 34.06118668 -0.09482635 33.0637796 -0.09336853 32.03614807 C-0.08775114 28.83656876 -0.07519571 25.63705831 -0.0625 22.4375 C-0.05748724 20.27408955 -0.05292395 18.11067801 -0.04882812 15.94726562 C-0.03777607 10.63148675 -0.02102104 5.31574829 0 0 Z " fill="#7C55B3" transform="translate(306,132)"/>
<path d="M0 0 C-1 2 -1 2 -2.82578397 2.61730951 C-6.36120391 3.23958971 -9.91324416 3.13313242 -13.49139404 3.12025452 C-14.35644129 3.12110894 -15.22148854 3.12196337 -16.11274934 3.12284368 C-19.01626791 3.12449302 -21.91972892 3.11898601 -24.82324219 3.11352539 C-26.90262348 3.11324338 -28.98200487 3.11340153 -31.06138611 3.1139679 C-36.71180418 3.11425531 -42.3622011 3.10836758 -48.01261425 3.10139394 C-53.91565532 3.09515113 -59.81869686 3.09455586 -65.72174072 3.09336853 C-76.90243307 3.09025796 -88.08311567 3.08204825 -99.26380372 3.07201904 C-111.99158531 3.06084941 -124.71936735 3.05534531 -137.44715261 3.05032361 C-163.63144049 3.03986542 -189.8157197 3.02227126 -216 3 C-216 2.34 -216 1.68 -216 1 C-214.38983568 0.99365209 -214.38983568 0.99365209 -212.74714279 0.98717594 C-186.65026983 0.88406728 -160.55342498 0.77532979 -134.45660019 0.66066074 C-121.8364734 0.60533896 -109.21634378 0.55185865 -96.59619141 0.50268555 C-85.59885722 0.45983095 -74.60154377 0.41354969 -63.60424161 0.36312145 C-57.77912374 0.33653084 -51.95400995 0.31167796 -46.1288681 0.29092598 C-40.64933133 0.27135113 -35.16983397 0.24720472 -29.69033241 0.21950912 C-27.67632322 0.2101432 -25.66230538 0.20246627 -23.648283 0.19658089 C-20.90396741 0.18831197 -18.15974727 0.17403296 -15.41546631 0.15821838 C-14.61390948 0.15724028 -13.81235265 0.15626217 -12.98650622 0.15525442 C-8.92607287 0.15480675 -8.92607287 0.15480675 -4.95273614 -0.57116657 C-3 -1 -3 -1 0 0 Z " fill="#8E72B4" transform="translate(444,320)"/>
<path d="M0 0 C1.25318717 -0.00233999 1.25318717 -0.00233999 2.53169125 -0.00472724 C5.34139163 -0.00872744 8.15103832 -0.00555133 10.96073914 -0.00241089 C12.97112561 -0.00376539 14.98151183 -0.0055456 16.99189758 -0.00772095 C22.46096281 -0.01229029 27.93000923 -0.01050752 33.39907479 -0.00734186 C39.11780617 -0.00481465 44.8365359 -0.00715691 50.55526733 -0.00872803 C60.16324656 -0.0105491 69.77121811 -0.00814549 79.37919617 -0.00338745 C90.48824979 0.00205041 101.59728505 0.00029572 112.70633823 -0.00521386 C122.23847464 -0.00975227 131.77060552 -0.01039182 141.30274266 -0.00777519 C146.9982214 -0.00621584 152.69369151 -0.00600922 158.38916969 -0.00931168 C163.74644072 -0.01220078 169.1036881 -0.01019551 174.46095657 -0.00441742 C176.42737094 -0.00309521 178.3937873 -0.0034748 180.36020088 -0.00568008 C183.04452277 -0.00841285 185.72876888 -0.00498431 188.41308594 0 C189.19120693 -0.00223072 189.96932792 -0.00446144 190.77102834 -0.00675976 C194.91826474 0.00817404 198.82839459 0.31636801 202.89701843 1.12698364 C200.34425094 3.67975113 198.6942607 3.36946719 195.21349633 3.39447045 C194.41273324 3.39000901 193.61197016 3.38554757 192.78694153 3.38095093 C191.51454331 3.3856309 191.51454331 3.3856309 190.21644008 3.39040542 C187.35745532 3.39841978 184.49868078 3.3920484 181.63969421 3.38577271 C179.59665298 3.38848108 177.55361273 3.39204115 175.51057434 3.39639282 C169.94859391 3.40553848 164.38668738 3.40196332 158.8247056 3.39563465 C153.0129415 3.39058452 147.20118389 3.39526347 141.38941956 3.39840698 C131.62582764 3.4020501 121.86226593 3.3972391 112.09867859 3.38772583 C100.8027034 3.37684672 89.50680043 3.38036154 78.21082699 3.39137864 C68.52417384 3.40044896 58.83754245 3.40173786 49.15088642 3.3965013 C43.36043226 3.39337941 37.57001207 3.39297814 31.77956009 3.39957428 C26.33445983 3.40534317 20.88945281 3.40135917 15.44436264 3.38978577 C13.44324651 3.38713648 11.44212256 3.38790883 9.44100952 3.3923111 C6.71425387 3.3977575 3.987799 3.39094331 1.26106262 3.38095093 C0.46476098 3.38541237 -0.33154066 3.38987381 -1.15197265 3.39447045 C-4.94573939 3.36741317 -7.88754724 3.2690732 -11.10298157 1.12698364 C-7.36404506 -0.11932853 -3.89392773 -0.01106795 0 0 Z " fill="#6A43A5" transform="translate(235.1029815673828,51.873016357421875)"/>
<path d="M0 0 C1.18223396 -0.00855011 1.18223396 -0.00855011 2.38835144 -0.01727295 C4.06040092 -0.02673818 5.73246917 -0.03326295 7.40454102 -0.03710938 C9.95948069 -0.04679543 12.5136094 -0.07779528 15.06835938 -0.109375 C16.69140146 -0.1159068 18.31444932 -0.12115658 19.9375 -0.125 C20.70117386 -0.1373468 21.46484772 -0.1496936 22.25166321 -0.16241455 C27.00363764 -0.14253056 28.1683392 0.20340284 32.16796875 3.203125 C18.96796875 3.203125 5.76796875 3.203125 -7.83203125 3.203125 C-7.83203125 18.383125 -7.83203125 33.563125 -7.83203125 49.203125 C5.36796875 49.203125 18.56796875 49.203125 32.16796875 49.203125 C32.16796875 49.533125 32.16796875 49.863125 32.16796875 50.203125 C18.63796875 50.203125 5.10796875 50.203125 -8.83203125 50.203125 C-8.85493463 43.24304198 -8.87486344 36.28308867 -8.88696289 29.32299805 C-8.89200466 26.95320188 -8.8988379 24.58340885 -8.9074707 22.21362305 C-8.91954315 18.81558461 -8.92526096 15.41758715 -8.9296875 12.01953125 C-8.93484879 10.95287735 -8.94001007 9.88622345 -8.94532776 8.7872467 C-8.94540329 7.80630539 -8.94547882 6.82536407 -8.94555664 5.81469727 C-8.94777725 4.94643814 -8.94999786 4.07817902 -8.95228577 3.18360901 C-8.66680119 -1.51806584 -3.63842811 0.02008827 0 0 Z " fill="#A086C9" transform="translate(314.83203125,191.796875)"/>
<path d="M0 0 C0.33 0 0.66 0 1 0 C1.15515524 14.22295779 1.3030532 28.44597595 1.4429636 42.66909218 C1.50815577 49.27568996 1.57553995 55.88224925 1.64819336 62.48876953 C1.71841514 68.8819054 1.78253997 75.27507767 1.84269524 81.66831589 C1.8664992 84.0895644 1.89238404 86.51079351 1.92053413 88.93199539 C2.0939982 103.99542893 1.86547212 118.95896499 1 134 C0.67 134 0.34 134 0 134 C-0.85420146 116.88472202 -1.08530134 99.84779238 -0.87890625 82.71484375 C-0.85451238 80.30677323 -0.83067407 77.89869703 -0.80735779 75.49061584 C-0.74543611 69.24538541 -0.67612483 63.00025963 -0.60510254 56.75512695 C-0.5335721 50.34526207 -0.46926764 43.93532476 -0.40429688 37.52539062 C-0.27647512 25.01684745 -0.14082152 12.50840312 0 0 Z " fill="#6E4DA3" transform="translate(283,119)"/>
<path d="M0 0 C0.99 0 1.98 0 3 0 C3.05082181 6.29879297 3.08578472 12.5975328 3.10986328 18.89648438 C3.11990416 21.03810604 3.13353954 23.17971405 3.15087891 25.32128906 C3.17521118 28.40433121 3.18650242 31.48719165 3.1953125 34.5703125 C3.20563507 35.52366486 3.21595764 36.47701721 3.22659302 37.45925903 C3.22741927 42.38457948 2.9434458 46.38011328 1 51 C0.67 51 0.34 51 0 51 C0 34.17 0 17.34 0 0 Z " fill="#876CB8" transform="translate(199,82)"/>
<path d="M0 0 C0.66 0 1.32 0 2 0 C7.06699223 10.13398445 4.09843286 27.94977553 4 39 C3.67 38.34 3.34 37.68 3 37 C2.34 37 1.68 37 1 37 C0.67 24.79 0.34 12.58 0 0 Z " fill="#6D48A9" transform="translate(199,248)"/>
<path d="M0 0 C-0.33 0.66 -0.66 1.32 -1 2 C-4.29164829 2.02895225 -7.58326399 2.0467823 -10.875 2.0625 C-11.81214844 2.07087891 -12.74929688 2.07925781 -13.71484375 2.08789062 C-15.05869141 2.09272461 -15.05869141 2.09272461 -16.4296875 2.09765625 C-17.67081299 2.10551147 -17.67081299 2.10551147 -18.93701172 2.11352539 C-21 2 -21 2 -23 1 C-24.83128771 0.90391392 -26.66619959 0.87017421 -28.5 0.875 C-29.4796875 0.87242187 -30.459375 0.86984375 -31.46875 0.8671875 C-33.99431054 0.83059947 -33.99431054 0.83059947 -36 2 C-38.88370333 2.07194869 -41.74239664 2.09291708 -44.625 2.0625 C-45.42679687 2.05798828 -46.22859375 2.05347656 -47.0546875 2.04882812 C-49.03649006 2.03703168 -51.01825433 2.01909605 -53 2 C-53 1.34 -53 0.68 -53 0 C-35.23064129 -1.15171769 -17.77213778 -1.0817823 0 0 Z " fill="#7050A8" transform="translate(346,259)"/>
<path d="M0 0 C0.33 1.32 0.66 2.64 1 4 C0.34 4 -0.32 4 -1 4 C-1.33 4.66 -1.66 5.32 -2 6 C-1.34 6 -0.68 6 0 6 C0 6.66 0 7.32 0 8 C-5.23880078 7.44854729 -9.97350697 6.57077907 -15 5 C-14 2 -14 2 -12.36328125 1.015625 C-7.83755921 -0.67397789 -4.81896529 -1.32521546 0 0 Z " fill="#8664BB" transform="translate(374,179)"/>
<path d="M0 0 C0.33 0 0.66 0 1 0 C1.02505615 0.90540527 1.0501123 1.81081055 1.07592773 2.74365234 C1.73233296 26.88486187 1.73233296 26.88486187 3 51 C2.01 51 1.02 51 0 51 C-1.03690051 45.1661254 -1.05146052 39.60372822 -0.87890625 33.69140625 C-0.85529526 32.72468491 -0.83168427 31.75796356 -0.80735779 30.76194763 C-0.73120903 27.69529726 -0.64697668 24.62893113 -0.5625 21.5625 C-0.5092304 19.47462296 -0.45649039 17.38673234 -0.40429688 15.29882812 C-0.27566045 10.19904112 -0.13977727 5.09949332 0 0 Z " fill="#A088C7" transform="translate(466,79)"/>
<path d="M0 0 C-7.7996855 5.26893648 -15.97932712 4.45322876 -25 4.25 C-26.55336242 4.22990643 -28.1067499 4.2116607 -29.66015625 4.1953125 C-33.44072979 4.15153679 -37.22008511 4.08266974 -41 4 C-41 3.67 -41 3.34 -41 3 C-40.43192627 2.98018066 -39.86385254 2.96036133 -39.27856445 2.93994141 C-21.88477819 2.55775947 -21.88477819 2.55775947 -4.84765625 -0.625 C-3 -1 -3 -1 0 0 Z " fill="#9881C0" transform="translate(368,255)"/>
<path d="M0 0 C8.21237916 -0.57184845 14.46005743 0.73317769 22 4 C19.03013448 4.89506817 16.74360212 5.03315169 13.671875 4.66015625 C12.87265625 4.56669922 12.0734375 4.47324219 11.25 4.37695312 C10.0125 4.22129883 10.0125 4.22129883 8.75 4.0625 C7.90953125 3.96259766 7.0690625 3.86269531 6.203125 3.75976562 C4.13463723 3.51295742 2.06720428 3.25733716 0 3 C0 2.01 0 1.02 0 0 Z " fill="#8269B4" transform="translate(334,132)"/>
<path d="M0 0 C1.32 0.33 2.64 0.66 4 1 C3.2575 1.804375 2.515 2.60875 1.75 3.4375 C-1.02080683 6.70924365 -2.49885514 10.15848017 -4.0078125 14.14453125 C-5 16 -5 16 -8 17 C-8 14.69 -8 12.38 -8 10 C-7.34 10 -6.68 10 -6 10 C-5.7525 9.278125 -5.505 8.55625 -5.25 7.8125 C-3.89016326 4.75286734 -2.17082246 2.5326262 0 0 Z " fill="#8163B2" transform="translate(481,205)"/>
<path d="M0 0 C5.57142857 5.14285714 5.57142857 5.14285714 6 9 C6.66 9 7.32 9 8 9 C10.41685712 13.22949995 11.34833144 16.12335991 11 21 C8.91692291 18.50030749 7.48773994 15.99294482 6.125 13.0625 C4.32159274 9.31642622 2.02924528 6.86550229 -1 4 C-1.33 3.01 -1.66 2.02 -2 1 C-1.34 0.67 -0.68 0.34 0 0 Z " fill="#967CBE" transform="translate(181,201)"/>
<path d="M0 0 C0.33 0 0.66 0 1 0 C1.50146657 7.57771707 0.94998798 12.45783241 -3 19 C-3.66 19 -4.32 19 -5 19 C-5.24222254 14.88221684 -4.36905536 11.86556807 -3 8 C-2.835 7.113125 -2.67 6.22625 -2.5 5.3125 C-2 3 -2 3 0 0 Z " fill="#9A80C1" transform="translate(364,149)"/>
<path d="M0 0 C0.33 0 0.66 0 1 0 C1.48091058 2.20795422 1.95965179 4.416381 2.4375 6.625 C2.70433594 7.85476562 2.97117187 9.08453125 3.24609375 10.3515625 C3.49488281 11.55554688 3.74367188 12.75953125 4 14 C4.23847656 15.10085937 4.47695313 16.20171875 4.72265625 17.3359375 C4.81417969 18.21507812 4.90570313 19.09421875 5 20 C4.34 20.66 3.68 21.32 3 22 C-1.75024015 8.74351585 -1.75024015 8.74351585 -2 2 C-1.34 1.34 -0.68 0.68 0 0 Z " fill="#8162B0" transform="translate(469,131)"/>
<path d="M0 0 C5.94 0 11.88 0 18 0 C14 4 14 4 11.59765625 4.20703125 C10.76105469 4.07683594 9.92445313 3.94664062 9.0625 3.8125 C7.75345703 3.62300781 7.75345703 3.62300781 6.41796875 3.4296875 C1.00387222 2.46757018 1.00387222 2.46757018 -1 2 C-0.67 1.34 -0.34 0.68 0 0 Z " fill="#6C47AD" transform="translate(314,132)"/>
<path d="M0 0 C2 1 2 1 4 4 C4.44921875 6.84765625 4.44921875 6.84765625 4.6875 10.0625 C4.77386719 11.12597656 4.86023438 12.18945312 4.94921875 13.28515625 C5 16 5 16 4 18 C3.34 18 2.68 18 2 18 C1.6603981 16.12612523 1.32861309 14.25083303 1 12.375 C0.7215625 10.80878906 0.7215625 10.80878906 0.4375 9.2109375 C0.01284203 6.09425135 -0.07545206 3.14069188 0 0 Z " fill="#7150A5" transform="translate(384,136)"/>
<path d="M0 0 C0.99 0.66 1.98 1.32 3 2 C2.34 2 1.68 2 1 2 C0.773125 3.216875 0.54625 4.43375 0.3125 5.6875 C-0.72609696 9.95560284 -2.615968 12.15028884 -6 15 C-6.33 14.34 -6.66 13.68 -7 13 C-7.99 13 -8.98 13 -10 13 C-8.71034824 11.62437146 -7.37310707 10.29233607 -6 9 C-5.34 9 -4.68 9 -4 9 C-3.71125 8.2575 -3.4225 7.515 -3.125 6.75 C-2.17697356 4.43260203 -1.15154089 2.22082885 0 0 Z " fill="#957DBE" transform="translate(389,234)"/>
<path d="M0 0 C2.83457092 2.83457092 2.70610806 5.28358548 3.046875 9.1796875 C2.97113108 13.73694669 1.59472555 17.76541803 0 22 C-0.33 22 -0.66 22 -1 22 C-0.67 14.74 -0.34 7.48 0 0 Z " fill="#8972B6" transform="translate(369,207)"/>
<path d="M0 0 C2.97100833 2.78977035 5.19659143 5.58148913 7.3125 9.0625 C7.84488281 9.91972656 8.37726563 10.77695312 8.92578125 11.66015625 C10 14 10 14 9 17 C0 5.52427184 0 5.52427184 0 0 Z " fill="#8E74B7" transform="translate(201,297)"/>
<path d="M0 0 C-3.15699521 3.45812398 -6.45533231 4.97845523 -11 6 C-13.80492204 5.95714041 -16.2291534 5.54427344 -19 5 C-19 4.67 -19 4.34 -19 4 C-18.04287109 3.92652344 -18.04287109 3.92652344 -17.06640625 3.8515625 C-16.24011719 3.77679688 -15.41382813 3.70203125 -14.5625 3.625 C-13.73878906 3.55539063 -12.91507812 3.48578125 -12.06640625 3.4140625 C-11.38449219 3.27742187 -10.70257813 3.14078125 -10 3 C-9.67 2.34 -9.34 1.68 -9 1 C-3.6407767 -1.21359223 -3.6407767 -1.21359223 0 0 Z " fill="#947BBD" transform="translate(356,171)"/>
<path d="M0 0 C0.33 0.66 0.66 1.32 1 2 C-0.07050218 3.48847916 -1.15692244 4.9655195 -2.25 6.4375 C-3.15492188 7.67306641 -3.15492188 7.67306641 -4.078125 8.93359375 C-6.10483324 11.11271704 -7.0991395 11.64701919 -10 12 C-8.62968895 6.34746692 -4.32310587 3.4886459 0 0 Z " fill="#9074BA" transform="translate(215,56)"/>
<path d="M0 0 C0.99 0 1.98 0 3 0 C2.67 5.94 2.34 11.88 2 18 C1.34 18 0.68 18 0 18 C0 12.06 0 6.12 0 0 Z " fill="#9179BB" transform="translate(162,178)"/>
<path d="M0 0 C0.33 0 0.66 0 1 0 C1.02691685 2.45840605 1.04679802 4.91651882 1.0625 7.375 C1.07087891 8.07367188 1.07925781 8.77234375 1.08789062 9.4921875 C1.11328125 14.7734375 1.11328125 14.7734375 0 17 C-1.98 17 -3.96 17 -6 17 C-4.68 16.34 -3.36 15.68 -2 15 C-2 12.36 -2 9.72 -2 7 C-1.67 7 -1.34 7 -1 7 C-0.67 4.69 -0.34 2.38 0 0 Z " fill="#9881C5" transform="translate(504,179)"/>
<path d="M0 0 C0.33 0 0.66 0 1 0 C0.875 3.25 0.875 3.25 0 7 C-3.0625 9.4375 -3.0625 9.4375 -6 11 C-6.66 10.34 -7.32 9.68 -8 9 C-6.69088122 7.49704815 -5.37761608 5.99770689 -4.0625 4.5 C-3.33160156 3.6646875 -2.60070312 2.829375 -1.84765625 1.96875 C-1.23792969 1.3190625 -0.62820312 0.669375 0 0 Z " fill="#916EBE" transform="translate(187,161)"/>
<path d="M0 0 C0.99 0.33 1.98 0.66 3 1 C2.67 6.28 2.34 11.56 2 17 C1.67 17 1.34 17 1 17 C-0.22517308 11.33357449 -0.09228867 5.76291482 0 0 Z " fill="#9C82C8" transform="translate(466,243)"/>
<path d="M0 0 C2 1.375 2 1.375 4 3 C4 3.66 4 4.32 4 5 C4.99 5.33 5.98 5.66 7 6 C7.8125 7.9375 7.8125 7.9375 8 10 C7.34 10.66 6.68 11.32 6 12 C5.38125 11.05125 4.7625 10.1025 4.125 9.125 C2.18029031 6.05554891 2.18029031 6.05554891 0 4 C0 2.68 0 1.36 0 0 Z " fill="#927ABD" transform="translate(376,125)"/>
<path d="M0 0 C1.5 1.25 1.5 1.25 3 3 C3 4.32 3 5.64 3 7 C3.66 7 4.32 7 5 7 C4.67 9.31 4.34 11.62 4 14 C0.99778216 9.49667324 -0.31896025 5.42232421 0 0 Z " fill="#7E5FAF" transform="translate(192,219)"/>
<path d="M0 0 C-1.5830577 4.2742558 -4.50568404 6.26531794 -8 9 C-8 8.34 -8 7.68 -8 7 C-8.66 6.67 -9.32 6.34 -10 6 C-8.90398831 4.99106869 -7.79786082 3.99311775 -6.6875 3 C-6.07261719 2.443125 -5.45773437 1.88625 -4.82421875 1.3125 C-3 0 -3 0 0 0 Z " fill="#8264AF" transform="translate(380,171)"/>
<path d="M0 0 C2.31 0 4.62 0 7 0 C7 4.62 7 9.24 7 14 C6.67 14 6.34 14 6 14 C5.67 10.04 5.34 6.08 5 2 C3.35 1.67 1.7 1.34 0 1 C0 0.67 0 0.34 0 0 Z " fill="#6A4D9D" transform="translate(497,178)"/>
<path d="M0 0 C2.12560437 0.30836232 4.25047065 0.62181614 6.375 0.9375 C8.15003906 1.19853516 8.15003906 1.19853516 9.9609375 1.46484375 C13 2 13 2 15 3 C15 3.66 15 4.32 15 5 C9.76119922 4.44854729 5.02649303 3.57077907 0 2 C0 1.34 0 0.68 0 0 Z " fill="#A694C5" transform="translate(359,182)"/>
<path d="M0 0 C5.01322676 0.37835674 6.85473083 0.89104812 11 4 C6.71 3.67 2.42 3.34 -2 3 C-1 1 -1 1 0 0 Z " fill="#9376C0" transform="translate(345,133)"/>
<path d="M0 0 C1 2 1 2 1 5 C1.66 5.66 2.32 6.32 3 7 C1.68 8.32 0.36 9.64 -1 11 C-1 10.34 -1 9.68 -1 9 C-1.66 9 -2.32 9 -3 9 C-2.44271087 5.65626525 -1.64826111 2.96687001 0 0 Z " fill="#8668B9" transform="translate(204,68)"/>
<path d="M0 0 C-0.99 0 -1.98 0 -3 0 C-3.33 0.99 -3.66 1.98 -4 3 C-5.98 3.33 -7.96 3.66 -10 4 C-10 4.66 -10 5.32 -10 6 C-10.66 5.67 -11.32 5.34 -12 5 C-5.60587432 -1.7397541 -5.60587432 -1.7397541 0 0 Z " fill="#8166AE" transform="translate(227,53)"/>
<path d="M0 0 C10.15317287 1.33041575 10.15317287 1.33041575 13.6875 4.125 C14.120625 4.74375 14.55375 5.3625 15 6 C11.37149374 6 9.13832722 4.93046332 5.8125 3.5 C4.72582031 3.0359375 3.63914062 2.571875 2.51953125 2.09375 C1.68808594 1.7328125 0.85664063 1.371875 0 1 C0 0.67 0 0.34 0 0 Z " fill="#9B85C3" transform="translate(359,118)"/>
<path d="M0 0 C0 0.33 0 0.66 0 1 C-5.60563042 1.82622671 -10.42289352 2.06795656 -16 1 C-16 0.67 -16 0.34 -16 0 C-10.42289352 -1.06795656 -5.60563042 -0.82622671 0 0 Z " fill="#8B71C0" transform="translate(364,116)"/>
<path d="M0 0 C4.875 4.625 4.875 4.625 6 8 C3 8 3 8 0.3125 5.625 C-2 3 -2 3 -2 1 C-1.34 0.67 -0.68 0.34 0 0 Z " fill="#8D74B7" transform="translate(181,201)"/>
<path d="M0 0 C0 1.98 0 3.96 0 6 C0.66 6 1.32 6 2 6 C2 7.65 2 9.3 2 11 C-0.74277578 7.80009492 -2.6302836 4.99500618 -4 1 C-1 0 -1 0 0 0 Z " fill="#9079BC" transform="translate(389,195)"/>
<path d="M0 0 C5.94 0 11.88 0 18 0 C18 0.33 18 0.66 18 1 C15.58343806 1.16831775 13.16676951 1.33471262 10.75 1.5 C10.06808594 1.54769531 9.38617188 1.59539062 8.68359375 1.64453125 C5.44268497 1.86478719 2.2506634 2 -1 2 C-0.67 1.34 -0.34 0.68 0 0 Z " fill="#684D9C" transform="translate(314,132)"/>
<path d="M0 0 C0.99 0.66 1.98 1.32 3 2 C2.34 2 1.68 2 1 2 C0.34 4.64 -0.32 7.28 -1 10 C-1.66 10 -2.32 10 -3 10 C-3.36629408 5.72656908 -2.40814077 3.51187196 0 0 Z " fill="#8A72B4" transform="translate(389,234)"/>
<path d="M0 0 C5.445 1.485 5.445 1.485 11 3 C7.5647952 5.29013653 6.014669 5.17842973 2 5 C1.34 3.35 0.68 1.7 0 0 Z " fill="#8368AB" transform="translate(492,174)"/>
<path d="M0 0 C0.66 0 1.32 0 2 0 C3.42857143 8.57142857 3.42857143 8.57142857 1 12 C0.01751476 7.9472484 -0.08159574 4.16138263 0 0 Z " fill="#6E4FA0" transform="translate(196,230)"/>
<path d="M0 0 C0.66 0.33 1.32 0.66 2 1 C1.34 1.66 0.68 2.32 0 3 C-0.165 3.845625 -0.33 4.69125 -0.5 5.5625 C-0.665 6.366875 -0.83 7.17125 -1 8 C-1.99 8.495 -1.99 8.495 -3 9 C-3 6.36 -3 3.72 -3 1 C-2.01 0.67 -1.02 0.34 0 0 Z " fill="#6B4DA0" transform="translate(310,132)"/>
<path d="M0 0 C-1.28650706 0.69710731 -2.57940665 1.38242876 -3.875 2.0625 C-4.95394531 2.63677734 -4.95394531 2.63677734 -6.0546875 3.22265625 C-6.69664062 3.47917969 -7.33859375 3.73570312 -8 4 C-8.66 3.67 -9.32 3.34 -10 3 C-10 2.34 -10 1.68 -10 1 C-6.16112237 -0.48320272 -3.93795909 -1.22419163 0 0 Z " fill="#8B6BB4" transform="translate(453,317)"/>
<path d="M0 0 C2.97 0.495 2.97 0.495 6 1 C3.09907498 2.93395001 2.10325263 3.30131941 -1.1875 3.625 C-2.445625 3.74875 -3.70375 3.8725 -5 4 C-2 2 -2 2 0 2 C0 1.34 0 0.68 0 0 Z " fill="#A184C5" transform="translate(352,237)"/>
<path d="M0 0 C0.99 0 1.98 0 3 0 C2.74438677 2.3431213 2.40729228 4.67843403 2 7 C1.01 7.495 1.01 7.495 0 8 C0 5.36 0 2.72 0 0 Z " fill="#6E4DA5" transform="translate(385,155)"/>
<path d="M0 0 C2.08954032 4.17908064 2.16552619 4.80410573 1 9 C0.34 9 -0.32 9 -1 9 C-0.67 6.03 -0.34 3.06 0 0 Z " fill="#8E74B9" transform="translate(198,238)"/>
<path d="M0 0 C-2.31 1.32 -4.62 2.64 -7 4 C-7.33 3.34 -7.66 2.68 -8 2 C-8.66 1.67 -9.32 1.34 -10 1 C-8.71073008 0.63720544 -7.41846728 0.28503302 -6.125 -0.0625 C-5.40570313 -0.25972656 -4.68640625 -0.45695313 -3.9453125 -0.66015625 C-2 -1 -2 -1 0 0 Z " fill="#8867AC" transform="translate(173,176)"/>
<path d="M0 0 C0.33 0 0.66 0 1 0 C1 2.64 1 5.28 1 8 C0.01 8.495 0.01 8.495 -1 9 C-1.66 8.34 -2.32 7.68 -3 7 C-2.01 4.69 -1.02 2.38 0 0 Z " fill="#8067B3" transform="translate(384,159)"/>
<path d="M0 0 C1.32 0.33 2.64 0.66 4 1 C2.35 2.98 0.7 4.96 -1 7 C-2 4 -2 4 -1.0625 1.8125 C-0.5365625 0.9153125 -0.5365625 0.9153125 0 0 Z " fill="#846EAE" transform="translate(481,205)"/>
<path d="M0 0 C0.33 0.99 0.66 1.98 1 3 C-2.3 2.34 -5.6 1.68 -9 1 C-9 0.67 -9 0.34 -9 0 C-5.69903842 -0.8252404 -3.1967 -1.37001429 0 0 Z " fill="#876BB1" transform="translate(172,196)"/>
<path d="M0 0 C1.98 0 3.96 0 6 0 C6.33 0.99 6.66 1.98 7 3 C4.69 2.67 2.38 2.34 0 2 C0 1.34 0 0.68 0 0 Z " fill="#7256A5" transform="translate(360,181)"/>
<path d="M0 0 C2 2 2 2 2.1953125 3.9453125 C2.13020833 5.96354167 2.06510417 7.98177083 2 10 C0.59216816 7.37204724 -0.50772334 4.95365998 -1 2 C-0.67 1.34 -0.34 0.68 0 0 Z " fill="#6C4DA0" transform="translate(362,146)"/>
<path d="M0 0 C2.50298434 2.93828597 3.46930939 5.17902761 4 9 C3.01 8.67 2.02 8.34 1 8 C0.67 5.36 0.34 2.72 0 0 Z " fill="#9272B9" transform="translate(461,67)"/>
</svg>
