<?xml version="1.0" encoding="UTF-8"?>
<svg version="1.1" xmlns="http://www.w3.org/2000/svg" width="500" height="400">
<path d="M0 0 C1.54188698 -0.00542993 3.08376877 -0.01255746 4.62564087 -0.02124023 C8.78687551 -0.03937317 12.94771053 -0.03244792 17.10895157 -0.01972389 C21.47913887 -0.00954389 25.84929367 -0.01900338 30.21948242 -0.02526855 C37.55621435 -0.03253048 44.89278482 -0.0229956 52.22949219 -0.00390625 C60.69225219 0.01785973 69.15462662 0.01080733 77.61737728 -0.01121187 C84.90433249 -0.02940749 92.19117213 -0.03190392 99.47814274 -0.0214572 C103.82113521 -0.01524507 108.16394689 -0.01432341 112.50692749 -0.02760315 C116.59145385 -0.03922189 120.67548671 -0.0310271 124.75996017 -0.00802612 C126.25221312 -0.00277098 127.74450814 -0.00419759 129.23674393 -0.01307678 C137.71916614 -0.05886715 144.86726374 0.52765957 152.51953125 4.51757812 C152.51953125 5.17757812 152.51953125 5.83757813 152.51953125 6.51757812 C153.11636719 6.78441406 153.71320313 7.05125 154.328125 7.32617188 C156.56882728 8.544379 157.89866209 9.68123772 159.58203125 11.58007812 C160.06800781 12.10730469 160.55398438 12.63453125 161.0546875 13.17773438 C166.20754272 21.40856178 165.95043549 30.21074829 165.90771484 39.64086914 C165.91178627 41.15629452 165.91713134 42.67171694 165.92364502 44.18713379 C165.9372555 48.28005751 165.93204637 52.37275294 165.92250776 56.46568036 C165.91487991 60.76073116 165.92196529 65.05576321 165.92666626 69.35081482 C165.93211415 76.56065356 165.92495701 83.77039991 165.91064453 90.98022461 C165.89431366 99.30264197 165.89961355 107.62483886 165.91612375 115.9472509 C165.92975881 123.10845144 165.9316486 130.2695858 165.92380774 137.43079513 C165.91914311 141.70105249 165.91847307 145.97120637 165.92841721 150.24145699 C165.93711431 154.25612025 165.93101521 158.27050051 165.91373444 162.28513336 C165.90978445 163.75404072 165.91087802 165.2229721 165.91752243 166.69186974 C165.96064363 177.1971823 165.21158427 185.01686213 158.51953125 193.51757812 C151.24517229 200.7763603 144.61161799 204.63051379 134.25263977 204.65802002 C132.32023186 204.66658524 132.32023186 204.66658524 130.3487854 204.67532349 C128.92303476 204.67656878 127.49728402 204.67769389 126.0715332 204.67871094 C124.56832254 204.68334091 123.06511304 204.68836581 121.56190491 204.6937561 C117.4790235 204.70686674 113.39615853 204.7133227 109.31325936 204.71776676 C106.76031731 204.72070025 104.20737973 204.72480563 101.65443993 204.72927094 C93.66087977 204.74294368 85.66732985 204.75261086 77.6737588 204.75647283 C68.45787169 204.76095017 59.24213314 204.77848396 50.02629119 204.80747342 C42.89576488 204.82912161 35.76528027 204.83917881 28.63472146 204.84051394 C24.37942711 204.84155992 20.12427247 204.84742327 15.86901283 204.86533356 C11.862651 204.88186811 7.85653305 204.88394379 3.85014915 204.87519455 C2.38487976 204.87442699 0.91959696 204.87872962 -0.54563904 204.8886528 C-11.918517 204.96111761 -20.46045185 203.96440461 -29.3984375 196.62304688 C-35.41523518 190.53851789 -38.59884154 183.74225921 -38.62091064 175.25032043 C-38.62662079 173.93673553 -38.63233093 172.62315063 -38.63821411 171.26976013 C-38.63945948 169.81045542 -38.64058457 168.3511506 -38.64160156 166.8918457 C-38.64623008 165.35760377 -38.65125479 163.82336298 -38.65664673 162.28912354 C-38.66977178 158.11740991 -38.6762162 153.94571238 -38.68065739 149.77398133 C-38.68358869 147.16661185 -38.68769367 144.55924677 -38.69216156 141.9518795 C-38.70583841 133.79119602 -38.71550345 125.63052258 -38.71936345 117.46982843 C-38.72384111 108.05526085 -38.7413746 98.64083869 -38.77036405 89.22631532 C-38.79200083 81.94635688 -38.80206884 74.66643928 -38.80340457 67.38644904 C-38.80445141 63.04007007 -38.81033315 58.69382775 -38.82822418 54.34748268 C-38.84473883 50.25577803 -38.84684398 46.16431223 -38.83808517 42.07258606 C-38.83731654 40.57464647 -38.84163456 39.07669386 -38.85154343 37.57878685 C-38.92761423 25.35783144 -37.22429546 16.82224202 -28.85546875 7.39257812 C-20.68873597 -0.18958965 -10.51657362 -0.06257638 0 0 Z M21.51953125 48.51757812 C21.51953125 84.15757812 21.51953125 119.79757813 21.51953125 156.51757812 C30.34703125 156.55882812 39.17453125 156.60007812 48.26953125 156.64257812 C52.41273926 156.66989014 52.41273926 156.66989014 56.63964844 156.69775391 C58.86523241 156.70360322 61.09081854 156.70869773 63.31640625 156.71289062 C64.44256348 156.72312256 65.5687207 156.73335449 66.72900391 156.74389648 C80.8172984 156.74694986 93.25871599 155.11499173 103.859375 145.25195312 C110.20347774 138.62423167 109.86791345 131.16267127 109.73828125 122.51757812 C109.47493279 115.47300669 107.58386643 109.58191331 102.51953125 104.51757812 C98.55136887 101.41205974 95.54316029 99.99601899 90.51953125 99.51757812 C92.7273897 97.23382454 95.06932134 95.22371697 97.51953125 93.20507812 C101.86513904 89.42559538 104.66832583 85.30577496 105.51953125 79.51757812 C106.0638468 71.6250026 104.83316291 64.04908087 99.89453125 57.64257812 C93.20081109 50.66995295 84.92152762 50.08457752 75.51953125 48.51757812 C57.69953125 48.51757812 39.87953125 48.51757812 21.51953125 48.51757812 Z " fill="#FEFEFE" transform="translate(189.48046875,47.482421875)"/>
<path d="M0 0 C0.82638977 -0.00570007 1.65277954 -0.01140015 2.50421143 -0.01727295 C4.25604979 -0.02672851 6.00790598 -0.03325913 7.75976562 -0.03710938 C10.42870582 -0.04678646 13.09686656 -0.07779206 15.765625 -0.109375 C17.46874543 -0.11590804 19.17187137 -0.12115733 20.875 -0.125 C21.66896179 -0.1373468 22.46292358 -0.1496936 23.28094482 -0.16241455 C28.83895152 -0.14028885 33.09009363 0.81974247 37.34765625 4.703125 C41.28798849 9.76361858 42.40541414 13.82198058 41.703125 20.203125 C40.328125 23.453125 40.328125 23.453125 38.703125 26.203125 C38.31125 26.986875 37.919375 27.770625 37.515625 28.578125 C37.2475 29.114375 36.979375 29.650625 36.703125 30.203125 C37.46625 30.6775 38.229375 31.151875 39.015625 31.640625 C42.62194602 35.07921016 43.84876048 38.33324724 44.703125 43.203125 C44.68978542 47.43844245 44.04020694 51.19187919 42.703125 55.203125 C42.043125 55.203125 41.383125 55.203125 40.703125 55.203125 C40.32414062 56.12544922 40.32414062 56.12544922 39.9375 57.06640625 C38.50905446 59.53906355 37.50192988 60.18043663 34.953125 61.390625 C34.29828125 61.71417969 33.6434375 62.03773438 32.96875 62.37109375 C27.8201959 64.26185586 22.62122283 64.33121017 17.1875 64.3359375 C16.49045959 64.33689423 15.79341919 64.33785095 15.07525635 64.33883667 C13.61299549 64.33951317 12.15073154 64.33769612 10.68847656 64.33349609 C8.44589581 64.32810763 6.20351237 64.33347558 3.9609375 64.33984375 C2.53645789 64.33918351 1.11197841 64.33790347 -0.3125 64.3359375 C-1.60446289 64.33480957 -2.89642578 64.33368164 -4.22753906 64.33251953 C-7.296875 64.203125 -7.296875 64.203125 -9.296875 63.203125 C-9.29163818 62.28426514 -9.28640137 61.36540527 -9.28100586 60.41870117 C-9.18380448 40.64990972 -9.35408008 20.95417707 -10.296875 1.203125 C-7.0716339 -0.40949555 -3.54432146 0.01878034 0 0 Z M4.703125 11.203125 C3.39852586 13.81232328 3.5704656 15.79255115 3.578125 18.703125 C3.57554688 19.6828125 3.57296875 20.6625 3.5703125 21.671875 C3.53372447 24.19743554 3.53372447 24.19743554 4.703125 26.203125 C7.64068619 26.2300751 10.57800055 26.24993974 13.515625 26.265625 C14.34900391 26.27400391 15.18238281 26.28238281 16.04101562 26.29101562 C17.24467773 26.29584961 17.24467773 26.29584961 18.47265625 26.30078125 C19.21104736 26.30601807 19.94943848 26.31125488 20.71020508 26.31665039 C22.91369909 26.27835713 22.91369909 26.27835713 25.703125 25.203125 C25.703125 24.543125 25.703125 23.883125 25.703125 23.203125 C26.363125 23.203125 27.023125 23.203125 27.703125 23.203125 C28.71974077 18.83167718 28.87201259 16.19844424 26.703125 12.203125 C24.30252683 11.00282592 22.80951851 11.08852757 20.1328125 11.10546875 C18.78896484 11.11030273 18.78896484 11.11030273 17.41796875 11.11523438 C16.48082031 11.12361328 15.54367188 11.13199219 14.578125 11.140625 C13.16080078 11.14739258 13.16080078 11.14739258 11.71484375 11.15429688 C9.37754113 11.16610143 7.04036439 11.18256741 4.703125 11.203125 Z M3.703125 35.203125 C3.703125 41.143125 3.703125 47.083125 3.703125 53.203125 C6.91197284 53.28439976 10.11874261 53.34375641 13.328125 53.390625 C14.23175781 53.41576172 15.13539062 53.44089844 16.06640625 53.46679688 C21.37153504 53.52488223 25.14155108 53.25155547 29.703125 50.203125 C31.3031765 47.00302199 31.19827069 43.67602183 30.703125 40.203125 C28.88912965 37.5829095 27.70170461 36.49059489 24.640625 35.609375 C20.54703 35.04323952 16.51675173 35.0986165 12.390625 35.140625 C9.52375 35.16125 6.656875 35.181875 3.703125 35.203125 Z " fill="#FDFBFC" transform="translate(68.296875,287.796875)"/>
<path d="M0 0 C0.77392593 -0.00570007 1.54785187 -0.01140015 2.3452301 -0.01727295 C3.99210233 -0.02674492 5.63899369 -0.03326561 7.28588867 -0.03710938 C9.77492992 -0.04671494 12.26310951 -0.07767314 14.75195312 -0.109375 C34.52814758 -0.24485483 34.52814758 -0.24485483 40.32788086 4.94824219 C44.57421647 9.56658995 45.75332006 13.58292548 45.65234375 19.79296875 C45.107614 24.59437238 43.2180419 28.36854166 39.80078125 31.77734375 C33.65252206 36.61009703 26.56004495 36.35399636 19.0390625 36.30078125 C18.27210556 36.2993663 17.50514862 36.29795135 16.71495056 36.29649353 C14.29039435 36.29094266 11.86593406 36.27839963 9.44140625 36.265625 C7.78711072 36.26060364 6.13281372 36.25604185 4.47851562 36.25195312 C0.44527613 36.24098938 -3.58789261 36.22375924 -7.62109375 36.203125 C-8.58859244 32.14674023 -8.75006927 28.35227042 -8.75390625 24.1875 C-8.75486298 23.53106506 -8.7558197 22.87463013 -8.75680542 22.19830322 C-8.75748255 20.82002669 -8.75566098 19.44174688 -8.75146484 18.06347656 C-8.74607534 15.94589187 -8.75144311 13.82851596 -8.7578125 11.7109375 C-8.75715231 10.3697912 -8.75587237 9.02864502 -8.75390625 7.6875 C-8.75277832 6.46772461 -8.75165039 5.24794922 -8.75048828 3.99121094 C-8.49642375 -1.48316068 -4.4563249 0.0252207 0 0 Z " fill="#FEFDFD" transform="translate(236.62109375,153.796875)"/>
<path d="M0 0 C0.51949219 -0.32226562 1.03898437 -0.64453125 1.57421875 -0.9765625 C7.06837513 -3.29454796 14.62847854 -3.00916289 20.296875 -1.3125 C26.30097459 1.87551748 30.37104845 7.31711908 32.49609375 13.66796875 C34.38262883 22.3986776 33.5132297 31.38539927 28.74609375 39.00390625 C25.25985688 43.55406282 21.59518472 45.81314263 16 47 C9.12054193 47.77671301 4.2256968 45.85769689 -2 43 C-1.67 43.99 -1.34 44.98 -1 46 C-0.90417913 48.55334435 -0.86060722 51.07268016 -0.875 53.625 C-0.87113281 54.31851563 -0.86726563 55.01203125 -0.86328125 55.7265625 C-0.87333354 60.87333354 -0.87333354 60.87333354 -2 62 C-3.83115883 62.09851171 -5.66619933 62.12972629 -7.5 62.125 C-8.5003125 62.12757813 -9.500625 62.13015625 -10.53125 62.1328125 C-13 62 -13 62 -14 61 C-14.09396057 59.06693502 -14.11743517 57.13041162 -14.11352539 55.19506836 C-14.11344986 53.95385727 -14.11337433 52.71264618 -14.11329651 51.43382263 C-14.10818911 50.0691626 -14.1029731 48.70450298 -14.09765625 47.33984375 C-14.095792 45.95121817 -14.09436813 44.56259193 -14.09336853 43.17396545 C-14.08954387 39.51278885 -14.07971403 35.8516517 -14.06866455 32.19049072 C-14.05844932 28.45707737 -14.05387067 24.72365766 -14.04882812 20.99023438 C-14.03809171 13.66013823 -14.02101591 6.33007464 -14 -1 C-12.23086176 -1.22226864 -10.45955629 -1.42733873 -8.6875 -1.625 C-7.70136719 -1.74101562 -6.71523438 -1.85703125 -5.69921875 -1.9765625 C-3 -2 -3 -2 0 0 Z M0 12 C-2.15038184 17.96448016 -3.13675514 24.23930895 -0.6875 30.1875 C1.19876625 33.55692288 1.19876625 33.55692288 4 36 C9.52605265 37.26146415 9.52605265 37.26146415 14.8125 35.8125 C17.70001379 33.41998857 19.65917913 31.36557087 20.58203125 27.66796875 C21.21418927 20.8642341 20.99982559 15.84823645 16.9375 10.0625 C13.42339454 7.59514936 11.36156846 7.31360193 7.15234375 7.59375 C3.68634013 8.24795032 2.21384057 9.2494708 0 12 Z " fill="#FDFBFC" transform="translate(416,306)"/>
<path d="M0 0 C0.72018311 -0.01853027 1.44036621 -0.03706055 2.18237305 -0.05615234 C8.43005214 0.01675273 12.48209559 2.03716299 17.3125 6.0625 C19.95209832 9.43532007 19.55298056 13.05495225 19.53515625 17.13671875 C19.53193359 18.43544922 19.52871094 19.73417969 19.52539062 21.07226562 C19.51703531 22.44401108 19.50857037 23.81575587 19.5 25.1875 C19.49498335 26.57096195 19.49042073 27.95442563 19.48632812 29.33789062 C19.47452529 32.72530395 19.45806019 36.11263033 19.4375 39.5 C20.7575 39.5 22.0775 39.5 23.4375 39.5 C23.4375 42.47 23.4375 45.44 23.4375 48.5 C14.34485123 49.99148191 14.34485123 49.99148191 10.4375 47.875 C6.2811445 45.97000373 4.13390702 47.26827958 -0.04296875 48.71484375 C-5.13194164 50.30070972 -9.21953316 49.94765561 -14.3125 48.25 C-18.04510226 46.24013724 -20.65105082 44.32289835 -22.5625 40.5 C-23.15800215 35.95458486 -23.56258181 31.45863773 -21.43359375 27.2890625 C-16.74055922 21.48097277 -11.15691297 20.41622462 -3.9921875 19.61328125 C-3.23164063 19.53464844 -2.47109375 19.45601563 -1.6875 19.375 C-0.90375 19.28863281 -0.12 19.20226562 0.6875 19.11328125 C2.60353159 18.9029851 4.5204366 18.70067256 6.4375 18.5 C6.4375 16.19 6.4375 13.88 6.4375 11.5 C4.68758666 11.47284617 2.93755055 11.45353449 1.1875 11.4375 C0.21296875 11.42589844 -0.7615625 11.41429687 -1.765625 11.40234375 C-4.22008678 11.48804423 -6.22418914 11.79293934 -8.5625 12.5 C-8.8925 13.82 -9.2225 15.14 -9.5625 16.5 C-13.5225 16.5 -17.4825 16.5 -21.5625 16.5 C-21.08376863 11.47332059 -19.83925909 8.36489534 -16.5625 4.5 C-11.21918574 0.51870702 -6.47938616 0.10451747 0 0 Z M-1.5 27.875 C-2.76714844 28.13023437 -4.03429687 28.38546875 -5.33984375 28.6484375 C-8.62543209 29.22760217 -8.62543209 29.22760217 -10.5625 31.5 C-11.06264953 33.95741537 -11.06264953 33.95741537 -10.5625 36.5 C-8.24716118 39.18579303 -6.71285683 39.4805093 -3.1875 39.9375 C1.09357139 39.42081897 3.17967222 38.29242381 6.4375 35.5 C7.95999091 32.35351879 7.26670127 29.8168051 6.4375 26.5 C3.81926164 26.5 1.04102289 27.35389683 -1.5 27.875 Z " fill="#FDFBFC" transform="translate(374.5625,303.5)"/>
<path d="M0 0 C5.1411629 -0.07449853 10.28200729 -0.12876593 15.42358398 -0.16479492 C17.1703845 -0.17982429 18.91714765 -0.20025354 20.66381836 -0.22631836 C23.18352515 -0.2629608 25.70273039 -0.27978492 28.22265625 -0.29296875 C29.3824575 -0.31619453 29.3824575 -0.31619453 30.56568909 -0.33988953 C36.15658479 -0.34160094 41.3958685 0.42197509 45.55859375 4.54296875 C48.7125676 10.44440427 48.81246639 15.81091012 47.0625 22.1875 C45.21693776 26.24073854 42.98898749 27.9470303 39.09155273 29.99438477 C32.16951377 32.24597432 24.69736056 31.5397928 17.5 31.375 C15.81512439 31.3584689 14.13022579 31.34412706 12.4453125 31.33203125 C0.19657163 31.19657163 0.19657163 31.19657163 -1 30 C-1.41446242 22.68595721 -0.94759412 15.33348669 -0.4921875 8.03125 C-0.44505615 7.25426758 -0.3979248 6.47728516 -0.34936523 5.67675781 C-0.23436908 3.78441599 -0.11739308 1.89219464 0 0 Z " fill="#FEFDFD" transform="translate(229,111)"/>
<path d="M0 0 C5.14081035 3.2004611 8.93148314 6.85410749 10.86328125 12.75 C12.62440978 21.56908636 12.56544767 30.42123382 7.92578125 38.2890625 C3.85403079 43.60182507 -1.06913646 46.06914657 -7.625 47.3125 C-16.00051674 48.16065359 -22.31346611 46.39727848 -28.9375 41.1875 C-34.81115088 35.64849721 -35.75586306 29.72838846 -36.125 21.875 C-35.97750561 15.59173878 -34.49844798 10.33778909 -30.625 5.3125 C-28.453125 4.04296875 -28.453125 4.04296875 -26.625 3.3125 C-26.625 2.6525 -26.625 1.9925 -26.625 1.3125 C-19.01971721 -3.13937285 -8.03761161 -3.76619515 0 0 Z M-21.625 13.3125 C-24.05080195 18.93594997 -24.15388474 24.42919668 -22.625 30.3125 C-20.86305785 33.3681759 -18.83242846 35.70878577 -15.625 37.3125 C-11.98723657 37.58704818 -9.29522818 37.5714518 -5.875 36.25 C-2.13965146 33.03344987 -0.88956988 29.60302278 -0.33984375 24.84375 C-0.12364986 18.60232629 -1.06010746 14.2719914 -5.25 9.4375 C-11.69526604 6.38447924 -17.47705022 7.40481395 -21.625 13.3125 Z " fill="#FCFAFB" transform="translate(203.625,305.6875)"/>
<path d="M0 0 C1.29550781 -0.02578125 2.59101563 -0.0515625 3.92578125 -0.078125 C10.19239396 0.46849542 15.48952745 3.56855308 19.6875 8.25 C24.51211869 15.23378446 24.60114148 23.0367438 23.6875 31.25 C21.99054864 38.45143733 17.78228876 43.20214029 11.6875 47.25 C4.24639988 50.36173278 -3.65944223 50.1529306 -11.171875 47.35546875 C-16.29137381 44.71163998 -20.90131528 40.00765618 -22.87109375 34.51953125 C-24.55755606 25.84842856 -24.4609655 17.08486943 -19.9453125 9.34375 C-14.49115433 2.34990125 -8.70099166 0.10327587 0 0 Z M-9.3125 14.25 C-12.11559041 18.78833686 -11.72129174 24.08900423 -11.3125 29.25 C-10.26436938 33.26783404 -8.67212365 35.77448784 -5.3125 38.25 C-0.96479275 39.69923575 1.83051256 39.65423936 6 37.6875 C10.18242203 33.89414048 11.82640961 30.47116189 12.125 24.875 C11.95690938 20.14444978 10.60954753 16.01078339 7.6875 12.25 C1.68315249 8.44930993 -4.57479412 9.09426124 -9.3125 14.25 Z " fill="#FDFBFB" transform="translate(140.3125,303.75)"/>
<path d="M0 0 C0.69029297 -0.01611328 1.38058594 -0.03222656 2.09179688 -0.04882812 C8.0409233 -0.05446711 11.97859274 1.50279107 16.4375 5.375 C18.0625 7.3125 18.0625 7.3125 18.0625 9.3125 C18.7225 9.3125 19.3825 9.3125 20.0625 9.3125 C20.0625 11.6225 20.0625 13.9325 20.0625 16.3125 C18.12690687 16.44754138 16.188628 16.54451129 14.25 16.625 C13.17105469 16.68300781 12.09210938 16.74101562 10.98046875 16.80078125 C10.01753906 16.63964844 9.05460937 16.47851562 8.0625 16.3125 C7.0625 14.64583333 6.0625 12.97916667 5.0625 11.3125 C2.09868482 10.70768228 2.09868482 10.70768228 -1.125 11 C-2.21167969 11.04511719 -3.29835938 11.09023438 -4.41796875 11.13671875 C-5.24941406 11.19472656 -6.08085937 11.25273437 -6.9375 11.3125 C-6.62294619 13.82399625 -6.62294619 13.82399625 -4.9375 16.3125 C-1.21493388 17.90561951 2.83526745 18.47053323 6.79101562 19.25195312 C12.78198709 20.58483905 17.07434991 22.50669256 21.0625 27.3125 C22.43291408 30.67950988 22.45013532 33.71219014 22.0625 37.3125 C19.632653 42.91171265 15.36441808 45.65618549 10.0625 48.3125 C3.34340571 50.61113752 -4.7300211 50.03087791 -11.1875 47.21875 C-16.7251258 44.35105093 -19.02485613 41.26294761 -20.9375 35.3125 C-20.5078125 33.09375 -20.5078125 33.09375 -19.9375 31.3125 C-16.21049061 30.96550257 -12.65077301 30.77131591 -8.9375 31.3125 C-6.375 34.25 -6.375 34.25 -4.9375 37.3125 C-1.39699022 39.08275489 2.5885987 38.50643438 6.4375 38 C6.97375 37.773125 7.51 37.54625 8.0625 37.3125 C8.3925 36.3225 8.7225 35.3325 9.0625 34.3125 C6.8681446 31.80969073 5.27373836 30.84875464 2.04296875 30.1015625 C1.26759766 29.90820312 0.49222656 29.71484375 -0.30664062 29.515625 C-1.92270594 29.13324664 -3.53988992 28.75556266 -5.15820312 28.3828125 C-10.62833762 27.00736098 -13.96727401 25.37505683 -17.9375 21.3125 C-20.06705949 17.43365951 -20.02168995 13.87376631 -19.375 9.5625 C-17.42011211 5.14275346 -15.01998563 3.35374282 -10.765625 1.2265625 C-7.15776458 0.06048607 -3.75059893 -0.01741225 0 0 Z " fill="#FCFAFB" transform="translate(267.9375,303.6875)"/>
<path d="M0 0 C1.51400391 0.01740234 1.51400391 0.01740234 3.05859375 0.03515625 C4.07050781 0.04417969 5.08242188 0.05320312 6.125 0.0625 C7.29869141 0.07990234 7.29869141 0.07990234 8.49609375 0.09765625 C9.82866778 9.50767903 9.82866778 9.50767903 8.49609375 14.09765625 C11.46609375 14.09765625 14.43609375 14.09765625 17.49609375 14.09765625 C17.59375 21.03125 17.59375 21.03125 17.49609375 23.09765625 C17.16609375 23.42765625 16.83609375 23.75765625 16.49609375 24.09765625 C14.18609375 24.09765625 11.87609375 24.09765625 9.49609375 24.09765625 C9.49609375 32.67765625 9.49609375 41.25765625 9.49609375 50.09765625 C12.13609375 50.42765625 14.77609375 50.75765625 17.49609375 51.09765625 C18.3285123 54.42733043 18.77183185 56.8503229 17.49609375 60.09765625 C13.31664048 62.18738289 8.04724846 61.53675071 3.49609375 61.09765625 C0.80205345 60.0804672 -0.36348141 59.12238245 -2.50390625 57.09765625 C-3.66318153 53.61983042 -3.61703691 50.90962368 -3.6015625 47.2421875 C-3.60014755 46.58055099 -3.5987326 45.91891449 -3.59727478 45.23722839 C-3.59168621 43.12815797 -3.5791359 41.01919448 -3.56640625 38.91015625 C-3.56138977 37.47851716 -3.55682712 36.0468764 -3.55273438 34.61523438 C-3.54172055 31.10934037 -3.5244638 27.60350875 -3.50390625 24.09765625 C-5.81390625 24.09765625 -8.12390625 24.09765625 -10.50390625 24.09765625 C-11.50390625 16.34765625 -11.50390625 16.34765625 -11.50390625 14.09765625 C-8.86390625 14.09765625 -6.22390625 14.09765625 -3.50390625 14.09765625 C-3.51550781 13.17082031 -3.52710938 12.24398438 -3.5390625 11.2890625 C-3.54808594 10.09152344 -3.55710937 8.89398438 -3.56640625 7.66015625 C-3.57800781 6.46519531 -3.58960938 5.27023437 -3.6015625 4.0390625 C-3.47195922 0.13541183 -3.47195922 0.13541183 0 0 Z " fill="#FDFBFC" transform="translate(301.50390625,290.90234375)"/>
<path d="M0 0 C1.51400391 0.01740234 1.51400391 0.01740234 3.05859375 0.03515625 C4.07050781 0.04417969 5.08242187 0.05320312 6.125 0.0625 C7.29869141 0.07990234 7.29869141 0.07990234 8.49609375 0.09765625 C9.59979418 3.40875755 9.42283016 5.34514574 9.05859375 8.78515625 C8.95675781 9.77902344 8.85492188 10.77289063 8.75 11.796875 C8.66621094 12.55613281 8.58242187 13.31539063 8.49609375 14.09765625 C11.46609375 14.09765625 14.43609375 14.09765625 17.49609375 14.09765625 C17.49609375 17.06765625 17.49609375 20.03765625 17.49609375 23.09765625 C14.34272575 23.79840469 11.76884401 24.09765625 8.49609375 24.09765625 C8.634224 28.24378439 8.78288234 32.38946787 8.93359375 36.53515625 C8.97291016 37.71916016 9.01222656 38.90316406 9.05273438 40.12304688 C9.09462891 41.24775391 9.13652344 42.37246094 9.1796875 43.53125 C9.21634521 44.57337646 9.25300293 45.61550293 9.29077148 46.68920898 C9.23124716 49.04763885 9.23124716 49.04763885 10.49609375 50.09765625 C12.82427339 50.46526356 15.15793225 50.80007206 17.49609375 51.09765625 C17.52298591 52.57672517 17.54243996 54.05593108 17.55859375 55.53515625 C17.57019531 56.35886719 17.58179688 57.18257813 17.59375 58.03125 C17.49609375 60.09765625 17.49609375 60.09765625 16.49609375 61.09765625 C14.58368891 61.25017934 12.66436576 61.31958398 10.74609375 61.34765625 C9.699375 61.3734375 8.65265625 61.39921875 7.57421875 61.42578125 C3.15876754 60.95509863 0.59081819 59.19238069 -2.50390625 56.09765625 C-3.782393 52.57740477 -3.61783626 49.07369902 -3.6015625 45.36328125 C-3.59833984 44.06777344 -3.59511719 42.77226562 -3.59179688 41.4375 C-3.58344223 40.07421808 -3.57497729 38.71093683 -3.56640625 37.34765625 C-3.56138793 35.9687516 -3.5568256 34.58984521 -3.55273438 33.2109375 C-3.54094718 29.83979966 -3.5244926 26.46874997 -3.50390625 23.09765625 C-4.47328125 23.28328125 -5.44265625 23.46890625 -6.44140625 23.66015625 C-7.45203125 23.80453125 -8.46265625 23.94890625 -9.50390625 24.09765625 C-10.50390625 23.09765625 -10.50390625 23.09765625 -10.6015625 21.03125 C-10.58996094 20.20753906 -10.57835937 19.38382812 -10.56640625 18.53515625 C-10.55738281 17.70886719 -10.54835937 16.88257813 -10.5390625 16.03125 C-10.52746094 15.39316406 -10.51585937 14.75507813 -10.50390625 14.09765625 C-8.19390625 14.09765625 -5.88390625 14.09765625 -3.50390625 14.09765625 C-3.51550781 13.17082031 -3.52710938 12.24398438 -3.5390625 11.2890625 C-3.54808594 10.09152344 -3.55710938 8.89398438 -3.56640625 7.66015625 C-3.57800781 6.46519531 -3.58960938 5.27023437 -3.6015625 4.0390625 C-3.47195922 0.13541183 -3.47195922 0.13541183 0 0 Z " fill="#FDFBFC" transform="translate(227.50390625,290.90234375)"/>
<path d="M0 0 C0.33 3.96 0.66 7.92 1 12 C-1.0728125 11.9071875 -1.0728125 11.9071875 -3.1875 11.8125 C-7.29164249 11.81895305 -9.77666301 12.2650474 -13 15 C-15.22763631 18.43760078 -15.30386467 21.47503782 -15.4140625 25.515625 C-15.47207031 27.39121094 -15.47207031 27.39121094 -15.53125 29.3046875 C-15.57765625 31.25761719 -15.57765625 31.25761719 -15.625 33.25 C-15.66367187 34.56742187 -15.70234375 35.88484375 -15.7421875 37.2421875 C-15.83646182 40.49465161 -15.9220675 43.74710996 -16 47 C-20.22629214 48.40876405 -23.10903751 48 -28 48 C-28 32.49 -28 16.98 -28 1 C-24.37 1 -20.74 1 -17 1 C-16.67 2.32 -16.34 3.64 -16 5 C-15.566875 4.54625 -15.13375 4.0925 -14.6875 3.625 C-9.93321429 -0.95320106 -6.29219533 -0.16343364 0 0 Z " fill="#FDFBFC" transform="translate(352,304)"/>
<path d="M0 0 C3.1875 0.875 3.1875 0.875 6 2 C5.67 2.66 5.34 3.32 5 4 C4.34 4 3.68 4 3 4 C2.67 4.66 2.34 5.32 2 6 C1.67 5.34 1.34 4.68 1 4 C-1.01669827 2.86649466 -1.01669827 2.86649466 -3 2 C-2.01 1.34 -1.02 0.68 0 0 Z " fill="#FAFAF2" transform="translate(287,143)"/>
<path d="M0 0 C0.66 0.66 1.32 1.32 2 2 C1.67 2.99 1.34 3.98 1 5 C-0.98 5.33 -2.96 5.66 -5 6 C-4.34 4.68 -3.68 3.36 -3 2 C-2.01 2 -1.02 2 0 2 C0 1.34 0 0.68 0 0 Z " fill="#FBFBF1" transform="translate(171,51)"/>
</svg>
