<?xml version="1.0" encoding="UTF-8"?>
<svg version="1.1" xmlns="http://www.w3.org/2000/svg" width="500" height="500">
<path d="M0 0 C1.6305507 -0.00271453 3.26110016 -0.00627805 4.89164734 -0.01062012 C9.29450968 -0.0196914 13.69727766 -0.01622169 18.10014153 -0.00986195 C22.72256588 -0.0047746 27.34498253 -0.00950097 31.96740723 -0.01263428 C39.72779785 -0.01626598 47.48815033 -0.01149575 55.24853516 -0.00195312 C64.20197879 0.00892988 73.15533132 0.00540374 82.10877275 -0.00560594 C89.81608115 -0.01470153 97.52336223 -0.01595299 105.23067427 -0.0107286 C109.82512879 -0.00762138 114.41954058 -0.0071651 119.01399231 -0.01380157 C123.33476305 -0.01960754 127.65541708 -0.01551902 131.97617531 -0.00401306 C133.55551269 -0.00138379 135.13486001 -0.00210169 136.71419334 -0.00653839 C151.95081881 -0.04537313 164.69338665 1.18205296 176.13085938 12.25878906 C185.43585122 22.36135163 187.22172351 33.05557709 186.94335938 46.50878906 C186.93240234 47.58765381 186.92144531 48.66651855 186.91015625 49.77807617 C186.79331722 58.29272079 186.40157386 66.77286198 185.69335938 75.25878906 C186.28761719 75.24831543 186.881875 75.2378418 187.49414062 75.22705078 C190.22716926 75.18507775 192.96012974 75.15933326 195.69335938 75.13378906 C196.62792969 75.11703125 197.5625 75.10027344 198.52539062 75.08300781 C210.45324617 74.99959624 220.67846482 78.14677857 229.50585938 86.44628906 C237.56715555 95.03456043 240.89505336 104.97651948 240.79425049 116.6315918 C240.59653379 121.78012025 239.99042267 126.88870958 239.43554688 132.00878906 C238.09732449 144.87311473 236.92350702 157.74675879 235.82617188 170.63378906 C235.7458478 171.57508667 235.66552372 172.51638428 235.58276558 173.48620605 C235.16504821 178.38391264 234.74891991 183.28175224 234.33389282 188.1796875 C233.45587165 198.53990569 232.56982945 208.89943811 231.68164062 219.25878906 C231.59450743 220.27544647 231.50737423 221.29210388 231.41760063 222.33956909 C230.01801656 238.65300544 228.5503291 254.95837644 227.00585938 271.25878906 C225.20900148 290.22638968 223.60327144 309.20608489 222.06835938 328.19628906 C219.36351214 361.61951484 219.36351214 361.61951484 218.00585938 375.88378906 C217.89870605 377.03613037 217.79155273 378.18847168 217.68115234 379.37573242 C216.03724588 396.08878148 213.34690331 408.68282366 199.78710938 419.82519531 C188.73832574 427.29248764 174.67724234 430.03374549 161.94335938 433.25878906 C158.69751718 434.08806611 155.4528691 434.92188901 152.20898438 435.75878906 C151.41281204 435.9639061 150.61663971 436.16902313 149.79634094 436.38035583 C142.33708808 438.31882716 134.95572451 440.49394151 127.5725708 442.70147705 C122.89924696 444.08743048 118.20153104 445.38855412 113.50585938 446.69628906 C111.93807739 447.13352295 111.93807739 447.13352295 110.33862305 447.57958984 C107.12408041 448.47463171 103.90879917 449.36697622 100.69335938 450.25878906 C99.64664063 450.54995605 98.59992188 450.84112305 97.52148438 451.14111328 C94.51727443 451.97566846 91.51182465 452.80558129 88.50585938 453.63378906 C87.60391846 453.88443115 86.70197754 454.13507324 85.77270508 454.39331055 C65.72723996 459.88597829 48.59958434 454.96130823 29.22848511 449.30349731 C14.99670689 445.1493782 0.74808283 441.14712185 -13.62133789 437.49462891 C-21.57997853 435.46705398 -29.45493989 433.23947662 -37.31201172 430.8515625 C-39.45599111 430.21440437 -41.60797176 429.61284914 -43.76367188 429.01660156 C-58.25265472 424.98229106 -70.24607826 420.33807135 -78.24414062 406.63378906 C-86.55444669 391.08547449 -85.26056716 369.50398284 -86.58691406 352.35321045 C-87.04951958 346.37471657 -87.5176448 340.39665776 -87.99023438 334.41894531 C-88.04265541 333.75500322 -88.09507645 333.09106113 -88.149086 332.40699959 C-89.05047695 321.03500042 -90.08559203 309.67832561 -91.16835022 298.32217407 C-92.06806466 288.8762581 -92.92008566 279.42712392 -93.73632812 269.97363281 C-93.7948892 269.29590883 -93.85345028 268.61818485 -93.91378593 267.91992378 C-94.21369243 264.44675917 -94.51275954 260.97352295 -94.81134033 257.50024414 C-95.45703107 249.99104637 -96.10783642 242.48229125 -96.75976562 234.97363281 C-96.82520695 234.21980694 -96.89064827 233.46598106 -96.95807266 232.68931198 C-98.14692997 219.00545346 -99.37265268 205.32511519 -100.62231445 191.64666748 C-100.92899015 188.2878182 -101.23419611 184.92883816 -101.5390625 181.56982422 C-102.42035542 171.87434411 -103.3103494 162.17994889 -104.23562622 152.48855591 C-104.63127043 148.32956705 -105.01900705 144.16986193 -105.40545654 140.01000977 C-105.58620267 138.08679106 -105.77066733 136.1639173 -105.95928955 134.24145508 C-107.55794709 117.93784477 -108.9102056 102.67533583 -97.99804688 89.13769531 C-90.40635419 80.70442931 -82.73131001 76.13297221 -71.30664062 75.25878906 C-68.13802031 75.15520466 -64.97647195 75.16273222 -61.80664062 75.19628906 C-60.57300781 75.20305664 -60.57300781 75.20305664 -59.31445312 75.20996094 C-57.31181666 75.22160417 -55.30921836 75.23953351 -53.30664062 75.25878906 C-53.37882812 74.2778125 -53.45101562 73.29683594 -53.52539062 72.28613281 C-56.57989091 28.88835704 -56.57989091 28.88835704 -45.40039062 14.86816406 C-32.87044163 1.15785756 -17.48289564 -0.04911332 0 0 Z " fill="#2072B5" transform="translate(183.306640625,20.7412109375)"/>
<path d="M0 0 C1.6305507 -0.00271453 3.26110016 -0.00627805 4.89164734 -0.01062012 C9.29450968 -0.0196914 13.69727766 -0.01622169 18.10014153 -0.00986195 C22.72256588 -0.0047746 27.34498253 -0.00950097 31.96740723 -0.01263428 C39.72779785 -0.01626598 47.48815033 -0.01149575 55.24853516 -0.00195312 C64.20197879 0.00892988 73.15533132 0.00540374 82.10877275 -0.00560594 C89.81608115 -0.01470153 97.52336223 -0.01595299 105.23067427 -0.0107286 C109.82512879 -0.00762138 114.41954058 -0.0071651 119.01399231 -0.01380157 C123.33476305 -0.01960754 127.65541708 -0.01551902 131.97617531 -0.00401306 C133.55551269 -0.00138379 135.13486001 -0.00210169 136.71419334 -0.00653839 C151.95081881 -0.04537313 164.69338665 1.18205296 176.13085938 12.25878906 C185.43585122 22.36135163 187.22172351 33.05557709 186.94335938 46.50878906 C186.93240234 47.58765381 186.92144531 48.66651855 186.91015625 49.77807617 C186.79331722 58.29272079 186.40157386 66.77286198 185.69335938 75.25878906 C186.28761719 75.24831543 186.881875 75.2378418 187.49414062 75.22705078 C190.22716926 75.18507775 192.96012974 75.15933326 195.69335938 75.13378906 C196.62792969 75.11703125 197.5625 75.10027344 198.52539062 75.08300781 C210.45324617 74.99959624 220.67846482 78.14677857 229.50585938 86.44628906 C237.56715555 95.03456043 240.89505336 104.97651948 240.79425049 116.6315918 C240.59653379 121.78012025 239.99042267 126.88870958 239.43554688 132.00878906 C238.09732449 144.87311473 236.92350702 157.74675879 235.82617188 170.63378906 C235.7458478 171.57508667 235.66552372 172.51638428 235.58276558 173.48620605 C235.16504821 178.38391264 234.74891991 183.28175224 234.33389282 188.1796875 C233.45587165 198.53990569 232.56982945 208.89943811 231.68164062 219.25878906 C231.59450743 220.27544647 231.50737423 221.29210388 231.41760063 222.33956909 C230.01801656 238.65300544 228.5503291 254.95837644 227.00585938 271.25878906 C225.20900148 290.22638968 223.60327144 309.20608489 222.06835938 328.19628906 C219.36351214 361.61951484 219.36351214 361.61951484 218.00585938 375.88378906 C217.89870605 377.03613037 217.79155273 378.18847168 217.68115234 379.37573242 C216.03724588 396.08878148 213.34690331 408.68282366 199.78710938 419.82519531 C188.73832574 427.29248764 174.67724234 430.03374549 161.94335938 433.25878906 C158.69751718 434.08806611 155.4528691 434.92188901 152.20898438 435.75878906 C151.41281204 435.9639061 150.61663971 436.16902313 149.79634094 436.38035583 C142.33708808 438.31882716 134.95572451 440.49394151 127.5725708 442.70147705 C122.89924696 444.08743048 118.20153104 445.38855412 113.50585938 446.69628906 C111.93807739 447.13352295 111.93807739 447.13352295 110.33862305 447.57958984 C107.12408041 448.47463171 103.90879917 449.36697622 100.69335938 450.25878906 C99.64664063 450.54995605 98.59992188 450.84112305 97.52148438 451.14111328 C94.51727443 451.97566846 91.51182465 452.80558129 88.50585938 453.63378906 C87.60391846 453.88443115 86.70197754 454.13507324 85.77270508 454.39331055 C65.72723996 459.88597829 48.59958434 454.96130823 29.22848511 449.30349731 C14.99670689 445.1493782 0.74808283 441.14712185 -13.62133789 437.49462891 C-21.57997853 435.46705398 -29.45493989 433.23947662 -37.31201172 430.8515625 C-39.45599111 430.21440437 -41.60797176 429.61284914 -43.76367188 429.01660156 C-58.25265472 424.98229106 -70.24607826 420.33807135 -78.24414062 406.63378906 C-86.55444669 391.08547449 -85.26056716 369.50398284 -86.58691406 352.35321045 C-87.04951958 346.37471657 -87.5176448 340.39665776 -87.99023438 334.41894531 C-88.04265541 333.75500322 -88.09507645 333.09106113 -88.149086 332.40699959 C-89.05047695 321.03500042 -90.08559203 309.67832561 -91.16835022 298.32217407 C-92.06806466 288.8762581 -92.92008566 279.42712392 -93.73632812 269.97363281 C-93.7948892 269.29590883 -93.85345028 268.61818485 -93.91378593 267.91992378 C-94.21369243 264.44675917 -94.51275954 260.97352295 -94.81134033 257.50024414 C-95.45703107 249.99104637 -96.10783642 242.48229125 -96.75976562 234.97363281 C-96.82520695 234.21980694 -96.89064827 233.46598106 -96.95807266 232.68931198 C-98.14692997 219.00545346 -99.37265268 205.32511519 -100.62231445 191.64666748 C-100.92899015 188.2878182 -101.23419611 184.92883816 -101.5390625 181.56982422 C-102.42035542 171.87434411 -103.3103494 162.17994889 -104.23562622 152.48855591 C-104.63127043 148.32956705 -105.01900705 144.16986193 -105.40545654 140.01000977 C-105.58620267 138.08679106 -105.77066733 136.1639173 -105.95928955 134.24145508 C-107.55794709 117.93784477 -108.9102056 102.67533583 -97.99804688 89.13769531 C-90.40635419 80.70442931 -82.73131001 76.13297221 -71.30664062 75.25878906 C-68.13802031 75.15520466 -64.97647195 75.16273222 -61.80664062 75.19628906 C-60.57300781 75.20305664 -60.57300781 75.20305664 -59.31445312 75.20996094 C-57.31181666 75.22160417 -55.30921836 75.23953351 -53.30664062 75.25878906 C-53.37882812 74.2778125 -53.45101562 73.29683594 -53.52539062 72.28613281 C-56.57989091 28.88835704 -56.57989091 28.88835704 -45.40039062 14.86816406 C-32.87044163 1.15785756 -17.48289564 -0.04911332 0 0 Z M-67.30664062 114.25878906 C-66.53981417 133.83266799 -66.53981417 133.83266799 -64.84667969 153.27392578 C-61.9772914 179.0232218 -59.65032789 204.82388066 -57.3278389 230.62694168 C-57.05859888 233.61207742 -56.78771732 236.59705979 -56.5163269 239.58200073 C-56.08139314 244.36784884 -55.6503422 249.15403191 -55.22220421 253.94049263 C-55.06315643 255.71361837 -54.90303046 257.48664783 -54.74167824 259.25956535 C-53.92514446 268.24719857 -53.21983765 277.21940259 -52.78735352 286.234375 C-52.44842624 293.28680972 -51.84990957 300.24605677 -50.94335938 307.25097656 C-49.67690089 317.63837492 -48.63091106 328.03236403 -47.70117188 338.45410156 C-47.63575069 339.18683037 -47.57032951 339.91955917 -47.50292587 340.67449188 C-47.10444015 345.1502258 -46.7111148 349.6264022 -46.3192749 354.10272217 C-45.97973591 357.97267972 -45.6361505 361.84227815 -45.29296875 365.71191406 C-44.62703823 373.22720526 -43.96536754 380.74286264 -43.30664062 388.25878906 C-39.7765243 389.72070284 -36.32369953 390.79743386 -32.60546875 391.69140625 C-28.0602182 392.81323742 -23.56290267 394.1159897 -19.05664062 395.38378906 C-17.98196533 395.68510742 -16.90729004 395.98642578 -15.80004883 396.296875 C-9.8168091 397.97798082 -3.83878938 399.67639922 2.13476562 401.39160156 C3.97989746 401.92116455 3.97989746 401.92116455 5.86230469 402.46142578 C8.22550974 403.14074431 10.58817473 403.82194552 12.95019531 404.50537109 C18.14954284 406.00104243 23.34795895 407.44207013 28.60351562 408.72753906 C33.05827367 409.82005647 37.45711109 411.04227426 41.85742188 412.33691406 C43.69433594 412.87058594 43.69433594 412.87058594 45.56835938 413.41503906 C48.0797895 414.14753951 50.58762847 414.89246047 53.09179688 415.64941406 C64.99816363 419.0655868 73.12685345 417.7318101 84.75585938 414.13378906 C86.89483272 413.49199786 89.03416693 412.85140831 91.17382812 412.21191406 C92.80263916 411.72174805 92.80263916 411.72174805 94.46435547 411.22167969 C99.48478881 409.72458389 104.523592 408.29640622 109.56835938 406.88378906 C110.57543945 406.60140381 111.58251953 406.31901855 112.62011719 406.02807617 C118.77694308 404.31442314 124.94648922 402.65416061 131.12695312 401.02832031 C131.86040955 400.83522278 132.59386597 400.64212524 133.34954834 400.44317627 C136.93710673 399.49973226 140.52580964 398.56105499 144.11669922 397.63037109 C155.0590964 394.77750252 165.87855942 391.56031045 176.69335938 388.25878906 C176.77661469 387.34298065 176.85987 386.42717224 176.94564819 385.48361206 C178.14768473 372.26121012 179.34972127 359.03880819 180.55175781 345.81640625 C180.63079818 344.94695216 180.70983854 344.07749807 180.79127407 343.18169689 C180.94942217 341.4420881 181.10757756 339.70247996 181.26574039 337.96287251 C181.65523271 333.67881113 182.04459936 329.3947384 182.43370056 325.11064148 C183.67490529 311.44691946 183.67490529 311.44691946 184.25415039 305.16040039 C185.64141349 290.08419125 186.92541616 274.99919851 188.21858406 259.9146986 C190.85404845 229.1812301 193.54619653 198.45335396 196.33789444 167.73366165 C196.56755768 165.20511551 196.79669625 162.67652227 197.02572632 160.1479187 C197.38530335 156.17996607 197.74646848 152.2121612 198.10898781 148.24447632 C198.24118724 146.79605838 198.37298495 145.34760371 198.50433922 143.89910889 C199.62024217 131.60570398 199.62024217 131.60570398 200.27978516 126.89770508 C200.75579447 122.70944134 200.69335938 118.47401598 200.69335938 114.25878906 C112.25335938 114.25878906 23.81335938 114.25878906 -67.30664062 114.25878906 Z " fill="#FBFCFC" transform="translate(183.306640625,20.7412109375)"/>
<path d="M0 0 C59.4 0 118.8 0 180 0 C180 14.625 180 14.625 179.78125 19.51953125 C179.73613281 20.56044922 179.69101562 21.60136719 179.64453125 22.67382812 C179.59683594 23.70958984 179.54914063 24.74535156 179.5 25.8125 C179.45230469 26.89853516 179.40460938 27.98457031 179.35546875 29.10351562 C179.23950905 31.7358007 179.12099934 34.36794262 179 37 C164.14929642 43.56022355 149.27683515 50.06645052 134.36865234 56.49487305 C128.08069043 59.21115355 121.81514741 61.96390456 115.59326172 64.82861328 C112.41544114 66.26404758 109.20503846 67.62641209 106 69 C128.77 69.33 151.54 69.66 175 70 C174.42044028 82.17075403 173.83001114 94.24608949 172.81365967 106.37265015 C172.47696855 110.39230208 172.15167619 114.41286532 171.828125 118.43359375 C171.76035858 119.27543716 171.69259216 120.11728058 171.62277222 120.9846344 C171.0949966 127.62358421 170.62372891 134.26564076 170.171875 140.91015625 C170.10467255 141.89586609 170.03747009 142.88157593 169.9682312 143.89715576 C169.64049826 148.7229002 169.31847567 153.54896428 169.00244141 158.37548828 C168.88454123 160.12923857 168.76654489 161.8829824 168.6484375 163.63671875 C168.59749939 164.44117935 168.54656128 165.24563995 168.49407959 166.07447815 C168.27815259 169.24150096 168.00862694 171.97411917 167 175 C164.82739258 175.91625977 164.82739258 175.91625977 161.89453125 176.69140625 C160.78311768 176.99167725 159.6717041 177.29194824 158.52661133 177.60131836 C157.30095459 177.9185083 156.07529785 178.23569824 154.8125 178.5625 C153.55139404 178.89967041 152.29028809 179.23684082 150.9909668 179.58422852 C147.44970554 180.53023805 143.90418687 181.45926448 140.35742188 182.38439941 C135.26068602 183.71532521 130.1671314 185.05841511 125.07292175 186.39897156 C120.79001891 187.52548051 116.50619735 188.64816173 112.2199707 189.76196289 C111.42151733 189.97023712 110.62306396 190.17851135 109.80041504 190.39309692 C108.29388589 190.78599473 106.78690714 191.17717385 105.27941895 191.56637573 C101.54783784 192.52679337 101.54783784 192.52679337 98 194 C92.04489188 194.30280211 86.91777057 193.52955003 81.15625 192.09375 C79.90326614 191.79294022 79.90326614 191.79294022 78.62496948 191.48605347 C75.9144234 190.83285214 73.20725833 190.16668392 70.5 189.5 C68.62728077 189.04570649 66.75439495 188.59209918 64.88134766 188.13916016 C59.25067857 186.77375877 53.6246586 185.38993068 48 184 C47.14450562 183.7887146 46.28901123 183.5774292 45.40759277 183.35974121 C35.59785679 180.93494331 25.79517153 178.48301596 16 176 C15.42528982 169.7382462 14.85623727 163.47599627 14.29101562 157.21337891 C14.09829176 155.08533231 13.90429856 152.95740026 13.70898438 150.82958984 C13.42760468 147.76168979 13.15087308 144.69339953 12.875 141.625 C12.78750488 140.68197021 12.70000977 139.73894043 12.60986328 138.76733398 C12.52978027 137.86700439 12.44969727 136.9666748 12.3671875 136.0390625 C12.29612793 135.25740723 12.22506836 134.47575195 12.15185547 133.67041016 C11.94990018 130.11898416 12 126.55716355 12 123 C23.22 123 34.44 123 46 123 C46.58959901 132.43358423 47.160354 141.59256555 47 151 C48.17175781 151.12955078 48.17175781 151.12955078 49.3671875 151.26171875 C55.78164916 152.04031154 62.09901237 152.98927384 68.43359375 154.28125 C69.56619629 154.51110596 70.69879883 154.74096191 71.86572266 154.9777832 C74.12453765 155.44288982 76.38088893 155.92016474 78.63427734 156.41088867 C91.17851205 158.98783451 100.17902812 156.59797825 112.1875 152.5 C114.63753731 151.67178226 117.08931563 150.84869347 119.54296875 150.03125 C120.61571045 149.66580078 121.68845215 149.30035156 122.79370117 148.92382812 C126.18817529 147.94578121 129.49646724 147.42209241 133 147 C133 142.71 133 138.42 133 134 C133.66 123.44 134.32 112.88 135 102 C93.42 102 51.84 102 9 102 C6.67857143 76.46428571 6.67857143 76.46428571 7 68 C7.69407959 67.7004541 8.38815918 67.4009082 9.10327148 67.09228516 C12.54856512 65.60446237 15.99321525 64.11515644 19.4375 62.625 C20.40882874 62.20482101 20.40882874 62.20482101 21.39978027 61.77615356 C30.20130201 57.96689281 38.99098922 54.131466 47.76953125 50.26953125 C48.68008774 49.86905579 49.59064423 49.46858032 50.52879333 49.05596924 C55.04038909 47.07119376 59.55096561 45.08413972 64.06030273 43.09423828 C65.74330661 42.35314421 67.42632984 41.61209408 69.109375 40.87109375 C70.23452263 40.37329155 70.23452263 40.37329155 71.38240051 39.86543274 C76.88147764 37.44684812 82.41311276 35.2347549 88 33 C59.95 32.67 31.9 32.34 3 32 C1 19 1 19 0 0 Z " fill="#EAEAEB" transform="translate(160,189)"/>
<path d="M0 0 C36.3 0 72.6 0 110 0 C108.84205094 13.89538867 107.67105846 27.77001294 106.31124878 41.64385986 C104.81953492 56.89773671 103.45823586 72.15622453 102.25564575 87.43551636 C101.33198042 99.16374799 100.26759332 110.87011203 99.12695312 122.57958984 C98.39453033 130.27673985 97.76293024 137.97494017 97.21484375 145.6875 C97.14951447 146.60484924 97.08418518 147.52219849 97.01687622 148.46734619 C96.69805441 152.97599449 96.38823232 157.48507178 96.08984375 161.99511719 C95.55737238 169.83266393 94.87844576 177.49087878 93.45727539 185.22753906 C92.62294766 190.28606851 92.34106582 195.38867422 92 200.5 C91.19982818 211.69108985 90.18364964 222.84347252 89 234 C87.77925781 234.31453125 86.55851562 234.6290625 85.30078125 234.953125 C76.8192476 237.15341694 68.38902132 239.39277007 60.0546875 242.10546875 C57.6408871 242.81232334 55.28727343 243.38748541 52.83203125 243.91015625 C47.40928854 245.08436774 42.12657298 246.66327376 36.8125 248.25 C28.43665713 250.72114189 20.04803143 253.13196915 11.625 255.4375 C10.6863208 255.6962793 9.7476416 255.95505859 8.78051758 256.22167969 C7.9170874 256.45661133 7.05365723 256.69154297 6.1640625 256.93359375 C5.40561035 257.14040771 4.6471582 257.34722168 3.86572266 257.56030273 C2 258 2 258 0 258 C0 247.11 0 236.22 0 225 C4.95 224.01 4.95 224.01 10 223 C12.34499559 222.44314006 14.68545052 221.86659459 17.01953125 221.265625 C18.27918701 220.94166748 19.53884277 220.61770996 20.83666992 220.28393555 C22.16200739 219.93952415 23.4872829 219.59487427 24.8125 219.25 C25.49164459 219.07425446 26.17078918 218.89850891 26.87051392 218.71743774 C36.36021277 216.26060059 45.80883934 213.68348375 55.22338867 210.95166016 C72.29431503 206 72.29431503 206 77 206 C77.07516846 204.80552246 77.15033691 203.61104492 77.2277832 202.38037109 C78.55311992 181.39054249 79.90282824 160.403931 81.5625 139.4375 C81.62039703 138.69981384 81.67829407 137.96212769 81.73794556 137.2020874 C82.6904251 125.11971744 83.85071837 113.06745715 85 101 C61.9 101 38.8 101 15 101 C18.06150668 97.93849332 20.733198 96.61552027 24.625 95 C26.07712731 94.38092184 27.52892839 93.76107812 28.98046875 93.140625 C29.7801709 92.80095703 30.57987305 92.46128906 31.40380859 92.11132812 C36.26556237 90.03020125 41.09906334 87.88462652 45.9375 85.75 C48.0768171 84.8098826 50.21614012 83.86977866 52.35546875 82.9296875 C56.90573788 80.92732572 61.44890378 78.90973854 65.98828125 76.8828125 C67.12080322 76.37911133 68.2533252 75.87541016 69.42016602 75.35644531 C71.59566998 74.38856218 73.76942023 73.41672495 75.94116211 72.44042969 C76.92479736 72.00375977 77.90843262 71.56708984 78.921875 71.1171875 C79.78393555 70.73159668 80.64599609 70.34600586 81.53417969 69.94873047 C84.01633047 68.99371681 86.38178562 68.4410549 89 68 C88.99476318 67.34104736 88.98952637 66.68209473 88.98413086 66.00317383 C88.96299925 62.93962608 88.9502271 59.87609376 88.9375 56.8125 C88.92912109 55.77673828 88.92074219 54.74097656 88.91210938 53.67382812 C88.90888672 52.63291016 88.90566406 51.59199219 88.90234375 50.51953125 C88.89710693 49.58214111 88.89187012 48.64475098 88.88647461 47.67895508 C89.05833474 42.10957791 89.57264495 36.55561568 90 31 C60.3 31 30.6 31 0 31 C0 20.77 0 10.54 0 0 Z " fill="#52A2D9" transform="translate(250,158)"/>
<path d="M0 0 C29.7 0 59.4 0 90 0 C90 33.66 90 67.32 90 102 C63.27 102 36.54 102 9 102 C6.67857143 76.46428571 6.67857143 76.46428571 7 68 C7.69407959 67.7004541 8.38815918 67.4009082 9.10327148 67.09228516 C12.54856512 65.60446237 15.99321525 64.11515644 19.4375 62.625 C20.40882874 62.20482101 20.40882874 62.20482101 21.39978027 61.77615356 C30.20130201 57.96689281 38.99098922 54.131466 47.76953125 50.26953125 C48.68008774 49.86905579 49.59064423 49.46858032 50.52879333 49.05596924 C55.04038909 47.07119376 59.55096561 45.08413972 64.06030273 43.09423828 C65.74330661 42.35314421 67.42632984 41.61209408 69.109375 40.87109375 C70.23452263 40.37329155 70.23452263 40.37329155 71.38240051 39.86543274 C76.88147764 37.44684812 82.41311276 35.2347549 88 33 C59.95 32.67 31.9 32.34 3 32 C1 19 1 19 0 0 Z " fill="#CCCDCE" transform="translate(160,189)"/>
<path d="M0 0 C11.22 0 22.44 0 34 0 C34.58959901 9.43358423 35.160354 18.59256555 35 28 C35.78117187 28.08636719 36.56234375 28.17273438 37.3671875 28.26171875 C46.25453402 29.34047239 55.02030138 30.8754071 63.8125 32.5625 C65.55732666 32.89544067 65.55732666 32.89544067 67.33740234 33.23510742 C75.74275512 34.87137756 75.74275512 34.87137756 78 36 C78 47.22 78 58.44 78 70 C73.08710564 69.38588821 68.66920255 68.79867572 63.921875 67.6875 C62.20508545 67.28736694 62.20508545 67.28736694 60.45361328 66.87915039 C59.2314209 66.58903076 58.00922852 66.29891113 56.75 66 C55.4697998 65.69892334 54.18959961 65.39784668 52.87060547 65.08764648 C36.53868691 61.22990273 20.26914003 57.11292173 4 53 C3.42528982 46.7382462 2.85623727 40.47599627 2.29101562 34.21337891 C2.09829176 32.08533231 1.90429856 29.95740026 1.70898438 27.82958984 C1.42760468 24.76168979 1.15087308 21.69339953 0.875 18.625 C0.78750488 17.68197021 0.70000977 16.73894043 0.60986328 15.76733398 C0.52978027 14.86700439 0.44969727 13.9666748 0.3671875 13.0390625 C0.29612793 12.25740723 0.22506836 11.47575195 0.15185547 10.67041016 C-0.05009982 7.11898416 0 3.55716355 0 0 Z " fill="#CCCDCE" transform="translate(172,312)"/>
<path d="M0 0 C14.85 0 29.7 0 45 0 C44.855625 5.011875 44.71125 10.02375 44.5625 15.1875 C44.51939697 16.73977295 44.47629395 18.2920459 44.43188477 19.89135742 C44.17938214 28.28586873 43.73920733 36.6310846 43 45 C41.54762939 45.43868408 41.54762939 45.43868408 40.06591797 45.88623047 C36.45384152 46.97749378 32.84210573 48.06988086 29.23046875 49.16259766 C27.67099035 49.63425582 26.11142126 50.10561426 24.55175781 50.57666016 C22.30249167 51.2560362 20.05356011 51.93651008 17.8046875 52.6171875 C17.1138205 52.82560272 16.42295349 53.03401794 15.71115112 53.24874878 C12.69438258 54.16285832 9.70038339 55.10433676 6.72314453 56.14111328 C3.68998584 57.09777925 1.16139642 57.15054269 -2 57 C-1.01 56.505 -1.01 56.505 0 56 C0 37.52 0 19.04 0 0 Z " fill="#51A2D9" transform="translate(250,291)"/>
<path d="M0 0 C16.83 0 33.66 0 51 0 C51 3.96 51 7.92 51 12 C38.79 12 26.58 12 14 12 C14 14.64 14 17.28 14 20 C25.88 20 37.76 20 50 20 C50 29.9 50 39.8 50 50 C33.5 50 17 50 0 50 C0 46.37 0 42.74 0 39 C11.55 39 23.1 39 35 39 C35 35.7 35 32.4 35 29 C23.45 29 11.9 29 0 29 C0 19.43 0 9.86 0 0 Z " fill="#050505" transform="translate(280,61)"/>
<path d="M0 0 C16.5 0 33 0 50 0 C50 3.96 50 7.92 50 12 C37.79 12 25.58 12 13 12 C13 14.64 13 17.28 13 20 C24.88 20 36.76 20 49 20 C49 29.9 49 39.8 49 50 C32.5 50 16 50 -1 50 C-1 46.37 -1 42.74 -1 39 C10.88 39 22.76 39 35 39 C35 35.7 35 32.4 35 29 C23.45 29 11.9 29 0 29 C0 19.43 0 9.86 0 0 Z " fill="#020202" transform="translate(225,61)"/>
<path d="M0 0 C16.17 0 32.34 0 49 0 C49 3.96 49 7.92 49 12 C37.78 12 26.56 12 15 12 C15 20.91 15 29.82 15 39 C26.55 39 38.1 39 50 39 C50 42.63 50 46.26 50 50 C33.5 50 17 50 0 50 C0 33.5 0 17 0 0 Z " fill="#040404" transform="translate(169,61)"/>
<path d="M0 0 C88.44 0 176.88 0 268 0 C268 2.97 268 5.94 268 9 C267.67 9 267.34 9 267 9 C267 6.36 267 3.72 267 1 C136.32 1.495 136.32 1.495 3 2 C3 11.57 3 21.14 3 31 C2.67 31 2.34 31 2 31 C0.53560782 20.74925477 0.43107665 10.34583951 0 0 Z " fill="#5386AC" transform="translate(116,135)"/>
<path d="M0 0 C84.81 0 169.62 0 257 0 C257 16 257 16 255 19 C254.67 13.06 254.34 7.12 254 1 C170.18 1 86.36 1 0 1 C0 0.67 0 0.34 0 0 Z " fill="#2970A7" transform="translate(126,136)"/>
<path d="M0 0 C1.91527748 0.02997826 1.91527748 0.02997826 3.86924744 0.06056213 C4.57165054 0.07016968 5.27405365 0.07977722 5.9977417 0.0896759 C8.32992739 0.12277627 10.66193212 0.1630661 12.9940033 0.2033844 C14.60682529 0.22767475 16.21965406 0.25151884 17.83248901 0.27493286 C22.08556313 0.33788182 26.33851783 0.4069176 30.59147644 0.47718811 C34.92807051 0.54777419 39.26474951 0.61264926 43.60142517 0.67799377 C52.11649314 0.80714538 60.63144348 0.94272238 69.14634705 1.08229065 C68.57771207 14.50625729 67.76979671 27.88132201 66.64634705 41.26979065 C65.62420289 53.53425866 64.76921986 65.79062847 64.14634705 78.08229065 C63.81634705 78.08229065 63.48634705 78.08229065 63.14634705 78.08229065 C62.8832532 63.43673325 63.29705392 48.89100018 64.08384705 34.26979065 C64.14919647 33.04071991 64.14919647 33.04071991 64.21586609 31.78681946 C65.59215433 6.19067608 65.59215433 6.19067608 67.14634705 3.08229065 C65.856353 3.08895248 65.856353 3.08895248 64.54029846 3.0957489 C56.44705426 3.1357751 48.35384316 3.16624927 40.26052284 3.18591499 C36.09937452 3.19636511 31.93830778 3.21054657 27.77720642 3.23316956 C23.76368276 3.25485436 19.75023771 3.26685002 15.73666 3.27204514 C14.20320268 3.27574876 12.66974981 3.28298076 11.13632584 3.29375076 C8.99324904 3.30820794 6.85049969 3.31027105 4.7073822 3.30934143 C2.87537766 3.31600327 2.87537766 3.31600327 1.00636292 3.32279968 C-1.85365295 3.08229065 -1.85365295 3.08229065 -3.85365295 1.08229065 C-2.85365295 0.08229065 -2.85365295 0.08229065 0 0 Z " fill="#C9E1F2" transform="translate(265.85365295410156,257.91770935058594)"/>
<path d="M0 0 C29.7 0 59.4 0 90 0 C90 14.625 90 14.625 89.78125 19.51953125 C89.73613281 20.56044922 89.69101562 21.60136719 89.64453125 22.67382812 C89.59683594 23.70958984 89.54914063 24.74535156 89.5 25.8125 C89.45230469 26.89853516 89.40460938 27.98457031 89.35546875 29.10351562 C89.23950905 31.7358007 89.12099934 34.36794262 89 37 C88.01 37 87.02 37 86 37 C86.03029297 36.43192627 86.06058594 35.86385254 86.09179688 35.27856445 C86.23135976 32.62338064 86.36568447 29.96795424 86.5 27.3125 C86.57154297 25.97348633 86.57154297 25.97348633 86.64453125 24.60742188 C87.00481975 17.375917 87 10.26620278 87 3 C58.29 2.67 29.58 2.34 0 2 C0 1.34 0 0.68 0 0 Z " fill="#D5EBF7" transform="translate(250,189)"/>
<path d="M0 0 C14.85 0 29.7 0 45 0 C44.855625 5.011875 44.71125 10.02375 44.5625 15.1875 C44.51939697 16.73977295 44.47629395 18.2920459 44.43188477 19.89135742 C44.17938214 28.28586873 43.73920733 36.6310846 43 45 C41.54762939 45.43868408 41.54762939 45.43868408 40.06591797 45.88623047 C36.45384152 46.97749378 32.84210573 48.06988086 29.23046875 49.16259766 C27.67099035 49.63425582 26.11142126 50.10561426 24.55175781 50.57666016 C22.30249167 51.2560362 20.05356011 51.93651008 17.8046875 52.6171875 C17.1138205 52.82560272 16.42295349 53.03401794 15.71115112 53.24874878 C12.69438258 54.16285832 9.70038339 55.10433676 6.72314453 56.14111328 C3.68998584 57.09777925 1.16139642 57.15054269 -2 57 C0 54.5 0 54.5 3 52 C4.88221704 52.01674943 6.76466928 52.03935182 8.64599609 52.09960938 C13.20471838 51.90670762 17.48096258 50.34583808 21.8125 49 C23.67213922 48.43407826 25.53277728 47.87142542 27.39453125 47.3125 C28.20768799 47.06113281 29.02084473 46.80976563 29.85864258 46.55078125 C32 46 32 46 35 46 C35 45.34 35 44.68 35 44 C36.98 44 38.96 44 41 44 C40.99476318 43.42967041 40.98952637 42.85934082 40.98413086 42.27172852 C40.96341779 39.70199677 40.9503581 37.13228253 40.9375 34.5625 C40.92912109 33.66466797 40.92074219 32.76683594 40.91210938 31.84179688 C40.90888672 30.98779297 40.90566406 30.13378906 40.90234375 29.25390625 C40.89710693 28.46314697 40.89187012 27.6723877 40.88647461 26.85766602 C41 25 41 25 42 24 C42.15714654 22.36743242 42.25085414 20.72864662 42.31640625 19.08984375 C42.35451416 18.199021 42.39262207 17.30819824 42.43188477 16.39038086 C42.47498779 15.25093018 42.51809082 14.11147949 42.5625 12.9375 C42.706875 9.328125 42.85125 5.71875 43 2 C28.81 2 14.62 2 0 2 C0 1.34 0 0.68 0 0 Z " fill="#69A3CA" transform="translate(250,291)"/>
<path d="M0 0 C0.99 0 1.98 0 3 0 C2.98839844 0.63421875 2.97679687 1.2684375 2.96484375 1.921875 C2.86718613 12.02246265 3.49192485 21.83849708 4 32 C30.07 32 56.14 32 83 32 C83 32.66 83 33.32 83 34 C56.27 34 29.54 34 2 34 C-0.32142857 8.46428571 -0.32142857 8.46428571 0 0 Z " fill="#B5CBDC" transform="translate(167,257)"/>
<path d="M0 0 C0.33 0 0.66 0 1 0 C1.66 3.3 2.32 6.6 3 10 C4.53096062 10.0154612 4.53096062 10.0154612 6.09284973 10.03123474 C15.70161764 10.12890246 25.31031984 10.23163028 34.9189806 10.33933926 C39.85913161 10.39455286 44.79928855 10.44797043 49.73950195 10.49731445 C54.50520214 10.54498096 59.2708299 10.59732471 64.03644371 10.65294075 C65.85652557 10.67335392 67.67662727 10.69206872 69.49674416 10.70907402 C72.04192926 10.73314094 74.58697746 10.76319246 77.13208008 10.79467773 C78.26604218 10.80331093 78.26604218 10.80331093 79.4229126 10.81211853 C82.54314394 10.8561238 85.01752061 11.0058402 88 12 C88 13.32 88 14.64 88 16 C83.03050733 19.10593292 78.80561639 21.01599722 73 22 C72.01 21.01 72.01 21.01 71 20 C75.95 18.02 80.9 16.04 86 14 C57.95 13.67 29.9 13.34 1 13 C0.18279507 9.73118027 -0.11073543 7.53000931 -0.0625 4.25 C-0.05347656 3.45078125 -0.04445312 2.6515625 -0.03515625 1.828125 C-0.02355469 1.22484375 -0.01195312 0.6215625 0 0 Z " fill="#B4CADC" transform="translate(162,208)"/>
<path d="M0 0 C0.33 0 0.66 0 1 0 C2.92575162 7.30753964 3.14827333 14.2716223 2.97265625 21.77734375 C2.83461674 25.01746227 2.83461674 25.01746227 4 28 C4.18535269 30.9663785 4.32670733 33.92142373 4.4375 36.890625 C4.90346802 47.55678793 5.89675483 58.13375447 7 68.75 C7.35802063 72.22357564 7.71234213 75.69749787 8.0625 79.171875 C8.14677246 80.00440796 8.23104492 80.83694092 8.31787109 81.69470215 C8.97917185 88.39647713 9.41565809 95.09601822 9.75390625 101.82128906 C9.95332097 104.39706247 10.36764737 106.52347362 11 109 C11.07911543 110.65989282 11.10778885 112.3226287 11.09765625 113.984375 C11.09443359 114.91894531 11.09121094 115.85351562 11.08789062 116.81640625 C11.07951172 117.78449219 11.07113281 118.75257813 11.0625 119.75 C11.05798828 120.73355469 11.05347656 121.71710938 11.04882812 122.73046875 C11.03706483 125.15370791 11.02062684 127.57682273 11 130 C10.67 130 10.34 130 10 130 C8.5619204 114.34480595 7.12747664 98.68928328 5.69733429 83.03336239 C5.03317775 75.76370075 4.3678418 68.4941507 3.69970703 61.22485352 C3.11721552 54.88732072 2.53695957 48.54958785 1.95936251 42.21160704 C1.65358767 38.85719177 1.34671109 35.50288569 1.03715515 32.14881706 C0.69174994 28.40017325 0.35029698 24.65118887 0.00976562 20.90209961 C-0.0930925 19.79582718 -0.19595062 18.68955475 -0.30192566 17.54975891 C-1.59511488 3.19022975 -1.59511488 3.19022975 0 0 Z " fill="#3875A6" transform="translate(120,167)"/>
<path d="M0 0 C4.39278772 -0.07850521 8.78530486 -0.13653345 13.17861938 -0.17529297 C14.75242093 -0.19216606 16.32616355 -0.2160472 17.89974976 -0.24707031 C20.05717208 -0.28824945 22.21333352 -0.30455751 24.37109375 -0.31396484 C26.15713013 -0.33583862 26.15713013 -0.33583862 27.97924805 -0.3581543 C30.859375 0.11181641 30.859375 0.11181641 32.76489258 2.13842773 C33.12607178 2.789646 33.48725098 3.44086426 33.859375 4.11181641 C33.199375 4.77181641 32.539375 5.43181641 31.859375 6.11181641 C31.39962997 8.04082781 31.39962997 8.04082781 31.2265625 10.24462891 C31.10087891 11.453125 31.10087891 11.453125 30.97265625 12.68603516 C30.89402344 13.52779297 30.81539063 14.36955078 30.734375 15.23681641 C30.60482422 16.51105469 30.60482422 16.51105469 30.47265625 17.81103516 C30.26034943 19.91051368 30.05883897 22.01107883 29.859375 24.11181641 C29.529375 24.11181641 29.199375 24.11181641 28.859375 24.11181641 C29.189375 16.85181641 29.519375 9.59181641 29.859375 2.11181641 C0.159375 2.11181641 -29.540625 2.11181641 -60.140625 2.11181641 C-60.140625 1.78181641 -60.140625 1.45181641 -60.140625 1.11181641 C-43.28760004 0.75658003 -26.43413225 0.44303839 -9.57958984 0.16900635 C-6.38632547 0.1159024 -3.19316827 0.05855363 0 0 Z " fill="#71A3C4" transform="translate(310.140625,186.88818359375)"/>
<path d="M0 0 C6.73295667 2.92352066 11.24529587 9.39497419 14.22265625 15.9375 C18.47251155 27.21349799 16.86988172 38.53163218 15.625 50.25 C15.48735157 51.57758262 15.35023093 52.90522006 15.21362305 54.23291016 C14.94012184 56.89076684 14.66513447 59.5484515 14.38916016 62.20605469 C13.83657998 67.59319137 13.32015023 72.98346993 12.8125 78.375 C12.72887207 79.25961914 12.64524414 80.14423828 12.55908203 81.05566406 C12.3720454 83.03704568 12.18590124 85.01851153 12 87 C11.67 87 11.34 87 11 87 C10.78759524 76.19980779 11.42166363 65.67623458 12.5 54.9375 C15.63212658 30.65621034 15.63212658 30.65621034 7.1796875 8.4453125 C4.02059843 4.69163721 4.02059843 4.69163721 0 2 C0 1.34 0 0.68 0 0 Z " fill="#EAE7E8" transform="translate(407,104)"/>
<path d="M0 0 C-0.66 0.474375 -1.32 0.94875 -2 1.4375 C-2.66 1.953125 -3.32 2.46875 -4 3 C-4 3.33 -4 3.66 -4 4 C-7.63 4 -11.26 4 -15 4 C-15 4.66 -15 5.32 -15 6 C-25.72616956 9.07771654 -36.47535147 11.9047195 -47.35620117 14.38745117 C-48.20931885 14.58443604 -49.06243652 14.7814209 -49.94140625 14.984375 C-51.08138062 15.24299316 -51.08138062 15.24299316 -52.24438477 15.50683594 C-54.01200989 15.84883375 -54.01200989 15.84883375 -55 17 C-56.51928038 17.07179964 -58.04167482 17.08392007 -59.5625 17.0625 C-60.38878906 17.05347656 -61.21507812 17.04445313 -62.06640625 17.03515625 C-63.02353516 17.01775391 -63.02353516 17.01775391 -64 17 C-64 16.34 -64 15.68 -64 15 C-63.44997314 14.89913086 -62.89994629 14.79826172 -62.33325195 14.69433594 C-54.53387583 13.20422088 -46.86969607 11.24774277 -39.1875 9.25 C-38.51167877 9.0755838 -37.83585754 8.9011676 -37.13955688 8.72146606 C-27.39602794 6.20682609 -17.69656731 3.57322326 -8.0690918 0.63964844 C-2.21118664 -1.10559332 -2.21118664 -1.10559332 0 0 Z " fill="#6AA5CD" transform="translate(314,368)"/>
<path d="M0 0 C11.22 0 22.44 0 34 0 C34 1.98 34 3.96 34 6 C33.67 6 33.34 6 33 6 C33 4.35 33 2.7 33 1 C22.77 1 12.54 1 2 1 C2.309375 4.25875 2.61875 7.5175 2.9375 10.875 C3.03281006 11.90093262 3.12812012 12.92686523 3.22631836 13.98388672 C3.30503174 14.79100098 3.38374512 15.59811523 3.46484375 16.4296875 C3.543396 17.25710449 3.62194824 18.08452148 3.70288086 18.93701172 C3.89777363 21.0581666 3.89777363 21.0581666 5 23 C5.11820339 24.93516874 5.1790001 26.87398766 5.2109375 28.8125 C5.23929688 29.97007812 5.26765625 31.12765625 5.296875 32.3203125 C5.34895508 34.77328413 5.39322726 37.22643398 5.4296875 39.6796875 C5.460625 40.83726562 5.4915625 41.99484375 5.5234375 43.1875 C5.54325684 44.25355469 5.56307617 45.31960938 5.58349609 46.41796875 C5.72094238 47.27003906 5.85838867 48.12210937 6 49 C6.99 49.66 7.98 50.32 9 51 C9 51.66 9 52.32 9 53 C9.66 53.33 10.32 53.66 11 54 C8.69 53.67 6.38 53.34 4 53 C3.42528982 46.7382462 2.85623727 40.47599627 2.29101562 34.21337891 C2.09829176 32.08533231 1.90429856 29.95740026 1.70898438 27.82958984 C1.42760468 24.76168979 1.15087308 21.69339953 0.875 18.625 C0.78750488 17.68197021 0.70000977 16.73894043 0.60986328 15.76733398 C0.52978027 14.86700439 0.44969727 13.9666748 0.3671875 13.0390625 C0.29612793 12.25740723 0.22506836 11.47575195 0.15185547 10.67041016 C-0.05009982 7.11898416 0 3.55716355 0 0 Z " fill="#AFC8DC" transform="translate(172,312)"/>
<path d="M0 0 C0.66 0.33 1.32 0.66 2 1 C1.39671875 1.51949219 0.7934375 2.03898437 0.171875 2.57421875 C-1.02695313 3.62029297 -1.02695313 3.62029297 -2.25 4.6875 C-3.43335938 5.71423828 -3.43335938 5.71423828 -4.640625 6.76171875 C-13.80776118 15.45835622 -16.34988814 25.46343098 -16.70703125 37.67578125 C-16.783547 41.55496823 -16.80194043 45.43265868 -16.8125 49.3125 C-16.83568691 51.32489639 -16.8610608 53.33726882 -16.88867188 55.34960938 C-16.9550252 60.23361613 -16.97654448 65.11485527 -17 70 C-22.94 70 -28.88 70 -35 70 C-35 69.67 -35 69.34 -35 69 C-29.39 69 -23.78 69 -18 69 C-18.165 66.669375 -18.33 64.33875 -18.5 61.9375 C-21.0823567 21.34335174 -21.0823567 21.34335174 -9.77734375 8.46875 C-6.67947914 5.28525336 -3.70058079 2.46705386 0 0 Z " fill="#E1DEDF" transform="translate(148,27)"/>
<path d="M0 0 C0.33 0 0.66 0 1 0 C3.40420473 15.6920728 5.46121133 31.31169313 6.60546875 47.1484375 C6.87446356 50.81588424 7.3747692 54.37475826 8 58 C7.9375 61.9375 7.9375 61.9375 7.83984375 63.77734375 C7.9237616 66.19516062 7.9237616 66.19516062 9.02734375 69.1328125 C10.23252113 73.92448161 9.9966541 78.05024854 9.625 82.9375 C9.56828125 83.81212891 9.5115625 84.68675781 9.453125 85.58789062 C9.31292119 87.72599869 9.15797033 89.86313113 9 92 C8.67 92 8.34 92 8 92 C7.92927277 91.18362061 7.85854553 90.36724121 7.78567505 89.52612305 C7.11237189 81.76071582 6.43612183 73.9955731 5.75671577 66.23069763 C5.40768651 62.24052203 5.05972242 58.25026002 4.71435547 54.25976562 C4.37983471 50.39508007 4.04230356 46.53066734 3.70284653 42.66641235 C3.57506069 41.20603419 3.44828629 39.74556709 3.32263565 38.28500366 C2.55645271 29.38836081 1.60789089 20.54972308 0.38449097 11.70336914 C-0.02578324 7.75165907 -0.06359998 3.96918747 0 0 Z " fill="#467FAC" transform="translate(131,308)"/>
<path d="M0 0 C0.33 0 0.66 0 1 0 C1 11.55 1 23.1 1 35 C-3.64717009 37.32358504 -7.10574706 38.69486588 -12 40 C-13.18142578 40.39058594 -13.18142578 40.39058594 -14.38671875 40.7890625 C-19.83009053 42.57295463 -24.273842 43.31811989 -30 43 C-27.1419635 41.09464233 -25.03011218 40.26263825 -21.78125 39.2734375 C-20.76675781 38.9640625 -19.75226563 38.6546875 -18.70703125 38.3359375 C-17.64871094 38.01882813 -16.59039062 37.70171875 -15.5 37.375 C-13.91251953 36.88773437 -13.91251953 36.88773437 -12.29296875 36.390625 C-4.38783482 34 -4.38783482 34 -1 34 C-1.01160156 33.30519531 -1.02320313 32.61039062 -1.03515625 31.89453125 C-1.12966339 21.24222678 -0.56707965 10.63425158 0 0 Z " fill="#CBE3F1" transform="translate(294,302)"/>
<path d="M0 0 C2.64 0 5.28 0 8 0 C4.71038928 2.19307381 1.63668971 3.03408378 -2.1328125 3.98828125 C-2.83792969 4.17195251 -3.54304688 4.35562378 -4.26953125 4.54486084 C-6.55341843 5.13909538 -8.83914547 5.72588353 -11.125 6.3125 C-14.23008905 7.11626865 -17.33407212 7.92421755 -20.4375 8.734375 C-21.1924173 8.93116348 -21.94733459 9.12795197 -22.72512817 9.33070374 C-29.44726693 11.09415094 -36.08600996 13.07499448 -42.6953125 15.22265625 C-46.62474305 16.14695493 -49.97354789 16.13656457 -54 16 C-54 15.67 -54 15.34 -54 15 C-52.74445313 14.67386719 -51.48890625 14.34773438 -50.1953125 14.01171875 C-36.15464679 11.66908429 -36.15464679 11.66908429 -24 6 C-22.06974111 5.77480313 -20.13870558 5.55251748 -18.203125 5.37890625 C-15.91699391 5.06923554 -15.91699391 5.06923554 -13.59765625 4.00390625 C-10.71955397 2.8916171 -8.25781449 2.59695045 -5.1875 2.375 C-4.21167969 2.30023438 -3.23585938 2.22546875 -2.23046875 2.1484375 C-1.49441406 2.09945313 -0.75835937 2.05046875 0 2 C0 1.34 0 0.68 0 0 Z " fill="#D1E8F8" transform="translate(304,367)"/>
<path d="M0 0 C-0.33 0.99 -0.66 1.98 -1 3 C-3.50390625 3.94921875 -3.50390625 3.94921875 -6.5625 4.6875 C-7.57441406 4.93886719 -8.58632813 5.19023437 -9.62890625 5.44921875 C-10.41136719 5.63097656 -11.19382812 5.81273437 -12 6 C-12 6.66 -12 7.32 -12 8 C8.46 8 28.92 8 50 8 C50 8.33 50 8.66 50 9 C27.23 9 4.46 9 -19 9 C-15.85852075 5.85852075 -12.9477271 4.46472988 -8.9375 2.8125 C-8.30005859 2.53986328 -7.66261719 2.26722656 -7.00585938 1.98632812 C-2.28148496 0 -2.28148496 0 0 0 Z " fill="#5FA0C9" transform="translate(284,250)"/>
<path d="M0 0 C0.495 1.485 0.495 1.485 1 3 C-13.85 3 -28.7 3 -44 3 C-44 2.34 -44 1.68 -44 1 C-38.21591311 0.85711736 -32.43181471 0.71471302 -26.64770508 0.57275391 C-24.67960287 0.52438323 -22.71150389 0.47588135 -20.7434082 0.42724609 C-17.91618674 0.35740296 -15.08895406 0.28803011 -12.26171875 0.21875 C-11.38037766 0.19687622 -10.49903656 0.17500244 -9.59098816 0.15246582 C-8.77036392 0.13244507 -7.94973969 0.11242432 -7.10424805 0.09179688 C-6.38254929 0.07403198 -5.66085052 0.05626709 -4.9172821 0.03796387 C-3.27846046 0.00551376 -1.63914288 0 0 0 Z " fill="#D4E9F9" transform="translate(294,288)"/>
<path d="M0 0 C7.20256271 0.53283517 14.04421081 1.75995771 21.0625 3.4375 C22.92834816 3.87385727 24.79423317 4.31005699 26.66015625 4.74609375 C28.00037842 5.06296143 28.00037842 5.06296143 29.36767578 5.38623047 C32.61226446 6.14275949 35.86566991 6.85459761 39.12280273 7.55493164 C41 8 41 8 44 9 C44 9.66 44 10.32 44 11 C38.29663148 10.38852225 32.89502925 9.35981218 27.34375 7.93359375 C26.55601196 7.73524429 25.76827393 7.53689484 24.95666504 7.33253479 C22.46995772 6.70531307 19.98497994 6.07152681 17.5 5.4375 C15.80219387 5.00802633 14.10427813 4.57898574 12.40625 4.15039062 C8.26955002 3.10525984 4.13438663 2.05424318 0 1 C0 0.67 0 0.34 0 0 Z " fill="#AEC7DC" transform="translate(192,368)"/>
<path d="M0 0 C0.33 0 0.66 0 1 0 C1.57471018 6.2617538 2.14376273 12.52400373 2.70898438 18.78662109 C2.90170824 20.91466769 3.09570144 23.04259974 3.29101562 25.17041016 C3.57239532 28.23831021 3.84912692 31.30660047 4.125 34.375 C4.21249512 35.31802979 4.29999023 36.26105957 4.39013672 37.23266602 C4.85991692 42.51414871 5.08692366 47.69765658 5 53 C4.67 53 4.34 53 4 53 C1.12683596 35.14970427 -0.65957092 18.11029548 0 0 Z " fill="#C7E4F1" transform="translate(122,208)"/>
<path d="M0 0 C0 0.33 0 0.66 0 1 C-1.04671875 1.268125 -2.0934375 1.53625 -3.171875 1.8125 C-4.69814462 2.20745347 -6.2241631 2.60337809 -7.75 3 C-8.57169678 3.21350098 -9.39339355 3.42700195 -10.23999023 3.64697266 C-15.6582315 5.07253965 -21.04683243 6.58086995 -26.42578125 8.1484375 C-27.68874023 8.51582031 -28.95169922 8.88320313 -30.25292969 9.26171875 C-32.78015614 10.00025711 -35.30558069 10.74499135 -37.82910156 11.49609375 C-38.99022461 11.83511719 -40.15134766 12.17414063 -41.34765625 12.5234375 C-42.38929932 12.83200684 -43.43094238 13.14057617 -44.50415039 13.45849609 C-47 14 -47 14 -49 13 C-44.64771589 10.66006231 -40.45549791 9.15385055 -35.6875 7.875 C-31.53001994 7.05536164 -31.53001994 7.05536164 -28 5 C-25.82121473 4.48264936 -23.6313877 4.01151413 -21.4375 3.5625 C-17.4281529 2.73213776 -13.45000114 1.89047302 -9.5 0.8125 C-6.19067147 0.04426302 -3.38094636 -0.16904732 0 0 Z " fill="#3E79A6" transform="translate(311,422)"/>
<path d="M0 0 C5.21438043 -0.0988364 10.42821643 -0.17145206 15.64331055 -0.21972656 C17.41749569 -0.23984903 19.19161446 -0.2671503 20.96557617 -0.30175781 C23.51497767 -0.35024992 26.06350295 -0.37296153 28.61328125 -0.390625 C29.40712723 -0.41127014 30.20097321 -0.43191528 31.01887512 -0.45318604 C33.26293945 -0.45410156 33.26293945 -0.45410156 37 0 C39.02416992 2.02441406 39.02416992 2.02441406 40 4 C39.34 4.66 38.68 5.32 38 6 C37.54025497 7.92901141 37.54025497 7.92901141 37.3671875 10.1328125 C37.28339844 10.93847656 37.19960938 11.74414062 37.11328125 12.57421875 C37.03464844 13.41597656 36.95601563 14.25773438 36.875 15.125 C36.78863281 15.97449219 36.70226562 16.82398438 36.61328125 17.69921875 C36.40097443 19.79869727 36.19946397 21.89926242 36 24 C35.67 24 35.34 24 35 24 C35.33 16.41 35.66 8.82 36 1 C24.12 1 12.24 1 0 1 C0 0.67 0 0.34 0 0 Z " fill="#69A7D1" transform="translate(304,187)"/>
<path d="M0 0 C-1.17175781 0.51949219 -2.34351563 1.03898438 -3.55078125 1.57421875 C-4.30721924 1.9101001 -5.06365723 2.24598145 -5.84301758 2.59204102 C-7.49447726 3.32462625 -9.14666432 4.05557388 -10.79956055 4.78491211 C-16.17540652 7.16318848 -21.48792367 9.63884075 -26.73828125 12.28515625 C-29.5070069 13.16024571 -31.2385282 12.77712215 -34 12 C-34 11.67 -34 11.34 -34 11 C-33.0925 10.71125 -32.185 10.4225 -31.25 10.125 C-25.72567558 8.27861666 -25.72567558 8.27861666 -22 4 C-19.79296875 3.59375 -19.79296875 3.59375 -17.1875 3.5 C-12.964848 3.2083636 -10.50787531 2.47614728 -7 0 C-3.91108646 -1.09020478 -3.236172 -1.078724 0 0 Z " fill="#D9E9F4" transform="translate(291,247)"/>
<path d="M0 0 C7.62228299 0.16735551 14.72021102 1.50443751 22.0625 3.4375 C22.89563721 3.65494873 23.72877441 3.87239746 24.5871582 4.09643555 C28.23307567 5.08935197 30.81217936 5.87478624 34 8 C34 8.66 34 9.32 34 10 C31.33164478 9.4026523 28.66550637 8.79732883 26 8.1875 C25.25621094 8.02185547 24.51242188 7.85621094 23.74609375 7.68554688 C19.26733451 6.65348496 15.05978903 5.34176636 10.78125 3.66674805 C8.55534401 2.83355873 6.32730605 2.28523404 4 1.8125 C2.8553125 1.57466797 2.8553125 1.57466797 1.6875 1.33203125 C1.130625 1.22246094 0.57375 1.11289062 0 1 C0 0.67 0 0.34 0 0 Z " fill="#437EAD" transform="translate(142,409)"/>
<path d="M0 0 C9.2747648 1.76573679 18.44082582 3.94612593 27.625 6.125 C29.21741088 6.50145877 30.80985852 6.87776209 32.40234375 7.25390625 C36.26865519 8.16747959 40.13446347 9.08315361 44 10 C44 10.33 44 10.66 44 11 C36.63051076 10.62107236 29.81625679 9.61427986 22.69140625 7.69140625 C19.48750635 6.86834343 16.27319504 6.45824731 13 6 C10.98777953 5.3711811 8.98723268 4.70381157 7 4 C4.67333154 3.30765129 2.33771118 2.65455913 0 2 C0 1.34 0 0.68 0 0 Z " fill="#3A76A6" transform="translate(202,371)"/>
<path d="M0 0 C0.33 0 0.66 0 1 0 C3.33048217 15.09156902 4.15393384 29.76054982 4 45 C3.67 45 3.34 45 3 45 C2.56250939 41.00324399 2.13590669 37.00547134 1.71826172 33.0065918 C1.50637753 30.99795808 1.28651504 28.99017097 1.06640625 26.98242188 C0.127246 17.92623378 -0.17635686 9.0995239 0 0 Z " fill="#E2DEE0" transform="translate(93,316)"/>
<path d="M0 0 C0.33 0 0.66 0 1 0 C1.06058594 0.95261719 1.12117188 1.90523438 1.18359375 2.88671875 C1.26738281 4.14097656 1.35117187 5.39523437 1.4375 6.6875 C1.51871094 7.92886719 1.59992188 9.17023438 1.68359375 10.44921875 C1.90813656 13.90411733 1.90813656 13.90411733 2.66015625 16.83203125 C2.77230469 17.54746094 2.88445312 18.26289063 3 19 C2.34 19.66 1.68 20.32 1 21 C0.61116804 23.82673737 0.61116804 23.82673737 0.5 27 C0.22222222 32.77777778 0.22222222 32.77777778 -2 35 C-2.39910566 23.24855547 -1.1823775 11.67755012 0 0 Z " fill="#CFEAF4" transform="translate(371,274)"/>
<path d="M0 0 C0.33 0 0.66 0 1 0 C1.33870183 3.99956416 1.66998725 7.99971026 2 12 C2.14308594 13.68802734 2.14308594 13.68802734 2.2890625 15.41015625 C2.77098607 21.29650845 3.11580219 27.0940881 3 33 C2.34 33 1.68 33 1 33 C1 27.06 1 21.12 1 15 C0.34 15 -0.32 15 -1 15 C-1.02703381 13.06257659 -1.04641125 11.12504521 -1.0625 9.1875 C-1.07410156 8.10855469 -1.08570313 7.02960938 -1.09765625 5.91796875 C-1 3 -1 3 0 0 Z " fill="#3E79A7" transform="translate(166,258)"/>
<path d="M0 0 C-3.93324939 1.84255516 -7.87226022 3.67244719 -11.8125 5.5 C-12.93205078 6.02464844 -14.05160156 6.54929688 -15.20507812 7.08984375 C-16.27822266 7.58613281 -17.35136719 8.08242187 -18.45703125 8.59375 C-19.9416687 9.28500977 -19.9416687 9.28500977 -21.45629883 9.99023438 C-24 11 -24 11 -27 11 C-27 10.01 -27 9.02 -27 8 C-23.38026598 6.68373308 -20.90432869 6 -17 6 C-16.67 5.01 -16.34 4.02 -16 3 C-13.78515625 2.0859375 -13.78515625 2.0859375 -11.0625 1.375 C-2.79340938 -0.83802281 -2.79340938 -0.83802281 0 0 Z " fill="#3774A6" transform="translate(224,233)"/>
<path d="M0 0 C0.66 0 1.32 0 2 0 C1.76360535 3.95181927 1.51512309 7.90267265 1.25537109 11.85302734 C1.16870151 13.19721743 1.0853488 14.54162563 1.00537109 15.88623047 C0.8898972 17.81792334 0.76153618 19.7488323 0.6328125 21.6796875 C0.55949707 22.84226074 0.48618164 24.00483398 0.41064453 25.20263672 C0 28 0 28 -2 30 C-2.2615556 19.75573889 -1.60781635 10.12062972 0 0 Z " fill="#3A77A8" transform="translate(379,170)"/>
<path d="M0 0 C0.66 0.33 1.32 0.66 2 1 C1.39671875 1.51949219 0.7934375 2.03898437 0.171875 2.57421875 C-0.62734375 3.27160156 -1.4265625 3.96898437 -2.25 4.6875 C-3.43335938 5.71423828 -3.43335938 5.71423828 -4.640625 6.76171875 C-9.15690364 11.04620164 -11.61968091 14.95412251 -13.75 20.8125 C-14.17796875 21.97394531 -14.6059375 23.13539062 -15.046875 24.33203125 C-15.36140625 25.21246094 -15.6759375 26.09289062 -16 27 C-16.33 27 -16.66 27 -17 27 C-17.81849021 20.77947444 -15.3145322 16.08228271 -12 11 C-8.37392139 6.81508615 -4.61277453 3.07518302 0 0 Z " fill="#E7E4E5" transform="translate(148,27)"/>
<path d="M0 0 C-1 3 -1 3 -4 5 C-6.33333333 5.66666667 -8.66666667 6.33333333 -11 7 C-11.99 7.66 -12.98 8.32 -14 9 C-16.26171875 9.4140625 -16.26171875 9.4140625 -18.6875 9.625 C-19.49574219 9.69976562 -20.30398438 9.77453125 -21.13671875 9.8515625 C-22.05904297 9.92503906 -22.05904297 9.92503906 -23 10 C-19.17372767 7.44915178 -15.13398153 5.73208252 -10.9375 3.875 C-10.10927734 3.50246094 -9.28105469 3.12992188 -8.42773438 2.74609375 C-7.63560547 2.39417969 -6.84347656 2.04226562 -6.02734375 1.6796875 C-5.30281006 1.35726074 -4.57827637 1.03483398 -3.83178711 0.70263672 C-2 0 -2 0 0 0 Z " fill="#6BA6CF" transform="translate(316,236)"/>
<path d="M0 0 C0.33 0 0.66 0 1 0 C2.81272608 7.22537297 3.14536795 13.71496037 2.625 21.125 C2.56828125 22.08148438 2.5115625 23.03796875 2.453125 24.0234375 C2.31353568 26.34992618 2.16235793 28.67500874 2 31 C1.67 31 1.34 31 1 31 C0.66134102 27.47965794 0.33003905 23.95865982 0 20.4375 C-0.09539062 19.44685547 -0.19078125 18.45621094 -0.2890625 17.43554688 C-1.61121324 3.22242647 -1.61121324 3.22242647 0 0 Z " fill="#3F7AAC" transform="translate(120,167)"/>
<path d="M0 0 C0.33 0 0.66 0 1 0 C1.33947025 3.49943267 1.67044773 6.99962052 2 10.5 C2.09539062 11.48226562 2.19078125 12.46453125 2.2890625 13.4765625 C2.80588848 19.01398367 3.10592737 24.43881298 3 30 C0.09808065 27.09808065 0.0564289 24.33160064 -0.11352539 20.32104492 C-0.10828857 19.38365479 -0.10305176 18.44626465 -0.09765625 17.48046875 C-0.09443359 16.45888672 -0.09121094 15.43730469 -0.08789062 14.38476562 C-0.07951172 13.32966797 -0.07113281 12.27457031 -0.0625 11.1875 C-0.05798828 10.11306641 -0.05347656 9.03863281 -0.04882812 7.93164062 C-0.03707729 5.28770317 -0.02064787 2.64388048 0 0 Z " fill="#D1ECF8" transform="translate(119,176)"/>
<path d="M0 0 C-2.09989037 2.09989037 -3.57208894 2.80708074 -6.28125 3.9453125 C-7.12300781 4.29980469 -7.96476562 4.65429688 -8.83203125 5.01953125 C-9.71246094 5.38433594 -10.59289062 5.74914062 -11.5 6.125 C-12.38042969 6.49753906 -13.26085937 6.87007812 -14.16796875 7.25390625 C-20.73646406 10 -20.73646406 10 -23 10 C-23 9.34 -23 8.68 -23 8 C-13.58997722 3.59225513 -13.58997722 3.59225513 -9 3 C-9 2.34 -9 1.68 -9 1 C-5.92677456 0.08941469 -3.19902639 -0.08886184 0 0 Z " fill="#D2E9F6" transform="translate(314,236)"/>
<path d="M0 0 C0.99 0.33 1.98 0.66 3 1 C2.67 1.66 2.34 2.32 2 3 C0.68 3 -0.64 3 -2 3 C-2 3.66 -2 4.32 -2 5 C0.31 5 2.62 5 5 5 C5 5.99 5 6.98 5 8 C3.26982492 7.54548816 1.54090123 7.08621143 -0.1875 6.625 C-1.15042969 6.36976563 -2.11335937 6.11453125 -3.10546875 5.8515625 C-5.82210207 5.05233704 -8.39137175 4.0968638 -11 3 C-7.32589215 1.82428549 -3.83070817 1.92633254 0 2 C0 1.34 0 0.68 0 0 Z " fill="#3377AC" transform="translate(218,424)"/>
<path d="M0 0 C0.33 1.32 0.66 2.64 1 4 C-2.2903223 5.00446104 -5.58246822 6.00280756 -8.875 7 C-9.81214844 7.28617187 -10.74929688 7.57234375 -11.71484375 7.8671875 C-12.61074219 8.13789063 -13.50664062 8.40859375 -14.4296875 8.6875 C-15.67081299 9.06455078 -15.67081299 9.06455078 -16.93701172 9.44921875 C-19 10 -19 10 -21 10 C-21 9.34 -21 8.68 -21 8 C-20.34 8 -19.68 8 -19 8 C-19 7.34 -19 6.68 -19 6 C-18.21496094 5.87882812 -17.42992187 5.75765625 -16.62109375 5.6328125 C-10.94948787 4.72813917 -5.47507746 3.7420701 0 2 C0 1.34 0 0.68 0 0 Z " fill="#3C76A6" transform="translate(359,405)"/>
<path d="M0 0 C0.99 0 1.98 0 3 0 C2.67 8.58 2.34 17.16 2 26 C1.67 26 1.34 26 1 26 C0.28038418 17.31320899 -0.14368684 8.71700174 0 0 Z " fill="#ADC8DE" transform="translate(167,257)"/>
<path d="M0 0 C-3.28893003 1.50605402 -6.58157446 3.00380532 -9.875 4.5 C-10.81214844 4.92925781 -11.74929688 5.35851562 -12.71484375 5.80078125 C-13.61074219 6.20683594 -14.50664062 6.61289063 -15.4296875 7.03125 C-16.25710449 7.40830078 -17.08452148 7.78535156 -17.93701172 8.17382812 C-20 9 -20 9 -22 9 C-22 8.34 -22 7.68 -22 7 C-15.375 4 -15.375 4 -12 4 C-11.67 3.01 -11.34 2.02 -11 1 C-9.2578125 0.234375 -9.2578125 0.234375 -7.125 -0.25 C-6.07699219 -0.50523437 -6.07699219 -0.50523437 -5.0078125 -0.765625 C-3 -1 -3 -1 0 0 Z " fill="#D0E9F7" transform="translate(336,227)"/>
<path d="M0 0 C0.66 0 1.32 0 2 0 C3.32594359 5.96674616 3.0884587 11.92583615 3 18 C0.20097742 15.20097742 0.2637019 12.20451123 -0.1875 8.4375 C-0.32961914 7.39045898 -0.32961914 7.39045898 -0.47460938 6.32226562 C-0.69931606 4.55377258 -0.8552527 2.77682553 -1 1 C-0.67 0.67 -0.34 0.34 0 0 Z " fill="#DDF4FB" transform="translate(114,135)"/>
<path d="M0 0 C0 0.66 0 1.32 0 2 C-4.96949267 5.10593292 -9.19438361 7.01599722 -15 8 C-15.66 7.34 -16.32 6.68 -17 6 C-14.5433053 4.99580363 -12.08481647 3.99649499 -9.625 3 C-8.92632812 2.71382812 -8.22765625 2.42765625 -7.5078125 2.1328125 C-2.2265625 0 -2.2265625 0 0 0 Z " fill="#B4C7D7" transform="translate(250,222)"/>
<path d="M0 0 C15.74487472 3.07517084 15.74487472 3.07517084 23 5 C23 5.33 23 5.66 23 6 C20.03 6 17.06 6 14 6 C14 5.34 14 4.68 14 4 C11.03 4 8.06 4 5 4 C5 3.34 5 2.68 5 2 C3.35 2 1.7 2 0 2 C0 1.34 0 0.68 0 0 Z " fill="#437BAB" transform="translate(177,365)"/>
<path d="M0 0 C-0.33 0.99 -0.66 1.98 -1 3 C-3.80948274 3.96020296 -6.63085671 4.5283298 -9.53125 5.15625 C-10.75328125 5.57390625 -10.75328125 5.57390625 -12 6 C-12.33 6.99 -12.66 7.98 -13 9 C-14.98 9 -16.96 9 -19 9 C-16.31655211 5.70262676 -12.7640499 4.38905413 -8.9375 2.8125 C-8.30005859 2.53986328 -7.66261719 2.26722656 -7.00585938 1.98632812 C-2.28148496 0 -2.28148496 0 0 0 Z " fill="#6FA3C9" transform="translate(284,250)"/>
<path d="M0 0 C0 0.66 0 1.32 0 2 C-2.05673453 3.01180498 -4.12065348 4.00901477 -6.1875 5 C-7.33605469 5.556875 -8.48460937 6.11375 -9.66796875 6.6875 C-12.79090519 7.91763675 -14.70286482 8.29804612 -18 8 C-14.83936913 5.39667844 -11.6568348 3.85961424 -7.875 2.3125 C-6.82054687 1.87550781 -5.76609375 1.43851563 -4.6796875 0.98828125 C-2 0 -2 0 0 0 Z " fill="#6CA5CB" transform="translate(334,228)"/>
<path d="M0 0 C-4.93882266 2.75804383 -9.22333696 4.76893348 -15 5 C-15.66 4.34 -16.32 3.68 -17 3 C-14.92085336 2.29994051 -12.83648414 1.61537756 -10.75 0.9375 C-9.58984375 0.55464844 -8.4296875 0.17179687 -7.234375 -0.22265625 C-4.19922915 -0.95211763 -2.84296787 -1.11889082 0 0 Z " fill="#D9EFF8" transform="translate(274,434)"/>
<path d="M0 0 C-6.52638189 4.5981327 -10.22523442 5.12957943 -18 5 C-14.81886649 2.87924433 -12.07995044 1.93982824 -8.4375 0.8125 C-7.28121094 0.44769531 -6.12492187 0.08289063 -4.93359375 -0.29296875 C-2 -1 -2 -1 0 0 Z " fill="#CBE4F3" transform="translate(282,340)"/>
<path d="M0 0 C7.11120489 1.31117661 14.04699943 3.01720516 21 5 C21 5.33 21 5.66 21 6 C14.68706537 7.36161335 14.68706537 7.36161335 11.625 5.75 C10.75875 5.1725 9.8925 4.595 9 4 C6.03641218 2.88175959 3.02739261 1.92998335 0 1 C0 0.67 0 0.34 0 0 Z " fill="#E2F4FB" transform="translate(182,421)"/>
<path d="M0 0 C0.33 0 0.66 0 1 0 C1.33 6.6 1.66 13.2 2 20 C1.67 20 1.34 20 1 20 C-1.2838943 13.29106049 -1.94654051 6.89853955 0 0 Z " fill="#3C7AAC" transform="translate(174,340)"/>
<path d="M0 0 C-2.12282669 1.00460531 -4.24833021 2.00355602 -6.375 3 C-8.15003906 3.8353125 -8.15003906 3.8353125 -9.9609375 4.6875 C-13 6 -13 6 -15 6 C-15 5.34 -15 4.68 -15 4 C-14.01 3.67 -13.02 3.34 -12 3 C-11.34 2.01 -10.68 1.02 -10 0 C-6.26029244 -0.97557588 -3.67485155 -1.04995759 0 0 Z " fill="#3673A5" transform="translate(183,251)"/>
<path d="M0 0 C-0.99 0 -1.98 0 -3 0 C-3 0.66 -3 1.32 -3 2 C-7.84241633 3.33583899 -11.93437617 4.25328119 -17 4 C-14.23719462 2.15812975 -12.19292174 1.27751723 -9.0625 0.3125 C-7.78052734 -0.09548828 -7.78052734 -0.09548828 -6.47265625 -0.51171875 C-3.89489426 -1.02075548 -2.45550663 -0.84888744 0 0 Z " fill="#CFEAF4" transform="translate(306,425)"/>
<path d="M0 0 C0.33 0 0.66 0 1 0 C1.33 6.6 1.66 13.2 2 20 C1.01 20.33 0.02 20.66 -1 21 C-0.67 14.07 -0.34 7.14 0 0 Z " fill="#CFECF8" transform="translate(363,365)"/>
<path d="M0 0 C5.28 0.66 10.56 1.32 16 2 C16.33 2.99 16.66 3.98 17 5 C8.585 3.02 8.585 3.02 0 1 C0 0.67 0 0.34 0 0 Z " fill="#5187B1" transform="translate(185,421)"/>
<path d="M0 0 C-3.29907353 3.29907353 -7.29683373 4.89128726 -11.9375 5.1875 C-12.9584375 5.0946875 -12.9584375 5.0946875 -14 5 C-9.94779194 1.59614523 -5.27662976 -1.75887659 0 0 Z " fill="#ABC4D8" transform="translate(184,252)"/>
<path d="M0 0 C2.64 0 5.28 0 8 0 C4.69001895 2.20665404 2.17978564 2.78262095 -1.6875 3.625 C-2.86699219 3.88539063 -4.04648437 4.14578125 -5.26171875 4.4140625 C-6.61716797 4.70410156 -6.61716797 4.70410156 -8 5 C-8 4.34 -8 3.68 -8 3 C-5.36 2.67 -2.72 2.34 0 2 C0 1.34 0 0.68 0 0 Z " fill="#CDE4F8" transform="translate(304,367)"/>
<path d="M0 0 C0 3 0 3 -2 6 C-2.66 6 -3.32 6 -4 6 C-4.4021875 7.1446875 -4.4021875 7.1446875 -4.8125 8.3125 C-5.94424112 10.87380884 -6.91223401 12.19692938 -9 14 C-8.38756115 10.62780583 -7.15616473 8.56758594 -5.0625 5.875 C-4.53785156 5.19179687 -4.01320313 4.50859375 -3.47265625 3.8046875 C-2 2 -2 2 0 0 Z " fill="#EAE8E9" transform="translate(89,106)"/>
<path d="M0 0 C-0.99 0 -1.98 0 -3 0 C-3 0.66 -3 1.32 -3 2 C-5.75078884 2.91692961 -7.35948913 3.10886083 -10.1875 3.0625 C-12.0746875 3.0315625 -12.0746875 3.0315625 -14 3 C-9.7368213 0.15788087 -5.03577274 -2.0143091 0 0 Z " fill="#C7E4F2" transform="translate(288,430)"/>
<path d="M0 0 C0.268125 0.61875 0.53625 1.2375 0.8125 1.875 C1.95556848 4.2995233 1.95556848 4.2995233 5 6 C5 6.66 5 7.32 5 8 C5.66 8.33 6.32 8.66 7 9 C4.69 8.67 2.38 8.34 0 8 C0 5.36 0 2.72 0 0 Z " fill="#A7C1D6" transform="translate(176,357)"/>
<path d="M0 0 C0.721875 0.268125 1.44375 0.53625 2.1875 0.8125 C0.5625 2.8125 0.5625 2.8125 -1.8125 4.8125 C-5.0625 5.0625 -5.0625 5.0625 -7.8125 4.8125 C-3.50480769 -0.23365385 -3.50480769 -0.23365385 0 0 Z " fill="#5FA1CE" transform="translate(255.8125,343.1875)"/>
<path d="M0 0 C0.66 0.33 1.32 0.66 2 1 C1.67 1.99 1.34 2.98 1 4 C-0.8125 4.8125 -0.8125 4.8125 -3 5 C-5.25 4.0625 -5.25 4.0625 -7 3 C-4.69631264 1.93347808 -2.35981813 0.93578995 0 0 Z " fill="#B5C7D5" transform="translate(227,231)"/>
<path d="M0 0 C4.29 0 8.58 0 13 0 C12.67 0.99 12.34 1.98 12 3 C6.06 2.01 6.06 2.01 0 1 C0 0.67 0 0.34 0 0 Z " fill="#D3EFFA" transform="translate(243,438)"/>
<path d="M0 0 C4.95 0.99 4.95 0.99 10 2 C6 4 6 4 2.75 3.125 C1.8425 2.75375 0.935 2.3825 0 2 C0 1.34 0 0.68 0 0 Z " fill="#DAF1F9" transform="translate(233,435)"/>
<path d="M0 0 C0.33 0 0.66 0 1 0 C1.09688221 5.44693314 1.12862175 10.63904667 0 16 C-0.33 16 -0.66 16 -1 16 C-1.38063221 13.6739143 -1.71269945 11.33944736 -2 9 C-1.67 8.67 -1.34 8.34 -1 8 C-0.76924918 6.65252916 -0.58846937 5.29622435 -0.4375 3.9375 C-0.293125 2.638125 -0.14875 1.33875 0 0 Z " fill="#3B8CCA" transform="translate(344,324)"/>
<path d="M0 0 C0 0.66 0 1.32 0 2 C-3.71973879 4.84450614 -6.37390802 5.3227506 -11 5 C-3.5 0 -3.5 0 0 0 Z " fill="#ABC4D7" transform="translate(194,246)"/>
<path d="M0 0 C-3.08888522 2.05925681 -3.70935927 2.2390374 -7.1875 2.125 C-9.0746875 2.063125 -9.0746875 2.063125 -11 2 C-6.98764085 -0.6749061 -4.6342454 -1.48957888 0 0 Z " fill="#C9E9F4" transform="translate(332,418)"/>
<path d="M0 0 C1.48117801 0.28127421 2.95993249 0.57533732 4.4375 0.875 C5.67306641 1.11863281 5.67306641 1.11863281 6.93359375 1.3671875 C7.61550781 1.57601563 8.29742187 1.78484375 9 2 C9.33 2.66 9.66 3.32 10 4 C8.35 4 6.7 4 5 4 C5 3.34 5 2.68 5 2 C3.35 2 1.7 2 0 2 C0 1.34 0 0.68 0 0 Z " fill="#3975A6" transform="translate(177,365)"/>
<path d="M0 0 C2.64 0.33 5.28 0.66 8 1 C8 1.66 8 2.32 8 3 C5.36 2.67 2.72 2.34 0 2 C0 1.34 0 0.68 0 0 Z " fill="#A7C3D8" transform="translate(228,376)"/>
<path d="M0 0 C0.33 0.99 0.66 1.98 1 3 C-0.75 4.125 -0.75 4.125 -3 5 C-5.25 4.125 -5.25 4.125 -7 3 C-4.69 2.01 -2.38 1.02 0 0 Z " fill="#B8CAD8" transform="translate(202,242)"/>
</svg>
