<?xml version="1.0" encoding="UTF-8"?>
<svg version="1.1" xmlns="http://www.w3.org/2000/svg" width="247" height="204">
<path d="M0 0 C1.5186496 -0.01150247 3.03725932 -0.03192714 4.55566406 -0.06152344 C20.28990835 -0.36785689 20.28990835 -0.36785689 27.03857422 4.29516602 C30.1717394 7.66331859 31.2959723 10.2842866 31.53857422 14.79516602 C31.33618088 19.26281154 29.83609757 21.77827951 27.03857422 25.29516602 C26.02797901 26.95542958 25.02404421 28.61986703 24.03857422 30.29516602 C24.82232422 31.03766602 25.60607422 31.78016602 26.41357422 32.54516602 C30.04455719 36.34905294 30.92518475 37.8891366 31.35107422 43.17016602 C31.21588868 47.21071169 30.40795644 49.93217189 28.03857422 53.29516602 C23.42741289 56.79964863 19.96308679 57.88142935 14.18701172 57.63500977 C11.11248569 57.14867565 8.70400195 55.8554164 6.03857422 54.29516602 C5.37857422 54.29516602 4.71857422 54.29516602 4.03857422 54.29516602 C4.02922852 54.89989746 4.01988281 55.50462891 4.01025391 56.12768555 C3.956257 58.89264482 3.87267028 61.65596508 3.78857422 64.42016602 C3.76730469 65.8471582 3.76730469 65.8471582 3.74560547 67.30297852 C3.485761 74.78649918 2.06041993 78.27332031 -3.27392578 83.60766602 C-7.1639759 86.05025562 -10.49138022 86.81785356 -15.04736328 85.85375977 C-19.68505856 84.34521576 -22.31300726 82.53263565 -24.96142578 78.29516602 C-26.42182504 73.91396824 -26.91116028 69.60873727 -25.13720703 65.28735352 C-23.65791164 62.65871709 -22.09568179 60.42942203 -19.96142578 58.29516602 C-20.22776958 54.4331809 -22.54882388 52.16013078 -24.96142578 49.29516602 C-26.5740881 46.06984137 -26.41592268 42.79226714 -25.96142578 39.29516602 C-24.21633583 34.49616865 -21.61083784 31.49072171 -16.96142578 29.29516602 C-18.07517578 28.76922852 -18.07517578 28.76922852 -19.21142578 28.23266602 C-22.63881493 25.81791457 -24.52899894 23.18207561 -25.96142578 19.29516602 C-26.72398852 14.4185302 -26.17012012 9.71255469 -23.96142578 5.29516602 C-16.55262384 -0.66408772 -9.09340765 0.04792181 0 0 Z " fill="#FC7160" transform="translate(120.96142578125,58.704833984375)"/>
<path d="M0 0 C-0.33 0.66 -0.66 1.32 -1 2 C-0.21625 2.7425 0.5675 3.485 1.375 4.25 C5.00598297 8.05388692 5.88661053 9.59397058 6.3125 14.875 C6.17731446 18.91554568 5.36938222 21.63700588 3 25 C-1.61116133 28.50448261 -5.07548742 29.58626334 -10.8515625 29.33984375 C-13.92608852 28.85350963 -16.33457226 27.56025038 -19 26 C-19.66 26 -20.32 26 -21 26 C-21.0093457 26.60473145 -21.01869141 27.20946289 -21.02832031 27.83251953 C-21.08231722 30.5974788 -21.16590394 33.36079906 -21.25 36.125 C-21.27126953 37.55199219 -21.27126953 37.55199219 -21.29296875 39.0078125 C-21.55281322 46.49133316 -22.97815429 49.97815429 -28.3125 55.3125 C-32.20255011 57.75508961 -35.52995444 58.52268754 -40.0859375 57.55859375 C-44.72363278 56.05004975 -47.35158148 54.23746963 -50 50 C-51.43830209 45.68509373 -51.94346722 41.38066599 -50.24609375 37.09765625 C-48.20617103 33.44179475 -45.70820311 30.19181081 -43 27 C-42.34 27.33 -41.68 27.66 -41 28 C-39.5534758 28.15067214 -38.1012066 28.24861036 -36.6484375 28.31640625 C-35.79765625 28.35830078 -34.946875 28.40019531 -34.0703125 28.44335938 C-33.18085937 28.48267578 -32.29140625 28.52199219 -31.375 28.5625 C-30.4778125 28.60568359 -29.580625 28.64886719 -28.65625 28.69335938 C-26.43765717 28.79956861 -24.2189512 28.90161194 -22 29 C-22.03480469 27.68644531 -22.06960937 26.37289062 -22.10546875 25.01953125 C-22.13361466 23.28386699 -22.16091396 21.54818885 -22.1875 19.8125 C-22.21263672 18.94818359 -22.23777344 18.08386719 -22.26367188 17.19335938 C-22.32008573 12.28535401 -22.22681117 8.97028072 -19 5 C-14.59752416 1.14783364 -5.75175535 -2.87587768 0 0 Z " fill="#0CC47E" transform="translate(146,87)"/>
<path d="M0 0 C1.25619141 0.01353516 2.51238281 0.02707031 3.80664062 0.04101562 C6.89237279 0.07621409 9.97721024 0.12545695 13.0625 0.1875 C8.28808594 4.01708984 8.28808594 4.01708984 6.2578125 5.55078125 C4.40192265 8.09201605 4.81434188 10.28518002 4.9375 13.375 C5.11885714 18.47113573 4.77772187 23.15343835 4.0625 28.1875 C1.01986733 28.29595027 -2.01886204 28.37502063 -5.0625 28.4375 C-5.9184375 28.47101563 -6.774375 28.50453125 -7.65625 28.5390625 C-13.29206339 28.62576732 -16.48263152 27.98238797 -20.9375 24.1875 C-24.24697781 20.35547307 -25.62234635 17.36257394 -25.31640625 12.2109375 C-24.66059711 8.70878148 -23.48694971 5.71139132 -20.9375 3.1875 C-14.34155213 -0.81453579 -7.51720842 -0.1537342 0 0 Z " fill="#9D59F6" transform="translate(119.9375,87.8125)"/>
<path d="M0 0 C0.72680969 0.00141495 1.45361938 0.0028299 2.20245361 0.00428772 C4.51521994 0.00986833 6.82788812 0.02241721 9.140625 0.03515625 C10.71223818 0.04017376 12.28385289 0.04473623 13.85546875 0.04882812 C17.70055843 0.0598314 21.5455751 0.07708264 25.390625 0.09765625 C25.390625 0.42765625 25.390625 0.75765625 25.390625 1.09765625 C19.780625 1.09765625 14.170625 1.09765625 8.390625 1.09765625 C8.390625 10.00765625 8.390625 18.91765625 8.390625 28.09765625 C5.02875 28.20078125 1.666875 28.30390625 -1.796875 28.41015625 C-3.37311646 28.47843628 -3.37311646 28.47843628 -4.98120117 28.5480957 C-11.89806556 28.65089693 -11.89806556 28.65089693 -15.703125 25.69140625 C-19.33773592 20.74595205 -20.16033526 17.30194788 -19.609375 11.09765625 C-18.79592456 6.86771398 -18.12351637 5.51120474 -14.734375 2.78515625 C-9.75776695 0.0977879 -5.59088824 -0.04115316 0 0 Z " fill="#F14E1E" transform="translate(114.609375,58.90234375)"/>
<path d="M0 0 C-0.33 0.66 -0.66 1.32 -1 2 C-0.21625 2.7425 0.5675 3.485 1.375 4.25 C5.00598297 8.05388692 5.88661053 9.59397058 6.3125 14.875 C6.17731446 18.91554568 5.36938222 21.63700588 3 25 C-1.62325744 28.51367565 -5.1254177 29.62168854 -10.92578125 29.31640625 C-15.32772492 28.64492332 -17.3994835 26.6654372 -20.3125 23.4375 C-22.5739862 18.83076884 -22.68426057 15.04325384 -22 10 C-20.18690665 5.36653923 -17.37502093 3.26563584 -13 1 C-3.16666667 -1.58333333 -3.16666667 -1.58333333 0 0 Z " fill="#1BBAFA" transform="translate(146,87)"/>
<path d="M0 0 C1.79824219 0.00966797 1.79824219 0.00966797 3.6328125 0.01953125 C5.4890625 0.04466797 5.4890625 0.04466797 7.3828125 0.0703125 C8.64351562 0.07933594 9.90421875 0.08835937 11.203125 0.09765625 C14.3048829 0.12115442 17.40624902 0.15400916 20.5078125 0.1953125 C19.71761719 0.824375 18.92742187 1.4534375 18.11328125 2.1015625 C14.38318744 5.09905918 12.68924487 6.83244777 10.5078125 11.1953125 C10.5078125 7.8953125 10.5078125 4.5953125 10.5078125 1.1953125 C7.96375612 1.25574139 5.42524519 1.34290278 2.8828125 1.4453125 C2.16996094 1.45949219 1.45710938 1.47367187 0.72265625 1.48828125 C-4.4676708 1.72636965 -7.21958767 3.06290793 -11.4921875 6.1953125 C-12.4821875 6.1953125 -13.4721875 6.1953125 -14.4921875 6.1953125 C-13.8671875 4.3203125 -13.8671875 4.3203125 -12.4921875 2.1953125 C-8.22199255 0.4099058 -4.6022755 -0.0438312 0 0 Z " fill="#8A4BBB" transform="translate(112.4921875,87.8046875)"/>
<path d="M0 0 C0.66 0.66 1.32 1.32 2 2 C-3.12852971 6.21272083 -7.79949889 6.1754783 -14.265625 6.31640625 C-15.05902283 6.33718735 -15.85242065 6.35796844 -16.66986084 6.37937927 C-19.19648844 6.44459973 -21.72321721 6.50363144 -24.25 6.5625 C-25.96615616 6.6057114 -27.68230222 6.64932653 -29.3984375 6.69335938 C-33.59885546 6.80025283 -37.79937489 6.90159729 -42 7 C-41.67 6.34 -41.34 5.68 -41 5 C-40.10692139 4.97494385 -39.21384277 4.9498877 -38.29370117 4.92407227 C-34.97814546 4.82889814 -31.66276271 4.72966717 -28.34741211 4.62768555 C-26.91288997 4.58439207 -25.47831816 4.54271301 -24.04370117 4.50268555 C-21.9808048 4.44484733 -19.91815717 4.38119247 -17.85546875 4.31640625 C-16.61434326 4.27974854 -15.37321777 4.24309082 -14.09448242 4.20532227 C-10.96446653 4.12855879 -10.96446653 4.12855879 -8 3 C-8 2.34 -8 1.68 -8 1 C-5.23749964 -0.38125018 -3.05268901 -0.19079306 0 0 Z " fill="#DC6664" transform="translate(146,82)"/>
<path d="M0 0 C-0.33 0.66 -0.66 1.32 -1 2 C-0.21625 2.7425 0.5675 3.485 1.375 4.25 C5.41890199 8.48646875 6.39279356 10.97711258 6.26953125 16.9609375 C5.86556545 20.01702658 4.56957111 22.38404815 3 25 C1.86519473 21.39006828 1.89984233 18.0157673 1.9375 14.25 C1.94652344 13.07953125 1.95554688 11.9090625 1.96484375 10.703125 C1.97644531 9.81109375 1.98804688 8.9190625 2 8 C0.68 8 -0.64 8 -2 8 C-1.67 7.01 -1.34 6.02 -1 5 C-2.65 4.67 -4.3 4.34 -6 4 C-6 2.68 -6 1.36 -6 0 C-2.25 -1.125 -2.25 -1.125 0 0 Z " fill="#26AFEA" transform="translate(146,87)"/>
<path d="M0 0 C0.33 1.32 0.66 2.64 1 4 C0.01 4.495 0.01 4.495 -1 5 C-1 8.3 -1 11.6 -1 15 C-0.34 15 0.32 15 1 15 C1 16.32 1 17.64 1 19 C3.31 19.66 5.62 20.32 8 21 C8 21.66 8 22.32 8 23 C9.98 23 11.96 23 14 23 C14.33 22.01 14.66 21.02 15 20 C16.32 20.33 17.64 20.66 19 21 C19 21.66 19 22.32 19 23 C13.37961242 24.80841174 9.22229129 25.5218188 3.7265625 23.05859375 C0.04857411 20.80353752 -1.66524154 18.00427537 -3 14 C-3.37402531 8.29611395 -3.01714173 5.02856955 0 0 Z " fill="#1DA175" transform="translate(98,120)"/>
<path d="M0 0 C0.72680969 0.00141495 1.45361938 0.0028299 2.20245361 0.00428772 C4.51521994 0.00986833 6.82788812 0.02241721 9.140625 0.03515625 C10.71223818 0.04017376 12.28385289 0.04473623 13.85546875 0.04882812 C17.70055843 0.0598314 21.5455751 0.07708264 25.390625 0.09765625 C25.390625 0.42765625 25.390625 0.75765625 25.390625 1.09765625 C24.4620166 1.15300537 23.5334082 1.20835449 22.57666016 1.26538086 C19.13616427 1.47251759 15.6959528 1.68353933 12.25585938 1.8972168 C10.766046 1.98895007 9.27613596 2.07912718 7.78613281 2.16772461 C5.64621178 2.29523655 3.50669914 2.42831477 1.3671875 2.5625 C-0.56519775 2.68032837 -0.56519775 2.68032837 -2.53662109 2.80053711 C-5.52012735 2.9034272 -5.52012735 2.9034272 -7.609375 4.09765625 C-8.74288034 6.11435452 -8.74288034 6.11435452 -9.609375 8.09765625 C-10.269375 7.10765625 -10.929375 6.11765625 -11.609375 5.09765625 C-13.66862639 4.37383158 -13.66862639 4.37383158 -15.609375 4.09765625 C-10.58804038 -0.02701147 -6.3416577 -0.0466794 0 0 Z " fill="#A9402C" transform="translate(114.609375,58.90234375)"/>
<path d="M0 0 C0 0.33 0 0.66 0 1 C-2.64 1 -5.28 1 -8 1 C-8.226875 1.598125 -8.45375 2.19625 -8.6875 2.8125 C-10.33935661 5.56559434 -12.23852733 6.44224619 -15 8 C-16.14814997 10.29629994 -16.30769809 12.07698086 -16.5625 14.625 C-16.64628906 15.44226563 -16.73007813 16.25953125 -16.81640625 17.1015625 C-16.87699219 17.72804688 -16.93757813 18.35453125 -17 19 C-17.33 19 -17.66 19 -18 19 C-18.57404692 8.05058651 -18.57404692 8.05058651 -15 4 C-10.10330705 -0.31375332 -6.21023414 -0.49681873 0 0 Z " fill="#32ABE3" transform="translate(142,88)"/>
<path d="M0 0 C2.05078125 0.03255208 4.1015625 0.06510417 6.15234375 0.09765625 C6.15234375 0.75765625 6.15234375 1.41765625 6.15234375 2.09765625 C5.16234375 2.09765625 4.17234375 2.09765625 3.15234375 2.09765625 C3.15234375 3.74765625 3.15234375 5.39765625 3.15234375 7.09765625 C1.17234375 7.09765625 -0.80765625 7.09765625 -2.84765625 7.09765625 C-2.89019981 5.09810879 -2.88846408 3.09723989 -2.84765625 1.09765625 C-1.84765625 0.09765625 -1.84765625 0.09765625 0 0 Z " fill="#07CF81" transform="translate(114.84765625,116.90234375)"/>
<path d="M0 0 C0.66 0 1.32 0 2 0 C2.042721 1.66611905 2.04063832 3.33382885 2 5 C1.67 5.33 1.34 5.66 1 6 C0.56088174 10.16317891 0.2704896 13.8145456 2.5 17.4375 C2.995 17.953125 3.49 18.46875 4 19 C4 19.66 4 20.32 4 21 C3.34 21 2.68 21 2 21 C-1.60066376 15.59900436 -2.61809772 12.49002608 -2 6 C-1 2.5 -1 2.5 0 0 Z " fill="#B4452F" transform="translate(97,64)"/>
<path d="M0 0 C2.97 0 5.94 0 9 0 C6.11912454 2.40072955 3.43595166 4.47291037 0 6 C0 4.02 0 2.04 0 0 Z " fill="#050517" transform="translate(124,88)"/>
<path d="M0 0 C2.31 0.66 4.62 1.32 7 2 C4.93243723 4.7972908 3.85559629 5.02692273 0.3125 5.6875 C-0.780625 5.790625 -1.87375 5.89375 -3 6 C-2.01 4.02 -1.02 2.04 0 0 Z " fill="#16755C" transform="translate(102,114)"/>
<path d="M0 0 C2.47310494 3.70965741 2.55899802 6.69814567 2 11 C0.5 14.5 0.5 14.5 -1 17 C-1.93423645 13.98968256 -2.04449911 13.13349732 -1 10 C-0.34 10 0.32 10 1 10 C0.67 6.7 0.34 3.4 0 0 Z " fill="#2689B7" transform="translate(150,95)"/>
<path d="M0 0 C-2.02041177 3.03061766 -2.75685563 3.72239767 -6 5 C-6.99 5 -7.98 5 -9 5 C-6.81610567 0.16423399 -5.20641855 -0.13701101 0 0 Z " fill="#8F51D6" transform="translate(107,89)"/>
<path d="M0 0 C4.94520214 4.78567949 4.94520214 4.78567949 5.09765625 8.1640625 C5.08605469 8.97617188 5.07445312 9.78828125 5.0625 10.625 C5.05347656 11.44226563 5.04445312 12.25953125 5.03515625 13.1015625 C5.02355469 13.72804688 5.01195312 14.35453125 5 15 C4.67 15 4.34 15 4 15 C3.896875 13.96875 3.79375 12.9375 3.6875 11.875 C3.0068139 8.03840561 1.82222642 5.40677113 0 2 C0 1.34 0 0.68 0 0 Z " fill="#B15657" transform="translate(147,63)"/>
<path d="M0 0 C-0.33 0.66 -0.66 1.32 -1 2 C-0.34 2.66 0.32 3.32 1 4 C-1.6666419 5.33332095 -3.16680303 4.67102033 -6 4 C-6 2.68 -6 1.36 -6 0 C-2.25 -1.125 -2.25 -1.125 0 0 Z " fill="#246891" transform="translate(146,87)"/>
<path d="M0 0 C0.66 0 1.32 0 2 0 C1.67 1.98 1.34 3.96 1 6 C-0.32 6 -1.64 6 -3 6 C-3 5.34 -3 4.68 -3 4 C-2.34 4 -1.68 4 -1 4 C-0.67 2.68 -0.34 1.36 0 0 Z " fill="#D64B21" transform="translate(104,80)"/>
<path d="M0 0 C1.32 0.33 2.64 0.66 4 1 C4 1.99 4 2.98 4 4 C5.32 4.33 6.64 4.66 8 5 C7.67 5.66 7.34 6.32 7 7 C3.17053157 5.54744301 1.87949705 3.57104439 0 0 Z " fill="#2A9DD3" transform="translate(125,108)"/>
<path d="M0 0 C0.99 0.33 1.98 0.66 3 1 C2.625 3.4375 2.625 3.4375 2 6 C1.01 6.495 1.01 6.495 0 7 C0 4.69 0 2.38 0 0 Z " fill="#12BEFE" transform="translate(146,100)"/>
<path d="M0 0 C0.66 0.33 1.32 0.66 2 1 C1.74438677 3.3431213 1.40729228 5.67843403 1 8 C0.01 8.495 0.01 8.495 -1 9 C-0.67 6.03 -0.34 3.06 0 0 Z " fill="#E46F68" transform="translate(149,74)"/>
</svg>
