<?xml version="1.0" encoding="UTF-8"?>
<svg version="1.1" xmlns="http://www.w3.org/2000/svg" width="225" height="225">
<path d="M0 0 C0.96084503 0.00007553 1.92169006 0.00015106 2.91165161 0.00022888 C3.95127045 0.00539017 4.99088928 0.01055145 6.06201172 0.01586914 C7.12459198 0.01728409 8.18717224 0.01869904 9.2819519 0.02015686 C12.68522931 0.02576705 16.0884416 0.0383213 19.49169922 0.05102539 C21.79508369 0.05603908 24.09846918 0.06060221 26.40185547 0.06469727 C32.05684883 0.07489012 37.71170089 0.0944636 43.36669922 0.11352539 C43.36669922 9.02352539 43.36669922 17.93352539 43.36669922 27.11352539 C40.54107422 27.29915039 37.71544922 27.48477539 34.80419922 27.67602539 C33.92820068 27.73733643 33.05220215 27.79864746 32.1496582 27.86181641 C27.37641197 28.15020565 23.07404919 27.96653512 18.36669922 27.11352539 C18.36669922 27.77352539 18.36669922 28.43352539 18.36669922 29.11352539 C18.96611328 29.37520508 19.56552734 29.63688477 20.18310547 29.90649414 C22.51541505 31.19573146 23.64040667 32.36504099 25.30419922 34.42602539 C29.29544471 39.17000578 33.67306863 43.47501575 38.09887695 47.80810547 C39.53845622 49.22622047 40.95489681 50.66775481 42.36669922 52.11352539 C42.36669922 52.44352539 42.36669922 52.77352539 42.36669922 53.11352539 C33.78669922 53.44352539 25.20669922 53.77352539 16.36669922 54.11352539 C16.36669922 62.69352539 16.36669922 71.27352539 16.36669922 80.11352539 C14.05669922 78.13352539 11.74669922 76.15352539 9.36669922 74.11352539 C7.68200409 72.78609508 5.99593218 71.46040911 4.30810547 70.13696289 C-10.85932168 57.39854236 -10.85932168 57.39854236 -11.93408203 46.57446289 C-12.09468417 39.67771085 -11.51973672 32.94893139 -10.63330078 26.11352539 C-2.71330078 25.78352539 5.20669922 25.45352539 13.36669922 25.11352539 C11.98482422 23.89665039 10.60294922 22.67977539 9.17919922 21.42602539 C5.79855005 18.41513472 2.48442941 15.39978153 -0.63330078 12.11352539 C-1.17212891 11.54633789 -1.71095703 10.97915039 -2.26611328 10.39477539 C-2.82041016 9.78633789 -3.37470703 9.17790039 -3.94580078 8.55102539 C-4.45755859 7.99286133 -4.96931641 7.43469727 -5.49658203 6.85961914 C-6.63330078 5.11352539 -6.63330078 5.11352539 -6.63330078 1.11352539 C-4.21555497 -0.09534751 -2.69999014 -0.00706804 0 0 Z " fill="#06AAFA" transform="translate(96.63330078125,72.886474609375)"/>
<path d="M0 0 C0.96084503 0.00007553 1.92169006 0.00015106 2.91165161 0.00022888 C3.95127045 0.00539017 4.99088928 0.01055145 6.06201172 0.01586914 C7.12459198 0.01728409 8.18717224 0.01869904 9.2819519 0.02015686 C12.68522931 0.02576705 16.0884416 0.0383213 19.49169922 0.05102539 C21.79508369 0.05603908 24.09846918 0.06060221 26.40185547 0.06469727 C32.05684883 0.07489012 37.71170089 0.0944636 43.36669922 0.11352539 C43.36669922 9.02352539 43.36669922 17.93352539 43.36669922 27.11352539 C25.55268957 28.0456538 8.19102709 27.91965077 -9.63330078 27.11352539 C-9.63330078 36.02352539 -9.63330078 44.93352539 -9.63330078 54.11352539 C-9.96330078 54.11352539 -10.29330078 54.11352539 -10.63330078 54.11352539 C-10.63330078 44.87352539 -10.63330078 35.63352539 -10.63330078 26.11352539 C-2.71330078 25.78352539 5.20669922 25.45352539 13.36669922 25.11352539 C11.98482422 23.89665039 10.60294922 22.67977539 9.17919922 21.42602539 C5.79855005 18.41513472 2.48442941 15.39978153 -0.63330078 12.11352539 C-1.17212891 11.54633789 -1.71095703 10.97915039 -2.26611328 10.39477539 C-2.82041016 9.78633789 -3.37470703 9.17790039 -3.94580078 8.55102539 C-4.45755859 7.99286133 -4.96931641 7.43469727 -5.49658203 6.85961914 C-6.63330078 5.11352539 -6.63330078 5.11352539 -6.63330078 1.11352539 C-4.21555497 -0.09534751 -2.69999014 -0.00706804 0 0 Z " fill="#88DCFC" transform="translate(96.63330078125,72.886474609375)"/>
<path d="M0 0 C7.92 0 15.84 0 24 0 C24 8.91 24 17.82 24 27 C19.23570486 22.91631845 14.53926696 18.87945662 10 14.5625 C9.40316406 14.02818359 8.80632812 13.49386719 8.19140625 12.94335938 C6.53967752 11.35457181 5.18295285 9.96462732 4 8 C4.125 4.08984375 4.125 4.08984375 5 1 C3.35 1 1.7 1 0 1 C0 0.67 0 0.34 0 0 Z " fill="#0557F7" transform="translate(89,126)"/>
<path d="M0 0 C0.96084503 0.00007553 1.92169006 0.00015106 2.91165161 0.00022888 C3.95127045 0.00539017 4.99088928 0.01055145 6.06201172 0.01586914 C7.12459198 0.01728409 8.18717224 0.01869904 9.2819519 0.02015686 C12.68522931 0.02576705 16.0884416 0.0383213 19.49169922 0.05102539 C21.79508369 0.05603908 24.09846918 0.06060221 26.40185547 0.06469727 C32.05684883 0.07489012 37.71170089 0.0944636 43.36669922 0.11352539 C43.36669922 9.02352539 43.36669922 17.93352539 43.36669922 27.11352539 C39.00451172 27.42290039 39.00451172 27.42290039 34.55419922 27.73852539 C33.18557739 27.84414795 33.18557739 27.84414795 31.78930664 27.9519043 C31.06590088 27.99750488 30.34249512 28.04310547 29.59716797 28.09008789 C28.4895813 28.16864014 28.4895813 28.16864014 27.35961914 28.2487793 C25.36669922 28.11352539 25.36669922 28.11352539 22.36669922 26.11352539 C28.30669922 26.11352539 34.24669922 26.11352539 40.36669922 26.11352539 C40.3936939 23.03013335 40.41353582 19.9469782 40.42919922 16.86352539 C40.44176758 15.55448242 40.44176758 15.55448242 40.45458984 14.21899414 C40.4578125 13.3746582 40.46103516 12.53032227 40.46435547 11.66040039 C40.46959229 10.88535156 40.4748291 10.11030273 40.48022461 9.31176758 C40.42023479 6.78316404 40.42023479 6.78316404 39.36669922 3.11352539 C25.50669922 2.78352539 11.64669922 2.45352539 -2.63330078 2.11352539 C-2.63330078 4.09352539 -2.63330078 6.07352539 -2.63330078 8.11352539 C-4.63330078 6.86352539 -4.63330078 6.86352539 -6.63330078 5.11352539 C-6.63330078 3.79352539 -6.63330078 2.47352539 -6.63330078 1.11352539 C-4.21555497 -0.09534751 -2.69999014 -0.00706804 0 0 Z " fill="#A9E0F3" transform="translate(96.63330078125,72.886474609375)"/>
<path d="M0 0 C8.91 0 17.82 0 27 0 C27.33 0.66 27.66 1.32 28 2 C19.09 1.67 10.18 1.34 1 1 C1.33 9.25 1.66 17.5 2 26 C3.65 26.33 5.3 26.66 7 27 C7 28.65 7 30.3 7 32 C4 32 4 32 1.83691406 30.40722656 C-0.56897753 27.25437022 -0.46218091 25.41994999 -0.390625 21.484375 C-0.37773438 20.23398438 -0.36484375 18.98359375 -0.3515625 17.6953125 C-0.31804687 16.39335938 -0.28453125 15.09140625 -0.25 13.75 C-0.23195313 12.43257812 -0.21390625 11.11515625 -0.1953125 9.7578125 C-0.14816882 6.50489844 -0.07642616 3.25235783 0 0 Z " fill="#219EDD" transform="translate(87,100)"/>
<path d="M0 0 C0.33 0 0.66 0 1 0 C1 8.91 1 17.82 1 27 C-3.36670004 23.25711426 -7.43141441 19.68596348 -11.4375 15.625 C-12.30246094 14.75101563 -13.16742188 13.87703125 -14.05859375 12.9765625 C-14.69925781 12.32429687 -15.33992188 11.67203125 -16 11 C-14 10 -14 10 -11.5625 10.625 C-8.41231324 12.31534411 -7.72487901 13.90959177 -6 17 C-4.35 18.65 -2.7 20.3 -1 22 C-0.67 14.74 -0.34 7.48 0 0 Z " fill="#4C7ACC" transform="translate(112,126)"/>
<path d="M0 0 C1.32 0 2.64 0 4 0 C4 0.99 4 1.98 4 3 C5.65 3 7.3 3 9 3 C5.47695602 5.19628061 2.79929743 5.16977818 -1.296875 4.9765625 C-2.38323242 4.93096191 -3.46958984 4.88536133 -4.58886719 4.83837891 C-6.64862793 4.73275635 -6.64862793 4.73275635 -8.75 4.625 C-15.30875 4.315625 -15.30875 4.315625 -22 4 C-22 12.91 -22 21.82 -22 31 C-22.33 31 -22.66 31 -23 31 C-23 21.76 -23 12.52 -23 3 C-15.08 2.67 -7.16 2.34 1 2 C0.67 1.34 0.34 0.68 0 0 Z " fill="#9EE1FC" transform="translate(109,96)"/>
<path d="M0 0 C2.9719385 1.12451727 5.33440687 2.22293791 8 4 C8 4.66 8 5.32 8 6 C8.66 6 9.32 6 10 6 C12.61046448 8.84777943 14.42676569 11.13066838 15 15 C13 15 13 15 10.6875 12.8125 C9.800625 11.884375 8.91375 10.95625 8 10 C7.13375 9.175 6.2675 8.35 5.375 7.5 C3.11967172 5.12597023 1.55641405 2.86707851 0 0 Z " fill="#B5E5F4" transform="translate(94,81)"/>
<path d="M0 0 C4.13621084 3.3810038 7.81316569 6.66590534 11 11 C8.625 10.8125 8.625 10.8125 6 10 C4.875 7.5 4.875 7.5 4 5 C3.01 4.67 2.02 4.34 1 4 C0.3125 1.9375 0.3125 1.9375 0 0 Z " fill="#38ACE5" transform="translate(119,106)"/>
<path d="M0 0 C3.375 0.6875 3.375 0.6875 7 2 C8.4375 4.625 8.4375 4.625 9 7 C6 7 6 7 4.39453125 5.46875 C3.87246094 4.8190625 3.35039063 4.169375 2.8125 3.5 C2.28269531 2.8503125 1.75289063 2.200625 1.20703125 1.53125 C0.80871094 1.0259375 0.41039063 0.520625 0 0 Z " fill="#5086E1" transform="translate(96,136)"/>
<path d="M0 0 C1.32 0 2.64 0 4 0 C4 1.65 4 3.3 4 5 C3.01 5 2.02 5 1 5 C0.34 3.68 -0.32 2.36 -1 1 C-0.67 0.67 -0.34 0.34 0 0 Z " fill="#2F71E7" transform="translate(90,127)"/>
<path d="M0 0 C0.33 0 0.66 0 1 0 C1.16820551 1.93736701 1.33451095 3.87489906 1.5 5.8125 C1.5928125 6.89144531 1.685625 7.97039062 1.78125 9.08203125 C2 12 2 12 2 15 C1.34 14.67 0.68 14.34 0 14 C0 9.38 0 4.76 0 0 Z " fill="#2B99DA" transform="translate(87,114)"/>
</svg>
