<?xml version="1.0" encoding="UTF-8"?>
<svg version="1.1" xmlns="http://www.w3.org/2000/svg" width="500" height="500">
<path d="M0 0 C85.8 0 171.6 0 260 0 C259 38 259 38 258 51 C257.81200942 54.90586336 257.64095397 58.80751574 257.5 62.71484375 C257.45939453 63.77304825 257.41878906 64.83125275 257.37695312 65.92152405 C257.24893878 69.26009816 257.12407824 72.59877745 257 75.9375 C256.06456599 101.06815391 256.06456599 101.06815391 255.21875 111.88452148 C254.73493481 118.7751082 254.60105783 125.68454862 254.39453125 132.58789062 C254.33845703 134.32522461 254.33845703 134.32522461 254.28125 136.09765625 C254.25095703 137.11351807 254.22066406 138.12937988 254.18945312 139.17602539 C254.02764534 142.44199867 253.79166609 145.68514105 253.52734375 148.94384766 C252.98391044 155.84469489 252.65401485 162.74860247 252.36924744 169.66396523 C252.27854706 171.86641599 252.18504601 174.06873403 252.09094238 176.27104187 C251.92509785 180.16255204 251.76160895 184.05415679 251.59893799 187.94580078 C251.33916509 194.15983768 251.0773321 200.37378373 250.81248474 206.58760643 C250.72195094 208.72520377 250.63340938 210.86287667 250.54504395 213.00056458 C250.25630068 219.88272124 249.92428433 226.76125804 249.51757812 233.63745117 C249.44285278 234.90666916 249.36812744 236.17588715 249.2911377 237.48356628 C249.023188 240.71992955 248.70263898 243.82897428 248 247 C246.16503906 248.41210938 246.16503906 248.41210938 243.765625 249.34375 C242.88777344 249.69985352 242.00992188 250.05595703 241.10546875 250.42285156 C240.16316406 250.77831055 239.22085938 251.13376953 238.25 251.5 C236.31712264 252.27458174 234.38482865 253.0506208 232.453125 253.828125 C231.04256836 254.3840332 231.04256836 254.3840332 229.60351562 254.95117188 C226.33666189 256.26722623 223.17767654 257.73160284 220 259.25 C214.83651804 261.67204566 209.58815918 263.71694031 204.25 265.71875 C200.93278897 267.02649666 197.72521946 268.48042545 194.5 270 C189.11513487 272.53672562 183.65971175 274.70403518 178.08984375 276.796875 C175.31517376 277.87727747 172.63329668 279.05081669 169.9375 280.3125 C163.84524593 283.14839507 157.60480192 285.58783695 151.35009766 288.03808594 C145.93148627 290.17445602 140.69664663 292.48152295 135.58203125 295.28515625 C126.58124936 297.77705199 117.72495528 292.73679056 109.625 289.25 C108.36241968 288.71770392 107.09940055 288.18644742 105.8359375 287.65625 C100.23496081 285.29555295 94.66892807 282.86707123 89.14453125 280.33203125 C84.5067378 278.20559529 79.81588674 276.28784571 75.0625 274.4375 C65.52306924 270.67290411 56.10013843 266.65626363 46.68847656 262.58398438 C40.78516105 260.03390721 34.87179728 257.52429387 28.91015625 255.11328125 C27.79801758 254.66130371 26.68587891 254.20932617 25.54003906 253.74365234 C23.42982833 252.88967145 21.31600215 252.04455674 19.19824219 251.20947266 C18.26270508 250.82968262 17.32716797 250.44989258 16.36328125 250.05859375 C15.54126221 249.73173584 14.71924316 249.40487793 13.87231445 249.06811523 C12 248 12 248 11 245 C9.94737461 236.27214668 9.67871547 227.44049389 9.28125 218.6640625 C9.21795248 217.29575979 9.15451312 215.92746363 9.09094238 214.55917358 C8.95845234 211.69673908 8.8275187 208.834239 8.69775391 205.97167969 C8.5358463 202.40221209 8.37032299 198.83292397 8.20365906 195.26367569 C7.65145967 183.41200515 7.10172521 171.56069294 6.71875 159.70214844 C6.69703987 159.02997221 6.67532974 158.35779598 6.65296173 157.66525078 C6.552255 154.50586082 6.45664356 151.34640198 6.36706543 148.18667603 C6.15669858 141.18937045 5.77327093 134.2269706 5.22973633 127.24737549 C4.75222308 120.49761665 4.60391596 113.73110074 4.39453125 106.96875 C4.21685526 101.66297723 3.977659 96.38942453 3.5 91.1015625 C2.76057798 82.79401912 2.62182481 74.46690988 2.39453125 66.1328125 C2.35714844 64.87210937 2.31976563 63.61140625 2.28125 62.3125 C2.25095703 61.19488281 2.22066406 60.07726562 2.18945312 58.92578125 C1.93285235 53.60858993 1.44208259 48.30499109 1 43 C0.67 28.81 0.34 14.62 0 0 Z M52 50 C51.99723765 58.45938219 51.99723765 58.45938219 52.40234375 66.85546875 C52.48806641 68.05494141 52.57378906 69.25441406 52.66210938 70.49023438 C52.79842773 72.32038086 52.79842773 72.32038086 52.9375 74.1875 C53.02451172 75.41919922 53.11152344 76.65089844 53.20117188 77.91992188 C53.67687949 84.61921368 53.67687949 84.61921368 54.49072266 91.28295898 C55.11325716 95.82662526 55.40652163 100.35394222 55.68359375 104.9296875 C55.80785071 106.8802142 55.93220283 108.83073483 56.05664062 110.78125 C56.24683855 113.81272726 56.43560825 116.84428221 56.62231445 119.87597656 C56.80540692 122.83164679 56.9942589 125.78691142 57.18359375 128.7421875 C57.23575546 129.61680634 57.28791718 130.49142517 57.34165955 131.39254761 C57.8978857 139.99895771 58.98695744 148.38913825 60 157 C95.64 157 131.28 157 168 157 C165 187 165 187 164 192 C162.31689453 193.23852539 162.31689453 193.23852539 160.1328125 194.09765625 C159.33464111 194.4225 158.53646973 194.74734375 157.71411133 195.08203125 C156.43250122 195.56736328 156.43250122 195.56736328 155.125 196.0625 C154.25963623 196.40539062 153.39427246 196.74828125 152.50268555 197.1015625 C150.78348727 197.77874928 149.06078169 198.44710821 147.33447266 199.10595703 C145.40414983 199.84522101 143.48718824 200.61926958 141.57421875 201.40234375 C132.0826307 205.17481368 125.52153186 204.25067296 116.1875 200.6875 C114.42682064 200.04143119 112.66510543 199.398178 110.90234375 198.7578125 C110.06171387 198.45133789 109.22108398 198.14486328 108.35498047 197.82910156 C103.966975 196.28424705 99.50990544 195.12747636 95 194 C94.01 190.04 93.02 186.08 92 182 C82.43 182 72.86 182 63 182 C63 189.14493107 63.26982165 196.08063588 63.875 203.1875 C63.93429688 204.34958984 63.99359375 205.51167969 64.0546875 206.70898438 C64.50346053 212.85960508 64.50346053 212.85960508 67.88525391 217.72143555 C70.53811161 219.09381771 73.16710393 220.05378044 76 221 C78.18199328 221.88889206 80.36157224 222.78372713 82.5390625 223.68359375 C84.89906427 224.6066343 87.26111372 225.52445353 89.625 226.4375 C90.87146284 226.92285632 92.11779981 227.40853601 93.36401367 227.89453125 C101.15220702 230.92205142 108.95718986 233.90028922 116.80078125 236.78125 C120 238 120 238 123.54296875 239.65625 C128.21334177 241.47162663 131.37475449 241.56441474 136.12768555 239.91381836 C137.77184448 239.16563843 137.77184448 239.16563843 139.44921875 238.40234375 C140.6892676 237.84744261 141.92933998 237.29259406 143.16943359 236.73779297 C143.80250427 236.44974792 144.43557495 236.16170288 145.08782959 235.8649292 C148.15335319 234.47830547 151.24358165 233.15120625 154.33203125 231.81640625 C155.56762284 231.27941764 156.80305465 230.74206122 158.03833008 230.2043457 C158.65608307 229.93562653 159.27383606 229.66690735 159.91030884 229.39004517 C161.19924965 228.82929357 162.4881271 228.26839633 163.77694702 227.70736694 C172.26482785 224.01496836 180.76315173 220.35857164 189.3918457 217.00415039 C192.86034244 215.79540738 192.86034244 215.79540738 195 213 C195.28500967 210.31646984 195.52029525 207.64720539 195.71875 204.95703125 C195.78155151 204.1552092 195.84435303 203.35338715 195.90905762 202.52726746 C196.10997788 199.95596575 196.30536806 197.38428476 196.5 194.8125 C196.6952834 192.25862707 196.89180616 189.70486639 197.09094238 187.15129089 C197.21467916 185.56204917 197.33614206 183.9726282 197.45495605 182.38301086 C197.71016286 179.08368411 198.02332179 175.83892065 198.49780273 172.56176758 C199.11974617 168.15071618 199.44408246 163.74698315 199.75390625 159.3046875 C199.81907944 158.39421661 199.88425262 157.48374573 199.95140076 156.54568481 C200.08785881 154.63129033 200.22309705 152.71680855 200.35717773 150.80224609 C200.56235697 147.87703914 200.77210227 144.95218513 200.98242188 142.02734375 C201.11485439 140.16147755 201.24702485 138.29559273 201.37890625 136.4296875 C201.44139053 135.55875458 201.50387482 134.68782166 201.56825256 133.79049683 C201.62508713 132.97259674 201.68192169 132.15469666 201.74047852 131.31201172 C201.79075699 130.59810272 201.84103546 129.88419373 201.89283752 129.14865112 C202.01154799 126.76845815 202 124.38315143 202 122 C164.38 122 126.76 122 88 122 C87.34 110.12 86.68 98.24 86 86 C114.09600077 85.18856315 142.14601092 84.90930084 170.25 84.9375 C171.10917149 84.93835602 171.96834297 84.93921204 172.85354996 84.94009399 C183.56905432 84.95155673 194.28452701 84.97173662 205 85 C206.01808245 81.94575265 206.29215662 79.43332851 206.53515625 76.23046875 C206.66567383 74.52600586 206.66567383 74.52600586 206.79882812 72.78710938 C206.9293457 71.00530273 206.9293457 71.00530273 207.0625 69.1875 C207.15337891 68.01123047 207.24425781 66.83496094 207.33789062 65.62304688 C207.73196515 60.38155936 208 55.26464021 208 50 C156.52 50 105.04 50 52 50 Z " fill="#E44D25" transform="translate(118,141)"/>
<path d="M0 0 C33.66 0 67.32 0 102 0 C102 8.81489326 101.98987098 17.55317983 101.6328125 26.34765625 C101.57442703 27.85816307 101.57442703 27.85816307 101.51486206 29.39918518 C101.38868003 32.62045353 101.25735345 35.8414797 101.125 39.0625 C101.08020508 40.17381287 101.03541016 41.28512573 100.98925781 42.43011475 C100.42616417 56.32400121 99.7503694 70.19316164 98.75268555 84.06323242 C98.0196389 94.32804359 97.45286207 104.59731467 96.9375 114.875 C96.89463867 115.72919525 96.85177734 116.5833905 96.80761719 117.46347046 C96.18251669 130.06166127 95.73747936 142.65636462 95.39648438 155.26513672 C94.961854 170.19697765 93.99136366 185.09635528 93 200 C84.57645413 203.70935332 76.1456683 207.38416355 67.63671875 210.89453125 C65.36126919 211.84853455 63.11756401 212.84697743 60.875 213.875 C56.36055375 215.90979603 51.7459207 217.66280199 47.125 219.4375 C41.29609618 221.67870376 35.57573017 224.03062711 29.91796875 226.6796875 C24.01403052 229.35108124 17.98622449 231.74005598 11.98242188 234.17675781 C10.02916639 234.98788805 8.10223863 235.84703395 6.171875 236.7109375 C3 238 3 238 0 238 C-0.495 225.625 -0.495 225.625 -1 213 C1.2275 212.195625 3.455 211.39125 5.75 210.5625 C12.12128798 208.20803755 18.32447893 205.57572936 24.5 202.75 C32.25971015 199.20311899 40.06877557 195.79848164 47.9375 192.5 C48.96230469 192.06655273 49.98710937 191.63310547 51.04296875 191.18652344 C52.0071875 190.7846582 52.97140625 190.38279297 53.96484375 189.96875 C54.8168335 189.61232422 55.66882324 189.25589844 56.54663086 188.88867188 C59.02013434 187.99270684 61.41086808 187.44661152 64 187 C64.08564209 185.85523193 64.17128418 184.71046387 64.25952148 183.53100586 C64.57958412 179.26113157 64.90274116 174.99149603 65.22680664 170.72192383 C65.36631578 168.87823699 65.5049992 167.03448747 65.64282227 165.19067383 C65.84171033 162.53189228 66.04362175 159.87335449 66.24609375 157.21484375 C66.3065538 156.39789536 66.36701385 155.58094696 66.42930603 154.73924255 C66.6929059 151.31045282 67.0093528 147.93537611 67.50219727 144.5300293 C68.12280115 140.1291899 68.42562212 135.73760301 68.71875 131.3046875 C68.84763284 129.4361963 68.97653981 127.56770677 69.10546875 125.69921875 C69.30385587 122.77854686 69.50115741 119.85780467 69.69775391 116.93701172 C69.88954695 114.10104462 70.08524159 111.2653659 70.28125 108.4296875 C70.338573 107.55875458 70.395896 106.68782166 70.45495605 105.79049683 C70.51171509 104.97259674 70.56847412 104.15469666 70.62695312 103.31201172 C70.67501099 102.59810272 70.72306885 101.88419373 70.77258301 101.14865112 C71.02706079 98.74432782 71.52583963 96.37080185 72 94 C34.38 94 -3.24 94 -42 94 C-43.51787276 90.96425448 -43.37953775 87.74131632 -43.5703125 84.40234375 C-43.63833572 83.27814781 -43.63833572 83.27814781 -43.70773315 82.13124084 C-43.8023066 80.54685201 -43.89462429 78.96232716 -43.98486328 77.37768555 C-44.12466333 74.94336247 -44.2747695 72.50982217 -44.42578125 70.07617188 C-44.51624852 68.53909907 -44.60611292 67.00199064 -44.6953125 65.46484375 C-44.74108429 64.73257065 -44.78685608 64.00029755 -44.83401489 63.24583435 C-44.92959994 61.49896093 -44.97039939 59.74923613 -45 58 C-43.0369529 56.0369529 -39.24864194 56.74341188 -36.5625 56.68359375 C-35.7634726 56.66272202 -34.96444519 56.64185028 -34.14120483 56.62034607 C-31.42758224 56.55275533 -28.71386822 56.49433769 -26 56.4375 C-25.06214661 56.41665344 -24.12429321 56.39580688 -23.15802002 56.37432861 C-4.62620699 55.97280148 13.90592262 55.89084769 32.44134521 55.87706375 C34.6178016 55.8750068 36.7942497 55.87124699 38.97070312 55.86715698 C43.09767677 55.86013314 47.22458484 55.86289243 51.3515625 55.8671875 C53.19761581 55.86421913 53.19761581 55.86421913 55.08096313 55.8611908 C61.78309626 55.87914081 68.34772152 56.16604297 75 57 C75.02223633 56.37851074 75.04447266 55.75702148 75.06738281 55.11669922 C75.16168927 52.53577014 75.26866234 49.95546047 75.375 47.375 C75.4059375 46.49070313 75.436875 45.60640625 75.46875 44.6953125 C75.8010504 36.94163644 76.88598506 29.79810456 78 22 C26.52 22 -24.96 22 -78 22 C-78 21.67 -78 21.34 -78 21 C-52.26 21 -26.52 21 0 21 C0 14.07 0 7.14 0 0 Z " fill="#F3854B" transform="translate(248,169)"/>
<path d="M0 0 C7.92 0 15.84 0 24 0 C24.598125 2.59875 25.19625 5.1975 25.8125 7.875 C27.31404572 14.32615388 28.95537116 20.69572773 31 27 C34.1227547 18.12480243 36.51390101 9.07090173 39 0 C46.92 0 54.84 0 63 0 C63 18.48 63 36.96 63 56 C54 57 54 57 47 55 C46.67 46.09 46.34 37.18 46 28 C45.57589844 29.92585938 45.15179688 31.85171875 44.71484375 33.8359375 C44.12400715 36.34933766 43.53147084 38.86233869 42.9375 41.375 C42.52467773 43.28152344 42.52467773 43.28152344 42.10351562 45.2265625 C41.27738579 48.64002203 40.42908901 51.79136734 39 55 C34.05612912 57.91515852 29.4524348 56.95656751 24 56 C23.22534575 53.27186982 22.45526359 50.54257053 21.6875 47.8125 C21.36749023 46.68811523 21.36749023 46.68811523 21.04101562 45.54101562 C19.12959959 38.72268083 17.59822906 31.92565926 16 25 C15.67 35.23 15.34 45.46 15 56 C5 57 5 57 0 56 C0 37.52 0 19.04 0 0 Z " fill="#E15028" transform="translate(253,63)"/>
<path d="M0 0 C5.94 0 11.88 0 18 0 C19 1 19 1 19.09765625 4.81640625 C19.09098089 6.39846682 19.07901875 7.98051159 19.0625 9.5625 C19.05798828 10.36880859 19.05347656 11.17511719 19.04882812 12.00585938 C19.03700518 14.00393756 19.01906914 16.00197783 19 18 C24.28 18.33 29.56 18.66 35 19 C35 12.73 35 6.46 35 0 C41.27 0 47.54 0 54 0 C54 18.48 54 36.96 54 56 C47.73 56 41.46 56 35 56 C35 48.74 35 41.48 35 34 C29.72 34 24.44 34 19 34 C19.01160156 35.50433594 19.02320313 37.00867188 19.03515625 38.55859375 C19.04453249 40.51822793 19.05363287 42.47786345 19.0625 44.4375 C19.07087891 45.43072266 19.07925781 46.42394531 19.08789062 47.44726562 C19.09272461 48.86362305 19.09272461 48.86362305 19.09765625 50.30859375 C19.10551147 51.62041626 19.10551147 51.62041626 19.11352539 52.95874023 C19 55 19 55 18 56 C4.90909091 58.45454545 4.90909091 58.45454545 0 56 C0 37.52 0 19.04 0 0 Z " fill="#E34D24" transform="translate(118,63)"/>
<path d="M0 0 C35.64 0 71.28 0 108 0 C108 7.72704691 107.81657169 15.14606379 107.125 22.8125 C107.03605469 24.47055664 107.03605469 24.47055664 106.9453125 26.16210938 C106.19038069 33.97093531 106.19038069 33.97093531 103.00927734 36.72094727 C100.38662901 38.06637878 97.79002766 39.0523385 95 40 C93.23476528 40.74084056 91.47171377 41.48690566 89.7109375 42.23828125 C87.93440116 42.93508986 86.15573772 43.62649943 84.375 44.3125 C83.48554688 44.67150391 82.59609375 45.03050781 81.6796875 45.40039062 C71.66847953 49.26501135 65.42663791 48.23691747 55.5 44.5 C54.5821875 44.16613281 53.664375 43.83226562 52.71875 43.48828125 C50.47472914 42.67014864 48.2356748 41.84061372 46 41 C48.84894355 40.24602135 51.29765254 39.88829421 54.25 39.9375 C56.10625 39.9684375 56.10625 39.9684375 58 40 C58.33 40.99 58.66 41.98 59 43 C61.64 43 64.28 43 67 43 C69.21057519 38.5439458 69.34242644 34.29455534 69.4140625 29.41796875 C69.43170654 28.69565063 69.44935059 27.97333252 69.4675293 27.22912598 C69.53026472 24.54880419 69.5766799 21.86812041 69.625 19.1875 C69.74875 13.185625 69.8725 7.18375 70 1 C46.9 1 23.8 1 0 1 C0 0.67 0 0.34 0 0 Z " fill="#F1834A" transform="translate(178,298)"/>
<path d="M0 0 C0 4.62 0 9.24 0 14 C-8.415 14.495 -8.415 14.495 -17 15 C-17.33 28.53 -17.66 42.06 -18 56 C-23.94 56 -29.88 56 -36 56 C-36 42.14 -36 28.28 -36 14 C-41.61 14 -47.22 14 -53 14 C-53 9.38 -53 4.76 -53 0 C-35.3968721 -1.48236867 -17.59071792 -1.78133852 0 0 Z " fill="#E24D26" transform="translate(239,63)"/>
<path d="M0 0 C5.94 0 11.88 0 18 0 C18.16664094 4.55314333 18.32930552 9.10608878 18.48217773 13.65966797 C18.53523708 15.20564631 18.59053336 16.75154969 18.64819336 18.29736328 C18.73112283 20.53141108 18.80575074 22.76561325 18.87890625 25 C18.90594131 25.68054443 18.93297638 26.36108887 18.96083069 27.06225586 C19.10892422 31.92652164 18.6186015 36.05118796 18 41 C26.91 41 35.82 41 45 41 C46.125 51.125 46.125 51.125 45 56 C40.07447762 56.98373682 35.38727855 57.14591254 30.390625 57.1328125 C29.17859406 57.13424759 29.17859406 57.13424759 27.94207764 57.13571167 C26.24442466 57.13638901 24.54676903 57.134566 22.84912109 57.13037109 C20.24440769 57.12498844 17.63986453 57.13034548 15.03515625 57.13671875 C13.38281212 57.13605844 11.73046809 57.13477824 10.078125 57.1328125 C9.29794006 57.13483673 8.51775513 57.13686096 7.71392822 57.13894653 C2.22995868 57.11497934 2.22995868 57.11497934 0 56 C0 37.52 0 19.04 0 0 Z " fill="#E34D24" transform="translate(333,63)"/>
<path d="M0 0 C14.19 0 28.38 0 43 0 C43 11.22 43 22.44 43 34 C37.48221536 34.04585417 31.96508884 34.08569622 26.44726562 34.10986328 C24.56931318 34.11993534 22.69137647 34.13359362 20.81347656 34.15087891 C18.1177991 34.17507453 15.42232854 34.18647083 12.7265625 34.1953125 C11.88380768 34.20563507 11.04105286 34.21595764 10.17276001 34.22659302 C8.11378753 34.22699144 6.05532065 34.12257588 4 34 C1.48942309 31.48942309 1.71832992 30.56627115 1.62109375 27.08984375 C1.58693359 26.09919922 1.55277344 25.10855469 1.51757812 24.08789062 C1.49115234 23.04826172 1.46472656 22.00863281 1.4375 20.9375 C1.37668889 18.90485623 1.31292495 16.87229849 1.24609375 14.83984375 C1.22216553 13.93613037 1.1982373 13.03241699 1.17358398 12.10131836 C0.94710481 8.05495415 0.44754556 4.02791002 0 0 Z " fill="#E54C24" transform="translate(205,227)"/>
<path d="M0 0 C85.8 0 171.6 0 260 0 C259 38 259 38 258 51 C257.80064848 55.06975227 257.61787053 59.13573607 257.46484375 63.20703125 C257.40037804 64.84414314 257.40037804 64.84414314 257.33460999 66.514328 C257.19995772 69.94696756 257.06866575 73.37972564 256.9375 76.8125 C256.84592697 79.16211811 256.75413199 81.51172758 256.66210938 83.86132812 C256.43884546 89.57412159 256.21832846 95.28701589 256 101 C255.67 101 255.34 101 255 101 C254.97685467 93.21151879 254.95907371 85.4230456 254.94818783 77.63453865 C254.94296381 74.01822828 254.93587485 70.40194139 254.92456055 66.78564453 C254.91371462 63.29731896 254.90771953 59.80901602 254.90512276 56.3206749 C254.90236919 54.33862308 254.8945599 52.3565804 254.88670349 50.37454224 C254.88662796 49.17344818 254.88655243 47.97235413 254.88647461 46.73486328 C254.884254 45.67341095 254.88203339 44.61195862 254.87974548 43.51834106 C255 41 255 41 256 39 C256 27.12 256 15.24 256 3 C172.18 2.67 88.36 2.34 2 2 C2 15.53 2 29.06 2 43 C1.67 43 1.34 43 1 43 C0.67 28.81 0.34 14.62 0 0 Z " fill="#C5502F" transform="translate(118,141)"/>
<path d="M0 0 C5.94 0 11.88 0 18 0 C19 1 19 1 19.09765625 4.81640625 C19.09098089 6.39846682 19.07901875 7.98051159 19.0625 9.5625 C19.05798828 10.36880859 19.05347656 11.17511719 19.04882812 12.00585938 C19.03700518 14.00393756 19.01906914 16.00197783 19 18 C24.28 18.33 29.56 18.66 35 19 C35 12.73 35 6.46 35 0 C41.27 0 47.54 0 54 0 C54 18.48 54 36.96 54 56 C47.73 56 41.46 56 35 56 C35 48.74 35 41.48 35 34 C29.72 34 24.44 34 19 34 C19.01160156 35.50433594 19.02320313 37.00867188 19.03515625 38.55859375 C19.04453249 40.51822793 19.05363287 42.47786345 19.0625 44.4375 C19.07087891 45.43072266 19.07925781 46.42394531 19.08789062 47.44726562 C19.09272461 48.86362305 19.09272461 48.86362305 19.09765625 50.30859375 C19.10551147 51.62041626 19.10551147 51.62041626 19.11352539 52.95874023 C19 55 19 55 18 56 C4.90909091 58.45454545 4.90909091 58.45454545 0 56 C0 37.52 0 19.04 0 0 Z M2 2 C1.04749472 7.62286909 0.8392922 13.06844383 0.83203125 18.765625 C0.82870285 19.68083923 0.82537445 20.59605347 0.82194519 21.53900146 C0.81690705 23.46186829 0.8145359 25.38474377 0.81469727 27.30761719 C0.81249649 30.25470116 0.7942692 33.20141892 0.77539062 36.1484375 C0.77245894 38.02083206 0.77047264 39.89322838 0.76953125 41.765625 C0.76234573 42.64688049 0.75516022 43.52813599 0.74775696 44.43609619 C0.75083359 45.25414734 0.75391022 46.07219849 0.75708008 46.91503906 C0.75565506 47.63338928 0.75423004 48.3517395 0.75276184 49.09185791 C0.89933403 51.3291199 0.89933403 51.3291199 3 54 C6.35503476 54.36558117 6.35503476 54.36558117 10.125 54.1875 C12.39375 54.125625 14.6625 54.06375 17 54 C17 47.07 17 40.14 17 33 C23.6 33 30.2 33 37 33 C37 39.93 37 46.86 37 54 C41.62 54 46.24 54 51 54 C51 36.84 51 19.68 51 2 C46.38 2 41.76 2 37 2 C37 7.94 37 13.88 37 20 C30.4 20 23.8 20 17 20 C16.67 14.06 16.34 8.12 16 2 C11.38 2 6.76 2 2 2 Z " fill="#CF674F" transform="translate(118,63)"/>
<path d="M0 0 C85.8 0 171.6 0 260 0 C259.67 12.54 259.34 25.08 259 38 C258.67 38 258.34 38 258 38 C258 25.79 258 13.58 258 1 C173.85 1.33 89.7 1.66 3 2 C2.67 15.53 2.34 29.06 2 43 C1.67 43 1.34 43 1 43 C0.67 28.81 0.34 14.62 0 0 Z " fill="#C37D66" transform="translate(118,141)"/>
<path d="M0 0 C7.92 0 15.84 0 24 0 C24.639375 2.701875 25.27875 5.40375 25.9375 8.1875 C26.13722412 9.02949951 26.33694824 9.87149902 26.54272461 10.73901367 C27.42585835 14.48198805 28.28059162 18.2212128 29 22 C28.01 22 27.02 22 26 22 C25.96261719 21.43152344 25.92523438 20.86304687 25.88671875 20.27734375 C25.54763776 16.29480426 25.12091556 12.84019413 23.4375 9.1875 C22 6 22 6 22 2 C15.4 2 8.8 2 2 2 C2 19.16 2 36.32 2 54 C5.63 54 9.26 54 13 54 C13 41.79 13 29.58 13 17 C13.99 17.33 14.98 17.66 16 18 C15.67 30.54 15.34 43.08 15 56 C5 57 5 57 0 56 C0 37.52 0 19.04 0 0 Z " fill="#CC6A53" transform="translate(253,63)"/>
<path d="M0 0 C0 4.62 0 9.24 0 14 C-8.415 14.495 -8.415 14.495 -17 15 C-17.33 28.53 -17.66 42.06 -18 56 C-23.94 56 -29.88 56 -36 56 C-36 42.14 -36 28.28 -36 14 C-41.61 14 -47.22 14 -53 14 C-53 9.38 -53 4.76 -53 0 C-35.3968721 -1.48236867 -17.59071792 -1.78133852 0 0 Z M-52 1 C-52 4.96 -52 8.92 -52 13 C-46.06 13 -40.12 13 -34 13 C-34.01160156 15.94808594 -34.02320313 18.89617187 -34.03515625 21.93359375 C-34.04294616 24.77644747 -34.0490233 27.61930002 -34.05493164 30.4621582 C-34.05997267 32.44393441 -34.06680538 34.42570689 -34.07543945 36.4074707 C-34.08751515 39.24952109 -34.09323045 42.09152247 -34.09765625 44.93359375 C-34.10281754 45.82525742 -34.10797882 46.71692108 -34.11329651 47.63560486 C-34.11349177 49.75740601 -34.0621003 51.8791078 -34 54 C-33.505 54.495 -33.505 54.495 -33 55 C-28.38 55 -23.76 55 -19 55 C-18.67 41.47 -18.34 27.94 -18 14 C-10.08 13.505 -10.08 13.505 -2 13 C-2 9.04 -2 5.08 -2 1 C-18.5 1 -35 1 -52 1 Z " fill="#CD7D68" transform="translate(239,63)"/>
<path d="M0 0 C0.33 0 0.66 0 1 0 C1 18.15 1 36.3 1 55 C1.33 54.34 1.66 53.68 2 53 C22.295 53.495 22.295 53.495 43 54 C43 50.37 43 46.74 43 43 C40.43605469 43.01740234 40.43605469 43.01740234 37.8203125 43.03515625 C35.58854275 43.04453343 33.35677183 43.05363371 31.125 43.0625 C29.43310547 43.07506836 29.43310547 43.07506836 27.70703125 43.08789062 C26.63066406 43.09111328 25.55429687 43.09433594 24.4453125 43.09765625 C23.45031738 43.10289307 22.45532227 43.10812988 21.43017578 43.11352539 C19 43 19 43 17 42 C17 34.74 17 27.48 17 20 C19 22 19 22 19.23046875 24.3203125 C19.20919922 25.70863281 19.20919922 25.70863281 19.1875 27.125 C19.18105469 28.03507812 19.17460937 28.94515625 19.16796875 29.8828125 C18.96747848 33.60353886 18.46216882 37.30264947 18 41 C26.91 41 35.82 41 45 41 C46.125 51.125 46.125 51.125 45 56 C40.07447762 56.98373682 35.38727855 57.14591254 30.390625 57.1328125 C29.17859406 57.13424759 29.17859406 57.13424759 27.94207764 57.13571167 C26.24442466 57.13638901 24.54676903 57.134566 22.84912109 57.13037109 C20.24440769 57.12498844 17.63986453 57.13034548 15.03515625 57.13671875 C13.38281212 57.13605844 11.73046809 57.13477824 10.078125 57.1328125 C9.29794006 57.13483673 8.51775513 57.13686096 7.71392822 57.13894653 C2.22995868 57.11497934 2.22995868 57.11497934 0 56 C0 37.52 0 19.04 0 0 Z " fill="#D0826F" transform="translate(333,63)"/>
<path d="M0 0 C5.94 0 11.88 0 18 0 C19 1 19 1 19.09765625 4.81640625 C19.09098089 6.39846682 19.07901875 7.98051159 19.0625 9.5625 C19.05798828 10.36880859 19.05347656 11.17511719 19.04882812 12.00585938 C19.03700518 14.00393756 19.01906914 16.00197783 19 18 C18.34 18.33 17.68 18.66 17 19 C17 13.06 17 7.12 17 1 C11.72 1 6.44 1 1 1 C1.03029297 2.19488037 1.06058594 3.38976074 1.09179688 4.62084961 C1.20475174 9.08810663 1.31621492 13.55539987 1.42724609 18.02270508 C1.47534676 19.94979849 1.52384259 21.87688207 1.57275391 23.80395508 C1.64331317 26.58672589 1.71241323 29.36952986 1.78125 32.15234375 C1.80312378 33.00271713 1.82499756 33.85309052 1.84753418 34.72923279 C1.96524952 39.55156483 2.00056829 44.3588186 1.91003418 49.18214417 C1.88276051 51.10090083 1.88276051 51.10090083 3 53 C6.27555608 53.47001033 6.27555608 53.47001033 10.0625 53.625 C12.351875 53.74875 14.64125 53.8725 17 54 C17 47.07 17 40.14 17 33 C23.27 33 29.54 33 36 33 C36 40.59 36 48.18 36 56 C35.67 56 35.34 56 35 56 C35 48.74 35 41.48 35 34 C29.72 34 24.44 34 19 34 C19.01160156 35.50433594 19.02320313 37.00867188 19.03515625 38.55859375 C19.04453249 40.51822793 19.05363287 42.47786345 19.0625 44.4375 C19.07087891 45.43072266 19.07925781 46.42394531 19.08789062 47.44726562 C19.09272461 48.86362305 19.09272461 48.86362305 19.09765625 50.30859375 C19.10551147 51.62041626 19.10551147 51.62041626 19.11352539 52.95874023 C19 55 19 55 18 56 C4.90909091 58.45454545 4.90909091 58.45454545 0 56 C0 37.52 0 19.04 0 0 Z " fill="#D18473" transform="translate(118,63)"/>
<path d="M0 0 C0.33 0 0.66 0 1 0 C2.2506646 9.01598508 1.97064907 17.89459396 1.703125 26.96533203 C1.62579768 29.59784385 1.55816798 32.23046315 1.4921875 34.86328125 C1.21867639 45.24913972 0.90464623 55.64682643 0 66 C-0.08846191 67.08812988 -0.17692383 68.17625977 -0.26806641 69.29736328 C-1 72 -1 72 -2.83496094 73.41210938 C-3.62676758 73.71955078 -4.41857422 74.02699219 -5.234375 74.34375 C-6.11303223 74.70025635 -6.99168945 75.0567627 -7.89697266 75.42407227 C-8.83847168 75.77912842 -9.7799707 76.13418457 -10.75 76.5 C-12.66991129 77.26793197 -14.58918368 78.0374632 -16.5078125 78.80859375 C-17.44657227 79.17839355 -18.38533203 79.54819336 -19.35253906 79.92919922 C-23.86568164 81.75459975 -28.22081287 83.88251962 -32.6015625 86.00390625 C-35 87 -35 87 -38 87 C-38 86.34 -38 85.68 -38 85 C-37.01 85 -36.02 85 -35 85 C-35 84.34 -35 83.68 -35 83 C-30.05 82.01 -30.05 82.01 -25 81 C-25 80.34 -25 79.68 -25 79 C-23.68 79 -22.36 79 -21 79 C-21 78.34 -21 77.68 -21 77 C-16.05 76.01 -16.05 76.01 -11 75 C-11 74.34 -11 73.68 -11 73 C-8 71 -8 71 -6 70 C-5.01 70.33 -4.02 70.66 -3 71 C-2.96241577 69.94256592 -2.96241577 69.94256592 -2.92407227 68.86376953 C-2.80681958 65.61738553 -2.6846885 62.37120183 -2.5625 59.125 C-2.52318359 58.01640625 -2.48386719 56.9078125 -2.44335938 55.765625 C-2.2587463 50.93728295 -2.05564877 46.14484593 -1.5 41.34375 C-0.63696846 33.39032212 -0.62949124 25.36653726 -0.4375 17.375 C-0.39421794 15.68618923 -0.35060089 13.997387 -0.30664062 12.30859375 C-0.20056404 8.20581756 -0.0990236 4.10295223 0 0 Z " fill="#D27056" transform="translate(367,316)"/>
<path d="M0 0 C0.83265381 0.00523682 1.66530762 0.01047363 2.52319336 0.01586914 C3.42231445 0.0190918 4.32143555 0.02231445 5.24780273 0.02563477 C6.66609375 0.03820312 6.66609375 0.03820312 8.11303711 0.05102539 C9.06243164 0.05553711 10.01182617 0.06004883 10.98999023 0.06469727 C13.34356776 0.07652429 15.69702188 0.09300514 18.05053711 0.11352539 C18.05053711 0.44352539 18.05053711 0.77352539 18.05053711 1.11352539 C11.78053711 1.11352539 5.51053711 1.11352539 -0.94946289 1.11352539 C-0.28946289 4.08352539 0.37053711 7.05352539 1.05053711 10.11352539 C1.24038034 12.06672308 1.37543523 14.02686671 1.42944336 15.98852539 C1.48068359 17.49479492 1.48068359 17.49479492 1.53295898 19.03149414 C1.55938477 20.04856445 1.58581055 21.06563477 1.61303711 22.11352539 C1.67265788 24.17615049 1.73623304 26.23866647 1.80444336 28.30102539 C1.82837158 29.20208008 1.8522998 30.10313477 1.87695312 31.03149414 C1.8238992 33.10219168 1.8238992 33.10219168 3.05053711 34.11352539 C5.93306356 34.27376101 8.79432238 34.37306568 11.67944336 34.42993164 C12.54367416 34.45071274 13.40790497 34.47149384 14.29832458 34.49290466 C17.06981156 34.55849653 19.84139632 34.61732957 22.61303711 34.67602539 C24.48739634 34.71920147 26.36174554 34.76281545 28.23608398 34.80688477 C32.84080047 34.91418766 37.44561569 35.01542754 42.05053711 35.11352539 C42.05053711 35.44352539 42.05053711 35.77352539 42.05053711 36.11352539 C36.8833331 36.97027924 31.94273089 37.2482012 26.71069336 37.21118164 C25.94373642 37.20976669 25.17677948 37.20835175 24.38658142 37.20689392 C21.96202521 37.20134305 19.53756492 37.18880002 17.11303711 37.17602539 C15.45874158 37.17100403 13.80444458 37.16644224 12.15014648 37.16235352 C8.11690699 37.15138977 4.08373825 37.13415963 0.05053711 37.11352539 C-1.46733565 34.07777987 -1.32900064 30.85484171 -1.51977539 27.51586914 C-1.56512421 26.76640518 -1.61047302 26.01694122 -1.65719604 25.24476624 C-1.75176949 23.6603774 -1.84408718 22.07585255 -1.93432617 20.49121094 C-2.07412622 18.05688786 -2.22423239 15.62334756 -2.37524414 13.18969727 C-2.46571141 11.65262446 -2.55557581 10.11551603 -2.64477539 8.57836914 C-2.69054718 7.84609604 -2.73631897 7.11382294 -2.78347778 6.35935974 C-2.87906283 4.61248633 -2.91986228 2.86276152 -2.94946289 1.11352539 C-1.94946289 0.11352539 -1.94946289 0.11352539 0 0 Z " fill="#CF6853" transform="translate(205.949462890625,225.886474609375)"/>
<path d="M0 0 C7.92 0 15.84 0 24 0 C24 18.48 24 36.96 24 56 C13.875 57.125 13.875 57.125 9 56 C9.33 53.69 9.66 51.38 10 49 C10.66 50.32 11.32 51.64 12 53 C15.63 53.33 19.26 53.66 23 54 C23 36.51 23 19.02 23 1 C15.74 1 8.48 1 1 1 C1.0928125 4.09375 1.0928125 4.09375 1.1875 7.25 C1.33015844 12.0052812 1.23507035 14.44142262 -2 18 C-2.69580267 19.31836295 -3.37224433 20.64791086 -4 22 C-5.0354051 18.8151065 -4.94040666 16.86968126 -4.00390625 13.671875 C-3.6956189 12.5905127 -3.6956189 12.5905127 -3.38110352 11.48730469 C-3.11096436 10.58399414 -2.8408252 9.68068359 -2.5625 8.75 C-1.716875 5.8625 -0.87125 2.975 0 0 Z " fill="#D37765" transform="translate(292,63)"/>
<path d="M0 0 C10.56 0 21.12 0 32 0 C32.25579464 33.39541189 31.61318409 66.6422704 30 100 C29.67 100 29.34 100 29 100 C28.97685467 92.21151879 28.95907371 84.4230456 28.94818783 76.63453865 C28.94296381 73.01822828 28.93587485 69.40194139 28.92456055 65.78564453 C28.91371462 62.29731896 28.90771953 58.80901602 28.90512276 55.3206749 C28.90236919 53.33862308 28.8945599 51.3565804 28.88670349 49.37454224 C28.88659019 47.57290115 28.88659019 47.57290115 28.88647461 45.73486328 C28.884254 44.67341095 28.88203339 43.61195862 28.87974548 42.51834106 C29 40 29 40 30 38 C30.08675538 35.30106819 30.11557897 32.62830769 30.09765625 29.9296875 C30.0962413 29.13345978 30.09482635 28.33723206 30.09336853 27.51687622 C30.08776345 24.9695462 30.07521014 22.42230353 30.0625 19.875 C30.05748565 18.14974085 30.05292263 16.42448033 30.04882812 14.69921875 C30.03864253 10.46608496 30.0190682 6.23314046 30 2 C15.15 1.505 15.15 1.505 0 1 C0 0.67 0 0.34 0 0 Z " fill="#CE684C" transform="translate(344,142)"/>
<path d="M0 0 C0.33 0 0.66 0 1 0 C2.29651504 8.32547869 1.78975234 16.44715202 1.25 24.8125 C1.20498352 25.54990417 1.15996704 26.28730835 1.11358643 27.04705811 C0.21366992 41.75230453 -1.24487732 56.37163279 -3 71 C-4.485 71.495 -4.485 71.495 -6 72 C-5.59405246 66.57374547 -5.18501876 61.14773543 -4.77319336 55.72192383 C-4.63368422 53.87823699 -4.4950008 52.03448747 -4.35717773 50.19067383 C-4.15828967 47.53189228 -3.95637825 44.87335449 -3.75390625 42.21484375 C-3.6934462 41.39789536 -3.63298615 40.58094696 -3.57069397 39.73924255 C-3.21587303 35.12388977 -2.67078539 30.5823532 -2 26 C-1.80182608 23.87805719 -1.62344576 21.7541732 -1.46484375 19.62890625 C-1.33432617 17.90317383 -1.33432617 17.90317383 -1.20117188 16.14257812 C-1.0706543 14.37043945 -1.0706543 14.37043945 -0.9375 12.5625 C-0.80118164 10.74975586 -0.80118164 10.74975586 -0.66210938 8.90039062 C-0.43931769 5.93374347 -0.21867788 2.96695275 0 0 Z " fill="#E29970" transform="translate(318,284)"/>
<path d="M0 0 C0.33 0 0.66 0 1 0 C1.03758423 1.56512329 1.03758423 1.56512329 1.07592773 3.16186523 C1.17081372 7.07017196 1.27082881 10.97833415 1.37231445 14.88647461 C1.41535886 16.57101028 1.45705223 18.25558108 1.49731445 19.94018555 C1.55576429 22.37559554 1.61923423 24.81083358 1.68359375 27.24609375 C1.70866249 28.35760048 1.70866249 28.35760048 1.73423767 29.49156189 C1.8596517 34.01928999 2.2358745 38.46268067 2.77064514 42.9599762 C3.05369676 45.47761217 3.19025385 47.98418958 3.28125 50.515625 C3.33732422 51.92714844 3.33732422 51.92714844 3.39453125 53.3671875 C3.46541464 55.3046667 3.53571802 57.24216719 3.60546875 59.1796875 C3.64285156 60.11554688 3.68023437 61.05140625 3.71875 62.015625 C3.74904297 62.85383789 3.77933594 63.69205078 3.81054688 64.55566406 C4.01151995 67.14863114 4.27547825 69.49797079 5 72 C5.99 72.66 6.98 73.32 8 74 C4.25 75.125 4.25 75.125 2 74 C-0.93393457 65.1981963 -0.24180399 54.76805269 -0.5625 45.5625 C-0.60568359 44.43779297 -0.64886719 43.31308594 -0.69335938 42.15429688 C-1.09782829 30.9768305 -1.16803709 19.85455238 -0.5 8.6875 C-0.42845703 7.41616211 -0.42845703 7.41616211 -0.35546875 6.11914062 C-0.24022021 4.07924139 -0.12060929 2.0395893 0 0 Z " fill="#D56F53" transform="translate(128,315)"/>
<path d="M0 0 C5.61 0 11.22 0 17 0 C17.13247351 13.70364816 16.76929025 27.31762342 16 41 C15.67 41 15.34 41 15 41 C15 28.13 15 15.26 15 2 C10.38 2 5.76 2 1 2 C1.33 19.49 1.66 36.98 2 55 C1.34 55 0.68 55 0 55 C0 36.85 0 18.7 0 0 Z " fill="#C45133" transform="translate(334,63)"/>
<path d="M0 0 C8.29787234 0.82978723 8.29787234 0.82978723 12 3 C15.64855555 4.63224853 19.04202567 5.44772451 23 6 C23.33 7.32 23.66 8.64 24 10 C25.60875 9.9071875 25.60875 9.9071875 27.25 9.8125 C31.24580849 10.01229042 32.13804462 10.43410897 35 13 C36.31836295 13.69580267 37.64791086 14.37224433 39 15 C35.57953934 16.14015355 35.08458343 15.90387992 31.89453125 14.59375 C31.08274414 14.26503906 30.27095703 13.93632812 29.43457031 13.59765625 C28.13664551 13.05431641 28.13664551 13.05431641 26.8125 12.5 C25.92788086 12.13777344 25.04326172 11.77554687 24.13183594 11.40234375 C16.03123975 8.06560732 7.99813084 4.57458361 0 1 C0 0.67 0 0.34 0 0 Z " fill="#D5775C" transform="translate(166,403)"/>
<path d="M0 0 C8.58 0 17.16 0 26 0 C26 0.33 26 0.66 26 1 C18.41 1.33 10.82 1.66 3 2 C2.67 15.53 2.34 29.06 2 43 C1.67 43 1.34 43 1 43 C0.67 28.81 0.34 14.62 0 0 Z " fill="#D07F6C" transform="translate(118,141)"/>
<path d="M0 0 C0.66 0.33 1.32 0.66 2 1 C4.9148537 1.15720097 7.80939636 1.25855654 10.7265625 1.31640625 C11.58937836 1.33718735 12.45219421 1.35796844 13.34115601 1.37937927 C16.10235493 1.44486034 18.86365038 1.50375298 21.625 1.5625 C23.49480172 1.6056866 25.36459362 1.64930093 27.234375 1.69335938 C31.82281728 1.80054024 36.41135683 1.90181175 41 2 C41 2.33 41 2.66 41 3 C35.83279599 3.85675385 30.89219378 4.13467581 25.66015625 4.09765625 C24.89319931 4.0962413 24.12624237 4.09482635 23.33604431 4.09336853 C20.9114881 4.08781766 18.48702781 4.07527463 16.0625 4.0625 C14.40820447 4.05747864 12.75390747 4.05291685 11.09960938 4.04882812 C7.06636988 4.03786438 3.03320114 4.02063424 -1 4 C-0.67 2.68 -0.34 1.36 0 0 Z " fill="#C9654A" transform="translate(207,259)"/>
<path d="M0 0 C0.33 0 0.66 0 1 0 C2.10020046 11.19015151 1.94536046 22.15751573 1.5625 33.375 C1.50911422 35.09372989 1.45637587 36.81248002 1.40429688 38.53125 C1.27697188 42.68777039 1.14096531 46.84392078 1 51 C0.67 51 0.34 51 0 51 C-1.45510194 33.90255225 -0.83130227 17.10802389 0 0 Z " fill="#D9765B" transform="translate(369,272)"/>
<path d="M0 0 C7.59 0 15.18 0 23 0 C23 0.33 23 0.66 23 1 C15.74 1 8.48 1 1 1 C1.0928125 4.09375 1.0928125 4.09375 1.1875 7.25 C1.33015844 12.0052812 1.23507035 14.44142262 -2 18 C-2.69580267 19.31836295 -3.37224433 20.64791086 -4 22 C-5.0354051 18.8151065 -4.94040666 16.86968126 -4.00390625 13.671875 C-3.6956189 12.5905127 -3.6956189 12.5905127 -3.38110352 11.48730469 C-3.11096436 10.58399414 -2.8408252 9.68068359 -2.5625 8.75 C-1.716875 5.8625 -0.87125 2.975 0 0 Z " fill="#C16B53" transform="translate(292,63)"/>
<path d="M0 0 C0.33 0 0.66 0 1 0 C1 3.3 1 6.6 1 10 C-4.66828055 9.40531984 -9.60322154 7.90757199 -14.9375 5.9375 C-15.71673828 5.65583984 -16.49597656 5.37417969 -17.29882812 5.08398438 C-19.20140125 4.39532294 -21.10101725 3.69850097 -23 3 C-20.15105645 2.24602135 -17.70234746 1.88829421 -14.75 1.9375 C-12.89375 1.9684375 -12.89375 1.9684375 -11 2 C-10.67 2.99 -10.34 3.98 -10 5 C-7.36 5 -4.72 5 -2 5 C-1.34 3.35 -0.68 1.7 0 0 Z " fill="#DA6842" transform="translate(247,336)"/>
<path d="M0 0 C0.66 0 1.32 0 2 0 C2.10802553 3.0247149 2.09303131 5.97648236 2 9 C1.95359375 10.97226562 1.95359375 10.97226562 1.90625 12.984375 C1.33441809 23.71332496 1.33441809 23.71332496 -2.18359375 27.10546875 C-6.32729457 29.20502593 -10.45279084 30.15913367 -15 31 C-15 30.34 -15 29.68 -15 29 C-13.68 29 -12.36 29 -11 29 C-11 28.34 -11 27.68 -11 27 C-8.03 26.34 -5.06 25.68 -2 25 C-2.020625 23.865625 -2.04125 22.73125 -2.0625 21.5625 C-2 18 -2 18 -1 17 C-0.76298761 14.14122091 -0.57780818 11.30116703 -0.4375 8.4375 C-0.39431641 7.63119141 -0.35113281 6.82488281 -0.30664062 5.99414062 C-0.20024738 3.99631195 -0.09959112 1.9981793 0 0 Z " fill="#DF9970" transform="translate(283,308)"/>
<path d="M0 0 C0.99 0 1.98 0 3 0 C3.22754509 13.67798823 2.55588153 27.33655017 2 41 C1.67 41 1.34 41 1 41 C0.67 27.47 0.34 13.94 0 0 Z " fill="#D57359" transform="translate(120,185)"/>
<path d="M0 0 C0.99 0.33 1.98 0.66 3 1 C-1.69449534 4.78597201 -7.0608746 6.82001111 -12.5625 9.1875 C-13.61630859 9.65091797 -14.67011719 10.11433594 -15.75585938 10.59179688 C-16.76583984 11.02943359 -17.77582031 11.46707031 -18.81640625 11.91796875 C-19.73881104 12.31781982 -20.66121582 12.7176709 -21.61157227 13.12963867 C-24 14 -24 14 -27 14 C-27 13.34 -27 12.68 -27 12 C-26.01 12 -25.02 12 -24 12 C-24 11.34 -24 10.68 -24 10 C-20.7 9.34 -17.4 8.68 -14 8 C-14 7.34 -14 6.68 -14 6 C-12.68 6 -11.36 6 -10 6 C-10 5.34 -10 4.68 -10 4 C-6.7 3.34 -3.4 2.68 0 2 C0 1.34 0 0.68 0 0 Z " fill="#D67153" transform="translate(356,389)"/>
<path d="M0 0 C0.33 0 0.66 0 1 0 C1.33686543 4.5414119 1.66887125 9.0831665 2 13.625 C2.14308594 15.55279297 2.14308594 15.55279297 2.2890625 17.51953125 C2.37929687 18.76347656 2.46953125 20.00742188 2.5625 21.2890625 C2.64628906 22.43068848 2.73007813 23.57231445 2.81640625 24.74853516 C2.99101731 27.84091568 3.03281022 30.90353537 3 34 C2.01 34.495 2.01 34.495 1 35 C0.93941406 33.71222656 0.87882813 32.42445313 0.81640625 31.09765625 C0.73201753 29.41925841 0.6473687 27.74087364 0.5625 26.0625 C0.52318359 25.21236328 0.48386719 24.36222656 0.44335938 23.48632812 C0.40146484 22.67744141 0.35957031 21.86855469 0.31640625 21.03515625 C0.27974854 20.2862915 0.24309082 19.53742676 0.20532227 18.76586914 C0.18228937 16.97538674 0.18228937 16.97538674 -1 16 C-1.34568689 10.60118412 -1.11582647 5.30017571 0 0 Z " fill="#D47763" transform="translate(170,201)"/>
<path d="M0 0 C9.57 0 19.14 0 29 0 C29 0.33 29 0.66 29 1 C19.76 1 10.52 1 1 1 C1.20625 3.26875 1.4125 5.5375 1.625 7.875 C1.9765625 11.7421875 1.9765625 11.7421875 2 15 C1.34 15.66 0.68 16.32 0 17 C0 16.34 0 15.68 0 15 C-0.66 14.67 -1.32 14.34 -2 14 C-1.67 13.01 -1.34 12.02 -1 11 C-0.67 7.37 -0.34 3.74 0 0 Z " fill="#E58C78" transform="translate(180,322)"/>
<path d="M0 0 C0.33 0 0.66 0 1 0 C1.66 6.6 2.32 13.2 3 20 C6.96 21.65 10.92 23.3 15 25 C15 25.33 15 25.66 15 26 C10.21859411 26.46876528 7.06212581 26.73021149 3 23.9375 C-1.66827197 17.08097555 -0.0995437 7.97455654 0 0 Z " fill="#D88875" transform="translate(182,337)"/>
<path d="M0 0 C0.66 0 1.32 0 2 0 C2.66969591 2.4575448 3.3358768 4.91594924 4 7.375 C4.19078125 8.07367188 4.3815625 8.77234375 4.578125 9.4921875 C6 14.7734375 6 14.7734375 6 17 C7.98 17 9.96 17 12 17 C12 17.66 12 18.32 12 19 C9.36 18.67 6.72 18.34 4 18 C3.3304744 15.37569876 2.66426282 12.75063343 2 10.125 C1.80921875 9.37863281 1.6184375 8.63226563 1.421875 7.86328125 C0 2.2265625 0 2.2265625 0 0 Z " fill="#D27D6D" transform="translate(273,101)"/>
<path d="M0 0 C2.31 0 4.62 0 7 0 C3.7859082 2.14272786 0.47398867 3.62118285 -3.0625 5.125 C-3.69994141 5.40214844 -4.33738281 5.67929687 -4.99414062 5.96484375 C-9.75119304 8 -9.75119304 8 -12 8 C-12 6 -12 6 -10.5 4.4375 C-7.0014684 2.42584433 -4.01050867 2.33420906 0 2 C0 1.34 0 0.68 0 0 Z " fill="#D67151" transform="translate(275,423)"/>
<path d="M0 0 C-0.33 0.66 -0.66 1.32 -1 2 C-3.01201876 2.5969726 -5.02766096 2.95435405 -7.08984375 3.33984375 C-9.38111961 3.91602531 -9.38111961 3.91602531 -11 7 C-13.1640625 7.51171875 -13.1640625 7.51171875 -15.625 7.6875 C-16.44226563 7.75324219 -17.25953125 7.81898438 -18.1015625 7.88671875 C-18.72804688 7.92410156 -19.35453125 7.96148437 -20 8 C-18.24270517 4.48541034 -14.07362877 3.7357764 -10.5625 2.3125 C-9.77294922 1.97927734 -8.98339844 1.64605469 -8.16992188 1.30273438 C-7.03586914 0.83770508 -7.03586914 0.83770508 -5.87890625 0.36328125 C-5.1835376 0.07751221 -4.48816895 -0.20825684 -3.77172852 -0.50268555 C-2 -1 -2 -1 0 0 Z " fill="#E9A57B" transform="translate(288,367)"/>
<path d="M0 0 C-2.23495428 2.23495428 -4.02414536 3.0024791 -6.9375 4.1875 C-7.81277344 4.55230469 -8.68804687 4.91710937 -9.58984375 5.29296875 C-12 6 -12 6 -15 5 C-15 4.34 -15 3.68 -15 3 C-13.68 3 -12.36 3 -11 3 C-11 2.34 -11 1.68 -11 1 C-6.92630576 -1.03684712 -4.41062136 -1.0257259 0 0 Z " fill="#D97054" transform="translate(308,412)"/>
<path d="M0 0 C0.21398437 0.64453125 0.42796875 1.2890625 0.6484375 1.953125 C1.8473523 4.27839115 1.8473523 4.27839115 4.6015625 4.609375 C5.59929687 4.65578125 6.59703125 4.7021875 7.625 4.75 C9.12933594 4.83507812 9.12933594 4.83507812 10.6640625 4.921875 C11.43492187 4.94765625 12.20578125 4.9734375 13 5 C13 5.66 13 6.32 13 7 C10.16443413 8.41778293 8.0091294 7.86257622 4.875 7.5625 C3.77929688 7.46066406 2.68359375 7.35882813 1.5546875 7.25390625 C0.71164062 7.17011719 -0.13140625 7.08632812 -1 7 C-0.67 4.69 -0.34 2.38 0 0 Z " fill="#CA725C" transform="translate(302,112)"/>
<path d="M0 0 C6.61085476 0.48969295 11.94977014 2.33442742 18 5 C16.453125 6.1796875 16.453125 6.1796875 14 7 C11.41205242 6.16272284 9.18152749 5.28640033 6.75 4.125 C5.77546875 3.68220703 5.77546875 3.68220703 4.78125 3.23046875 C3.18104968 2.50096566 1.58960935 1.75230175 0 1 C0 0.67 0 0.34 0 0 Z " fill="#D46B50" transform="translate(149,396)"/>
<path d="M0 0 C2.07553403 4.15106806 2.23828995 4.5406888 1.25 8.6875 C1.05148437 9.55503906 0.85296875 10.42257813 0.6484375 11.31640625 C0.43445313 12.20199219 0.22046875 13.08757812 0 14 C-0.3772822 15.70783076 -0.75245028 17.41613064 -1.125 19.125 C-1.41375 20.40375 -1.7025 21.6825 -2 23 C-2.33 23 -2.66 23 -3 23 C-3 19.37 -3 15.74 -3 12 C-2.34 12 -1.68 12 -1 12 C-0.67 8.04 -0.34 4.08 0 0 Z " fill="#DA8067" transform="translate(297,84)"/>
<path d="M0 0 C0 0.99 0 1.98 0 3 C0.99 4.485 0.99 4.485 2 6 C-2.72065967 4.45730076 -7.41664092 2.92205381 -12 1 C-12 0.67 -12 0.34 -12 0 C-10.56359829 -0.19573608 -9.12580496 -0.38127816 -7.6875 -0.5625 C-6.88699219 -0.66691406 -6.08648437 -0.77132813 -5.26171875 -0.87890625 C-3 -1 -3 -1 0 0 Z " fill="#DD6D50" transform="translate(216,419)"/>
<path d="M0 0 C2.475 0.99 2.475 0.99 5 2 C5 9.92 5 17.84 5 26 C5.66 26.33 6.32 26.66 7 27 C6.01 27 5.02 27 4 27 C4 19.08 4 11.16 4 3 C2.68 2.67 1.36 2.34 0 2 C0 1.34 0 0.68 0 0 Z " fill="#DE5B30" transform="translate(243,381)"/>
<path d="M0 0 C3.96 0 7.92 0 12 0 C12.33 0.99 12.66 1.98 13 3 C13.99 3 14.98 3 16 3 C16 3.66 16 4.32 16 5 C10.13190493 4.47606294 5.45126259 3.23891142 0 1 C0 0.67 0 0.34 0 0 Z " fill="#D67353" transform="translate(224,338)"/>
<path d="M0 0 C2.69201769 0.94395426 5.34116719 1.96350585 8 3 C8 3.33 8 3.66 8 4 C3.21521178 4.09764874 -1.27685687 3.77112541 -6 3 C-6.33 2.01 -6.66 1.02 -7 0 C-4.22064566 -1.38967717 -3.01106815 -0.78549604 0 0 Z " fill="#D87255" transform="translate(202,364)"/>
<path d="M0 0 C0.33 0 0.66 0 1 0 C1.33 5.61 1.66 11.22 2 17 C1.01 17 0.02 17 -1 17 C-1.10477512 11.21408489 -0.99250545 5.70690634 0 0 Z " fill="#D17E66" transform="translate(176,281)"/>
<path d="M0 0 C-0.99 0.639375 -1.98 1.27875 -3 1.9375 C-4.485 2.9584375 -4.485 2.9584375 -6 4 C-6 4.33 -6 4.66 -6 5 C-9.63 5.33 -13.26 5.66 -17 6 C-13.57429269 3.43071952 -11.29496875 2.16583777 -7.375 0.75 C-6.41335938 0.39421875 -5.45171875 0.0384375 -4.4609375 -0.328125 C-2 -1 -2 -1 0 0 Z " fill="#E2A57C" transform="translate(305,360)"/>
<path d="M0 0 C0.99 0 1.98 0 3 0 C2.125 6.875 2.125 6.875 1 8 C-1.02408755 7.90997602 -3.04544287 7.75358962 -5.0625 7.5625 C-6.71958984 7.40974609 -6.71958984 7.40974609 -8.41015625 7.25390625 C-9.26480469 7.17011719 -10.11945313 7.08632812 -11 7 C-11 6.67 -11 6.34 -11 6 C-7.37 6 -3.74 6 0 6 C0 4.02 0 2.04 0 0 Z " fill="#C65E48" transform="translate(290,111)"/>
<path d="M0 0 C4.54569102 -0.30993348 6.565229 0.02319847 10 3 C11.31836295 3.69580267 12.64791086 4.37224433 14 5 C10.33529384 6.22156872 9.36762312 5.62833432 5.875 4.1875 C4.98554688 3.83042969 4.09609375 3.47335937 3.1796875 3.10546875 C1 2 1 2 0 0 Z " fill="#D17150" transform="translate(191,413)"/>
<path d="M0 0 C0.33 0 0.66 0 1 0 C1.33 6.93 1.66 13.86 2 21 C1.01 21 0.02 21 -1 21 C-0.67 14.07 -0.34 7.14 0 0 Z " fill="#E7A97E" transform="translate(324,205)"/>
<path d="M0 0 C0.99 0 1.98 0 3 0 C2.34 5.28 1.68 10.56 1 16 C0.34 15.34 -0.32 14.68 -1 14 C-0.9765625 10.7421875 -0.9765625 10.7421875 -0.625 6.875 C-0.51414062 5.59367188 -0.40328125 4.31234375 -0.2890625 2.9921875 C-0.19367188 2.00476563 -0.09828125 1.01734375 0 0 Z " fill="#E19369" transform="translate(326,190)"/>
<path d="M0 0 C0.33 0 0.66 0 1 0 C1 4.29 1 8.58 1 13 C0.01 13.495 0.01 13.495 -1 14 C-1.22226864 12.23086176 -1.42733873 10.45955629 -1.625 8.6875 C-1.74101562 7.70136719 -1.85703125 6.71523437 -1.9765625 5.69921875 C-2 3 -2 3 0 0 Z " fill="#D35E42" transform="translate(375,179)"/>
<path d="M0 0 C1.98 0 3.96 0 6 0 C6 0.66 6 1.32 6 2 C4.25531628 2.70088156 2.50398839 3.38524009 0.75 4.0625 C-0.22453125 4.44535156 -1.1990625 4.82820313 -2.203125 5.22265625 C-5.04007395 6.01113787 -6.29409552 6.02437812 -9 5 C-8.01 5 -7.02 5 -6 5 C-6 4.34 -6 3.68 -6 3 C-4.35 3 -2.7 3 -1 3 C-0.67 2.01 -0.34 1.02 0 0 Z " fill="#E39F78" transform="translate(257,340)"/>
<path d="M0 0 C0.6875 1.75 0.6875 1.75 1 4 C-0.3125 6 -0.3125 6 -2 8 C-2.69580267 9.31836295 -3.37224433 10.64791086 -4 12 C-4.96846689 9.38513938 -5.04559628 8.1557873 -4.25 5.4375 C-3.06034377 3.11767035 -1.95759288 1.69064839 0 0 Z " fill="#D2684B" transform="translate(292,73)"/>
<path d="M0 0 C4.17645661 -0.34803805 5.82586157 0.33781938 9 3 C10.31836295 3.69580267 11.64791086 4.37224433 13 5 C9.29218328 6.23593891 8.32489747 5.5678132 4.8125 4.0625 C3.91144531 3.68222656 3.01039063 3.30195313 2.08203125 2.91015625 C1.39496094 2.60980469 0.70789063 2.30945313 0 2 C0 1.34 0 0.68 0 0 Z " fill="#D17957" transform="translate(223,426)"/>
<path d="M0 0 C-1.93467942 0.83986084 -3.87285129 1.67168027 -5.8125 2.5 C-7.43091797 3.19609375 -7.43091797 3.19609375 -9.08203125 3.90625 C-12 5 -12 5 -15 5 C-15 4.34 -15 3.68 -15 3 C-14.01 3 -13.02 3 -12 3 C-12 2.34 -12 1.68 -12 1 C-3.96428571 -1.27678571 -3.96428571 -1.27678571 0 0 Z " fill="#D88B75" transform="translate(344,398)"/>
<path d="M0 0 C2.84550012 0.66010476 5.52325999 1.51724966 8.25 2.5625 C8.95640625 2.83191406 9.6628125 3.10132813 10.390625 3.37890625 C10.92171875 3.58386719 11.4528125 3.78882813 12 4 C11.01 4.66 10.02 5.32 9 6 C8.67 5.67 8.34 5.34 8 5 C5.67182036 4.63239269 3.3381615 4.29758419 1 4 C0.67 2.68 0.34 1.36 0 0 Z " fill="#D87357" transform="translate(223,373)"/>
<path d="M0 0 C0.66 0 1.32 0 2 0 C2.33 1.98 2.66 3.96 3 6 C3.66 6 4.32 6 5 6 C5.33 7.32 5.66 8.64 6 10 C4.68 9.67 3.36 9.34 2 9 C1.34 6.03 0.68 3.06 0 0 Z " fill="#D37B60" transform="translate(211,326)"/>
<path d="M0 0 C2.39763185 2.39763185 2.34280586 3.33273498 2.625 6.625 C2.69976562 7.44226563 2.77453125 8.25953125 2.8515625 9.1015625 C2.90054687 9.72804688 2.94953125 10.35453125 3 11 C3.99 11.33 4.98 11.66 6 12 C4.35 12.33 2.7 12.66 1 13 C-0.32229189 10.35541621 -0.09677194 8.32238699 -0.0625 5.375 C-0.05347656 4.37210937 -0.04445313 3.36921875 -0.03515625 2.3359375 C-0.02355469 1.56507812 -0.01195312 0.79421875 0 0 Z " fill="#C94F30" transform="translate(280,83)"/>
<path d="M0 0 C2.70206912 2.70206912 3.90377166 4.72978589 4.1953125 8.578125 C4.16050781 9.90070313 4.16050781 9.90070313 4.125 11.25 C4.10695313 12.14203125 4.08890625 13.0340625 4.0703125 13.953125 C4.03550781 14.96632813 4.03550781 14.96632813 4 16 C3.67 16 3.34 16 3 16 C2.49595192 13.89679937 1.99689492 11.79240209 1.5 9.6875 C1.08234375 7.92986328 1.08234375 7.92986328 0.65625 6.13671875 C0 3 0 3 0 0 Z " fill="#DE8C78" transform="translate(269,85)"/>
<path d="M0 0 C4.21878192 -0.19622241 7.17010894 0.19769832 11 2 C11 2.33 11 2.66 11 3 C9.54257537 3.08096803 8.08387193 3.13917774 6.625 3.1875 C5.81289062 3.22230469 5.00078125 3.25710938 4.1640625 3.29296875 C3.44992188 3.19628906 2.73578125 3.09960938 2 3 C1.34 2.01 0.68 1.02 0 0 Z " fill="#D56A51" transform="translate(186,360)"/>
<path d="M0 0 C0.33 1.32 0.66 2.64 1 4 C-1.35438733 5.42944945 -2.48032433 6.08661261 -5.25 5.625 C-5.8275 5.41875 -6.405 5.2125 -7 5 C-6.67 4.01 -6.34 3.02 -6 2 C-3.03 2.495 -3.03 2.495 0 3 C0 2.01 0 1.02 0 0 Z " fill="#D1654D" transform="translate(365,384)"/>
<path d="M0 0 C2.64 0.66 5.28 1.32 8 2 C6 4 6 4 2.375 4.125 C1.26125 4.08375 0.1475 4.0425 -1 4 C-0.67 2.68 -0.34 1.36 0 0 Z " fill="#BF5943" transform="translate(207,259)"/>
</svg>
