<?xml version="1.0" encoding="UTF-8"?>
<svg version="1.1" xmlns="http://www.w3.org/2000/svg" width="500" height="500">
<path d="M0 0 C2.28891712 1.19644378 4.59649327 2.35021798 6.90869141 3.50097656 C20.17286275 10.1745993 30.98961455 18.00464946 41.93212891 28.09863281 C43.85398168 29.85721314 45.81563505 31.52636181 47.82666016 33.18066406 C50.91850094 35.8133916 53.51987326 38.71246595 56.13525391 41.81347656 C58.03494234 43.99830342 60.02583684 46.06742455 62.04199219 48.14404297 C69.00902525 55.42962413 74.15054959 63.39116414 79.13916016 72.11816406 C79.92540771 73.48158936 79.92540771 73.48158936 80.72753906 74.87255859 C88.17626896 87.88566064 94.68314335 100.78195401 99.13916016 115.11816406 C99.37570312 115.87291016 99.61224609 116.62765625 99.85595703 117.40527344 C103.16115664 128.14488324 105.55891814 138.99358838 107.13916016 150.11816406 C107.23487305 150.76479004 107.33058594 151.41141602 107.42919922 152.07763672 C108.39689657 159.47757328 108.38275727 166.91607051 108.38916016 174.36816406 C108.3898349 175.07614136 108.39050964 175.78411865 108.39120483 176.5135498 C108.36228541 195.69766746 105.45012375 213.70117232 100.13916016 232.11816406 C99.92372559 232.88854004 99.70829102 233.65891602 99.48632812 234.45263672 C90.94814861 264.17605636 73.52486235 290.23631358 52.13916016 312.11816406 C51.05835018 313.23917991 49.97761632 314.36026914 48.89697266 315.48144531 C15.69851391 349.62159111 -32.83693052 370.3984592 -80.42724609 371.28613281 C-135.41298014 371.6529385 -185.3600137 353.8197517 -224.86083984 315.11816406 C-225.4420459 314.55210449 -226.02325195 313.98604492 -226.62207031 313.40283203 C-239.59786349 300.73770018 -249.63134667 287.79634003 -258.42333984 271.86816406 C-259.37370117 270.18013672 -259.37370117 270.18013672 -260.34326172 268.45800781 C-266.2265142 257.85482363 -271.29950598 246.89842071 -274.92333984 235.30566406 C-275.16592529 234.53359619 -275.40851074 233.76152832 -275.65844727 232.96606445 C-290.89466501 182.36236048 -285.39400032 128.77674754 -260.86083984 82.11816406 C-255.53278387 72.28544105 -249.68159599 62.98672229 -242.86083984 54.11816406 C-242.33361328 53.36148438 -241.80638672 52.60480469 -241.26318359 51.82519531 C-240.80041016 51.261875 -240.33763672 50.69855469 -239.86083984 50.11816406 C-239.20083984 50.11816406 -238.54083984 50.11816406 -237.86083984 50.11816406 C-237.60947266 49.539375 -237.35810547 48.96058594 -237.09912109 48.36425781 C-235.7049107 45.83532729 -234.12293626 44.18385946 -232.04833984 42.18066406 C-231.33033203 41.48070312 -230.61232422 40.78074219 -229.87255859 40.05957031 C-229.20869141 39.41890625 -228.54482422 38.77824219 -227.86083984 38.11816406 C-227.03583984 37.29316406 -226.21083984 36.46816406 -225.36083984 35.61816406 C-224.53583984 34.79316406 -223.71083984 33.96816406 -222.86083984 33.11816406 C-222.19697266 32.43109375 -221.53310547 31.74402344 -220.84912109 31.03613281 C-220.13111328 30.30007812 -219.41310547 29.56402344 -218.67333984 28.80566406 C-217.99916016 28.10828125 -217.32498047 27.41089844 -216.63037109 26.69238281 C-214.86083984 25.11816406 -214.86083984 25.11816406 -212.86083984 25.11816406 C-212.86083984 24.45816406 -212.86083984 23.79816406 -212.86083984 23.11816406 C-188.21334456 0.65220175 -152.27675072 -13.30053315 -119.86083984 -18.88183594 C-118.67876953 -19.08679687 -117.49669922 -19.29175781 -116.27880859 -19.50292969 C-76.7013272 -25.22449978 -35.3503541 -18.69644717 0 0 Z " fill="#46493D" transform="translate(337.86083984375,74.8818359375)"/>
<path d="M0 0 C1.56812984 0.9194722 3.13713522 1.83745289 4.70703125 2.75390625 C5.45291504 3.19621582 6.19879883 3.63852539 6.96728516 4.09423828 C10.89241933 6.37650576 14.96711416 8.35741631 19.0625 10.3125 C19.0625 10.9725 19.0625 11.6325 19.0625 12.3125 C19.8875 12.539375 20.7125 12.76625 21.5625 13 C25.03499998 14.30218749 27.75105347 15.8920279 30.8359375 17.90380859 C32.90366347 19.21200803 34.99189335 20.41740137 37.13671875 21.59375 C46.49053276 26.75265939 55.77993753 32.02668413 65.0625 37.3125 C65.90103516 37.78977539 66.73957031 38.26705078 67.60351562 38.75878906 C93.58623866 53.6076021 93.58623866 53.6076021 96.0625 62.3125 C96.4908381 66.09748165 96.48286926 69.8542695 96.46655273 73.66040039 C96.47341599 74.78319901 96.48027924 75.90599762 96.48735046 77.06282043 C96.5056032 80.76206217 96.50178367 84.46087929 96.49609375 88.16015625 C96.50065555 90.73652789 96.50596111 93.31289831 96.51197815 95.88926697 C96.52090575 101.28341203 96.51872381 106.67739475 96.50854492 112.0715332 C96.49705477 118.29797829 96.51116032 124.5239931 96.5379414 130.75038153 C96.56279476 136.75453952 96.56527276 142.75847654 96.55882454 148.76269341 C96.55867115 151.31158604 96.56473026 153.8604869 96.57711601 156.40934944 C96.59198885 159.971224 96.58137562 163.53214934 96.56420898 167.09399414 C96.57871094 168.67216919 96.57871094 168.67216919 96.59350586 170.28222656 C96.51478528 178.08032051 94.88012423 181.18488515 89.67919922 186.95800781 C86.98101932 189.38581589 84.33058505 191.16176325 81.1953125 192.984375 C80.06931641 193.64453613 78.94332031 194.30469727 77.78320312 194.98486328 C76.58471506 195.67754667 75.38614587 196.37008971 74.1875 197.0625 C72.95982595 197.77899668 71.73261408 198.49628585 70.50585938 199.21435547 C68.10352223 200.62001397 65.69937718 202.02249661 63.29394531 203.42285156 C59.36004393 205.7232744 55.45782581 208.07261237 51.5625 210.4375 C46.77819487 213.32488868 41.93574663 216.07250293 37.01171875 218.71484375 C33.29686822 220.72725947 29.61740516 222.79955897 25.9375 224.875 C25.25034912 225.26163818 24.56319824 225.64827637 23.85522461 226.04663086 C20.93535928 227.68995625 18.01847497 229.33765716 15.109375 231 C14.31015625 231.45375 13.5109375 231.9075 12.6875 232.375 C12.01976562 232.75785156 11.35203125 233.14070312 10.6640625 233.53515625 C9.0625 234.3125 9.0625 234.3125 7.0625 234.3125 C6.7325 235.3025 6.4025 236.2925 6.0625 237.3125 C4.41866477 238.08409613 2.76400958 238.83962869 1.06640625 239.484375 C-0.94938569 240.2584255 -0.94938569 240.2584255 -2.72265625 241.390625 C-8.85154566 245.08617615 -14.93529363 245.30495001 -21.9375 244.3125 C-26.69051677 242.44338673 -30.87672792 239.9084838 -35.1875 237.1875 C-36.29351562 236.52234375 -37.39953125 235.8571875 -38.5390625 235.171875 C-41.69863049 233.25812242 -44.82193718 231.29690226 -47.9375 229.3125 C-48.84951172 228.74305664 -49.76152344 228.17361328 -50.70117188 227.58691406 C-51.51650391 227.06581055 -52.33183594 226.54470703 -53.171875 226.0078125 C-53.88053711 225.55680176 -54.58919922 225.10579102 -55.31933594 224.64111328 C-56.9375 223.3125 -56.9375 223.3125 -57.9375 220.3125 C-55.71292155 219.30105432 -53.48375709 218.30329735 -51.25 217.3125 C-50.62416016 217.02632812 -49.99832031 216.74015625 -49.35351562 216.4453125 C-45.75684081 214.86352881 -42.8678676 213.70833876 -38.9375 214.3125 C-36.76171875 215.44921875 -36.76171875 215.44921875 -34.625 217 C-33.84382813 217.54398438 -33.06265625 218.08796875 -32.2578125 218.6484375 C-30.80930141 219.68726868 -29.36569292 220.73301182 -27.9296875 221.7890625 C-22.85736101 225.30067315 -18.16295245 226.84442157 -11.9375 226.3125 C-7.97459497 225.00474134 -4.88633145 223.26133145 -1.9375 220.3125 C-0.803125 219.920625 0.33125 219.52875 1.5 219.125 C5.01510509 217.8637715 7.9148019 216.2262735 11.03125 214.171875 C17.27084619 210.13798101 23.67408526 206.43354395 30.125 202.75 C37.01223645 198.80698693 43.88084223 194.84539864 50.67504883 190.74389648 C54.7136442 188.3225564 58.79500714 185.97568082 62.875 183.625 C64.50672504 182.68396581 66.13824175 181.74257025 67.76953125 180.80078125 C68.51799316 180.36975098 69.26645508 179.9387207 70.03759766 179.49462891 C71.71186949 178.51719652 73.36489163 177.50346467 75.01171875 176.48046875 C77.0625 175.3125 77.0625 175.3125 79.0625 175.3125 C79.0625 139.0125 79.0625 102.7125 79.0625 65.3125 C77.4125 64.9825 75.7625 64.6525 74.0625 64.3125 C71.61282321 63.13267501 69.39161148 61.72823443 67.0625 60.3125 C67.0625 59.6525 67.0625 58.9925 67.0625 58.3125 C66.258125 58.27125 65.45375 58.23 64.625 58.1875 C60.47017967 57.16701781 57.91451549 55.38241397 54.453125 52.9453125 C50.80957312 50.45674275 46.95076964 48.38992066 43.0625 46.3125 C43.0625 45.6525 43.0625 44.9925 43.0625 44.3125 C42.20785156 44.05726563 41.35320312 43.80203125 40.47265625 43.5390625 C36.86841939 42.24269323 33.80945209 40.61258105 30.5 38.6875 C29.89575195 38.33776123 29.29150391 37.98802246 28.66894531 37.62768555 C24.50236873 35.20115897 20.40352665 32.67644502 16.3125 30.125 C11.70170319 27.2573093 7.04648336 24.7055815 2.1640625 22.3359375 C-0.31034244 21.13092989 -2.68034019 19.89251186 -4.9375 18.3125 C-4.9375 17.6525 -4.9375 16.9925 -4.9375 16.3125 C-5.741875 16.18875 -6.54625 16.065 -7.375 15.9375 C-8.6434375 15.628125 -8.6434375 15.628125 -9.9375 15.3125 C-10.4325 14.3225 -10.4325 14.3225 -10.9375 13.3125 C-16.02508683 13.01323019 -18.73717972 13.43228038 -22.9375 16.3125 C-23.5975 16.3125 -24.2575 16.3125 -24.9375 16.3125 C-24.9375 16.9725 -24.9375 17.6325 -24.9375 18.3125 C-25.71351563 18.725 -26.48953125 19.1375 -27.2890625 19.5625 C-42.01548376 27.43533619 -56.38462951 35.90237629 -70.76220703 44.38964844 C-72.3820266 45.34498593 -74.00346624 46.29757497 -75.625 47.25 C-76.51574219 47.77464844 -77.40648437 48.29929688 -78.32421875 48.83984375 C-80.08963046 49.83470207 -81.88179141 50.78330818 -83.6953125 51.6875 C-87.90641962 53.79812718 -92.01072904 56.08262031 -96.125 58.375 C-96.93130859 58.82166016 -97.73761719 59.26832031 -98.56835938 59.72851562 C-99.34373047 60.15970703 -100.11910156 60.59089844 -100.91796875 61.03515625 C-101.61817139 61.42453369 -102.31837402 61.81391113 -103.03979492 62.21508789 C-104.71197731 63.18208388 -106.3302693 64.24101287 -107.9375 65.3125 C-108.41111538 67.30839836 -108.41111538 67.30839836 -108.36555481 69.6506958 C-108.3841304 70.56191696 -108.40270599 71.47313812 -108.42184448 72.41197205 C-108.4267691 73.41458572 -108.43169373 74.4171994 -108.43676758 75.45019531 C-108.45326859 76.5039888 -108.46976959 77.55778229 -108.48677063 78.64350891 C-108.53583348 82.14258953 -108.56102906 85.64126921 -108.58203125 89.140625 C-108.59176153 90.33385124 -108.60149181 91.52707748 -108.61151695 92.7564621 C-108.66240293 99.07218835 -108.69513838 105.3877108 -108.71313477 111.70361328 C-108.73516807 118.23267943 -108.81759824 124.7595031 -108.91425037 131.28783035 C-108.97762994 136.30303602 -108.99643065 141.31770275 -109.003088 146.33327484 C-109.01402038 148.73995053 -109.04173319 151.1466104 -109.08649635 153.55289459 C-109.14494398 156.92276767 -109.14031032 160.28703058 -109.12036133 163.65722656 C-109.15160095 164.65174332 -109.18284058 165.64626007 -109.21502686 166.6709137 C-109.15876181 169.54140257 -109.00637917 171.6438419 -107.9375 174.3125 C-104.89593685 177.00416262 -101.60247559 178.61737729 -97.9375 180.3125 C-96.3591765 181.21133694 -94.78747712 182.12204098 -93.2265625 183.05078125 C-84.59358919 187.87709633 -77.16053101 192.00627855 -66.9375 191.3125 C-66.9375 190.6525 -66.9375 189.9925 -66.9375 189.3125 C-66.12577332 188.66367355 -65.31404663 188.01484711 -64.47772217 187.34635925 C-60.80281134 182.95730921 -61.23713534 179.33164838 -61.29394531 173.77075195 C-61.2850679 172.71009521 -61.27619049 171.64943848 -61.26704407 170.55664062 C-61.24336201 167.05436906 -61.25455266 163.55310075 -61.265625 160.05078125 C-61.25504883 157.61890064 -61.24213882 155.18702915 -61.22698975 152.75517273 C-61.19275303 146.35587164 -61.18740839 139.95687533 -61.18890381 133.55749512 C-61.18567972 124.52583515 -61.14306106 115.49426039 -61.10516357 106.46269226 C-61.08509575 101.65162657 -61.07581336 96.84072313 -61.07501221 92.02961731 C-61.07119307 89.84176631 -61.06734922 87.65391536 -61.06347656 85.46606445 C-61.06557632 84.46187973 -61.06767609 83.45769501 -61.06983948 82.42308044 C-61.06727646 81.51041412 -61.06471344 80.5977478 -61.06207275 79.65742493 C-61.0621143 78.86195912 -61.06215584 78.06649332 -61.06219864 77.24692249 C-60.9375 75.3125 -60.9375 75.3125 -59.9375 73.3125 C-57.47887599 73.25866152 -55.0214245 73.21890962 -52.5625 73.1875 C-51.86382812 73.17074219 -51.16515625 73.15398437 -50.4453125 73.13671875 C-48.60852514 73.11905733 -46.77148037 73.20946739 -44.9375 73.3125 C-42.49405257 75.75594743 -42.68392658 76.38551666 -42.67007446 79.7376709 C-42.66154449 80.66835388 -42.65301453 81.59903687 -42.64422607 82.55792236 C-42.64513245 83.58230408 -42.64603882 84.60668579 -42.64697266 85.66210938 C-42.64025543 86.7387384 -42.63353821 87.81536743 -42.62661743 88.92462158 C-42.60754382 92.50187743 -42.60370766 96.07894638 -42.6015625 99.65625 C-42.59513803 102.14050372 -42.58840994 104.62475668 -42.58139038 107.10900879 C-42.56939205 112.32789868 -42.56571188 117.54672228 -42.56689453 122.765625 C-42.56822353 129.4392245 -42.53986358 136.11233162 -42.50535011 142.78585052 C-42.48305481 147.92299329 -42.47905791 153.06003367 -42.48011398 158.19721985 C-42.47775937 160.65629037 -42.46894377 163.11536377 -42.45344925 165.5743866 C-42.43374942 169.02580174 -42.43964526 172.47630301 -42.45166016 175.92773438 C-42.44042114 176.93592224 -42.42918213 177.94411011 -42.41760254 178.98284912 C-42.50090287 188.44828658 -45.22327759 196.66685985 -51.8359375 203.6171875 C-58.18434995 208.73839754 -65.69270309 209.75151399 -73.625 209.84375 C-82.83366697 208.36688832 -91.00714436 203.9353568 -99.0625 199.4375 C-100.44888672 198.68146484 -100.44888672 198.68146484 -101.86328125 197.91015625 C-121.72222422 186.95832733 -121.72222422 186.95832733 -124.9375 177.3125 C-125.03492239 175.7571841 -125.07669449 174.19806842 -125.08467102 172.63972473 C-125.09182632 171.6795343 -125.09898163 170.71934387 -125.10635376 169.73005676 C-125.10904266 168.67807602 -125.11173157 167.62609528 -125.11450195 166.54223633 C-125.12107315 165.43298798 -125.12764435 164.32373962 -125.13441467 163.18087769 C-125.15415954 159.50209488 -125.1658134 155.82335293 -125.17578125 152.14453125 C-125.17985678 150.88852301 -125.1839323 149.63251476 -125.18813133 148.33844566 C-125.20684578 142.37544553 -125.2214097 136.41245838 -125.2297433 130.44943601 C-125.23950571 123.57832892 -125.26580022 116.70754483 -125.30624419 109.83655149 C-125.34011679 103.87625212 -125.35189446 97.91603128 -125.35594749 91.95563316 C-125.36081699 89.42512511 -125.37244119 86.89462059 -125.39098549 84.3641758 C-125.41534909 80.81910185 -125.41441631 77.27486849 -125.4074707 73.72973633 C-125.42028076 72.68787674 -125.43309082 71.64601715 -125.44628906 70.57258606 C-125.40194609 64.3508071 -124.6318158 59.45084147 -120.9375 54.3125 C-115.38674257 48.87669034 -108.03785599 45.46032781 -101.2890625 41.734375 C-96.94288046 39.32960491 -92.65286219 36.8364338 -88.375 34.3125 C-87.67415283 33.89967773 -86.97330566 33.48685547 -86.2512207 33.06152344 C-82.72396728 30.9779963 -79.20887137 28.8759721 -75.70703125 26.75 C-75.030354 26.34007812 -74.35367676 25.93015625 -73.65649414 25.5078125 C-72.3839899 24.73531643 -71.11349328 23.95949918 -69.84545898 23.1796875 C-67.41551807 21.70347533 -65.05775529 20.36052766 -62.4140625 19.3046875 C-59.21748238 18.02403868 -56.47527684 16.27095811 -53.5625 14.4375 C-49.67137327 11.99509826 -45.76650582 9.61057893 -41.76757812 7.34814453 C-39.82732013 6.25014901 -37.89607961 5.13721655 -35.96484375 4.0234375 C-34.60172273 3.2445112 -33.23844024 2.46586741 -31.875 1.6875 C-31.19373047 1.29304687 -30.51246094 0.89859375 -29.81054688 0.4921875 C-18.86935731 -5.72989149 -10.84223072 -6.66617309 0 0 Z " fill="#80CD0B" transform="translate(264.9375,129.6875)"/>
<path d="M0 0 C6.93528643 3.72809948 13.48274901 8.25461232 16 16 C16.37125 16.7425 16.7425 17.485 17.125 18.25 C18.39315086 22.235617 18.12459257 25.8261489 18 30 C12.72 30 7.44 30 2 30 C1.38125 28.288125 0.7625 26.57625 0.125 24.8125 C-2.38541789 19.23937229 -4.96191983 17.17567807 -10.5 14.8046875 C-21.30355967 11.32729173 -35.91381476 11.06811623 -46.3203125 15.734375 C-48.37753767 17.28447024 -49.08679867 18.60741252 -50 21 C-50.42704301 24.41634411 -50.47285602 26.24772905 -48.625 29.1875 C-39.62555581 35.40140194 -26.31371197 35.6779178 -15.73681641 37.22412109 C8.87625971 40.85456248 8.87625971 40.85456248 17.6953125 50.15625 C22.67178071 57.18886375 21.94094225 66.76289895 21 75 C18.75967074 82.60111713 13.23487481 87.65813375 6.45703125 91.40625 C-8.98433005 98.8982504 -29.4812046 99.74120143 -46 95.375 C-56.09218312 91.80718248 -64.7197235 86.58220408 -70.09375 77.0625 C-72.34622238 71.89015601 -72.56521477 66.57606112 -72 61 C-71 60 -71 60 -67.62109375 59.90234375 C-66.22652923 59.90901631 -64.83198257 59.92097468 -63.4375 59.9375 C-62.72658203 59.94201172 -62.01566406 59.94652344 -61.28320312 59.95117188 C-59.52209987 59.96299136 -57.76103964 59.98092737 -56 60 C-55.5875 61.175625 -55.175 62.35125 -54.75 63.5625 C-52.85173464 68.56540497 -51.02253221 73.37073794 -46.75 76.8125 C-33.96394817 82.33374965 -16.35908509 82.09456111 -3.38671875 77.26171875 C0.12487356 75.40534507 1.61481919 73.71811692 3 70 C3.32268559 66.19231005 3.20643566 63.61930698 2 60 C-0.46831706 59.14686704 -2.77645866 58.50228264 -5.3125 57.9375 C-6.04017578 57.76686035 -6.76785156 57.5962207 -7.51757812 57.42041016 C-15.58414815 55.56694365 -23.64466781 54.25283977 -31.87304688 53.35668945 C-43.22992373 52.08212983 -56.59744956 50.26906103 -64.55859375 41.23046875 C-69.9756412 33.94124059 -69.97220419 25.73648941 -69 17 C-66.89571065 9.61959004 -61.45902631 4.8139956 -55 1 C-51.39803649 -0.58428609 -47.76148555 -1.85305523 -44 -3 C-31.51918557 -7.16027148 -11.91720166 -5.50937488 0 0 Z " fill="#80CC0B" transform="translate(302,205)"/>
<path d="M0 0 C2.45862401 -0.05383848 4.9160755 -0.09359038 7.375 -0.125 C8.42300781 -0.15013672 8.42300781 -0.15013672 9.4921875 -0.17578125 C11.32897486 -0.19344267 13.16601963 -0.10303261 15 0 C17.4506529 2.4506529 17.25086001 3.08834165 17.25396729 6.4520874 C17.25960693 7.38855103 17.26524658 8.32501465 17.27105713 9.28985596 C17.26700867 10.32052185 17.26296021 11.35118774 17.25878906 12.41308594 C17.2622937 13.49614014 17.26579834 14.57919434 17.26940918 15.69506836 C17.2782436 19.29156827 17.27236961 22.88787292 17.265625 26.484375 C17.26697155 28.97821083 17.268912 31.47204641 17.27142334 33.96588135 C17.27437724 39.20155846 17.27025983 44.43718452 17.26074219 49.67285156 C17.25107906 55.05049253 17.25104421 60.42802315 17.26074219 65.80566406 C17.27233905 72.29187701 17.27415016 78.77800903 17.26763153 85.26422882 C17.26629739 87.73775501 17.26793452 90.21128465 17.27259064 92.68480682 C17.27767433 96.14640903 17.26991832 99.60775294 17.25878906 103.06933594 C17.26283752 104.09190491 17.26688599 105.11447388 17.27105713 106.16802979 C17.24123462 111.17970208 16.99327281 115.3059965 15 120 C14.67 120 14.34 120 14 120 C14 81.06 14 42.12 14 2 C8.06 2.495 8.06 2.495 2 3 C1.99191315 4.32940109 1.98382629 5.65880219 1.97549438 7.02848816 C1.89804488 19.55045643 1.81030844 32.07231588 1.71247292 44.59414196 C1.66250483 51.03189624 1.61617464 57.46963407 1.578125 63.9074707 C1.54127895 70.11911178 1.4949205 76.3306154 1.44193649 82.54213905 C1.423389 84.91319686 1.40828236 87.28428413 1.39665604 89.65538597 C1.37979998 92.97376997 1.35076578 96.2918389 1.31884766 99.61010742 C1.31668747 100.59266006 1.31452728 101.57521271 1.31230164 102.58753967 C1.23492244 108.8756728 0.80755303 112.91436189 -3.4375 117.8125 C-7.79881996 121.20345293 -12.75813085 120.56428053 -18 120 C-22.50362493 119.32076476 -25.92503038 118.53621506 -29 115 C-31.10332891 114.28552357 -31.10332891 114.28552357 -33 114 C-33.33 112.68 -33.66 111.36 -34 110 C-33.05640625 110.49371094 -32.1128125 110.98742187 -31.140625 111.49609375 C-23.04234654 115.58706402 -16.26559624 118.12078058 -7 118 C-7 117.34 -7 116.68 -7 116 C-5.78240997 115.02676033 -5.78240997 115.02676033 -4.54022217 114.03385925 C-0.86531134 109.64480921 -1.29963534 106.01914838 -1.35644531 100.45825195 C-1.3475679 99.39759521 -1.33869049 98.33693848 -1.32954407 97.24414062 C-1.30586201 93.74186906 -1.31705266 90.24060075 -1.328125 86.73828125 C-1.31754883 84.30640064 -1.30463882 81.87452915 -1.28948975 79.44267273 C-1.25525303 73.04337164 -1.24990839 66.64437533 -1.25140381 60.24499512 C-1.24817972 51.21333515 -1.20556106 42.18176039 -1.16766357 33.15019226 C-1.14759575 28.33912657 -1.13831336 23.52822313 -1.13751221 18.71711731 C-1.13369307 16.52926631 -1.12984922 14.34141536 -1.12597656 12.15356445 C-1.12807632 11.14937973 -1.13017609 10.14519501 -1.13233948 9.11058044 C-1.12977646 8.19791412 -1.12721344 7.2852478 -1.12457275 6.34492493 C-1.1246143 5.54945912 -1.12465584 4.75399332 -1.12469864 3.93442249 C-1 2 -1 2 0 0 Z " fill="#7CB71D" transform="translate(205,203)"/>
<path d="M0 0 C2.79192205 -0.05380578 5.5828141 -0.09357669 8.375 -0.125 C9.1690625 -0.14175781 9.963125 -0.15851563 10.78125 -0.17578125 C12.85492015 -0.19335473 14.92883241 -0.10335168 17 0 C19.47192591 2.47192591 19.25385606 3.17384713 19.26742554 6.57702637 C19.27595551 7.54136597 19.28448547 8.50570557 19.29327393 9.49926758 C19.29236755 10.56105225 19.29146118 11.62283691 19.29052734 12.71679688 C19.29724457 13.83244019 19.30396179 14.9480835 19.31088257 16.09753418 C19.32995733 19.80465086 19.33379236 23.51158722 19.3359375 27.21875 C19.34236176 29.79268468 19.34908984 32.36661863 19.35610962 34.94055176 C19.36810816 40.34775797 19.37187357 45.75489247 19.37060547 51.16210938 C19.3694078 57.39346607 19.39042969 63.62447428 19.4220928 69.85574293 C19.45151838 75.86252775 19.45857806 81.86912538 19.45738602 87.87599182 C19.45974124 90.42437659 19.46856024 92.97276412 19.48405075 95.52110291 C19.50374129 99.09703996 19.4978583 102.67209429 19.48583984 106.24804688 C19.49707886 107.2936377 19.50831787 108.33922852 19.51989746 109.41650391 C19.46076635 116.37282109 18.02710867 121.73934836 15 128 C14.01 128 13.02 128 12 128 C12.268125 127.34 12.53625 126.68 12.8125 126 C13.204375 125.01 13.59625 124.02 14 123 C14.76821075 121.27287025 14.76821075 121.27287025 15.55194092 119.510849 C17.48466563 114.30874905 17.40623068 109.32076167 17.35644531 103.82641602 C17.35848969 102.73445419 17.36053406 101.64249237 17.36264038 100.5174408 C17.36563441 96.92942236 17.34721843 93.3418696 17.328125 89.75390625 C17.32506606 87.25666925 17.32319096 84.75943054 17.32244873 82.26219177 C17.31726774 76.37389871 17.29803916 70.48577622 17.27259898 64.59753889 C17.24757505 58.55722074 17.24157248 52.51695651 17.2375679 46.47659397 C17.23342297 41.32696814 17.22361495 36.17736707 17.21169281 31.02775383 C17.20597947 28.55288835 17.20122431 26.07802048 17.19742584 23.60315132 C17.19059123 20.1579984 17.17697496 16.71294403 17.16113281 13.26782227 C17.16001495 12.23670319 17.15889709 11.20558411 17.15774536 10.14321899 C17.15203522 9.21102036 17.14632507 8.27882172 17.14044189 7.31837463 C17.13746723 6.50376046 17.13449257 5.68914629 17.13142776 4.84984684 C17.20185203 2.98344646 17.20185203 2.98344646 16 2 C13.47403741 1.76346477 10.96892793 1.57826308 8.4375 1.4375 C7.72658203 1.39431641 7.01566406 1.35113281 6.28320312 1.30664062 C4.52238088 1.20028223 2.7612168 1.09961154 1 1 C0.99780016 1.85118298 0.99780016 1.85118298 0.99555588 2.71956158 C0.95848963 16.53277235 0.8992251 30.34573465 0.81609726 44.15874767 C0.77656777 50.83868356 0.74440604 57.51844784 0.72900391 64.19848633 C0.71387358 70.64363711 0.67949187 77.08842262 0.63169098 83.53341103 C0.61683986 85.99377584 0.60895686 88.45419279 0.60811615 90.91460228 C0.60575607 94.35777222 0.57875181 97.79992484 0.54589844 101.24291992 C0.5509288 102.26287552 0.55595917 103.28283112 0.56114197 104.33369446 C0.49564356 108.76298012 0.41322421 111.3133594 -1.90911865 115.1723175 C-4 117 -4 117 -6 117 C-6 117.66 -6 118.32 -6 119 C-9.96 119 -13.92 119 -18 119 C-18 118.67 -18 118.34 -18 118 C-16.98679688 117.94392578 -16.98679688 117.94392578 -15.953125 117.88671875 C-15.06109375 117.82097656 -14.1690625 117.75523437 -13.25 117.6875 C-12.36828125 117.62949219 -11.4865625 117.57148438 -10.578125 117.51171875 C-7.6187432 116.9243263 -6.17822436 116.06538841 -4 114 C-3.67 113.01 -3.34 112.02 -3 111 C-2.34 111 -1.68 111 -1 111 C-1.00092179 110.44008677 -1.00184359 109.88017353 -1.00279331 109.30329323 C-1.024859 95.69157201 -1.04135288 82.07985392 -1.05181217 68.46811867 C-1.05703962 61.88564006 -1.06413479 55.30317432 -1.07543945 48.72070312 C-1.0862732 42.37299853 -1.09227788 36.02530635 -1.09487724 29.67759323 C-1.09673061 27.25099873 -1.10034953 24.82440494 -1.10573006 22.3978157 C-1.11294692 19.0094987 -1.11399066 15.62123355 -1.11352539 12.23291016 C-1.11712067 11.22087021 -1.12071594 10.20883026 -1.12442017 9.16612244 C-1.1230455 8.24623032 -1.12167084 7.3263382 -1.12025452 6.37857056 C-1.12117631 5.57661066 -1.1220981 4.77465076 -1.12304783 3.94838905 C-1 2 -1 2 0 0 Z " fill="#3F511F" transform="translate(204,202)"/>
<path d="M0 0 C2.45862401 -0.05383848 4.9160755 -0.09359038 7.375 -0.125 C8.42300781 -0.15013672 8.42300781 -0.15013672 9.4921875 -0.17578125 C11.32897486 -0.19344267 13.16601963 -0.10303261 15 0 C17.4506529 2.4506529 17.25086001 3.08834165 17.25396729 6.4520874 C17.25960693 7.38855103 17.26524658 8.32501465 17.27105713 9.28985596 C17.26700867 10.32052185 17.26296021 11.35118774 17.25878906 12.41308594 C17.2622937 13.49614014 17.26579834 14.57919434 17.26940918 15.69506836 C17.2782436 19.29156827 17.27236961 22.88787292 17.265625 26.484375 C17.26697155 28.97821083 17.268912 31.47204641 17.27142334 33.96588135 C17.27437724 39.20155846 17.27025983 44.43718452 17.26074219 49.67285156 C17.25107906 55.05049253 17.25104421 60.42802315 17.26074219 65.80566406 C17.27233905 72.29187701 17.27415016 78.77800903 17.26763153 85.26422882 C17.26629739 87.73775501 17.26793452 90.21128465 17.27259064 92.68480682 C17.27767433 96.14640903 17.26991832 99.60775294 17.25878906 103.06933594 C17.26283752 104.09190491 17.26688599 105.11447388 17.27105713 106.16802979 C17.24123462 111.17970208 16.99327281 115.3059965 15 120 C14.67 120 14.34 120 14 120 C14 81.06 14 42.12 14 2 C9.38 2 4.76 2 0 2 C0 1.34 0 0.68 0 0 Z " fill="#71AA1C" transform="translate(205,203)"/>
<path d="M0 0 C0.66 0.33 1.32 0.66 2 1 C1.99078207 1.55622606 1.98156414 2.11245213 1.97206688 2.68553352 C1.75104223 16.23153279 1.58629788 29.77721548 1.48187828 43.32463264 C1.42968279 49.87628475 1.35888816 56.42663584 1.24560547 62.97753906 C1.13696648 69.29945529 1.07716158 75.62012021 1.05122757 81.9428978 C1.03274647 84.35522036 0.99665506 86.76747418 0.94269943 89.17926407 C0.87010191 92.55867778 0.86010725 95.93292055 0.86474609 99.31298828 C0.82879333 100.31064713 0.79284058 101.30830597 0.75579834 102.3361969 C0.79866626 105.22196143 0.92271058 107.3176285 2 110 C4.46051294 112.08527777 6.85348294 113.46817211 9.75475502 114.86790276 C12 116 12 116 13 118 C11.22888156 117.52188823 9.45811517 117.0424722 7.6875 116.5625 C6.70136719 116.29566406 5.71523437 116.02882813 4.69921875 115.75390625 C2.78482474 115.21920575 0.88566385 114.62855462 -1 114 C-1.17717014 99.43168035 -1.34271592 84.86326867 -1.49477577 70.29466438 C-1.56558355 63.5305153 -1.64017953 56.76644727 -1.72363281 50.00244141 C-1.80409814 43.47975752 -1.87408716 36.95701083 -1.93757248 30.43413925 C-1.96357695 27.940521 -1.99314397 25.44693737 -2.02626419 22.95340347 C-2.07191198 19.47172574 -2.10510497 15.99014224 -2.13525391 12.50830078 C-2.1517952 11.46820862 -2.16833649 10.42811646 -2.18537903 9.35650635 C-2.19104385 8.41137177 -2.19670868 7.46623718 -2.20254517 6.49246216 C-2.2117631 5.66837923 -2.22098103 4.8442963 -2.23047829 3.99524117 C-2 2 -2 2 0 0 Z " fill="#7DB81B" transform="translate(155,194)"/>
<path d="M0 0 C0.66 0.33 1.32 0.66 2 1 C1.34 3.31 0.68 5.62 0 8 C-1.32 8.33 -2.64 8.66 -4 9 C-4.96082759 15.43403204 -5.13646775 21.69001695 -5.11352539 28.18945312 C-5.11367142 29.28302124 -5.11381744 30.37658936 -5.1139679 31.5032959 C-5.11327462 35.09596787 -5.1055097 38.68858715 -5.09765625 42.28125 C-5.09578999 44.7808835 -5.09436707 47.28051737 -5.09336853 49.78015137 C-5.08994844 55.67311095 -5.08207746 61.56605126 -5.07201904 67.45900297 C-5.05970964 74.83204031 -5.05436646 82.20508001 -5.04882812 89.578125 C-5.03811969 102.71875949 -5.02125659 115.85937856 -5 129 C-7.12998075 125.80502887 -7.25270484 124.99409892 -7.26742554 121.32722473 C-7.27595551 120.3670343 -7.28448547 119.40684387 -7.29327393 118.41755676 C-7.29191437 116.83958565 -7.29191437 116.83958565 -7.29052734 115.22973633 C-7.30060318 113.5658638 -7.30060318 113.5658638 -7.31088257 111.86837769 C-7.32992929 108.18955034 -7.33379055 104.51090488 -7.3359375 100.83203125 C-7.34236219 98.27715479 -7.3490903 95.72227907 -7.35610962 93.16740417 C-7.3681001 87.80486041 -7.3718743 82.44238459 -7.37060547 77.07983398 C-7.36940606 70.89442695 -7.39046596 64.70937001 -7.4220928 58.52405149 C-7.45147651 52.5637357 -7.4585793 46.60352595 -7.45738602 40.64313316 C-7.45974414 38.11263286 -7.46857945 35.5821299 -7.48405075 33.0516758 C-7.50369066 29.50656961 -7.49787885 25.96235754 -7.48583984 22.41723633 C-7.49707886 21.37537674 -7.50831787 20.33351715 -7.51989746 19.26008606 C-7.45922849 12.21403716 -6.35022661 6.51888183 -1.36517906 1.28287983 C-0.91466997 0.85952949 -0.46416088 0.43617914 0 0 Z " fill="#7CB724" transform="translate(147,181)"/>
<path d="M0 0 C0.66 0 1.32 0 2 0 C2 0.66 2 1.32 2 2 C3.423125 2.433125 3.423125 2.433125 4.875 2.875 C8 4 8 4 10 6 C12.06874034 6.6425235 12.06874034 6.6425235 14 7 C14.23379287 21.23818526 14.40936846 35.47607224 14.51812172 49.71578407 C14.57031826 56.32796403 14.64111508 62.93885498 14.75439453 69.55029297 C14.86302937 75.9305627 14.92283762 82.30959264 14.94877243 88.69071579 C14.96725424 91.1253652 15.00334697 93.55994647 15.05730057 95.99406815 C15.12989205 99.40460133 15.13989292 102.81001035 15.13525391 106.22119141 C15.17120667 107.22820099 15.20715942 108.23521057 15.24420166 109.2727356 C15.20145056 112.17680393 15.07032081 114.29575886 14 117 C10.70631761 119.94735698 6.5734466 123 2 123 C3 120 3 120 5.9375 118.3125 C9 117 9 117 11 117 C11 116.34 11 115.68 11 115 C11.66 115 12.32 115 13 115 C13 80.02 13 45.04 13 9 C11.02 8.34 9.04 7.68 7 7 C7 6.34 7 5.68 7 5 C6.21625 4.9175 5.4325 4.835 4.625 4.75 C2 4 2 4 0.6875 1.9375 C0.460625 1.298125 0.23375 0.65875 0 0 Z " fill="#4C6121" transform="translate(330,188)"/>
<path d="M0 0 C-0.66 1.32 -1.32 2.64 -2 4 C-2.66 4 -3.32 4 -4 4 C-3.67 5.98 -3.34 7.96 -3 10 C-3.66 10 -4.32 10 -5 10 C-4.91542799 22.08347585 -4.82047959 34.16682211 -4.71247292 46.25011253 C-4.66263709 51.86154101 -4.61630627 57.47295182 -4.578125 63.08447266 C-4.54111119 68.50511605 -4.49470834 73.92560685 -4.44193649 79.34611893 C-4.42347779 81.40881281 -4.40833877 83.47153929 -4.39665604 85.53428268 C-4.37964692 88.43495894 -4.35057796 91.33529219 -4.31884766 94.23583984 C-4.31668747 95.07885651 -4.31452728 95.92187317 -4.31230164 96.79043579 C-4.23017379 102.71030857 -3.33238712 108.23579329 -2 114 C-3.32 113.34 -4.64 112.68 -6 112 C-6.09340071 97.84004261 -6.16369229 83.68013292 -6.20724869 69.51993084 C-6.22815039 62.9452263 -6.25651563 56.37072825 -6.30175781 49.79614258 C-6.34512271 43.45489781 -6.36911763 37.11385204 -6.37950897 30.77247047 C-6.38691713 28.34946369 -6.4013829 25.92646815 -6.42292023 23.50354576 C-6.45182905 20.11760029 -6.45596115 16.73248396 -6.45410156 13.34643555 C-6.46848267 12.33799088 -6.48286377 11.3295462 -6.49768066 10.2905426 C-6.49218201 9.36927582 -6.48668335 8.44800903 -6.48101807 7.49882507 C-6.48470524 6.69778697 -6.48839241 5.89674887 -6.49219131 5.07143688 C-6 3 -6 3 -4.09493637 1.21882343 C-2 0 -2 0 0 0 Z " fill="#496023" transform="translate(162,192)"/>
<path d="M0 0 C3.3666837 0.30606215 5.56154387 0.7000037 8.375 2.625 C10.67215956 5.98238705 10.55124318 8.00348696 10 12 C7.59627213 17.33000528 4.49401198 19.10420723 -0.68359375 21.23828125 C-6.6579292 23.20286036 -12.45923101 23.21662682 -18.6875 23.25 C-20.10192383 23.2809375 -20.10192383 23.2809375 -21.54492188 23.3125 C-28.17924269 23.34897737 -33.76547498 22.25534857 -40 20 C-40 19.67 -40 19.34 -40 19 C-39.030625 19.0721875 -38.06125 19.144375 -37.0625 19.21875 C-23.25176425 20.19567052 -9.64193856 20.89374454 4 18 C4 16.68 4 15.36 4 14 C4.99 13.67 5.98 13.34 7 13 C7.93786082 7.94990405 7.93786082 7.94990405 7 3 C6.030625 2.87625 5.06125 2.7525 4.0625 2.625 C3.051875 2.41875 2.04125 2.2125 1 2 C0.505 1.01 0.505 1.01 0 0 Z " fill="#445925" transform="translate(296,263)"/>
<path d="M0 0 C2.31 0 4.62 0 7 0 C3.07767685 3.34906054 -0.99668943 5.80166643 -5.5 8.25 C-10.68529683 11.11316756 -15.78689578 14.05176372 -20.8125 17.1875 C-27.95398947 21.63207916 -35.12304683 25.98987861 -43 29 C-43 28.01 -43 27.02 -43 26 C-42.195625 25.71125 -41.39125 25.4225 -40.5625 25.125 C-37.8673532 24.26737432 -37.8673532 24.26737432 -37 22 C-35.68 22 -34.36 22 -33 22 C-33 21.34 -33 20.68 -33 20 C-31.56570999 19.32645501 -30.12742943 18.66140299 -28.6875 18 C-27.88699219 17.62875 -27.08648437 17.2575 -26.26171875 16.875 C-24 16 -24 16 -21 16 C-20.67 15.01 -20.34 14.02 -20 13 C-17.9375 12.3125 -17.9375 12.3125 -16 12 C-16 11.01 -16 10.02 -16 9 C-11.375 6.875 -11.375 6.875 -8 8 C-8 7.01 -8 6.02 -8 5 C-5.625 3.9375 -5.625 3.9375 -3 3 C-2.34 3.33 -1.68 3.66 -1 4 C-0.67 2.68 -0.34 1.36 0 0 Z " fill="#80BE1E" transform="translate(337,323)"/>
<path d="M0 0 C1.04857178 -0.00128906 2.09714355 -0.00257813 3.17749023 -0.00390625 C9.72030748 0.08701644 15.826789 0.84066055 22.1875 2.375 C22.1875 3.035 22.1875 3.695 22.1875 4.375 C22.744375 4.49875 23.30125 4.6225 23.875 4.75 C26.4493003 5.44575684 28.78630886 6.20685296 31.1875 7.375 C31.6825 8.86 31.6825 8.86 32.1875 10.375 C31.4759375 10.08753906 30.764375 9.80007812 30.03125 9.50390625 C27.26174933 8.40447535 24.48262232 7.34496793 21.6875 6.3125 C20.7696875 5.97089844 19.851875 5.62929687 18.90625 5.27734375 C12.03175984 2.99572417 5.3035105 3.156059 -1.875 3.125 C-3.62200195 3.0940625 -3.62200195 3.0940625 -5.40429688 3.0625 C-13.2999944 3.02731026 -20.25735171 4.08383325 -27.8125 6.375 C-27.8125 5.715 -27.8125 5.055 -27.8125 4.375 C-18.49840975 0.98255087 -9.89150373 -0.01169295 0 0 Z " fill="#455822" transform="translate(276.8125,198.625)"/>
<path d="M0 0 C5.88907191 -0.210324 11.54012207 0.20748259 17.375 0.9375 C18.07689453 1.02435059 18.77878906 1.11120117 19.50195312 1.20068359 C22.4672844 1.5881822 25.15506958 2.05168986 28 3 C29.93566044 3.15083068 31.8736757 3.27257155 33.8125 3.375 C38.56009835 3.73579457 41.90088368 4.4380523 46 7 C46.763125 7.350625 47.52625 7.70125 48.3125 8.0625 C50 9 50 9 51 11 C51.06950541 12.54023996 51.08452357 14.08334988 51.0625 15.625 C51.05347656 16.44226563 51.04445313 17.25953125 51.03515625 18.1015625 C51.02355469 18.72804688 51.01195312 19.35453125 51 20 C50.67 20 50.34 20 50 20 C49.855625 18.906875 49.71125 17.81375 49.5625 16.6875 C49.11711896 13.06877013 49.11711896 13.06877013 48 10 C45.53168294 9.14686704 43.22354134 8.50228264 40.6875 7.9375 C39.95982422 7.76686035 39.23214844 7.5962207 38.48242188 7.42041016 C30.99032102 5.69894019 23.47959893 4.3981996 15.84375 3.5078125 C15.12445313 3.42289551 14.40515625 3.33797852 13.6640625 3.25048828 C12.25350687 3.08721774 10.84204205 2.93156617 9.4296875 2.78466797 C5.90291029 2.38509535 3.04848824 1.86642137 0 0 Z " fill="#79AC25" transform="translate(256,255)"/>
<path d="M0 0 C-0.96679688 0.58007812 -1.93359375 1.16015625 -2.9296875 1.7578125 C-3.86868896 2.32133423 -3.86868896 2.32133423 -4.82666016 2.89624023 C-6.1984437 3.71914686 -7.57051676 4.54157102 -8.94287109 5.36352539 C-11.98442109 7.18594763 -15.02190646 9.01339664 -18.046875 10.86328125 C-18.89765625 11.38277344 -19.7484375 11.90226562 -20.625 12.4375 C-21.35976563 12.88996094 -22.09453125 13.34242188 -22.8515625 13.80859375 C-25 15 -25 15 -27.6015625 16.03125 C-30.18632839 16.95589546 -30.18632839 16.95589546 -32.75 19.0625 C-36.84437678 21.50337846 -40.31228021 21.7916569 -45 22 C-45 21.67 -45 21.34 -45 21 C-41.04 20.505 -41.04 20.505 -37 20 C-37 19.34 -37 18.68 -37 18 C-35.02 17.34 -33.04 16.68 -31 16 C-31 15.34 -31 14.68 -31 14 C-23.57142857 10.71428571 -23.57142857 10.71428571 -20 10 C-20 9.34 -20 8.68 -20 8 C-19.38511719 7.74605469 -18.77023437 7.49210937 -18.13671875 7.23046875 C-17.32847656 6.88628906 -16.52023437 6.54210937 -15.6875 6.1875 C-14.48673828 5.68283203 -14.48673828 5.68283203 -13.26171875 5.16796875 C-11.01222192 4.00631149 -9.7429243 2.79647784 -8 1 C-2.49438202 -1.24719101 -2.49438202 -1.24719101 0 0 Z " fill="#496025" transform="translate(292,335)"/>
<path d="M0 0 C3.18742115 -0.05865035 6.37470118 -0.09381259 9.5625 -0.125 C10.45775391 -0.14175781 11.35300781 -0.15851563 12.27539062 -0.17578125 C19.18392939 -0.22639326 24.86877922 0.56651636 31 4 C31 4.99 31 5.98 31 7 C31.99 7.33 32.98 7.66 34 8 C35.25 9.875 35.25 9.875 36 12 C35.67 12.99 35.34 13.98 35 15 C34.71125 14.113125 34.4225 13.22625 34.125 12.3125 C30.82234291 7.16424042 25.59346392 4.96578262 19.76171875 3.3984375 C15.74884144 2.81949339 11.73491573 2.63236374 7.6875 2.4375 C6.85154297 2.39431641 6.01558594 2.35113281 5.15429688 2.30664062 C3.10303065 2.20114693 1.0515352 2.10012685 -1 2 C-0.67 1.34 -0.34 0.68 0 0 Z " fill="#7EB822" transform="translate(267,215)"/>
<path d="M0 0 C10.72604479 5.09337323 10.72604479 5.09337323 15.6796875 8.40234375 C24.96091732 14.55713712 31.56186229 16.58646186 42.8671875 14.4609375 C43.92292969 14.23277344 43.92292969 14.23277344 45 14 C44.625 15.9375 44.625 15.9375 44 18 C43.01 18.495 43.01 18.495 42 19 C42 18.34 42 17.68 42 17 C41.28714844 17.09539062 40.57429688 17.19078125 39.83984375 17.2890625 C31.0544699 18.30594292 24.94997277 16.56937553 17 13 C17 12.34 17 11.68 17 11 C16.34 10.7525 15.68 10.505 15 10.25 C11.23639093 8.68182955 7.6288576 6.85494954 4 5 C4 4.34 4 3.68 4 3 C2.68 2.67 1.36 2.34 0 2 C0 1.34 0 0.68 0 0 Z " fill="#445A22" transform="translate(216,358)"/>
<path d="M0 0 C1.32 0.33 2.64 0.66 4 1 C4 1.66 4 2.32 4 3 C5.2375 3.3403125 5.2375 3.3403125 6.5 3.6875 C10.01099491 5.00412309 12.7558462 6.62866556 15.8828125 8.65234375 C23.61903762 13.57669369 31.92261242 17.66792351 40 22 C38.3671875 22.70703125 38.3671875 22.70703125 36 23 C33.1953125 21.63671875 33.1953125 21.63671875 30.125 19.6875 C26.1412023 17.17597536 22.52676711 15.33100466 18 14 C18 13.34 18 12.68 18 12 C17.28972656 11.81824219 16.57945312 11.63648438 15.84765625 11.44921875 C14.92855469 11.19785156 14.00945312 10.94648438 13.0625 10.6875 C12.14597656 10.44386719 11.22945313 10.20023438 10.28515625 9.94921875 C9.53105469 9.63597656 8.77695312 9.32273438 8 9 C7.67 8.01 7.34 7.02 7 6 C6.01 5.505 5.02 5.01 4 4.5 C1 3 1 3 0 0 Z " fill="#84C41B" transform="translate(280,139)"/>
<path d="M0 0 C1.39456452 0.00667256 2.78911118 0.01863093 4.18359375 0.03515625 C4.89451172 0.03966797 5.60542969 0.04417969 6.33789062 0.04882812 C8.09899388 0.06064761 9.86005411 0.07858362 11.62109375 0.09765625 C13.38164249 4.73910294 15.08636407 9.37541109 16.62109375 14.09765625 C14.18359375 13.47265625 14.18359375 13.47265625 11.62109375 12.09765625 C10.80859375 8.97265625 10.80859375 8.97265625 10.62109375 6.09765625 C8.97109375 5.76765625 7.32109375 5.43765625 5.62109375 5.09765625 C5.62109375 4.43765625 5.62109375 3.77765625 5.62109375 3.09765625 C7.27109375 2.76765625 8.92109375 2.43765625 10.62109375 2.09765625 C6.00109375 2.09765625 1.38109375 2.09765625 -3.37890625 2.09765625 C-3.37890625 5.06765625 -3.37890625 8.03765625 -3.37890625 11.09765625 C-3.70890625 11.09765625 -4.03890625 11.09765625 -4.37890625 11.09765625 C-4.40578776 9.45191059 -4.42524748 7.80604212 -4.44140625 6.16015625 C-4.45300781 5.24363281 -4.46460938 4.32710938 -4.4765625 3.3828125 C-4.3190922 -0.30199259 -3.80656158 0.11001623 0 0 Z " fill="#77AC1F" transform="translate(234.37890625,264.90234375)"/>
<path d="M0 0 C0.94359375 0.49371094 1.8871875 0.98742187 2.859375 1.49609375 C10.95765346 5.58706402 17.73440376 8.12078058 27 8 C27 7.34 27 6.68 27 6 C29.5 4.375 29.5 4.375 32 3 C30.70332499 5.89258273 29.50213025 8.02287029 27 10 C20.58053901 10.96447475 14.10156116 10.07017254 8 8 C6.25 6.4375 6.25 6.4375 5 5 C2.89667109 4.28552357 2.89667109 4.28552357 1 4 C0.67 2.68 0.34 1.36 0 0 Z " fill="#7BB320" transform="translate(171,313)"/>
<path d="M0 0 C0 0.99 0 1.98 0 3 C-3.97839268 4.30114236 -8.02157595 4.17990284 -12.16015625 4.203125 C-12.94643906 4.20882507 -13.73272186 4.21452515 -14.54283142 4.22039795 C-16.2011481 4.22982342 -17.8594833 4.23637216 -19.51782227 4.24023438 C-22.05713169 4.2499794 -24.59564463 4.28104056 -27.13476562 4.3125 C-28.74739104 4.31902678 -30.36002222 4.32427853 -31.97265625 4.328125 C-32.73208023 4.3404718 -33.49150421 4.3528186 -34.27394104 4.36553955 C-39.54822513 4.34317037 -39.54822513 4.34317037 -42.00170898 2.47949219 C-42.33114502 1.99125977 -42.66058105 1.50302734 -43 1 C-41.35451172 1.23976563 -41.35451172 1.23976563 -39.67578125 1.484375 C-34.51384827 2.12464995 -29.3847354 2.23169988 -24.1875 2.25 C-22.7319873 2.25592163 -22.7319873 2.25592163 -21.24707031 2.26196289 C-15.10369255 2.21192026 -9.65231905 1.67221256 -3.828125 -0.44140625 C-2 -1 -2 -1 0 0 Z " fill="#7EBA20" transform="translate(301,283)"/>
<path d="M0 0 C0 0.66 0 1.32 0 2 C-0.639375 2.61875 -1.27875 3.2375 -1.9375 3.875 C-4.03417231 6.03520783 -4.58396674 7.08776721 -5 10 C-5.99 9.67 -6.98 9.34 -8 9 C-8.66 9.66 -9.32 10.32 -10 11 C-11.33333333 11.33333333 -12.66666667 11.66666667 -14 12 C-14.66 12.66 -15.32 13.32 -16 14 C-18.125 13.625 -18.125 13.625 -20 13 C-17.94005539 11.39245904 -15.87719524 9.7889195 -13.8125 8.1875 C-12.9452832 7.50977539 -12.9452832 7.50977539 -12.06054688 6.81835938 C-3.25142564 0 -3.25142564 0 0 0 Z " fill="#5A5B55" transform="translate(148,83)"/>
<path d="M0 0 C2 1 4 2 6 3 C6.94190186 3.46442505 6.94190186 3.46442505 7.90283203 3.93823242 C11.28877572 5.61366917 14.63113125 7.33363402 17.9296875 9.17578125 C27.25904262 14.28471381 35.38109993 16.43516489 46 17 C46 17.33 46 17.66 46 18 C30.40701605 18.65989117 18.5184793 14.53660977 6 5 C4.01549844 3.96958573 2.01800895 2.96314063 0 2 C0 1.34 0 0.68 0 0 Z " fill="#435B20" transform="translate(154,322)"/>
<path d="M0 0 C0.66 0.33 1.32 0.66 2 1 C-11.84821429 13.375 -11.84821429 13.375 -18.0625 13.375 C-19.031875 13.25125 -20.00125 13.1275 -21 13 C-16.57947448 9.57536299 -11.80897366 6.83662963 -7 4 C-5.94232422 3.3503125 -5.94232422 3.3503125 -4.86328125 2.6875 C-3.27772087 1.73018052 -1.64269856 0.85557217 0 0 Z " fill="#4A5A2C" transform="translate(297,350)"/>
<path d="M0 0 C1.32 0 2.64 0 4 0 C4 0.66 4 1.32 4 2 C5.423125 2.37125 5.423125 2.37125 6.875 2.75 C9.90196733 3.58647805 12.59389621 4.73933411 15.4375 6.0625 C22.33047556 8.93724485 29.63529896 8.81725308 37 9 C32.27785458 12.14809695 27.52793759 11.53089437 22 11 C14.06369109 9.08396383 7.01385477 5.06993507 0 1 C0 0.67 0 0.34 0 0 Z " fill="#7CB325" transform="translate(166,328)"/>
<path d="M0 0 C2.31 0 4.62 0 7 0 C3.19617654 3.19146552 -0.72764213 5.81572676 -5 8.3125 C-5.90492188 8.8703418 -5.90492188 8.8703418 -6.828125 9.43945312 C-9.75090381 11.14546641 -11.51989824 12.04405189 -14.9375 11.73046875 C-15.618125 11.48941406 -16.29875 11.24835938 -17 11 C-16 9 -16 9 -13.625 7.8125 C-11 7 -11 7 -8 8 C-8 7.01 -8 6.02 -8 5 C-5.625 3.9375 -5.625 3.9375 -3 3 C-2.34 3.33 -1.68 3.66 -1 4 C-0.67 2.68 -0.34 1.36 0 0 Z " fill="#83C21C" transform="translate(337,323)"/>
<path d="M0 0 C2.64 0.66 5.28 1.32 8 2 C7.67 2.66 7.34 3.32 7 4 C10.29075996 3.62095792 10.29075996 3.62095792 13 2 C14.99958364 1.95919217 17.00045254 1.95745644 19 2 C18.67 3.32 18.34 4.64 18 6 C16.35 6.33 14.7 6.66 13 7 C13 7.66 13 8.32 13 9 C7.50151887 7.65890704 3.907435 4.96523729 0 1 C0 0.67 0 0.34 0 0 Z " fill="#81C912" transform="translate(237,288)"/>
<path d="M0 0 C0.66 0.99 1.32 1.98 2 3 C4.05925139 3.72382467 4.05925139 3.72382467 6 4 C6 4.66 6 5.32 6 6 C7.65 6.66 9.3 7.32 11 8 C10.01 8.495 10.01 8.495 9 9 C6.3984375 8.00390625 6.3984375 8.00390625 3.375 6.5625 C2.37210937 6.08941406 1.36921875 5.61632812 0.3359375 5.12890625 C-0.43492187 4.75636719 -1.20578125 4.38382813 -2 4 C-2 3.34 -2 2.68 -2 2 C-3.98 2.33 -5.96 2.66 -8 3 C-8 3.66 -8 4.32 -8 5 C-9.98 5.33 -11.96 5.66 -14 6 C-14 5.34 -14 4.68 -14 4 C-9.14120551 0.82690972 -5.99882415 -0.82336802 0 0 Z " fill="#4C6725" transform="translate(254,142)"/>
<path d="M0 0 C1.34529785 0.00773438 1.34529785 0.00773438 2.71777344 0.015625 C3.62237305 0.01691406 4.52697266 0.01820313 5.45898438 0.01953125 C11.7543675 0.11021016 17.39817888 0.75525162 23.21777344 3.328125 C23.21777344 3.658125 23.21777344 3.988125 23.21777344 4.328125 C21.21822598 4.37066856 19.21735707 4.36893283 17.21777344 4.328125 C16.88777344 3.998125 16.55777344 3.668125 16.21777344 3.328125 C14.36602637 3.17026192 12.50868234 3.07705144 10.65136719 3.01171875 C8.96430664 2.94887695 8.96430664 2.94887695 7.24316406 2.88476562 C6.05916016 2.84544922 4.87515625 2.80613281 3.65527344 2.765625 C2.46740234 2.72244141 1.27953125 2.67925781 0.05566406 2.63476562 C-2.8901744 2.52828954 -5.83610086 2.42627659 -8.78222656 2.328125 C-5.96004311 -0.49405845 -3.858827 0.04116082 0 0 Z " fill="#425822" transform="translate(270.7822265625,216.671875)"/>
<path d="M0 0 C1.32 0.33 2.64 0.66 4 1 C2.9378125 1.59167969 1.875625 2.18335938 0.78125 2.79296875 C-6.24291923 6.71750754 -13.23795617 10.63284669 -20 15 C-20 12 -20 12 -18.5 10.4375 C-18.005 9.963125 -17.51 9.48875 -17 9 C-17 8.34 -17 7.68 -17 7 C-16.071875 7.020625 -15.14375 7.04125 -14.1875 7.0625 C-10.97713989 7.15769604 -10.97713989 7.15769604 -8 6 C-8 5.34 -8 4.68 -8 4 C-5.09399739 2.74335022 -3.20395416 2 0 2 C0 1.34 0 0.68 0 0 Z " fill="#496021" transform="translate(164,169)"/>
<path d="M0 0 C5.28 0.33 10.56 0.66 16 1 C16 1.66 16 2.32 16 3 C21.28 3 26.56 3 32 3 C32 3.33 32 3.66 32 4 C28.54183314 4.08847317 25.08396421 4.14087725 21.625 4.1875 C20.65949219 4.21263672 19.69398438 4.23777344 18.69921875 4.26367188 C11.96102416 4.33150605 6.3287719 3.31140022 0 1 C0 0.67 0 0.34 0 0 Z " fill="#4C6525" transform="translate(256,282)"/>
<path d="M0 0 C3.41041314 3.11385547 3.95541051 5.26098401 4.23828125 9.94921875 C4.2688317 11.52854412 4.29334675 13.1079953 4.3125 14.6875 C4.35600586 15.85442383 4.35600586 15.85442383 4.40039062 17.04492188 C4.46562247 23.06130547 3.01347965 26.79922152 0 32 C-0.33 32 -0.66 32 -1 32 C-1.1875 29.75 -1.1875 29.75 -1 27 C-0.505 26.4225 -0.01 25.845 0.5 25.25 C3.97097879 20.04353182 1.94655726 11.8896896 1 6 C0.67 5.67 0.34 5.34 0 5 C-0.04063832 3.33382885 -0.042721 1.66611905 0 0 Z " fill="#85C220" transform="translate(319,256)"/>
<path d="M0 0 C5.27348716 2.26006593 8.44440455 5.93164031 11 11 C11.36328125 14.19140625 11.36328125 14.19140625 11.3125 17.5625 C11.30863281 18.67753906 11.30476563 19.79257812 11.30078125 20.94140625 C11.0151431 23.8460124 10.5090683 25.54100026 9 28 C8.96261719 26.91460937 8.92523438 25.82921875 8.88671875 24.7109375 C8.82102125 23.26559261 8.75457524 21.82028161 8.6875 20.375 C8.66494141 19.66214844 8.64238281 18.94929688 8.61914062 18.21484375 C8.30550953 11.99924573 6.47762398 7.35297858 2.3125 2.625 C1.549375 1.75875 0.78625 0.8925 0 0 Z " fill="#4F6E20" transform="translate(314,250)"/>
<path d="M0 0 C-1.875 4.75 -1.875 4.75 -3 7 C-4.65 6.67 -6.3 6.34 -8 6 C-8 6.66 -8 7.32 -8 8 C-7.34 8 -6.68 8 -6 8 C-6 8.66 -6 9.32 -6 10 C-6.99 10 -7.98 10 -9 10 C-9 9.34 -9 8.68 -9 8 C-10.98 8.33 -12.96 8.66 -15 9 C-12.59888822 6.36115438 -9.99444972 4.63586471 -6.9375 2.8125 C-5.62072266 2.01779297 -5.62072266 2.01779297 -4.27734375 1.20703125 C-2 0 -2 0 0 0 Z " fill="#80C416" transform="translate(175,166)"/>
<path d="M0 0 C5.11125037 1.03503365 9.23218061 3.8344292 13.6875 6.4375 C14.56728516 6.94087891 15.44707031 7.44425781 16.35351562 7.96289062 C17.18947266 8.44822266 18.02542969 8.93355469 18.88671875 9.43359375 C19.65201904 9.87759521 20.41731934 10.32159668 21.20581055 10.77905273 C23 12 23 12 24 14 C20.26513792 13.19967241 17.26836824 11.99657505 14.25 9.625 C9.93112906 6.50581544 5.21501068 4.14078359 0 3 C0 2.01 0 1.02 0 0 Z " fill="#465E23" transform="translate(272,155)"/>
<path d="M0 0 C0.61875 0.598125 1.2375 1.19625 1.875 1.8125 C8.8579085 6.70053595 17.73216769 7.66394345 26 9 C26 9.33 26 9.66 26 10 C19.84765625 10.87890625 19.84765625 10.87890625 18 11 C17.67 10.67 17.34 10.34 17 10 C15.80375 9.87625 14.6075 9.7525 13.375 9.625 C9.11451231 9.15588493 5.85273937 7.84610428 2 6 C2 5.34 2 4.68 2 4 C1.34 4 0.68 4 0 4 C0 2.68 0 1.36 0 0 Z " fill="#7BB222" transform="translate(251,232)"/>
<path d="M0 0 C0.66 0.33 1.32 0.66 2 1 C1.01 2.485 1.01 2.485 0 4 C-0.99 4 -1.98 4 -3 4 C-3.33 4.99 -3.66 5.98 -4 7 C-6.8712932 9.32115041 -9.70551865 11.13276732 -13.4375 10.75 C-13.953125 10.5025 -14.46875 10.255 -15 10 C-15 9.34 -15 8.68 -15 8 C-15.99 7.67 -16.98 7.34 -18 7 C-15.74343953 5.87171977 -14.31609559 5.87065521 -11.8125 5.75 C-6.63780667 5.25597588 -3.95307335 3.2802098 0 0 Z " fill="#75A91B" transform="translate(263,350)"/>
<path d="M0 0 C1.125 3.75 1.125 3.75 0 6 C-0.7761407 12.61628134 0.28862662 17.74629658 3.02734375 23.7734375 C3.93240302 25.84525992 4.52188903 27.79565678 5 30 C0.47225757 25.94064472 -1.79937144 22.1788693 -2.36328125 16.0546875 C-2.36196926 14.66135613 -2.34480421 13.26795746 -2.3125 11.875 C-2.31572266 11.17246094 -2.31894531 10.46992188 -2.32226562 9.74609375 C-2.28349727 6.01728278 -2.057847 3.16465713 0 0 Z " fill="#7BAE27" transform="translate(235,218)"/>
<path d="M0 0 C4.91426326 -0.3510188 7.73655834 0.59022863 12 3 C12.763125 3.350625 13.52625 3.70125 14.3125 4.0625 C16 5 16 5 17 7 C17.06950541 8.54023996 17.08452357 10.08334988 17.0625 11.625 C17.05347656 12.44226563 17.04445313 13.25953125 17.03515625 14.1015625 C17.02355469 14.72804688 17.01195312 15.35453125 17 16 C16.67 16 16.34 16 16 16 C15.855625 14.906875 15.71125 13.81375 15.5625 12.6875 C15.11711896 9.06877013 15.11711896 9.06877013 14 6 C11.53615898 5.07889971 11.53615898 5.07889971 8.625 4.5 C4.81313921 3.65515486 2.51005259 3.07353378 0 0 Z " fill="#7EB620" transform="translate(290,259)"/>
<path d="M0 0 C0 0.66 0 1.32 0 2 C-1.6396875 2.8971875 -1.6396875 2.8971875 -3.3125 3.8125 C-5.91074129 5.29044697 -8.04349493 6.69822933 -10 9 C-10.99 8.67 -11.98 8.34 -13 8 C-13 8.66 -13 9.32 -13 10 C-15.35438733 11.42944945 -16.48032433 12.08661261 -19.25 11.625 C-19.8275 11.41875 -20.405 11.2125 -21 11 C-15.77840493 7.47845914 -10.86085963 4.31349722 -5 2 C-2 0 -2 0 0 0 Z " fill="#4F6B22" transform="translate(189,177)"/>
<path d="M0 0 C3.92285623 -0.27242057 5.84126762 0.18030591 9 2.5 C12.93719703 5.28468419 16.94693446 7.86616561 21.0625 10.375 C22.18785156 11.06335938 23.31320313 11.75171875 24.47265625 12.4609375 C25.30667969 12.96882813 26.14070313 13.47671875 27 14 C24 15 24 15 21.73828125 14.00390625 C20.93777344 13.52824219 20.13726562 13.05257813 19.3125 12.5625 C18.50425781 12.08941406 17.69601563 11.61632812 16.86328125 11.12890625 C15.94095703 10.57009766 15.94095703 10.57009766 15 10 C15 9.34 15 8.68 15 8 C13.948125 7.5978125 13.948125 7.5978125 12.875 7.1875 C9.8350176 5.9318551 6.9272226 4.49764877 4 3 C4 2.34 4 1.68 4 1 C2.68 0.67 1.36 0.34 0 0 Z " fill="#82BD1F" transform="translate(221,344)"/>
<path d="M0 0 C0.66 0.33 1.32 0.66 2 1 C1.34 3.31 0.68 5.62 0 8 C-1.32 8.33 -2.64 8.66 -4 9 C-4.33 11.64 -4.66 14.28 -5 17 C-5.33 17 -5.66 17 -6 17 C-6.33453158 10.53238945 -5.84313318 6.15903686 -1.3125 1.125 C-0.879375 0.75375 -0.44625 0.3825 0 0 Z " fill="#80CB14" transform="translate(147,181)"/>
<path d="M0 0 C1.32 0.33 2.64 0.66 4 1 C1.93771746 2.27118733 -0.12481891 3.54195965 -2.1875 4.8125 C-2.76564453 5.16892578 -3.34378906 5.52535156 -3.93945312 5.89257812 C-5.62496993 6.93055175 -7.31246025 7.96531853 -9 9 C-9.92425781 9.60199219 -10.84851563 10.20398438 -11.80078125 10.82421875 C-12.52652344 11.21222656 -13.25226563 11.60023438 -14 12 C-14.66 11.67 -15.32 11.34 -16 11 C-14.68 10.01 -13.36 9.02 -12 8 C-12.66 7.67 -13.32 7.34 -14 7 C-14 6.34 -14 5.68 -14 5 C-12.948125 5.061875 -11.89625 5.12375 -10.8125 5.1875 C-6.79722982 4.9900277 -5.23860249 4.220756 -2 2 C-1.34 2 -0.68 2 0 2 C0 1.34 0 0.68 0 0 Z " fill="#445527" transform="translate(194,151)"/>
<path d="M0 0 C1.609375 2.140625 1.609375 2.140625 1.609375 4.140625 C0.805 3.810625 0.000625 3.480625 -0.828125 3.140625 C-7.70196167 1.21112699 -13.70260779 1.86385318 -20.390625 4.140625 C-20.060625 3.150625 -19.730625 2.160625 -19.390625 1.140625 C-17.740625 1.140625 -16.090625 1.140625 -14.390625 1.140625 C-14.390625 0.480625 -14.390625 -0.179375 -14.390625 -0.859375 C-12.47763362 -1.13609702 -10.55984564 -1.37980315 -8.640625 -1.609375 C-7.57328125 -1.74859375 -6.5059375 -1.8878125 -5.40625 -2.03125 C-2.390625 -1.859375 -2.390625 -1.859375 0 0 Z " fill="#435825" transform="translate(260.390625,123.859375)"/>
<path d="M0 0 C0.66 0 1.32 0 2 0 C1.95359375 1.21816406 1.9071875 2.43632812 1.859375 3.69140625 C1.82183342 5.31507948 1.78543583 6.93877945 1.75 8.5625 C1.69972656 9.76229492 1.69972656 9.76229492 1.6484375 10.98632812 C1.55151892 16.92259144 2.84166706 20.01214493 6 25 C5.67 25.66 5.34 26.32 5 27 C4.34 26.67 3.68 26.34 3 26 C3 25.34 3 24.68 3 24 C2.34 24 1.68 24 1 24 C-2.0483871 6.14516129 -2.0483871 6.14516129 0 0 Z " fill="#475E23" transform="translate(232,220)"/>
<path d="M0 0 C-0.6875 1.9375 -0.6875 1.9375 -2 4 C-4.625 4.75 -4.625 4.75 -7 5 C-7 5.66 -7 6.32 -7 7 C-11.62440425 9.07626313 -16.1008651 10.70022952 -21 12 C-17.92398717 8.25528873 -14.61061276 6.82434006 -10.25390625 5.015625 C-8.17824041 4.0803163 -6.4246453 3.04938395 -4.5625 1.75 C-2 0 -2 0 0 0 Z " fill="#7FBC1E" transform="translate(213,144)"/>
<path d="M0 0 C2.57672427 3.14511933 4.17392493 6.32163947 5.75 10.0625 C6.19859375 11.10535156 6.6471875 12.14820313 7.109375 13.22265625 C8 16 8 16 7 19 C7 18.34 7 17.68 7 17 C6.01 17 5.02 17 4 17 C4 14.36 4 11.72 4 9 C2.35 8.67 0.7 8.34 -1 8 C-1 5.16032769 -0.59732819 2.76264289 0 0 Z " fill="#73746F" transform="translate(426,165)"/>
<path d="M0 0 C3.34373475 0.55728913 6.03312999 1.35173889 9 3 C9 3.66 9 4.32 9 5 C9.9075 4.9175 10.815 4.835 11.75 4.75 C15 5 15 5 17.375 6.875 C19 9 19 9 19 11 C14.60616294 9.40376856 10.71004193 7.21975667 6.6875 4.875 C6.04232422 4.50246094 5.39714844 4.12992187 4.73242188 3.74609375 C3.15324055 2.83367787 1.57638136 1.91724491 0 1 C0 0.67 0 0.34 0 0 Z " fill="#7FBB1E" transform="translate(214,356)"/>
<path d="M0 0 C0.66 0.33 1.32 0.66 2 1 C-0.72571327 2.63084542 -3.45615252 4.25361139 -6.1875 5.875 C-6.95642578 6.33519531 -7.72535156 6.79539063 -8.51757812 7.26953125 C-12.26306993 9.4878912 -15.87015924 11.55993529 -20 13 C-19.34 11.68 -18.68 10.36 -18 9 C-17.01 9 -16.02 9 -15 9 C-15 8.34 -15 7.68 -15 7 C-13.68 7 -12.36 7 -11 7 C-11 6.34 -11 5.68 -11 5 C-9.68 5 -8.36 5 -7 5 C-7 4.34 -7 3.68 -7 3 C-4.69631264 1.93347808 -2.35981813 0.93578995 0 0 Z " fill="#7FB724" transform="translate(211,162)"/>
<path d="M0 0 C0 0.66 0 1.32 0 2 C-1.71484375 3.4375 -1.71484375 3.4375 -3.9375 5 C-6.98632637 7.04816804 -6.98632637 7.04816804 -9 10 C-11.64 10 -14.28 10 -17 10 C-14.38772848 7.04185281 -11.33429693 5.28123892 -7.9375 3.3125 C-6.87402344 2.68988281 -5.81054688 2.06726563 -4.71484375 1.42578125 C-2 0 -2 0 0 0 Z " fill="#7DB91D" transform="translate(192,156)"/>
<path d="M0 0 C0 0.66 0 1.32 0 2 C-6.625 4.875 -6.625 4.875 -10 6 C-10 6.66 -10 7.32 -10 8 C-9.01 8.33 -8.02 8.66 -7 9 C-7 9.66 -7 10.32 -7 11 C-11.71346154 9.51153846 -11.71346154 9.51153846 -13.1640625 6.921875 C-13.43992188 6.28765625 -13.71578125 5.6534375 -14 5 C-12.04350603 4.16235732 -10.08474444 3.33000941 -8.125 2.5 C-6.48917969 1.80390625 -6.48917969 1.80390625 -4.8203125 1.09375 C-2 0 -2 0 0 0 Z " fill="#79AB25" transform="translate(221,345)"/>
<path d="M0 0 C0.33 0.66 0.66 1.32 1 2 C-3.75 7.875 -3.75 7.875 -6 9 C-6 9.99 -6 10.98 -6 12 C-6.66 12 -7.32 12 -8 12 C-8 12.66 -8 13.32 -8 14 C-8.66 14 -9.32 14 -10 14 C-10 14.66 -10 15.32 -10 16 C-10.66 15.67 -11.32 15.34 -12 15 C-10.94890486 13.24312628 -9.88356877 11.49476874 -8.8125 9.75 C-8.22082031 8.77546875 -7.62914063 7.8009375 -7.01953125 6.796875 C-4.95135139 3.93262591 -2.84720076 2.06532698 0 0 Z " fill="#868982" transform="translate(98,127)"/>
<path d="M0 0 C2.41760876 0.11426509 4.83347218 0.24099661 7.25 0.375 C7.93191406 0.4059375 8.61382812 0.436875 9.31640625 0.46875 C12.98739038 0.68259374 15.86251616 1.01077055 19 3 C11.79016324 3.98262143 6.44951718 4.6644984 0 1 C0 0.67 0 0.34 0 0 Z " fill="#7FBF1E" transform="translate(277,242)"/>
<path d="M0 0 C1.32 0 2.64 0 4 0 C3.81640625 2.32421875 3.81640625 2.32421875 3 5 C0.71484375 6.58203125 0.71484375 6.58203125 -2.0625 7.8125 C-2.98160156 8.23144531 -3.90070313 8.65039062 -4.84765625 9.08203125 C-5.55792969 9.38496094 -6.26820313 9.68789063 -7 10 C-7 9.34 -7 8.68 -7 8 C-6.030625 7.195625 -5.06125 6.39125 -4.0625 5.5625 C-0.80624673 3.29315623 -0.80624673 3.29315623 0 0 Z " fill="#82C315" transform="translate(351,313)"/>
<path d="M0 0 C0 0.66 0 1.32 0 2 C-2.64738916 3.4606285 -3.89448334 4 -7 4 C-7 4.66 -7 5.32 -7 6 C-7.99 6 -8.98 6 -10 6 C-10.33 6.99 -10.66 7.98 -11 9 C-13.31 9.33 -15.62 9.66 -18 10 C-16.56134011 7.12268022 -14.50689217 6.49371771 -11.6875 5 C-10.72199219 4.484375 -9.75648438 3.96875 -8.76171875 3.4375 C-7.85035156 2.963125 -6.93898437 2.48875 -6 2 C-5.26394531 1.608125 -4.52789062 1.21625 -3.76953125 0.8125 C-2 0 -2 0 0 0 Z " fill="#445A25" transform="translate(207,167)"/>
<path d="M0 0 C0 0.66 0 1.32 0 2 C-0.99 2 -1.98 2 -3 2 C-3.2475 2.61875 -3.495 3.2375 -3.75 3.875 C-5.2442984 6.41530728 -6.24781851 7.02864183 -9 8 C-10.32 8 -11.64 8 -13 8 C-13.33 8.66 -13.66 9.32 -14 10 C-14.66 9.34 -15.32 8.68 -16 8 C-15.40832031 7.67386719 -14.81664062 7.34773437 -14.20703125 7.01171875 C-10.78864136 5.1212878 -7.38755883 3.23913204 -4.0625 1.1875 C-2 0 -2 0 0 0 Z " fill="#7CB31F" transform="translate(232,133)"/>
<path d="M0 0 C-0.1875 1.875 -0.1875 1.875 -1 4 C-3.89111788 5.52164099 -5.71823412 6 -9 6 C-9 6.66 -9 7.32 -9 8 C-11.31 8.33 -13.62 8.66 -16 9 C-13.06698229 6.72861652 -10.04931207 4.73130058 -6.875 2.8125 C-6.00617188 2.28269531 -5.13734375 1.75289063 -4.2421875 1.20703125 C-2 0 -2 0 0 0 Z " fill="#496124" transform="translate(349,321)"/>
<path d="M0 0 C0.99 0.33 1.98 0.66 3 1 C1.04480616 2.17192047 -0.9142539 3.3373929 -2.875 4.5 C-3.96554687 5.1496875 -5.05609375 5.799375 -6.1796875 6.46875 C-9 8 -9 8 -11 8 C-9.7175023 5.13904359 -8.54656011 2.88634082 -6 1 C-3.375 0.875 -3.375 0.875 -1 1 C-0.67 0.67 -0.34 0.34 0 0 Z " fill="#445427" transform="translate(325,313)"/>
<path d="M0 0 C4.95 0 9.9 0 15 0 C15.33 1.65 15.66 3.3 16 5 C15.34 4.67 14.68 4.34 14 4 C14 3.34 14 2.68 14 2 C9.38 2 4.76 2 0 2 C0 1.34 0 0.68 0 0 Z " fill="#77A727" transform="translate(205,203)"/>
<path d="M0 0 C2.31 0 4.62 0 7 0 C7 0.66 7 1.32 7 2 C7.556875 2.12375 8.11375 2.2475 8.6875 2.375 C11.2618003 3.07075684 13.59880886 3.83185296 16 5 C16.33 5.99 16.66 6.98 17 8 C13.21283842 6.49637741 9.44754813 4.94512999 5.6875 3.375 C4.08455078 2.70597656 4.08455078 2.70597656 2.44921875 2.0234375 C1.23685547 1.51683594 1.23685547 1.51683594 0 1 C0 0.67 0 0.34 0 0 Z " fill="#465925" transform="translate(292,201)"/>
<path d="M0 0 C4.57559385 1.25828831 8.09934317 3.20207306 12.03125 5.7578125 C14.59311964 7.37423025 17.26590252 8.7013037 20 10 C18.375 10.70703125 18.375 10.70703125 16 11 C13.125 9.63671875 13.125 9.63671875 10 7.6875 C5.10246651 4.65768095 5.10246651 4.65768095 0 2 C0 1.34 0 0.68 0 0 Z " fill="#7EB524" transform="translate(300,151)"/>
<path d="M0 0 C2.64 0.33 5.28 0.66 8 1 C8 1.99 8 2.98 8 4 C8.5775 4.0825 9.155 4.165 9.75 4.25 C12.6159304 5.20531013 13.9990764 6.78469173 16 9 C12.50376447 7.64175023 9.11682003 6.15316912 5.75 4.5 C4.44289063 3.86578125 4.44289063 3.86578125 3.109375 3.21875 C1 2 1 2 0 0 Z " fill="#7AB022" transform="translate(264,149)"/>
<path d="M0 0 C0 0.66 0 1.32 0 2 C-0.99 2 -1.98 2 -3 2 C-3 2.66 -3 3.32 -3 4 C-6.75960806 7.75960806 -9.75900345 8.58894145 -15 9 C-12.59888822 6.36115438 -9.99444972 4.63586471 -6.9375 2.8125 C-5.62072266 2.01779297 -5.62072266 2.01779297 -4.27734375 1.20703125 C-2 0 -2 0 0 0 Z " fill="#455922" transform="translate(332,331)"/>
<path d="M0 0 C-1.50912958 4.98012761 -4.55661849 8.24259942 -8 12 C-8.33 11.01 -8.66 10.02 -9 9 C-8.34 8.67 -7.68 8.34 -7 8 C-6.87625 7.401875 -6.7525 6.80375 -6.625 6.1875 C-5.685834 2.90041899 -3.60497542 0 0 0 Z " fill="#82C01A" transform="translate(219,323)"/>
<path d="M0 0 C0.33 0 0.66 0 1 0 C1 2.97 1 5.94 1 9 C-4.28 9 -9.56 9 -15 9 C-15.33 7.35 -15.66 5.7 -16 4 C-15.401875 4.474375 -14.80375 4.94875 -14.1875 5.4375 C-9.59993775 7.68630502 -5.04972703 7.743534 0 8 C0 5.36 0 2.72 0 0 Z " fill="#80B925" transform="translate(319,226)"/>
<path d="M0 0 C-5.49252922 3.83199713 -10.66995132 5.93905392 -17 8 C-17 7.34 -17 6.68 -17 6 C-16.360625 5.87625 -15.72125 5.7525 -15.0625 5.625 C-14.381875 5.41875 -13.70125 5.2125 -13 5 C-12.67 4.34 -12.34 3.68 -12 3 C-10.0390625 1.89453125 -10.0390625 1.89453125 -7.625 0.8125 C-6.83351562 0.44769531 -6.04203125 0.08289063 -5.2265625 -0.29296875 C-3 -1 -3 -1 0 0 Z " fill="#7EB722" transform="translate(189,177)"/>
<path d="M0 0 C1.72990025 0.93614567 3.45888696 1.87397958 5.1875 2.8125 C6.15042969 3.33457031 7.11335938 3.85664063 8.10546875 4.39453125 C10.77398357 5.87463866 13.39374227 7.41337509 16 9 C15.01 9.495 15.01 9.495 14 10 C11.55667274 8.92481882 9.23245477 7.80191434 6.875 6.5625 C6.21628906 6.22412109 5.55757813 5.88574219 4.87890625 5.53710938 C3.24893453 4.69850074 1.62398091 3.85015189 0 3 C0 2.01 0 1.02 0 0 Z " fill="#435824" transform="translate(309,176)"/>
<path d="M0 0 C-2.119212 1.36405618 -4.24448118 2.71631775 -6.375 4.0625 C-6.97828125 4.45244141 -7.5815625 4.84238281 -8.203125 5.24414062 C-9.76492557 6.22460432 -11.37992214 7.11916075 -13 8 C-13.66 7.67 -14.32 7.34 -15 7 C-15 6.34 -15 5.68 -15 5 C-12.09399739 3.74335022 -10.20395416 3 -7 3 C-6.67 2.01 -6.34 1.02 -6 0 C-3.42525708 -0.99667468 -2.51072708 -1.25536354 0 0 Z " fill="#7DB222" transform="translate(323,336)"/>
<path d="M0 0 C0.66 0.33 1.32 0.66 2 1 C1.67 1.66 1.34 2.32 1 3 C-0.28687011 6.86061033 -0.13757618 9.94150283 0 14 C-1.5 12.875 -1.5 12.875 -3 11 C-3.60643498 6.35066514 -2.67716504 3.79265048 0 0 Z " fill="#46611E" transform="translate(254,221)"/>
<path d="M0 0 C-1.03060547 0.36351562 -1.03060547 0.36351562 -2.08203125 0.734375 C-2.98308594 1.06953125 -3.88414062 1.4046875 -4.8125 1.75 C-6.15248047 2.23726562 -6.15248047 2.23726562 -7.51953125 2.734375 C-10.24295161 4.12396271 -11.38324384 5.44326932 -13 8 C-12.67 5.69 -12.34 3.38 -12 1 C-3.96428571 -1.27678571 -3.96428571 -1.27678571 0 0 Z " fill="#7EB620" transform="translate(264,218)"/>
<path d="M0 0 C2.97 0.33 5.94 0.66 9 1 C9 1.33 9 1.66 9 2 C11.97 2.33 14.94 2.66 18 3 C18 3.33 18 3.66 18 4 C15.93816367 4.08150744 13.87538651 4.1394194 11.8125 4.1875 C10.08966797 4.23970703 10.08966797 4.23970703 8.33203125 4.29296875 C4.72084678 3.97545546 2.87886312 3.15237035 0 1 C0 0.67 0 0.34 0 0 Z " fill="#81BB25" transform="translate(238,370)"/>
<path d="M0 0 C0.33 0 0.66 0 1 0 C1.1875 2.375 1.1875 2.375 1 5 C-2 7 -2 7 -5 7 C-5 7.66 -5 8.32 -5 9 C-6.32 8.67 -7.64 8.34 -9 8 C-7.88625 7.4121875 -7.88625 7.4121875 -6.75 6.8125 C-3.80366057 4.87059447 -2.11453608 2.79420839 0 0 Z " fill="#4E6826" transform="translate(358,312)"/>
<path d="M0 0 C3.70429168 0.92607292 5.42370341 2.18879193 7.375 5.375 C9 9 9 9 8.75 11.4375 C8.5025 11.953125 8.255 12.46875 8 13 C4 6.375 4 6.375 4 3 C2.68 2.67 1.36 2.34 0 2 C0 1.34 0 0.68 0 0 Z " fill="#4A651E" transform="translate(294,221)"/>
<path d="M0 0 C2.97 1.98 2.97 1.98 6 4 C5.34 5.32 4.68 6.64 4 8 C2.02 5.69 0.04 3.38 -2 1 C-1.34 0.67 -0.68 0.34 0 0 Z " fill="#5B5C57" transform="translate(114,387)"/>
<path d="M0 0 C1.46726798 3.81489674 0.43336419 6.29011622 -1 10 C-1.99 9.34 -2.98 8.68 -4 8 C-4.1875 5.375 -4.1875 5.375 -4 3 C-3.01 2.67 -2.02 2.34 -1 2 C-0.67 1.34 -0.34 0.68 0 0 Z " fill="#6B6B65" transform="translate(438,300)"/>
<path d="M0 0 C-3.36736031 2.82858266 -6.87451958 4.4998253 -11 6 C-11.99 5.67 -12.98 5.34 -14 5 C-12 3 -12 3 -9.375 2.875 C-8.59125 2.91625 -7.8075 2.9575 -7 3 C-7 2.34 -7 1.68 -7 1 C-4.53721199 -0.231394 -2.7204945 -0.07159196 0 0 Z " fill="#81B721" transform="translate(311,294)"/>
<path d="M0 0 C3.12290635 0.48578543 5.99580359 0.9986012 9 2 C9 2.66 9 3.32 9 4 C9.99 4.33 10.98 4.66 12 5 C9.44345185 5.95582656 8.39658231 6.17802782 5.859375 5.0390625 C5.16328125 4.57242188 4.4671875 4.10578125 3.75 3.625 C3.04359375 3.16351563 2.3371875 2.70203125 1.609375 2.2265625 C1.07828125 1.82179687 0.5471875 1.41703125 0 1 C0 0.67 0 0.34 0 0 Z " fill="#496426" transform="translate(267,131)"/>
<path d="M0 0 C0.33 0 0.66 0 1 0 C1.04898438 0.58007812 1.09796875 1.16015625 1.1484375 1.7578125 C1.59944323 6.47004482 2.4642867 10.5025539 4 15 C3.67 15.66 3.34 16.32 3 17 C2.67 15.68 2.34 14.36 2 13 C1.34 13 0.68 13 0 13 C0 8.71 0 4.42 0 0 Z " fill="#475E28" transform="translate(229,267)"/>
<path d="M0 0 C1.32 0.33 2.64 0.66 4 1 C4 1.66 4 2.32 4 3 C4.99 3 5.98 3 7 3 C7.66 5.97 8.32 8.94 9 12 C7 11 7 11 6.1875 8.8125 C4.66775625 5.2131069 2.58267163 2.92249685 0 0 Z " fill="#48612A" transform="translate(309,209)"/>
<path d="M0 0 C1.98 0 3.96 0 6 0 C6.2475 0.639375 6.495 1.27875 6.75 1.9375 C7.81562433 4.18741541 7.81562433 4.18741541 10.125 4.75 C10.74375 4.8325 11.3625 4.915 12 5 C9.44345185 5.95582656 8.39658231 6.17802782 5.859375 5.0390625 C5.16328125 4.57242188 4.4671875 4.10578125 3.75 3.625 C3.04359375 3.16351563 2.3371875 2.70203125 1.609375 2.2265625 C1.07828125 1.82179687 0.5471875 1.41703125 0 1 C0 0.67 0 0.34 0 0 Z " fill="#7CB31F" transform="translate(332,189)"/>
<path d="M0 0 C1.32 0.33 2.64 0.66 4 1 C-1.94 4.465 -1.94 4.465 -8 8 C-8 7.01 -8 6.02 -8 5 C-6.35 4.67 -4.7 4.34 -3 4 C-3 3.34 -3 2.68 -3 2 C-2.01 1.34 -1.02 0.68 0 0 Z " fill="#81BB21" transform="translate(228,151)"/>
<path d="M0 0 C1.18771723 3.42943519 0.80226223 5.37784675 -0.4375 8.75 C-0.72496094 9.54921875 -1.01242188 10.3484375 -1.30859375 11.171875 C-1.53675781 11.77515625 -1.76492187 12.3784375 -2 13 C-2.99 13 -3.98 13 -5 13 C-4.731875 12.34 -4.46375 11.68 -4.1875 11 C-2.74294953 7.35060933 -1.37128822 3.67754567 0 0 Z " fill="#475E24" transform="translate(221,317)"/>
<path d="M0 0 C-0.33 1.65 -0.66 3.3 -1 5 C-3.4375 4.1875 -3.4375 4.1875 -6 3 C-6.33 2.01 -6.66 1.02 -7 0 C-3.86650268 -1.04449911 -3.01031744 -0.93423645 0 0 Z " fill="#82C516" transform="translate(286,156)"/>
<path d="M0 0 C0.66 0.33 1.32 0.66 2 1 C2 1.66 2 2.32 2 3 C1.34 3 0.68 3 0 3 C-0.66 4.65 -1.32 6.3 -2 8 C-2.66 7.34 -3.32 6.68 -4 6 C-3.8125 4 -3.8125 4 -3 2 C-2.01 1.34 -1.02 0.68 0 0 Z " fill="#4F504A" transform="translate(152,80)"/>
<path d="M0 0 C0.66 0.33 1.32 0.66 2 1 C-2.18461538 5.92307692 -2.18461538 5.92307692 -6.3125 6.3125 C-7.199375 6.209375 -8.08625 6.10625 -9 6 C-3.30379747 1.25316456 -3.30379747 1.25316456 0 0 Z " fill="#4B6424" transform="translate(297,350)"/>
<path d="M0 0 C4.51707932 0.5314211 7.38687577 2.29015683 11 5 C11.33 5.66 11.66 6.32 12 7 C7.69235185 5.43358249 3.93828536 3.31663844 0 1 C0 0.67 0 0.34 0 0 Z " fill="#80B921" transform="translate(154,321)"/>
<path d="M0 0 C-0.66 1.32 -1.32 2.64 -2 4 C-2.33 3.34 -2.66 2.68 -3 2 C-6.3 2 -9.6 2 -13 2 C-13 1.67 -13 1.34 -13 1 C-11.20994059 0.63779734 -9.41787943 0.28547531 -7.625 -0.0625 C-6.12839844 -0.35833984 -6.12839844 -0.35833984 -4.6015625 -0.66015625 C-2 -1 -2 -1 0 0 Z " fill="#4E662D" transform="translate(261,373)"/>
<path d="M0 0 C0 0.66 0 1.32 0 2 C-2.75 4.1875 -2.75 4.1875 -6 6 C-8.203125 5.61328125 -8.203125 5.61328125 -10 5 C-8.71186658 4.16121545 -7.41936744 3.32913217 -6.125 2.5 C-5.40570313 2.0359375 -4.68640625 1.571875 -3.9453125 1.09375 C-2 0 -2 0 0 0 Z " fill="#79AE24" transform="translate(318,320)"/>
<path d="M0 0 C0 0.66 0 1.32 0 2 C-2.75 4.1875 -2.75 4.1875 -6 6 C-8.203125 5.61328125 -8.203125 5.61328125 -10 5 C-8.71186658 4.16121545 -7.41936744 3.32913217 -6.125 2.5 C-5.40570313 2.0359375 -4.68640625 1.571875 -3.9453125 1.09375 C-2 0 -2 0 0 0 Z " fill="#77AF21" transform="translate(344,305)"/>
<path d="M0 0 C2.625 0.375 2.625 0.375 5 1 C5.33 2.32 5.66 3.64 6 5 C0.25 4.25 0.25 4.25 -2 2 C-1.34 1.34 -0.68 0.68 0 0 Z " fill="#46522A" transform="translate(302,242)"/>
<path d="M0 0 C1.32 0 2.64 0 4 0 C4 0.99 4 1.98 4 3 C1 5.1875 1 5.1875 -2 7 C-1.42415568 4.61435923 -0.77772405 2.33317216 0 0 Z " fill="#595A55" transform="translate(374,396)"/>
<path d="M0 0 C2.31 0 4.62 0 7 0 C6.67 1.98 6.34 3.96 6 6 C3.97945196 4.35830472 1.97956942 2.69088222 0 1 C0 0.67 0 0.34 0 0 Z " fill="#60615C" transform="translate(102,378)"/>
<path d="M0 0 C0.66 0.33 1.32 0.66 2 1 C2 1.66 2 2.32 2 3 C2.64252365 5.0078864 3.30741771 7.00882592 4 9 C3.01 9.495 3.01 9.495 2 10 C-2 3.25 -2 3.25 -2 1 C-1.34 0.67 -0.68 0.34 0 0 Z " fill="#595A50" transform="translate(76,334)"/>
<path d="M0 0 C3 1 3 1 4 3 C4.99 2.67 5.98 2.34 7 2 C6.67 3.98 6.34 5.96 6 8 C1.125 3.375 1.125 3.375 0 0 Z " fill="#7FBB1D" transform="translate(142,310)"/>
<path d="M0 0 C0.66 0 1.32 0 2 0 C0.83630874 3.49107379 0.11026462 3.85222763 -2.9375 5.6875 C-3.64777344 6.12449219 -4.35804688 6.56148438 -5.08984375 7.01171875 C-7 8 -7 8 -9 8 C-8 5 -8 5 -5.0625 3.3125 C-2 2 -2 2 0 2 C0 1.34 0 0.68 0 0 Z " fill="#445923" transform="translate(341,303)"/>
<path d="M0 0 C4.69023454 0.56606279 9.34500026 1.18537505 14 2 C14 2.33 14 2.66 14 3 C12.22992286 3.08114106 10.45877902 3.13925505 8.6875 3.1875 C7.70136719 3.22230469 6.71523438 3.25710938 5.69921875 3.29296875 C3 3 3 3 1.14453125 1.48828125 C0.76683594 0.99714844 0.38914062 0.50601562 0 0 Z " fill="#83BE1E" transform="translate(258,284)"/>
<path d="M0 0 C4.51478398 0.53115106 7.34666857 2.36620292 11 5 C10.01 5.33 9.02 5.66 8 6 C5.5 4.625 5.5 4.625 3 3 C2.01 2.67 1.02 2.34 0 2 C0 1.34 0 0.68 0 0 Z " fill="#82B924" transform="translate(305,247)"/>
<path d="M0 0 C0 0.66 0 1.32 0 2 C-1.6396875 2.8971875 -1.6396875 2.8971875 -3.3125 3.8125 C-5.91074129 5.29044697 -8.04349493 6.69822933 -10 9 C-10 8.01 -10 7.02 -10 6 C-8.3203125 4.39453125 -8.3203125 4.39453125 -6.125 2.8125 C-5.04605469 2.01779297 -5.04605469 2.01779297 -3.9453125 1.20703125 C-2 0 -2 0 0 0 Z " fill="#445826" transform="translate(189,177)"/>
<path d="M0 0 C1.32 0.33 2.64 0.66 4 1 C2.54744301 4.82946843 0.57104439 6.12050295 -3 8 C-3 5 -3 5 -1.5 3.4375 C-1.005 2.963125 -0.51 2.48875 0 2 C0 1.34 0 0.68 0 0 Z " fill="#44542D" transform="translate(147,176)"/>
<path d="M0 0 C0 0.66 0 1.32 0 2 C-3.07115285 4.95303159 -5.8333396 5.52651586 -10 6 C-4.4 0 -4.4 0 0 0 Z " fill="#476222" transform="translate(222,158)"/>
<path d="M0 0 C0 0.66 0 1.32 0 2 C-3.07115285 4.95303159 -5.8333396 5.52651586 -10 6 C-4.4 0 -4.4 0 0 0 Z " fill="#74A51C" transform="translate(202,150)"/>
<path d="M0 0 C-3.20336822 2.83374881 -5.78087253 3.5205537 -10 4 C-10 3.34 -10 2.68 -10 2 C-9.01 2 -8.02 2 -7 2 C-7 1.34 -7 0.68 -7 0 C-3.86650268 -1.04449911 -3.01031744 -0.93423645 0 0 Z " fill="#4A6324" transform="translate(208,147)"/>
<path d="M0 0 C1.98 1.65 3.96 3.3 6 5 C4.125 6.0625 4.125 6.0625 2 7 C1.34 6.67 0.68 6.34 0 6 C0 4.02 0 2.04 0 0 Z " fill="#61625B" transform="translate(378,102)"/>
<path d="M0 0 C0.66 1.32 1.32 2.64 2 4 C-3.625 6 -3.625 6 -7 6 C-5.625 4.5 -5.625 4.5 -4 3 C-3.34 3 -2.68 3 -2 3 C-2 2.34 -2 1.68 -2 1 C-1.34 0.67 -0.68 0.34 0 0 Z " fill="#75766F" transform="translate(127,97)"/>
<path d="M0 0 C0 0.66 0 1.32 0 2 C-1.95927063 3.7143618 -3.95880212 5.38405168 -6 7 C-6 6.34 -6 5.68 -6 5 C-6.66 4.67 -7.32 4.34 -8 4 C-2.25 0 -2.25 0 0 0 Z " fill="#888985" transform="translate(148,83)"/>
<path d="M0 0 C3.31562557 0.55260426 6.15062207 1.16825705 9 3 C9.33 3.99 9.66 4.98 10 6 C6.40992874 4.66654496 3.20429093 3.1056769 0 1 C0 0.67 0 0.34 0 0 Z " fill="#78AE22" transform="translate(214,356)"/>
<path d="M0 0 C2.64 0.66 5.28 1.32 8 2 C8 2.99 8 3.98 8 5 C8.33 5.66 8.66 6.32 9 7 C4.58110387 5.64978174 2.65654657 3.73884332 0 0 Z " fill="#80BA23" transform="translate(237,288)"/>
<path d="M0 0 C4.83256305 0.41421969 6.82679218 2.46413986 10 6 C6.62972148 6 5.93297304 5.50175992 3.3125 3.5625 C2.68988281 3.11003906 2.06726563 2.65757812 1.42578125 2.19140625 C0.95527344 1.79824219 0.48476563 1.40507812 0 1 C0 0.67 0 0.34 0 0 Z " fill="#516E22" transform="translate(347,177)"/>
<path d="M0 0 C0.66 0.33 1.32 0.66 2 1 C1.67 1.99 1.34 2.98 1 4 C0.01 4 -0.98 4 -2 4 C-2.33 5.32 -2.66 6.64 -3 8 C-3.66 8 -4.32 8 -5 8 C-3.8141763 4.62496331 -2.72426311 2.35277269 0 0 Z " fill="#79B024" transform="translate(147,181)"/>
<path d="M0 0 C1.32 0.33 2.64 0.66 4 1 C4.33 3.31 4.66 5.62 5 8 C4.34 8 3.68 8 3 8 C2.01 5.36 1.02 2.72 0 0 Z " fill="#465A29" transform="translate(357,184)"/>
<path d="M0 0 C1.32 0.33 2.64 0.66 4 1 C4 1.66 4 2.32 4 3 C5.98 3.66 7.96 4.32 10 5 C7 6 7 6 3.875 4.75 C1 3 1 3 0 0 Z " fill="#7BB21F" transform="translate(280,139)"/>
<path d="M0 0 C2.31 0.33 4.62 0.66 7 1 C4.31158141 3.25245881 2.35358125 4.88213958 -1 6 C-1 5.34 -1 4.68 -1 4 C-0.34 3.67 0.32 3.34 1 3 C0.67 2.01 0.34 1.02 0 0 Z " fill="#45562B" transform="translate(209,140)"/>
<path d="M0 0 C1.98 0 3.96 0 6 0 C2.80009492 2.74277578 -0.00499382 4.6302836 -4 6 C-3 3 -3 3 0 1 C0 0.67 0 0.34 0 0 Z " fill="#435828" transform="translate(224,133)"/>
<path d="M0 0 C0 0.99 0 1.98 0 3 C-1 4 -1 4 -2.84765625 4.09765625 C-4.8984375 4.06510417 -6.94921875 4.03255208 -9 4 C-6.01353231 2.00902154 -3.40312738 1.05875074 0 0 Z " fill="#465D23" transform="translate(209,335)"/>
<path d="M0 0 C-6.625 4 -6.625 4 -10 4 C-10 3.34 -10 2.68 -10 2 C-8.71211992 1.46987262 -7.41953322 0.9511671 -6.125 0.4375 C-5.40570313 0.14746094 -4.68640625 -0.14257812 -3.9453125 -0.44140625 C-2 -1 -2 -1 0 0 Z " fill="#455B20" transform="translate(292,335)"/>
<path d="M0 0 C0 0.66 0 1.32 0 2 C-4.15267176 5.11450382 -4.15267176 5.11450382 -7.3125 4.6875 C-7.869375 4.460625 -8.42625 4.23375 -9 4 C-2.25 0 -2.25 0 0 0 Z " fill="#79AE22" transform="translate(334,311)"/>
<path d="M0 0 C1.65 0 3.3 0 5 0 C5 0.66 5 1.32 5 2 C1.535 3.485 1.535 3.485 -2 5 C-1.34 3.35 -0.68 1.7 0 0 Z " fill="#7FB91D" transform="translate(235,146)"/>
<path d="M0 0 C1.65 0 3.3 0 5 0 C2.14693203 2.32472205 -0.54074837 3.7508258 -4 5 C-4.33 4.34 -4.66 3.68 -5 3 C-3.35 2.67 -1.7 2.34 0 2 C0 1.34 0 0.68 0 0 Z " fill="#435827" transform="translate(234,128)"/>
<path d="M0 0 C2.97 0.33 5.94 0.66 9 1 C8.67 1.99 8.34 2.98 8 4 C2.25 2.25 2.25 2.25 0 0 Z " fill="#465A2A" transform="translate(174,314)"/>
<path d="M0 0 C0.33 0.66 0.66 1.32 1 2 C0.22265625 3.9453125 0.22265625 3.9453125 -0.9375 6.125 C-1.31777344 6.84945313 -1.69804687 7.57390625 -2.08984375 8.3203125 C-2.39019531 8.87460937 -2.69054687 9.42890625 -3 10 C-3.33 10 -3.66 10 -4 10 C-4.41176754 6.39703406 -4.1535853 5.21597933 -2 2.1875 C-1.34 1.465625 -0.68 0.74375 0 0 Z " fill="#7FB723" transform="translate(322,278)"/>
<path d="M0 0 C0.33 0 0.66 0 1 0 C0.67 2.97 0.34 5.94 0 9 C-0.99 9.33 -1.98 9.66 -3 10 C-2.01 6.7 -1.02 3.4 0 0 Z " fill="#435A28" transform="translate(324,274)"/>
<path d="M0 0 C5.4611399 0.35233161 5.4611399 0.35233161 8 1 C9.5 3.0625 9.5 3.0625 10 5 C5 3 5 3 0 1 C0 0.67 0 0.34 0 0 Z " fill="#4B651F" transform="translate(299,204)"/>
<path d="M0 0 C0.66 0.33 1.32 0.66 2 1 C0.68 2.65 -0.64 4.3 -2 6 C-3.32 5.67 -4.64 5.34 -6 5 C-4.02 3.35 -2.04 1.7 0 0 Z " fill="#959690" transform="translate(134,91)"/>
<path d="M0 0 C2.49361571 1.20381448 4.68143083 2.45428722 7 4 C6.67 4.99 6.34 5.98 6 7 C1.125 2.25 1.125 2.25 0 0 Z " fill="#8E8F8A" transform="translate(360,88)"/>
</svg>
