<?xml version="1.0" encoding="UTF-8"?>
<svg version="1.1" xmlns="http://www.w3.org/2000/svg" width="250" height="250">
<path d="M0 0 C82.5 0 165 0 250 0 C250 82.5 250 165 250 250 C167.5 250 85 250 0 250 C0 167.5 0 85 0 0 Z " fill="#F6DE1D" transform="translate(0,0)"/>
<path d="M0 0 C3.97198086 3.28231216 7.14456526 6.71684789 10 11 C9.8067277 13.60839039 9.40441262 14.64931354 7.41772461 16.37207031 C6.75264893 16.77006836 6.08757324 17.16806641 5.40234375 17.578125 C4.68369141 18.01640625 3.96503906 18.4546875 3.22460938 18.90625 C2.46986328 19.3496875 1.71511719 19.793125 0.9375 20.25 C0.17888672 20.70890625 -0.57972656 21.1678125 -1.36132812 21.640625 C-3.2345411 22.77162151 -5.11388193 23.89070522 -7 25 C-7.76828125 24.22269531 -8.5365625 23.44539063 -9.328125 22.64453125 C-13.46263792 18.5523306 -16.61315972 15.77299354 -22.5625 15.625 C-26.04702285 15.79540668 -28.94828087 16.18804176 -32 18 C-33.4670779 22.40123369 -33.63524203 26.22132231 -32.0625 30.625 C-26.24770011 37.32083018 -15.76824804 40.52077562 -7.81640625 44.07421875 C2.41925194 48.8087743 10.81550938 55.03365017 16.13671875 65.1640625 C18.52052389 72.99502417 18.55181408 84.5821579 15.4375 92.1875 C14.30859375 94.15625 14.30859375 94.15625 13 96 C12.53722656 96.6909375 12.07445312 97.381875 11.59765625 98.09375 C6.64768709 104.58075114 -0.45051723 108.41443349 -8.2421875 110.640625 C-24.01542812 112.69606145 -39.744654 111.81798247 -52.7734375 101.9296875 C-57.8312099 97.54628476 -61.7150755 93.34945365 -64 87 C-61.23549979 85.32265277 -58.46243144 83.66002366 -55.6875 82 C-54.90181641 81.52304688 -54.11613281 81.04609375 -53.30664062 80.5546875 C-52.54931641 80.10351562 -51.79199219 79.65234375 -51.01171875 79.1875 C-50.31522217 78.76855469 -49.61872559 78.34960938 -48.90112305 77.91796875 C-47 77 -47 77 -44 77 C-42.421875 78.609375 -42.421875 78.609375 -40.75 80.75 C-36.34413038 85.88411253 -33.25944798 88.68940638 -26.43359375 89.33984375 C-19.76024382 89.50292659 -14.83682748 89.52297337 -9 86 C-6.37001522 82.65274664 -6.56657002 79.1175848 -7 75 C-9.78964726 70.70207455 -12.65540687 68.84054771 -17.25 66.6875 C-18.49747972 66.08871639 -19.744872 65.48975062 -20.9921875 64.890625 C-21.64413086 64.58318359 -22.29607422 64.27574219 -22.96777344 63.95898438 C-50.57127449 50.93320925 -50.57127449 50.93320925 -55.8125 38 C-58.39801661 29.17617296 -58.36215273 19.88729081 -54.5 11.5 C-49.96349455 3.63249404 -44.16137424 -1.54124327 -35.44921875 -4.3359375 C-23.64808396 -6.60795666 -10.33609629 -6.77192516 0 0 Z " fill="#020200" transform="translate(213,119)"/>
<path d="M0 0 C7.59 0 15.18 0 23 0 C23.06797244 11.15340624 23.12292925 22.30667326 23.15543652 33.46024036 C23.17104405 38.64015761 23.19219198 43.81992489 23.22631836 48.99975586 C23.25908776 54.00535733 23.2768899 59.01081521 23.28463173 64.01651573 C23.29014383 65.91934148 23.30090704 67.82216002 23.31719017 69.72492409 C23.53887416 96.72121317 23.53887416 96.72121317 14 107 C3.32321613 115.333972 -8.94670126 116.2279679 -22 115 C-31.7160871 112.85171944 -39.07487528 106.79485588 -44.87109375 98.9296875 C-46.0350995 96.94000292 -46.48996131 95.23210794 -47 93 C-44.23549979 91.32265277 -41.46243144 89.66002366 -38.6875 88 C-37.90181641 87.52304688 -37.11613281 87.04609375 -36.30664062 86.5546875 C-35.54931641 86.10351562 -34.79199219 85.65234375 -34.01171875 85.1875 C-33.31522217 84.76855469 -32.61872559 84.34960938 -31.90112305 83.91796875 C-30 83 -30 83 -27 83 C-25.6459068 84.98600337 -24.31542376 86.98817543 -23 89 C-20.60613785 91.75656854 -19.01129991 92.86606296 -15.375 93.34765625 C-9.8915366 93.57661371 -9.8915366 93.57661371 -4.78515625 91.84765625 C-0.50407648 87.41669185 -0.69763161 81.43534594 -0.68115234 75.60791016 C-0.66608391 74.37764603 -0.66608391 74.37764603 -0.65071106 73.12252808 C-0.61997091 70.42804628 -0.60286955 67.73366343 -0.5859375 65.0390625 C-0.56721847 63.16432855 -0.54764451 61.28960297 -0.5272522 59.41488647 C-0.47600268 54.4929091 -0.43633855 49.57090443 -0.39910889 44.64880371 C-0.35902419 39.62126961 -0.30795223 34.59384835 -0.2578125 29.56640625 C-0.16113817 19.71100902 -0.07772229 9.85556493 0 0 Z " fill="#010100" transform="translate(113,115)"/>
</svg>
