<?xml version="1.0" encoding="UTF-8"?>
<svg version="1.1" xmlns="http://www.w3.org/2000/svg" width="618" height="404">
<path d="M0 0 C6.38428493 0 10.71767126 2.94837496 16.05859375 6.23046875 C18.50590828 7.70275757 20.90551993 8.94657261 23.5 10.125 C27.37064042 12.19855737 28.78392777 13.2329325 31 17 C31.59877455 20.74068998 31.55655078 24.44675917 31.53344727 28.22851562 C31.54637062 29.92931526 31.54637062 29.92931526 31.55955505 31.66447449 C31.58225532 35.41196527 31.57546853 39.15871079 31.56640625 42.90625 C31.57163976 45.51029686 31.57791523 48.11434183 31.58518982 50.71838379 C31.59703215 56.17577492 31.59135012 61.63295367 31.57641602 67.09033203 C31.5594886 73.39410195 31.57533959 79.6971797 31.6076389 86.00087404 C31.63756671 92.07233821 31.63951743 98.14348588 31.6301403 104.2150116 C31.62931932 106.79543457 31.63621063 109.37587182 31.65091133 111.95625305 C31.66830398 115.56184563 31.65385635 119.16595199 31.63110352 122.77148438 C31.64864182 124.37379158 31.64864182 124.37379158 31.66653442 126.00846863 C31.57338912 133.25241555 31.57338912 133.25241555 28.63096619 137.08874512 C25.94023187 139.04341832 23.27512073 140.80764778 20.375 142.4375 C19.31796875 143.03691406 18.2609375 143.63632813 17.171875 144.25390625 C14.33394329 145.81616669 11.48252525 147.34901388 8.625 148.875 C3.49830502 151.62463728 -1.33851767 154.74259066 -6.14208984 158.01708984 C-12.20383251 162.05184447 -12.20383251 162.05184447 -16 162 C-18.7854325 160.82558649 -21.26780756 159.24659213 -23.8125 157.625 C-25.32978405 156.69377083 -26.8480374 155.7641194 -28.3671875 154.8359375 C-29.13643555 154.36124023 -29.90568359 153.88654297 -30.69824219 153.39746094 C-34.22663829 151.25527391 -37.82843684 149.25219653 -41.4375 147.25 C-50.45723161 142.19833424 -50.45723161 142.19833424 -54.875 139.625 C-56.01582031 138.96371094 -56.01582031 138.96371094 -57.1796875 138.2890625 C-59 137 -59 137 -61 134 C-61.27415466 131.85734558 -61.27415466 131.85734558 -61.30639648 129.34838867 C-61.32238388 128.40698532 -61.33837128 127.46558197 -61.35484314 126.49565125 C-61.36020584 125.48001602 -61.36556854 124.4643808 -61.37109375 123.41796875 C-61.38012222 122.37103348 -61.3891507 121.32409821 -61.39845276 120.24543762 C-61.41296764 118.02880721 -61.42184506 115.81213384 -61.42553711 113.59545898 C-61.43741861 110.21068672 -61.48658143 106.82774597 -61.53710938 103.44335938 C-61.54657527 101.28907139 -61.55380951 99.13477222 -61.55859375 96.98046875 C-61.58789223 95.46612495 -61.58789223 95.46612495 -61.61778259 93.92118835 C-61.56754159 86.06099032 -61.56754159 86.06099032 -58.66943359 82.44873047 C-55.73049541 79.75277748 -52.69645373 77.77708564 -49.1875 75.9375 C-47.93549293 75.25389375 -46.68418515 74.56900515 -45.43359375 73.8828125 C-44.30050781 73.26148438 -43.16742188 72.64015625 -42 72 C-40.57397056 71.11914709 -39.15515602 70.22628244 -37.75 69.3125 C-34.07977927 66.96324233 -30.23095303 65.07774523 -26.296875 63.2109375 C-23.95704326 62.05548554 -23.95704326 62.05548554 -21.89453125 60.4140625 C-18.84861601 58.14061648 -16.80708127 58 -13 58 C-11.05522884 58.76218833 -9.14005622 59.60250113 -7.25390625 60.5 C-6.26849854 60.9640625 -5.28309082 61.428125 -4.26782227 61.90625 C-3.51944092 62.2671875 -2.77105957 62.628125 -2 63 C-1.98969254 62.22547989 -1.97938507 61.45095978 -1.96876526 60.65296936 C-1.87095703 53.36871079 -1.76846689 46.08454054 -1.66066074 38.80042362 C-1.60539769 35.05521202 -1.55197245 31.30999266 -1.50268555 27.56469727 C-1.45509165 23.95311414 -1.40275094 20.34162868 -1.34705925 16.73016167 C-1.32661306 15.34942481 -1.30790378 13.96866114 -1.29092598 12.58787727 C-1.2669322 10.66016686 -1.23629736 8.73254251 -1.20532227 6.80493164 C-1.18977798 5.70572891 -1.1742337 4.60652618 -1.15821838 3.47401428 C-1 1 -1 1 0 0 Z M-25.68359375 98.3046875 C-29.28155306 102.49118315 -29.44693372 106.39486098 -29.32226562 111.77636719 C-28.91978848 115.74689168 -28.33870281 117.60589386 -25.68359375 120.6953125 C-21.95396434 123.20202941 -18.9940795 125.19133596 -14.39453125 124.75 C-9.07711289 123.0845117 -5.09163001 121.70567189 -2 116.875 C-0.50893914 112.36283545 -0.27842368 107.68204634 -1 103 C-3.8667907 98.64247813 -9.46470515 95.81851407 -14.359375 94.23828125 C-18.97985498 93.82134445 -21.93436442 95.78479731 -25.68359375 98.3046875 Z " fill="#FCFBFC" transform="translate(379,77)"/>
<path d="M0 0 C2.50736951 1.3378109 4.89412926 2.78433436 7.27734375 4.33203125 C9.42543657 5.64800777 11.51910668 6.78332704 13.7734375 7.890625 C18.18636842 10.06159008 22.44087815 12.45935517 26.6875 14.9375 C27.78674805 15.56301758 27.78674805 15.56301758 28.90820312 16.20117188 C29.62298828 16.61818359 30.33777344 17.03519531 31.07421875 17.46484375 C31.70932373 17.832146 32.34442871 18.19944824 32.9987793 18.57788086 C39.67246277 23.32037277 39.67246277 23.32037277 40.46592712 27.38929749 C40.6633338 30.43851102 40.69277141 33.44837882 40.6640625 36.50390625 C40.66884613 37.61934311 40.67362976 38.73477997 40.67855835 39.88401794 C40.68195617 42.23836683 40.6727622 44.59276297 40.65185547 46.94702148 C40.62506582 50.55363875 40.65162322 54.15715069 40.68359375 57.76367188 C40.68029013 60.05209021 40.67388489 62.34050661 40.6640625 64.62890625 C40.67924423 66.24775475 40.67924423 66.24775475 40.69473267 67.89930725 C40.57768011 75.36041699 40.57768011 75.36041699 37.66015625 78.59057617 C36.78230469 79.05568604 35.90445313 79.5207959 35 80 C33.93523437 80.63421875 32.87046875 81.2684375 31.7734375 81.921875 C30.65195312 82.52515625 29.53046875 83.1284375 28.375 83.75 C27.24835938 84.36359375 26.12171875 84.9771875 24.9609375 85.609375 C22 87 22 87 19 87 C19 87.66 19 88.32 19 89 C17.90300781 89.61488281 16.80601562 90.22976562 15.67578125 90.86328125 C14.22133265 91.67964917 12.76690677 92.49605756 11.3125 93.3125 C10.59126953 93.71662109 9.87003906 94.12074219 9.12695312 94.53710938 C8.42119141 94.93349609 7.71542969 95.32988281 6.98828125 95.73828125 C6.29927734 96.12459717 5.61027344 96.51091309 4.90039062 96.90893555 C3.30084524 97.8272768 1.73388754 98.80204634 0.17578125 99.7890625 C-2.38303986 101.21318197 -4.09322281 101.26910369 -6.95141602 100.69677734 C-9.44478264 99.84871771 -11.59962898 98.69424081 -13.90234375 97.4140625 C-14.87300781 96.87499268 -15.84367187 96.33592285 -16.84375 95.78051758 C-22.39067832 92.65136007 -27.92057537 89.49425174 -33.4375 86.3125 C-34.60609168 85.64252909 -35.77471136 84.97260701 -36.94335938 84.30273438 C-38.05388672 83.66271484 -39.16441406 83.02269531 -40.30859375 82.36328125 C-41.30689209 81.78876221 -42.30519043 81.21424316 -43.33374023 80.62231445 C-49.77077046 76.70563413 -49.77077046 76.70563413 -50.59759521 74.16043091 C-50.99630136 72.01985724 -51.13338991 70.06871825 -51.14526367 67.89331055 C-51.15164352 67.09535568 -51.15802338 66.29740082 -51.16459656 65.4752655 C-51.16570938 64.62104507 -51.1668222 63.76682465 -51.16796875 62.88671875 C-51.17129715 61.99894241 -51.17462555 61.11116608 -51.17805481 60.19648743 C-51.18311226 58.31955482 -51.1854635 56.44261324 -51.18530273 54.56567383 C-51.18748409 51.70834344 -51.20563816 48.85140249 -51.22460938 45.99414062 C-51.22754465 44.16666798 -51.22952855 42.33919351 -51.23046875 40.51171875 C-51.23765427 39.66357101 -51.24483978 38.81542328 -51.25224304 37.9415741 C-51.22842627 31.6912498 -51.06518552 26.133483 -46.51953125 21.4375 C-42.17523404 18.21384448 -37.40400691 15.63029543 -32.6875 13 C-31.33881836 12.23816406 -31.33881836 12.23816406 -29.96289062 11.4609375 C-24.95561813 8.63687926 -19.93008565 5.84583507 -14.89819336 3.06591797 C-13.20641938 2.11591344 -11.53875898 1.12325539 -9.875 0.125 C-5.95823102 -1.40764873 -4.06107242 -1.15063719 0 0 Z " fill="#6BA45C" transform="translate(261,136)"/>
<path d="M0 0 C0.639375 0.26167969 1.27875 0.52335938 1.9375 0.79296875 C4.38050435 2.00059022 6.67050381 3.39905761 9 4.8125 C10.55890814 5.6525334 12.12166229 6.48545528 13.6875 7.3125 C19.05118182 10.22547084 24.28313829 13.33416317 29.5 16.5 C30.28979248 16.97566406 31.07958496 17.45132813 31.89331055 17.94140625 C32.64008057 18.39773437 33.38685059 18.8540625 34.15625 19.32421875 C35.15881836 19.93463013 35.15881836 19.93463013 36.18164062 20.55737305 C39.30748852 22.71499711 40.78234832 24.15954495 42 27.8125 C42.1447963 29.76725009 42.22067502 31.7276138 42.25 33.6875 C42.27578125 34.71617187 42.3015625 35.74484375 42.328125 36.8046875 C41.94509096 40.31583289 41.03354145 41.94410386 39 44.8125 C36.81103516 46.44995117 36.81103516 46.44995117 34.2890625 47.85546875 C33.37382812 48.37173828 32.45859375 48.88800781 31.515625 49.41992188 C30.56171875 49.94134766 29.6078125 50.46277344 28.625 51 C27.67882812 51.53302734 26.73265625 52.06605469 25.7578125 52.61523438 C16.56354897 57.74826774 16.56354897 57.74826774 13 58.8125 C12.01 58.1525 11.02 57.4925 10 56.8125 C9.95952187 54.58331143 10.01614 52.35189686 10.125 50.125 C9.89099269 45.51171301 9.64606159 43.50948762 6.47265625 40.0859375 C2.88176591 37.80587157 0.20502911 36.50959039 -4 35.8125 C-9.01642626 37.40990948 -13.26383784 40.07633784 -17 43.8125 C-17.93892734 48.68566513 -18.17611728 52.97151728 -17 57.8125 C-13.11701631 61.57131852 -8.92998718 63.58333723 -4 65.8125 C18.86360424 77.00613958 18.86360424 77.00613958 24 82.8125 C24 84.1325 24 85.4525 24 86.8125 C22.34765625 88.33984375 22.34765625 88.33984375 20.0625 89.75 C19.24136719 90.26175781 18.42023438 90.77351563 17.57421875 91.30078125 C14.45332297 93.13353795 11.31974211 94.92891932 8.1328125 96.64453125 C6.12685244 97.74303319 4.19589078 98.92461283 2.25 100.125 C-1.20465616 101.91876378 -2.23424267 102.30896731 -6 101.8125 C-8.72978379 100.62598107 -11.25557579 99.14321107 -13.8125 97.625 C-14.52954102 97.21080811 -15.24658203 96.79661621 -15.98535156 96.36987305 C-20.05472814 94.00657564 -24.04708182 91.54291393 -28.00390625 88.99609375 C-31.61018905 86.85773037 -35.39760133 85.07054391 -39.16796875 83.2421875 C-47.2771322 79.14845809 -47.2771322 79.14845809 -49 74.8125 C-49.25396729 72.53613281 -49.25396729 72.53613281 -49.25878906 70.015625 C-49.26509338 69.0678418 -49.27139771 68.12005859 -49.27789307 67.14355469 C-49.2738446 66.12680664 -49.26979614 65.11005859 -49.265625 64.0625 C-49.26753845 63.01223633 -49.2694519 61.96197266 -49.27142334 60.87988281 C-49.27278347 58.66080485 -49.26909903 56.44171889 -49.26074219 54.22265625 C-49.25004044 50.82533908 -49.26064349 47.42855072 -49.2734375 44.03125 C-49.27211588 41.87499883 -49.26955342 39.71874799 -49.265625 37.5625 C-49.26967346 36.54575195 -49.27372192 35.52900391 -49.27789307 34.48144531 C-49.27158875 33.53366211 -49.26528442 32.58587891 -49.25878906 31.609375 C-49.25719788 30.77760742 -49.25560669 29.94583984 -49.25396729 29.08886719 C-48.97141153 26.55625496 -48.34303703 24.96859323 -47 22.8125 C-44.79199219 21.20019531 -44.79199219 21.20019531 -42.046875 19.640625 C-41.04116455 19.0621582 -40.0354541 18.48369141 -38.99926758 17.88769531 C-37.92700928 17.28538086 -36.85475098 16.68306641 -35.75 16.0625 C-34.66420654 15.44213867 -33.57841309 14.82177734 -32.4597168 14.18261719 C-30.29707949 12.94811374 -28.13199972 11.71787804 -25.96435547 10.4921875 C-23.45806062 9.07205008 -20.96186577 7.63727841 -18.47265625 6.1875 C-4.49349067 -1.92966434 -4.49349067 -1.92966434 0 0 Z " fill="#F8F7F7" transform="translate(476,135.1875)"/>
<path d="M0 0 C2.65735528 1.20524061 5.05832438 2.72171134 7.5 4.3125 C8.77995678 5.12313929 10.06119159 5.93176446 11.34375 6.73828125 C11.96233887 7.12886719 12.58092773 7.51945313 13.21826172 7.921875 C15.73362101 9.44391208 18.36033485 10.70862743 21 12 C24.03087079 13.70536996 27.02471037 15.4638207 30.015625 17.23828125 C31.82253947 18.3049284 33.6424365 19.35051174 35.484375 20.35546875 C36.19078125 20.75378906 36.8971875 21.15210938 37.625 21.5625 C38.23601562 21.89378906 38.84703125 22.22507813 39.4765625 22.56640625 C42.37161591 25.29072574 42.91373002 28.74323195 43.1796875 32.61766052 C43.24822252 35.87057677 43.25079572 39.11751124 43.23046875 42.37109375 C43.23001053 43.56678482 43.22955231 44.76247589 43.2290802 45.99440002 C43.22606443 48.5184936 43.2181984 51.04258542 43.20581055 53.56665039 C43.18758206 57.42015211 43.18530085 61.27341282 43.18554688 65.12695312 C43.18063004 67.5833354 43.17480101 70.03971606 43.16796875 72.49609375 C43.16685593 73.64420029 43.1657431 74.79230682 43.16459656 75.97520447 C43.0763941 90.9236059 43.0763941 90.9236059 41 93 C36.40774026 93.83495632 33.83724102 91.87265721 30.1796875 89.4296875 C27.96384827 87.97628758 25.7041271 86.70009079 23.375 85.4375 C18.943134 83.00341816 14.59832488 80.59832488 11 77 C10.74462891 73.89892578 10.74462891 73.89892578 10.7265625 69.9453125 C10.70627012 68.51171099 10.68541928 67.0781173 10.6640625 65.64453125 C10.64147402 63.38421033 10.62499792 61.12419807 10.61914062 58.86376953 C10.60960722 56.68204919 10.57581951 54.50172047 10.5390625 52.3203125 C10.53084473 51.01336426 10.52262695 49.70641602 10.51416016 48.35986328 C9.92097494 44.48359788 9.04541808 43.36707674 6 41 C2.70053007 38.81565907 -0.49975905 37.03750602 -4.5 36.9375 C-11.27921812 39.77578827 -11.27921812 39.77578827 -16 45 C-16.09546899 47.3500913 -16.13191061 49.702674 -16.140625 52.0546875 C-16.15895237 53.48829715 -16.17852262 54.92189134 -16.19921875 56.35546875 C-16.22819347 58.61598779 -16.25000011 60.87551362 -16.25048828 63.13623047 C-16.25382548 65.31827939 -16.28838157 67.49803691 -16.328125 69.6796875 C-16.3374707 70.98663574 -16.34681641 72.29358398 -16.35644531 73.64013672 C-17 77 -17 77 -19.36254883 79.33129883 C-20.23290771 79.88197021 -21.1032666 80.4326416 -22 81 C-22.94746094 81.66644531 -23.89492187 82.33289063 -24.87109375 83.01953125 C-28.17820302 85.11279517 -31.56220224 86.94683188 -35.0625 88.6875 C-35.66126953 88.99494141 -36.26003906 89.30238281 -36.87695312 89.61914062 C-40.21276882 91.28887532 -43.27307793 92.59653504 -47 93 C-48.83070915 91.16929085 -48.16598 88.25849483 -48.19287109 85.79956055 C-48.20104858 85.15235046 -48.20922607 84.50514038 -48.21765137 83.83831787 C-48.24254562 81.68779436 -48.25903238 79.53733707 -48.2734375 77.38671875 C-48.27876118 76.65344675 -48.28408485 75.92017475 -48.28956985 75.16468239 C-48.31632036 71.28273182 -48.33568813 67.40081361 -48.35009766 63.51879883 C-48.36674085 59.50677454 -48.4115089 55.49557252 -48.4624691 51.48385906 C-48.49611484 48.40148467 -48.50767211 45.31930592 -48.51332474 42.23676491 C-48.52004595 40.75794003 -48.53529089 39.27912841 -48.55921555 37.8004818 C-48.59081398 35.72918048 -48.59091387 33.66010178 -48.58349609 31.58862305 C-48.59158295 30.4102739 -48.5996698 29.23192474 -48.60800171 28.01786804 C-48 25 -48 25 -45.58860779 22.66999817 C-44.73436722 22.11889877 -43.88012665 21.56779938 -43 21 C-42.00939575 20.35224609 -42.00939575 20.35224609 -40.9987793 19.69140625 C-40.36367432 19.31886719 -39.72856934 18.94632813 -39.07421875 18.5625 C-38.00204102 17.93214844 -38.00204102 17.93214844 -36.90820312 17.2890625 C-36.17537109 16.86367187 -35.44253906 16.43828125 -34.6875 16 C-33.6056543 15.36191406 -33.6056543 15.36191406 -32.50195312 14.7109375 C-28.3591692 12.28843067 -24.16787122 10.06307056 -19.85961914 7.95117188 C-16.07399513 6.01487266 -12.52249831 3.65876551 -8.9296875 1.390625 C-5.49532966 -0.23955019 -3.75824047 -0.57272934 0 0 Z " fill="#FBFAFA" transform="translate(151,134)"/>
<path d="M0 0 C2.02511199 1.19953837 3.9557648 2.48152485 5.88745117 3.82617188 C7.29150423 4.75528167 8.69775019 5.68108632 10.10620117 6.60351562 C10.77780273 7.04679199 11.4494043 7.49006836 12.14135742 7.94677734 C15.20564473 9.89874115 18.43569036 11.43362125 21.70776367 12.99804688 C28.31619994 16.26866279 34.65066621 20.05185024 40.01245117 25.13867188 C40.92987161 27.89093318 41.14786074 29.56712292 41.17358398 32.40722656 C41.18319153 33.26531921 41.19279907 34.12341187 41.20269775 35.00750732 C41.20694763 35.93251038 41.21119751 36.85751343 41.21557617 37.81054688 C41.22127625 38.76632629 41.22697632 39.72210571 41.23284912 40.70684814 C41.24229749 42.73098647 41.24883246 44.75514017 41.25268555 46.77929688 C41.26237025 49.86290672 41.29338672 52.94584405 41.32495117 56.02929688 C41.3314836 57.99804293 41.33673313 59.96679374 41.34057617 61.93554688 C41.35292297 62.852453 41.36526978 63.76935913 41.37799072 64.71405029 C41.35876704 70.29136893 40.75155136 74.2369786 38.01245117 79.13867188 C36.37768555 80.75610352 36.37768555 80.75610352 34.60620117 81.79882812 C33.62248535 82.39570435 33.62248535 82.39570435 32.61889648 83.00463867 C31.92376953 83.39949463 31.22864258 83.79435059 30.51245117 84.20117188 C29.79412109 84.62889893 29.07579102 85.05662598 28.33569336 85.49731445 C23.51240271 88.34758789 18.62256071 91.08400896 13.66479492 93.69335938 C9.68336106 95.86291833 5.86149314 98.29445367 2.03198242 100.72070312 C-2.21494309 102.71505495 -6.29008608 104.00440117 -10.90527344 102.52319336 C-12.80964952 101.60345061 -14.57241921 100.57634049 -16.36254883 99.45117188 C-16.97743164 99.09861328 -17.59231445 98.74605469 -18.22583008 98.3828125 C-21.52471699 96.40853335 -23.73126835 94.8488869 -24.98754883 91.13867188 C-21.91229645 88.80893522 -20.40370899 88.12380901 -16.48754883 88.26367188 C-12.98754883 89.13867188 -12.98754883 89.13867188 -10.42504883 90.76367188 C-8.03642564 92.38428961 -8.03642564 92.38428961 -5.11254883 92.07617188 C-1.35356479 90.94847666 1.70395221 89.18679028 5.01245117 87.13867188 C7.09100569 85.88074148 9.17469208 84.63126584 11.26245117 83.38867188 C12.27823242 82.77507812 13.29401367 82.16148437 14.34057617 81.52929688 C17.01245117 80.13867188 17.01245117 80.13867188 20.01245117 80.13867188 C20.01245117 79.47867188 20.01245117 78.81867188 20.01245117 78.13867188 C21.07786133 77.77515625 21.07786133 77.77515625 22.16479492 77.40429688 C25.71505043 76.10967355 27.51615046 75.01705943 30.01245117 72.13867188 C31.71846938 66.00890877 31.27037472 59.4228928 31.08325195 53.12207031 C31.01453962 50.22667479 31.06028925 47.35384659 31.13354492 44.45898438 C31.47183608 35.72804157 31.47183608 35.72804157 28.43041992 27.84179688 C26.04330836 26.19429131 23.70560778 25.21519464 21.01245117 24.13867188 C19.36339652 23.18806391 17.71507699 22.2356441 16.08642578 21.25048828 C14.30512362 20.18936053 12.49644065 19.19881189 10.67260742 18.21289062 C8.19337384 16.85694712 5.91688139 15.38367648 3.63354492 13.72070312 C0.16359547 11.35565332 -2.77121422 9.83777576 -6.98754883 9.13867188 C-12.897559 10.76491628 -17.95746371 14.31706409 -22.95581055 17.75830078 C-30.87506209 23.13867188 -30.87506209 23.13867188 -33.98754883 23.13867188 C-33.98754883 23.79867187 -33.98754883 24.45867187 -33.98754883 25.13867188 C-37.94754883 27.11867187 -37.94754883 27.11867187 -41.98754883 29.13867188 C-42.21052031 35.15242225 -42.37355988 41.16375526 -42.48193359 47.18066406 C-42.52711583 49.22568679 -42.58847863 51.27041999 -42.66650391 53.31445312 C-42.77607215 56.25918907 -42.82678968 59.200078 -42.86645508 62.14648438 C-42.91290665 63.05608917 -42.95935822 63.96569397 -43.00721741 64.90286255 C-43.01033803 68.85283434 -42.91746379 71.17657061 -40.099823 74.09173584 C-36.02653794 76.98308776 -33.08106623 78.61306356 -27.98754883 78.13867188 C-26.41681351 76.56793656 -26.82385576 74.9850497 -26.78222656 72.80249023 C-26.76228134 71.88161118 -26.74233612 70.96073212 -26.7217865 70.01194763 C-26.70507401 69.01091507 -26.68836151 68.00988251 -26.67114258 66.97851562 C-26.65036148 65.95891251 -26.62958038 64.93930939 -26.60816956 63.8888092 C-26.54256031 60.6180014 -26.48373649 57.34711051 -26.42504883 54.07617188 C-26.38187441 51.86457459 -26.33826049 49.65298585 -26.29418945 47.44140625 C-26.18686743 42.00725036 -26.08512259 36.57301106 -25.98754883 31.13867188 C-23.25507535 29.77243513 -21.0055598 30.01024588 -17.98754883 30.13867188 C-16.3579169 31.76830381 -16.83546955 33.60454235 -16.81054688 35.85449219 C-16.79129402 37.36175873 -16.79129402 37.36175873 -16.77165222 38.8994751 C-16.76426529 39.99419128 -16.75687836 41.08890747 -16.74926758 42.21679688 C-16.74119583 43.33552185 -16.73312408 44.45424683 -16.72480774 45.60687256 C-16.71094612 47.98090048 -16.70023331 50.3549485 -16.69238281 52.72900391 C-16.67518731 56.35943495 -16.63132049 59.98895166 -16.5871582 63.61914062 C-16.57703036 65.92251933 -16.56851454 68.22590579 -16.56176758 70.52929688 C-16.54425949 71.61591614 -16.5267514 72.7025354 -16.50871277 73.82208252 C-16.53047123 81.38923458 -16.53047123 81.38923458 -18.90478516 85.28222656 C-22.78484529 88.74066957 -25.4424303 89.47426145 -30.73217773 89.42211914 C-34.85935209 88.90343009 -38.20809993 86.95163062 -41.80004883 84.95117188 C-42.92443359 84.37012695 -42.92443359 84.37012695 -44.0715332 83.77734375 C-48.39612377 81.43920497 -50.97910683 79.813016 -52.98754883 75.13867188 C-53.42233458 71.61738882 -53.40787294 68.12449319 -53.38598633 64.58007812 C-53.38885651 63.55816879 -53.39172668 62.53625946 -53.39468384 61.48338318 C-53.39672207 59.32574915 -53.39120909 57.16809655 -53.37866211 55.01049805 C-53.36262206 51.71621135 -53.37851098 48.42315461 -53.39770508 45.12890625 C-53.39572228 43.02929418 -53.39187785 40.92968287 -53.38598633 38.83007812 C-53.39205902 37.84866348 -53.39813171 36.86724884 -53.40438843 35.85609436 C-53.35011539 30.55083268 -53.03701232 26.68588866 -49.98754883 22.13867188 C-47.09692383 19.94335938 -47.09692383 19.94335938 -43.73754883 18.01367188 C-43.15489258 17.67384277 -42.57223633 17.33401367 -41.97192383 16.98388672 C-40.31789868 16.0225769 -38.65301443 15.080022 -36.98754883 14.13867188 C-36.25020508 13.70039063 -35.51286133 13.26210937 -34.75317383 12.81054688 C-32.41113689 11.42190551 -30.12443283 10.1908076 -27.57739258 9.22070312 C-24.9568967 8.12586548 -22.87163135 6.82752113 -20.55004883 5.20117188 C-14.18209257 0.90332681 -7.8064414 -3.38301502 0 0 Z " fill="#62805D" transform="translate(313.987548828125,228.861328125)"/>
<path d="M0 0 C0.79470703 -0.020625 1.58941406 -0.04125 2.40820312 -0.0625 C8.6374174 -0.10371895 12.89695371 1.02136037 17.5 5.5 C19.51295481 8.78037081 19.88897665 11.44382735 20.1875 15.25 C17.1875 17.25 17.1875 17.25 14.25 17.25 C13.239375 16.92 12.22875 16.59 11.1875 16.25 C10.6925 15.239375 10.1975 14.22875 9.6875 13.1875 C7.46062536 9.8956733 7.46062536 9.8956733 3.828125 9.85546875 C0.26463107 9.87335778 -3.2586333 9.99343743 -6.8125 10.25 C-7.4725 11.57 -8.1325 12.89 -8.8125 14.25 C-3.59025207 15.48917747 1.55545207 16.46155252 6.875 17.1875 C15.75052658 18.55615597 15.75052658 18.55615597 19.1875 21.25 C21.59562327 26.48505059 21.76604607 31.74642045 20.1875 37.25 C17.38983802 41.012373 14.10662054 41.66349794 9.6875 42.5625 C0.64936113 43.78687842 -8.70002845 44.25820696 -16.3515625 38.640625 C-18.44882819 36.64429723 -19.31294065 35.10462483 -19.8125 32.25 C-19.29967949 27.73717949 -19.29967949 27.73717949 -17.8125 26.25 C-15.47952567 26.20907063 -13.14544775 26.20758277 -10.8125 26.25 C-9.3518715 28.89738916 -8.8125 30.14448334 -8.8125 33.25 C-6.02076945 33.27690104 -3.22929652 33.29679053 -0.4375 33.3125 C0.75359375 33.32506836 0.75359375 33.32506836 1.96875 33.33789062 C6.21142222 33.48040151 6.21142222 33.48040151 10.1875 32.25 C9.6925 29.775 9.6925 29.775 9.1875 27.25 C8.13691406 27.15203125 7.08632813 27.0540625 6.00390625 26.953125 C-10.52078503 25.26267486 -10.52078503 25.26267486 -15.8125 21.25 C-18.59281848 17.19867879 -19.09947928 14.2999594 -18.3125 9.5625 C-17.17619976 5.41959168 -15.58909748 3.46069121 -11.8125 1.25 C-7.82855124 -0.07798292 -4.17195725 0.02667918 0 0 Z " fill="#60835B" transform="translate(317.8125,258.75)"/>
<path d="M0 0 C1.24060918 2.48121835 1.05058285 3.9572169 0.92993164 6.72509766 C0.88981461 7.70596344 0.84969757 8.68682922 0.80836487 9.69741821 C0.75945602 10.75891083 0.71054718 11.82040344 0.66015625 12.9140625 C0.61434921 13.99883881 0.56854218 15.08361511 0.52134705 16.20126343 C0.37344889 19.6760808 0.21805594 23.15051782 0.0625 26.625 C-0.03890415 28.97654131 -0.13982194 31.32810364 -0.24023438 33.6796875 C-0.48784023 39.45338111 -0.7416051 45.22677973 -1 51 C-0.34 51 0.32 51 1 51 C1.226875 50.319375 1.45375 49.63875 1.6875 48.9375 C2.80490482 46.4366416 3.87609926 44.71812045 5.5 42.5625 C7.75739786 39.52600022 9.01183829 36.6831482 10 33 C10.66 33 11.32 33 12 33 C12.2165625 31.824375 12.2165625 31.824375 12.4375 30.625 C13 28 13 28 14 26 C17 27 17 27 18.60546875 29.65234375 C19.12753906 30.73644531 19.64960938 31.82054687 20.1875 32.9375 C20.71730469 34.01902344 21.24710938 35.10054687 21.79296875 36.21484375 C23 39 23 39 23 41 C23.66 41 24.32 41 25 41 C25.24234375 41.556875 25.4846875 42.11375 25.734375 42.6875 C29.88247911 52.42178079 29.88247911 52.42178079 35.4375 61.375 C38.57026748 65.58769664 43 71.62236929 43 77 C43.99 77.33 44.98 77.66 46 78 C41.32725827 77.79232259 38.16333192 76.71703939 34.078125 74.42578125 C33.11028076 73.88501953 32.14243652 73.34425781 31.14526367 72.78710938 C30.10732666 72.19736328 29.06938965 71.60761719 28 71 C26.92274658 70.38962891 25.84549316 69.77925781 24.7355957 69.15039062 C21.3382926 67.21514603 17.94943256 65.26583076 14.5625 63.3125 C13.39390832 62.64252909 12.22528864 61.97260701 11.05664062 61.30273438 C9.94611328 60.66271484 8.83558594 60.02269531 7.69140625 59.36328125 C6.69310791 58.78876221 5.69480957 58.21424316 4.66625977 57.62231445 C-1.77077046 53.70563413 -1.77077046 53.70563413 -2.59759521 51.16043091 C-2.99630136 49.01985724 -3.13338991 47.06871825 -3.14526367 44.89331055 C-3.15164352 44.09535568 -3.15802338 43.29740082 -3.16459656 42.4752655 C-3.16570938 41.62104507 -3.1668222 40.76682465 -3.16796875 39.88671875 C-3.17129715 38.99894241 -3.17462555 38.11116608 -3.17805481 37.19648743 C-3.18311226 35.31955482 -3.1854635 33.44261324 -3.18530273 31.56567383 C-3.18748409 28.70834344 -3.20563816 25.85140249 -3.22460938 22.99414062 C-3.22754465 21.16666798 -3.22952855 19.33919351 -3.23046875 17.51171875 C-3.23765427 16.66357101 -3.24483978 15.81542328 -3.25224304 14.9415741 C-3.20753063 3.20753063 -3.20753063 3.20753063 0 0 Z " fill="#41803E" transform="translate(213,159)"/>
<path d="M0 0 C2.31 0 4.62 0 7 0 C7.05086217 6.56531452 7.08580161 13.13057788 7.10986328 19.69604492 C7.11989816 21.92783507 7.13352907 24.15961215 7.15087891 26.39135742 C7.17523761 29.60598993 7.18650847 32.82044803 7.1953125 36.03515625 C7.20563507 37.02709488 7.21595764 38.01903351 7.22659302 39.04103088 C7.22745659 44.41725166 6.92603708 48.95411856 5 54 C1.89665711 56.82951852 -1.32216308 57.68363407 -5.53125 57.5703125 C-11.10796845 56.28201995 -16.13143514 52.90926437 -21 50 C-17.28272326 48.86416544 -15.52948291 49.33329974 -12 51 C-12 51.66 -12 52.32 -12 53 C-11.34 53 -10.68 53 -10 53 C-10.495 51.515 -10.495 51.515 -11 50 C-10.67 49.34 -10.34 48.68 -10 48 C-8.1875 47.62109375 -8.1875 47.62109375 -6 47.4375 C-3.21067942 47.37334592 -3.21067942 47.37334592 -1 46 C-0.87778475 44.55815707 -0.82227242 43.11056856 -0.79467773 41.66381836 C-0.77473251 40.7429393 -0.75478729 39.82206024 -0.73423767 38.87327576 C-0.71752518 37.87224319 -0.70081268 36.87121063 -0.68359375 35.83984375 C-0.66281265 34.82024063 -0.64203156 33.80063751 -0.62062073 32.75013733 C-0.55501148 29.47932952 -0.49618766 26.20843863 -0.4375 22.9375 C-0.39432558 20.72590272 -0.35071166 18.51431397 -0.30664062 16.30273438 C-0.1993186 10.86857849 -0.09757377 5.43433918 0 0 Z " fill="#6D9669" transform="translate(289,261)"/>
<path d="M0 0 C0.33 0 0.66 0 1 0 C1.02505615 0.87100342 1.0501123 1.74200684 1.07592773 2.6394043 C1.17226575 5.9365237 1.27140559 9.23353606 1.37231445 12.53051758 C1.41506713 13.94519872 1.4567702 15.35991205 1.49731445 16.7746582 C1.33200761 32.12367237 1.33200761 32.12367237 4 47 C5.65 47 7.3 47 9 47 C8.67 46.34 8.34 45.68 8 45 C7.88232528 43.5505207 7.82310732 42.09606004 7.79467773 40.64208984 C7.7647599 39.29091568 7.7647599 39.29091568 7.73423767 37.91244507 C7.71752518 36.93844757 7.70081268 35.96445007 7.68359375 34.9609375 C7.6524221 33.46694931 7.6524221 33.46694931 7.62062073 31.94277954 C7.55510958 28.75359146 7.49623296 25.56431942 7.4375 22.375 C7.39431627 20.21613707 7.35070203 18.0572827 7.30664062 15.8984375 C7.19942664 10.5990477 7.09766315 5.29957394 7 0 C8.32 0.33 9.64 0.66 11 1 C10.95286865 2.27117676 10.9057373 3.54235352 10.85717773 4.85205078 C10.6939204 9.58144802 10.59083486 14.31059835 10.50561523 19.04199219 C10.46043299 21.08701491 10.39907019 23.13174812 10.32104492 25.17578125 C10.21147668 28.12051719 10.16075914 31.06140613 10.12109375 34.0078125 C10.07464218 34.9174173 10.02819061 35.82702209 9.98033142 36.76419067 C9.9772108 40.71416247 10.07008504 43.03789874 12.88772583 45.95306396 C16.96101089 48.84441588 19.9064826 50.47439169 25 50 C26.57073532 48.42926468 26.16369307 46.84637782 26.20532227 44.66381836 C26.22526749 43.7429393 26.24521271 42.82206024 26.26576233 41.87327576 C26.28247482 40.87224319 26.29918732 39.87121063 26.31640625 38.83984375 C26.33718735 37.82024063 26.35796844 36.80063751 26.37937927 35.75013733 C26.44498852 32.47932952 26.50381234 29.20843863 26.5625 25.9375 C26.60567442 23.72590272 26.64928834 21.51431397 26.69335938 19.30273438 C26.8006814 13.86857849 26.90242623 8.43433918 27 3 C29.73247348 1.63376326 31.98198902 1.871574 35 2 C36.63791517 3.63791517 36.13567543 5.50520084 36.14526367 7.76342773 C36.15164352 8.77795517 36.15802338 9.7924826 36.16459656 10.8377533 C36.16570938 11.94188065 36.1668222 13.046008 36.16796875 14.18359375 C36.17296135 15.87235374 36.17296135 15.87235374 36.17805481 17.5952301 C36.18312894 19.98185821 36.18546299 22.36849345 36.18530273 24.75512695 C36.18748851 28.41824974 36.2056374 32.08107122 36.22460938 35.74414062 C36.22754326 38.05729063 36.22952809 40.37044208 36.23046875 42.68359375 C36.23765427 43.78569687 36.24483978 44.88779999 36.25224304 46.02330017 C36.24916641 47.04097977 36.24608978 48.05865936 36.24291992 49.10717773 C36.24434494 50.00572983 36.24576996 50.90428192 36.24723816 51.83006287 C36 54 36 54 34 56 C34.33 38.84 34.66 21.68 35 4 C32.69 4 30.38 4 28 4 C28.00444122 4.57185028 28.00888245 5.14370056 28.01345825 5.73287964 C28.05760951 11.66971342 28.08783212 17.60650078 28.10986328 23.54345703 C28.11993825 25.76092421 28.13359859 27.97837805 28.15087891 30.19580078 C28.17506163 33.37796312 28.18646797 36.55995024 28.1953125 39.7421875 C28.20563507 40.73805878 28.21595764 41.73393005 28.22659302 42.75997925 C28.22674408 43.68078278 28.22689514 44.6015863 28.22705078 45.55029297 C28.231492 46.3630368 28.23593323 47.17578064 28.24050903 48.01315308 C28 50 28 50 26 52 C23.31160615 52.26991906 20.70858064 52.08737357 18 52 C18 53.65 18 55.3 18 57 C17.34 57 16.68 57 16 57 C15.67 56.34 15.34 55.68 15 55 C11.98158627 54.22061854 8.94549216 53.6535449 5.8828125 53.07421875 C3 52 3 52 1.33813477 50.10595703 C-0.64701469 45.4982082 -0.36964562 41.19371859 -0.29296875 36.23046875 C-0.28872391 35.19432938 -0.28447906 34.15819 -0.28010559 33.09065247 C-0.26334605 29.78933458 -0.2256981 26.48863263 -0.1875 23.1875 C-0.17244967 20.94597237 -0.15876188 18.70443515 -0.14648438 16.46289062 C-0.11345148 10.97505114 -0.06327893 5.48756958 0 0 Z " fill="#51684D" transform="translate(261,257)"/>
<path d="M0 0 C2.6875 0.875 2.6875 0.875 5 2 C5.05058332 9.2265322 5.08568412 16.45301899 5.10986328 23.6796875 C5.11993983 26.13966579 5.13360131 28.59963206 5.15087891 31.05957031 C5.17505461 34.58922285 5.1864664 38.11871747 5.1953125 41.6484375 C5.20563507 42.75367767 5.21595764 43.85891785 5.22659302 44.99765015 C5.22674408 46.01855743 5.22689514 47.03946472 5.22705078 48.09130859 C5.231492 48.99287689 5.23593323 49.89444519 5.24050903 50.82333374 C5 53 5 53 3 55 C0.39300408 56.04611938 -2.20003022 56.74233407 -5 57 C-7 55.625 -7 55.625 -8 54 C-4.535 53.505 -4.535 53.505 -1 53 C-1.09087891 52.05253906 -1.09087891 52.05253906 -1.18359375 51.0859375 C-1.7049902 45.51902771 -2.18525142 39.94895604 -2.625 34.375 C-2.72039062 33.18648438 -2.81578125 31.99796875 -2.9140625 30.7734375 C-2.94242187 29.85820312 -2.97078125 28.94296875 -3 28 C-2.67 27.67 -2.34 27.34 -2 27 C-1.37558014 18.73561947 -2.38460988 10.24183193 -3 2 C-2.01 1.34 -1.02 0.68 0 0 Z " fill="#6D9369" transform="translate(348,254)"/>
<path d="M0 0 C1.5 1.3125 1.5 1.3125 3 3 C3 3.99 3 4.98 3 6 C1.68 6 0.36 6 -1 6 C-0.67 6.66 -0.34 7.32 0 8 C0.11767472 9.4494793 0.17689268 10.90393996 0.20532227 12.35791016 C0.22526749 13.25869293 0.24521271 14.15947571 0.26576233 15.08755493 C0.28247482 16.06155243 0.29918732 17.03554993 0.31640625 18.0390625 C0.33718735 19.03505463 0.35796844 20.03104675 0.37937927 21.05722046 C0.44489042 24.24640854 0.50376704 27.43568058 0.5625 30.625 C0.60568373 32.78386293 0.64929797 34.9427173 0.69335938 37.1015625 C0.80057336 42.4009523 0.90233685 47.70042606 1 53 C-1.375 53.1875 -1.375 53.1875 -4 53 C-9.63388432 44.54917351 -7.11887908 29.2325501 -7.0625 19.1875 C-7.05746947 17.6087254 -7.05290934 16.02994922 -7.04882812 14.45117188 C-7.03795816 10.6340748 -7.02078136 6.81705545 -7 3 C-4.69 2.01 -2.38 1.02 0 0 Z " fill="#6B9568" transform="translate(269,251)"/>
<path d="M0 0 C2.09190644 1.6892452 2.92686644 2.57908307 3.39440918 5.27000427 C3.40282837 6.15728714 3.41124756 7.04457001 3.41992188 7.95874023 C3.43583374 8.96666122 3.45174561 9.97458221 3.46813965 11.01304626 C3.46834106 12.10057693 3.46854248 13.1881076 3.46875 14.30859375 C3.48017029 15.98599388 3.48017029 15.98599388 3.49182129 17.69728088 C3.5026326 20.06354539 3.50547124 22.42985765 3.50097656 24.79614258 C3.50000463 28.42024188 3.54160975 32.04222239 3.5859375 35.66601562 C3.59114455 37.96353724 3.59383269 40.26106623 3.59375 42.55859375 C3.6183429 44.18685341 3.6183429 44.18685341 3.64343262 45.8480072 C3.57427839 53.36190623 3.57427839 53.36190623 0.66455078 56.5949707 C-0.65440186 57.29046021 -0.65440186 57.29046021 -2 58 C-3.06476563 58.63421875 -4.12953125 59.2684375 -5.2265625 59.921875 C-6.34804688 60.52515625 -7.46953125 61.1284375 -8.625 61.75 C-10.31496094 62.67039062 -10.31496094 62.67039062 -12.0390625 63.609375 C-15 65 -15 65 -18 65 C-18 65.66 -18 66.32 -18 67 C-22.62 69.64 -27.24 72.28 -32 75 C-32.33 74.34 -32.66 73.68 -33 73 C-32.34 73 -31.68 73 -31 73 C-31 72.01 -31 71.02 -31 70 C-28.09399739 68.74335022 -26.20395416 68 -23 68 C-23 66.68 -23 65.36 -23 64 C-22.0409375 63.8453125 -22.0409375 63.8453125 -21.0625 63.6875 C-20.381875 63.460625 -19.70125 63.23375 -19 63 C-18.67 62.01 -18.34 61.02 -18 60 C-16.109375 58.9375 -16.109375 58.9375 -13.75 58 C-6.20721781 54.95470431 -6.20721781 54.95470431 -1 49 C-0.47057267 45.73882083 -0.39382804 42.48655131 -0.3125 39.1875 C-0.27979004 38.25639404 -0.24708008 37.32528809 -0.21337891 36.3659668 C-0.12284589 33.57740619 -0.05603132 30.78945118 0 28 C0.01659668 27.20239258 0.03319336 26.40478516 0.05029297 25.58300781 C0.6275807 18.06346553 0.6275807 18.06346553 -1 11 C-3.29038506 12.9468273 -4.63466117 15.02066476 -6.0625 17.625 C-8 21 -8 21 -10 22 C-8.44966581 16.10873008 -5.45088361 10.97939999 -2 6 C-1.34 5.67 -0.68 5.34 0 5 C0 3.35 0 1.7 0 0 Z " fill="#3B5935" transform="translate(298,158)"/>
<path d="M0 0 C4.5491009 1.62467889 8.51073179 3.95045701 12.625 6.4375 C13.29273438 6.83259766 13.96046875 7.22769531 14.6484375 7.63476562 C15.29296875 8.02212891 15.9375 8.40949219 16.6015625 8.80859375 C17.18244629 9.15720459 17.76333008 9.50581543 18.36181641 9.86499023 C21.40088761 11.97060008 22.8145986 13.44379581 24 17 C24.09582469 18.43634241 24.13807145 19.87664478 24.14526367 21.31616211 C24.15164352 22.18393784 24.15802338 23.05171356 24.16459656 23.94578552 C24.16570938 24.88019974 24.1668222 25.81461395 24.16796875 26.77734375 C24.17129715 27.74023819 24.17462555 28.70313263 24.17805481 29.69520569 C24.183118 31.73193891 24.18546332 33.76868042 24.18530273 35.80541992 C24.18748902 38.92185115 24.20565067 42.0379283 24.22460938 45.15429688 C24.22754344 47.13281129 24.22952815 49.11132738 24.23046875 51.08984375 C24.23765427 52.02223373 24.24483978 52.95462372 24.25224304 53.91526794 C24.24916641 54.78619583 24.24608978 55.65712372 24.24291992 56.55444336 C24.24434494 57.31816757 24.24576996 58.08189178 24.24723816 58.86875916 C23.96786158 61.27703942 23.19628909 62.90804644 22 65 C21.15552477 62.06442707 20.87790577 59.46554711 20.88647461 56.41503906 C20.88655014 55.51440735 20.88662567 54.61377563 20.88670349 53.68585205 C20.89186478 52.72217712 20.89702606 51.7585022 20.90234375 50.765625 C20.9037587 49.77246277 20.90517365 48.77930054 20.90663147 47.75604248 C20.91222412 44.58733088 20.9247753 41.41869021 20.9375 38.25 C20.94251595 36.10026144 20.94707869 33.95052177 20.95117188 31.80078125 C20.96219114 26.53383001 20.978922 21.26692007 21 16 C17.95086772 14.98888907 17.95086772 14.98888907 15 16 C15.33 24.25 15.66 32.5 16 41 C14 39 14 39 13.82397461 37.03222656 C13.84983643 36.24299805 13.87569824 35.45376953 13.90234375 34.640625 C14.4137575 25.11413865 14.4137575 25.11413865 11.25390625 16.51953125 C8.88929738 14.99093661 6.63303559 13.98989314 4 13 C2.30093628 12.06232122 0.61271824 11.10464426 -1.0625 10.125 C-2.37285418 9.41270491 -3.68454067 8.70282224 -5 8 C-5 7.67 -5 7.34 -5 7 C-3.35 7 -1.7 7 0 7 C0.33 7.99 0.66 8.98 1 10 C1.99 10 2.98 10 4 10 C3.67 8.35 3.34 6.7 3 5 C2.34 5 1.68 5 1 5 C0.67 3.35 0.34 1.7 0 0 Z " fill="#5B7854" transform="translate(331,240)"/>
<path d="M0 0 C2.3788509 1.26906301 4.68236321 2.61833191 7 4 C7 7.96 7 11.92 7 16 C-0.18538566 20.01894452 -0.18538566 20.01894452 -3.6875 19.9375 C-6.70737585 18.71322601 -9.67045917 17.32954083 -12 15 C-12.50822652 10.4259613 -12.9481733 6.35453329 -10.25 2.5 C-4.0625 -1.625 -4.0625 -1.625 0 0 Z " fill="#6B8968" transform="translate(475,176)"/>
<path d="M0 0 C1.96665955 1.30531311 1.96665955 1.30531311 4 4 C4.63649855 7.69347443 4.55621948 11.37491704 4.53344727 15.11499023 C4.54206284 16.24871063 4.55067841 17.38243103 4.55955505 18.55050659 C4.58228402 22.30343362 4.57546275 26.05561811 4.56640625 29.80859375 C4.57163888 32.41406985 4.57791403 35.01954406 4.58518982 37.62501526 C4.59703914 43.08838262 4.59134214 48.55153794 4.57641602 54.01489258 C4.55949642 60.32602597 4.57532632 66.63646762 4.6076389 72.94752544 C4.63756831 79.0237929 4.63951673 85.0997441 4.6301403 91.17607307 C4.62931923 93.75928713 4.6362122 96.34251543 4.65091133 98.92568779 C4.66830491 102.53617833 4.65385503 106.14518478 4.63110352 109.75561523 C4.64279572 110.82539108 4.65448792 111.89516693 4.66653442 112.99736023 C4.57350654 120.24279958 4.57350654 120.24279958 1.63633728 124.1207428 C-0.87235033 125.90900764 -3.06771179 127.07842371 -6 128 C-5.34 126.35 -4.68 124.7 -4 123 C-2.68 123.33 -1.36 123.66 0 124 C0 123.01 0 122.02 0 121 C0.66 121 1.32 121 2 121 C1.89280935 105.66647657 1.78005667 90.33300106 1.66066074 74.99956799 C1.60535469 67.88018117 1.55187699 60.76078933 1.50268555 53.64135742 C1.45523693 46.7749026 1.40271695 39.90850166 1.34705925 33.04210854 C1.32662786 30.41818821 1.3079161 27.79425393 1.29092598 25.17030907 C1.26689945 21.50435704 1.23684229 17.83850159 1.20532227 14.17260742 C1.1995668 13.0800061 1.19381134 11.98740479 1.18788147 10.86169434 C1.17809265 9.86470016 1.16830383 8.86770599 1.15821838 7.84049988 C1.15176583 6.97309268 1.14531328 6.10568548 1.1386652 5.21199322 C1.08383643 2.82441964 1.08383643 2.82441964 0 0 Z " fill="#A8A4A6" transform="translate(406,90)"/>
<path d="M0 0 C24.22090261 2.22090261 24.22090261 2.22090261 29 7 C29.22325051 11.53942698 29.10720735 15.57117061 28 20 C27.67 20 27.34 20 27 20 C26.67 18.02 26.34 16.04 26 14 C24.68 14.99 23.36 15.98 22 17 C21.78472656 16.20980469 21.56945312 15.41960937 21.34765625 14.60546875 C20.24066787 11.78941327 20.24066787 11.78941327 17.49609375 10.92578125 C16.48675781 10.72339844 15.47742188 10.52101563 14.4375 10.3125 C13.36886719 10.085625 12.30023438 9.85875 11.19921875 9.625 C10.14347656 9.41875 9.08773438 9.2125 8 9 C6.24909502 8.6081891 4.49896123 8.21289812 2.75 7.8125 C1.5125 7.544375 0.275 7.27625 -1 7 C-1 3 -1 3 0 0 Z " fill="#6D946A" transform="translate(309,274)"/>
<path d="M0 0 C2.88381579 2.58803981 3.8491179 4.19529549 4.5625 8 C3.78056289 12.17033126 2.44652326 13.55871269 -1 16 C-3.83450976 16.70862744 -6.16549024 16.70862744 -9 16 C-12.44652326 13.55871269 -13.78056289 12.17033126 -14.5625 8 C-13.87206143 4.31766096 -12.63186072 2.63186072 -10 0 C-6.16652698 -1.27782434 -3.91272241 -0.96101954 0 0 Z M-10 7 C-9 9 -9 9 -9 9 Z M-1 7 C0 9 0 9 0 9 Z " fill="#5A5B53" transform="translate(371,248)"/>
<path d="M0 0 C0.33 0 0.66 0 1 0 C1.05847045 3.85410207 1.09375405 7.70808865 1.125 11.5625 C1.14175781 12.64853516 1.15851563 13.73457031 1.17578125 14.85351562 C1.2108113 20.61595825 1.13299795 25.60825518 -1 31 C-4.10334289 33.82951852 -7.32216308 34.68363407 -11.53125 34.5703125 C-17.10796845 33.28201995 -22.13143514 29.90926437 -27 27 C-23.28272326 25.86416544 -21.52948291 26.33329974 -18 28 C-18 28.66 -18 29.32 -18 30 C-17.34 30 -16.68 30 -16 30 C-16.33 29.01 -16.66 28.02 -17 27 C-16.67 26.34 -16.34 25.68 -16 25 C-12.25879194 24.39657934 -8.78319079 24 -5 24 C-2.64831225 22.69763222 -2.64831225 22.69763222 -1 20 C-0.36288842 16.59100012 -0.30332793 13.21146736 -0.25 9.75 C-0.20552734 8.34621094 -0.20552734 8.34621094 -0.16015625 6.9140625 C-0.08960196 4.60928908 -0.03683748 2.30551832 0 0 Z " fill="#678A63" transform="translate(295,284)"/>
<path d="M0 0 C0.33 0.99 0.66 1.98 1 3 C-2.75 6 -2.75 6 -5 6 C-5.33 6.66 -5.66 7.32 -6 8 C-7.66666667 8.66666667 -9.33333333 9.33333333 -11 10 C-11.33 10.66 -11.66 11.32 -12 12 C-12.99 12.33 -13.98 12.66 -15 13 C-16.08808371 15.84390689 -16.13085767 18.6085149 -16.14526367 21.62915039 C-16.15164352 22.54011978 -16.15802338 23.45108917 -16.16459656 24.3896637 C-16.16570938 25.36580124 -16.1668222 26.34193878 -16.16796875 27.34765625 C-16.17129715 28.35589951 -16.17462555 29.36414276 -16.17805481 30.40293884 C-16.18311281 32.53204899 -16.18546348 34.66116705 -16.18530273 36.7902832 C-16.18749408 40.05367985 -16.20567509 43.31674105 -16.22460938 46.58007812 C-16.22754251 48.64843634 -16.22952784 50.71679617 -16.23046875 52.78515625 C-16.23765427 53.76331802 -16.24483978 54.7414798 -16.25224304 55.74928284 C-16.24916641 56.65710007 -16.24608978 57.5649173 -16.24291992 58.50024414 C-16.24434494 59.29870255 -16.24576996 60.09716095 -16.24723816 60.91981506 C-16.12274359 63.30622514 -16.12274359 63.30622514 -14 66 C-17.875 64.25 -17.875 64.25 -19 62 C-19.11488451 60.49030403 -19.16941932 58.97579331 -19.19287109 57.46191406 C-19.20893402 56.52043518 -19.22499695 55.5789563 -19.24154663 54.60894775 C-19.28600852 50.29627177 -19.32707089 45.98375011 -19.35009766 41.67089844 C-19.36664785 39.39735674 -19.39392525 37.12386688 -19.43212891 34.85058594 C-19.48694694 31.5719911 -19.50878093 28.29461667 -19.5234375 25.015625 C-19.54610687 24.00292542 -19.56877625 22.99022583 -19.59213257 21.94683838 C-19.56856399 14.05694372 -19.56856399 14.05694372 -16.68920898 10.45751953 C-14.62661441 8.57262829 -12.88525737 6.98453203 -10.44921875 5.6640625 C-9.83369141 5.32246094 -9.21816406 4.98085937 -8.58398438 4.62890625 C-7.95814453 4.29761719 -7.33230469 3.96632812 -6.6875 3.625 C-5.71973633 3.09326172 -5.71973633 3.09326172 -4.73242188 2.55078125 C-3.16099059 1.6894041 -1.58132025 0.84308549 0 0 Z " fill="#9B9797" transform="translate(337,149)"/>
<path d="M0 0 C1.20366211 0.00483398 1.20366211 0.00483398 2.43164062 0.00976562 C3.68170898 0.02233398 3.68170898 0.02233398 4.95703125 0.03515625 C6.22450195 0.04192383 6.22450195 0.04192383 7.51757812 0.04882812 C9.6015928 0.06060222 11.68557102 0.07853735 13.76953125 0.09765625 C13.76953125 0.42765625 13.76953125 0.75765625 13.76953125 1.09765625 C12.58875 1.15824219 11.40796875 1.21882813 10.19140625 1.28125 C8.63410355 1.36568207 7.07681246 1.45032874 5.51953125 1.53515625 C4.74222656 1.57447266 3.96492188 1.61378906 3.1640625 1.65429688 C2.03291016 1.71713867 2.03291016 1.71713867 0.87890625 1.78125 C-0.1579834 1.83623657 -0.1579834 1.83623657 -1.21582031 1.89233398 C-3.29675204 2.10441149 -5.21619297 2.54274302 -7.23046875 3.09765625 C-7.35421875 3.69578125 -7.47796875 4.29390625 -7.60546875 4.91015625 C-8.23046875 7.09765625 -8.23046875 7.09765625 -10.23046875 10.09765625 C-9.91316351 13.73705557 -9.91316351 13.73705557 -9.23046875 17.09765625 C-8.24046875 16.76765625 -7.25046875 16.43765625 -6.23046875 16.09765625 C-5.90046875 14.11765625 -5.57046875 12.13765625 -5.23046875 10.09765625 C-4.57046875 10.42765625 -3.91046875 10.75765625 -3.23046875 11.09765625 C-3.56046875 12.08765625 -3.89046875 13.07765625 -4.23046875 14.09765625 C-2.58046875 14.42765625 -0.93046875 14.75765625 0.76953125 15.09765625 C0.15078125 15.15953125 -0.46796875 15.22140625 -1.10546875 15.28515625 C-1.80671875 15.55328125 -2.50796875 15.82140625 -3.23046875 16.09765625 C-4.22046875 18.57265625 -4.22046875 18.57265625 -5.23046875 21.09765625 C1.03953125 22.41765625 7.30953125 23.73765625 13.76953125 25.09765625 C13.76953125 25.42765625 13.76953125 25.75765625 13.76953125 26.09765625 C4.51433357 26.39621101 -4.66259726 25.93122386 -12.23046875 20.09765625 C-14.47679017 15.4253077 -14.51553574 11.75005605 -13.06640625 6.89453125 C-11.74580556 4.05585686 -9.85830278 2.69999407 -7.23046875 1.09765625 C-4.46481493 0.17577164 -2.84763173 -0.02019597 0 0 Z " fill="#596F55" transform="translate(313.23046875,258.90234375)"/>
<path d="M0 0 C6.79086686 0.14448653 11.43337209 3.33745005 17 7 C16.34 7.33 15.68 7.66 15 8 C12.9765625 7.2578125 12.9765625 7.2578125 10.625 6.125 C7.77742449 4.76311606 5.12678475 3.5372009 2 3 C0.2204032 4.7795968 0.82875336 7.39529781 0.79467773 9.80493164 C0.77473251 11.04614273 0.75478729 12.28735382 0.73423767 13.56617737 C0.71725207 14.9308357 0.70037331 16.29549537 0.68359375 17.66015625 C0.66303064 19.04878875 0.64203434 20.4374149 0.62062073 21.82603455 C0.56533353 25.48714059 0.51595374 29.14830373 0.46777344 32.80950928 C0.41760679 36.54297997 0.36189554 40.27636738 0.30664062 44.00976562 C0.19897782 51.3397733 0.09755106 58.66985005 0 66 C-1.98 65.67 -3.96 65.34 -6 65 C-6 64.34 -6 63.68 -6 63 C-6.99 63 -7.98 63 -9 63 C-9 62.34 -9 61.68 -9 61 C-10.258125 60.95875 -11.51625 60.9175 -12.8125 60.875 C-13.87404297 60.84019531 -13.87404297 60.84019531 -14.95703125 60.8046875 C-17.31359719 60.86745538 -17.31359719 60.86745538 -20 63 C-22.1875 62.625 -22.1875 62.625 -24 62 C-20.50809783 58.78745001 -17.73291664 58 -13 58 C-11.05522884 58.76218833 -9.14005622 59.60250113 -7.25390625 60.5 C-6.26849854 60.9640625 -5.28309082 61.428125 -4.26782227 61.90625 C-3.14525024 62.44765625 -3.14525024 62.44765625 -2 63 C-1.98969254 62.22547989 -1.97938507 61.45095978 -1.96876526 60.65296936 C-1.87095703 53.36871079 -1.76846689 46.08454054 -1.66066074 38.80042362 C-1.60539769 35.05521202 -1.55197245 31.30999266 -1.50268555 27.56469727 C-1.45509165 23.95311414 -1.40275094 20.34162868 -1.34705925 16.73016167 C-1.32661306 15.34942481 -1.30790378 13.96866114 -1.29092598 12.58787727 C-1.2669322 10.66016686 -1.23629736 8.73254251 -1.20532227 6.80493164 C-1.18977798 5.70572891 -1.1742337 4.60652618 -1.15821838 3.47401428 C-1 1 -1 1 0 0 Z " fill="#B0AAAB" transform="translate(379,77)"/>
<path d="M0 0 C1.54368996 0.09722982 3.0866983 0.20578329 4.62890625 0.32421875 C5.40556641 0.37255859 6.18222656 0.42089844 6.98242188 0.47070312 C11.40397278 0.77156662 15.00831385 1.61735462 19.19140625 3.01171875 C18.86140625 4.00171875 18.53140625 4.99171875 18.19140625 6.01171875 C9.59184591 7.88657785 1.9225839 8.05382705 -6.80859375 7.01171875 C-6.0026341 1.90730764 -5.6521862 0.01739134 0 0 Z " fill="#5F7D59" transform="translate(314.80859375,293.98828125)"/>
<path d="M0 0 C0 0.66 0 1.32 0 2 C-0.99 2 -1.98 2 -3 2 C-3.309375 2.639375 -3.61875 3.27875 -3.9375 3.9375 C-5 6 -5 6 -6 7 C-7.66617115 7.04063832 -9.33388095 7.042721 -11 7 C-11.02531484 14.35065985 -11.04285202 21.7013085 -11.05493164 29.05200195 C-11.05996641 31.55363383 -11.06679461 34.05526276 -11.07543945 36.55688477 C-11.08754238 40.14860766 -11.09323682 43.74029172 -11.09765625 47.33203125 C-11.10281754 48.45398392 -11.10797882 49.57593658 -11.11329651 50.73188782 C-11.11340981 52.29316658 -11.11340981 52.29316658 -11.11352539 53.88598633 C-11.115746 54.80309891 -11.11796661 55.72021149 -11.12025452 56.66511536 C-11.09611358 59.15668165 -11.09611358 59.15668165 -10 62 C-10.66 62 -11.32 62 -12 62 C-13.77132504 58.93889011 -14.25205023 56.72574154 -14.25878906 53.203125 C-14.26509338 52.2553418 -14.27139771 51.30755859 -14.27789307 50.33105469 C-14.2738446 49.31430664 -14.26979614 48.29755859 -14.265625 47.25 C-14.26753845 46.19973633 -14.2694519 45.14947266 -14.27142334 44.06738281 C-14.27278347 41.84830485 -14.26909903 39.62921889 -14.26074219 37.41015625 C-14.25004044 34.01283908 -14.26064349 30.61605072 -14.2734375 27.21875 C-14.27211588 25.06249883 -14.26955342 22.90624799 -14.265625 20.75 C-14.26967346 19.73325195 -14.27372192 18.71650391 -14.27789307 17.66894531 C-14.27158875 16.72116211 -14.26528442 15.77337891 -14.25878906 14.796875 C-14.25719788 13.96510742 -14.25560669 13.13333984 -14.25396729 12.27636719 C-13.97109216 9.74089235 -13.3473102 8.15721221 -12 6 C-9.6875 4.296875 -9.6875 4.296875 -7 2.75 C-6.113125 2.22921875 -5.22625 1.7084375 -4.3125 1.171875 C-2 0 -2 0 0 0 Z " fill="#A9A5A5" transform="translate(441,152)"/>
<path d="M0 0 C3 1 3 1 4.1730957 3.28930664 C5.37019065 8.66121279 5.26474928 13.88407046 5.23046875 19.37109375 C5.22978142 21.16463036 5.22978142 21.16463036 5.2290802 22.99440002 C5.22606443 25.5184936 5.2181984 28.04258542 5.20581055 30.56665039 C5.18758206 34.42015211 5.18530085 38.27341282 5.18554688 42.12695312 C5.18063004 44.5833354 5.17480101 47.03971606 5.16796875 49.49609375 C5.16685593 50.64420029 5.1657431 51.79230682 5.16459656 52.97520447 C5.0763941 67.9236059 5.0763941 67.9236059 3 70 C0.5625 70.25 0.5625 70.25 -2 70 C-2.66 69.01 -3.32 68.02 -4 67 C-1.69 67.33 0.62 67.66 3 68 C2.91508225 60.75793295 2.82000748 53.51607114 2.71247292 46.27430248 C2.66283187 42.91052951 2.61650338 39.54678315 2.578125 36.18286133 C2.53212965 32.30272246 2.47419289 28.42291128 2.4140625 24.54296875 C2.40251129 23.35293747 2.39096008 22.16290619 2.37905884 20.93681335 C2.25411356 13.76601211 1.53571006 7.00831852 0 0 Z " fill="#948F8F" transform="translate(189,157)"/>
<path d="M0 0 C0 0.66 0 1.32 0 2 C-0.66 2 -1.32 2 -2 2 C-2 3.32 -2 4.64 -2 6 C-4.875 8.125 -4.875 8.125 -8 10 C-8.66 10.66 -9.32 11.32 -10 12 C-11.98821313 12.39764263 -13.98944339 12.73775349 -16 13 C-15.505 13.598125 -15.01 14.19625 -14.5 14.8125 C-13 17 -13 17 -13 20 C-13.61875 20.268125 -14.2375 20.53625 -14.875 20.8125 C-17.2995233 21.95556848 -17.2995233 21.95556848 -19 25 C-19.08160748 23.10489301 -19.13946459 21.20875496 -19.1875 19.3125 C-19.22230469 18.25675781 -19.25710937 17.20101562 -19.29296875 16.11328125 C-18.94818693 12.4493998 -18.31923589 10.85444417 -16 8 C-13.64701744 6.39683828 -11.42817659 5.02278643 -8.9375 3.6875 C-8.30005859 3.32849609 -7.66261719 2.96949219 -7.00585938 2.59960938 C-2.30675595 0 -2.30675595 0 0 0 Z " fill="#65934C" transform="translate(232,148)"/>
<path d="M0 0 C-0.33 1.65 -0.66 3.3 -1 5 C-3.07553648 5.5534764 -4.84365964 6 -7 6 C-8.81497382 7.81497382 -8.17235393 10.63595572 -8.20532227 13.08032227 C-8.22526749 14.38159561 -8.24521271 15.68286896 -8.26576233 17.02357483 C-8.28274799 18.4545174 -8.29962675 19.88546125 -8.31640625 21.31640625 C-8.33696906 22.7722992 -8.35796534 24.22818609 -8.37937927 25.68406677 C-8.43466961 29.52272647 -8.48404802 33.36144065 -8.53222656 37.20019531 C-8.58239091 41.11463288 -8.63810336 45.02899096 -8.69335938 48.94335938 C-8.80102603 56.62883901 -8.90245193 64.31438457 -9 72 C-7.515 71.505 -7.515 71.505 -6 71 C-5.505 70.01 -5.505 70.01 -5 69 C-2.93359375 68.5859375 -2.93359375 68.5859375 -0.4375 68.375 C0.80193359 68.26285156 0.80193359 68.26285156 2.06640625 68.1484375 C2.70449219 68.09945312 3.34257813 68.05046875 4 68 C1.39274732 70.60725268 -1.52764936 72.74049005 -5 74 C-6.67455515 73.70887471 -8.34315104 73.37913113 -10 73 C-10.11586396 64.33348064 -10.20469927 55.66722795 -10.25906086 47.000103 C-10.28515231 42.97553904 -10.32054057 38.95150503 -10.37719727 34.92724609 C-10.43153552 31.0433456 -10.46142394 27.15995471 -10.47438622 23.27570343 C-10.48362306 21.79406969 -10.50166111 20.31246376 -10.52865028 18.83104706 C-10.564969 16.7549165 -10.56994481 14.68088944 -10.56762695 12.60449219 C-10.57873001 11.42312683 -10.58983307 10.24176147 -10.60127258 9.02459717 C-10 6 -10 6 -7.65202332 3.71221924 C-6.33927177 2.86467072 -6.33927177 2.86467072 -5 2 C-2 0 -2 0 0 0 Z " fill="#B4B0B1" transform="translate(113,153)"/>
<path d="M0 0 C1.24060918 2.48121835 1.05058285 3.9572169 0.92993164 6.72509766 C0.88981461 7.70596344 0.84969757 8.68682922 0.80836487 9.69741821 C0.75945602 10.75891083 0.71054718 11.82040344 0.66015625 12.9140625 C0.61434921 13.99883881 0.56854218 15.08361511 0.52134705 16.20126343 C0.37344889 19.6760808 0.21805594 23.15051782 0.0625 26.625 C-0.03890415 28.97654131 -0.13982194 31.32810364 -0.24023438 33.6796875 C-0.48784023 39.45338111 -0.7416051 45.22677973 -1 51 C-3.66538538 48.33461462 -3.24925853 46.32689468 -3.27789307 42.70185852 C-3.2738446 41.83731552 -3.26979614 40.97277252 -3.265625 40.08203125 C-3.26753845 39.19142502 -3.2694519 38.30081879 -3.27142334 37.38322449 C-3.27278627 35.49433104 -3.2690823 33.60542826 -3.26074219 31.71655273 C-3.25010696 28.84141605 -3.26060106 25.96691322 -3.2734375 23.09179688 C-3.27211469 21.25520696 -3.26954979 19.41861744 -3.265625 17.58203125 C-3.26967346 16.72760941 -3.27372192 15.87318756 -3.27789307 14.99287415 C-3.18643883 3.18643883 -3.18643883 3.18643883 0 0 Z " fill="#3B4B35" transform="translate(213,159)"/>
<path d="M0 0 C0.66 0.33 1.32 0.66 2 1 C1.34 1.66 0.68 2.32 0 3 C-0.16681109 6.08347826 -0.16681109 6.08347826 0 9 C0.66 7.02 1.32 5.04 2 3 C3.65 3.33 5.3 3.66 7 4 C7 6.31 7 8.62 7 11 C5.68 11 4.36 11 3 11 C3.99 11.33 4.98 11.66 6 12 C6 12.99 6 13.98 6 15 C1.98313013 15.46707789 0.43498188 15.32150834 -2.875 12.875 C-5.34199395 9.53730231 -5.54035146 8.05263598 -5 4 C-3.73293765 1.46587529 -2.59334288 1.02161992 0 0 Z " fill="#5D5E52" transform="translate(362,249)"/>
<path d="M0 0 C1.75570313 0.02707031 1.75570313 0.02707031 3.546875 0.0546875 C4.88492187 0.08949219 4.88492187 0.08949219 6.25 0.125 C6.25 0.455 6.25 0.785 6.25 1.125 C2.62 1.125 -1.01 1.125 -4.75 1.125 C-3.76 2.445 -2.77 3.765 -1.75 5.125 C-3.4 5.455 -5.05 5.785 -6.75 6.125 C-6.75 7.115 -6.75 8.105 -6.75 9.125 C-7.41 9.125 -8.07 9.125 -8.75 9.125 C-8.75 11.105 -8.75 13.085 -8.75 15.125 C-10.73 16.115 -10.73 16.115 -12.75 17.125 C-14.5908632 13.33498753 -15.06100574 11.1588638 -13.75 7.125 C-10.51774055 0.50656399 -7.12099102 -0.14241982 0 0 Z " fill="#699865" transform="translate(316.75,259.875)"/>
<path d="M0 0 C1.828125 0.19140625 1.828125 0.19140625 4 1 C5.484375 3.21484375 5.484375 3.21484375 6.75 5.9375 C7.17796875 6.83339844 7.6059375 7.72929687 8.046875 8.65234375 C9 11 9 11 9 13 C9.99 13.33 10.98 13.66 12 14 C4.65237385 13.67343884 -2.42988411 10.31074849 -7.828125 5.3046875 C-8.21484375 4.87414062 -8.6015625 4.44359375 -9 4 C-7.68 4 -6.36 4 -5 4 C-5 4.66 -5 5.32 -5 6 C-3.68 5.67 -2.36 5.34 -1 5 C-1.33 4.01 -1.66 3.02 -2 2 C-1.34 2 -0.68 2 0 2 C0 1.34 0 0.68 0 0 Z " fill="#43813D" transform="translate(247,223)"/>
<path d="M0 0 C2.07264394 3.10896591 2.25143608 3.79061879 2.25878906 7.31616211 C2.26509338 8.18393784 2.27139771 9.05171356 2.27789307 9.94578552 C2.2738446 10.88019974 2.26979614 11.81461395 2.265625 12.77734375 C2.26753845 13.74023819 2.2694519 14.70313263 2.27142334 15.69520569 C2.27278453 17.73194642 2.26909271 19.76869585 2.26074219 21.80541992 C2.25005347 24.92191094 2.26063379 28.03782397 2.2734375 31.15429688 C2.27211566 33.13281377 2.26955278 35.11133031 2.265625 37.08984375 C2.26967346 38.02223373 2.27372192 38.95462372 2.27789307 39.91526794 C2.27158875 40.78619583 2.26528442 41.65712372 2.25878906 42.55444336 C2.25719788 43.31816757 2.25560669 44.08189178 2.25396729 44.86875916 C1.96742057 47.27339981 1.19413147 48.90971431 0 51 C-0.88385231 47.98323429 -1.09763246 45.36880835 -1.02172852 42.23144531 C-1.00163223 41.29077209 -0.98153595 40.35009888 -0.96083069 39.38092041 C-0.93379562 38.37349792 -0.90676056 37.36607544 -0.87890625 36.328125 C-0.85529526 35.29057068 -0.83168427 34.25301636 -0.80735779 33.184021 C-0.73083034 29.87253771 -0.6467587 26.56129471 -0.5625 23.25 C-0.50926841 21.00391798 -0.45652808 18.75782426 -0.40429688 16.51171875 C-0.27522995 11.00766406 -0.13996973 5.50378763 0 0 Z " fill="#3C4636" transform="translate(353,254)"/>
<path d="M0 0 C4.43862896 -0.39164373 7.31304792 0.48616903 11 3 C11.875 6.1875 11.875 6.1875 12 9 C12.66 9 13.32 9 14 9 C14.33 10.65 14.66 12.3 15 14 C14.01 14 13.02 14 12 14 C11.67 13.34 11.34 12.68 11 12 C10.21625 11.855625 9.4325 11.71125 8.625 11.5625 C5.73613295 10.94345706 4.76352207 10.32042378 3 8 C3 7.34 3 6.68 3 6 C1.68 6 0.36 6 -1 6 C-1 4 -1 4 1 2 C0.67 1.34 0.34 0.68 0 0 Z " fill="#6E9269" transform="translate(320,236)"/>
<path d="M0 0 C0.66 0.33 1.32 0.66 2 1 C1.01 2.485 1.01 2.485 0 4 C-0.99 3.34 -1.98 2.68 -3 2 C-2.01 1.34 -1.02 0.68 0 0 Z M13 3 C8.57105349 7.78727552 2.31907551 11.87316381 -4.125 13.1875 C-9.18864656 12.94248484 -12.05486582 11.03229728 -16 8 C-14.68 7.34 -13.36 6.68 -12 6 C-12.33 6.99 -12.66 7.98 -13 9 C-8.89776415 10.01540112 -8.89776415 10.01540112 -5 9 C-5 8.34 -5 7.68 -5 7 C-3.68 6.34 -2.36 5.68 -1 5 C-0.67 6.32 -0.34 7.64 0 9 C0.66 9 1.32 9 2 9 C2.33 7.35 2.66 5.7 3 4 C6.40562852 3.22157062 9.50765756 2.90021879 13 3 Z " fill="#566D51" transform="translate(313,319)"/>
<path d="M0 0 C1.32 0.33 2.64 0.66 4 1 C3.99476318 2.29212402 3.98952637 3.58424805 3.98413086 4.91552734 C3.96606633 9.69758413 3.95456264 14.47963789 3.94506836 19.26171875 C3.94003148 21.33366401 3.93320175 23.4056057 3.92456055 25.47753906 C3.91246679 28.45118082 3.90676533 31.42477569 3.90234375 34.3984375 C3.89718246 35.32868744 3.89202118 36.25893738 3.88670349 37.21737671 C3.88659019 38.50848862 3.88659019 38.50848862 3.88647461 39.82568359 C3.884254 40.58513275 3.88203339 41.34458191 3.87974548 42.12704468 C3.88398961 44.09213361 3.88398961 44.09213361 5 46 C3.68 45.67 2.36 45.34 1 45 C0.67 30.15 0.34 15.3 0 0 Z " fill="#43603F" transform="translate(268,257)"/>
<path d="M0 0 C3.48584286 0.03134751 6.09479083 0.60989542 9.25 2.1875 C8.92 4.4975 8.59 6.8075 8.25 9.1875 C5.9068787 8.93188677 3.57156597 8.59479228 1.25 8.1875 C0.92 7.5275 0.59 6.8675 0.25 6.1875 C-2.06 6.5175 -4.37 6.8475 -6.75 7.1875 C-6.09 6.8575 -5.43 6.5275 -4.75 6.1875 C-5.41 5.8575 -6.07 5.5275 -6.75 5.1875 C-4.34504132 0.21725207 -4.34504132 0.21725207 0 0 Z " fill="#698F64" transform="translate(308.75,230.8125)"/>
<path d="M0 0 C0.66 0.99 1.32 1.98 2 3 C1.01 3 0.02 3 -1 3 C-1.0928125 3.8971875 -1.0928125 3.8971875 -1.1875 4.8125 C-2.34270543 7.92266847 -4.06877187 8.60417708 -7 10 C-7.99 10 -8.98 10 -10 10 C-10 10.66 -10 11.32 -10 12 C-14.62 14.64 -19.24 17.28 -24 20 C-24.33 19.34 -24.66 18.68 -25 18 C-24.34 18 -23.68 18 -23 18 C-23 17.01 -23 16.02 -23 15 C-20.09399739 13.74335022 -18.20395416 13 -15 13 C-15 11.68 -15 10.36 -15 9 C-14.360625 8.896875 -13.72125 8.79375 -13.0625 8.6875 C-12.381875 8.460625 -11.70125 8.23375 -11 8 C-10.67 7.01 -10.34 6.02 -10 5 C-7.96875 3.8671875 -7.96875 3.8671875 -5.5 2.875 C-2.51655512 1.79938082 -2.51655512 1.79938082 0 0 Z " fill="#596D4B" transform="translate(290,213)"/>
<path d="M0 0 C1.9453125 -0.29296875 1.9453125 -0.29296875 4.125 -0.1875 C5.40375 -0.125625 6.6825 -0.06375 8 0 C10.21538462 5.29230769 10.21538462 5.29230769 9.125 8.875 C8.75375 9.57625 8.3825 10.2775 8 11 C6.35 11 4.7 11 3 11 C3 10.34 3 9.68 3 9 C2.34 9 1.68 9 1 9 C1 8.34 1 7.68 1 7 C0.34 7 -0.32 7 -1 7 C-1.625 5.1875 -1.625 5.1875 -2 3 C-1.34 2.01 -0.68 1.02 0 0 Z " fill="#669B64" transform="translate(468,181)"/>
<path d="M0 0 C0.99 0.33 1.98 0.66 3 1 C3.66 0.67 4.32 0.34 5 0 C7.3400417 0.28241883 9.67504723 0.61250787 12 1 C12 1.66 12 2.32 12 3 C12.639375 2.814375 13.27875 2.62875 13.9375 2.4375 C14.618125 2.293125 15.29875 2.14875 16 2 C16.33 2.33 16.66 2.66 17 3 C16.91015699 4.85772162 16.75388139 6.71247985 16.5625 8.5625 C16.46066406 9.57441406 16.35882813 10.58632813 16.25390625 11.62890625 C16.17011719 12.41136719 16.08632813 13.19382812 16 14 C15.67 14 15.34 14 15 14 C14.67 12.02 14.34 10.04 14 8 C12.68 8.99 11.36 9.98 10 11 C9.855625 10.2575 9.71125 9.515 9.5625 8.75 C7.18268382 4.56152352 3.3861406 3.61547154 -1 2 C-0.67 1.34 -0.34 0.68 0 0 Z " fill="#6C986A" transform="translate(321,280)"/>
<path d="M0 0 C0.66 0 1.32 0 2 0 C3.11911712 3.35735137 3.11365586 5.88205386 3.09765625 9.41796875 C3.09282227 11.29838867 3.09282227 11.29838867 3.08789062 13.21679688 C3.07951172 14.52712891 3.07113281 15.83746094 3.0625 17.1875 C3.05748317 18.52278481 3.05292059 19.85807141 3.04882812 21.19335938 C3.03702695 24.46228473 3.02056297 27.73111991 3 31 C3.66 31.33 4.32 31.66 5 32 C5 32.99 5 33.98 5 35 C5.99 35 6.98 35 8 35 C7.67 35.66 7.34 36.32 7 37 C4.37098712 35.47793991 2.15634036 34.15634036 0 32 C-0.17488254 29.56255103 -0.23177405 27.2406392 -0.1953125 24.8046875 C-0.1924826 24.09724396 -0.18965271 23.38980042 -0.18673706 22.66091919 C-0.17553137 20.3987749 -0.15042679 18.13702485 -0.125 15.875 C-0.11497067 14.34245363 -0.10584474 12.80990106 -0.09765625 11.27734375 C-0.07559086 7.51807699 -0.04105896 3.75910536 0 0 Z " fill="#AFADAE" transform="translate(162,179)"/>
<path d="M0 0 C0.66 0.33 1.32 0.66 2 1 C1.67 1.99 1.34 2.98 1 4 C2.65 4.33 4.3 4.66 6 5 C5.38125 5.061875 4.7625 5.12375 4.125 5.1875 C3.42375 5.455625 2.7225 5.72375 2 6 C1.34 7.65 0.68 9.3 0 11 C6.27 12.32 12.54 13.64 19 15 C19 15.33 19 15.66 19 16 C9.29916355 16.31293021 1.23894572 15.37322547 -7 10 C-6.67 9.34 -6.34 8.68 -6 8 C-5.175 7.7525 -4.35 7.505 -3.5 7.25 C-2.675 6.8375 -1.85 6.425 -1 6 C-0.10169161 2.94727535 -0.10169161 2.94727535 0 0 Z " fill="#4D6349" transform="translate(308,269)"/>
<path d="M0 0 C0.99 0 1.98 0 3 0 C3 5.61 3 11.22 3 17 C5.475 17.99 5.475 17.99 8 19 C10.3125 21.125 10.3125 21.125 12 23 C7.2954094 21.65583126 3.44950741 20.52972851 0 17 C-1.0893208 11.37184252 -1.8328059 5.49841771 0 0 Z " fill="#E0DCDC" transform="translate(348,178)"/>
<path d="M0 0 C0.99 0 1.98 0 3 0 C4.83832664 3.10217621 5.47446226 5.39408679 5 9 C2 11 2 11 -1.0625 10.9375 C-4 10 -4 10 -5.375 7.4375 C-5.58125 6.633125 -5.7875 5.82875 -6 5 C-3.525 5.495 -3.525 5.495 -1 6 C-0.67 4.02 -0.34 2.04 0 0 Z " fill="#5F775C" transform="translate(333,265)"/>
<path d="M0 0 C0.33 0.99 0.66 1.98 1 3 C0.34 3 -0.32 3 -1 3 C-1 3.66 -1 4.32 -1 5 C0.32 5 1.64 5 3 5 C3 5.66 3 6.32 3 7 C2.05125 7.2475 1.1025 7.495 0.125 7.75 C-3.08693191 8.6857077 -3.08693191 8.6857077 -4.375 11.125 C-4.58125 11.74375 -4.7875 12.3625 -5 13 C-5.66 13 -6.32 13 -7 13 C-7.33 12.01 -7.66 11.02 -8 10 C-8.66 9.67 -9.32 9.34 -10 9 C-9.1875 7.0625 -9.1875 7.0625 -8 5 C-7.01 4.67 -6.02 4.34 -5 4 C-4.67 3.34 -4.34 2.68 -4 2 C-2.68 2 -1.36 2 0 2 C0 1.34 0 0.68 0 0 Z " fill="#688D66" transform="translate(298,233)"/>
<path d="M0 0 C6.30804397 -0.30038305 12.36180306 -0.19458093 18 3 C19.25390625 5.109375 19.25390625 5.109375 20 7 C18.35 7 16.7 7 15 7 C15 6.34 15 5.68 15 5 C13.741875 5 12.48375 5 11.1875 5 C8.79166667 5 6.39583333 5 4 5 C4.33 3.68 4.66 2.36 5 1 C3.35 1 1.7 1 0 1 C0 0.67 0 0.34 0 0 Z " fill="#607D59" transform="translate(318,276)"/>
<path d="M0 0 C1.9375 1.5625 1.9375 1.5625 3 3 C2.67 3.66 2.34 4.32 2 5 C1.54625 4.505 1.0925 4.01 0.625 3.5 C-0.87635519 1.77390663 -0.87635519 1.77390663 -3 2 C-2.01 2.66 -1.02 3.32 0 4 C0.1875 7.125 0.1875 7.125 0 10 C-0.66 10 -1.32 10 -2 10 C-2.33 8.35 -2.66 6.7 -3 5 C-4.32 5 -5.64 5 -7 5 C-7.66 6.98 -8.32 8.96 -9 11 C-9.98120464 7.94736336 -9.98120464 6.05263664 -9 3 C-9.99 3 -10.98 3 -12 3 C-8.66969282 -1.99546078 -5.47143985 -1.1724514 0 0 Z " fill="#414435" transform="translate(371,248)"/>
<path d="M0 0 C0.33 0 0.66 0 1 0 C1.36156104 2.79089265 1.71454833 5.58240722 2.0625 8.375 C2.16626953 9.1690625 2.27003906 9.963125 2.37695312 10.78125 C3.11328125 16.7734375 3.11328125 16.7734375 2 19 C0.35636866 19.72159424 -1.31050386 20.39351421 -3 21 C-3.66 20.34 -4.32 19.68 -5 19 C-4.67 18.67 -4.34 18.34 -4 18 C-5.32 17.67 -6.64 17.34 -8 17 C-6.865625 16.608125 -5.73125 16.21625 -4.5625 15.8125 C-2.52538269 14.83276369 -2.52538269 14.83276369 -1 13 C-0.05692654 8.66507712 0.04477291 4.42612188 0 0 Z " fill="#5C7B57" transform="translate(345,288)"/>
<path d="M0 0 C0.33 0 0.66 0 1 0 C1 2.97 1 5.94 1 9 C-6.18538566 13.01894452 -6.18538566 13.01894452 -9.6875 12.9375 C-12.31882465 11.87074676 -14.62898003 10.55809884 -17 9 C-14.37684968 7.68842484 -12.76966564 8.10350012 -9.875 8.4375 C-8.50988281 8.59025391 -8.50988281 8.59025391 -7.1171875 8.74609375 C-6.41851562 8.82988281 -5.71984375 8.91367188 -5 9 C-5 8.01 -5 7.02 -5 6 C-3.35 6.33 -1.7 6.66 0 7 C0 4.69 0 2.38 0 0 Z " fill="#61795A" transform="translate(481,183)"/>
<path d="M0 0 C0 0.99 0 1.98 0 3 C-0.99 3.66 -1.98 4.32 -3 5 C-3 5.66 -3 6.32 -3 7 C-0.69 7 1.62 7 4 7 C4.33 7.66 4.66 8.32 5 9 C2.6875 10.5625 2.6875 10.5625 0 12 C-0.99 11.67 -1.98 11.34 -3 11 C-2.34 11 -1.68 11 -1 11 C-1.33 10.34 -1.66 9.68 -2 9 C-3.98 9.33 -5.96 9.66 -8 10 C-8 9.34 -8 8.68 -8 8 C-8.66 7.34 -9.32 6.68 -10 6 C-5.375 3 -5.375 3 -2 3 C-2 2.34 -2 1.68 -2 1 C-1.34 0.67 -0.68 0.34 0 0 Z " fill="#577153" transform="translate(336,306)"/>
<path d="M0 0 C2.875 1.5 2.875 1.5 5 3 C1.67465243 4.10844919 -0.62182575 3.84454356 -4 3 C-4 3.66 -4 4.32 -4 5 C-5.32 5 -6.64 5 -8 5 C-9.485 5.7734375 -9.485 5.7734375 -11 6.5625 C-14.25413826 8.12177459 -14.77175904 8.05056979 -18 7 C-16.13517671 5.81713474 -14.25763024 4.65431343 -12.375 3.5 C-11.33085937 2.8503125 -10.28671875 2.200625 -9.2109375 1.53125 C-5.7578866 -0.11546041 -3.76984058 -0.42357759 0 0 Z " fill="#BEBABB" transform="translate(151,134)"/>
<path d="M0 0 C0.66 0.33 1.32 0.66 2 1 C1.01 2.485 1.01 2.485 0 4 C-0.16713569 6.62531524 -0.16713569 6.62531524 0 9 C0.66 8.34 1.32 7.68 2 7 C2 7.66 2 8.32 2 9 C2.66 9.33 3.32 9.66 4 10 C2.02 10.66 0.04 11.32 -2 12 C-2.66 10.35 -3.32 8.7 -4 7 C-6.31 7.66 -8.62 8.32 -11 9 C-9.73948004 5.21844011 -8.43553394 4.74381633 -5.0625 2.75 C-4.16660156 2.20859375 -3.27070313 1.6671875 -2.34765625 1.109375 C-1.57292969 0.74328125 -0.79820312 0.3771875 0 0 Z " fill="#576E52" transform="translate(274,245)"/>
<path d="M0 0 C0.99 0.33 1.98 0.66 3 1 C3 6.94 3 12.88 3 19 C2.34 19 1.68 19 1 19 C0.76539063 19.63421875 0.53078125 20.2684375 0.2890625 20.921875 C-1 23 -1 23 -3.1640625 23.828125 C-3.97617187 23.96734375 -4.78828125 24.1065625 -5.625 24.25 C-6.44226563 24.39953125 -7.25953125 24.5490625 -8.1015625 24.703125 C-9.04128906 24.85007813 -9.04128906 24.85007813 -10 25 C-7.88767275 22.65437093 -7.13439571 22.03291324 -3.9375 21.25 C-0.71558839 20.2683213 -0.71558839 20.2683213 0.375 17 C1.52849365 11.45390934 1.79572268 5.38716804 0 0 Z " fill="#A29E9F" transform="translate(376,177)"/>
<path d="M0 0 C1.32 0 2.64 0 4 0 C4 4.95 4 9.9 4 15 C5.98 14.67 7.96 14.34 10 14 C10.33 13.01 10.66 12.02 11 11 C13.64 10.67 16.28 10.34 19 10 C16.87079001 12.2416217 14.68801045 14.08221862 12.125 15.8125 C11.46757812 16.27269531 10.81015625 16.73289063 10.1328125 17.20703125 C8 18 8 18 5.2421875 17.13671875 C4.50226563 16.76160156 3.76234375 16.38648438 3 16 C2.95101563 15.01257813 2.90203125 14.02515625 2.8515625 13.0078125 C2.77679688 11.72648438 2.70203125 10.44515625 2.625 9.125 C2.55539062 7.84882813 2.48578125 6.57265625 2.4140625 5.2578125 C2.32758894 1.91938301 2.32758894 1.91938301 0 0 Z " fill="#989191" transform="translate(483,176)"/>
<path d="M0 0 C-1.30732382 2.91633776 -2.75864056 4.75864056 -5 7 C-5 7.66 -5 8.32 -5 9 C-6.9375 9.5625 -6.9375 9.5625 -9 10 C-10 9 -10 9 -10.25 6.6875 C-9.95177651 3.48159743 -9.26200989 2.26200989 -7 0 C-4.00887259 -1.21514551 -3.16098841 -1.0536628 0 0 Z " fill="#6E956B" transform="translate(283,245)"/>
<path d="M0 0 C0 0.66 0 1.32 0 2 C-0.94875 1.71125 -1.8975 1.4225 -2.875 1.125 C-8.41672641 0.27504196 -12.69975589 3.89470489 -17 7 C-17.66 7.66 -18.32 8.32 -19 9 C-18.25 4.25 -18.25 4.25 -16 2 C-15.34 2.33 -14.68 2.66 -14 3 C-13.773125 2.360625 -13.54625 1.72125 -13.3125 1.0625 C-12 -1 -12 -1 -9.6875 -1.8125 C-6.08787408 -2.06363669 -3.23046567 -1.61523284 0 0 Z " fill="#B2ADAF" transform="translate(153,170)"/>
<path d="M0 0 C0.99 0.33 1.98 0.66 3 1 C1.625 2.5 1.625 2.5 0 4 C-0.66 4 -1.32 4 -2 4 C-2 4.66 -2 5.32 -2 6 C-1.01 6.66 -0.02 7.32 1 8 C-3.21878192 8.19622241 -6.17010894 7.80230168 -10 6 C-10 4.68 -10 3.36 -10 2 C-6.33694766 1.25073929 -3.57644848 0.7619986 0 2 C0 1.34 0 0.68 0 0 Z " fill="#72976B" transform="translate(310,322)"/>
<path d="M0 0 C6.79086686 0.14448653 11.43337209 3.33745005 17 7 C16.01 7.495 16.01 7.495 15 8 C12.9765625 7.2578125 12.9765625 7.2578125 10.625 6.125 C7.77742449 4.76311606 5.12678475 3.5372009 2 3 C0.33657163 4.66342837 0.63951903 6.7825709 0.4375 9.0625 C0.35371094 9.98160156 0.26992188 10.90070313 0.18359375 11.84765625 C0.12300781 12.55792969 0.06242187 13.26820312 0 14 C-0.33 14 -0.66 14 -1 14 C-1.02685938 11.85423363 -1.04633088 9.70837355 -1.0625 7.5625 C-1.07410156 6.36753906 -1.08570313 5.17257813 -1.09765625 3.94140625 C-1 1 -1 1 0 0 Z " fill="#B4AFB1" transform="translate(379,77)"/>
<path d="M0 0 C0.33 0 0.66 0 1 0 C1.20349988 4.39515007 1.3277078 8.78908989 1.4375 13.1875 C1.49615234 14.43337891 1.55480469 15.67925781 1.61523438 16.96289062 C1.78524894 26.02223841 1.78524894 26.02223841 -0.58935547 28.97900391 C-2.52734375 30.36328125 -2.52734375 30.36328125 -6 32 C-6.66 31.67 -7.32 31.34 -8 31 C-7.34 29.68 -6.68 28.36 -6 27 C-4.68 27.33 -3.36 27.66 -2 28 C-2 27.01 -2 26.02 -2 25 C-1.34 25 -0.68 25 0 25 C0 16.75 0 8.5 0 0 Z " fill="#DEDADB" transform="translate(408,186)"/>
<path d="M0 0 C4.62 2.31 9.24 4.62 14 7 C10 9 10 9 7 10 C6.67 9.01 6.34 8.02 6 7 C5.34 7 4.68 7 4 7 C3.67 7.66 3.34 8.32 3 9 C3 7.02 3 5.04 3 3 C2.01 2.67 1.02 2.34 0 2 C0 1.34 0 0.68 0 0 Z " fill="#627E55" transform="translate(284,150)"/>
<path d="M0 0 C-0.99 0.66 -1.98 1.32 -3 2 C-2.835 2.598125 -2.67 3.19625 -2.5 3.8125 C-2 6 -2 6 -2 9 C-5.35595828 8.40072174 -7.37801226 7.15377564 -10 5 C-9 2 -9 2 -7.25 0.8125 C-4.70039426 -0.10819096 -2.69076919 -0.14948718 0 0 Z " fill="#54644F" transform="translate(299,317)"/>
<path d="M0 0 C4.44870215 -0.39253254 7.14243493 0.84694043 11 3 C8 5 8 5 6 5 C6 5.66 6 6.32 6 7 C5.01 7.33 4.02 7.66 3 8 C3 7.34 3 6.68 3 6 C1.68 6 0.36 6 -1 6 C-1 4 -1 4 1 2 C0.67 1.34 0.34 0.68 0 0 Z " fill="#698864" transform="translate(320,236)"/>
<path d="M0 0 C2.31 0 4.62 0 7 0 C7 2.64 7 5.28 7 8 C5.02 7.34 3.04 6.68 1 6 C0.67 4.02 0.34 2.04 0 0 Z " fill="#689865" transform="translate(299,286)"/>
<path d="M0 0 C1.125 3.75 1.125 3.75 0 6 C0.66 6.33 1.32 6.66 2 7 C0.71186658 7.83878455 -0.58063256 8.67086783 -1.875 9.5 C-2.59429687 9.9640625 -3.31359375 10.428125 -4.0546875 10.90625 C-6 12 -6 12 -8 12 C-8 9 -8 9 -5.6875 6.5625 C-4.800625 5.716875 -3.91375 4.87125 -3 4 C-1.97186389 2.68824014 -0.95915568 1.3630107 0 0 Z " fill="#3D6439" transform="translate(297,207)"/>
<path d="M0 0 C0 2.64 0 5.28 0 8 C-0.66 7.34 -1.32 6.68 -2 6 C-4.29038506 7.9468273 -5.63466117 10.02066476 -7.0625 12.625 C-9 16 -9 16 -11 17 C-9.44966581 11.10873008 -6.45088361 5.97939999 -3 1 C-1 0 -1 0 0 0 Z " fill="#498043" transform="translate(299,163)"/>
<path d="M0 0 C0.99 0.33 1.98 0.66 3 1 C2.67 1.99 2.34 2.98 2 4 C2.66 4.33 3.32 4.66 4 5 C3.360625 5.103125 2.72125 5.20625 2.0625 5.3125 C1.381875 5.539375 0.70125 5.76625 0 6 C-0.33 6.99 -0.66 7.98 -1 9 C-1.99 9.33 -2.98 9.66 -4 10 C-4.6875 8.3125 -4.6875 8.3125 -5 6 C-2.73846154 1.36923077 -2.73846154 1.36923077 0 0 Z " fill="#6F966C" transform="translate(317,318)"/>
<path d="M0 0 C1.67542976 0.28604898 3.34385343 0.61781233 5 1 C5 3.31 5 5.62 5 8 C2.03 7.505 2.03 7.505 -1 7 C-1.04254356 5.00045254 -1.04080783 2.99958364 -1 1 C-0.67 0.67 -0.34 0.34 0 0 Z " fill="#6E735E" transform="translate(364,252)"/>
<path d="M0 0 C0.33 0.66 0.66 1.32 1 2 C0.01 2.495 0.01 2.495 -1 3 C-1.474375 3.825 -1.94875 4.65 -2.4375 5.5 C-4 8 -4 8 -7 9 C-9.33299825 9.03954234 -11.66708189 9.04401732 -14 9 C-11.03786426 6.69534766 -7.97847243 4.72409552 -4.75 2.8125 C-3.85796875 2.28269531 -2.9659375 1.75289062 -2.046875 1.20703125 C-1.03367188 0.60955078 -1.03367188 0.60955078 0 0 Z " fill="#638052" transform="translate(251,136)"/>
<path d="M0 0 C1.75570313 0.02707031 1.75570313 0.02707031 3.546875 0.0546875 C4.88492187 0.08949219 4.88492187 0.08949219 6.25 0.125 C6.25 0.455 6.25 0.785 6.25 1.125 C2.62 1.125 -1.01 1.125 -4.75 1.125 C-3.76 2.445 -2.77 3.765 -1.75 5.125 C-2.554375 5.24875 -3.35875 5.3725 -4.1875 5.5 C-5.4559375 5.809375 -5.4559375 5.809375 -6.75 6.125 C-7.08 6.785 -7.41 7.445 -7.75 8.125 C-8.08 6.805 -8.41 5.485 -8.75 4.125 C-9.74 4.62 -9.74 4.62 -10.75 5.125 C-10.75 4.135 -10.75 3.145 -10.75 2.125 C-7.15537669 -0.13498595 -4.18404325 -0.08368087 0 0 Z " fill="#74986F" transform="translate(316.75,259.875)"/>
<path d="M0 0 C0.33 0 0.66 0 1 0 C1.144375 1.11375 1.28875 2.2275 1.4375 3.375 C1.78372035 6.82142047 1.78372035 6.82142047 3 9 C4.65 8.67 6.3 8.34 8 8 C7.34 9.65 6.68 11.3 6 13 C4.02 13 2.04 13 0 13 C0 8.71 0 4.42 0 0 Z " fill="#F1EBE9" transform="translate(487,178)"/>
<path d="M0 0 C3.34373475 0.55728913 6.03312999 1.35173889 9 3 C9.33 2.34 9.66 1.68 10 1 C10.99 1.66 11.98 2.32 13 3 C13 3.99 13 4.98 13 6 C13.66 6 14.32 6 15 6 C15 6.66 15 7.32 15 8 C9.52067211 6.45454854 4.88570819 3.84456788 0 1 C0 0.67 0 0.34 0 0 Z " fill="#ACA8A9" transform="translate(170,216)"/>
<path d="M0 0 C0.33 0 0.66 0 1 0 C1.19777236 3.3953164 1.38139685 6.79125692 1.5625 10.1875 C1.61857422 11.14720703 1.67464844 12.10691406 1.73242188 13.09570312 C1.78076172 14.02705078 1.82910156 14.95839844 1.87890625 15.91796875 C1.94960327 17.19837036 1.94960327 17.19837036 2.02172852 18.50463867 C1.99892429 21.12353758 1.59213206 23.45403152 1 26 C0.34 26 -0.32 26 -1 26 C-1.16311941 17.28217363 -0.65655389 8.68761489 0 0 Z " fill="#557E4E" transform="translate(298,187)"/>
<path d="M0 0 C0.763125 0.20625 1.52625 0.4125 2.3125 0.625 C-0.3109008 3.53988977 -3.40566394 5.51003898 -6.6875 7.625 C-7.3475 7.295 -8.0075 6.965 -8.6875 6.625 C-4.66647727 -0.65113636 -4.66647727 -0.65113636 0 0 Z " fill="#BDB8B9" transform="translate(129.6875,211.375)"/>
<path d="M0 0 C2.875 -0.1875 2.875 -0.1875 6 0 C6.66 0.99 7.32 1.98 8 3 C7.67 3.99 7.34 4.98 7 6 C7 5.34 7 4.68 7 4 C4.525 3.01 4.525 3.01 2 2 C1.71125 2.639375 1.4225 3.27875 1.125 3.9375 C0 6 0 6 -2 7 C-2.33 5.68 -2.66 4.36 -3 3 C-2.01 2.67 -1.02 2.34 0 2 C0 1.34 0 0.68 0 0 Z " fill="#7FA670" transform="translate(252,136)"/>
<path d="M0 0 C2.9375 0.375 2.9375 0.375 6 1 C6.33 1.66 6.66 2.32 7 3 C10.63 3 14.26 3 18 3 C14.91838585 6.08161415 14.17606503 6.79027148 10 7 C7.32421875 5.8203125 7.32421875 5.8203125 4.6875 4.125 C3.80449219 3.57070312 2.92148437 3.01640625 2.01171875 2.4453125 C1.34785156 1.96835938 0.68398438 1.49140625 0 1 C0 0.67 0 0.34 0 0 Z " fill="#8F898A" transform="translate(353,232)"/>
<path d="M0 0 C0.33 0.66 0.66 1.32 1 2 C0.42507813 1.78472656 -0.14984375 1.56945312 -0.7421875 1.34765625 C-3.73163075 0.88734405 -4.68650365 1.72684382 -7.125 3.4375 C-10.82561308 6 -10.82561308 6 -13 6 C-12.375 3.625 -12.375 3.625 -11 1 C-7.06374705 -0.92439033 -4.17594302 -1.43175189 0 0 Z " fill="#A9A0A1" transform="translate(475,170)"/>
<path d="M0 0 C0.33 0 0.66 0 1 0 C1.03738281 1.13179688 1.07476562 2.26359375 1.11328125 3.4296875 C1.17893082 4.91149205 1.24537851 6.39326139 1.3125 7.875 C1.33505859 8.62136719 1.35761719 9.36773437 1.38085938 10.13671875 C1.47811945 12.099604 1.73042294 14.05328322 2 16 C2.99 16.66 3.98 17.32 5 18 C5.6875 20.125 5.6875 20.125 6 22 C1.125 20.25 1.125 20.25 0 18 C-0.08308638 16.62451844 -0.10736016 15.24514204 -0.09765625 13.8671875 C-0.09443359 13.06152344 -0.09121094 12.25585938 -0.08789062 11.42578125 C-0.07951172 10.58402344 -0.07113281 9.74226563 -0.0625 8.875 C-0.05798828 8.02550781 -0.05347656 7.17601562 -0.04882812 6.30078125 C-0.03702874 4.20049091 -0.01909306 2.1002367 0 0 Z " fill="#586D50" transform="translate(262,288)"/>
<path d="M0 0 C1.69141656 0.08963062 3.37959602 0.24577676 5.0625 0.4375 C6.44115234 0.59025391 6.44115234 0.59025391 7.84765625 0.74609375 C8.55792969 0.82988281 9.26820313 0.91367187 10 1 C10 1.66 10 2.32 10 3 C7.69 3 5.38 3 3 3 C2.67 3.99 2.34 4.98 2 6 C0.35 6 -1.3 6 -3 6 C-1.125 1.125 -1.125 1.125 0 0 Z " fill="#71956B" transform="translate(311,294)"/>
<path d="M0 0 C0.99 0 1.98 0 3 0 C4.625 2.75 4.625 2.75 6 6 C5.1875 8.375 5.1875 8.375 4 10 C1 8 1 8 0.48828125 6.0546875 C0.32552083 4.03645833 0.16276042 2.01822917 0 0 Z " fill="#6D996B" transform="translate(328,262)"/>
<path d="M0 0 C-6.9116095 4.80211082 -6.9116095 4.80211082 -10.75 5.5 C-13.44376035 4.90138659 -14.95257162 3.81993634 -17 2 C-14.03 2.33 -11.06 2.66 -8 3 C-8 2.34 -8 1.68 -8 1 C-3.375 -1.125 -3.375 -1.125 0 0 Z " fill="#949191" transform="translate(483,232)"/>
<path d="M0 0 C0.33 0 0.66 0 1 0 C1 5.28 1 10.56 1 16 C3.475 16.99 3.475 16.99 6 18 C8.3125 20.125 8.3125 20.125 10 22 C2.58671952 19.80971259 2.58671952 19.80971259 0 17 C-0.50237594 14.09278911 -0.37537207 11.25151067 -0.25 8.3125 C-0.23195313 7.51521484 -0.21390625 6.71792969 -0.1953125 5.89648438 C-0.14822247 3.93047551 -0.07647899 1.96508506 0 0 Z " fill="#535052" transform="translate(350,179)"/>
<path d="M0 0 C2.3788509 1.26906301 4.68236321 2.61833191 7 4 C6.67 4.66 6.34 5.32 6 6 C4.51965236 5.52449439 3.04074979 5.04448784 1.5625 4.5625 C0.73878906 4.29566406 -0.08492188 4.02882812 -0.93359375 3.75390625 C-3 3 -3 3 -4 2 C-5.67542976 2.28604898 -7.34385343 2.61781233 -9 3 C-7.03403057 -0.93193887 -3.88394076 -1.5535763 0 0 Z " fill="#4D5B47" transform="translate(475,176)"/>
<path d="M0 0 C2.31 0.33 4.62 0.66 7 1 C4.25604436 3.94721162 1.61662784 6.19168608 -2 8 C-2.66 7.67 -3.32 7.34 -4 7 C-3.34 6.01 -2.68 5.02 -2 4 C-1.34 4.33 -0.68 4.66 0 5 C0 3.35 0 1.7 0 0 Z " fill="#B0ABAB" transform="translate(355,170)"/>
<path d="M0 0 C1.98 0.66 3.96 1.32 6 2 C5.67 4.31 5.34 6.62 5 9 C4.01 9 3.02 9 2 9 C2 8.34 2 7.68 2 7 C1.34 6.67 0.68 6.34 0 6 C0.66 6 1.32 6 2 6 C1.34 4.02 0.68 2.04 0 0 Z " fill="#73976E" transform="translate(312,231)"/>
<path d="M0 0 C3 1 3 1 4.1875 3.3125 C5.34159474 8.5503146 5.15556749 13.65884952 5 19 C4.67 19 4.34 19 4 19 C3.67 16.36 3.34 13.72 3 11 C2.67 11 2.34 11 2 11 C1.34 7.37 0.68 3.74 0 0 Z " fill="#797575" transform="translate(189,157)"/>
<path d="M0 0 C5.28 0.33 10.56 0.66 16 1 C15 3 15 3 13.2265625 3.640625 C10.82457397 4.02831438 8.79400753 3.99270979 6.375 3.75 C5.59898437 3.68296875 4.82296875 3.6159375 4.0234375 3.546875 C2 3 2 3 0 0 Z " fill="#3E553A" transform="translate(310,292)"/>
<path d="M0 0 C0.66 0.33 1.32 0.66 2 1 C-2.62 3.97 -7.24 6.94 -12 10 C-12.33 9.01 -12.66 8.02 -13 7 C-12.34 7 -11.68 7 -11 7 C-11 6.34 -11 5.68 -11 5 C-9.21289414 4.13633178 -7.4201535 3.28431406 -5.625 2.4375 C-4.62726563 1.96183594 -3.62953125 1.48617187 -2.6015625 0.99609375 C-1.74304688 0.66738281 -0.88453125 0.33867187 0 0 Z " fill="#979393" transform="translate(385,225)"/>
<path d="M0 0 C4.92101242 2.0085765 9.42543762 4.29260594 14 7 C13.01 8.485 13.01 8.485 12 10 C11.01 9.67 10.02 9.34 9 9 C9.66 9 10.32 9 11 9 C11 8.34 11 7.68 11 7 C10.4225 6.87625 9.845 6.7525 9.25 6.625 C6.97664233 5.99351176 5.0746471 5.11141809 3 4 C3 3.34 3 2.68 3 2 C2.01 2 1.02 2 0 2 C0 1.34 0 0.68 0 0 Z " fill="#A8A2A4" transform="translate(478,205)"/>
<path d="M0 0 C0 0.66 0 1.32 0 2 C-0.99 2 -1.98 2 -3 2 C-3.309375 2.639375 -3.61875 3.27875 -3.9375 3.9375 C-5 6 -5 6 -6 7 C-7.66617115 7.04063832 -9.33388095 7.042721 -11 7 C-11 7.66 -11 8.32 -11 9 C-11.66 9 -12.32 9 -13 9 C-11.73809862 5.21429586 -10.45144185 4.78168429 -7.0625 2.8125 C-6.16660156 2.28269531 -5.27070313 1.75289062 -4.34765625 1.20703125 C-2 0 -2 0 0 0 Z " fill="#A9A7A7" transform="translate(441,152)"/>
<path d="M0 0 C-1.15173355 2.46800047 -2.04783565 4.04783565 -4 6 C-6.65537372 6.56520003 -9.29144713 6.73788198 -12 7 C-9.20232475 3.70861735 -4.40323273 0 0 0 Z " fill="#ADAAAB" transform="translate(453,145)"/>
<path d="M0 0 C2.475 0.99 2.475 0.99 5 2 C5 4.31 5 6.62 5 9 C3 9 3 9 1.375 7.875 C-0.55651159 5.24112056 -0.21205536 3.18083044 0 0 Z " fill="#6E966D" transform="translate(274,305)"/>
<path d="M0 0 C5.10049249 0 6.3919391 1.55229736 10 5 C10.33 5.99 10.66 6.98 11 8 C6.89160936 6.54997977 3.49655387 4.6020866 0 2 C0 1.34 0 0.68 0 0 Z " fill="#37532F" transform="translate(211,210)"/>
<path d="M0 0 C2.00885335 0.52002232 3.98454087 1.16411779 5.953125 1.8203125 C3.953125 3.8203125 3.953125 3.8203125 1.5703125 4.015625 C0.66539062 3.99242187 -0.23953125 3.96921875 -1.171875 3.9453125 C-2.53699219 3.91824219 -2.53699219 3.91824219 -3.9296875 3.890625 C-4.62835938 3.86742187 -5.32703125 3.84421875 -6.046875 3.8203125 C-3.15469741 -0.27693909 -3.15469741 -0.27693909 0 0 Z " fill="#72986C" transform="translate(328.046875,295.1796875)"/>
<path d="M0 0 C0.66 0 1.32 0 2 0 C2 0.66 2 1.32 2 2 C2.99 1.67 3.98 1.34 5 1 C4.67 1.99 4.34 2.98 4 4 C1.4375 5.1875 1.4375 5.1875 -1 6 C-1 5.01 -1 4.02 -1 3 C-2.65 3 -4.3 3 -6 3 C-4.125 1.9375 -4.125 1.9375 -2 1 C-1.34 1.33 -0.68 1.66 0 2 C0 1.34 0 0.68 0 0 Z " fill="#4E5044" transform="translate(369,258)"/>
<path d="M0 0 C1.9375 1.5625 1.9375 1.5625 3 3 C2.67 3.66 2.34 4.32 2 5 C1.608125 4.525625 1.21625 4.05125 0.8125 3.5625 C-1.40808374 1.64820367 -3.13375709 1.38733012 -6 1 C-6 1.66 -6 2.32 -6 3 C-6.99 2.67 -7.98 2.34 -9 2 C-9.99 2 -10.98 2 -12 2 C-7.74530913 -1.22325066 -5.13135276 -1.33035072 0 0 Z " fill="#393936" transform="translate(371,248)"/>
<path d="M0 0 C4.61513112 1.31860889 8.09897612 3.21355437 12 6 C10.68 6.33 9.36 6.66 8 7 C8 6.34 8 5.68 8 5 C5.69 4.67 3.38 4.34 1 4 C0.67 2.68 0.34 1.36 0 0 Z " fill="#546B50" transform="translate(339,245)"/>
<path d="M0 0 C0.99 0.33 1.98 0.66 3 1 C2.34 6.61 1.68 12.22 1 18 C0.67 18 0.34 18 0 18 C0 12.06 0 6.12 0 0 Z " fill="#6D925F" transform="translate(212,184)"/>
<path d="M0 0 C0.1875 3.125 0.1875 3.125 0 6 C-1.5027237 5.02501855 -3.00211963 4.04490611 -4.5 3.0625 C-5.3353125 2.51722656 -6.170625 1.97195312 -7.03125 1.41015625 C-7.6809375 0.94480469 -8.330625 0.47945312 -9 0 C-9 -0.33 -9 -0.66 -9 -1 C-3.375 -2.25 -3.375 -2.25 0 0 Z " fill="#B5B2B3" transform="translate(162,173)"/>
<path d="M0 0 C5.28798182 0.41474367 8.11690718 1.35224614 12 5 C9.92446352 5.5534764 8.15634036 6 6 6 C5.7525 5.195625 5.505 4.39125 5.25 3.5625 C4.27761141 0.828919 4.27761141 0.828919 1.875 0.1875 C1.25625 0.125625 0.6375 0.06375 0 0 Z " fill="#556D4D" transform="translate(254,135)"/>
<path d="M0 0 C2.64 0.33 5.28 0.66 8 1 C8.33 1.99 8.66 2.98 9 4 C9.66 4 10.32 4 11 4 C11 4.66 11 5.32 11 6 C6.95743617 4.77782954 3.50711041 3.37245704 0 1 C0 0.67 0 0.34 0 0 Z " fill="#536549" transform="translate(268,310)"/>
<path d="M0 0 C1.32 0.33 2.64 0.66 4 1 C4 1.99 4 2.98 4 4 C4.66 4 5.32 4 6 4 C6 4.66 6 5.32 6 6 C5.34 6 4.68 6 4 6 C3.67 6.99 3.34 7.98 3 9 C2.01 8.34 1.02 7.68 0 7 C0.33 6.01 0.66 5.02 1 4 C1.66 4 2.32 4 3 4 C3 3.34 3 2.68 3 2 C2.01 1.67 1.02 1.34 0 1 C0 0.67 0 0.34 0 0 Z " fill="#6F986E" transform="translate(336,245)"/>
<path d="M0 0 C4.8274799 1.41292095 8.7162359 3.42974154 13 6 C9.98968256 6.93423645 9.13349732 7.04449911 6 6 C5.01 6.495 5.01 6.495 4 7 C4 5.35 4 3.7 4 2 C2.68 1.67 1.36 1.34 0 1 C0 0.67 0 0.34 0 0 Z " fill="#ADAAAB" transform="translate(488,143)"/>
<path d="M0 0 C0.33 0.66 0.66 1.32 1 2 C0.195625 2.495 -0.60875 2.99 -1.4375 3.5 C-4.98088338 6.95695939 -4.7573941 9.14788209 -5 14 C-5.33 14 -5.66 14 -6 14 C-6 10.37 -6 6.74 -6 3 C-4.02 2.01 -2.04 1.02 0 0 Z " fill="#749470" transform="translate(269,251)"/>
<path d="M0 0 C0.66 0.33 1.32 0.66 2 1 C1.01 2.485 1.01 2.485 0 4 C-0.99 3.34 -1.98 2.68 -3 2 C-2.01 1.34 -1.02 0.68 0 0 Z M-2 5 C-1.34 5.99 -0.68 6.98 0 8 C-3 10 -3 10 -5.1875 9.625 C-5.785625 9.41875 -6.38375 9.2125 -7 9 C-6.34 9 -5.68 9 -5 9 C-5 8.34 -5 7.68 -5 7 C-4.01 6.34 -3.02 5.68 -2 5 Z " fill="#608359" transform="translate(313,319)"/>
<path d="M0 0 C0 0.66 0 1.32 0 2 C-0.66 2 -1.32 2 -2 2 C-2 2.99 -2 3.98 -2 5 C-6.455 5.495 -6.455 5.495 -11 6 C-9.73083275 3.46166551 -8.58375191 3.10599099 -6.0625 1.875 C-5.35222656 1.52179688 -4.64195312 1.16859375 -3.91015625 0.8046875 C-2 0 -2 0 0 0 Z " fill="#4D664B" transform="translate(326,313)"/>
<path d="M0 0 C0.99 0.33 1.98 0.66 3 1 C3 1.66 3 2.32 3 3 C4.65 3.33 6.3 3.66 8 4 C8.33 4.99 8.66 5.98 9 7 C4.56909529 5.79157144 2.01887244 4.48331435 -1 1 C-0.67 0.67 -0.34 0.34 0 0 Z " fill="#345230" transform="translate(239,226)"/>
<path d="M0 0 C3.51005335 1.6380249 6.45543849 3.03134491 9 6 C8.67 6.99 8.34 7.98 8 9 C7.34 8.01 6.68 7.02 6 6 C5.01 6 4.02 6 3 6 C2.67 4.68 2.34 3.36 2 2 C1.34 2 0.68 2 0 2 C0 1.34 0 0.68 0 0 Z " fill="#A09A9C" transform="translate(492,213)"/>
<path d="M0 0 C-0.33 0.66 -0.66 1.32 -1 2 C-3.32249342 2.40197001 -5.65885633 2.72686657 -8 3 C-9.66934283 3.31966139 -11.3373217 3.64731066 -13 4 C-8.70699742 -0.75296714 -6.19220493 -1.54805123 0 0 Z " fill="#B1AEAD" transform="translate(368,136)"/>
<path d="M0 0 C2 3 2 3 2.875 5.0625 C4.24405488 7.42031674 5.50889277 8.00355711 8 9 C6.02 9.99 6.02 9.99 4 11 C0.85041169 7.57653445 0.43820891 4.55737263 0 0 Z " fill="#526549" transform="translate(298,287)"/>
<path d="M0 0 C-0.33 1.65 -0.66 3.3 -1 5 C-3 4 -3 4 -4 3 C-4.99 3.33 -5.98 3.66 -7 4 C-6.625 2.0625 -6.625 2.0625 -6 0 C-3.50907189 -1.24546405 -2.58919267 -0.7767578 0 0 Z " fill="#73996F" transform="translate(332,241)"/>
<path d="M0 0 C0 0.66 0 1.32 0 2 C0.99 2.33 1.98 2.66 3 3 C3 3.66 3 4.32 3 5 C-4.57142857 3.14285714 -4.57142857 3.14285714 -7 0 C-3.98968256 -0.93423645 -3.13349732 -1.04449911 0 0 Z " fill="#ACAAAB" transform="translate(445,218)"/>
<path d="M0 0 C0.66 0.99 1.32 1.98 2 3 C1.01 3 0.02 3 -1 3 C-1.33 4.32 -1.66 5.64 -2 7 C-2.99 7 -3.98 7 -5 7 C-5.33 6.01 -5.66 5.02 -6 4 C-4.02 2.68 -2.04 1.36 0 0 Z " fill="#4C7847" transform="translate(290,213)"/>
<path d="M0 0 C-1 3 -1 3 -3.8125 4.75 C-7.13982105 6.05483179 -7.79584277 6.02866653 -11 5 C-9.73461631 4.15841464 -8.46246221 3.32700252 -7.1875 2.5 C-6.47980469 2.0359375 -5.77210938 1.571875 -5.04296875 1.09375 C-3 0 -3 0 0 0 Z " fill="#9A9697" transform="translate(144,136)"/>
<path d="M0 0 C1.43931117 0.45261358 2.87638999 0.91232979 4.3125 1.375 C5.11300781 1.63023437 5.91351563 1.88546875 6.73828125 2.1484375 C9 3 9 3 12 5 C12 5.66 12 6.32 12 7 C7.39104317 5.68315519 3.85859765 3.84801255 0 1 C0 0.67 0 0.34 0 0 Z " fill="#8B8888" transform="translate(341,225)"/>
<path d="M0 0 C1.32 0 2.64 0 4 0 C4 0.66 4 1.32 4 2 C4.99 2.33 5.98 2.66 7 3 C7 3.66 7 4.32 7 5 C6.01 5.33 5.02 5.66 4 6 C2.62437146 4.71034824 1.29233607 3.37310707 0 2 C0 1.34 0 0.68 0 0 Z " fill="#789C6A" transform="translate(272,145)"/>
<path d="M0 0 C4.30764815 1.56641751 8.06171464 3.68336156 12 6 C10 7 10 7 7.87109375 6.328125 C7.06800781 5.97234375 6.26492188 5.6165625 5.4375 5.25 C4.22900391 4.73179688 4.22900391 4.73179688 2.99609375 4.203125 C1 3 1 3 0 0 Z " fill="#898786" transform="translate(384,78)"/>
<path d="M0 0 C3.37503669 1.1858237 5.64722731 2.27573689 8 5 C3.25 6.125 3.25 6.125 1 5 C0.375 2.4375 0.375 2.4375 0 0 Z " fill="#647B5D" transform="translate(331,240)"/>
<path d="M0 0 C5.75 -0.125 5.75 -0.125 8 1 C8 1.66 8 2.32 8 3 C8.99 3.33 9.98 3.66 11 4 C6.94393835 3.53199289 3.53411321 3.12046792 0 1 C0 0.67 0 0.34 0 0 Z " fill="#455F3D" transform="translate(248,233)"/>
<path d="M0 0 C2.375 -0.125 2.375 -0.125 5 0 C5.66 0.66 6.32 1.32 7 2 C7.66 2 8.32 2 9 2 C9.33 3.32 9.66 4.64 10 6 C7.5625 5.625 7.5625 5.625 5 5 C4.67 4.34 4.34 3.68 4 3 C3.01 3 2.02 3 1 3 C0.67 2.01 0.34 1.02 0 0 Z " fill="#4A7C45" transform="translate(237,224)"/>
<path d="M0 0 C0.99 0 1.98 0 3 0 C1.55609075 3.80666984 -0.34952803 5.26602582 -4 7 C-4.66 6.67 -5.32 6.34 -6 6 C-5.34 4.68 -4.68 3.36 -4 2 C-2.68 2.33 -1.36 2.66 0 3 C0 2.01 0 1.02 0 0 Z " fill="#A7A4A5" transform="translate(406,211)"/>
<path d="M0 0 C0.66 0 1.32 0 2 0 C2 0.99 2 1.98 2 3 C-0.375 4.5625 -0.375 4.5625 -3 6 C-3.66 6.66 -4.32 7.32 -5 8 C-4.25 3.25 -4.25 3.25 -2 1 C-1.34 1.33 -0.68 1.66 0 2 C0 1.34 0 0.68 0 0 Z " fill="#C1BCBC" transform="translate(139,171)"/>
<path d="M0 0 C0.33 0.99 0.66 1.98 1 3 C-0.98 3.66 -2.96 4.32 -5 5 C-5.99 4.01 -6.98 3.02 -8 2 C-5.33333333 1.33333333 -2.66666667 0.66666667 0 0 Z " fill="#749773" transform="translate(348,306)"/>
<path d="M0 0 C2.31 0 4.62 0 7 0 C6.67 0.99 6.34 1.98 6 3 C4.68 2.67 3.36 2.34 2 2 C1.67 3.32 1.34 4.64 1 6 C0.67 4.02 0.34 2.04 0 0 Z " fill="#7A8C74" transform="translate(299,286)"/>
<path d="M0 0 C0.99 0.33 1.98 0.66 3 1 C3 1.66 3 2.32 3 3 C-0.96 4.98 -0.96 4.98 -5 7 C-5 6.34 -5 5.68 -5 5 C-4.34 5 -3.68 5 -3 5 C-3 4.01 -3 3.02 -3 2 C-2.01 1.34 -1.02 0.68 0 0 Z " fill="#526749" transform="translate(270,226)"/>
<path d="M0 0 C0.66 0.33 1.32 0.66 2 1 C2.625 3.5625 2.625 3.5625 3 6 C-0.45925163 4.7508258 -3.14693203 3.32472205 -6 1 C-4.7934375 1.0309375 -4.7934375 1.0309375 -3.5625 1.0625 C-1.06645115 1.29633621 -1.06645115 1.29633621 0 0 Z " fill="#AEAAAB" transform="translate(338,219)"/>
<path d="M0 0 C2.64 0 5.28 0 8 0 C8.33 1.65 8.66 3.3 9 5 C5.54074837 3.7508258 2.85306797 2.32472205 0 0 Z " fill="#AFACAD" transform="translate(367,172)"/>
<path d="M0 0 C2 3 2 3 2 6 C2.66 6.33 3.32 6.66 4 7 C2.68 8.65 1.36 10.3 0 12 C0 8.04 0 4.08 0 0 Z " fill="#608D57" transform="translate(213,161)"/>
<path d="M0 0 C2.5 2.3125 2.5 2.3125 5 5 C5 5.99 5 6.98 5 8 C3.68 7.67 2.36 7.34 1 7 C0.67 4.69 0.34 2.38 0 0 Z " fill="#58944A" transform="translate(214,160)"/>
<path d="M0 0 C0.33 0.99 0.66 1.98 1 3 C-1.76223278 5.76223278 -4.20706617 5.57856291 -8 6 C-5.63379989 3.38472619 -3.057952 1.73559438 0 0 Z " fill="#B0A9AA" transform="translate(337,149)"/>
<path d="M0 0 C0 0.66 0 1.32 0 2 C-0.66 2 -1.32 2 -2 2 C-2 2.66 -2 3.32 -2 4 C-3.65 4.66 -5.3 5.32 -7 6 C-7.66 5.34 -8.32 4.68 -9 4 C-2.25 0 -2.25 0 0 0 Z " fill="#607B4A" transform="translate(232,148)"/>
<path d="M0 0 C1.46534385 3.80989402 0.55203911 6.3241179 -1 10 C-1.99 10.495 -1.99 10.495 -3 11 C-3.25 5.375 -3.25 5.375 -1 2 C-0.67 1.34 -0.34 0.68 0 0 Z " fill="#52644E" transform="translate(338,287)"/>
<path d="M0 0 C0.99 0.33 1.98 0.66 3 1 C2.67 4.63 2.34 8.26 2 12 C1.67 12 1.34 12 1 12 C0.67 8.04 0.34 4.08 0 0 Z " fill="#7B9872" transform="translate(335,282)"/>
<path d="M0 0 C1.48253267 0.61697319 2.96095174 1.24383896 4.4375 1.875 C5.67306641 2.39707031 5.67306641 2.39707031 6.93359375 2.9296875 C9 4 9 4 10 6 C9.01 6.33 8.02 6.66 7 7 C6.34 6.67 5.68 6.34 5 6 C5 5.34 5 4.68 5 4 C4.01 4 3.02 4 2 4 C2 3.34 2 2.68 2 2 C1.34 2 0.68 2 0 2 C0 1.34 0 0.68 0 0 Z " fill="#837B7A" transform="translate(368,136)"/>
<path d="M0 0 C2.375 0.25 2.375 0.25 5 1 C6.3125 3.0625 6.3125 3.0625 7 5 C5.35 5 3.7 5 2 5 C1.34 3.35 0.68 1.7 0 0 Z " fill="#586952" transform="translate(331,278)"/>
<path d="M0 0 C-0.33 1.32 -0.66 2.64 -1 4 C-3.31 4.33 -5.62 4.66 -8 5 C-6.45487538 1.90975077 -3.48715062 0 0 0 Z " fill="#556952" transform="translate(284,240)"/>
<path d="M0 0 C0.66 0.33 1.32 0.66 2 1 C1.67 2.65 1.34 4.3 1 6 C-0.32 6.33 -1.64 6.66 -3 7 C-2.34 6.67 -1.68 6.34 -1 6 C-1.66 5.67 -2.32 5.34 -3 5 C-1.125 1.125 -1.125 1.125 0 0 Z " fill="#709569" transform="translate(305,231)"/>
<path d="M0 0 C3.465 1.98 3.465 1.98 7 4 C6.34 4.66 5.68 5.32 5 6 C2.525 5.01 2.525 5.01 0 4 C0 2.68 0 1.36 0 0 Z " fill="#A09A9B" transform="translate(458,193)"/>
<path d="M0 0 C-4.625 3 -4.625 3 -8 3 C-8 2.01 -8 1.02 -8 0 C-4.94736336 -0.98120464 -3.05263664 -0.98120464 0 0 Z " fill="#B4ADB0" transform="translate(502,187)"/>
<path d="M0 0 C1.32 0.33 2.64 0.66 4 1 C3.67 1.66 3.34 2.32 3 3 C0.6859378 3.73075648 -1.64828869 4.40138258 -4 5 C-3.67 4.01 -3.34 3.02 -3 2 C-2.01 2 -1.02 2 0 2 C0 1.34 0 0.68 0 0 Z " fill="#84AE6E" transform="translate(237,145)"/>
<path d="M0 0 C2.31 0.66 4.62 1.32 7 2 C7 2.99 7 3.98 7 5 C6.67 4.34 6.34 3.68 6 3 C5.01 3 4.02 3 3 3 C2.67 3.66 2.34 4.32 2 5 C2 4.34 2 3.68 2 3 C1.34 3 0.68 3 0 3 C0 2.01 0 1.02 0 0 Z " fill="#ABAAA7" transform="translate(164,143)"/>
<path d="M0 0 C-0.33 0.66 -0.66 1.32 -1 2 C-1.78375 2.144375 -2.5675 2.28875 -3.375 2.4375 C-6.25125721 3.05384083 -7.16384707 3.77728856 -9 6 C-9.66 5.34 -10.32 4.68 -11 4 C-3.77464789 -1.88732394 -3.77464789 -1.88732394 0 0 Z " fill="#A3A0A1" transform="translate(133,143)"/>
<path d="M0 0 C1.31554985 0.4495045 2.62738358 0.90989716 3.9375 1.375 C5.03384766 1.75785156 5.03384766 1.75785156 6.15234375 2.1484375 C8 3 8 3 9 5 C7.68 5.33 6.36 5.66 5 6 C4.34 5.01 3.68 4.02 3 3 C0.43717258 2.27034634 0.43717258 2.27034634 -2 2 C-1.34 1.34 -0.68 0.68 0 0 Z " fill="#A8A2A4" transform="translate(472,134)"/>
<path d="M0 0 C2.09749995 2.35968744 2.96905704 3.54616994 3.1875 6.75 C3.125625 7.4925 3.06375 8.235 3 9 C1.68 8.34 0.36 7.68 -1 7 C-0.67 4.69 -0.34 2.38 0 0 Z " fill="#485D44" transform="translate(335,265)"/>
<path d="M0 0 C2.91517292 1.07401108 4.77810176 1.77810176 7 4 C5.02 4.33 3.04 4.66 1 5 C0.67 3.35 0.34 1.7 0 0 Z " fill="#B7B2B3" transform="translate(465,198)"/>
<path d="M0 0 C-2.62198774 2.15377564 -4.64404172 3.40072174 -8 4 C-8 3.01 -8 2.02 -8 1 C-5.29120665 -0.35439668 -2.99066732 -0.06501451 0 0 Z " fill="#B2B0B0" transform="translate(510,182)"/>
<path d="M0 0 C-0.33 1.65 -0.66 3.3 -1 5 C-2.32 5.33 -3.64 5.66 -5 6 C-5.33 5.01 -5.66 4.02 -6 3 C-2.25 0 -2.25 0 0 0 Z " fill="#BBB7B7" transform="translate(113,153)"/>
<path d="M0 0 C7.57142857 1.85714286 7.57142857 1.85714286 10 5 C7.03 4.505 7.03 4.505 4 4 C4 3.34 4 2.68 4 2 C2.68 2 1.36 2 0 2 C0 1.34 0 0.68 0 0 Z " fill="#888486" transform="translate(396,85)"/>
<path d="M0 0 C2.97 0.495 2.97 0.495 6 1 C5.01 2.485 5.01 2.485 4 4 C1.375 4.1875 1.375 4.1875 -1 4 C-0.67 2.68 -0.34 1.36 0 0 Z " fill="#5C7453" transform="translate(289,312)"/>
<path d="M0 0 C0.33 0.66 0.66 1.32 1 2 C-1.8125 3.5625 -1.8125 3.5625 -5 5 C-5.99 4.67 -6.98 4.34 -8 4 C-7.67 3.34 -7.34 2.68 -7 2 C-4.6859378 1.26924352 -2.35171131 0.59861742 0 0 Z " fill="#74956F" transform="translate(300,238)"/>
<path d="M0 0 C-1 3 -1 3 -2.75 4.1875 C-5.29960574 5.10819096 -7.30923081 5.14948718 -10 5 C-9.4225 4.731875 -8.845 4.46375 -8.25 4.1875 C-5.94252104 3.04946754 -5.94252104 3.04946754 -3.875 1.375 C-2 0 -2 0 0 0 Z " fill="#485C47" transform="translate(294,235)"/>
<path d="M0 0 C0 0.66 0 1.32 0 2 C0.66 2.33 1.32 2.66 2 3 C1 4 1 4 -1.5625 4.0625 C-2.7690625 4.0315625 -2.7690625 4.0315625 -4 4 C-4 3.01 -4 2.02 -4 1 C-2 0 -2 0 0 0 Z " fill="#5F8755" transform="translate(284,217)"/>
<path d="M0 0 C0.33 0 0.66 0 1 0 C1 2.97 1 5.94 1 9 C-0.32 9.33 -1.64 9.66 -3 10 C-3 9.01 -3 8.02 -3 7 C-2.01 7 -1.02 7 0 7 C0 4.69 0 2.38 0 0 Z " fill="#505C4A" transform="translate(481,183)"/>
<path d="M0 0 C1.65 0.33 3.3 0.66 5 1 C5 1.66 5 2.32 5 3 C3.35 3.66 1.7 4.32 0 5 C-0.33 4.01 -0.66 3.02 -1 2 C-0.67 1.34 -0.34 0.68 0 0 Z " fill="#BCB9BA" transform="translate(510,177)"/>
<path d="M0 0 C0.8125 1.6875 0.8125 1.6875 1 4 C-1.4375 6.75 -1.4375 6.75 -4 9 C-2.94124926 5.59687262 -1.99097846 2.98646769 0 0 Z " fill="#538E4C" transform="translate(292,171)"/>
<path d="M0 0 C2 0.25 2 0.25 4 1 C4.33 1.99 4.66 2.98 5 4 C4.01 4.66 3.02 5.32 2 6 C1.01 4.35 0.02 2.7 -1 1 C-0.67 0.67 -0.34 0.34 0 0 Z " fill="#7D9C6F" transform="translate(294,157)"/>
<path d="M0 0 C-0.75 1.9375 -0.75 1.9375 -2 4 C-4.125 4.75 -4.125 4.75 -6 5 C-6.33 4.34 -6.66 3.68 -7 3 C-2.25 0 -2.25 0 0 0 Z " fill="#7BAC60" transform="translate(221,156)"/>
<path d="M0 0 C5 2 5 2 10 4 C10 4.33 10 4.66 10 5 C5.75776898 5.3636198 3.41831915 4.5393228 0 2 C0 1.34 0 0.68 0 0 Z " fill="#495A42" transform="translate(266,140)"/>
</svg>
