<?xml version="1.0" encoding="UTF-8"?>
<svg version="1.1" xmlns="http://www.w3.org/2000/svg" width="515" height="388">
<path d="M0 0 C2.71115658 -0.0002241 5.42231236 -0.00164705 8.13346863 -0.00289917 C13.7991892 -0.00470764 19.46489666 -0.00235244 25.13061523 0.00244141 C31.59866361 0.00785238 38.06668029 0.00613913 44.53472787 0.000615 C50.15924365 -0.00398932 55.78375013 -0.00453082 61.4082672 -0.00194633 C64.73556864 -0.00041927 68.06284403 -0.00050391 71.39014626 -0.00348282 C84.95409404 -0.01295659 98.51360557 0.08267194 112.07299805 0.45361328 C113.19437322 0.47557707 114.31574839 0.49754086 115.47110462 0.52017021 C133.35174973 1.1013082 148.43503063 7.21496805 160.98046875 20.1328125 C161.82158203 20.94298828 161.82158203 20.94298828 162.6796875 21.76953125 C179.6162022 39.41729066 178.14082277 66.09896635 178.11328125 88.76171875 C178.1143833 90.66138225 178.11581531 92.56104559 178.11755371 94.46070862 C178.12043643 99.501073 178.11619326 104.54140436 178.10944366 109.58176422 C178.10545726 112.70431009 178.10295258 115.82685425 178.10076904 118.94940186 C178.08108398 143.38695707 178.02593621 167.82339126 177.60546875 192.2578125 C177.59018127 193.28681671 177.5748938 194.31582092 177.55914307 195.37600708 C177.40867358 204.98482396 177.09009599 214.52843524 176.08203125 224.08984375 C176.00804108 224.80983551 175.9340509 225.52982727 175.8578186 226.27163696 C174.31261176 239.36781523 167.11847778 251.74273606 156.98046875 260.1328125 C153.42425597 262.67140131 149.75841265 264.94034921 145.98046875 267.1328125 C145.15289062 267.62136719 144.3253125 268.10992187 143.47265625 268.61328125 C132.29686494 274.74020221 120.03065715 274.4270559 107.60205078 274.39160156 C105.98754723 274.3943177 104.37304492 274.39788211 102.75854492 274.40222168 C98.40718323 274.41127534 94.05591727 274.40783026 89.70455408 274.40146351 C85.128056 274.39636515 80.55156558 274.40110571 75.97506714 274.40423584 C68.29049219 274.40786511 60.6059558 274.40310451 52.92138672 274.39355469 C44.06909118 274.38267992 35.21688787 274.38619283 26.36459458 274.3972075 C18.7327665 274.40631936 11.10096598 274.40754644 3.46913421 274.40233016 C-1.075116 274.39923081 -5.61932306 274.39874442 -10.1635704 274.40540314 C-14.44005846 274.41123271 -18.71642912 274.40707843 -22.99290466 274.39561462 C-24.55121288 274.39299742 -26.10953119 274.39368196 -27.66783524 274.39813995 C-53.44245182 274.4650078 -53.44245182 274.4650078 -64.26953125 268.5703125 C-64.93718506 268.21952637 -65.60483887 267.86874023 -66.29272461 267.50732422 C-78.64224028 260.7511405 -88.07927279 250.39061093 -92.1796875 236.8046875 C-95.91642769 220.46731178 -97.0533606 203.57857432 -97.5546875 186.875 C-97.59828615 185.47542188 -97.64192753 184.0758451 -97.68560791 182.67626953 C-97.82540316 178.12032762 -97.95489827 173.56412328 -98.08203125 169.0078125 C-98.11491556 167.83864162 -98.11491556 167.83864162 -98.1484642 166.64585114 C-98.84950368 141.56396605 -99.2609641 116.48610587 -99.32413864 91.39438629 C-99.33197957 89.02344091 -99.34541828 86.65258748 -99.36038208 84.28167725 C-99.38296839 80.5325217 -99.38925366 76.78366991 -99.38311005 73.03445435 C-99.3828251 71.02628548 -99.39632458 69.0181289 -99.41046143 67.01000977 C-99.31638989 48.16485873 -94.24017278 32.1656268 -80.84375 18.7578125 C-58.12154879 -2.36157784 -28.92973532 -0.02564799 0 0 Z " fill="#E1E1E1" transform="translate(218.01953125,57.8671875)"/>
<path d="M0 0 C1.65 0 3.3 0 5 0 C5 0.66 5 1.32 5 2 C6.2375 2.3403125 6.2375 2.3403125 7.5 2.6875 C8.655 3.120625 9.81 3.55375 11 4 C11.67918991 4.19322845 12.35837982 4.38645691 13.05815125 4.58554077 C15.79530788 5.71275379 17.15014155 6.6572677 19 9 C20.24048013 15.0114586 20.05261372 20.98643004 19.95703125 27.1015625 C19.95480111 28.90326815 19.95538572 30.7049793 19.95866394 32.50668335 C19.95692212 36.27818647 19.92783664 40.04816593 19.87817383 43.81933594 C19.81571465 48.65661047 19.81090966 53.49181087 19.8251543 58.32940102 C19.83155981 62.04756515 19.81282801 65.76525894 19.78589439 69.48331833 C19.77500623 71.26710616 19.77074039 73.05094699 19.77317238 74.83476639 C19.7717476 77.32524871 19.73779868 79.81316126 19.69458008 82.30322266 C19.70269211 83.41137581 19.70269211 83.41137581 19.71096802 84.54191589 C19.65510559 86.59780884 19.65510559 86.59780884 19 90 C16.62639579 91.9213415 14.98319339 92.81565124 12 93.375 C9.70232837 93.91905441 9.70232837 93.91905441 7.625 96.4375 C4.26302036 99.71943251 1.2232537 100.57938443 -3.3125 101.4375 C-3.869375 101.623125 -4.42625 101.80875 -5 102 C-5.495 103.485 -5.495 103.485 -6 105 C-6.66 104.67 -7.32 104.34 -8 104 C-8 104.99 -8 105.98 -8 107 C-6.68 107 -5.36 107 -4 107 C-2.97614607 109.99330543 -2.15929625 112.83000468 -2 116 C-4.3125 119 -4.3125 119 -7 121 C-7.33 121.33 -7.66 121.66 -8 122 C-9.99958364 122.04080783 -12.00045254 122.04254356 -14 122 C-13.96447021 122.65597168 -13.92894043 123.31194336 -13.89233398 123.98779297 C-13.73506417 126.94992662 -13.5861795 129.91242329 -13.4375 132.875 C-13.35338867 134.42380859 -13.35338867 134.42380859 -13.26757812 136.00390625 C-13.21923828 136.99003906 -13.17089844 137.97617188 -13.12109375 138.9921875 C-13.0739624 139.90339355 -13.02683105 140.81459961 -12.97827148 141.75341797 C-13 144 -13 144 -14 146 C-14.66 146 -15.32 146 -16 146 C-16.20625 146.7425 -16.4125 147.485 -16.625 148.25 C-18.40454364 151.80908727 -20.63794729 152.96875982 -24 155 C-24.66 155.66 -25.32 156.32 -26 157 C-27.3921875 157.433125 -27.3921875 157.433125 -28.8125 157.875 C-32.24407262 159.08614328 -34.23753332 160.67371227 -37 163 C-40.32075472 165.11320755 -40.32075472 165.11320755 -42.875 164.6875 C-43.926875 164.3471875 -43.926875 164.3471875 -45 164 C-45.99 163.855625 -46.98 163.71125 -48 163.5625 C-50.72586119 163.05140103 -52.61925643 162.37350591 -55 161 C-55 158.69 -55 156.38 -55 154 C-55.66 154.165 -56.32 154.33 -57 154.5 C-60.73099794 155.12183299 -64.21873378 155.06408926 -68 155 C-68.20625 154.443125 -68.4125 153.88625 -68.625 153.3125 C-69.96903457 150.72045983 -69.96903457 150.72045983 -73.0625 148.6875 C-76.73131724 145.33092253 -76.60479969 143.86080764 -77 139 C-77.01485361 136.51143571 -76.97177711 134.02203137 -76.87890625 131.53515625 C-76.85529526 130.85698349 -76.83168427 130.17881073 -76.80735779 129.48008728 C-76.73155017 127.34063309 -76.647177 125.2016196 -76.5625 123.0625 C-76.50919595 121.60093212 -76.45645633 120.13934355 -76.40429688 118.67773438 C-76.27604979 115.11822702 -76.14012555 111.55906183 -76 108 C-75.34 108 -74.68 108 -74 108 C-74 107.34 -74 106.68 -74 106 C-75.485 106.495 -75.485 106.495 -77 107 C-77.86625 106.0409375 -77.86625 106.0409375 -78.75 105.0625 C-80.98062401 103.01776132 -82.07436391 102.41794801 -85 102 C-85 101.34 -85 100.68 -85 100 C-85.86625 99.814375 -85.86625 99.814375 -86.75 99.625 C-89.74666682 98.79259255 -92.1701649 97.87593705 -94.3359375 95.58984375 C-96.26190213 93.74977895 -98.20784324 92.67495553 -100.5625 91.4375 C-103.13182512 90.08322518 -104.9356679 89.0643321 -107 87 C-107.48027877 82.11440557 -107.42996659 77.24095141 -107.3828125 72.33496094 C-107.37763792 70.70561638 -107.39717683 69.07599116 -107.44238281 67.44726562 C-107.81008593 53.95750051 -107.81008593 53.95750051 -103.4309082 49.22167969 C-100.36456134 47.1703619 -97.336208 45.56485099 -94 44 C-92.13186597 42.85583201 -90.27495739 41.69280991 -88.4375 40.5 C-84.38829787 38 -84.38829787 38 -81 38 C-81 37.34 -81 36.68 -81 36 C-75.4124313 35.14037405 -72.7196871 37.29152559 -68.390625 40.3984375 C-64.81780778 42.79199152 -60.97843281 44.40110265 -57 46 C-57 46.66 -57 47.32 -57 48 C-54.34771188 49.07525194 -51.71631546 50.09456151 -49 51 C-49 52.32 -49 53.64 -49 55 C-48.34 55 -47.68 55 -47 55 C-45.23501567 64.2171404 -45.52067778 73.7542361 -47 83 C-46.34 83 -45.68 83 -45 83 C-45.45487191 85.5472827 -45.97953003 86.97297965 -47.5625 89.0625 C-49.29792346 90.99946028 -49.29792346 90.99946028 -49 94 C-48.01 93.34 -47.02 92.68 -46 92 C-42.8125 92.375 -42.8125 92.375 -40 93 C-40 92.34 -40 91.68 -40 91 C-39.01 91 -38.02 91 -37 91 C-37.06807861 89.83017578 -37.13615723 88.66035156 -37.20629883 87.45507812 C-37.44274259 83.08791958 -37.59120439 78.72131448 -37.71411133 74.34960938 C-37.77924271 72.4632236 -37.86778972 70.57748828 -37.98071289 68.69335938 C-38.86966866 53.47250576 -38.86966866 53.47250576 -35.77874756 49.38497925 C-32.29305843 46.3327085 -28.27894835 44.71729239 -24 43 C-21.98452362 41.88161322 -19.9813435 40.74029962 -18 39.5625 C-14.67173372 37.70049737 -11.81788448 36.41223005 -8 36 C-5.375 37.375 -5.375 37.375 -3 39 C-1.515 39.495 -1.515 39.495 0 40 C0 26.8 0 13.6 0 0 Z " fill="#D2DAD1" transform="translate(301,117)"/>
<path d="M0 0 C1.65 0 3.3 0 5 0 C5 0.66 5 1.32 5 2 C6.2684375 2.37125 6.2684375 2.37125 7.5625 2.75 C11.38277156 4.13918966 14.49576616 5.9499607 18 8 C18.13899119 17.83990388 18.24561605 27.67957446 18.31087303 37.52025986 C18.34219281 42.08970549 18.38467635 46.65847983 18.45263672 51.22753906 C18.51780788 55.63664599 18.55370117 60.04510713 18.56926346 64.45465851 C18.58035402 66.13727234 18.60201208 67.81985061 18.63438034 69.50218964 C18.67791803 71.85868299 18.68393585 74.21250541 18.68115234 76.56933594 C18.702724 77.26561096 18.72429565 77.96188599 18.746521 78.67926025 C18.7215271 80.63372803 18.7215271 80.63372803 18 84 C15.12686157 86.36895752 15.12686157 86.36895752 12 88 C11.10539062 88.50402344 10.21078125 89.00804687 9.2890625 89.52734375 C8.40992188 89.99269531 7.53078125 90.45804687 6.625 90.9375 C3.18412753 92.77232074 -0.08545959 94.68854076 -3.3125 96.875 C-6.72115279 99.00887207 -8.92024118 99.86803379 -13 99 C-14.91523495 97.84510511 -16.64647146 96.59560579 -18.38671875 95.19140625 C-20.10686487 93.79260199 -20.10686487 93.79260199 -23 93 C-23 92.34 -23 91.68 -23 91 C-23.72751465 90.87705566 -24.4550293 90.75411133 -25.20458984 90.62744141 C-30.11639201 89.52496703 -33.73870383 87.93638944 -37 84 C-38.28156447 79.25083071 -38.46445998 74.78721226 -38.39306641 69.88769531 C-38.375034 67.6292587 -38.47399234 65.3961222 -38.58203125 63.140625 C-38.66069543 58.75064568 -38.37787946 55.20377165 -37 51 C-33.06586055 47.17882714 -29.01921321 45.22838571 -24 43 C-21.9888139 41.8739163 -19.98656816 40.73146577 -18 39.5625 C-14.67173372 37.70049737 -11.81788448 36.41223005 -8 36 C-5.375 37.375 -5.375 37.375 -3 39 C-2.01 39.33 -1.02 39.66 0 40 C0 26.8 0 13.6 0 0 Z " fill="#313131" transform="translate(301,117)"/>
<path d="M0 0 C5.5875687 -0.85962595 8.2803129 1.29152559 12.609375 4.3984375 C16.18219222 6.79199152 20.02156719 8.40110265 24 10 C24 10.66 24 11.32 24 12 C24.78375 12.309375 25.5675 12.61875 26.375 12.9375 C29 14 29 14 31 15 C34.80621174 43.97112707 34.80621174 43.97112707 28.74121094 51.984375 C21.04263374 58.38808447 11.16456342 63.45012612 1 63 C1 62.34 1 61.68 1 61 C0.01 61 -0.98 61 -2 61 C-2 60.34 -2 59.68 -2 59 C-2.71929687 58.896875 -3.43859375 58.79375 -4.1796875 58.6875 C-7.30692035 57.92518285 -9.41647119 56.72285625 -12.125 55 C-14.80872417 53.30329901 -16.97770778 52.00743074 -20 51 C-20 50.34 -20 49.68 -20 49 C-21.32 48.67 -22.64 48.34 -24 48 C-24.27342916 43.42895278 -24.47212232 38.86271606 -24.60424805 34.28540039 C-24.65933487 32.73182264 -24.73424169 31.17880949 -24.82983398 29.62719727 C-25.13399226 24.56060346 -25.20079669 19.95634623 -24 15 C-20.78260079 11.50954116 -17.30217403 9.87385819 -13 8 C-11.14999862 6.8812775 -9.31377203 5.73905265 -7.5 4.5625 C-3.37859008 2 -3.37859008 2 0 2 C0 1.34 0 0.68 0 0 Z " fill="#549F43" transform="translate(220,153)"/>
<path d="M0 0 C0.495 1.485 0.495 1.485 1 3 C2.64253193 3.72409328 4.31741547 4.3745949 6 5 C8.79158842 6.44693012 11.51766187 8.00713126 14.25 9.5625 C14.9821875 9.97435547 15.714375 10.38621094 16.46875 10.81054688 C21.86137393 13.86137393 21.86137393 13.86137393 23 15 C23.08871273 18.02977804 23.1151935 21.03667022 23.09765625 24.06640625 C23.0962413 24.97502914 23.09482635 25.88365204 23.09336853 26.81980896 C23.08775193 29.73407221 23.07519665 32.64825981 23.0625 35.5625 C23.05748714 37.53320202 23.05292386 39.50390524 23.04882812 41.47460938 C23.03777711 46.31643559 23.02050138 51.15820495 23 56 C16.58281793 55.01351554 10.88124493 53.44704961 6.10205078 48.74609375 C3.32852023 44.35170063 4.01238052 38.4187188 4.2722168 33.41503906 C4.37699198 30.84584988 4.44525362 28.53384086 4 26 C0.60375609 22.77070629 -0.93340828 21.98161049 -5.625 22.0625 C-8.94440573 22.98455715 -10.54969108 23.64952828 -13 26 C-13.51137685 28.23085956 -13.51137685 28.23085956 -13.328125 30.7109375 C-13.32232422 32.08378906 -13.32232422 32.08378906 -13.31640625 33.484375 C-13.27230506 35.40407371 -13.21252602 37.32347926 -13.13671875 39.2421875 C-13.14641501 46.14592352 -13.14641501 46.14592352 -15.69604492 48.69702148 C-17.75038224 49.98308935 -19.79292555 51.00379575 -22 52 C-23.27647551 52.76145365 -24.54771279 53.53178577 -25.8125 54.3125 C-29 56 -29 56 -32 56 C-32.42307156 50.20257956 -32.72975985 44.41424205 -32.93383789 38.60498047 C-33.01890833 36.63463924 -33.13463722 34.66535875 -33.2824707 32.69873047 C-34.24240921 19.59175005 -34.24240921 19.59175005 -32 14 C-27.99376173 9.44428791 -22.52215674 7.09403699 -16.99685669 4.84771729 C-14.42825308 3.75727865 -12.14276819 2.33938099 -9.8125 0.8125 C-6.27480929 -1.15594269 -3.9431925 -1.3143975 0 0 Z " fill="#353535" transform="translate(160,153)"/>
<path d="M0 0 C2.46484375 1.20703125 2.46484375 1.20703125 4.9375 2.8125 C8.55937671 5.10256554 12.13002112 7.16685211 16 9 C16 9.66 16 10.32 16 11 C16.928125 11.28875 17.85625 11.5775 18.8125 11.875 C22 13 22 13 25 15 C26.41287115 18.93585535 26.43647935 22.07671231 25 26 C20.57976609 30.29256831 13.17138537 35 7 35 C7.00902344 34.39671875 7.01804687 33.7934375 7.02734375 33.171875 C6.93551178 28.40216598 6.93551178 28.40216598 4.55078125 24.4765625 C1.84581099 22.82189522 -0.3842729 21.96996453 -3.5625 22.125 C-4.366875 22.41375 -5.17125 22.7025 -6 23 C-7.093125 23.350625 -8.18625 23.70125 -9.3125 24.0625 C-10.6428125 24.5265625 -10.6428125 24.5265625 -12 25 C-12.23015304 29.1833699 -12.13427549 32.949756 -11 37 C-8.07180875 39.89976221 -4.7565772 41.38303851 -1 43 C0.39956943 43.67986202 1.79580838 44.36665419 3.1875 45.0625 C3.82042969 45.36800781 4.45335937 45.67351562 5.10546875 45.98828125 C8.29686139 47.69255072 11.10892088 49.83169066 14 52 C12.77974937 55.6607519 11.873509 55.92339441 8.5625 57.6875 C7.75941406 58.12449219 6.95632813 58.56148437 6.12890625 59.01171875 C4 60 4 60 2 60 C2 60.66 2 61.32 2 62 C-3.75 63.125 -3.75 63.125 -6 62 C-6 61.34 -6 60.68 -6 60 C-6.83144531 59.75121094 -7.66289062 59.50242188 -8.51953125 59.24609375 C-12.46081294 57.83501759 -16.01031441 56.04476127 -19.6875 54.0625 C-20.35072266 53.71509766 -21.01394531 53.36769531 -21.69726562 53.00976562 C-28.12065235 49.57490324 -28.12065235 49.57490324 -30 47 C-30.68361302 42.4988571 -30.68475251 37.97765185 -30.72070312 33.43139648 C-30.74980051 31.20277921 -30.84277995 28.98252052 -30.9375 26.75585938 C-31.17246552 16.44532786 -31.17246552 16.44532786 -28.23339844 12.82226562 C-25.89172964 11.24095759 -23.59245783 10.11638032 -21 9 C-19.58841055 8.16603857 -18.18671308 7.31504037 -16.796875 6.4453125 C-15.44999286 5.66826511 -14.10104726 4.89478274 -12.75 4.125 C-12.069375 3.7228125 -11.38875 3.320625 -10.6875 2.90625 C-4.20870908 -0.78515413 -4.20870908 -0.78515413 0 0 Z " fill="#2F2F2F" transform="translate(362,153)"/>
<path d="M0 0 C0 0.66 0 1.32 0 2 C0.53238281 2.09925781 1.06476563 2.19851562 1.61328125 2.30078125 C4.72177399 3.21145261 7.33910308 4.6458945 10.1875 6.1875 C11.78658203 7.04408203 11.78658203 7.04408203 13.41796875 7.91796875 C13.97581055 8.25086914 14.53365234 8.58376953 15.10839844 8.92675781 C17.04245264 10.07078117 17.04245264 10.07078117 19.38378906 11.01855469 C22.19743576 12.42481866 23.95634158 13.59173769 26 16 C27.26608842 20.5844357 27.46406041 24.96872546 27.39306641 29.68505859 C27.37502989 31.87137732 27.47397732 34.03156223 27.58203125 36.21484375 C27.66100895 40.4943728 27.37744989 43.91123161 26 48 C22.05392473 51.77067117 17.97673554 53.74509299 13 56 C11.13088624 57.09998762 9.27328566 58.22024893 7.4375 59.375 C-0.28890152 64.03950547 -0.28890152 64.03950547 -3.25 63.875 C-7.05324414 62.66487687 -10.48540493 60.87503211 -14 59 C-14 58.34 -14 57.68 -14 57 C-8.76824163 56.61718841 -5.62197306 57.78145293 -1 60 C-1 59.34 -1 58.68 -1 58 C0.10859375 57.38511719 1.2171875 56.77023437 2.359375 56.13671875 C3.82300189 55.32046529 5.28653884 54.50405056 6.75 53.6875 C7.47960937 53.28337891 8.20921875 52.87925781 8.9609375 52.46289062 C11.89516888 50.82238854 14.69779414 49.2266544 17.390625 47.20703125 C19 46 19 46 21 46 C20.86157705 42.04137069 20.71300994 38.08318673 20.5625 34.125 C20.52318359 32.99707031 20.48386719 31.86914062 20.44335938 30.70703125 C20.40146484 29.63066406 20.35957031 28.55429688 20.31640625 27.4453125 C20.26141968 25.95281982 20.26141968 25.95281982 20.20532227 24.43017578 C20.15040468 21.99220499 20.15040468 21.99220499 19 20 C19.08378906 20.61746094 19.16757812 21.23492187 19.25390625 21.87109375 C19.96976927 27.82453683 19.86130989 33.06653189 19 39 C18.67 38.01 18.34 37.02 18 36 C17.34 36 16.68 36 16 36 C15.67 37.98 15.34 39.96 15 42 C14.34 42 13.68 42 13 42 C13 42.66 13 43.32 13 44 C10.04200997 45.47899501 7.3516424 45.13178874 4.0625 45.125 C2.81597656 45.12757813 1.56945312 45.13015625 0.28515625 45.1328125 C-3 45 -3 45 -6 44 C-6 43.34 -6 42.68 -6 42 C-6.66 42 -7.32 42 -8 42 C-8 40.02 -8 38.04 -8 36 C-6.68 36 -5.36 36 -4 36 C-3.67 37.32 -3.34 38.64 -3 40 C1.29 40 5.58 40 10 40 C10 38.68 10 37.36 10 36 C9.10796875 35.80664062 8.2159375 35.61328125 7.296875 35.4140625 C5.54117188 35.02347656 5.54117188 35.02347656 3.75 34.625 C2.58984375 34.36976563 1.4296875 34.11453125 0.234375 33.8515625 C-2.46052401 33.14203595 -4.59525832 32.36903611 -7 31 C-7.29238239 28.07617611 -7.50642332 25.84795048 -7 23 C-2.64462901 18.64462901 2.1241129 18.26115054 8 18 C7.505 17.01 7.505 17.01 7 16 C6.960008 14.00039988 6.95653201 11.99952758 7 10 C6.01 10.33 5.02 10.66 4 11 C3.01 10.67 2.02 10.34 1 10 C1 9.34 1 8.68 1 8 C-0.73575649 7.12563582 -0.73575649 7.12563582 -3 7 C-5.52338502 8.75149517 -5.52338502 8.75149517 -8 11 C-9.65948148 12.01187895 -11.32580562 13.0126546 -13 14 C-14.0828125 14.8353125 -14.0828125 14.8353125 -15.1875 15.6875 C-17 17 -17 17 -19 17 C-19 17.66 -19 18.32 -19 19 C-20.98 19.99 -22.96 20.98 -25 22 C-25 30.58 -25 39.16 -25 48 C-20.82844992 50.33084658 -20.82844992 50.33084658 -15 51 C-15 40.77 -15 30.54 -15 20 C-13.35 20 -11.7 20 -10 20 C-9.90077415 24.18084291 -9.82836626 28.36105371 -9.78027344 32.54272461 C-9.76021579 33.96374457 -9.73296222 35.38468259 -9.69824219 36.80541992 C-9.64945989 38.85355895 -9.62697461 40.90060275 -9.609375 42.94921875 C-9.58842773 44.17987061 -9.56748047 45.41052246 -9.54589844 46.6784668 C-10.08525879 50.62362676 -11.16814346 52.24758603 -14 55 C-18.94615793 56.21130398 -22.20090098 54.76094829 -26.68359375 52.46484375 C-30.40513451 50.03127863 -31.77287966 48.81945703 -32.97290039 44.48974609 C-33.33122291 40.99170551 -33.27539125 37.5283017 -33.10449219 34.01977539 C-32.9996427 31.80495256 -32.98147352 29.60184688 -32.9765625 27.38476562 C-32.75982539 16.75463807 -32.75982539 16.75463807 -29.60400391 13.62036133 C-27.10671449 12.0664039 -24.74333723 11.03637184 -22 10 C-20.51581268 9.08221632 -19.05676851 8.122586 -17.625 7.125 C-6.20060737 -0.6049373 -6.20060737 -0.6049373 0 0 Z " fill="#789174" transform="translate(259,212)"/>
<path d="M0 0 C1.9375 0.8125 1.9375 0.8125 4 2 C4.33 2.99 4.66 3.98 5 5 C6.98 5 8.96 5 11 5 C11.36122881 6.31057393 11.71380311 7.62353624 12.0625 8.9375 C12.35833984 10.03384766 12.35833984 10.03384766 12.66015625 11.15234375 C12.77230469 11.76207031 12.88445312 12.37179688 13 13 C11.46502998 14.53497002 9.88082192 14.22683026 7.75 14.375 C2.36082555 14.95323183 2.36082555 14.95323183 -2 18 C-2.41994081 20.79592173 -2.23388439 23.14661044 -2 26 C1.58721171 27.56079778 4.958386 28.47490848 8.8125 29.125 C9.78832031 29.29257813 10.76414062 29.46015625 11.76953125 29.6328125 C12.50558594 29.75398438 13.24164063 29.87515625 14 30 C14.38218767 31.65614657 14.71395102 33.32457024 15 35 C13.26780072 36.73219928 10.97973192 36.21291761 8.625 36.25 C7.64789063 36.27578125 6.67078125 36.3015625 5.6640625 36.328125 C3 36 3 36 1.1484375 34.609375 C0 33 0 33 0 31 C-1.32 31 -2.64 31 -4 31 C-4 32.98 -4 34.96 -4 37 C-3.34 37 -2.68 37 -2 37 C-2 37.66 -2 38.32 -2 39 C4.27 39 10.54 39 17 39 C17 38.34 17 37.68 17 37 C17.66 37 18.32 37 19 37 C19.33 35.02 19.66 33.04 20 31 C20.99 31 21.98 31 23 31 C23.10477512 25.21408489 22.99250545 19.70690634 22 14 C24.98592026 16.45049289 25.53313748 18.33153761 25.99609375 22.12109375 C26.58741977 28.52084938 27.11398663 34.84004587 25 41 C19.97501563 46.94894532 12.25542808 50.46532264 5 53 C4.34 53 3.68 53 3 53 C3 53.66 3 54.32 3 55 C-1.48525648 54.343621 -5.66914029 53.29925791 -10 52 C-10.33 52.99 -10.66 53.98 -11 55 C-14.63 55 -18.26 55 -22 55 C-22.66 53.68 -23.32 52.36 -24 51 C-24.99 50.34 -25.98 49.68 -27 49 C-27.1875 45.875 -27.1875 45.875 -27 43 C-26.35933594 43.433125 -25.71867188 43.86625 -25.05859375 44.3125 C-18.11289166 48.90608003 -18.11289166 48.90608003 -10 49 C-6.57580512 45.68915569 -6.58612987 42.66532964 -6.48828125 38.046875 C-6.47033005 37.38665344 -6.45237885 36.72643188 -6.43388367 36.04620361 C-6.37991191 33.94753311 -6.34592957 31.84908823 -6.3125 29.75 C-6.27931505 28.32288536 -6.24482429 26.89580044 -6.20898438 25.46875 C-6.1241953 21.97938348 -6.05732112 18.48993809 -6 15 C-7.65 15 -9.3 15 -11 15 C-11 25.23 -11 35.46 -11 46 C-17 46 -17 46 -19.8359375 44.2578125 C-23.12806072 39.30180028 -22.72828762 34.69353576 -22.625 28.875 C-22.64433594 27.77800781 -22.66367188 26.68101562 -22.68359375 25.55078125 C-22.67714844 24.50019531 -22.67070312 23.44960937 -22.6640625 22.3671875 C-22.65842285 21.40925293 -22.6527832 20.45131836 -22.64697266 19.46435547 C-22 17 -22 17 -19.58349609 15.16455078 C-17 14 -17 14 -15 14 C-15 13.34 -15 12.68 -15 12 C-12.18970481 9.97397324 -9.3066872 8.17830651 -6.3125 6.4375 C-3.42825712 4.64459226 -1.52202848 3.04405697 0 0 Z " fill="#BECDBD" transform="translate(255,217)"/>
<path d="M0 0 C0.86625 0.2475 1.7325 0.495 2.625 0.75 C2.625 1.41 2.625 2.07 2.625 2.75 C3.553125 2.935625 4.48125 3.12125 5.4375 3.3125 C10.25238471 4.65435312 14.14143764 7.45262966 18.26953125 10.19140625 C20.51475636 11.74513169 20.51475636 11.74513169 22.625 12.75 C22.625 14.4 22.625 16.05 22.625 17.75 C21.965 17.09 21.305 16.43 20.625 15.75 C20.70878906 16.36746094 20.79257812 16.98492187 20.87890625 17.62109375 C21.59476927 23.57453683 21.48630989 28.81653189 20.625 34.75 C20.295 33.76 19.965 32.77 19.625 31.75 C18.965 31.75 18.305 31.75 17.625 31.75 C17.295 33.73 16.965 35.71 16.625 37.75 C15.965 37.75 15.305 37.75 14.625 37.75 C14.625 38.41 14.625 39.07 14.625 39.75 C11.66700997 41.22899501 8.9766424 40.88178874 5.6875 40.875 C4.44097656 40.87757813 3.19445312 40.88015625 1.91015625 40.8828125 C-1.375 40.75 -1.375 40.75 -4.375 39.75 C-4.375 39.09 -4.375 38.43 -4.375 37.75 C-5.035 37.75 -5.695 37.75 -6.375 37.75 C-6.375 35.77 -6.375 33.79 -6.375 31.75 C-5.055 31.75 -3.735 31.75 -2.375 31.75 C-2.045 33.07 -1.715 34.39 -1.375 35.75 C2.915 35.75 7.205 35.75 11.625 35.75 C11.625 34.43 11.625 33.11 11.625 31.75 C10.73296875 31.55664062 9.8409375 31.36328125 8.921875 31.1640625 C7.75140625 30.90367187 6.5809375 30.64328125 5.375 30.375 C4.21484375 30.11976563 3.0546875 29.86453125 1.859375 29.6015625 C-0.83552401 28.89203595 -2.97025832 28.11903611 -5.375 26.75 C-5.66738239 23.82617611 -5.88142332 21.59795048 -5.375 18.75 C-1.01962901 14.39462901 3.7491129 14.01115054 9.625 13.75 C9.13 12.76 9.13 12.76 8.625 11.75 C8.585008 9.75039988 8.58153201 7.74952758 8.625 5.75 C7.635 6.08 6.645 6.41 5.625 6.75 C4.635 6.42 3.645 6.09 2.625 5.75 C2.625 5.09 2.625 4.43 2.625 3.75 C0.88924351 2.87563582 0.88924351 2.87563582 -1.375 2.75 C-3.89838502 4.50149517 -3.89838502 4.50149517 -6.375 6.75 C-8.03448148 7.76187895 -9.70080562 8.7626546 -11.375 9.75 C-12.096875 10.306875 -12.81875 10.86375 -13.5625 11.4375 C-15.375 12.75 -15.375 12.75 -17.375 12.75 C-17.375 13.41 -17.375 14.07 -17.375 14.75 C-19.355 15.74 -21.335 16.73 -23.375 17.75 C-23.375 26 -23.375 34.25 -23.375 42.75 C-24.035 42.75 -24.695 42.75 -25.375 42.75 C-25.59863929 38.73060937 -25.76128486 34.71365228 -25.86938477 30.68945312 C-25.91446167 29.32325144 -25.9757517 27.9574797 -26.05395508 26.59277344 C-26.68710071 15.25408688 -26.68710071 15.25408688 -23.46118164 11.55615234 C-21.15182016 10.00777417 -18.92360207 8.85049597 -16.375 7.75 C-15.13779033 7.05581051 -13.90777104 6.34855054 -12.6875 5.625 C-11.0478125 4.696875 -11.0478125 4.696875 -9.375 3.75 C-7.8590625 2.6053125 -7.8590625 2.6053125 -6.3125 1.4375 C-3.375 -0.25 -3.375 -0.25 0 0 Z " fill="#D5DDD0" transform="translate(257.375,216.25)"/>
<path d="M0 0 C1.9375 0.8125 1.9375 0.8125 4 2 C4.33 2.99 4.66 3.98 5 5 C6.98 5 8.96 5 11 5 C11.36122881 6.31057393 11.71380311 7.62353624 12.0625 8.9375 C12.35833984 10.03384766 12.35833984 10.03384766 12.66015625 11.15234375 C12.77230469 11.76207031 12.88445312 12.37179688 13 13 C11.47364408 14.52635592 9.93440638 14.18810013 7.8125 14.3125 C3.26955221 14.79795056 0.39813325 15.77177342 -3 19 C-3.97350778 22.6365731 -3.97350778 22.6365731 -4 26 C-6 24 -6 24 -6.1953125 21.8359375 C-6.17210937 21.02382812 -6.14890625 20.21171875 -6.125 19.375 C-6.10695312 18.55773437 -6.08890625 17.74046875 -6.0703125 16.8984375 C-6.04710937 16.27195313 -6.02390625 15.64546875 -6 15 C-7.65 15 -9.3 15 -11 15 C-11 25.23 -11 35.46 -11 46 C-17 46 -17 46 -19.8359375 44.2578125 C-23.12806072 39.30180028 -22.72828762 34.69353576 -22.625 28.875 C-22.64433594 27.77800781 -22.66367188 26.68101562 -22.68359375 25.55078125 C-22.67714844 24.50019531 -22.67070312 23.44960937 -22.6640625 22.3671875 C-22.65842285 21.40925293 -22.6527832 20.45131836 -22.64697266 19.46435547 C-22 17 -22 17 -19.58349609 15.16455078 C-17 14 -17 14 -15 14 C-15 13.34 -15 12.68 -15 12 C-12.18970481 9.97397324 -9.3066872 8.17830651 -6.3125 6.4375 C-3.42825712 4.64459226 -1.52202848 3.04405697 0 0 Z " fill="#D7DDD7" transform="translate(255,217)"/>
<path d="M0 0 C0.33 0 0.66 0 1 0 C1.11574483 10.50915773 1.20463951 21.01816437 1.25906086 31.52782917 C1.28517785 36.40769746 1.32061401 41.28713037 1.37719727 46.16674805 C1.43144245 50.87408424 1.46140469 55.58100115 1.47438622 60.28862572 C1.48363963 62.08646435 1.5017093 63.8842795 1.52865028 65.68194008 C1.56484239 68.19642717 1.56994969 70.70917218 1.56762695 73.22387695 C1.58560333 73.97050095 1.60357971 74.71712494 1.62210083 75.4863739 C1.60127258 77.56416321 1.60127258 77.56416321 1 81 C-1.37299208 82.93205085 -3.01151144 83.8146584 -6 84.375 C-8.29767163 84.91905441 -8.29767163 84.91905441 -10.375 87.4375 C-13.73697964 90.71943251 -16.7767463 91.57938443 -21.3125 92.4375 C-21.869375 92.623125 -22.42625 92.80875 -23 93 C-23.33 93.99 -23.66 94.98 -24 96 C-30.47556391 95.38909774 -30.47556391 95.38909774 -32.9375 93.5625 C-34 92 -34 92 -34 90 C-34.680625 89.9175 -35.36125 89.835 -36.0625 89.75 C-41.25529972 88.42417879 -45.22218138 85.77781862 -49 82 C-51.59915538 80.80972016 -51.59915538 80.80972016 -54 80 C-54 78.68 -54 77.36 -54 76 C-49.71 77.98 -45.42 79.96 -41 82 C-41 82.66 -41 83.32 -41 84 C-40.46375 84.0825 -39.9275 84.165 -39.375 84.25 C-37 85 -37 85 -34.125 87.0625 C-30.48680181 89.31818288 -29.20116013 89.49307029 -25 89 C-22.41012876 87.69224324 -20.10148259 86.38445358 -17.6875 84.8125 C-12.20526675 81.34791306 -6.68706376 78.15947986 -1 75 C-0.67 50.25 -0.34 25.5 0 0 Z " fill="#999999" transform="translate(319,126)"/>
<path d="M0 0 C0.33 0 0.66 0 1 0 C1.04955872 4.89297012 1.0857946 9.78579305 1.10986328 14.67895508 C1.11990057 16.34239244 1.13353331 18.00581225 1.15087891 19.66918945 C1.17522749 22.06466005 1.18650588 24.45989668 1.1953125 26.85546875 C1.20563507 27.5952446 1.21595764 28.33502045 1.22659302 29.09721375 C1.22747344 33.17900574 0.86859502 36.34664046 -1 40 C-2 41 -2 41 -4.9375 41.125 C-11.25192587 41.9208264 -16.83527925 46.70961194 -21.0859375 51.20703125 C-23 53 -23 53 -26.4375 53.375 C-29.7141042 53.0300943 -32.05599085 52.42739838 -35 51 C-35 50.34 -35 49.68 -35 49 C-35.86625 48.814375 -35.86625 48.814375 -36.75 48.625 C-39.74666682 47.79259255 -42.1701649 46.87593705 -44.3359375 44.58984375 C-46.26190213 42.74977895 -48.20784324 41.67495553 -50.5625 40.4375 C-53.13182512 39.08322518 -54.9356679 38.0643321 -57 36 C-57.10451251 33.34191115 -57.08955874 30.79909537 -56.9765625 28.1484375 C-56.95153656 27.37440582 -56.92651062 26.60037415 -56.90072632 25.80288696 C-56.81844085 23.32648467 -56.72188604 20.85086993 -56.625 18.375 C-56.56676906 16.69794902 -56.5094656 15.02086555 -56.453125 13.34375 C-56.31284966 9.22871231 -56.15977348 5.11432492 -56 1 C-55.67 1 -55.34 1 -55 1 C-55 11.56 -55 22.12 -55 33 C-53.68 33.33 -52.36 33.66 -51 34 C-51 34.66 -51 35.32 -51 36 C-50.43152344 36.11472656 -49.86304688 36.22945312 -49.27734375 36.34765625 C-46.7631919 37.06783354 -44.81837138 38.119946 -42.5625 39.4375 C-39.43876502 41.22101865 -36.40088808 42.79323326 -33 44 C-33 44.66 -33 45.32 -33 46 C-32.01 46 -31.02 46 -30 46 C-30 46.66 -30 47.32 -30 48 C-23.57262489 46.72034161 -18.79178516 44.44515951 -13.25 41 C-11.77664478 40.10317508 -10.30270576 39.20730843 -8.828125 38.3125 C-8.1877832 37.91675781 -7.54744141 37.52101562 -6.88769531 37.11328125 C-4.97543366 35.98551183 -2.98567036 34.99283518 -1 34 C-0.67 22.78 -0.34 11.56 0 0 Z " fill="#C2CAC3" transform="translate(251,168)"/>
<path d="M0 0 C1.01964844 0.00386719 2.03929687 0.00773438 3.08984375 0.01171875 C6.15418285 0.32177671 8.35476309 0.84662085 11.0625 2.3125 C11.875 5.4375 11.875 5.4375 12.0625 8.3125 C10.7425 8.3125 9.4225 8.3125 8.0625 8.3125 C7.505625 7.631875 6.94875 6.95125 6.375 6.25 C4.27722538 4.08078956 4.27722538 4.08078956 1.80859375 4.26953125 C-0.46332399 4.53618826 -2.69330059 4.87133259 -4.9375 5.3125 C-5.2675 6.6325 -5.5975 7.9525 -5.9375 9.3125 C-4.25720703 9.47685547 -4.25720703 9.47685547 -2.54296875 9.64453125 C-1.07023778 9.80399893 0.40241465 9.96419317 1.875 10.125 C2.61298828 10.19525391 3.35097656 10.26550781 4.11132812 10.33789062 C9.5425197 10.95227881 9.5425197 10.95227881 12.05859375 12.6953125 C13.62720116 15.22217424 13.30889963 17.41730434 13.0625 20.3125 C12.7325 20.9725 12.4025 21.6325 12.0625 22.3125 C11.4025 22.3125 10.7425 22.3125 10.0625 22.3125 C10.0625 22.9725 10.0625 23.6325 10.0625 24.3125 C7.10450997 25.79149501 4.4141424 25.44428874 1.125 25.4375 C-0.12152344 25.44007813 -1.36804688 25.44265625 -2.65234375 25.4453125 C-5.9375 25.3125 -5.9375 25.3125 -8.9375 24.3125 C-8.9375 23.6525 -8.9375 22.9925 -8.9375 22.3125 C-9.5975 22.3125 -10.2575 22.3125 -10.9375 22.3125 C-10.9375 20.3325 -10.9375 18.3525 -10.9375 16.3125 C-9.6175 16.3125 -8.2975 16.3125 -6.9375 16.3125 C-6.6075 17.6325 -6.2775 18.9525 -5.9375 20.3125 C-1.6475 20.3125 2.6425 20.3125 7.0625 20.3125 C7.0625 18.9925 7.0625 17.6725 7.0625 16.3125 C5.72445313 16.02246094 5.72445313 16.02246094 4.359375 15.7265625 C3.18890625 15.46617187 2.0184375 15.20578125 0.8125 14.9375 C-0.92773438 14.55464844 -0.92773438 14.55464844 -2.703125 14.1640625 C-5.39802401 13.45453595 -7.53275832 12.68153611 -9.9375 11.3125 C-10.328125 5.35546875 -10.328125 5.35546875 -9.9375 3.3125 C-6.89917713 0.09375416 -4.30089925 -0.07050655 0 0 Z " fill="#758B74" transform="translate(261.9375,231.6875)"/>
<path d="M0 0 C1.093125 0.433125 2.18625 0.86625 3.3125 1.3125 C6 4 6 4 6.37890625 6.93359375 C6.37532108 9.97740635 6.25745597 12.96774075 6 16 C2.62627031 18.30737371 -0.28013701 20.2562078 -4.46484375 19.6328125 C-7.4334617 18.62242389 -10.19842413 17.40078793 -13 16 C-13.47058365 11.9020007 -13.69409951 8.07982152 -13 4 C-9.66160658 -0.04506064 -4.98228788 -2.22891826 0 0 Z " fill="#DADADA" transform="translate(295,175)"/>
<path d="M0 0 C0.66 0 1.32 0 2 0 C2.95921722 1.74951568 3.91733817 3.49963244 4.875 5.25 C5.67550781 6.71179688 5.67550781 6.71179688 6.4921875 8.203125 C6.98976562 9.12609375 7.48734375 10.0490625 8 11 C8.39445313 11.69609375 8.78890625 12.3921875 9.1953125 13.109375 C10 15 10 15 10 19 C10.99 19.33 11.98 19.66 13 20 C13 20.99 13 21.98 13 23 C13.66 23 14.32 23 15 23 C16.00484204 24.95585325 17.00373805 26.91476237 18 28.875 C18.556875 29.96554688 19.11375 31.05609375 19.6875 32.1796875 C21 35 21 35 21 37 C15.25 36.25 15.25 36.25 13 34 C10.42938689 33.35232207 10.42938689 33.35232207 8 33 C8 32.34 8 31.68 8 31 C7.21625 30.690625 6.4325 30.38125 5.625 30.0625 C3 29 3 29 1 28 C0.67 18.76 0.34 9.52 0 0 Z " fill="#3F8839" transform="translate(198,171)"/>
<path d="M0 0 C0.66 0 1.32 0 2 0 C2.07597206 6.49609906 2.12856672 12.99208385 2.16479492 19.48852539 C2.17989525 21.69918092 2.20037709 23.90980643 2.22631836 26.12036133 C2.26264655 29.29515993 2.27971384 32.46956297 2.29296875 35.64453125 C2.30845261 36.63524124 2.32393646 37.62595123 2.33988953 38.64668274 C2.34011612 39.56741074 2.34034271 40.48813873 2.34057617 41.43676758 C2.34723801 42.2472908 2.35389984 43.05781403 2.36076355 43.89289856 C1.91746999 46.48203067 0.99634357 47.35995727 -1 49 C-1.66 48.34 -2.32 47.68 -3 47 C-3.66 47.66 -4.32 48.32 -5 49 C-5 47.35 -5 45.7 -5 44 C-6.32 43.67 -7.64 43.34 -9 43 C-9 42.34 -9 41.68 -9 41 C-10.093125 40.9175 -11.18625 40.835 -12.3125 40.75 C-16 40 -16 40 -17.72583008 38.27832031 C-19.27664112 35.50534299 -19.27580454 33.9489437 -19.07421875 30.796875 C-19.01943359 29.8171875 -18.96464844 28.8375 -18.90820312 27.828125 C-18.83537109 26.81234375 -18.76253906 25.7965625 -18.6875 24.75 C-18.5956543 23.203125 -18.5956543 23.203125 -18.50195312 21.625 C-18.34892825 19.08243278 -18.17634421 16.54105635 -18 14 C-21.96 14 -25.92 14 -30 14 C-30 14.66 -30 15.32 -30 16 C-30.96679688 16.58201172 -30.96679688 16.58201172 -31.953125 17.17578125 C-34.34267722 18.92855917 -34.34267722 18.92855917 -34.609375 22.35546875 C-34.65578125 23.62003906 -34.7021875 24.88460937 -34.75 26.1875 C-34.80671875 27.45980469 -34.8634375 28.73210937 -34.921875 30.04296875 C-34.94765625 31.01878906 -34.9734375 31.99460938 -35 33 C-35.33 33 -35.66 33 -36 33 C-36.14539953 29.58378212 -36.23409725 26.16836009 -36.3125 22.75 C-36.35439453 21.78191406 -36.39628906 20.81382812 -36.43945312 19.81640625 C-36.56325856 12.63569113 -36.56325856 12.63569113 -33.69140625 9.39453125 C-30.21822035 7.59492694 -27.93694446 6.93212165 -24 7 C-21.10140949 8.13552641 -18.98053753 9.5894201 -17 12 C-16.26382939 15.47902396 -16.54850903 18.84141713 -16.75 22.375 C-16.94793412 29.64103931 -16.94793412 29.64103931 -13.72265625 35.86328125 C-9.00894869 38.81804827 -4.28897046 40.23700985 1 42 C0.505 21.21 0.505 21.21 0 0 Z " fill="#A4A4A4" transform="translate(182,167)"/>
<path d="M0 0 C0.33 0 0.66 0 1 0 C0.98316162 0.90766113 0.96632324 1.81532227 0.94897461 2.75048828 C0.9075927 6.14033851 0.9067689 9.52529204 0.93286133 12.91503906 C0.93593134 14.3776589 0.92314376 15.84040572 0.89379883 17.30273438 C0.4731939 25.77925131 0.4731939 25.77925131 3.80883789 33.19482422 C6.1423213 34.783059 8.39924313 35.91126274 11 37 C12.31710301 37.6995493 13.6311994 38.40480588 14.94140625 39.1171875 C16.14532662 39.70949057 17.35232207 40.29558946 18.5625 40.875 C19.18962891 41.18179688 19.81675781 41.48859375 20.46289062 41.8046875 C21.97247221 42.54219301 23.48581797 43.27198645 25 44 C25 44.66 25 45.32 25 46 C27.64 46 30.28 46 33 46 C33 45.34 33 44.68 33 44 C33.77085937 43.59007812 34.54171875 43.18015625 35.3359375 42.7578125 C36.33882813 42.21898437 37.34171875 41.68015625 38.375 41.125 C39.37273437 40.59132812 40.37046875 40.05765625 41.3984375 39.5078125 C44.05348395 38.1179862 44.05348395 38.1179862 46 36 C45.67 38.64 45.34 41.28 45 44 C43.02 44.495 43.02 44.495 41 45 C41 45.66 41 46.32 41 47 C33.63485769 49.9706074 28.58995368 51.91921295 21 49 C21 48.34 21 47.68 21 47 C19.88625 47.1546875 19.88625 47.1546875 18.75 47.3125 C17.38875 47.1578125 17.38875 47.1578125 16 47 C15.38125 46.21625 14.7625 45.4325 14.125 44.625 C11.39005 41.24653236 9.14263381 41.03565845 5 40 C2.5625 38.375 2.5625 38.375 1 37 C1.33 36.34 1.66 35.68 2 35 C0.68 34.34 -0.64 33.68 -2 33 C-2.14841673 25.56473399 -1.69670763 18.27516483 -1 10.875 C-0.90460938 9.823125 -0.80921875 8.77125 -0.7109375 7.6875 C-0.47794718 5.12460652 -0.24090324 2.56215969 0 0 Z " fill="#BBBBBB" transform="translate(331,169)"/>
<path d="M0 0 C1.04771404 -0.00128164 1.04771404 -0.00128164 2.11659402 -0.00258917 C4.4504109 -0.00423256 6.78415546 0.00125868 9.1179657 0.00672913 C10.79355874 0.00701127 12.4691519 0.00685273 14.14474487 0.00628662 C18.68976922 0.00599971 23.23476718 0.01187934 27.77978539 0.01886058 C32.53103518 0.02511173 37.28228556 0.02569931 42.03353882 0.02688599 C51.02903383 0.0299941 60.0245167 0.0382005 69.02000636 0.04823548 C79.26176376 0.05941274 89.50352174 0.06491113 99.74528372 0.06993091 C120.81181926 0.08038353 141.87834386 0.09797292 162.94487 0.12025452 C163.27487 0.78025452 163.60487 1.44025452 163.94487 2.12025452 C159.85347932 3.10468137 156.05397849 3.23029265 151.85177612 3.20254517 C150.79793676 3.19770147 150.79793676 3.19770147 149.72280771 3.19275993 C147.37514131 3.18072245 145.027594 3.16134198 142.67997742 3.14198303 C140.99453487 3.13183625 139.30908954 3.12214301 137.62364197 3.11286926 C133.05173144 3.08642826 128.47988582 3.0536406 123.9080255 3.01971936 C119.1287701 2.98533673 114.34947998 2.95678275 109.57019043 2.9276123 C100.52154703 2.87149722 91.47294711 2.81013501 82.42435104 2.74689096 C72.12215913 2.6751403 61.81993243 2.60923407 51.51769865 2.5438205 C30.32671057 2.40913823 9.13577697 2.26711084 -12.05513 2.12025452 C-12.05513 1.79025452 -12.05513 1.46025452 -12.05513 1.12025452 C-7.98193944 0.14602985 -4.18269541 -0.00308686 0 0 Z " fill="#CACACA" transform="translate(188.0551300048828,327.87974548339844)"/>
<path d="M0 0 C0.33 0 0.66 0 1 0 C1.32371265 4.41015385 1.55815776 8.81389743 1.71411133 13.23242188 C1.77913545 14.73104241 1.86761159 16.22884878 1.98071289 17.72460938 C2.35095403 22.75050721 2.40468655 27.12585188 1 32 C-2.920584 35.83758111 -6.98599101 37.76126467 -12 40 C-13.8698497 41.09873615 -15.72765622 42.21875291 -17.5625 43.375 C-25.28890152 48.03950547 -25.28890152 48.03950547 -28.25 47.875 C-32.05324414 46.66487687 -35.48540493 44.87503211 -39 43 C-39 42.34 -39 41.68 -39 41 C-33.76824163 40.61718841 -30.62197306 41.78145293 -26 44 C-26 43.34 -26 42.68 -26 42 C-24.89140625 41.38511719 -23.7828125 40.77023437 -22.640625 40.13671875 C-21.17699811 39.32046529 -19.71346116 38.50405056 -18.25 37.6875 C-17.52039063 37.28337891 -16.79078125 36.87925781 -16.0390625 36.46289062 C-13.10483112 34.82238854 -10.30220586 33.2266544 -7.609375 31.20703125 C-6 30 -6 30 -4 30 C-4 21.42 -4 12.84 -4 4 C-3.67 4 -3.34 4 -3 4 C-3 12.25 -3 20.5 -3 29 C-2.01 29 -1.02 29 0 29 C0 19.43 0 9.86 0 0 Z " fill="#6A8167" transform="translate(284,228)"/>
<path d="M0 0 C2.98592026 2.45049289 3.53313748 4.33153761 3.99609375 8.12109375 C4.58845458 14.52052453 5.09938234 20.83706033 3 27 C-2.71967045 33.8373072 -12.40789678 38.06887181 -21 40 C-21 39.34 -21 38.68 -21 38 C-22.32 38 -23.64 38 -25 38 C-25 35.36 -25 32.72 -25 30 C-24.01 29.67 -23.02 29.34 -22 29 C-22 29.66 -22 30.32 -22 31 C-15.31006781 30.46048934 -9.36539272 29.11293829 -3 27 C-3.33 26.34 -3.66 25.68 -4 25 C-3.66015625 23.0546875 -3.66015625 23.0546875 -3.0625 20.875 C-2.86785156 20.15054688 -2.67320312 19.42609375 -2.47265625 18.6796875 C-2.31667969 18.12539062 -2.16070312 17.57109375 -2 17 C-1.01 17 -0.02 17 1 17 C1.10477512 11.21408489 0.99250545 5.70690634 0 0 Z " fill="#CAD8C7" transform="translate(277,231)"/>
<path d="M0 0 C0.99 0.33 1.98 0.66 3 1 C2.01 1.33 1.02 1.66 0 2 C0 2.66 0 3.32 0 4 C-1.65 4.33 -3.3 4.66 -5 5 C-5 5.66 -5 6.32 -5 7 C-4.34 7.33 -3.68 7.66 -3 8 C-3.70157227 8.26925293 -4.40314453 8.53850586 -5.12597656 8.81591797 C-8.22355207 10.27389019 -10.50797173 11.63787312 -13 14 C-14.59748084 18.67151173 -14.67011441 23.21702924 -14.75 28.125 C-14.85054687 30.03732422 -14.85054687 30.03732422 -14.953125 31.98828125 C-15.48232559 39.30942522 -15.48232559 39.30942522 -13 46 C-15.16874252 45.49396008 -16.99967627 45.00016187 -19 44 C-19.12379245 39.51604697 -19.21442571 35.03300398 -19.2746582 30.54785156 C-19.29977103 29.0229357 -19.33386883 27.49813985 -19.37719727 25.97363281 C-19.43800044 23.77899574 -19.46623887 21.5859519 -19.48828125 19.390625 C-19.51446533 18.07094727 -19.54064941 16.75126953 -19.56762695 15.39160156 C-19 12 -19 12 -16.62719727 9.60375977 C-14.12236929 8.07469974 -11.73244107 7.04729208 -9 6 C-6.63850151 4.45051179 -4.36837365 2.80767158 -2.0859375 1.14453125 C-1.39757812 0.76683594 -0.70921875 0.38914063 0 0 Z " fill="#799574" transform="translate(246,216)"/>
<path d="M0 0 C0.99 0 1.98 0 3 0 C3.33 0.99 3.66 1.98 4 3 C3.34 3 2.68 3 2 3 C2.15210938 3.62777344 2.30421875 4.25554687 2.4609375 4.90234375 C3.19344377 9.1116008 3.4042306 13.29970253 3.625 17.5625 C3.6765625 18.41263672 3.728125 19.26277344 3.78125 20.13867188 C3.82507813 20.96044922 3.86890625 21.78222656 3.9140625 22.62890625 C3.9752124 23.7437439 3.9752124 23.7437439 4.03759766 24.88110352 C3.99876152 27.06979701 3.61309628 28.90510629 3 31 C4.423125 31.12375 4.423125 31.12375 5.875 31.25 C9 32 9 32 10.375 34.0625 C10.58125 34.701875 10.7875 35.34125 11 36 C12.65 36 14.3 36 16 36 C16.33 36.99 16.66 37.98 17 39 C18.6396875 39.0928125 18.6396875 39.0928125 20.3125 39.1875 C24 40 24 40 25.9375 42.4375 C27 45 27 45 27 47 C25.35 46.67 23.7 46.34 22 46 C22 45.34 22 44.68 22 44 C21.28070313 43.896875 20.56140625 43.79375 19.8203125 43.6875 C16.69307965 42.92518285 14.58352881 41.72285625 11.875 40 C9.19127583 38.30329901 7.02229222 37.00743074 4 36 C4 35.34 4 34.68 4 34 C2.68 33.67 1.36 33.34 0 33 C0 22.11 0 11.22 0 0 Z " fill="#518E49" transform="translate(196,168)"/>
<path d="M0 0 C0.86625 0.2475 1.7325 0.495 2.625 0.75 C2.625 1.41 2.625 2.07 2.625 2.75 C3.553125 2.935625 4.48125 3.12125 5.4375 3.3125 C10.25238471 4.65435312 14.14143764 7.45262966 18.26953125 10.19140625 C20.51475636 11.74513169 20.51475636 11.74513169 22.625 12.75 C22.625 14.4 22.625 16.05 22.625 17.75 C22.0475 17.275625 21.47 16.80125 20.875 16.3125 C18.77517215 14.6358133 18.77517215 14.6358133 16.5 14.3125 C14.625 13.75 14.625 13.75 13.375 11.6875 C13.1275 11.048125 12.88 10.40875 12.625 9.75 C11.635 9.75 10.645 9.75 9.625 9.75 C9.13 7.77 9.13 7.77 8.625 5.75 C7.635 6.08 6.645 6.41 5.625 6.75 C4.635 6.42 3.645 6.09 2.625 5.75 C2.625 5.09 2.625 4.43 2.625 3.75 C0.88924351 2.87563582 0.88924351 2.87563582 -1.375 2.75 C-3.89838502 4.50149517 -3.89838502 4.50149517 -6.375 6.75 C-8.03448148 7.76187895 -9.70080562 8.7626546 -11.375 9.75 C-12.096875 10.306875 -12.81875 10.86375 -13.5625 11.4375 C-15.375 12.75 -15.375 12.75 -17.375 12.75 C-17.375 13.41 -17.375 14.07 -17.375 14.75 C-19.355 15.74 -21.335 16.73 -23.375 17.75 C-23.375 26 -23.375 34.25 -23.375 42.75 C-24.035 42.75 -24.695 42.75 -25.375 42.75 C-25.59863929 38.73060937 -25.76128486 34.71365228 -25.86938477 30.68945312 C-25.91446167 29.32325144 -25.9757517 27.9574797 -26.05395508 26.59277344 C-26.68710071 15.25408688 -26.68710071 15.25408688 -23.46118164 11.55615234 C-21.15182016 10.00777417 -18.92360207 8.85049597 -16.375 7.75 C-15.13779033 7.05581051 -13.90777104 6.34855054 -12.6875 5.625 C-11.0478125 4.696875 -11.0478125 4.696875 -9.375 3.75 C-7.8590625 2.6053125 -7.8590625 2.6053125 -6.3125 1.4375 C-3.375 -0.25 -3.375 -0.25 0 0 Z " fill="#ACBBA9" transform="translate(257.375,216.25)"/>
<path d="M0 0 C3.375 1.5625 3.375 1.5625 6 4 C6.52262145 6.84719809 6.29254379 9.07456205 6 12 C5.67 12 5.34 12 5 12 C5 9.69 5 7.38 5 5 C4.01 5 3.02 5 2 5 C2 7.64 2 10.28 2 13 C-1.43509272 15.08559201 -1.43509272 15.08559201 -4.0625 14.6875 C-4.701875 14.460625 -5.34125 14.23375 -6 14 C-6.99 13.67 -7.98 13.34 -9 13 C-10.1875 9.9375 -10.1875 9.9375 -11 7 C-11.33 9.64 -11.66 12.28 -12 15 C-12.33 15 -12.66 15 -13 15 C-13 11.04 -13 7.08 -13 3 C-5.57762654 -1.89876648 -5.57762654 -1.89876648 0 0 Z " fill="#A3ABA2" transform="translate(363,175)"/>
<path d="M0 0 C0.99 0 1.98 0 3 0 C3.33 2.31 3.66 4.62 4 7 C4.5775 6.855625 5.155 6.71125 5.75 6.5625 C7.83333333 6.04166667 9.91666667 5.52083333 12 5 C12 6.65 12 8.3 12 10 C10.02 10.33 8.04 10.66 6 11 C6 11.66 6 12.32 6 13 C4.00045254 13.04254356 1.99958364 13.04080783 0 13 C-0.33 12.67 -0.66 12.34 -1 12 C-0.67 13.98 -0.34 15.96 0 18 C-5.2620907 16.91807481 -10.02099572 14.62134097 -14 11 C-14.85374067 7.84218812 -14.63722899 5.18614495 -14 2 C-13.34 1.67 -12.68 1.34 -12 1 C-11.67 3.31 -11.34 5.62 -11 8 C-5.44506076 9.02703748 -5.44506076 9.02703748 0 8 C0 5.36 0 2.72 0 0 Z " fill="#BAC1B9" transform="translate(365,180)"/>
<path d="M0 0 C0.33 0 0.66 0 1 0 C1 13.53 1 27.06 1 41 C6.28 38.36 11.56 35.72 17 33 C17.99 32.505 17.99 32.505 19 32 C18.40138258 34.35171131 17.73075648 36.6859378 17 39 C16.01 39.495 16.01 39.495 15 40 C14.21625 40.804375 13.4325 41.60875 12.625 42.4375 C8.87671277 46.0965423 7.26351023 47 2 47 C-0.51192491 42.18040705 -0.2564862 37.61568371 -0.1953125 32.32421875 C-0.1924826 31.3990596 -0.18965271 30.47390045 -0.18673706 29.52070618 C-0.17557392 26.57617058 -0.15047637 23.63194312 -0.125 20.6875 C-0.11496521 18.68685336 -0.10584023 16.68620194 -0.09765625 14.68554688 C-0.07564722 9.7902465 -0.04114391 4.89517543 0 0 Z " fill="#D3D3D3" transform="translate(127,168)"/>
<path d="M0 0 C0.99 0.33 1.98 0.66 3 1 C3 11.56 3 22.12 3 33 C-6 38 -6 38 -8 38 C-7.505 35.03 -7.505 35.03 -7 32 C-6.01 32.33 -5.02 32.66 -4 33 C-3.01 32.34 -2.02 31.68 -1 31 C-0.83068712 28.01771696 -0.81289892 25.22161826 -0.9375 22.25 C-1.14817418 16.69178766 -1.17673326 12.25126313 1 7 C-0.98 7.99 -0.98 7.99 -3 9 C-2.01 6.03 -1.02 3.06 0 0 Z " fill="#498042" transform="translate(248,169)"/>
<path d="M0 0 C1.9375 0.8125 1.9375 0.8125 4 2 C4.33 2.99 4.66 3.98 5 5 C6.98 5 8.96 5 11 5 C11.495 6.98 11.495 6.98 12 9 C6.38032305 8.21585903 6.38032305 8.21585903 3.6875 6.6875 C-0.7123832 5.56194848 -4.12097068 7.95484728 -8 10 C-7.67 11.65 -7.34 13.3 -7 15 C-9.64 15 -12.28 15 -15 15 C-15.33 15.99 -15.66 16.98 -16 18 C-17.66666667 18 -19.33333333 18 -21 18 C-21 25.59 -21 33.18 -21 41 C-21.33 41 -21.66 41 -22 41 C-22.14492719 37.06288563 -22.23394537 33.12645375 -22.3125 29.1875 C-22.35439453 28.06794922 -22.39628906 26.94839844 -22.43945312 25.79492188 C-22.45556641 24.72177734 -22.47167969 23.64863281 -22.48828125 22.54296875 C-22.51446533 21.55321045 -22.54064941 20.56345215 -22.56762695 19.54370117 C-22 17 -22 17 -19.59448242 15.15356445 C-17 14 -17 14 -15 14 C-15 13.34 -15 12.68 -15 12 C-12.18970481 9.97397324 -9.3066872 8.17830651 -6.3125 6.4375 C-3.42825712 4.64459226 -1.52202848 3.04405697 0 0 Z " fill="#CFD9CE" transform="translate(255,217)"/>
<path d="M0 0 C-0.24463374 3.30255551 -1.25315671 4.25918425 -3.625 6.6875 C-6.91000911 9.29339665 -9.87180567 9.4648637 -14 10 C-16.22931824 11.81260132 -16.22931824 11.81260132 -18 14 C-20.76504269 16.76504269 -21.91043654 16.99289179 -25.9375 17.3125 C-29.30674327 17.19284463 -31.9561819 16.52190905 -35 15 C-35 14.01 -35 13.02 -35 12 C-34.278125 12.350625 -33.55625 12.70125 -32.8125 13.0625 C-28.31568769 14.56143744 -25.88607058 13.39380915 -21.625 11.5 C-16.63717478 8.92935162 -11.87192507 5.95164674 -7.10400391 2.99804688 C-2.21278302 0 -2.21278302 0 0 0 Z " fill="#B1BFB0" transform="translate(284,261)"/>
<path d="M0 0 C0.33 0 0.66 0 1 0 C1.04955872 4.89297012 1.0857946 9.78579305 1.10986328 14.67895508 C1.11990057 16.34239244 1.13353331 18.00581225 1.15087891 19.66918945 C1.17522749 22.06466005 1.18650588 24.45989668 1.1953125 26.85546875 C1.20563507 27.5952446 1.21595764 28.33502045 1.22659302 29.09721375 C1.22747344 33.17900574 0.86859502 36.34664046 -1 40 C-2 41 -2 41 -5 41.1875 C-10.15155075 41.80868491 -13.93278624 44.98417483 -18 48 C-19.32 47.34 -20.64 46.68 -22 46 C-19.25128227 44.37282366 -16.50080454 42.74864561 -13.75 41.125 C-12.97269531 40.66480469 -12.19539062 40.20460937 -11.39453125 39.73046875 C-10.26337891 39.06337891 -10.26337891 39.06337891 -9.109375 38.3828125 C-8.41811523 37.97434082 -7.72685547 37.56586914 -7.01464844 37.14501953 C-5.04770692 36.02711409 -3.02357535 35.01178768 -1 34 C-0.67 22.78 -0.34 11.56 0 0 Z " fill="#A8BFA4" transform="translate(251,168)"/>
<path d="M0 0 C0.495 1.485 0.495 1.485 1 3 C1.66 3 2.32 3 3 3 C3 3.66 3 4.32 3 5 C-2.75 3.25 -2.75 3.25 -5 1 C-6.98821313 0.60235737 -8.98944339 0.26224651 -11 0 C-11 0.66 -11 1.32 -11 2 C-11.75023437 2.35191406 -12.50046875 2.70382813 -13.2734375 3.06640625 C-21.8990172 7.22710779 -29.37230178 12.26189066 -37 18 C-37.33 17.01 -37.66 16.02 -38 15 C-34.62371051 11.36399594 -30.82440159 7.66456508 -25.875 6.5 C-23.78743916 6.11102508 -23.78743916 6.11102508 -22.0625 4.0625 C-16.76087195 -1.23912805 -6.6996982 -3.51734155 0 0 Z " fill="#D1E6CC" transform="translate(231,153)"/>
<path d="M0 0 C0.33 0.66 0.66 1.32 1 2 C1.75925781 1.98839844 2.51851563 1.97679687 3.30078125 1.96484375 C4.29464844 1.95582031 5.28851563 1.94679688 6.3125 1.9375 C7.29863281 1.92589844 8.28476562 1.91429687 9.30078125 1.90234375 C12 2 12 2 15 3 C15 3.66 15 4.32 15 5 C13.21118264 6.00508801 11.41885304 7.00392736 9.625 8 C8.62726563 8.556875 7.62953125 9.11375 6.6015625 9.6875 C4 11 4 11 2 11 C2 10.34 2 9.68 2 9 C0.68 9 -0.64 9 -2 9 C-2 6.36 -2 3.72 -2 1 C-1.34 0.67 -0.68 0.34 0 0 Z " fill="#D9DBDC" transform="translate(254,260)"/>
<path d="M0 0 C0.12375 0.598125 0.2475 1.19625 0.375 1.8125 C0.95475985 4.26231348 0.95475985 4.26231348 3 7 C0.03 7 -2.94 7 -6 7 C-6 7.66 -6 8.32 -6 9 C-6.96679688 9.58201172 -6.96679688 9.58201172 -7.953125 10.17578125 C-10.34267722 11.92855917 -10.34267722 11.92855917 -10.609375 15.35546875 C-10.65578125 16.62003906 -10.7021875 17.88460937 -10.75 19.1875 C-10.80671875 20.45980469 -10.8634375 21.73210937 -10.921875 23.04296875 C-10.94765625 24.01878906 -10.9734375 24.99460938 -11 26 C-11.33 26 -11.66 26 -12 26 C-12.14539953 22.58378212 -12.23409725 19.16836009 -12.3125 15.75 C-12.35439453 14.78191406 -12.39628906 13.81382812 -12.43945312 12.81640625 C-12.5636291 5.61419942 -12.5636291 5.61419942 -9.60546875 2.390625 C-5.99239007 0.4622052 -4.10532672 -0.10803491 0 0 Z " fill="#D5D5D5" transform="translate(158,174)"/>
<path d="M0 0 C2.375 -0.125 2.375 -0.125 5 0 C7 2 7 2 7.22705078 4.88916016 C7.21657715 6.09362793 7.20610352 7.2980957 7.1953125 8.5390625 C7.18564453 10.49199219 7.18564453 10.49199219 7.17578125 12.484375 C7.15906929 13.86458595 7.14213939 15.24479429 7.125 16.625 C7.11497006 18.01301452 7.10584423 19.40103589 7.09765625 20.7890625 C7.07401863 24.19288026 7.04106867 27.59635506 7 31 C6.01 31 5.02 31 4 31 C3.67 21.76 3.34 12.52 3 3 C2.34 3 1.68 3 1 3 C0.67 2.01 0.34 1.02 0 0 Z " fill="#668261" transform="translate(277,226)"/>
<path d="M0 0 C2.375 1.375 2.375 1.375 4 3 C4 3.66 4 4.32 4 5 C5.32 5 6.64 5 8 5 C8 6.98 8 8.96 8 11 C7.34 10.67 6.68 10.34 6 10 C6 9.34 6 8.68 6 8 C4.51886719 7.90912109 4.51886719 7.90912109 3.0078125 7.81640625 C1.72648437 7.73261719 0.44515625 7.64882812 -0.875 7.5625 C-2.15117187 7.48128906 -3.42734375 7.40007812 -4.7421875 7.31640625 C-8 7 -8 7 -10 6 C-9.67 4.35 -9.34 2.7 -9 1 C-5.70952793 -0.09682402 -3.44927034 -0.28157309 0 0 Z " fill="#BFD0BA" transform="translate(266,235)"/>
<path d="M0 0 C1.875 0.3125 1.875 0.3125 4 1 C4.66 1.99 5.32 2.98 6 4 C8.58380177 4.25030977 8.58380177 4.25030977 11 4 C11.33 4.99 11.66 5.98 12 7 C13.6396875 7.0928125 13.6396875 7.0928125 15.3125 7.1875 C19 8 19 8 20.9375 10.4375 C22 13 22 13 22 15 C19.525 14.505 19.525 14.505 17 14 C17 13.34 17 12.68 17 12 C16.28070313 11.896875 15.56140625 11.79375 14.8203125 11.6875 C11.69307965 10.92518285 9.58352881 9.72285625 6.875 8 C4.19127583 6.30329901 2.02229222 5.00743074 -1 4 C-0.67 2.68 -0.34 1.36 0 0 Z " fill="#497D46" transform="translate(201,200)"/>
<path d="M0 0 C0.66 0 1.32 0 2 0 C8.13711584 9.74310481 8.13711584 9.74310481 7.625 14.4375 C5.98385225 17.02546376 4.31332059 18.99512216 2 21 C0.41596476 19.41596476 0.78025065 17.7228362 0.68359375 15.52734375 C0.64169922 14.62822266 0.59980469 13.72910156 0.55664062 12.80273438 C0.51732422 11.85720703 0.47800781 10.91167969 0.4375 9.9375 C0.39431641 8.98810547 0.35113281 8.03871094 0.30664062 7.06054688 C0.20020724 4.70718647 0.09818992 2.35371646 0 0 Z " fill="#449437" transform="translate(198,171)"/>
<path d="M0 0 C-1.62339805 1.70884005 -3.29319053 3.37446717 -5 5 C-5.66 5 -6.32 5 -7 5 C-7 5.66 -7 6.32 -7 7 C-8.98 7.99 -10.96 8.98 -13 10 C-13 18.25 -13 26.5 -13 35 C-13.66 35 -14.32 35 -15 35 C-15.22363929 30.98060937 -15.38628486 26.96365228 -15.49438477 22.93945312 C-15.53946167 21.57325144 -15.6007517 20.2074797 -15.67895508 18.84277344 C-16.31007613 7.54034407 -16.31007613 7.54034407 -13.08178711 3.74462891 C-8.83253697 0.81473909 -5.2721275 -0.81109654 0 0 Z " fill="#B7C4B3" transform="translate(247,224)"/>
<path d="M0 0 C2.4375 0.6875 2.4375 0.6875 4.4375 1.6875 C4.4375 3.9975 4.4375 6.3075 4.4375 8.6875 C2.17288929 10.06244222 0.98095306 10.76741957 -1.6875 10.375 C-3.5625 9.6875 -3.5625 9.6875 -5.5625 8.6875 C-5.75 5.3125 -5.75 5.3125 -5.5625 1.6875 C-2.5625 -0.3125 -2.5625 -0.3125 0 0 Z " fill="#62805E" transform="translate(360.5625,179.3125)"/>
<path d="M0 0 C1.093125 0.433125 2.18625 0.86625 3.3125 1.3125 C6 4 6 4 6.37890625 6.93359375 C6.37532108 9.97740635 6.25745597 12.96774075 6 16 C5.67 16 5.34 16 5 16 C4.505 11.05 4.505 11.05 4 6 C1.8653125 5.814375 1.8653125 5.814375 -0.3125 5.625 C-3.80573798 5.32124018 -4.96474514 5.02350324 -8 3 C-8.99 4.485 -8.99 4.485 -10 6 C-10.66 6 -11.32 6 -12 6 C-11.67 9.3 -11.34 12.6 -11 16 C-11.66 16 -12.32 16 -13 16 C-13.47058365 11.9020007 -13.69409951 8.07982152 -13 4 C-9.66160658 -0.04506064 -4.98228788 -2.22891826 0 0 Z " fill="#A1A1A1" transform="translate(295,175)"/>
<path d="M0 0 C2.0625 0.4375 2.0625 0.4375 4 1 C2.6875 2.5 2.6875 2.5 1 4 C0.01 4 -0.98 4 -2 4 C-1.67 4.99 -1.34 5.98 -1 7 C-1.99 8.485 -1.99 8.485 -3 10 C-2.67 10.66 -2.34 11.32 -2 12 C-5.75 15 -5.75 15 -8 15 C-8.33 14.01 -8.66 13.02 -9 12 C-11.01508358 11.26676204 -11.01508358 11.26676204 -13 11 C-11.68858995 7.06576984 -10.00101263 6.49545868 -6.5 4.375 C-3.06452343 2.43360274 -3.06452343 2.43360274 0 0 Z " fill="#D1D9D3" transform="translate(242,209)"/>
<path d="M0 0 C0.33 0 0.66 0 1 0 C1 10.56 1 21.12 1 32 C0.01 32.495 0.01 32.495 -1 33 C-1 32.34 -1 31.68 -1 31 C-1.7425 31.515625 -2.485 32.03125 -3.25 32.5625 C-6 34 -6 34 -8.3125 33.6875 C-8.869375 33.460625 -9.42625 33.23375 -10 33 C-6.25 30 -6.25 30 -4 30 C-4 21.42 -4 12.84 -4 4 C-3.67 4 -3.34 4 -3 4 C-3 12.25 -3 20.5 -3 29 C-2.01 29 -1.02 29 0 29 C0 19.43 0 9.86 0 0 Z " fill="#8BA286" transform="translate(284,228)"/>
<path d="M0 0 C0.99 0 1.98 0 3 0 C3.33 2.31 3.66 4.62 4 7 C4.5775 6.855625 5.155 6.71125 5.75 6.5625 C7.83333333 6.04166667 9.91666667 5.52083333 12 5 C12 6.65 12 8.3 12 10 C10.02 10.33 8.04 10.66 6 11 C6 11.66 6 12.32 6 13 C4.02 13 2.04 13 0 13 C-1.06671952 9.79984144 -0.94845472 8.11455706 -0.5625 4.8125 C-0.46066406 3.91144531 -0.35882813 3.01039063 -0.25390625 2.08203125 C-0.17011719 1.39496094 -0.08632813 0.70789063 0 0 Z " fill="#D2D6D1" transform="translate(365,180)"/>
<path d="M0 0 C2.64 0 5.28 0 8 0 C8.29296875 6.0546875 8.29296875 6.0546875 8 8 C5 10 5 10 1 10 C-1.56687367 6.1496895 -0.83288724 4.41430237 0 0 Z " fill="#B7BCB4" transform="translate(289,224)"/>
<path d="M0 0 C0.33 0 0.66 0 1 0 C1 10.56 1 21.12 1 32 C2.32 32.33 3.64 32.66 5 33 C5 33.66 5 34.32 5 35 C5.5775 35.103125 6.155 35.20625 6.75 35.3125 C9.32340717 36.09881886 10.89680769 37.35191023 13 39 C11.22825181 38.91276622 9.45752623 38.80458345 7.6875 38.6875 C6.20830078 38.60048828 6.20830078 38.60048828 4.69921875 38.51171875 C2 38 2 38 0.3359375 36.96484375 C-1.76858059 33.86960224 -1.25322795 30.64508047 -1.07421875 27.05078125 C-1.04777786 26.27816452 -1.02133698 25.50554779 -0.99409485 24.70951843 C-0.90635819 22.24305698 -0.7972037 19.77807257 -0.6875 17.3125 C-0.62423822 15.6400268 -0.56237225 13.96750018 -0.50195312 12.29492188 C-0.35082229 8.19581901 -0.18047878 4.09791136 0 0 Z " fill="#B5CFB2" transform="translate(195,169)"/>
<path d="M0 0 C0.99 0.33 1.98 0.66 3 1 C3.33 11.89 3.66 22.78 4 34 C3.01 34 2.02 34 1 34 C1 25.09 1 16.18 1 7 C0.34 7 -0.32 7 -1 7 C0 4 0 4 1 2 C0.34 1.67 -0.32 1.34 -1 1 C-0.67 0.67 -0.34 0.34 0 0 Z " fill="#B8B8B8" transform="translate(261,168)"/>
<path d="M0 0 C6.435 2.97 6.435 2.97 13 6 C13 6.66 13 7.32 13 8 C13.8971875 8.1546875 13.8971875 8.1546875 14.8125 8.3125 C17.28243264 9.08876455 18.32251235 10.07088921 20 12 C17.48996762 12.91273905 15.73802137 13.29714646 13.21484375 12.28125 C10.02504092 10.49333504 7.58008283 8.58008283 5 6 C2.40084462 4.80972016 2.40084462 4.80972016 0 4 C0 2.68 0 1.36 0 0 Z " fill="#B4B4B4" transform="translate(265,202)"/>
<path d="M0 0 C-0.66666667 1.33333333 -1.33333333 2.66666667 -2 4 C-2.309375 4.680625 -2.61875 5.36125 -2.9375 6.0625 C-4.05687299 8.10370956 -5.32749569 9.40021326 -7 11 C-7.33 11.66 -7.66 12.32 -8 13 C-8.99 13 -9.98 13 -11 13 C-11.66 11.02 -12.32 9.04 -13 7 C-11.40207898 5.82479354 -9.79643092 4.66008753 -8.1875 3.5 C-7.29417969 2.8503125 -6.40085938 2.200625 -5.48046875 1.53125 C-3 0 -3 0 0 0 Z " fill="#72B85B" transform="translate(211,160)"/>
<path d="M0 0 C-1.23899391 3.71698173 -2.29246752 4.03966806 -5.625 5.9375 C-6.52734375 6.453125 -7.4296875 6.96875 -8.359375 7.5 C-9.23078125 7.995 -10.1021875 8.49 -11 9 C-11.68578125 9.433125 -12.3715625 9.86625 -13.078125 10.3125 C-17.45924495 13.05546206 -17.45924495 13.05546206 -20.4375 12.75 C-20.953125 12.5025 -21.46875 12.255 -22 12 C-19 10 -19 10 -16 10 C-16 9.34 -16 8.68 -16 8 C-15.34 8 -14.68 8 -14 8 C-13.92652344 7.37480469 -13.85304688 6.74960937 -13.77734375 6.10546875 C-13 4 -13 4 -11.00390625 2.98828125 C-10.19824219 2.76527344 -9.39257812 2.54226563 -8.5625 2.3125 C-0.51396648 0 -0.51396648 0 0 0 Z " fill="#708870" transform="translate(283,259)"/>
<path d="M0 0 C0.33 0 0.66 0 1 0 C1.33 11.22 1.66 22.44 2 34 C1.01 34 0.02 34 -1 34 C-2 33 -2 33 -2.1328125 31.14111328 C-2.11109863 24.34331617 -1.63697887 17.64074854 -1 10.875 C-0.90460938 9.823125 -0.80921875 8.77125 -0.7109375 7.6875 C-0.47794718 5.12460652 -0.24090324 2.56215969 0 0 Z " fill="#CACACA" transform="translate(331,169)"/>
<path d="M0 0 C2.05078125 0.03255208 4.1015625 0.06510417 6.15234375 0.09765625 C2.11661106 4.61767686 -2.1586888 7.90209498 -8.28515625 8.34765625 C-9.13078125 8.26515625 -9.97640625 8.18265625 -10.84765625 8.09765625 C-10.18765625 7.76765625 -9.52765625 7.43765625 -8.84765625 7.09765625 C-8.84765625 5.77765625 -8.84765625 4.45765625 -8.84765625 3.09765625 C-7.39359375 2.63359375 -7.39359375 2.63359375 -5.91015625 2.16015625 C-3.52665601 1.3332276 -2.32822326 0.1230562 0 0 Z " fill="#578E4D" transform="translate(231.84765625,207.90234375)"/>
<path d="M0 0 C0.33 0 0.66 0 1 0 C1 13.53 1 27.06 1 41 C2.98 40.01 4.96 39.02 7 38 C7.66 38 8.32 38 9 38 C8.67 39.32 8.34 40.64 8 42 C5.36 42 2.72 42 0 42 C0 28.14 0 14.28 0 0 Z " fill="#B6B6B6" transform="translate(127,168)"/>
<path d="M0 0 C-0.265625 1.91015625 -0.265625 1.91015625 -1 4 C-2.671875 4.87109375 -2.671875 4.87109375 -4.75 5.4375 C-9.01366593 6.8178235 -11.0891873 8.63437282 -14 12 C-14.99 11.67 -15.98 11.34 -17 11 C-17 10.34 -17 9.68 -17 9 C-16.01 8.67 -15.02 8.34 -14 8 C-13.54625 7.360625 -13.0925 6.72125 -12.625 6.0625 C-10.63280425 3.53394386 -9.01221522 3.02856129 -6 2 C-5.278125 1.62875 -4.55625 1.2575 -3.8125 0.875 C-2 0 -2 0 0 0 Z " fill="#C8C8C8" transform="translate(320,204)"/>
<path d="M0 0 C0.96099609 0.6496875 0.96099609 0.6496875 1.94140625 1.3125 C8.88864109 5.89982909 8.88864109 5.89982909 17 6 C19.44098818 4.14579161 19.44098818 4.14579161 21 2 C20.63990153 4.61071393 20.21724512 5.78677793 18.3125 7.65625 C15.32271602 9.39355691 13.64374025 9.13191837 10.25 8.6875 C9.26515625 8.56761719 8.2803125 8.44773437 7.265625 8.32421875 C6.51796875 8.21722656 5.7703125 8.11023438 5 8 C4.67 7.01 4.34 6.02 4 5 C1.98491642 4.26676204 1.98491642 4.26676204 0 4 C0 2.68 0 1.36 0 0 Z " fill="#B4C2B1" transform="translate(228,260)"/>
<path d="M0 0 C7.61710794 2.25050916 7.61710794 2.25050916 10 5 C10.3380915 7.75380976 10.18311954 10.20742697 10 13 C9.67 13 9.34 13 9 13 C9 10.69 9 8.38 9 6 C8.29875 6.226875 7.5975 6.45375 6.875 6.6875 C3.12299725 7.09532639 1.20568943 5.86377293 -2 4 C-1.34 2.68 -0.68 1.36 0 0 Z " fill="#B0BBAF" transform="translate(359,174)"/>
<path d="M0 0 C3.96 0.33 7.92 0.66 12 1 C12 2.32 12 3.64 12 5 C10.37509046 5.02698189 8.75005367 5.04638757 7.125 5.0625 C5.76761719 5.07990234 5.76761719 5.07990234 4.3828125 5.09765625 C2 5 2 5 0 4 C0 2.68 0 1.36 0 0 Z " fill="#C5D1C2" transform="translate(256,248)"/>
<path d="M0 0 C-0.33 0.66 -0.66 1.32 -1 2 C-1.99 2 -2.98 2 -4 2 C-4.495 2.66 -4.99 3.32 -5.5 4 C-5.995 4.66 -6.49 5.32 -7 6 C-7.99 6 -8.98 6 -10 6 C-10.33 12.6 -10.66 19.2 -11 26 C-11.33 26 -11.66 26 -12 26 C-12.14539953 22.58378212 -12.23409725 19.16836009 -12.3125 15.75 C-12.35439453 14.78191406 -12.39628906 13.81382812 -12.43945312 12.81640625 C-12.5636291 5.61419942 -12.5636291 5.61419942 -9.60546875 2.390625 C-5.99239007 0.4622052 -4.10532672 -0.10803491 0 0 Z " fill="#A3A3A3" transform="translate(158,174)"/>
<path d="M0 0 C0.33 0 0.66 0 1 0 C1.33 2.31 1.66 4.62 2 7 C1.01 7 0.02 7 -1 7 C-0.67 4.69 -0.34 2.38 0 0 Z M-10 2 C-7 5.75 -7 5.75 -7 8 C-5.02 7.67 -3.04 7.34 -1 7 C-1.57344937 9.86724686 -1.8614515 10.8614515 -4 13 C-7.125 13.125 -7.125 13.125 -10 13 C-9.34 12.01 -8.68 11.02 -8 10 C-8.33 9.4225 -8.66 8.845 -9 8.25 C-10 6 -10 6 -10 2 Z " fill="#CAD0C9" transform="translate(297,226)"/>
<path d="M0 0 C0.99 0.66 1.98 1.32 3 2 C3 2.99 3 3.98 3 5 C4.32 5 5.64 5 7 5 C6.67 5.99 6.34 6.98 6 8 C2.58224994 8 -0.77881173 7.75017896 -4.1875 7.5 C-5.45980469 7.4071875 -6.73210937 7.314375 -8.04296875 7.21875 C-9.01878906 7.1465625 -9.99460937 7.074375 -11 7 C-11 6.67 -11 6.34 -11 6 C-6.545 5.505 -6.545 5.505 -2 5 C-2.33 4.34 -2.66 3.68 -3 3 C-2.01 2.01 -1.02 1.02 0 0 Z " fill="#C4CEC1" transform="translate(269,225)"/>
<path d="M0 0 C0.66 0.33 1.32 0.66 2 1 C-1.625 5.875 -1.625 5.875 -5 7 C-8.74424158 8.11277549 -8.74424158 8.11277549 -11 11 C-12.98 11 -14.96 11 -17 11 C-14.76779318 8.55452501 -12.54094926 7.05251906 -9.625 5.5 C-7.0322921 4.10879088 -4.54574076 2.71004729 -2.0625 1.125 C-1.381875 0.75375 -0.70125 0.3825 0 0 Z " fill="#A5A5A5" transform="translate(318,201)"/>
<path d="M0 0 C1.89693861 0.28438952 3.79252027 0.57783792 5.6875 0.875 C6.74324219 1.03742188 7.79898437 1.19984375 8.88671875 1.3671875 C11.79794914 1.95893069 14.28955607 2.8031806 17 4 C16.67 5.65 16.34 7.3 16 9 C15.34 8.01 14.68 7.02 14 6 C11.35308332 5.19907746 11.35308332 5.19907746 8.375 4.8125 C6.87066406 4.57466797 6.87066406 4.57466797 5.3359375 4.33203125 C4.56507813 4.22246094 3.79421875 4.11289063 3 4 C2.67 4.66 2.34 5.32 2 6 C2 4.35 2 2.7 2 1 C1.34 0.67 0.68 0.34 0 0 Z " fill="#AFC1AE" transform="translate(253,244)"/>
<path d="M0 0 C0.33 0 0.66 0 1 0 C1.33 4.95 1.66 9.9 2 15 C-2.23641013 15.84728203 -5.72412002 16.08384078 -10 16 C-6.80009492 13.25722422 -3.99500618 11.3697164 0 10 C0 6.7 0 3.4 0 0 Z " fill="#B7B7B7" transform="translate(387,169)"/>
<path d="M0 0 C0.99 0.33 1.98 0.66 3 1 C2.01 1.33 1.02 1.66 0 2 C0 2.66 0 3.32 0 4 C-1.65 4.33 -3.3 4.66 -5 5 C-5 5.66 -5 6.32 -5 7 C-4.34 7.33 -3.68 7.66 -3 8 C-7.1196377 9.29243536 -10.66831683 10.26252625 -15 10 C-13.59915278 7.19830556 -11.87560051 7.13293716 -9 6 C-6.63850151 4.45051179 -4.36837365 2.80767158 -2.0859375 1.14453125 C-1.39757812 0.76683594 -0.70921875 0.38914063 0 0 Z " fill="#849C84" transform="translate(246,216)"/>
<path d="M0 0 C1.11375 0.7115625 1.11375 0.7115625 2.25 1.4375 C4.61050015 2.77869327 6.36648477 3.512312 9 4 C9 4.66 9 5.32 9 6 C9.99 6 10.98 6 12 6 C12 6.66 12 7.32 12 8 C14.64 7.67 17.28 7.34 20 7 C18.8125 8.5 18.8125 8.5 17 10 C14.3125 10.1875 14.3125 10.1875 12 10 C11.67 9.01 11.34 8.02 11 7 C10.0925 7.04125 9.185 7.0825 8.25 7.125 C5.07537105 7.00289889 3.48875069 6.93569498 1 5 C0.25 2.375 0.25 2.375 0 0 Z " fill="#99AF95" transform="translate(209,208)"/>
<path d="M0 0 C0 0.66 0 1.32 0 2 C-1.78881736 3.00508801 -3.58114696 4.00392736 -5.375 5 C-6.37273437 5.556875 -7.37046875 6.11375 -8.3984375 6.6875 C-11 8 -11 8 -13 8 C-13.66 6.68 -14.32 5.36 -15 4 C-13.9171875 3.8453125 -13.9171875 3.8453125 -12.8125 3.6875 C-9.93190282 3.13907843 -9.93190282 3.13907843 -7.5 1.4375 C-4.71844332 -0.16189509 -3.15069341 -0.27005944 0 0 Z " fill="#D0E0D0" transform="translate(269,263)"/>
<path d="M0 0 C0.99 0.33 1.98 0.66 3 1 C3 11.56 3 22.12 3 33 C2.01 33 1.02 33 0 33 C0.15847412 32.29786377 0.31694824 31.59572754 0.48022461 30.87231445 C1.01890592 27.89552459 1.20791726 25.06516197 1.31640625 22.04296875 C1.37924805 20.37524414 1.37924805 20.37524414 1.44335938 18.67382812 C1.48267578 17.52333984 1.52199219 16.37285156 1.5625 15.1875 C1.60568359 14.01767578 1.64886719 12.84785156 1.69335938 11.64257812 C1.79918279 8.76182969 1.90126825 5.88099877 2 3 C1.34 3 0.68 3 0 3 C0 2.01 0 1.02 0 0 Z " fill="#568052" transform="translate(248,169)"/>
<path d="M0 0 C0.99 0.33 1.98 0.66 3 1 C3.33 2.32 3.66 3.64 4 5 C6.97 5.33 9.94 5.66 13 6 C13 6.99 13 7.98 13 9 C8.82046357 10.39317881 5.61961785 9.72456588 1.625 7.9375 C1.08875 7.628125 0.5525 7.31875 0 7 C0 4.69 0 2.38 0 0 Z " fill="#C8CEC7" transform="translate(246,271)"/>
<path d="M0 0 C1.32 0 2.64 0 4 0 C4.33 1.32 4.66 2.64 5 4 C8.63 4.33 12.26 4.66 16 5 C16 5.33 16 5.66 16 6 C14.37509046 6.02698189 12.75005367 6.04638757 11.125 6.0625 C10.22007812 6.07410156 9.31515625 6.08570313 8.3828125 6.09765625 C6 6 6 6 4 5 C4.33 5.99 4.66 6.98 5 8 C4.01 8 3.02 8 2 8 C2 7.34 2 6.68 2 6 C1.34 6 0.68 6 0 6 C0 4.02 0 2.04 0 0 Z " fill="#83997E" transform="translate(251,248)"/>
<path d="M0 0 C-0.25018073 3.37743989 -1.25719913 4.25135369 -3.75 6.6875 C-6.76184693 8.83054493 -8.39133078 9.68158801 -12 10 C-11.34 8.68 -10.68 7.36 -10 6 C-9.01 6 -8.02 6 -7 6 C-7 5.01 -7 4.02 -7 3 C-2.77777778 0 -2.77777778 0 0 0 Z " fill="#B8C0B2" transform="translate(284,261)"/>
<path d="M0 0 C2.91517292 1.07401108 4.77810176 1.77810176 7 4 C7.22705078 6.06298828 7.22705078 6.06298828 7.1953125 8.5703125 C7.18564453 9.91416016 7.18564453 9.91416016 7.17578125 11.28515625 C7.15902344 12.22230469 7.14226562 13.15945312 7.125 14.125 C7.11597656 15.06988281 7.10695312 16.01476562 7.09765625 16.98828125 C7.07404522 19.32577292 7.04111516 21.66276123 7 24 C6.67 24 6.34 24 6 24 C6 18.06 6 12.12 6 6 C4.68 5.67 3.36 5.34 2 5 C0.25 2.9375 0.25 2.9375 -1 1 C-0.67 0.67 -0.34 0.34 0 0 Z " fill="#B3B3B3" transform="translate(158,175)"/>
<path d="M0 0 C7.26 0 14.52 0 22 0 C22.33 0.66 22.66 1.32 23 2 C18.04515817 3.38489368 13.25410852 2.89120615 8.1875 2.5625 C6.86202148 2.48418945 6.86202148 2.48418945 5.50976562 2.40429688 C3.33949592 2.27525381 1.16969307 2.13840044 -1 2 C-0.67 1.34 -0.34 0.68 0 0 Z " fill="#D1D1D1" transform="translate(329,328)"/>
<path d="M0 0 C1.79398884 0.25499841 3.58520875 0.52953814 5.375 0.8125 C6.87160156 1.03873047 6.87160156 1.03873047 8.3984375 1.26953125 C11 2 11 2 13 5 C13.99 5.33 14.98 5.66 16 6 C16.6875 8.0625 16.6875 8.0625 17 10 C12.25 8.125 12.25 8.125 10 7 C10 6.34 10 5.68 10 5 C9.04287109 4.70996094 9.04287109 4.70996094 8.06640625 4.4140625 C6.82697266 4.02347656 6.82697266 4.02347656 5.5625 3.625 C4.73878906 3.36976563 3.91507813 3.11453125 3.06640625 2.8515625 C1 2 1 2 0 0 Z " fill="#C5DEC0" transform="translate(234,158)"/>
<path d="M0 0 C1.32 0.33 2.64 0.66 4 1 C4 2.98 4 4.96 4 7 C5.65 7 7.3 7 9 7 C9.33 7.66 9.66 8.32 10 9 C3.375 9.125 3.375 9.125 0 8 C0 5.36 0 2.72 0 0 Z " fill="#6E8867" transform="translate(253,236)"/>
<path d="M0 0 C0.99 0.33 1.98 0.66 3 1 C0.6875 3.5 0.6875 3.5 -2 6 C-2.99 6 -3.98 6 -5 6 C-5 6.66 -5 7.32 -5 8 C-8 7 -8 7 -11 5 C-9.93458984 4.58427734 -9.93458984 4.58427734 -8.84765625 4.16015625 C-7.46900391 3.61681641 -7.46900391 3.61681641 -6.0625 3.0625 C-5.14597656 2.70285156 -4.22945313 2.34320313 -3.28515625 1.97265625 C-1.07581467 1.2003782 -1.07581467 1.2003782 0 0 Z " fill="#AFAFAF" transform="translate(299,212)"/>
<path d="M0 0 C2.97 0.99 5.94 1.98 9 3 C9 6.96 9 10.92 9 15 C8.67 15 8.34 15 8 15 C7.67 11.7 7.34 8.4 7 5 C4.03 4.67 1.06 4.34 -2 4 C-1.34 2.68 -0.68 1.36 0 0 Z " fill="#B3B3B3" transform="translate(292,176)"/>
<path d="M0 0 C2.27991712 1.77502198 2.95047123 2.6300787 3.34057617 5.54370117 C3.32486572 6.53345947 3.30915527 7.52321777 3.29296875 8.54296875 C3.28330078 9.61611328 3.27363281 10.68925781 3.26367188 11.79492188 C3.23853516 12.91447266 3.21339844 14.03402344 3.1875 15.1875 C3.16719727 16.88422852 3.16719727 16.88422852 3.14648438 18.61523438 C3.11109958 21.41063317 3.06172948 24.20507892 3 27 C2.67 27 2.34 27 2 27 C1.93941406 25.97261719 1.87882812 24.94523437 1.81640625 23.88671875 C1.33717129 15.91039762 0.79190582 7.95275637 0 0 Z " fill="#C5D3BE" transform="translate(277,231)"/>
<path d="M0 0 C0.33 0 0.66 0 1 0 C0.67 2.64 0.34 5.28 0 8 C-1.75 8.6875 -1.75 8.6875 -4 9 C-6.25 7.5625 -6.25 7.5625 -8 6 C-6.20963542 5.0234375 -4.41927083 4.046875 -2.62890625 3.0703125 C-0.83381685 2.08589976 -0.83381685 2.08589976 0 0 Z " fill="#BABABA" transform="translate(376,205)"/>
<path d="M0 0 C-0.33 0.99 -0.66 1.98 -1 3 C-2.32 3 -3.64 3 -5 3 C-4.67 4.32 -4.34 5.64 -4 7 C-6.97 6.505 -6.97 6.505 -10 6 C-9.67 4.35 -9.34 2.7 -9 1 C-5.8035914 -0.06546953 -3.34252724 -0.07427838 0 0 Z " fill="#A8BDA3" transform="translate(266,235)"/>
<path d="M0 0 C1.98 0 3.96 0 6 0 C6.33 0.66 6.66 1.32 7 2 C6.37351563 2.10957031 5.74703125 2.21914062 5.1015625 2.33203125 C4.28429687 2.49058594 3.46703125 2.64914063 2.625 2.8125 C1.40683594 3.03873047 1.40683594 3.03873047 0.1640625 3.26953125 C-2.35820641 3.87544942 -2.35820641 3.87544942 -4 7 C-6.625 7.1875 -6.625 7.1875 -9 7 C-7.06745228 4.9754262 -5.36841312 3.57894208 -3 2 C-2.01 2 -1.02 2 0 2 C0 1.34 0 0.68 0 0 Z " fill="#86B07A" transform="translate(220,153)"/>
<path d="M0 0 C4.54805635 -0.17835515 7.8794254 0.00214565 12 2 C12 2.66 12 3.32 12 4 C12.99 3.67 13.98 3.34 15 3 C15.33 3.66 15.66 4.32 16 5 C15.67 5.66 15.34 6.32 15 7 C12.75 7.3125 12.75 7.3125 10 7 C9.360625 6.195625 8.72125 5.39125 8.0625 4.5625 C6.1817857 1.69801588 6.1817857 1.69801588 2.75 1.1875 C1.8425 1.125625 0.935 1.06375 0 1 C0 0.67 0 0.34 0 0 Z " fill="#C6C6C6" transform="translate(337,209)"/>
<path d="M0 0 C1.9375 0.8125 1.9375 0.8125 4 2 C4.33 2.99 4.66 3.98 5 5 C6.98 5 8.96 5 11 5 C11.33 6.32 11.66 7.64 12 9 C9.125 8.75 9.125 8.75 6 8 C4.625 5.9375 4.625 5.9375 4 4 C3.01 4 2.02 4 1 4 C1 3.34 1 2.68 1 2 C0.34 1.67 -0.32 1.34 -1 1 C-0.67 0.67 -0.34 0.34 0 0 Z " fill="#C2C9C0" transform="translate(255,217)"/>
<path d="M0 0 C0.6875 1.8125 0.6875 1.8125 1 4 C-0.4375 5.75 -0.4375 5.75 -2 7 C-2.66 6.34 -3.32 5.68 -4 5 C-4.66 5.66 -5.32 6.32 -6 7 C-6 5.02 -6 3.04 -6 1 C-4.02 0.67 -2.04 0.34 0 0 Z " fill="#C8C8C8" transform="translate(183,209)"/>
<path d="M0 0 C0.99 0 1.98 0 3 0 C3 5.94 3 11.88 3 18 C2.67 18 2.34 18 2 18 C1.66424944 15.56281065 1.33130715 13.12529385 1 10.6875 C0.85691406 9.65206055 0.85691406 9.65206055 0.7109375 8.59570312 C0.31972558 5.70352927 0 2.92235023 0 0 Z " fill="#D5D5D5" transform="translate(161,181)"/>
<path d="M0 0 C1.32 0 2.64 0 4 0 C4.38133299 1.9914056 4.71325582 3.99279077 5 6 C4.67 6.33 4.34 6.66 4 7 C3.76321284 9.69235776 3.57801975 12.36498156 3.4375 15.0625 C3.39431641 15.82111328 3.35113281 16.57972656 3.30664062 17.36132812 C3.20026367 19.24065438 3.09960066 21.12030244 3 23 C2.67 23 2.34 23 2 23 C1.97494385 22.37432129 1.9498877 21.74864258 1.92407227 21.10400391 C1.80824727 18.27745381 1.68546015 15.45124831 1.5625 12.625 C1.52318359 11.64015625 1.48386719 10.6553125 1.44335938 9.640625 C1.40146484 8.69960937 1.35957031 7.75859375 1.31640625 6.7890625 C1.27974854 5.91975098 1.24309082 5.05043945 1.20532227 4.15478516 C1.12598456 1.9516738 1.12598456 1.9516738 0 0 Z " fill="#414141" transform="translate(163,177)"/>
<path d="M0 0 C3.63 0.33 7.26 0.66 11 1 C11 1.99 11 2.98 11 4 C7.7 4 4.4 4 1 4 C0.67 2.68 0.34 1.36 0 0 Z " fill="#688166" transform="translate(255,253)"/>
<path d="M0 0 C1.32 0.33 2.64 0.66 4 1 C4 1.66 4 2.32 4 3 C4.5775 3.103125 5.155 3.20625 5.75 3.3125 C8.32049158 4.09792798 9.93657284 5.30504197 12 7 C8.92554219 6.92910055 5.98981705 6.74745426 3 6 C0 2.36363636 0 2.36363636 0 0 Z " fill="#A9BEAA" transform="translate(196,201)"/>
<path d="M0 0 C2.4375 0.6875 2.4375 0.6875 4.4375 1.6875 C4.1075 2.6775 3.7775 3.6675 3.4375 4.6875 C-3.3125 3.9375 -3.3125 3.9375 -5.5625 1.6875 C-2.5625 -0.3125 -2.5625 -0.3125 0 0 Z " fill="#688764" transform="translate(360.5625,179.3125)"/>
<path d="M0 0 C0 1.65 0 3.3 0 5 C-2.31 5.66 -4.62 6.32 -7 7 C-7.33 5.68 -7.66 4.36 -8 3 C-2.25 0 -2.25 0 0 0 Z " fill="#B8B8B8" transform="translate(377,185)"/>
<path d="M0 0 C-0.66 0.639375 -1.32 1.27875 -2 1.9375 C-4.11602431 3.64082319 -4.11602431 3.64082319 -4 5 C-5.65 5 -7.3 5 -9 5 C-9 3.35 -9 1.7 -9 0 C-2.25 -1.125 -2.25 -1.125 0 0 Z " fill="#D5D5D5" transform="translate(386,185)"/>
<path d="M0 0 C0.99 0.66 1.98 1.32 3 2 C4.65549531 2.38499891 6.3222433 2.72793135 8 3 C8 3.33 8 3.66 8 4 C0.57142857 6.14285714 0.57142857 6.14285714 -3 7 C-3.33 6.01 -3.66 5.02 -4 4 C-3.34 4 -2.68 4 -2 4 C-1.34 2.68 -0.68 1.36 0 0 Z " fill="#CACACA" transform="translate(287,177)"/>
<path d="M0 0 C0.928125 0.433125 1.85625 0.86625 2.8125 1.3125 C3.1425 2.3025 3.4725 3.2925 3.8125 4.3125 C4.4725 4.3125 5.1325 4.3125 5.8125 4.3125 C5.8125 4.9725 5.8125 5.6325 5.8125 6.3125 C0.0625 4.5625 0.0625 4.5625 -2.1875 2.3125 C-4.75811311 1.66482207 -4.75811311 1.66482207 -7.1875 1.3125 C-4.38629123 -0.62679838 -3.41465603 -0.73649444 0 0 Z " fill="#C1DCBA" transform="translate(228.1875,151.6875)"/>
<path d="M0 0 C0 0.66 0 1.32 0 2 C-0.66 2 -1.32 2 -2 2 C-2 2.66 -2 3.32 -2 4 C-2.99 4 -3.98 4 -5 4 C-5.33 4.66 -5.66 5.32 -6 6 C-5.67 6.66 -5.34 7.32 -5 8 C-5.99 8.33 -6.98 8.66 -8 9 C-8.33 8.34 -8.66 7.68 -9 7 C-9.99 7.495 -9.99 7.495 -11 8 C-11 7.01 -11 6.02 -11 5 C-9.54462432 4.16151196 -8.08559627 3.32936066 -6.625 2.5 C-5.81289063 2.0359375 -5.00078125 1.571875 -4.1640625 1.09375 C-2 0 -2 0 0 0 Z " fill="#7D967D" transform="translate(269,265)"/>
<path d="M0 0 C1.9375 0.375 1.9375 0.375 4 1 C4.33 1.66 4.66 2.32 5 3 C7.02463255 3.65213292 7.02463255 3.65213292 9 4 C9 4.66 9 5.32 9 6 C9.99 6.33 10.98 6.66 12 7 C7.25 8.125 7.25 8.125 5 7 C2.375 4.5625 2.375 4.5625 0 2 C0 1.34 0 0.68 0 0 Z " fill="#CFD1D2" transform="translate(228,264)"/>
<path d="M0 0 C7.425 0.99 7.425 0.99 15 2 C15 2.33 15 2.66 15 3 C12.69 3 10.38 3 8 3 C8 3.66 8 4.32 8 5 C5.69 5 3.38 5 1 5 C2.32 4.34 3.64 3.68 5 3 C3.35 2.67 1.7 2.34 0 2 C0 1.34 0 0.68 0 0 Z " fill="#799175" transform="translate(257,241)"/>
<path d="M0 0 C0.99 1.32 1.98 2.64 3 4 C1.02 4 -0.96 4 -3 4 C-3.33 4.99 -3.66 5.98 -4 7 C-5.65 7 -7.3 7 -9 7 C-9.66 5.68 -10.32 4.36 -11 3 C-9.9275 3.061875 -8.855 3.12375 -7.75 3.1875 C-3.89133813 2.99456691 -2.71182212 2.60334924 0 0 Z " fill="#C0C6BE" transform="translate(248,265)"/>
<path d="M0 0 C-1.10789408 3.32368224 -1.48436217 3.61563093 -4.375 5.25 C-5.28378906 5.78367187 -5.28378906 5.78367187 -6.2109375 6.328125 C-8 7 -8 7 -11 6 C-8.45731621 2.18597432 -4.72779558 0 0 0 Z " fill="#697F63" transform="translate(283,259)"/>
<path d="M0 0 C2.475 0.495 2.475 0.495 5 1 C4.34 2.32 3.68 3.64 3 5 C3.66 5 4.32 5 5 5 C5.33 6.98 5.66 8.96 6 11 C4 9.1875 4 9.1875 2 7 C2 6.01 2 5.02 2 4 C1.34 4 0.68 4 0 4 C0 2.68 0 1.36 0 0 Z " fill="#63AB4E" transform="translate(211,190)"/>
<path d="M0 0 C-0.33 0.66 -0.66 1.32 -1 2 C-4.94981078 3.29128429 -8.91333648 4.25697027 -13 5 C-9.71226209 0.06839313 -5.74752988 -1.85949496 0 0 Z " fill="#CBCCCA" transform="translate(259,221)"/>
<path d="M0 0 C0.33 0.99 0.66 1.98 1 3 C1.66 3 2.32 3 3 3 C3 4.32 3 5.64 3 7 C3.66 7.33 4.32 7.66 5 8 C3.02 8.33 1.04 8.66 -1 9 C-1.125 2.25 -1.125 2.25 0 0 Z " fill="#BFD5BC" transform="translate(250,251)"/>
<path d="M0 0 C0.99 0 1.98 0 3 0 C2.67 4.95 2.34 9.9 2 15 C1.67 15 1.34 15 1 15 C0.67 10.05 0.34 5.1 0 0 Z " fill="#6D856C" transform="translate(245,233)"/>
<path d="M0 0 C-0.99 0.495 -0.99 0.495 -2 1 C-1.34 1.66 -0.68 2.32 0 3 C-2.31 3 -4.62 3 -7 3 C-7 5.31 -7 7.62 -7 10 C-7.33 10 -7.66 10 -8 10 C-8.48695652 2.57391304 -8.48695652 2.57391304 -6.25 -0.0625 C-3.6468225 -1.14715729 -2.58518155 -1.01560704 0 0 Z " fill="#7D9678" transform="translate(260,233)"/>
<path d="M0 0 C2.375 -0.125 2.375 -0.125 5 0 C5.66 0.66 6.32 1.32 7 2 C6.625 4.125 6.625 4.125 6 6 C5.01 6 4.02 6 3 6 C3 5.01 3 4.02 3 3 C2.34 3 1.68 3 1 3 C0.67 2.01 0.34 1.02 0 0 Z " fill="#71876A" transform="translate(277,226)"/>
<path d="M0 0 C0 3.10551666 -0.5393715 4.35261084 -2 7 C-4.31 6.67 -6.62 6.34 -9 6 C-6.11964908 3.75972706 -3.15133488 1.83827868 0 0 Z " fill="#ADADAD" transform="translate(145,200)"/>
<path d="M0 0 C1.875 0.3125 1.875 0.3125 4 1 C4.66 1.99 5.32 2.98 6 4 C5.67 4.99 5.34 5.98 5 7 C3.02 6.01 1.04 5.02 -1 4 C-0.67 2.68 -0.34 1.36 0 0 Z " fill="#528054" transform="translate(201,200)"/>
<path d="M0 0 C5.66153846 1.47692308 5.66153846 1.47692308 7.375 4.125 C7.684375 5.053125 7.684375 5.053125 8 6 C5.03 5.505 5.03 5.505 2 5 C2 4.34 2 3.68 2 3 C1.34 3 0.68 3 0 3 C0 2.01 0 1.02 0 0 Z " fill="#D5E4D4" transform="translate(232,153)"/>
<path d="M0 0 C1.485 0.99 1.485 0.99 3 2 C3 2.66 3 3.32 3 4 C4.32 4 5.64 4 7 4 C7 5.98 7 7.96 7 10 C6.34 9.67 5.68 9.34 5 9 C5 8.34 5 7.68 5 7 C3.35 7 1.7 7 0 7 C0.66 6.67 1.32 6.34 2 6 C1.34 4.02 0.68 2.04 0 0 Z " fill="#A9BDA7" transform="translate(267,236)"/>
<path d="M0 0 C1.32 0.66 2.64 1.32 4 2 C3.34 2.66 2.68 3.32 2 4 C1.59952556 6.32275177 1.2602896 8.65739357 1 11 C-1 9 -1 9 -1.23046875 7.08984375 C-1.11111111 1.11111111 -1.11111111 1.11111111 0 0 Z " fill="#C7DFC5" transform="translate(250,232)"/>
<path d="M0 0 C4.60272162 1.77027754 7.7129243 3.18699218 11 7 C9.02 7.99 9.02 7.99 7 9 C6.34 8.34 5.68 7.68 5 7 C5 6.01 5 5.02 5 4 C4.01 4 3.02 4 2 4 C2 3.34 2 2.68 2 2 C1.34 2 0.68 2 0 2 C0 1.34 0 0.68 0 0 Z " fill="#839680" transform="translate(269,219)"/>
<path d="M0 0 C4.875 2.75 4.875 2.75 6 5 C3.36 5 0.72 5 -2 5 C-1.34 3.35 -0.68 1.7 0 0 Z " fill="#C8C8C8" transform="translate(154,175)"/>
<path d="M0 0 C0.99 0 1.98 0 3 0 C3.33 0.99 3.66 1.98 4 3 C4.66 2.01 5.32 1.02 6 0 C6.042721 1.66611905 6.04063832 3.33382885 6 5 C5 6 5 6 2.4375 6.0625 C1.2309375 6.0315625 1.2309375 6.0315625 0 6 C0 4.02 0 2.04 0 0 Z " fill="#969C94" transform="translate(291,227)"/>
<path d="M0 0 C4.75 0.875 4.75 0.875 7 2 C7 3.65 7 5.3 7 7 C6.4225 6.525625 5.845 6.05125 5.25 5.5625 C3.07417916 4.0515133 1.57397552 3.45963849 -1 3 C-0.67 2.01 -0.34 1.02 0 0 Z " fill="#B6C1B1" transform="translate(273,227)"/>
<path d="M0 0 C2.5654594 2.5654594 2.54046087 4.47686668 3 8 C1.68 8.33 0.36 8.66 -1 9 C-1.09765625 2.84765625 -1.09765625 2.84765625 -1 1 C-0.67 0.67 -0.34 0.34 0 0 Z " fill="#CDD6CC" transform="translate(352,181)"/>
<path d="M0 0 C1.32 0.33 2.64 0.66 4 1 C4 1.66 4 2.32 4 3 C5.175625 3.4640625 5.175625 3.4640625 6.375 3.9375 C9 5 9 5 11 6 C10.67 6.66 10.34 7.32 10 8 C9.278125 7.525625 8.55625 7.05125 7.8125 6.5625 C5.10524774 5.05847097 3.03805725 4.43400818 0 4 C0 2.68 0 1.36 0 0 Z " fill="#72A169" transform="translate(240,162)"/>
<path d="M0 0 C-1 1 -1 1 -3.5625 1.0625 C-4.7690625 1.0315625 -4.7690625 1.0315625 -6 1 C-6 1.66 -6 2.32 -6 3 C-7.98 3.33 -9.96 3.66 -12 4 C-11.4375 2.0625 -11.4375 2.0625 -10 0 C-6.14090895 -0.91214879 -3.78396692 -1.26132231 0 0 Z " fill="#64A350" transform="translate(228,156)"/>
<path d="M0 0 C3.59790874 0.27676221 5.70210293 1.35105147 9 3 C5.04 3 1.08 3 -3 3 C-2.01 2.01 -1.02 1.02 0 0 Z " fill="#627F5F" transform="translate(260,232)"/>
<path d="M0 0 C-1.125 2 -1.125 2 -3 4 C-6.1875 4.25 -6.1875 4.25 -9 4 C-9.33 3.34 -9.66 2.68 -10 2 C-3.375 -1.125 -3.375 -1.125 0 0 Z " fill="#BDC8B9" transform="translate(232,216)"/>
<path d="M0 0 C3.465 1.98 3.465 1.98 7 4 C7 4.99 7 5.98 7 7 C5.02 6.34 3.04 5.68 1 5 C0.67 3.35 0.34 1.7 0 0 Z " fill="#A7BEA8" transform="translate(209,208)"/>
<path d="M0 0 C0.33 1.32 0.66 2.64 1 4 C-2.465 5.485 -2.465 5.485 -6 7 C-6.66 6.34 -7.32 5.68 -8 5 C-2.25 2 -2.25 2 0 2 C0 1.34 0 0.68 0 0 Z " fill="#D8D8D8" transform="translate(275,158)"/>
<path d="M0 0 C1.4835001 0.42257276 2.96176424 0.86356322 4.4375 1.3125 C5.67306641 1.67794922 5.67306641 1.67794922 6.93359375 2.05078125 C7.61550781 2.36402344 8.29742187 2.67726562 9 3 C9.33 3.99 9.66 4.98 10 6 C6.00452264 5.38531118 3.22493358 3.34540624 0 1 C0 0.67 0 0.34 0 0 Z " fill="#687E65" transform="translate(266,220)"/>
<path d="M0 0 C2.3125 0.1875 2.3125 0.1875 4 1 C2.6875 2.5 2.6875 2.5 1 4 C0.01 4 -0.98 4 -2 4 C-2 4.66 -2 5.32 -2 6 C-2.99 5.67 -3.98 5.34 -5 5 C-2.75 2.4375 -2.75 2.4375 0 0 Z " fill="#C8CDC4" transform="translate(242,209)"/>
<path d="M0 0 C0 1.65 0 3.3 0 5 C-2.02045442 4.39816251 -4.02111039 3.72693904 -6 3 C-6.33 2.34 -6.66 1.68 -7 1 C-3.375 -1.125 -3.375 -1.125 0 0 Z " fill="#ADB3AC" transform="translate(358,189)"/>
<path d="M0 0 C3.63 1.65 7.26 3.3 11 5 C7.06329512 6.31223496 4.87511856 5.24296256 1 4 C0.67 2.68 0.34 1.36 0 0 Z " fill="#689C5F" transform="translate(229,156)"/>
<path d="M0 0 C0.66 0 1.32 0 2 0 C2 0.66 2 1.32 2 2 C2.8971875 2.1546875 2.8971875 2.1546875 3.8125 2.3125 C6.28243264 3.08876455 7.32251235 4.07088921 9 6 C7.35 6.33 5.7 6.66 4 7 C3.67 6.01 3.34 5.02 3 4 C2.01979625 2.9805881 1.02196992 1.97753644 0 1 C0 0.67 0 0.34 0 0 Z " fill="#A9A8A9" transform="translate(276,208)"/>
<path d="M0 0 C0.66 0 1.32 0 2 0 C2.33 1.32 2.66 2.64 3 4 C-1.625 6.125 -1.625 6.125 -5 5 C-3.625 3.5 -3.625 3.5 -2 2 C-1.34 2 -0.68 2 0 2 C0 1.34 0 0.68 0 0 Z " fill="#B2C0B3" transform="translate(272,254)"/>
<path d="M0 0 C1.32 0 2.64 0 4 0 C4 0.99 4 1.98 4 3 C5.32 3.66 6.64 4.32 8 5 C3.545 4.01 3.545 4.01 -1 3 C-0.67 2.01 -0.34 1.02 0 0 Z " fill="#688268" transform="translate(255,213)"/>
<path d="M0 0 C-0.6875 1.9375 -0.6875 1.9375 -2 4 C-4.625 4.75 -4.625 4.75 -7 5 C-7 4.01 -7 3.02 -7 2 C-2.25 0 -2.25 0 0 0 Z " fill="#CFCFCF" transform="translate(310,211)"/>
<path d="M0 0 C0 0.66 0 1.32 0 2 C-0.66 2 -1.32 2 -2 2 C-2 2.66 -2 3.32 -2 4 C-4.31 4.33 -6.62 4.66 -9 5 C-6.45523312 2.20075644 -3.92372883 0 0 0 Z " fill="#A4BC9D" transform="translate(250,203)"/>
<path d="M0 0 C3.465 1.98 3.465 1.98 7 4 C6.67 4.66 6.34 5.32 6 6 C4.02 5.34 2.04 4.68 0 4 C0 2.68 0 1.36 0 0 Z " fill="#ABBEAD" transform="translate(228,260)"/>
<path d="M0 0 C0.66 0 1.32 0 2 0 C2 1.98 2 3.96 2 6 C0.68 5.67 -0.64 5.34 -2 5 C-1.34 3.35 -0.68 1.7 0 0 Z " fill="#D1E1CD" transform="translate(241,256)"/>
<path d="M0 0 C2.31 0 4.62 0 7 0 C6.67 0.99 6.34 1.98 6 3 C4.02 3 2.04 3 0 3 C0 2.01 0 1.02 0 0 Z " fill="#698568" transform="translate(265,244)"/>
<path d="M0 0 C2.875 -0.1875 2.875 -0.1875 6 0 C6.66 0.99 7.32 1.98 8 3 C6.68 3.33 5.36 3.66 4 4 C4 3.34 4 2.68 4 2 C2.68 2 1.36 2 0 2 C0 1.34 0 0.68 0 0 Z " fill="#C1BBC2" transform="translate(281,214)"/>
<path d="M0 0 C1.32 0.33 2.64 0.66 4 1 C4 1.66 4 2.32 4 3 C4.99 3.33 5.98 3.66 7 4 C6.34 4.66 5.68 5.32 5 6 C2.5 4.6875 2.5 4.6875 0 3 C0 2.01 0 1.02 0 0 Z " fill="#BFBFBF" transform="translate(273,208)"/>
<path d="M0 0 C1.32 0 2.64 0 4 0 C4.33 0.99 4.66 1.98 5 3 C4.67 3.66 4.34 4.32 4 5 C2.02 4.34 0.04 3.68 -2 3 C-1.34 2.67 -0.68 2.34 0 2 C0 1.34 0 0.68 0 0 Z " fill="#3B3B3B" transform="translate(268,200)"/>
<path d="M0 0 C-0.75 1.9375 -0.75 1.9375 -2 4 C-4 4.8125 -4 4.8125 -6 5 C-6.66 4.67 -7.32 4.34 -8 4 C-3.375 0 -3.375 0 0 0 Z " fill="#8DBE78" transform="translate(211,160)"/>
<path d="M0 0 C1.98 0 3.96 0 6 0 C6 0.99 6 1.98 6 3 C3 4 3 4 0.8125 3.0625 C0.214375 2.711875 -0.38375 2.36125 -1 2 C-0.67 1.34 -0.34 0.68 0 0 Z " fill="#C3C7C0" transform="translate(253,277)"/>
<path d="M0 0 C1.98 0 3.96 0 6 0 C6 0.99 6 1.98 6 3 C5.01 3.495 5.01 3.495 4 4 C1.875 3.0625 1.875 3.0625 0 2 C0 1.34 0 0.68 0 0 Z " fill="#818B7F" transform="translate(245,269)"/>
<path d="M0 0 C0 0.66 0 1.32 0 2 C-0.99 2.33 -1.98 2.66 -3 3 C-3.7115625 3.804375 -3.7115625 3.804375 -4.4375 4.625 C-4.953125 5.07875 -5.46875 5.5325 -6 6 C-8.09765625 5.5859375 -8.09765625 5.5859375 -10 5 C-8.71186658 4.16121545 -7.41936744 3.32913217 -6.125 2.5 C-5.40570313 2.0359375 -4.68640625 1.571875 -3.9453125 1.09375 C-2 0 -2 0 0 0 Z " fill="#A4B6A1" transform="translate(277,265)"/>
<path d="M0 0 C0.33 0.66 0.66 1.32 1 2 C2.65 2 4.3 2 6 2 C6.33 2.66 6.66 3.32 7 4 C3.625 4.1875 3.625 4.1875 0 4 C-0.66 3.01 -1.32 2.02 -2 1 C-1.34 0.67 -0.68 0.34 0 0 Z " fill="#677F64" transform="translate(256,241)"/>
<path d="M0 0 C0.99 0 1.98 0 3 0 C2.67 0.66 2.34 1.32 2 2 C1.34 1.34 0.68 0.68 0 0 Z M1 2 C1.99 2.66 2.98 3.32 4 4 C3 5 3 5 1.15234375 5.09765625 C-0.8984375 5.06510417 -2.94921875 5.03255208 -5 5 C-3 4 -1 3 1 2 Z " fill="#D4DBD1" transform="translate(264,226)"/>
<path d="M0 0 C0.33 0.66 0.66 1.32 1 2 C3.52733235 2.65555119 3.52733235 2.65555119 6 3 C4 5 4 5 0.875 5.125 C-0.548125 5.063125 -0.548125 5.063125 -2 5 C-1.34 4.67 -0.68 4.34 0 4 C0 2.68 0 1.36 0 0 Z " fill="#658C5A" transform="translate(223,211)"/>
<path d="M0 0 C3.71599191 -0.20086443 4.77208445 -0.1519437 8 2 C8 2.99 8 3.98 8 5 C4.62496331 3.8141763 2.35277269 2.72426311 0 0 Z " fill="#434243" transform="translate(282,211)"/>
<path d="M0 0 C4.75 1.875 4.75 1.875 7 3 C7 3.66 7 4.32 7 5 C7.66 5.33 8.32 5.66 9 6 C6.07606119 5.37344168 3.55170871 4.5838192 1 3 C0.67 2.01 0.34 1.02 0 0 Z " fill="#CCD1CE" transform="translate(207,211)"/>
<path d="M0 0 C1.65 0 3.3 0 5 0 C5 0.99 5 1.98 5 3 C3.35 3.66 1.7 4.32 0 5 C-0.33 4.34 -0.66 3.68 -1 3 C-0.67 2.01 -0.34 1.02 0 0 Z " fill="#C9C9C9" transform="translate(136,206)"/>
<path d="M0 0 C2 2 2 2 2 5 C2.66 5 3.32 5 4 5 C3.67 5.99 3.34 6.98 3 8 C2.01 7.67 1.02 7.34 0 7 C0 4.69 0 2.38 0 0 Z " fill="#4D8548" transform="translate(197,194)"/>
<path d="M0 0 C-1.7578125 0.9765625 -3.515625 1.953125 -5.2734375 2.9296875 C-7.1612614 4.00897274 -7.1612614 4.00897274 -9 6 C-9 4.68 -9 3.36 -9 2 C-3.375 -1.125 -3.375 -1.125 0 0 Z " fill="#C5DFC1" transform="translate(203,165)"/>
<path d="M0 0 C-1.66666667 1.66666667 -3.33333333 3.33333333 -5 5 C-5 4.34 -5 3.68 -5 3 C-6.65 3.33 -8.3 3.66 -10 4 C-6.66064924 0.50886057 -4.84725717 -0.1275594 0 0 Z " fill="#585858" transform="translate(362,153)"/>
<path d="M0 0 C0.66 0.33 1.32 0.66 2 1 C0.60878255 3.7824349 -1.30164212 4.55210065 -4 6 C-4.66 6 -5.32 6 -6 6 C-5 3 -5 3 -2.5625 1.25 C-1.716875 0.8375 -0.87125 0.425 0 0 Z " fill="#CED0CC" transform="translate(235,214)"/>
<path d="M0 0 C-0.33 1.32 -0.66 2.64 -1 4 C-3.31 4 -5.62 4 -8 4 C-2 0 -2 0 0 0 Z " fill="#A3A3A3" transform="translate(136,206)"/>
<path d="M0 0 C2.97 1.98 2.97 1.98 6 4 C5.67 4.66 5.34 5.32 5 6 C4.01 6 3.02 6 2 6 C2 5.34 2 4.68 2 4 C1.34 3.67 0.68 3.34 0 3 C0 2.01 0 1.02 0 0 Z " fill="#B2B2B2" transform="translate(332,200)"/>
<path d="M0 0 C0.99 0 1.98 0 3 0 C2.67 1.32 2.34 2.64 2 4 C0.68 4.33 -0.64 4.66 -2 5 C-1.34 3.35 -0.68 1.7 0 0 Z " fill="#D0D0D0" transform="translate(146,200)"/>
<path d="M0 0 C2.475 0.495 2.475 0.495 5 1 C4.34 2.32 3.68 3.64 3 5 C1.5 3.625 1.5 3.625 0 2 C0 1.34 0 0.68 0 0 Z " fill="#D1D1D1" transform="translate(283,188)"/>
<path d="M0 0 C0.99 0 1.98 0 3 0 C2.67 2.31 2.34 4.62 2 7 C1.34 7 0.68 7 0 7 C0 4.69 0 2.38 0 0 Z " fill="#C4D5C2" transform="translate(365,180)"/>
<path d="M0 0 C1.65 0 3.3 0 5 0 C4.34 1.32 3.68 2.64 3 4 C1.68 3.34 0.36 2.68 -1 2 C-0.67 1.34 -0.34 0.68 0 0 Z " fill="#6CAE52" transform="translate(211,160)"/>
</svg>
