<?xml version="1.0" encoding="UTF-8"?>
<svg version="1.1" xmlns="http://www.w3.org/2000/svg" width="500" height="500">
<path d="M0 0 C3.86002159 0.00514873 7.72003483 0.00034412 11.58005691 -0.00277233 C18.05934803 -0.00638793 24.53859323 -0.00167811 31.01787734 0.00790882 C38.44609649 0.01877482 45.87420564 0.01527146 53.30242211 0.00425601 C59.74302024 -0.00490283 66.1835858 -0.00606029 72.62418836 -0.00086665 C76.44312255 0.00220817 80.26200556 0.00278972 84.08093619 -0.00393963 C147.07285682 -0.09959077 147.07285682 -0.09959077 170.02251601 22.15927601 C170.71603164 22.85536976 171.40954726 23.55146351 172.12407851 24.26865101 C172.75571914 24.84099476 173.38735976 25.41333851 174.03814101 26.00302601 C179.15117581 30.73314631 182.5795117 36.31377877 186.12407851 42.26865101 C186.51595351 42.88740101 186.90782851 43.50615101 187.31157851 44.14365101 C195.68737594 57.75432182 196.42634116 72.98592635 196.41460586 88.52353382 C196.42060384 90.12494179 196.42741226 91.72634689 196.43496108 93.3277483 C196.4524985 97.64410578 196.45731122 101.96038378 196.45859265 106.27677345 C196.46002172 108.98258809 196.4643055 111.68838299 196.46958709 114.3941927 C196.48804635 123.85968256 196.4962628 133.32511639 196.49468398 142.79062366 C196.49348349 151.57251408 196.5145783 160.35415838 196.54617131 169.13598657 C196.57243807 176.7109498 196.58304695 184.28583316 196.58177316 191.86084151 C196.58126661 196.36945801 196.58677844 200.87785541 196.60812926 205.38642597 C196.62768833 209.6318235 196.62751736 213.87679681 196.613096 218.1222105 C196.61102854 219.66678656 196.61558322 221.21139046 196.62781692 222.75591946 C196.72810991 236.31236725 194.85059639 249.60288588 188.31157851 261.70615101 C187.97046035 262.36445911 187.62934218 263.02276722 187.27788711 263.70102406 C184.44064691 269.02462061 181.02957031 273.6770593 177.12407851 278.26865101 C176.46407851 279.25865101 175.80407851 280.24865101 175.12407851 281.26865101 C174.46407851 281.26865101 173.80407851 281.26865101 173.12407851 281.26865101 C173.12407851 281.92865101 173.12407851 282.58865101 173.12407851 283.26865101 C159.00481485 297.42185521 138.95691771 305.35932551 119.15715957 305.4090929 C118.15950946 305.41354959 118.15950946 305.41354959 117.1417048 305.4180963 C114.93204024 305.42670844 112.72243034 305.42828517 110.51275039 305.42978382 C108.92031149 305.43441745 107.32787369 305.43944284 105.73543715 305.44482899 C101.42093292 305.45790586 97.10644422 305.46438916 92.79192328 305.46883965 C90.09000228 305.47177908 87.38808543 305.47588559 84.68616652 305.48034382 C76.21419761 305.49400874 67.74223831 305.5036793 59.27025914 305.50754571 C49.52527086 305.51201872 39.78042338 305.52953561 30.03547788 305.5585463 C22.48102181 305.58024671 14.9266051 305.59025449 7.37211823 305.59158683 C2.87075824 305.59262924 -1.63046924 305.59841548 -6.13179612 305.61640644 C-10.37377477 305.63303151 -14.61552334 305.63497359 -18.8575232 305.62626743 C-20.40251498 305.62550461 -21.94751988 305.62973834 -23.49247956 305.63972569 C-45.13260673 305.77125585 -66.54896111 300.40985449 -82.87592149 285.26865101 C-82.87592149 284.60865101 -82.87592149 283.94865101 -82.87592149 283.26865101 C-83.53592149 283.26865101 -84.19592149 283.26865101 -84.87592149 283.26865101 C-84.87592149 282.60865101 -84.87592149 281.94865101 -84.87592149 281.26865101 C-85.53592149 281.26865101 -86.19592149 281.26865101 -86.87592149 281.26865101 C-86.87592149 280.60865101 -86.87592149 279.94865101 -86.87592149 279.26865101 C-87.53592149 279.26865101 -88.19592149 279.26865101 -88.87592149 279.26865101 C-101.57519585 264.70097766 -108.98233548 246.62303093 -109.00963426 227.28154469 C-109.01189981 226.61432791 -109.01416537 225.94711114 -109.01649958 225.25967568 C-109.02278634 223.04300424 -109.02201366 220.82639478 -109.02118516 218.60971546 C-109.02418004 217.01240937 -109.02758332 215.415104 -109.03136277 213.81779957 C-109.04017497 209.49109618 -109.04253976 205.16441258 -109.04317856 200.83770108 C-109.04389081 198.12977313 -109.04602847 195.42185016 -109.04867578 192.71392345 C-109.05792103 183.25307745 -109.06201182 173.79224552 -109.06122422 164.33139515 C-109.06062412 155.53540566 -109.07116476 146.73947763 -109.08696789 137.94350368 C-109.10007946 130.37380795 -109.10540658 122.80413223 -109.10476881 115.23442525 C-109.10451483 110.7214569 -109.10731076 106.20854317 -109.11794686 101.6955862 C-109.12768854 97.44626548 -109.12766578 93.1970509 -109.12043023 88.94772625 C-109.11939179 87.39664141 -109.12170276 85.84554975 -109.12779069 84.29447651 C-109.21303593 61.05230849 -103.4300301 41.66116615 -87.06732774 24.46786976 C-86.34416368 23.74212757 -85.62099961 23.01638538 -84.87592149 22.26865101 C-84.28681993 21.65634632 -83.69771836 21.04404163 -83.09076524 20.41318226 C-60.37595903 -1.40301623 -29.27540636 -0.05145025 0 0 Z " fill="#1F3548" transform="translate(205.87592148780823,97.73134899139404)"/>
<path d="M0 0 C7.36064694 -0.12838947 14.72099795 -0.2150063 22.08251953 -0.2746582 C24.57872302 -0.2995656 27.07485543 -0.33350421 29.57080078 -0.37719727 C48.52398146 -0.70030604 66.82761419 -0.90274613 82 12 C82.928125 12.66 83.85625 13.32 84.8125 14 C92.71486341 21.22501798 96.70632512 31.54763061 97.2734375 42.1171875 C97.68894447 55.85642496 96.2339304 68.3408658 86.80859375 79.14453125 C85.91333984 80.06298828 85.91333984 80.06298828 85 81 C84.18208984 81.84111328 84.18208984 81.84111328 83.34765625 82.69921875 C68.06195454 96.97786246 47.52962754 96.60269474 28 96 C28.00785522 97.84730713 28.00785522 97.84730713 28.01586914 99.73193359 C28.03393553 104.29035722 28.04543804 108.84877767 28.05493164 113.40722656 C28.0599681 115.38216687 28.06679751 117.35710343 28.07543945 119.33203125 C28.08753508 122.16667605 28.0932351 125.00127166 28.09765625 127.8359375 C28.10281754 128.72243988 28.10797882 129.60894226 28.11329651 130.52230835 C28.11387171 136.77225659 28.11387171 136.77225659 27 139 C17.76 139 8.52 139 -1 139 C-1.02255309 121.17195895 -1.04098273 103.34393002 -1.05181217 85.51587868 C-1.05697359 77.23844518 -1.06401338 68.96102116 -1.07543945 60.68359375 C-1.08539097 53.47095972 -1.09185455 46.25833255 -1.09408849 39.04569185 C-1.0953948 35.22488644 -1.09847564 31.40410067 -1.10573006 27.58330154 C-1.11249764 23.98993139 -1.11461545 20.39658904 -1.11310768 16.80321312 C-1.11351566 14.84981813 -1.11890703 12.89642619 -1.12442017 10.94303894 C-1.1230455 9.78755051 -1.12167084 8.63206207 -1.12025452 7.44155884 C-1.12117631 6.43311731 -1.1220981 5.42467579 -1.12304783 4.38567543 C-1 2 -1 2 0 0 Z " fill="#30A7FD" transform="translate(160,177)"/>
<path d="M0 0 C1.3308911 2.66178221 1.11268993 4.68739396 1.09765625 7.6640625 C1.09282227 9.34628906 1.09282227 9.34628906 1.08789062 11.0625 C1.07532227 12.8259375 1.07532227 12.8259375 1.0625 14.625 C1.05798828 15.80835938 1.05347656 16.99171875 1.04882812 18.2109375 C1.03701467 21.14067507 1.02054258 24.07031272 1 27 C-2.75656331 27.08852557 -4.68644804 26.71768686 -8 25 C-23.11267352 20.83563365 -23.11267352 20.83563365 -37.8359375 23.5234375 C-38.55007813 24.01070312 -39.26421875 24.49796875 -40 25 C-39.65555119 27.47266765 -39.65555119 27.47266765 -39 30 C-38.34 30.33 -37.68 30.66 -37 31 C-37 31.66 -37 32.32 -37 33 C-36.27329102 33.12745605 -35.54658203 33.25491211 -34.79785156 33.38623047 C-30.22140884 34.39017262 -26.05292371 36.30244325 -21.75 38.125 C-20.84636719 38.49109375 -19.94273437 38.8571875 -19.01171875 39.234375 C-9.67483331 43.18407905 -0.34107246 49.05408621 4.1875 58.46875 C8.16545685 68.30314331 7.94758625 76.22448019 4.33203125 86.1640625 C0.1663683 95.03289329 -7.35546923 100.34402334 -16.375 103.75 C-31.40053101 108.87431404 -50.25929919 107.65060198 -65 102 C-67.16601562 100.828125 -67.16601562 100.828125 -69 99 C-69.45410156 96.08911133 -69.45410156 96.08911133 -69.390625 92.58203125 C-69.37773437 91.32841797 -69.36484375 90.07480469 -69.3515625 88.78320312 C-69.31804687 87.47287109 -69.28453125 86.16253906 -69.25 84.8125 C-69.22993307 83.4772399 -69.21168262 82.14195117 -69.1953125 80.80664062 C-69.14809803 77.53703854 -69.08225184 74.26887808 -69 71 C-65.95972786 71.72476705 -63.24691291 72.69799361 -60.375 73.9375 C-52.49474037 77.08731308 -45.12840108 78.17848705 -36.6875 78.3125 C-36.0054248 78.33022461 -35.32334961 78.34794922 -34.62060547 78.36621094 C-30.24649876 78.35975151 -27.46221217 77.70444498 -24 75 C-23.12177688 72.91466367 -23.12177688 72.91466367 -23 71 C-25.73036925 69.58468148 -28.46009725 68.40193533 -31.34375 67.3359375 C-45.76149047 61.88705493 -59.73072867 56.40323464 -67.0859375 41.8515625 C-70.40318084 33.42150374 -70.00106431 23.8141536 -67.109375 15.31640625 C-65.13444916 11.19270546 -62.26331434 8.15078625 -59 5 C-57.6078125 3.6078125 -57.6078125 3.6078125 -56.1875 2.1875 C-52.02054875 -0.67217242 -47.86793476 -1.81113145 -43 -3 C-42.39357666 -3.17273438 -41.78715332 -3.34546875 -41.16235352 -3.5234375 C-27.90424436 -6.44540081 -12.67838597 -4.22612866 0 0 Z " fill="#31A6FB" transform="translate(339,213)"/>
<path d="M0 0 C3.86002159 0.00514873 7.72003483 0.00034412 11.58005691 -0.00277233 C18.05934803 -0.00638793 24.53859323 -0.00167811 31.01787734 0.00790882 C38.44609649 0.01877482 45.87420564 0.01527146 53.30242211 0.00425601 C59.74302024 -0.00490283 66.1835858 -0.00606029 72.62418836 -0.00086665 C76.44312255 0.00220817 80.26200556 0.00278972 84.08093619 -0.00393963 C147.07285682 -0.09959077 147.07285682 -0.09959077 170.02251601 22.15927601 C170.71603164 22.85536976 171.40954726 23.55146351 172.12407851 24.26865101 C172.75571914 24.84099476 173.38735976 25.41333851 174.03814101 26.00302601 C179.15117581 30.73314631 182.5795117 36.31377877 186.12407851 42.26865101 C186.51595351 42.88740101 186.90782851 43.50615101 187.31157851 44.14365101 C195.68737594 57.75432182 196.42634116 72.98592635 196.41460586 88.52353382 C196.42060384 90.12494179 196.42741226 91.72634689 196.43496108 93.3277483 C196.4524985 97.64410578 196.45731122 101.96038378 196.45859265 106.27677345 C196.46002172 108.98258809 196.4643055 111.68838299 196.46958709 114.3941927 C196.48804635 123.85968256 196.4962628 133.32511639 196.49468398 142.79062366 C196.49348349 151.57251408 196.5145783 160.35415838 196.54617131 169.13598657 C196.57243807 176.7109498 196.58304695 184.28583316 196.58177316 191.86084151 C196.58126661 196.36945801 196.58677844 200.87785541 196.60812926 205.38642597 C196.62768833 209.6318235 196.62751736 213.87679681 196.613096 218.1222105 C196.61102854 219.66678656 196.61558322 221.21139046 196.62781692 222.75591946 C196.72810991 236.31236725 194.85059639 249.60288588 188.31157851 261.70615101 C187.97046035 262.36445911 187.62934218 263.02276722 187.27788711 263.70102406 C184.44064691 269.02462061 181.02957031 273.6770593 177.12407851 278.26865101 C176.46407851 279.25865101 175.80407851 280.24865101 175.12407851 281.26865101 C174.46407851 281.26865101 173.80407851 281.26865101 173.12407851 281.26865101 C173.12407851 281.92865101 173.12407851 282.58865101 173.12407851 283.26865101 C167.33652825 288.73603892 160.38085689 293.93332402 153.12407851 297.26865101 C152.46407851 296.93865101 151.80407851 296.60865101 151.12407851 296.26865101 C151.45407851 295.60865101 151.78407851 294.94865101 152.12407851 294.26865101 C152.78407851 294.26865101 153.44407851 294.26865101 154.12407851 294.26865101 C154.22720351 293.64990101 154.33032851 293.03115101 154.43657851 292.39365101 C155.12407851 290.26865101 155.12407851 290.26865101 158.12407851 288.26865101 C160.45607239 288.18960037 162.79240473 288.18066332 165.12407851 288.26865101 C165.12407851 286.61865101 165.12407851 284.96865101 165.12407851 283.26865101 C165.78407851 283.26865101 166.44407851 283.26865101 167.12407851 283.26865101 C167.12407851 282.60865101 167.12407851 281.94865101 167.12407851 281.26865101 C167.78407851 281.26865101 168.44407851 281.26865101 169.12407851 281.26865101 C169.12407851 280.27865101 169.12407851 279.28865101 169.12407851 278.26865101 C170.11407851 278.26865101 171.10407851 278.26865101 172.12407851 278.26865101 C172.20657851 277.69115101 172.28907851 277.11365101 172.37407851 276.51865101 C173.12407851 274.26865101 173.12407851 274.26865101 174.93657851 272.58115101 C177.63925994 269.72403064 178.75874348 266.81914567 180.19439101 263.19443226 C181.12407851 261.26865101 181.12407851 261.26865101 183.12407851 260.26865101 C184.0368799 257.6942752 184.0368799 257.6942752 184.74907851 254.70615101 C185.13966445 253.18827991 185.13966445 253.18827991 185.53814101 251.63974476 C185.73150039 250.85728382 185.92485976 250.07482288 186.12407851 249.26865101 C186.78407851 249.26865101 187.44407851 249.26865101 188.12407851 249.26865101 C188.09314101 247.56708851 188.09314101 247.56708851 188.06157851 245.83115101 C188.12407851 242.26865101 188.12407851 242.26865101 189.12407851 241.26865101 C189.22362955 239.33326165 189.25376519 237.39409332 189.24907851 235.45615101 C189.2529457 233.86867054 189.2529457 233.86867054 189.25689101 232.24911976 C189.23203929 229.37168266 189.23203929 229.37168266 188.55376601 227.06943226 C188.12407851 225.26865101 188.12407851 225.26865101 189.12407851 222.26865101 C189.21573137 220.2138917 189.24601755 218.15621747 189.24433303 216.09941578 C189.24570769 214.80792622 189.24708236 213.51643665 189.24849868 212.18581104 C189.24495951 210.75159145 189.2413247 209.31737209 189.2376039 207.88315296 C189.23732188 206.37534048 189.23748006 204.86752786 189.23804641 203.35971546 C189.23833379 199.26290434 189.23244656 195.16612239 189.22547245 191.06931806 C189.21922912 186.78918082 189.21863434 182.50904295 189.21744704 178.22890186 C189.21433662 170.12228039 189.20612712 162.01567238 189.19609755 153.90905684 C189.18492745 144.68062782 189.1794237 135.45219816 189.17440212 126.22376406 C189.16394428 107.23871874 189.14635041 88.25368596 189.12407851 69.26865101 C188.79407851 69.26865101 188.46407851 69.26865101 188.12407851 69.26865101 C187.79407851 66.29865101 187.46407851 63.32865101 187.12407851 60.26865101 C186.79407851 60.26865101 186.46407851 60.26865101 186.12407851 60.26865101 C185.46407851 56.63865101 184.80407851 53.00865101 184.12407851 49.26865101 C183.46407851 49.26865101 182.80407851 49.26865101 182.12407851 49.26865101 C181.79407851 47.61865101 181.46407851 45.96865101 181.12407851 44.26865101 C180.46407851 44.92865101 179.80407851 45.58865101 179.12407851 46.26865101 C179.00290664 45.70275257 178.88173476 45.13685413 178.75689101 44.55380726 C178.58931289 43.8203307 178.42173476 43.08685413 178.24907851 42.33115101 C178.0054457 41.23480335 178.0054457 41.23480335 177.75689101 40.11630726 C177.29446328 38.06164807 177.29446328 38.06164807 175.12407851 37.26865101 C175.12407851 36.60865101 175.12407851 35.94865101 175.12407851 35.26865101 C174.46407851 35.26865101 173.80407851 35.26865101 173.12407851 35.26865101 C170.12407851 30.88403562 170.12407851 30.88403562 170.12407851 28.26865101 C168.80407851 27.93865101 167.48407851 27.60865101 166.12407851 27.26865101 C166.12407851 26.60865101 166.12407851 25.94865101 166.12407851 25.26865101 C164.47407851 24.60865101 162.82407851 23.94865101 161.12407851 23.26865101 C161.12407851 22.60865101 161.12407851 21.94865101 161.12407851 21.26865101 C160.13407851 21.26865101 159.14407851 21.26865101 158.12407851 21.26865101 C157.79407851 20.60865101 157.46407851 19.94865101 157.12407851 19.26865101 C156.50532851 19.14490101 155.88657851 19.02115101 155.24907851 18.89365101 C153.12407851 18.26865101 153.12407851 18.26865101 151.90923476 16.30771351 C149.36825959 13.40533049 147.2042496 13.4662951 143.43657851 13.01865101 C142.25708632 12.86911976 141.07759414 12.71958851 139.86235976 12.56552601 C138.95872695 12.46755726 138.05509414 12.36958851 137.12407851 12.26865101 C137.12407851 11.60865101 137.12407851 10.94865101 137.12407851 10.26865101 C136.38157851 10.28927601 135.63907851 10.30990101 134.87407851 10.33115101 C132.12407851 10.26865101 132.12407851 10.26865101 130.31232619 9.79933357 C120.36733209 7.38752479 109.49619376 8.11937582 99.31548476 8.12338734 C97.77490066 8.12038739 96.23431729 8.11698297 94.69373488 8.11320972 C90.55173502 8.10445981 86.40975586 8.10203572 82.26774764 8.10139394 C79.67609358 8.10067937 77.08444467 8.09853761 74.49279189 8.09589672 C65.44198693 8.08667986 56.39119661 8.08255806 47.34038711 8.08334827 C38.91449251 8.08395114 30.48866149 8.07334921 22.062783 8.05760461 C14.80984581 8.0445362 7.55692947 8.03916394 0.30398059 8.03980368 C-4.0203224 8.04005847 -8.34456852 8.03721679 -12.66885972 8.02662563 C-16.72699914 8.01695409 -20.78502708 8.01685891 -24.8431704 8.02414227 C-26.33108583 8.02518861 -27.81900818 8.02282222 -29.30691171 8.01678181 C-31.33852721 8.00906784 -33.37018067 8.01490338 -35.40180039 8.02141285 C-36.53807878 8.02086808 -37.67435716 8.02032331 -38.84506822 8.01976204 C-41.93446803 8.27345876 -44.08400295 8.96324416 -46.87592149 10.26865101 C-51.61011483 12.33227375 -55.82617962 13.9518983 -60.87592149 12.26865101 C-68.24672994 14.20833744 -73.1864003 18.33422059 -78.87592149 23.26865101 C-79.71123399 23.99310413 -80.54654649 24.71755726 -81.40717149 25.46396351 C-87.96280602 30.91852546 -87.96280602 30.91852546 -92.81342149 37.78036976 C-93.15115586 38.45648304 -93.48889024 39.13259632 -93.83685899 39.82919788 C-94.17974961 40.53109241 -94.52264024 41.23298695 -94.87592149 41.95615101 C-95.21881211 42.6387096 -95.56170274 43.3212682 -95.91498399 44.02451038 C-98.89622955 50.0495849 -101.53778394 56.19667389 -103.06342149 62.76865101 C-103.46560899 64.50115101 -103.46560899 64.50115101 -103.87592149 66.26865101 C-104.53592149 66.26865101 -105.19592149 66.26865101 -105.87592149 66.26865101 C-105.89929319 88.2957302 -105.91692166 110.32280735 -105.92773366 132.34989643 C-105.93288753 142.57770166 -105.93991294 152.80549917 -105.95136094 163.03329945 C-105.96133552 171.94897991 -105.96778153 180.86465479 -105.97000998 189.78034067 C-105.97131237 194.5000687 -105.9743684 199.21978076 -105.98165154 203.93950367 C-105.98845551 208.38485643 -105.99052954 212.83018669 -105.98902917 217.27554417 C-105.98930353 218.90409308 -105.99128263 220.53264277 -105.99512696 222.16118717 C-106.00013266 224.39173789 -105.9988946 226.62220462 -105.996176 228.85275745 C-105.9970978 230.09902157 -105.99801959 231.34528568 -105.99896932 232.62931538 C-106.13801355 239.40794411 -106.13801355 239.40794411 -103.87592149 245.26865101 C-103.83511366 247.26823465 -103.83337792 249.26910355 -103.87592149 251.26865101 C-110.03106705 245.11350545 -109.26012603 230.22733599 -109.27139878 222.12799549 C-109.26397594 220.65249958 -109.25624499 219.17700519 -109.24823594 217.70151234 C-109.25067138 216.10302463 -109.25439793 214.50453846 -109.25929856 212.9060564 C-109.26860614 208.61280401 -109.25936982 204.31978366 -109.24596643 200.02654958 C-109.2345447 195.50785961 -109.2387675 190.98917929 -109.24071336 186.47047901 C-109.2415927 178.88957453 -109.23058931 171.30876009 -109.21210313 163.72787952 C-109.19091813 154.99078764 -109.18743271 146.25382725 -109.19366509 137.51671487 C-109.19937842 129.07144218 -109.1936914 120.6262153 -109.18249154 112.18094921 C-109.17787392 108.60431213 -109.17695927 105.02770334 -109.17907739 101.45106411 C-109.18097441 97.23444843 -109.17274888 93.01796478 -109.15701699 88.8013792 C-109.15281023 87.26319519 -109.15189895 85.72499769 -109.15470719 84.18681049 C-109.19262287 59.68515345 -102.46176351 39.91718765 -84.87592149 22.26865101 C-84.28681993 21.65634632 -83.69771836 21.04404163 -83.09076524 20.41318226 C-60.37595903 -1.40301623 -29.27540636 -0.05145025 0 0 Z " fill="#86929C" transform="translate(205.87592148780823,97.73134899139404)"/>
<path d="M0 0 C3.17963516 -0.04770158 6.35917659 -0.07623918 9.5390625 -0.1015625 C10.43117432 -0.11517822 11.32328613 -0.12879395 12.24243164 -0.14282227 C21.00975354 -0.19508049 29.94684565 0.71164503 36.6875 6.9375 C41.6682389 13.53361368 41.79202871 19.94770809 41 28 C38.2579638 34.39808448 32.96967971 37.16218532 26.890625 39.9765625 C18.67030371 43.0095776 9.63054715 42.47591564 1 42 C0 41 0 41 -0.11352539 37.12280273 C-0.11336621 35.39305833 -0.10766849 33.66330919 -0.09765625 31.93359375 C-0.0962413 31.02497086 -0.09482635 30.11634796 -0.09336853 29.18019104 C-0.08775193 26.26592779 -0.07519665 23.35174019 -0.0625 20.4375 C-0.05748714 18.46679798 -0.05292386 16.49609476 -0.04882812 14.52539062 C-0.03777711 9.68356441 -0.02050138 4.84179505 0 0 Z " fill="#1D3346" transform="translate(187,204)"/>
<path d="M0 0 C3.80134839 0.86394282 5.60060139 1.47578933 8 4.625 C8.66 5.73875 9.32 6.8525 10 8 C12.62521614 11.73672827 15.2063568 15.26442825 18.5625 18.375 C24.55861624 24.83235595 27.2172 33.7852716 30 42 C30.34321163 42.89670882 30.68642326 43.79341764 31.04003525 44.71729946 C32.10464723 48.35785223 32.25167331 51.37333996 32.25396729 55.16383362 C32.25708727 55.86215882 32.26020725 56.56048402 32.26342177 57.27997059 C32.27136624 59.60803957 32.26509192 61.93584532 32.25878906 64.26391602 C32.26150068 65.93826957 32.26506257 67.61262194 32.26940918 69.28697205 C32.27852008 73.82869688 32.27499296 78.37033075 32.26865101 82.91205716 C32.26357845 87.67590656 32.2682865 92.43974831 32.27142334 97.20359802 C32.27506179 105.21069735 32.27026963 113.21775979 32.26074219 121.22485352 C32.24988389 130.45649137 32.25336457 139.6880407 32.264395 148.91967636 C32.27350244 156.86219299 32.27473553 164.80468312 32.26951766 172.74720329 C32.26641356 177.48321762 32.26594491 182.21919051 32.27259064 186.9552021 C32.27841295 191.41628037 32.27427877 195.87724593 32.26280212 200.33831215 C32.26018034 201.96637536 32.26087759 203.59444823 32.26532745 205.22250748 C32.32729959 230.2219095 32.32729959 230.2219095 26.3125 241.25 C25.9623584 241.92184326 25.6122168 242.59368652 25.25146484 243.28588867 C22.37505366 248.65566484 18.94408745 253.36303233 15 258 C14.34 258.99 13.68 259.98 13 261 C12.34 261 11.68 261 11 261 C11 261.66 11 262.32 11 263 C5.21244973 268.46738791 -1.74322162 273.66467302 -9 277 C-9.66 276.67 -10.32 276.34 -11 276 C-10.67 275.34 -10.34 274.68 -10 274 C-9.34 274 -8.68 274 -8 274 C-7.896875 273.38125 -7.79375 272.7625 -7.6875 272.125 C-7 270 -7 270 -4 268 C-1.66800612 267.92094936 0.66832622 267.91201231 3 268 C3 266.35 3 264.7 3 263 C3.66 263 4.32 263 5 263 C5 262.34 5 261.68 5 261 C5.66 261 6.32 261 7 261 C7 260.01 7 259.02 7 258 C7.99 258 8.98 258 10 258 C10.12375 257.13375 10.12375 257.13375 10.25 256.25 C11 254 11 254 12.8125 252.3125 C15.51518143 249.45537963 16.63466496 246.55049466 18.0703125 242.92578125 C19 241 19 241 21 240 C21.91280138 237.42562419 21.91280138 237.42562419 22.625 234.4375 C22.88539063 233.42558594 23.14578125 232.41367187 23.4140625 231.37109375 C23.60742188 230.58863281 23.80078125 229.80617188 24 229 C24.66 229 25.32 229 26 229 C25.979375 227.865625 25.95875 226.73125 25.9375 225.5625 C26 222 26 222 27 221 C27.09955104 219.06461065 27.12968668 217.12544231 27.125 215.1875 C27.12757813 214.12917969 27.13015625 213.07085937 27.1328125 211.98046875 C27.10796078 209.10303165 27.10796078 209.10303165 26.4296875 206.80078125 C26 205 26 205 27 202 C27.09165285 199.94524069 27.12193904 197.88756647 27.12025452 195.83076477 C27.12162918 194.53927521 27.12300385 193.24778564 27.12442017 191.91716003 C27.120881 190.48294044 27.11724619 189.04872108 27.11352539 187.61450195 C27.11324337 186.10668947 27.11340155 184.59887685 27.1139679 183.09106445 C27.11425528 178.99425333 27.10836805 174.89747138 27.10139394 170.80066705 C27.09515061 166.52052981 27.09455582 162.24039194 27.09336853 157.96025085 C27.09025811 149.85362939 27.08204861 141.74702137 27.07201904 133.64040583 C27.06084894 124.41197681 27.05534519 115.18354715 27.05032361 105.95511305 C27.03986577 86.97006773 27.0222719 67.98503495 27 49 C26.67 49 26.34 49 26 49 C25.505 44.545 25.505 44.545 25 40 C24.67 40 24.34 40 24 40 C23.34 36.37 22.68 32.74 22 29 C21.34 29 20.68 29 20 29 C19.505 26.525 19.505 26.525 19 24 C18.34 24.66 17.68 25.32 17 26 C16.87882812 25.43410156 16.75765625 24.86820313 16.6328125 24.28515625 C16.46523438 23.55167969 16.29765625 22.81820312 16.125 22.0625 C15.96257812 21.33160156 15.80015625 20.60070312 15.6328125 19.84765625 C15.17038477 17.79299706 15.17038477 17.79299706 13 17 C13 16.34 13 15.68 13 15 C12.34 15 11.68 15 11 15 C8 10.61538462 8 10.61538462 8 8 C6.68 7.67 5.36 7.34 4 7 C4 6.34 4 5.68 4 5 C1.525 4.01 1.525 4.01 -1 3 C-0.67 2.01 -0.34 1.02 0 0 Z " fill="#506171" transform="translate(368,118)"/>
<path d="M0 0 C3.86002159 0.00514873 7.72003483 0.00034412 11.58005691 -0.00277233 C18.05934803 -0.00638793 24.53859323 -0.00167811 31.01787734 0.00790882 C38.44609649 0.01877482 45.87420564 0.01527146 53.30242211 0.00425601 C59.74302024 -0.00490283 66.1835858 -0.00606029 72.62418836 -0.00086665 C76.44312255 0.00220817 80.26200556 0.00278972 84.08093619 -0.00393963 C147.07285682 -0.09959077 147.07285682 -0.09959077 170.02251601 22.15927601 C170.71603164 22.85536976 171.40954726 23.55146351 172.12407851 24.26865101 C172.75571914 24.84099476 173.38735976 25.41333851 174.03814101 26.00302601 C179.15117581 30.73314631 182.5795117 36.31377877 186.12407851 42.26865101 C186.71189101 43.19677601 186.71189101 43.19677601 187.31157851 44.14365101 C195.70179858 57.77775861 196.42687963 73.02438223 196.39873672 88.58701038 C196.40309364 90.19490767 196.40828002 91.80280288 196.41422439 93.41069508 C196.42751781 97.74332041 196.4282041 102.075858 196.42566109 106.40849972 C196.42458514 110.03904234 196.42949039 113.66956765 196.43426651 117.30010653 C196.4453275 125.87020115 196.44581784 134.44025193 196.43975234 143.01035023 C196.43371 151.82408978 196.44603803 160.63766981 196.46732241 169.45138216 C196.48498359 177.04666355 196.49093281 184.64189435 196.48768467 192.23719549 C196.48587944 196.76128996 196.48843185 201.28527051 196.50239921 205.8093462 C196.51504741 210.06452822 196.51296794 214.31946266 196.49998832 218.57464123 C196.49763843 220.12734215 196.50029959 221.6800609 196.50861144 223.23274136 C196.55361237 232.29945513 195.85357862 240.56313854 193.12407851 249.26865101 C191.93738054 245.70855709 192.48103672 243.93574382 193.12407851 240.26865101 C193.21862207 237.88207454 193.26305759 235.49325173 193.27124953 233.10481739 C193.27676456 232.05732959 193.27676456 232.05732959 193.28239101 230.98868042 C193.29335865 228.66069099 193.29725987 226.33274631 193.30108047 224.00473499 C193.30735043 222.33038157 193.3139977 220.65602952 193.32099319 218.98167896 C193.3419755 213.49271064 193.35239126 208.00374223 193.36235976 202.51474476 C193.36640973 200.61992408 193.37052672 198.72510355 193.37470984 196.83028316 C193.39375002 187.92476147 193.40798258 179.01924799 193.41632181 170.11370987 C193.42608511 159.85870061 193.45238587 149.60390772 193.49282271 139.34897465 C193.52305859 131.40646388 193.53779782 123.46401488 193.54110283 115.52144772 C193.54344507 110.78535026 193.55229733 106.04948425 193.577564 101.31344891 C193.60098048 96.85230026 193.60502389 92.39153323 193.59480262 87.93033886 C193.59431041 86.30226077 193.60053692 84.67416302 193.61435866 83.04614353 C193.71637159 70.30707954 191.93821116 59.25918754 185.12407851 48.26865101 C184.64970351 47.07240101 184.17532851 45.87615101 183.68657851 44.64365101 C181.98602441 40.97045414 180.11266903 38.95838247 177.12407851 36.26865101 C174.50959813 33.8552845 172.92208456 31.34024467 171.12407851 28.26865101 C170.56720351 27.54677601 170.01032851 26.82490101 169.43657851 26.08115101 C168.12407851 24.26865101 168.12407851 24.26865101 168.12407851 22.26865101 C165.48407851 21.93865101 162.84407851 21.60865101 160.12407851 21.26865101 C160.12407851 20.27865101 160.12407851 19.28865101 160.12407851 18.26865101 C159.46407851 18.26865101 158.80407851 18.26865101 158.12407851 18.26865101 C157.1021086 17.29111457 156.10428226 16.28806291 155.12407851 15.26865101 C154.13407851 14.60865101 153.14407851 13.94865101 152.12407851 13.26865101 C152.12407851 12.60865101 152.12407851 11.94865101 152.12407851 11.26865101 C136.8742858 5.93122356 121.55004568 3.81438755 105.49443984 3.83285999 C103.90055055 3.82385276 102.30666772 3.81363788 100.71279311 3.80232716 C96.43350544 3.77612512 92.15439832 3.7688065 87.87503815 3.7668798 C85.1879138 3.7647302 82.5008337 3.75829357 79.81372046 3.75038815 C70.40078668 3.72273389 60.98797931 3.71037019 51.57500625 3.71274281 C42.86230192 3.71454272 34.15015621 3.68290823 25.43759304 3.63551182 C17.904919 3.5960245 10.37242563 3.58020192 2.83964914 3.58210903 C-1.6362039 3.58286634 -6.11155925 3.57474417 -10.58730721 3.54257488 C-35.89280006 3.27680334 -35.89280006 3.27680334 -60.40810227 9.07811451 C-61.55248261 9.47099155 -62.69686296 9.8638686 -63.87592149 10.26865101 C-64.53592149 9.93865101 -65.19592149 9.60865101 -65.87592149 9.26865101 C-46.83443549 -2.70905793 -21.58529194 -0.03793521 0 0 Z " fill="#C9CFD4" transform="translate(205.87592148780823,97.73134899139404)"/>
<path d="M0 0 C1.66037452 -0.00379023 3.32074586 -0.00929605 4.98110962 -0.01637268 C9.46293076 -0.03025826 13.94436498 -0.01920384 18.42616439 -0.00266147 C23.13919934 0.01127176 27.85221368 0.00471915 32.56526184 0.00120544 C40.482861 -0.0014915 48.40030813 0.01192989 56.31787109 0.03515625 C65.43428825 0.06171667 74.55045063 0.06352574 83.66689318 0.05176789 C92.4763035 0.04093359 101.28562287 0.04722423 110.09502602 0.06132317 C113.8246714 0.06703883 117.55424924 0.06703536 121.28389549 0.06225777 C125.69094508 0.05743424 130.09772108 0.06780851 134.50471878 0.08921242 C136.10894282 0.09470983 137.71319355 0.09531176 139.31741905 0.09025955 C152.59698434 0.05372858 166.65145119 0.45929453 178.30786133 7.50170898 C175.31254594 8.50014745 174.13530401 8.50903659 171.12036133 8.06420898 C169.86223633 7.87858398 168.60411133 7.69295898 167.30786133 7.50170898 C167.30786133 6.84170898 167.30786133 6.18170898 167.30786133 5.50170898 C166.56536133 5.52233398 165.82286133 5.54295898 165.05786133 5.56420898 C162.30786133 5.50170898 162.30786133 5.50170898 160.49610901 5.03239155 C150.55111491 2.62058277 139.67997657 3.3524338 129.49926758 3.35644531 C127.95868347 3.35344537 126.41810011 3.35004095 124.8775177 3.3462677 C120.73551783 3.33751779 116.59353868 3.3350937 112.45153046 3.33445191 C109.85987639 3.33373734 107.26822748 3.33159559 104.67657471 3.3289547 C95.62576975 3.31973784 86.57497942 3.31561603 77.52416992 3.31640625 C69.09827532 3.31700912 60.67244431 3.30640718 52.24656582 3.29066259 C44.99362863 3.27759418 37.74071228 3.27222191 30.4877634 3.27286166 C26.16346042 3.27311644 21.8392143 3.27027477 17.5149231 3.25968361 C13.45678368 3.25001207 9.39875573 3.24991689 5.34061241 3.25720024 C3.85269699 3.25824659 2.36477464 3.2558802 0.87687111 3.24983978 C-1.1547444 3.24212582 -3.18639786 3.24796135 -5.21801758 3.25447083 C-6.35429596 3.25392606 -7.49057434 3.25338129 -8.6612854 3.25282001 C-11.75068522 3.50651674 -13.90022013 4.19630213 -16.69213867 5.50170898 C-20.35819694 7.09973439 -23.72719274 7.94846072 -27.69213867 8.50170898 C-27.69213867 7.18170898 -27.69213867 5.86170898 -27.69213867 4.50170898 C-18.49948251 0.16986413 -9.92029416 -0.0649646 0 0 Z " fill="#5B6D7C" transform="translate(175.692138671875,102.498291015625)"/>
<path d="M0 0 C3.80134839 0.86394282 5.60060139 1.47578933 8 4.625 C8.66 5.73875 9.32 6.8525 10 8 C12.62521614 11.73672827 15.2063568 15.26442825 18.5625 18.375 C24.55861624 24.83235595 27.2172 33.7852716 30 42 C30.34321163 42.89670882 30.68642326 43.79341764 31.04003525 44.71729946 C32.10464723 48.35785223 32.25167331 51.37333996 32.25396729 55.16383362 C32.25708727 55.86215882 32.26020725 56.56048402 32.26342177 57.27997059 C32.27136624 59.60803957 32.26509192 61.93584532 32.25878906 64.26391602 C32.26150068 65.93826957 32.26506257 67.61262194 32.26940918 69.28697205 C32.27852008 73.82869688 32.27499296 78.37033075 32.26865101 82.91205716 C32.26357845 87.67590656 32.2682865 92.43974831 32.27142334 97.20359802 C32.27506179 105.21069735 32.27026963 113.21775979 32.26074219 121.22485352 C32.24988389 130.45649137 32.25336457 139.6880407 32.264395 148.91967636 C32.27350244 156.86219299 32.27473553 164.80468312 32.26951766 172.74720329 C32.26641356 177.48321762 32.26594491 182.21919051 32.27259064 186.9552021 C32.27841295 191.41628037 32.27427877 195.87724593 32.26280212 200.33831215 C32.26018034 201.96637536 32.26087759 203.59444823 32.26532745 205.22250748 C32.32558394 229.52982307 32.32558394 229.52982307 26.875 240.3125 C26.06675781 241.94638672 26.06675781 241.94638672 25.2421875 243.61328125 C24.83226562 244.40089844 24.42234375 245.18851563 24 246 C22.84058962 242.52176885 23.29179116 240.54104422 24 237 C24.66 237 25.32 237 26 237 C26.12375 235.824375 26.2475 234.64875 26.375 233.4375 C26.66083717 230.72204692 27.17925577 228.43409995 28.00958538 225.81279755 C29.02860632 221.88987429 29.254183 218.60689635 29.26069641 214.56164551 C29.26452196 213.84598183 29.26834751 213.13031816 29.27228898 212.3929677 C29.28254706 210.01255319 29.27864067 207.63238313 29.2746582 205.25195312 C29.2790086 203.53815998 29.28419285 201.82436877 29.29014587 200.11058044 C29.30351019 195.46808902 29.30411752 190.82567913 29.30158257 186.18317223 C29.30051136 182.30387676 29.30539995 178.42459768 29.310188 174.54530573 C29.32127378 165.39298426 29.32172547 156.24070384 29.31567383 147.08837891 C29.3096307 137.65264753 29.32195578 128.21706515 29.3432439 118.7813592 C29.36086455 110.67246123 29.36686062 102.56361068 29.36360615 94.45469427 C29.36179428 89.61490163 29.36442018 84.77521534 29.37832069 79.93544006 C29.39090235 75.38486566 29.38895174 70.83452357 29.37590981 66.28395271 C29.37354541 64.61627689 29.37627381 62.9485847 29.38453293 61.28092766 C29.39501374 58.99980154 29.38688978 56.71945309 29.3742218 54.43835449 C29.37438954 53.1633886 29.37455729 51.8884227 29.37473011 50.57482147 C28.9408644 46.43586277 27.80967294 43.7196953 26 40 C25.34 40 24.68 40 24 40 C23.01 34.555 23.01 34.555 22 29 C21.34 29 20.68 29 20 29 C19.505 26.525 19.505 26.525 19 24 C18.34 24.66 17.68 25.32 17 26 C16.87882812 25.43410156 16.75765625 24.86820313 16.6328125 24.28515625 C16.46523438 23.55167969 16.29765625 22.81820312 16.125 22.0625 C15.96257812 21.33160156 15.80015625 20.60070312 15.6328125 19.84765625 C15.17038477 17.79299706 15.17038477 17.79299706 13 17 C13 16.34 13 15.68 13 15 C12.34 15 11.68 15 11 15 C8 10.61538462 8 10.61538462 8 8 C6.68 7.67 5.36 7.34 4 7 C4 6.34 4 5.68 4 5 C1.525 4.01 1.525 4.01 -1 3 C-0.67 2.01 -0.34 1.02 0 0 Z " fill="#75828F" transform="translate(368,118)"/>
<path d="M0 0 C7.61715864 -0.05067075 15.23427387 -0.08572127 22.8515625 -0.10986328 C25.4433759 -0.11992668 28.03517793 -0.13357864 30.62695312 -0.15087891 C34.35028894 -0.17511195 38.07347477 -0.18647974 41.796875 -0.1953125 C43.53768341 -0.21079636 43.53768341 -0.21079636 45.31365967 -0.22659302 C46.93488739 -0.22681961 46.93488739 -0.22681961 48.58886719 -0.22705078 C50.01449982 -0.23371262 50.01449982 -0.23371262 51.46893311 -0.24050903 C54 0 54 0 58 2 C53.05 2 48.1 2 43 2 C43 2.33 43 2.66 43 3 C28.81 3 14.62 3 0 3 C0 47.55 0 92.1 0 138 C8.58 138 17.16 138 26 138 C25.98839844 134.99132812 25.97679687 131.98265625 25.96484375 128.8828125 C25.9570507 125.97705185 25.95097535 123.07129236 25.94506836 120.16552734 C25.94003169 118.14208457 25.93320211 116.11864544 25.92456055 114.09521484 C25.91246588 111.19107157 25.90676512 108.28697631 25.90234375 105.3828125 C25.89718246 104.47443634 25.89202118 103.56606018 25.88670349 102.63015747 C25.88659019 101.36907669 25.88659019 101.36907669 25.88647461 100.08251953 C25.884254 99.34083527 25.88203339 98.599151 25.87974548 97.83499146 C26 96 26 96 27 94 C36.57 94 46.14 94 56 94 C52.55366118 96.29755922 51.28931609 96.23643976 47.23828125 96.1953125 C46.12001953 96.18886719 45.00175781 96.18242187 43.84960938 96.17578125 C42.09874023 96.15064453 42.09874023 96.15064453 40.3125 96.125 C39.13365234 96.11597656 37.95480469 96.10695313 36.74023438 96.09765625 C33.82661974 96.07406423 30.91341108 96.0411454 28 96 C28.00785522 97.84730713 28.00785522 97.84730713 28.01586914 99.73193359 C28.03393553 104.29035722 28.04543804 108.84877767 28.05493164 113.40722656 C28.0599681 115.38216687 28.06679751 117.35710343 28.07543945 119.33203125 C28.08753508 122.16667605 28.0932351 125.00127166 28.09765625 127.8359375 C28.10281754 128.72243988 28.10797882 129.60894226 28.11329651 130.52230835 C28.11387171 136.77225659 28.11387171 136.77225659 27 139 C17.76 139 8.52 139 -1 139 C-1.02255309 121.17195895 -1.04098273 103.34393002 -1.05181217 85.51587868 C-1.05697359 77.23844518 -1.06401338 68.96102116 -1.07543945 60.68359375 C-1.08539097 53.47095972 -1.09185455 46.25833255 -1.09408849 39.04569185 C-1.0953948 35.22488644 -1.09847564 31.40410067 -1.10573006 27.58330154 C-1.11249764 23.98993139 -1.11461545 20.39658904 -1.11310768 16.80321312 C-1.11351566 14.84981813 -1.11890703 12.89642619 -1.12442017 10.94303894 C-1.1230455 9.78755051 -1.12167084 8.63206207 -1.12025452 7.44155884 C-1.12117631 6.43311731 -1.1220981 5.42467579 -1.12304783 4.38567543 C-1 2 -1 2 0 0 Z " fill="#3F96D5" transform="translate(160,177)"/>
<path d="M0 0 C1.65 0 3.3 0 5 0 C1.65294599 2.90687072 -1.56526679 3.9562056 -5.8125 5.125 C-6.99457031 5.45757812 -8.17664063 5.79015625 -9.39453125 6.1328125 C-15.29490298 7.55197016 -20.95833307 8.12506909 -27.02075195 8.12698364 C-27.69149655 8.12854363 -28.36224115 8.13010362 -29.05331135 8.13171089 C-31.28165757 8.13567224 -33.50993462 8.13255024 -35.73828125 8.12939453 C-37.34369954 8.13075073 -38.94911752 8.1325319 -40.55453491 8.13470459 C-44.901567 8.13925287 -49.24857527 8.13750008 -53.59560776 8.1343255 C-58.15138563 8.13178845 -62.7071615 8.13414319 -67.26293945 8.13571167 C-74.91260137 8.13752943 -82.56225362 8.13513736 -90.21191406 8.13037109 C-99.04774786 8.12492923 -107.88355858 8.12669217 -116.71939182 8.1321975 C-124.31448597 8.13673982 -131.90957317 8.13737369 -139.50466824 8.13475883 C-144.03702103 8.13320222 -148.56936299 8.13298541 -153.10171509 8.13629532 C-157.36330873 8.13919027 -161.62487271 8.13716849 -165.88646317 8.13140106 C-167.4477089 8.13008218 -169.00895715 8.13045274 -170.57020187 8.13266373 C-172.70658397 8.13540957 -174.84287189 8.13195234 -176.97924805 8.12698364 C-178.77002022 8.1264181 -178.77002022 8.1264181 -180.5969696 8.12584114 C-184.12489042 7.99538166 -187.51651433 7.55994203 -191 7 C-191 6.67 -191 6.34 -191 6 C-189.64274559 5.99641747 -189.64274559 5.99641747 -188.2580719 5.99276257 C-166.23220332 5.93360326 -144.20644407 5.85804712 -122.18069458 5.76428509 C-111.52916453 5.71933689 -100.87766784 5.67991992 -90.22607422 5.65356445 C-80.94116666 5.63057653 -71.65636477 5.59716952 -62.37154102 5.55129844 C-57.45618438 5.52737703 -52.54093231 5.50864113 -47.6255188 5.50238609 C-42.99619596 5.4963304 -38.36714067 5.47631286 -33.73791695 5.44572449 C-32.04166078 5.43695207 -30.34536964 5.43322003 -28.64909172 5.43499184 C-26.32630128 5.43665157 -24.00431974 5.41988687 -21.68164062 5.39872742 C-19.73481384 5.39181397 -19.73481384 5.39181397 -17.74865723 5.38476086 C-14.008178 5.00083939 -11.23869888 4.13337369 -7.8217392 2.66054279 C-5.1922346 1.70711307 -2.75972763 1.79302043 0 2 C0 1.34 0 0.68 0 0 Z " fill="#667580" transform="translate(352,395)"/>
<path d="M0 0 C21.33281487 -0.07031994 42.66561042 -0.12310018 63.99851799 -0.15543652 C73.90546435 -0.17085503 83.81233837 -0.19184773 93.71923828 -0.22631836 C102.3618049 -0.25637526 111.00431909 -0.27561137 119.64693654 -0.28226548 C124.21613572 -0.28615036 128.78518501 -0.29517361 133.35433578 -0.31719017 C137.67008609 -0.33781384 141.98562721 -0.34378257 146.30142212 -0.33932304 C147.87095407 -0.34013684 149.44049429 -0.34594638 151.00998306 -0.35761642 C159.31023181 -0.4162161 167.36969711 -0.01257498 175.58010864 1.27128601 C176.30498596 1.37929372 177.02986328 1.48730142 177.77670658 1.59858209 C184.49861273 2.76504335 190.2017956 5.08218324 195 10 C195.99 10.66 196.98 11.32 198 12 C198 12.66 198 13.32 198 14 C198.66 14 199.32 14 200 14 C200 14.99 200 15.98 200 17 C199.34 17 198.68 17 198 17 C197.67 16.34 197.34 15.68 197 15 C196.4225 14.896875 195.845 14.79375 195.25 14.6875 C193 14 193 14 190.75 11.6875 C179.75800124 0.9453194 161.5841526 1.55098171 147.12890625 1.56762695 C145.51079576 1.55858177 143.89269204 1.54824795 142.27459717 1.53674316 C137.93682123 1.50947006 133.5991763 1.49992966 129.26132584 1.49388909 C124.70761298 1.48442701 120.15399508 1.45821814 115.6003418 1.43388367 C107.00189688 1.39042844 98.40347061 1.36175327 89.80494976 1.33856028 C80.00543536 1.3113953 70.20601747 1.26749137 60.40657234 1.22227156 C40.27110035 1.1297262 20.13559947 1.05790854 0 1 C0 0.67 0 0.34 0 0 Z " fill="#70808D" transform="translate(166,102)"/>
<path d="M0 0 C1.41791408 0.45445964 2.83428046 0.91374944 4.25 1.375 C5.43335938 1.75785156 5.43335938 1.75785156 6.640625 2.1484375 C9 3 9 3 11.03125 4.03125 C17.27862181 7.10535359 24.47516988 7.21732037 31.3125 7.3125 C31.9940918 7.33006348 32.67568359 7.34762695 33.37792969 7.36572266 C37.7701667 7.36032148 40.5237483 6.70375132 44 4 C44.66 3.01 45.32 2.02 46 1 C46.3125 3.75 46.3125 3.75 46 7 C41.75660522 11.24339478 38.16595956 12.16186761 32.3125 12.25 C20.95206139 12.13576095 9.49142687 10.67036389 0 4 C0 2.68 0 1.36 0 0 Z " fill="#48AAF2" transform="translate(271,284)"/>
<path d="M0 0 C1.01000848 0.16173675 2.02001696 0.32347349 3.06063175 0.49011135 C6.76908148 0.97011126 10.29378 1.13805433 14.02989197 1.15821838 C14.70149198 1.16315636 15.37309198 1.16809434 16.06504351 1.17318195 C18.29588284 1.18843353 20.52669367 1.19688373 22.75756836 1.20532227 C24.36449429 1.21491052 25.97141774 1.22492115 27.57833862 1.23532104 C31.9269431 1.26227357 36.27555832 1.28333517 40.62419963 1.30332303 C45.17392972 1.32524237 49.72362706 1.35260187 54.27333069 1.37937927 C62.88270126 1.42922592 71.4920901 1.47419443 80.10149628 1.51740164 C89.90560495 1.56684275 99.70968075 1.62173532 109.51375759 1.67708123 C129.67580774 1.79077799 149.8378893 1.89764367 170 2 C170 2.33 170 2.66 170 3 C114.23 3 58.46 3 1 3 C0.67 2.01 0.34 1.02 0 0 Z " fill="#0F2639" transform="translate(159,398)"/>
<path d="M0 0 C1.3308911 2.66178221 1.11268993 4.68739396 1.09765625 7.6640625 C1.09443359 8.78554687 1.09121094 9.90703125 1.08789062 11.0625 C1.07532227 12.8259375 1.07532227 12.8259375 1.0625 14.625 C1.05798828 15.80835938 1.05347656 16.99171875 1.04882812 18.2109375 C1.03701467 21.14067507 1.02054258 24.07031272 1 27 C-0.65 27 -2.3 27 -4 27 C-2.68 26.67 -1.36 26.34 0 26 C0 18.41 0 10.82 0 3 C-0.99 3 -1.98 3 -3 3 C-3 2.34 -3 1.68 -3 1 C-3.69867188 0.93941406 -4.39734375 0.87882813 -5.1171875 0.81640625 C-6.02726562 0.73261719 -6.93734375 0.64882812 -7.875 0.5625 C-8.77992188 0.48128906 -9.68484375 0.40007812 -10.6171875 0.31640625 C-13 0 -13 0 -15 -1 C-29.92753669 -2.46052147 -46.26510099 -1.46436418 -58.59375 7.828125 C-59.0578125 8.21484375 -59.521875 8.6015625 -60 9 C-60.66 8.67 -61.32 8.34 -62 8 C-56.11153997 2.01197664 -51.23637117 -1.2787549 -43 -3 C-42.39575195 -3.17055908 -41.79150391 -3.34111816 -41.16894531 -3.5168457 C-27.92656596 -6.46671837 -12.66592077 -4.22197359 0 0 Z " fill="#4196D3" transform="translate(339,213)"/>
<path d="M0 0 C5.59438138 0.44755051 8.41034891 1.91081176 13 5 C15.58220521 6.34624936 18.22142203 7.55177584 20.875 8.75 C21.56335938 9.06582031 22.25171875 9.38164062 22.9609375 9.70703125 C24.6385352 10.47593019 26.31897632 11.23862032 28 12 C28 12.66 28 13.32 28 14 C21.58076669 13.70887831 17.37899794 12.54784971 12 9 C12 8.34 12 7.68 12 7 C9.03 6.505 9.03 6.505 6 6 C6 6.99 6 7.98 6 9 C6.71929687 9.2784375 7.43859375 9.556875 8.1796875 9.84375 C10.89592235 10.95733105 13.50152497 12.18425105 16.125 13.5 C16.97320312 13.9228125 17.82140625 14.345625 18.6953125 14.78125 C21 16 21 16 24 18 C13.8 16.8 13.8 16.8 10 13 C9.278125 12.773125 8.55625 12.54625 7.8125 12.3125 C3.71570633 10.40066295 1.0458095 7.28280332 -2 4 C-1.34 2.68 -0.68 1.36 0 0 Z " fill="#596B7A" transform="translate(130,370)"/>
<path d="M0 0 C0.66 0.33 1.32 0.66 2 1 C0.8966898 2.58393026 -0.20768544 4.16711868 -1.3125 5.75 C-1.92738281 6.63171875 -2.54226563 7.5134375 -3.17578125 8.421875 C-3.77777344 9.27265625 -4.37976563 10.1234375 -5 11 C-5.52980469 11.76828125 -6.05960937 12.5365625 -6.60546875 13.328125 C-7.06566406 13.87984375 -7.52585937 14.4315625 -8 15 C-8.66 15 -9.32 15 -10 15 C-10 15.66 -10 16.32 -10 17 C-15.78755027 22.46738791 -22.74322162 27.66467302 -30 31 C-30.66 30.67 -31.32 30.34 -32 30 C-31.67 29.34 -31.34 28.68 -31 28 C-30.34 28 -29.68 28 -29 28 C-28.8453125 27.071875 -28.8453125 27.071875 -28.6875 26.125 C-28 24 -28 24 -25 22 C-22.66800612 21.92094936 -20.33167378 21.91201231 -18 22 C-18 20.35 -18 18.7 -18 17 C-17.34 17 -16.68 17 -16 17 C-16 16.34 -16 15.68 -16 15 C-15.34 15 -14.68 15 -14 15 C-14 14.01 -14 13.02 -14 12 C-13.01 12 -12.02 12 -11 12 C-10.9175 11.4225 -10.835 10.845 -10.75 10.25 C-9.78188938 7.34566813 -8.24558843 6.04744828 -6 4 C-5.4225 3.4225 -4.845 2.845 -4.25 2.25 C-3.8375 1.8375 -3.425 1.425 -3 1 C-2.01 1.33 -1.02 1.66 0 2 C0 1.34 0 0.68 0 0 Z " fill="#405261" transform="translate(389,364)"/>
<path d="M0 0 C-5.58364823 3.76571625 -5.58364823 3.76571625 -8.3671875 5.33203125 C-11.38409785 7.24333795 -13.82747874 9.43898016 -16.4375 11.875 C-19.28023993 14.51278938 -22.06616114 17.05160569 -25.125 19.4375 C-29.64732077 23.46826417 -33.25776271 28.25151668 -37 33 C-37.33 32.34 -37.66 31.68 -38 31 C-35.38357324 23.50336854 -31.8939519 18.14904118 -25.375 13.65625 C-22.01080253 11.31016492 -19.0710289 8.55467113 -16.04296875 5.796875 C-11.36767397 1.68476104 -6.46593073 -2.15531024 0 0 Z " fill="#485A69" transform="translate(148,110)"/>
<path d="M0 0 C3.20308113 -0.04390095 6.40608379 -0.07033168 9.609375 -0.09375 C10.51091309 -0.10631836 11.41245117 -0.11888672 12.34130859 -0.13183594 C18.64158685 -0.16635801 24.17080112 0.4228805 30 3 C26.98968256 3.93423645 26.13349732 4.04449911 23 3 C21.37432921 2.85284801 19.74413143 2.75278133 18.11328125 2.68359375 C16.845448 2.62643188 16.845448 2.62643188 15.55200195 2.56811523 C14.48296631 2.52501221 13.41393066 2.48190918 12.3125 2.4375 C8.909375 2.293125 5.50625 2.14875 2 2 C2 14.54 2 27.08 2 40 C7.61 40.33 13.22 40.66 19 41 C19 41.33 19 41.66 19 42 C16.02077407 42.02683987 13.04178705 42.04676037 10.0625 42.0625 C9.21236328 42.07087891 8.36222656 42.07925781 7.48632812 42.08789062 C6.67744141 42.09111328 5.86855469 42.09433594 5.03515625 42.09765625 C4.2862915 42.10289307 3.53742676 42.10812988 2.76586914 42.11352539 C1 42 1 42 0 41 C-0.08871273 37.97022196 -0.1151935 34.96332978 -0.09765625 31.93359375 C-0.0962413 31.02497086 -0.09482635 30.11634796 -0.09336853 29.18019104 C-0.08775193 26.26592779 -0.07519665 23.35174019 -0.0625 20.4375 C-0.05748714 18.46679798 -0.05292386 16.49609476 -0.04882812 14.52539062 C-0.03777711 9.68356441 -0.02050138 4.84179505 0 0 Z " fill="#194F77" transform="translate(187,204)"/>
<path d="M0 0 C3.60409919 -0.05800828 7.20807851 -0.09359869 10.8125 -0.125 C12.34874023 -0.15013672 12.34874023 -0.15013672 13.91601562 -0.17578125 C14.89892578 -0.18222656 15.88183594 -0.18867188 16.89453125 -0.1953125 C17.80050049 -0.20578613 18.70646973 -0.21625977 19.63989258 -0.22705078 C22 0 22 0 25 2 C17.08 1.67 9.16 1.34 1 1 C1.33 14.53 1.66 28.06 2 42 C16.9662327 42.48467375 16.9662327 42.48467375 29.8125 38.875 C32 38 32 38 34 38 C33.5 39.8125 33.5 39.8125 32 42 C25.27858733 45.26648093 19.38343196 45.3676964 12 45.1875 C10.93910156 45.17396484 9.87820312 45.16042969 8.78515625 45.14648438 C6.18956313 45.11140879 3.59505933 45.06225844 1 45 C-0.15410254 42.69179492 -0.1210297 41.39215724 -0.11352539 38.82568359 C-0.11344986 37.96494232 -0.11337433 37.10420105 -0.11329651 36.21737671 C-0.10813522 35.28712677 -0.10297394 34.35687683 -0.09765625 33.3984375 C-0.0962413 32.44683746 -0.09482635 31.49523743 -0.09336853 30.51480103 C-0.08776012 27.46816903 -0.07520619 24.42160987 -0.0625 21.375 C-0.05748608 19.31250106 -0.05292299 17.25000097 -0.04882812 15.1875 C-0.03778796 10.12497183 -0.02051767 5.06249827 0 0 Z " fill="#42A1E5" transform="translate(186,203)"/>
<path d="M0 0 C3.80134839 0.86394282 5.60060139 1.47578933 8 4.625 C8.66 5.73875 9.32 6.8525 10 8 C12.62521614 11.73672827 15.2063568 15.26442825 18.5625 18.375 C22.03114623 22.11046517 23.87215884 26.40834277 26 31 C26.56267578 32.02673828 26.56267578 32.02673828 27.13671875 33.07421875 C28.45579343 36.01676995 28.12205412 38.82659296 28 42 C26.078125 41.3515625 26.078125 41.3515625 24 40 C23.171875 37.3984375 23.171875 37.3984375 22.75 34.375 C22.60046875 33.37210938 22.4509375 32.36921875 22.296875 31.3359375 C22.19890625 30.56507813 22.1009375 29.79421875 22 29 C21.34 29 20.68 29 20 29 C19.505 26.525 19.505 26.525 19 24 C18.34 24.66 17.68 25.32 17 26 C16.87882812 25.43410156 16.75765625 24.86820313 16.6328125 24.28515625 C16.46523438 23.55167969 16.29765625 22.81820312 16.125 22.0625 C15.96257812 21.33160156 15.80015625 20.60070312 15.6328125 19.84765625 C15.17038477 17.79299706 15.17038477 17.79299706 13 17 C13 16.34 13 15.68 13 15 C12.34 15 11.68 15 11 15 C8 10.61538462 8 10.61538462 8 8 C6.68 7.67 5.36 7.34 4 7 C4 6.34 4 5.68 4 5 C1.525 4.01 1.525 4.01 -1 3 C-0.67 2.01 -0.34 1.02 0 0 Z " fill="#6E7D8A" transform="translate(368,118)"/>
<path d="M0 0 C4.27155719 0.08192772 8.54179424 0.1946721 12.8125 0.3125 C14.6059082 0.34633789 14.6059082 0.34633789 16.43554688 0.38085938 C26.02212258 0.66819543 35.51762417 1.41708746 43.375 7.4375 C44.19097656 8.05496094 45.00695312 8.67242187 45.84765625 9.30859375 C46.55792969 9.86675781 47.26820313 10.42492187 48 11 C48.928125 11.66 49.85625 12.32 50.8125 13 C53.70259786 15.64237518 56.03604645 18.60695685 58 22 C58 22.66 58 23.32 58 24 C54.49695623 22.83231874 54.11291557 21.64842113 52.1953125 18.6796875 C46.72319131 10.99010543 38.65290809 8.71228464 30 6 C30 5.34 30 4.68 30 4 C28.98679688 4.01933594 27.97359375 4.03867188 26.9296875 4.05859375 C23.22229776 4.00331458 19.7843737 3.63090612 16.125 3.0625 C10.75546642 2.25362795 5.40084084 1.55870767 0 1 C0 0.67 0 0.34 0 0 Z " fill="#45A7EF" transform="translate(194,178)"/>
<path d="M0 0 C0.33 0.66 0.66 1.32 1 2 C-0.17984782 4.60400757 -1.41344071 7.10293092 -2.75 9.625 C-6.28650439 16.35698872 -9.45641326 23.04301097 -11.1875 30.5 C-11.5896875 32.2325 -11.5896875 32.2325 -12 34 C-12.99 34 -13.98 34 -15 34 C-15.33 35.32 -15.66 36.64 -16 38 C-17.00754574 28.1260517 -12.87451841 15.95902495 -7 8 C-5.67139075 7.64830932 -4.33841672 7.31229724 -3 7 C-1.76242123 4.03739474 -1.76242123 4.03739474 -1 1 C-0.67 0.67 -0.34 0.34 0 0 Z " fill="#697783" transform="translate(114,130)"/>
<path d="M0 0 C1.32 0 2.64 0 4 0 C4 0.99 4 1.98 4 3 C4.99 3 5.98 3 7 3 C7 3.66 7 4.32 7 5 C7.66 5 8.32 5 9 5 C9 5.66 9 6.32 9 7 C11.97 7.495 11.97 7.495 15 8 C15 8.66 15 9.32 15 10 C15.95712891 10.29003906 15.95712891 10.29003906 16.93359375 10.5859375 C17.75988281 10.84632813 18.58617187 11.10671875 19.4375 11.375 C20.26121094 11.63023437 21.08492187 11.88546875 21.93359375 12.1484375 C24 13 24 13 25 15 C27.02463255 15.65213292 27.02463255 15.65213292 29 16 C29 16.66 29 17.32 29 18 C30.65 18.33 32.3 18.66 34 19 C31 21 31 21 28.8125 20.625 C27.9153125 20.315625 27.9153125 20.315625 27 20 C27 19.34 27 18.68 27 18 C26.15695313 17.7421875 25.31390625 17.484375 24.4453125 17.21875 C20.76264568 15.91603793 17.34102835 14.28146404 13.875 12.5 C12.96427734 12.03787109 12.96427734 12.03787109 12.03515625 11.56640625 C10.35536481 10.71370166 8.67760693 9.85699438 7 9 C5.66752467 8.33162009 4.33465871 7.66400931 3 7 C3 6.34 3 5.68 3 5 C2.34 5 1.68 5 1 5 C0.67 3.35 0.34 1.7 0 0 Z " fill="#354859" transform="translate(131,364)"/>
<path d="M0 0 C5.60370888 2.44264233 13.44506708 6.07455661 15.796875 12.01171875 C16.0625 13.9375 16.0625 13.9375 16 17 C14.68 16.67 13.36 16.34 12 16 C12 15.34 12 14.68 12 14 C9.78063948 12.84922047 7.69747265 11.90150272 5.3125 11.125 C3 10 3 10 2.1875 7.875 C2.125625 7.25625 2.06375 6.6375 2 6 C0.68 5.67 -0.64 5.34 -2 5 C-1.34 4.67 -0.68 4.34 0 4 C0 2.68 0 1.36 0 0 Z " fill="#051A2C" transform="translate(126,376)"/>
<path d="M0 0 C27.55617043 8.83970342 27.55617043 8.83970342 37 18 C38.10021484 19.02867187 38.10021484 19.02867187 39.22265625 20.078125 C41 22 41 22 41 24 C40.34 24 39.68 24 39 24 C37.89101163 22.85635575 36.78247306 21.712273 35.67578125 20.56640625 C30.5884702 15.81113415 24.82467603 11.93836162 18.2109375 9.73828125 C15.34625529 8.78170009 12.55340339 7.68589773 9.75 6.5625 C8.75484375 6.17191406 7.7596875 5.78132812 6.734375 5.37890625 C3.88024702 3.93961028 2.11539196 2.37226098 0 0 Z " fill="#6EAFDF" transform="translate(300,245)"/>
<path d="M0 0 C8.92872782 7.61567961 14.96789438 21.38881179 16 33 C16.06352243 35.67282837 16.04611347 38.32541861 16 41 C15.67 41 15.34 41 15 41 C14.74476563 39.89205078 14.74476563 39.89205078 14.484375 38.76171875 C10.11164772 19.96497659 10.11164772 19.96497659 0 4 C0 2.68 0 1.36 0 0 Z " fill="#B0B8BE" transform="translate(385,131)"/>
<path d="M0 0 C0.33 0 0.66 0 1 0 C1.0497499 5.53180661 1.08588418 11.06348052 1.10986328 16.59545898 C1.11986873 18.47406282 1.13347733 20.35265129 1.15087891 22.23120117 C1.1753688 24.94453748 1.1865379 27.65766638 1.1953125 30.37109375 C1.20563507 31.19959335 1.21595764 32.02809296 1.22659302 32.88169861 C1.228092 40.82154224 -0.16907372 47.87781115 -3.625 55.0625 C-4.07101562 56.00222656 -4.51703125 56.94195312 -4.9765625 57.91015625 C-5.31429688 58.59980469 -5.65203125 59.28945313 -6 60 C-7.15941038 56.52176885 -6.70820884 54.54104422 -6 51 C-5.34 51 -4.68 51 -4 51 C-3.87625 49.824375 -3.7525 48.64875 -3.625 47.4375 C-3.3414936 44.74418916 -2.83283279 42.47890847 -2 39.8828125 C-0.80111579 35.72866083 -0.6520909 31.74423237 -0.5859375 27.44140625 C-0.56657135 26.65225327 -0.5472052 25.86310028 -0.5272522 25.05003357 C-0.46795176 22.55429553 -0.4212715 20.05851011 -0.375 17.5625 C-0.33677449 15.86000704 -0.29772016 14.15753248 -0.2578125 12.45507812 C-0.16229172 8.30353659 -0.07808031 4.15190467 0 0 Z " fill="#6E7D8A" transform="translate(398,304)"/>
<path d="M0 0 C3.94909362 1.14084927 6.14304637 2.14304637 9 5 C10.175625 5.515625 11.35125 6.03125 12.5625 6.5625 C18.3309267 9.34466483 23.25833369 13.83220678 27 19 C27.28125 22.3203125 27.28125 22.3203125 27 25 C23.33455245 22.32521395 21.17874513 19.96135478 19 16 C18.443125 15.278125 17.88625 14.55625 17.3125 13.8125 C16 12 16 12 16 10 C13.36 9.67 10.72 9.34 8 9 C8 8.01 8 7.02 8 6 C7.34 6 6.68 6 6 6 C4.5625 4.6875 4.5625 4.6875 3 3 C2.443125 2.443125 1.88625 1.88625 1.3125 1.3125 C0.879375 0.879375 0.44625 0.44625 0 0 Z " fill="#A8B1B9" transform="translate(358,110)"/>
<path d="M0 0 C0.33 0 0.66 0 1 0 C1.42122669 3.70679491 1.47815304 5.39433949 -0.875 8.375 C-8.51613851 12.34839202 -17.92281075 9.55437319 -26 8 C-26 7.34 -26 6.68 -26 6 C-26.99 5.67 -27.98 5.34 -29 5 C-27.51886719 5.23976563 -27.51886719 5.23976563 -26.0078125 5.484375 C-21.95605943 6.05940991 -17.96341041 6.21908574 -13.875 6.25 C-12.84052734 6.2809375 -12.84052734 6.2809375 -11.78515625 6.3125 C-7.34325539 6.34647247 -4.48357171 5.81314848 -1 3 C-0.67 2.01 -0.34 1.02 0 0 Z " fill="#3A96DC" transform="translate(316,285)"/>
<path d="M0 0 C2.65278971 1.32639486 2.74705483 2.34495233 3.6875 5.125 C6.24660387 14.14648738 5.56974315 27.20752919 2 36 C-0.07421875 37.765625 -0.07421875 37.765625 -2 39 C-1.7834375 38.35417969 -1.566875 37.70835937 -1.34375 37.04296875 C2.22414276 24.96829464 1.75086188 12.36899203 0 0 Z " fill="#123653" transform="translate(255,207)"/>
<path d="M0 0 C8.3528396 -0.25058519 15.06768111 0.3558937 23 3 C24.3308911 5.66178221 24.11268993 7.68739396 24.09765625 10.6640625 C24.09443359 11.78554687 24.09121094 12.90703125 24.08789062 14.0625 C24.07951172 15.238125 24.07113281 16.41375 24.0625 17.625 C24.05798828 18.80835938 24.05347656 19.99171875 24.04882812 21.2109375 C24.03701467 24.14067507 24.02054258 27.07031272 24 30 C22.35 30 20.7 30 19 30 C20.32 29.67 21.64 29.34 23 29 C23 21.41 23 13.82 23 6 C22.01 6 21.02 6 20 6 C20 5.34 20 4.68 20 4 C19.39414062 3.95101562 18.78828125 3.90203125 18.1640625 3.8515625 C12.00239536 3.3017522 6.04114049 2.32390951 0 1 C0 0.67 0 0.34 0 0 Z " fill="#449CDC" transform="translate(316,210)"/>
<path d="M0 0 C1.60294922 0.04060547 1.60294922 0.04060547 3.23828125 0.08203125 C4.04652344 0.11683594 4.85476563 0.15164062 5.6875 0.1875 C5.6875 0.5175 5.6875 0.8475 5.6875 1.1875 C4.98882812 1.23648438 4.29015625 1.28546875 3.5703125 1.3359375 C2.66023438 1.41070312 1.75015625 1.48546875 0.8125 1.5625 C-0.09242188 1.63210937 -0.99734375 1.70171875 -1.9296875 1.7734375 C-4.49191903 1.98318132 -4.49191903 1.98318132 -6.3125 4.1875 C-6.3125 4.8475 -6.3125 5.5075 -6.3125 6.1875 C-6.9725 6.1875 -7.6325 6.1875 -8.3125 6.1875 C-7.9825 6.8475 -7.6525 7.5075 -7.3125 8.1875 C-4.78516765 8.84305119 -4.78516765 8.84305119 -2.3125 9.1875 C-2.3125 10.5075 -2.3125 11.8275 -2.3125 13.1875 C-5.2825 12.6925 -5.2825 12.6925 -8.3125 12.1875 C-8.3125 11.5275 -8.3125 10.8675 -8.3125 10.1875 C-9.6325 9.5275 -10.9525 8.8675 -12.3125 8.1875 C-12.125 5.875 -12.125 5.875 -11.3125 3.1875 C-7.5080896 0.26527172 -4.73135022 -0.15597858 0 0 Z " fill="#1D3852" transform="translate(310.3125,233.8125)"/>
<path d="M0 0 C0.99 0.33 1.98 0.66 3 1 C2.23816406 1.66644531 1.47632813 2.33289063 0.69140625 3.01953125 C-6.28042937 9.21105583 -12.31478874 15.57764085 -18 23 C-18.33 22.34 -18.66 21.68 -19 21 C-16.90342781 16.03443428 -14.41500438 11.43594855 -9.6875 8.625 C-5.88165085 6.32378889 -3.0500032 3.20821662 0 0 Z " fill="#3C4E60" transform="translate(129,120)"/>
<path d="M0 0 C0.66 0.33 1.32 0.66 2 1 C0.96552734 1.8353125 0.96552734 1.8353125 -0.08984375 2.6875 C-5.57555659 7.14229013 -10.9405184 11.66548028 -16.125 16.46875 C-18 18 -18 18 -21 19 C-17.68979049 11.2761778 -9.92277156 5.4305738 -3 1 C-2.01 0.67 -1.02 0.34 0 0 Z " fill="#707E89" transform="translate(136,111)"/>
<path d="M0 0 C0.66 0.33 1.32 0.66 2 1 C0.13816411 3.19039517 -1.48608135 4.25792072 -4.0625 5.625 C-12.28419754 10.16351669 -20.46911498 17.84088823 -24.625 26.3125 C-26 29 -26 29 -29 30 C-24.12406127 16.48465527 -11.70512994 7.33521476 0 0 Z " fill="#CBD2D7" transform="translate(137,108)"/>
<path d="M0 0 C0.80566406 0.00257813 1.61132812 0.00515625 2.44140625 0.0078125 C3.64603516 0.00394531 3.64603516 0.00394531 4.875 0 C7.00390625 0.1328125 7.00390625 0.1328125 9.00390625 1.1328125 C11.00350637 1.1728045 13.00437867 1.17628049 15.00390625 1.1328125 C15.00390625 1.4628125 15.00390625 1.7928125 15.00390625 2.1328125 C11.37759075 2.97675502 8.09656612 3.2147444 4.37890625 3.1328125 C1.14701342 3.06197649 -0.90265627 3.10166667 -3.99609375 4.1328125 C-10.04302936 4.58738983 -15.27648988 4.12223993 -20.99609375 2.1328125 C-20.99609375 1.8028125 -20.99609375 1.4728125 -20.99609375 1.1328125 C-19.70832031 1.14441406 -18.42054688 1.15601563 -17.09375 1.16796875 C-15.41536603 1.1773452 -13.73698049 1.18644555 -12.05859375 1.1953125 C-11.20845703 1.20369141 -10.35832031 1.21207031 -9.48242188 1.22070312 C-8.67353516 1.22392578 -7.86464844 1.22714844 -7.03125 1.23046875 C-6.28238525 1.23570557 -5.53352051 1.24094238 -4.76196289 1.24633789 C-2.51782459 1.10206521 -2.31639127 0.15412388 0 0 Z " fill="#0E2237" transform="translate(176.99609375,391.8671875)"/>
<path d="M0 0 C1.41249023 -0.03673828 1.41249023 -0.03673828 2.85351562 -0.07421875 C7.3689646 -0.09333851 9.84238342 -0.08608824 13.72265625 2.3984375 C14.32980469 3.05070313 14.93695313 3.70296875 15.5625 4.375 C14.83546875 4.230625 14.1084375 4.08625 13.359375 3.9375 C-0.56670818 1.07223943 -0.56670818 1.07223943 -13.4375 5.375 C-12.86297254 9.30575644 -12.86297254 9.30575644 -10.4375 12.375 C-11.7575 12.375 -13.0775 12.375 -14.4375 12.375 C-16.5894437 9.14708445 -16.63836443 8.09099191 -16.4375 4.375 C-15.7775 4.375 -15.1175 4.375 -14.4375 4.375 C-14.4375 3.715 -14.4375 3.055 -14.4375 2.375 C-9.73897994 -0.33166074 -5.29885844 0.00722407 0 0 Z " fill="#409BDE" transform="translate(312.4375,232.625)"/>
<path d="M0 0 C10.04086003 -0.91280546 18.8771433 3.69090139 27.4375 8.4375 C28.11159912 8.80866943 28.78569824 9.17983887 29.48022461 9.56225586 C33.62015037 11.93879367 36.77550158 14.47728208 40 18 C36.74879766 17.09268772 34.33826819 16.27244612 31.69140625 14.140625 C22.46283782 6.80063153 11.30472294 3.54910419 0 1 C0 0.67 0 0.34 0 0 Z " fill="#D4D9DE" transform="translate(333,100)"/>
<path d="M0 0 C5.99932374 1.8331267 11.44920563 4.07321751 17 7 C17 7.66 17 8.32 17 9 C10.64913415 8.71197887 6.19127512 7.78530477 1 4 C0.3125 1.86328125 0.3125 1.86328125 0 0 Z " fill="#4B5D6C" transform="translate(141,375)"/>
<path d="M0 0 C0.33 0 0.66 0 1 0 C1.02505615 0.92748047 1.0501123 1.85496094 1.07592773 2.81054688 C1.17163362 6.28460539 1.2708291 9.7585292 1.37231445 13.23242188 C1.41535863 14.72977874 1.45705201 16.22717513 1.49731445 17.72460938 C1.55576498 19.88944356 1.61923453 22.05408434 1.68359375 24.21875 C1.72025146 25.51748047 1.75690918 26.81621094 1.79467773 28.15429688 C1.73425191 35.03469786 1.73425191 35.03469786 4 41 C4.04080783 42.99958364 4.04254356 45.00045254 4 47 C0.29869747 43.29869747 -0.09567681 37.75699882 -0.22705078 32.6953125 C-0.22673985 31.1718383 -0.21578638 29.64833665 -0.1953125 28.125 C-0.1924826 27.31506592 -0.18965271 26.50513184 -0.18673706 25.6706543 C-0.17564715 23.11361166 -0.15056452 20.55693465 -0.125 18 C-0.1149557 16.25391135 -0.1058324 14.50781715 -0.09765625 12.76171875 C-0.07574466 8.50767415 -0.04129382 4.25389881 0 0 Z " fill="#4E5965" transform="translate(98,302)"/>
<path d="M0 0 C0.70189453 0.00451172 1.40378906 0.00902344 2.12695312 0.01367188 C3.85550538 0.02543073 5.58401365 0.04336546 7.3125 0.0625 C7.6425 0.7225 7.9725 1.3825 8.3125 2.0625 C7.50425781 2.03929688 6.69601563 2.01609375 5.86328125 1.9921875 C4.79464844 1.97414063 3.72601563 1.95609375 2.625 1.9375 C1.56925781 1.91429688 0.51351562 1.89109375 -0.57421875 1.8671875 C-3.73983148 2.06578303 -5.836263 2.72567435 -8.6875 4.0625 C-12.35355827 5.6605254 -15.72255407 6.50925173 -19.6875 7.0625 C-19.6875 6.0725 -19.6875 5.0825 -19.6875 4.0625 C-12.90577405 1.80192468 -7.21512443 -0.08757854 0 0 Z " fill="#566878" transform="translate(167.6875,103.9375)"/>
<path d="M0 0 C5.71698204 0.83540407 9.39756477 3.69094986 14 7 C14.9075 7.639375 15.815 8.27875 16.75 8.9375 C19.66193065 11.60676976 22.01858201 14.57678423 24 18 C24 18.66 24 19.32 24 20 C20.49979546 18.83326515 20.10531179 17.65977684 18.2109375 14.67578125 C14.11231405 9.00381525 7.91264737 5.58974463 1.94140625 2.19921875 C1.30074219 1.80347656 0.66007813 1.40773437 0 1 C0 0.67 0 0.34 0 0 Z " fill="#72B6E9" transform="translate(228,182)"/>
<path d="M0 0 C4.68928816 0.54526606 9.26143426 1.43256489 13.875 2.4375 C15.57269531 2.80681641 15.57269531 2.80681641 17.3046875 3.18359375 C18.63886719 3.58771484 18.63886719 3.58771484 20 4 C20.33 4.66 20.66 5.32 21 6 C13.60225045 6.56663614 7.55925303 5.63077845 1 2 C0.67 1.34 0.34 0.68 0 0 Z " fill="#334657" transform="translate(143,386)"/>
<path d="M0 0 C0 0.33 0 0.66 0 1 C-0.66386719 1.12117188 -1.32773438 1.24234375 -2.01171875 1.3671875 C-6.57012071 2.23228568 -10.71477604 3.1820262 -15 5 C-15.99 5 -16.98 5 -18 5 C-18 5.66 -18 6.32 -18 7 C-21.61973402 8.31626692 -24.09567131 9 -28 9 C-27 6 -27 6 -25.26928711 5.10864258 C-24.5294458 4.87298584 -23.78960449 4.6373291 -23.02734375 4.39453125 C-22.20943359 4.13349609 -21.39152344 3.87246094 -20.54882812 3.60351562 C-19.2562207 3.21196289 -19.2562207 3.21196289 -17.9375 2.8125 C-17.10283203 2.53986328 -16.26816406 2.26722656 -15.40820312 1.98632812 C-10.07582407 0.32801227 -5.57876626 -0.29022483 0 0 Z " fill="#7E8B97" transform="translate(166,102)"/>
<path d="M0 0 C1.8871875 0.061875 1.8871875 0.061875 3.8125 0.125 C-0.18447365 3.49744652 -4.45840179 6.83874722 -9.1875 9.125 C-9.8475 8.795 -10.5075 8.465 -11.1875 8.125 C-10.8575 7.465 -10.5275 6.805 -10.1875 6.125 C-9.5275 6.125 -8.8675 6.125 -8.1875 6.125 C-8.084375 5.50625 -7.98125 4.8875 -7.875 4.25 C-6.57012886 0.21676192 -3.76488185 -0.12343875 0 0 Z " fill="#576571" transform="translate(368.1875,385.875)"/>
<path d="M0 0 C0.93065133 2.60582371 1.14917407 3.64198224 0.0625 6.25 C-0.4634375 7.11625 -0.4634375 7.11625 -1 8 C-1.66 8 -2.32 8 -3 8 C-2.95875 8.928125 -2.9175 9.85625 -2.875 10.8125 C-2.8537627 15.9731635 -3.97956982 20.96162598 -5 26 C-5.33 26 -5.66 26 -6 26 C-6.44111011 16.49162655 -6.21503607 7.65998843 0 0 Z " fill="#3690D2" transform="translate(276,222)"/>
<path d="M0 0 C2.97 0.33 5.94 0.66 9 1 C8.67 1.99 8.34 2.98 8 4 C6.02 3.34 4.04 2.68 2 2 C2 11.24 2 20.48 2 30 C1.67 30 1.34 30 1 30 C0.67 20.1 0.34 10.2 0 0 Z " fill="#0F3E5F" transform="translate(268,282)"/>
<path d="M0 0 C-0.66386719 0.17015625 -1.32773437 0.3403125 -2.01171875 0.515625 C-7.23929221 1.95034589 -10.93887089 3.27729831 -15 7 C-16.96961798 8.38392822 -18.98231362 9.6861577 -21 11 C-21.66 10.67 -22.32 10.34 -23 10 C-16.88143801 3.77798407 -9.31992209 -3.04976855 0 0 Z " fill="#357FB7" transform="translate(300,211)"/>
<path d="M0 0 C0.433125 0.474375 0.86625 0.94875 1.3125 1.4375 C3.02309613 3.23686957 3.02309613 3.23686957 6 4 C6.6875 6.0625 6.6875 6.0625 7 8 C8.11375 8.1546875 8.11375 8.1546875 9.25 8.3125 C12.1973519 9.04933797 13.78383074 9.94799142 16 12 C16 12.66 16 13.32 16 14 C10.11320535 12.64150893 5.141858 9.35113083 1 5 C0.23828125 2.26953125 0.23828125 2.26953125 0 0 Z " fill="#5C6873" transform="translate(122,378)"/>
<path d="M0 0 C6.45353615 2.05764921 12.7361263 4.42383482 19 7 C19 7.66 19 8.32 19 9 C17.3733152 8.71788123 15.74867104 8.42397625 14.125 8.125 C13.22007812 7.96257812 12.31515625 7.80015625 11.3828125 7.6328125 C9 7 9 7 7 5 C4.67724823 4.59952556 2.34260643 4.2602896 0 4 C0 2.68 0 1.36 0 0 Z " fill="#6DADDB" transform="translate(271,284)"/>
<path d="M0 0 C-3.62463723 3.2261169 -7.57486305 4.3743772 -12.125 5.75 C-12.85332031 5.98332031 -13.58164063 6.21664062 -14.33203125 6.45703125 C-19.74444643 8.12777679 -19.74444643 8.12777679 -22 7 C-18.4388473 4.71536344 -15.01189112 3.14809131 -11 1.8125 C-9.4840625 1.29623047 -9.4840625 1.29623047 -7.9375 0.76953125 C-5.13938675 0.03651488 -2.87380074 -0.15319894 0 0 Z " fill="#D0D5DC" transform="translate(162,100)"/>
<path d="M0 0 C0.66 0 1.32 0 2 0 C2 0.66 2 1.32 2 2 C2.66 2 3.32 2 4 2 C4 2.99 4 3.98 4 5 C4.86625 5.0309375 4.86625 5.0309375 5.75 5.0625 C9.38390121 6.5766255 10.24850416 9.55956175 12 13 C10.68 13 9.36 13 8 13 C5.859375 10.6640625 5.859375 10.6640625 3.75 7.625 C3.04359375 6.62726563 2.3371875 5.62953125 1.609375 4.6015625 C0 2 0 2 0 0 Z " fill="#3F4D5A" transform="translate(109,364)"/>
<path d="M0 0 C-4.19444662 2.96680371 -8.14953655 5.26115461 -13 7 C-13.99 6.67 -14.98 6.34 -16 6 C-11.35875386 1.69835724 -6.62933854 -2.20977951 0 0 Z " fill="#4D6070" transform="translate(148,110)"/>
<path d="M0 0 C1.65 0 3.3 0 5 0 C1.62789736 2.9348225 -1.65946827 3.99586043 -5.9375 5.1875 C-7.14277344 5.53167969 -8.34804688 5.87585938 -9.58984375 6.23046875 C-12.55468563 6.89951096 -14.98398965 7.16596641 -18 7 C-12.21205151 3.86486124 -6.67742681 1.49919299 0 2 C0 1.34 0 0.68 0 0 Z " fill="#8C979F" transform="translate(352,395)"/>
<path d="M0 0 C0.33 0.66 0.66 1.32 1 2 C1.99 2 2.98 2 4 2 C4.350625 3.010625 4.70125 4.02125 5.0625 5.0625 C7.00369927 9.67991575 10.33210759 12.69387232 14 16 C11 16 11 16 9.31640625 14.609375 C8.73761719 13.99578125 8.15882813 13.3821875 7.5625 12.75 C5.60689737 10.6866735 3.70868399 8.7460322 1.5625 6.875 C0 5 0 5 -0.25 2.25 C-0.1675 1.5075 -0.085 0.765 0 0 Z " fill="#354859" transform="translate(122,365)"/>
<path d="M0 0 C11.385 0.99 11.385 0.99 23 2 C23 2.33 23 2.66 23 3 C16.63224179 4.37681259 9.24452893 5.08150964 3 3 C3 2.34 3 1.68 3 1 C2.01 0.67 1.02 0.34 0 0 Z " fill="#5095C6" transform="translate(287,290)"/>
<path d="M0 0 C0.66 0.33 1.32 0.66 2 1 C0.90259375 2.62957312 -0.20318192 4.25351228 -1.3125 5.875 C-1.92738281 6.77992188 -2.54226563 7.68484375 -3.17578125 8.6171875 C-5 11 -5 11 -8 13 C-7.71125 12.319375 -7.4225 11.63875 -7.125 10.9375 C-5.87402645 7.67106907 -4.92552045 4.37153877 -4 1 C-2.68 1.33 -1.36 1.66 0 2 C0 1.34 0 0.68 0 0 Z " fill="#8B969F" transform="translate(389,364)"/>
<path d="M0 0 C2 1 2 1 2.8515625 3.44140625 C4.34330807 9.461127 5.35779258 14.79826201 5 21 C4.67 21 4.34 21 4 21 C2.1150587 13.99370876 0.60299164 7.23589973 0 0 Z " fill="#C3CBD1" transform="translate(396,151)"/>
<path d="M0 0 C1.32 0 2.64 0 4 0 C4 0.99 4 1.98 4 3 C4.99 3 5.98 3 7 3 C7 3.66 7 4.32 7 5 C7.66 5 8.32 5 9 5 C9 5.66 9 6.32 9 7 C11.97 7.495 11.97 7.495 15 8 C15 8.66 15 9.32 15 10 C9.53293919 8.77270064 5.11436363 6.9167812 1 3 C0.67 2.01 0.34 1.02 0 0 Z " fill="#324657" transform="translate(131,364)"/>
<path d="M0 0 C2.31 0 4.62 0 7 0 C7.66 1.65 8.32 3.3 9 5 C10.65 5 12.3 5 14 5 C14.33 5.99 14.66 6.98 15 8 C9.29052772 6.69157927 4.71410524 4.51415118 0 1 C0 0.67 0 0.34 0 0 Z " fill="#3694D9" transform="translate(284,268)"/>
<path d="M0 0 C-0.6953125 1.91796875 -0.6953125 1.91796875 -2 4 C-4.2421875 4.86328125 -4.2421875 4.86328125 -6.875 5.3125 C-7.73867187 5.47363281 -8.60234375 5.63476562 -9.4921875 5.80078125 C-11.96004384 5.99682591 -13.66156338 5.75591323 -16 5 C-13.70967689 4.16280617 -11.41789043 3.3301071 -9.125 2.5 C-8.47402344 2.26152344 -7.82304687 2.02304688 -7.15234375 1.77734375 C-2.2265625 0 -2.2265625 0 0 0 Z " fill="#3788C2" transform="translate(220,241)"/>
<path d="M0 0 C1.43791516 0.14168137 2.8753237 0.28851043 4.3125 0.4375 C5.11300781 0.51871094 5.91351563 0.59992188 6.73828125 0.68359375 C9 1 9 1 12 2 C12 2.66 12 3.32 12 4 C12.78375 4.28875 13.5675 4.5775 14.375 4.875 C17 6 17 6 19 8 C15.30099992 7.11223998 11.65449539 6.05418136 8 5 C8 4.01 8 3.02 8 2 C5.36 1.67 2.72 1.34 0 1 C0 0.67 0 0.34 0 0 Z " fill="#57ABE9" transform="translate(216,179)"/>
<path d="M0 0 C3 1 3 1 4.1875 2.625 C5.27499354 5.80382728 5.1282071 8.66661533 5 12 C3.046875 11.3203125 3.046875 11.3203125 1 10 C0.390625 7.6171875 0.390625 7.6171875 0.25 4.875 C0.19328125 3.96492187 0.1365625 3.05484375 0.078125 2.1171875 C0.05234375 1.41851562 0.0265625 0.71984375 0 0 Z " fill="#6B7985" transform="translate(391,148)"/>
<path d="M0 0 C1.05603065 3.18226684 0.97463666 4.85691226 -0.3125 7.9375 C-0.59351563 8.62714844 -0.87453125 9.31679688 -1.1640625 10.02734375 C-1.43992187 10.67832031 -1.71578125 11.32929688 -2 12 C-2.391875 12.99 -2.78375 13.98 -3.1875 15 C-3.455625 15.66 -3.72375 16.32 -4 17 C-4.66 17 -5.32 17 -6 17 C-5.74438677 14.6568787 -5.40729228 12.32156597 -5 10 C-4.34 9.67 -3.68 9.34 -3 9 C-2.09274566 6.88672575 -2.09274566 6.88672575 -1.375 4.4375 C-0.98441406 3.19806641 -0.98441406 3.19806641 -0.5859375 1.93359375 C-0.39257812 1.29550781 -0.19921875 0.65742188 0 0 Z " fill="#405261" transform="translate(392,349)"/>
<path d="M0 0 C5.80165739 0.97458672 10.83982722 2.01253155 16 5 C12.58981018 6.13672994 11.83271596 5.85110129 8.5625 4.6875 C7.80066406 4.42324219 7.03882813 4.15898438 6.25390625 3.88671875 C4.09522161 3.03746154 2.05566265 2.07231605 0 1 C0 0.67 0 0.34 0 0 Z " fill="#88949F" transform="translate(342,104)"/>
<path d="M0 0 C1.45823212 -0.0270043 2.91660675 -0.04639787 4.375 -0.0625 C5.18710938 -0.07410156 5.99921875 -0.08570313 6.8359375 -0.09765625 C9 0 9 0 11 1 C12.99960012 1.039992 15.00047242 1.04346799 17 1 C17 1.33 17 1.66 17 2 C11.00223894 3.49944026 4.99776106 3.49944026 -1 2 C-0.67 1.34 -0.34 0.68 0 0 Z " fill="#13293E" transform="translate(175,392)"/>
<path d="M0 0 C0.66 0 1.32 0 2 0 C2 0.66 2 1.32 2 2 C2.66 2 3.32 2 4 2 C4 2.66 4 3.32 4 4 C4.5775 4.20625 5.155 4.4125 5.75 4.625 C8.81410544 6.49750888 10.15539968 8.96958519 12 12 C9.5625 11.1875 9.5625 11.1875 7 10 C6.67 9.01 6.34 8.02 6 7 C5.34 7 4.68 7 4 7 C0 2.52941176 0 2.52941176 0 0 Z " fill="#14293D" transform="translate(118,366)"/>
<path d="M0 0 C0.33 0 0.66 0 1 0 C1 1.98 1 3.96 1 6 C0.01 6.33 -0.98 6.66 -2 7 C-3.37334617 9.28891028 -4.15250816 11.45752447 -5 14 C-6.32 13.67 -7.64 13.34 -9 13 C-8.60167969 12.56429688 -8.20335937 12.12859375 -7.79296875 11.6796875 C-4.51063169 7.99005314 -2.00600254 4.56922802 0 0 Z " fill="#164468" transform="translate(252,246)"/>
<path d="M0 0 C0.66 0 1.32 0 2 0 C3.93012632 6.41395823 4.09029246 10.61299527 2 17 C1.34 17 0.68 17 0 17 C0 11.39 0 5.78 0 0 Z " fill="#389DE4" transform="translate(227,217)"/>
<path d="M0 0 C7.2484945 -0.41640288 13.16914355 0.55833216 20 3 C15.69577494 4.31052767 12.0629466 3.45785552 7.75 2.5625 C7.00492187 2.41490234 6.25984375 2.26730469 5.4921875 2.11523438 C3.65992335 1.7511306 1.82973947 1.37658591 0 1 C0 0.67 0 0.34 0 0 Z " fill="#9AA2AC" transform="translate(328,101)"/>
<path d="M0 0 C4.62 2.31 9.24 4.62 14 7 C14 7.99 14 8.98 14 10 C10 8 6 6 2 4 C2 3.34 2 2.68 2 2 C1.34 2 0.68 2 0 2 C0 1.34 0 0.68 0 0 Z " fill="#425565" transform="translate(132,367)"/>
<path d="M0 0 C1.30230734 3.00646952 0.96485975 4.09355667 -0.21484375 7.234375 C-0.78332031 8.39453125 -1.35179687 9.5546875 -1.9375 10.75 C-2.50339844 11.92046875 -3.06929688 13.0909375 -3.65234375 14.296875 C-4.09707031 15.18890625 -4.54179687 16.0809375 -5 17 C-6.15941038 13.52176885 -5.70820884 11.54104422 -5 8 C-4.01 8 -3.02 8 -2 8 C-1.7834375 6.576875 -1.7834375 6.576875 -1.5625 5.125 C-1 2 -1 2 0 0 Z " fill="#B1BAC2" transform="translate(397,347)"/>
<path d="M0 0 C0.33 0 0.66 0 1 0 C1.13277344 1.10859375 1.26554687 2.2171875 1.40234375 3.359375 C1.58059757 4.8229327 1.75899028 6.28647349 1.9375 7.75 C2.06801758 8.84441406 2.06801758 8.84441406 2.20117188 9.9609375 C2.62027409 13.37584442 3.117274 16.67603543 4 20 C3.01 20 2.02 20 1 20 C-0.14982602 15.90996141 -0.11094256 11.96822949 -0.0625 7.75 C-0.05798828 7.00492188 -0.05347656 6.25984375 -0.04882812 5.4921875 C-0.03709246 3.6614236 -0.0191585 1.83070127 0 0 Z " fill="#124167" transform="translate(269,236)"/>
<path d="M0 0 C1.1055189 0.93590504 2.20935453 1.87379858 3.3125 2.8125 C3.92738281 3.33457031 4.54226563 3.85664062 5.17578125 4.39453125 C8.66719556 7.46727489 8.66719556 7.46727489 10 9 C9.6875 11.1875 9.6875 11.1875 9 13 C4.87747171 9.161784 2.47674276 4.995823 0 0 Z " fill="#8B97A1" transform="translate(375,122)"/>
<path d="M0 0 C6.07328688 -0.50610724 9.77228537 0.95842058 15 4 C12.00468461 4.99843846 10.82744268 5.00732761 7.8125 4.5625 C6.554375 4.376875 5.29625 4.19125 4 4 C4 3.01 4 2.02 4 1 C2.68 0.67 1.36 0.34 0 0 Z " fill="#627382" transform="translate(339,106)"/>
<path d="M0 0 C-3.95523655 2.75668002 -7.22423661 3.5317879 -12 4 C-12 3.01 -12 2.02 -12 1 C-3.96428571 -1.27678571 -3.96428571 -1.27678571 0 0 Z " fill="#4D6070" transform="translate(160,107)"/>
<path d="M0 0 C4.8274799 1.41292095 8.7162359 3.42974154 13 6 C10 7 10 7 7.51953125 6.00390625 C6.62621094 5.52824219 5.73289063 5.05257813 4.8125 4.5625 C3.91144531 4.08941406 3.01039063 3.61632812 2.08203125 3.12890625 C1.39496094 2.75636719 0.70789063 2.38382812 0 2 C0 1.34 0 0.68 0 0 Z " fill="#5F717F" transform="translate(142,377)"/>
<path d="M0 0 C3.71888239 0.50712033 6.73454239 1.11608215 10 3 C7.50907189 4.24546405 6.58919267 3.7767578 4 3 C3.67 3.99 3.34 4.98 3 6 C1.5 4.6875 1.5 4.6875 0 3 C0 2.01 0 1.02 0 0 Z " fill="#667887" transform="translate(132,373)"/>
<path d="M0 0 C1.73694677 2.60542016 2.69100448 4.58342775 3.6875 7.5 C3.95949219 8.2734375 4.23148437 9.046875 4.51171875 9.84375 C5 12 5 12 4 15 C3.34 13.02 2.68 11.04 2 9 C1.34 9 0.68 9 0 9 C0 6.03 0 3.06 0 0 Z " fill="#192C3C" transform="translate(102,341)"/>
<path d="M0 0 C0.99 0.495 0.99 0.495 2 1 C2.37890625 2.8125 2.37890625 2.8125 2.5625 5 C2.62665408 7.78932058 2.62665408 7.78932058 4 10 C4.04080783 11.99958364 4.04254356 14.00045254 4 16 C0.44221079 12.44221079 0.04831804 7.35290505 -0.125 2.5 C-0.08375 1.675 -0.0425 0.85 0 0 Z " fill="#8B969D" transform="translate(98,333)"/>
<path d="M0 0 C2.64 0.33 5.28 0.66 8 1 C8.66 2.65 9.32 4.3 10 6 C5.05 4.02 5.05 4.02 0 2 C0 1.34 0 0.68 0 0 Z " fill="#1F405B" transform="translate(319,251)"/>
<path d="M0 0 C0.33 0.66 0.66 1.32 1 2 C1.99 2.33 2.98 2.66 4 3 C2.39967863 3.84069415 0.79458829 4.67231505 -0.8125 5.5 C-2.15248047 6.19609375 -2.15248047 6.19609375 -3.51953125 6.90625 C-6 8 -6 8 -9 8 C-9 7.34 -9 6.68 -9 6 C-8.05125 5.690625 -7.1025 5.38125 -6.125 5.0625 C-3.13919592 4.12605258 -3.13919592 4.12605258 -1 3 C-0.67 2.01 -0.34 1.02 0 0 Z " fill="#3A9FE7" transform="translate(234,261)"/>
<path d="M0 0 C2 1 2 1 3.1171875 3.13671875 C4.15384946 6.49898963 4.19595073 9.30043893 4.125 12.8125 C4.10695312 13.97394531 4.08890625 15.13539063 4.0703125 16.33203125 C4.04710937 17.21246094 4.02390625 18.09289062 4 19 C3.67 19 3.34 19 3 19 C3 15.37 3 11.74 3 8 C2.34 8 1.68 8 1 8 C0.67 5.36 0.34 2.72 0 0 Z " fill="#15466B" transform="translate(224,213)"/>
<path d="M0 0 C3.82669043 3.42388092 5.72278474 6.00724943 7 11 C6.34 11 5.68 11 5 11 C3.7109375 9.609375 3.7109375 9.609375 2.375 7.75 C1.92898438 7.14671875 1.48296875 6.5434375 1.0234375 5.921875 C0 4 0 4 0 0 Z " fill="#C1C7CD" transform="translate(385,131)"/>
<path d="M0 0 C0.66 0 1.32 0 2 0 C3.10844919 3.32534757 2.84454356 5.62182575 2 9 C1.34 9 0.68 9 0 9 C-1.125 6.75 -1.125 6.75 -2 4 C-1.125 1.6875 -1.125 1.6875 0 0 Z " fill="#061D30" transform="translate(109,353)"/>
<path d="M0 0 C2 3 2 3 2 5 C-1.3 5 -4.6 5 -8 5 C-5.37352812 3.24901874 -2.71224618 1.61268692 0 0 Z " fill="#183F5C" transform="translate(334,310)"/>
<path d="M0 0 C0.33 0 0.66 0 1 0 C0.58846263 4.97093824 0.20399168 9.44508386 -2 14 C-3.37913361 10.16907332 -2.78648334 6.9324167 -2 3 C-1.34 2.01 -0.68 1.02 0 0 Z " fill="#3CA1EB" transform="translate(254,235)"/>
<path d="M0 0 C1.60294922 0.04060547 1.60294922 0.04060547 3.23828125 0.08203125 C4.04652344 0.11683594 4.85476563 0.15164062 5.6875 0.1875 C5.6875 0.5175 5.6875 0.8475 5.6875 1.1875 C5.00042969 1.23648438 4.31335938 1.28546875 3.60546875 1.3359375 C2.25388672 1.44808594 2.25388672 1.44808594 0.875 1.5625 C-0.01832031 1.63210937 -0.91164063 1.70171875 -1.83203125 1.7734375 C-4.55648499 2.05395036 -4.55648499 2.05395036 -7.3125 4.1875 C-9.5 3.8125 -9.5 3.8125 -11.3125 3.1875 C-7.38423635 0.41074962 -4.78125108 -0.15762366 0 0 Z " fill="#19527E" transform="translate(310.3125,233.8125)"/>
<path d="M0 0 C0.93065133 2.60582371 1.14917407 3.64198224 0.0625 6.25 C-0.4634375 7.11625 -0.4634375 7.11625 -1 8 C-1.66 8 -2.32 8 -3 8 C-3.33 8.66 -3.66 9.32 -4 10 C-3.5205537 5.78087253 -2.83374881 3.20336822 0 0 Z " fill="#2E82C0" transform="translate(276,222)"/>
<path d="M0 0 C0.99 0.33 1.98 0.66 3 1 C-1.625 5.875 -1.625 5.875 -5 7 C-4.67 5.68 -4.34 4.36 -4 3 C-2.68 2.67 -1.36 2.34 0 2 C0 1.34 0 0.68 0 0 Z " fill="#123A59" transform="translate(223,234)"/>
<path d="M0 0 C0.65234375 1.734375 0.65234375 1.734375 1 4 C0.00390625 6.140625 0.00390625 6.140625 -1.4375 8.25 C-1.91058594 8.95640625 -2.38367188 9.6628125 -2.87109375 10.390625 C-3.24363281 10.92171875 -3.61617188 11.4528125 -4 12 C-5 9 -5 9 -4.00390625 6.73828125 C-3.52824219 5.93777344 -3.05257812 5.13726562 -2.5625 4.3125 C-2.08941406 3.50425781 -1.61632812 2.69601563 -1.12890625 1.86328125 C-0.75636719 1.24839844 -0.38382812 0.63351563 0 0 Z " fill="#BDC3CA" transform="translate(107,138)"/>
<path d="M0 0 C0 0.66 0 1.32 0 2 C-0.66 2 -1.32 2 -2 2 C-2 2.66 -2 3.32 -2 4 C-4.5 5.625 -4.5 5.625 -7 7 C-7 3 -7 3 -5.75 1.25 C-4 0 -4 0 0 0 Z " fill="#8A949D" transform="translate(381,377)"/>
<path d="M0 0 C0.33 0 0.66 0 1 0 C1.04898438 0.62648438 1.09796875 1.25296875 1.1484375 1.8984375 C1.22320312 2.71570313 1.29796875 3.53296875 1.375 4.375 C1.44460937 5.18710937 1.51421875 5.99921875 1.5859375 6.8359375 C1.82892588 9.20334191 1.82892588 9.20334191 4 11 C3.01 11.99 2.02 12.98 1 14 C-0.38226016 11.23547967 -0.09525387 8.9538637 -0.0625 5.875 C-0.05347656 4.77929688 -0.04445313 3.68359375 -0.03515625 2.5546875 C-0.02355469 1.71164062 -0.01195313 0.86859375 0 0 Z " fill="#192D41" transform="translate(100,326)"/>
<path d="M0 0 C2.97 0.33 5.94 0.66 9 1 C8.67 1.99 8.34 2.98 8 4 C6.02 3.34 4.04 2.68 2 2 C1.34 3.32 0.68 4.64 0 6 C0 4.02 0 2.04 0 0 Z " fill="#1B3B57" transform="translate(268,282)"/>
<path d="M0 0 C1.921875 0.6796875 1.921875 0.6796875 4 2 C4.828125 4.3828125 4.828125 4.3828125 5.25 7.125 C5.39953125 8.03507813 5.5490625 8.94515625 5.703125 9.8828125 C5.80109375 10.58148438 5.8990625 11.28015625 6 12 C4 11 4 11 3 8.25 C2.67 7.1775 2.34 6.105 2 5 C1.34588315 3.32836805 0.68346682 1.65984798 0 0 Z " fill="#4BA5E7" transform="translate(249,201)"/>
<path d="M0 0 C0.66 0.33 1.32 0.66 2 1 C-1.87564767 4.61139896 -1.87564767 4.61139896 -4 6 C-6.375 5.8125 -6.375 5.8125 -8 5 C-5.31158141 2.74754119 -3.35358125 1.11786042 0 0 Z " fill="#7C8893" transform="translate(136,111)"/>
<path d="M0 0 C4.81938524 -0.23509196 8.46298506 0.54815522 13 2 C13 2.33 13 2.66 13 3 C8.07872966 3.16682272 4.49656104 3.24828052 0 1 C0 0.67 0 0.34 0 0 Z " fill="#425564" transform="translate(150,388)"/>
<path d="M0 0 C2.97 0.495 2.97 0.495 6 1 C6 4.3 6 7.6 6 11 C5.34 10.67 4.68 10.34 4 10 C4.0825 9.0925 4.165 8.185 4.25 7.25 C4.31024799 3.89958592 4.31024799 3.89958592 2 1.625 C1.34 1.08875 0.68 0.5525 0 0 Z " fill="#389AE2" transform="translate(312,281)"/>
<path d="M0 0 C0.33 0 0.66 0 1 0 C1.10836453 1.43583001 1.18576167 2.8740202 1.25 4.3125 C1.29640625 5.11300781 1.3428125 5.91351563 1.390625 6.73828125 C1 9 1 9 -3 12 C-2.01 8.04 -1.02 4.08 0 0 Z " fill="#13456A" transform="translate(256,234)"/>
<path d="M0 0 C0.99 0.495 0.99 0.495 2 1 C1.01 1.495 1.01 1.495 0 2 C0 1.34 0 0.68 0 0 Z M-2 2 C-1.34 2.33 -0.68 2.66 0 3 C-1.98 5.31 -3.96 7.62 -6 10 C-6.33 9.34 -6.66 8.68 -7 8 C-5.35 6.02 -3.7 4.04 -2 2 Z " fill="#34475A" transform="translate(117,133)"/>
<path d="M0 0 C1.125 3.75 1.125 3.75 0 6 C-3.0625 6.625 -3.0625 6.625 -6 7 C-5.34 6.01 -4.68 5.02 -4 4 C-3.34 4 -2.68 4 -2 4 C-1.34 2.68 -0.68 1.36 0 0 Z " fill="#3083BF" transform="translate(226,234)"/>
<path d="M0 0 C1.17539996 0.92652701 2.34010577 1.86663387 3.5 2.8125 C4.1496875 3.33457031 4.799375 3.85664063 5.46875 4.39453125 C7 6 7 6 7 9 C3.64564078 7.61198929 1.88709697 6.11371 0 3 C0 2.01 0 1.02 0 0 Z " fill="#40A5F1" transform="translate(240,190)"/>
<path d="M0 0 C3.39417765 3.12621626 5.6062718 5.56541027 7 10 C2.95868733 8.65289578 2.09711566 6.61571666 0 3 C0 2.01 0 1.02 0 0 Z " fill="#69A6D6" transform="translate(245,192)"/>
<path d="M0 0 C0.66 0 1.32 0 2 0 C2 0.66 2 1.32 2 2 C2.66 2 3.32 2 4 2 C4 2.99 4 3.98 4 5 C4.66 5.33 5.32 5.66 6 6 C5.67 6.99 5.34 7.98 5 9 C4.16094435 7.87926138 3.32892169 6.75325453 2.5 5.625 C2.0359375 4.99851562 1.571875 4.37203125 1.09375 3.7265625 C0 2 0 2 0 0 Z " fill="#7B8693" transform="translate(109,364)"/>
<path d="M0 0 C3.12290635 0.48578543 5.99580359 0.9986012 9 2 C9 2.99 9 3.98 9 5 C8.01 5 7.02 5 6 5 C6 4.34 6 3.68 6 3 C4.02 2.34 2.04 1.68 0 1 C0 0.67 0 0.34 0 0 Z " fill="#5EA6DB" transform="translate(330,211)"/>
<path d="M0 0 C0.99 0 1.98 0 3 0 C2.39816251 2.02045442 1.72693904 4.02111039 1 6 C0.01 6.495 0.01 6.495 -1 7 C-1.04254356 5.00045254 -1.04080783 2.99958364 -1 1 C-0.67 0.67 -0.34 0.34 0 0 Z " fill="#399CE1" transform="translate(340,298)"/>
<path d="M0 0 C0.99 0 1.98 0 3 0 C3 0.66 3 1.32 3 2 C3.99 1.67 4.98 1.34 6 1 C5.67 2.98 5.34 4.96 5 7 C2.47411298 4.63707344 1.11179163 3.33537489 0 0 Z " fill="#3B9FE8" transform="translate(273,256)"/>
<path d="M0 0 C6.625 0.75 6.625 0.75 10 3 C9.67 3.66 9.34 4.32 9 5 C4.545 3.02 4.545 3.02 0 1 C0 0.67 0 0.34 0 0 Z " fill="#70B7EA" transform="translate(316,253)"/>
<path d="M0 0 C0.99 0.33 1.98 0.66 3 1 C-1.39453125 5.00390625 -1.39453125 5.00390625 -3 6 C-3.99 5.67 -4.98 5.34 -6 5 C-1.60546875 0.99609375 -1.60546875 0.99609375 0 0 Z " fill="#556776" transform="translate(138,111)"/>
<path d="M0 0 C1.65 0 3.3 0 5 0 C2.31158141 2.25245881 0.35358125 3.88213958 -3 5 C-3 4.01 -3 3.02 -3 2 C-2.01 2 -1.02 2 0 2 C0 1.34 0 0.68 0 0 Z " fill="#869099" transform="translate(367,386)"/>
<path d="M0 0 C0.66 0.33 1.32 0.66 2 1 C1.34 2.98 0.68 4.96 0 7 C-0.66 7 -1.32 7 -2 7 C-2 5.35 -2 3.7 -2 2 C-1.34 2 -0.68 2 0 2 C0 1.34 0 0.68 0 0 Z " fill="#5D6D7A" transform="translate(373,379)"/>
<path d="M0 0 C0.33 0 0.66 0 1 0 C1 1.98 1 3.96 1 6 C-1.31 6.33 -3.62 6.66 -6 7 C-5.195625 6.401875 -4.39125 5.80375 -3.5625 5.1875 C-0.77672016 3.19052724 -0.77672016 3.19052724 0 0 Z " fill="#2A73AA" transform="translate(316,285)"/>
</svg>
