<?xml version="1.0" encoding="UTF-8"?>
<svg version="1.1" xmlns="http://www.w3.org/2000/svg" width="225" height="225">
<path d="M0 0 C3.66623812 -0.1465954 7.331712 -0.23449874 11 -0.3125 C12.02996094 -0.35439453 13.05992187 -0.39628906 14.12109375 -0.43945312 C21.10997916 -0.55074111 25.6120735 0.44003468 31 5 C41.19049472 15.19049472 43.2941293 29.86798312 43.5 43.6875 C43.45706375 55.35517502 42.21991691 68.56141841 34.5625 77.9375 C25.22210864 86.81489782 13.39271603 86.28306822 1.34375 86.1953125 C-0.16939099 86.1915766 -1.68253442 86.18873235 -3.19567871 86.18673706 C-7.1543663 86.17914601 -11.11290424 86.15953712 -15.0715332 86.1373291 C-19.12058489 86.11677244 -23.16966104 86.10771446 -27.21875 86.09765625 C-35.14590157 86.07628638 -43.0729321 86.04220598 -51 86 C-50.505 89.465 -50.505 89.465 -50 93 C-48.14483765 92.99214478 -48.14483765 92.99214478 -46.25219727 92.98413086 C-41.68075275 92.96608439 -37.10931141 92.95456929 -32.5378418 92.94506836 C-30.55606559 92.94002733 -28.57429311 92.93319462 -26.5925293 92.92456055 C-23.75047891 92.91248485 -20.90847753 92.90676955 -18.06640625 92.90234375 C-17.17474258 92.89718246 -16.28307892 92.89202118 -15.36439514 92.88670349 C-13.24259399 92.88650823 -11.1208922 92.9378997 -9 93 C-6.49999581 95.50000419 -7.71718985 102.08650517 -7.6875 105.4375 C-7.64399414 107.02208008 -7.64399414 107.02208008 -7.59960938 108.63867188 C-7.54281375 115.72938748 -8.36744736 121.79516321 -12 128 C-21.33147811 137.31281515 -37.625832 137.90040911 -50 138 C-61.03286346 137.17425554 -70.60587762 135.52712201 -79.17578125 128.3046875 C-84.57094693 121.48852529 -85.59535048 114.56489127 -85.49609375 106.0859375 C-85.49754898 105.07205963 -85.49900421 104.05818176 -85.50050354 103.01358032 C-85.4988531 100.88402412 -85.48738857 98.75445491 -85.46655273 96.625 C-85.43751865 93.37708666 -85.44597868 90.13080085 -85.45898438 86.8828125 C-85.45274815 84.80467962 -85.44435813 82.72655186 -85.43359375 80.6484375 C-85.43652939 79.68473236 -85.43946503 78.72102722 -85.44248962 77.7281189 C-85.31469741 68.54584993 -82.55674745 62.47268658 -76 56 C-66.45316015 48.30949012 -50.80770847 50.89434259 -39.36499023 51.19189453 C-26.10670254 51.77859644 -26.10670254 51.77859644 -14 47 C-12.3603125 46.071875 -12.3603125 46.071875 -10.6875 45.125 C-5.06589385 40.68000909 -2.5791628 34.82124632 -1 28 C-0.51664136 23.14840679 -0.3997402 18.31048807 -0.3125 13.4375 C-0.27833984 12.14263672 -0.24417969 10.84777344 -0.20898438 9.51367188 C-0.12707308 6.34253456 -0.05773603 3.17165406 0 0 Z M-29.75 106.125 C-32.32741376 108.80990029 -32.32741376 108.80990029 -32 112.1875 C-31.21262767 115.29023828 -31.21262767 115.29023828 -28 117 C-24.42823885 116.91832511 -24.42823885 116.91832511 -21 116 C-18.69739241 113.18401813 -18.69739241 113.18401813 -19.125 110 C-19.7554589 106.94402071 -19.7554589 106.94402071 -21.875 105.125 C-25.42036338 103.24804292 -26.59897422 103.69011644 -29.75 106.125 Z " fill="#FCC00B" transform="translate(157,65)"/>
<path d="M0 0 C5.55627009 4.84910844 8.37962903 10.92283601 9.27139282 18.22109985 C9.37560329 20.48275368 9.39039417 22.72444845 9.36328125 24.98828125 C9.36402901 26.22495796 9.36402901 26.22495796 9.36479187 27.48661804 C9.36246824 29.21856107 9.35284196 30.95050859 9.33618164 32.68237305 C9.31265103 35.29572681 9.31562693 37.90805177 9.32226562 40.52148438 C9.28554302 64.54149969 9.28554302 64.54149969 3.9375 71.5 C-5.20159947 80.52650276 -16.92399701 80.08510893 -29.078125 80.02734375 C-32.68267348 79.98996033 -36.286449 79.93685471 -39.890625 79.87304688 C-49.888778 79.77986233 -59.1521908 80.17653642 -67 87 C-73.91292565 95.16982122 -75.30598024 103.06724055 -75.0625 113.5 C-74.94862258 119.46380274 -74.95732522 125.11575785 -76 131 C-79.52067351 131.08782542 -83.04106144 131.14066643 -86.5625 131.1875 C-87.55314453 131.21263672 -88.54378906 131.23777344 -89.56445312 131.26367188 C-96.94214608 131.3372037 -101.87846786 130.61337574 -107.6875 125.75 C-118.99374334 112.30473765 -120.08785697 94.84086275 -119 78 C-117.98266015 68.04524037 -115.7925059 58.07687202 -108.125 51.125 C-94.29325135 41.71941092 -74.65638306 44.90318935 -58.625 45 C-54.15885642 45.02671671 -49.69275629 45.04662455 -45.2265625 45.0625 C-44.21808258 45.07079834 -43.20960266 45.07909668 -42.17056274 45.08764648 C-36.67845455 45.1066381 -31.43274069 44.8171228 -26 44 C-25.67 41.69 -25.34 39.38 -25 37 C-26.26706787 37.00523682 -27.53413574 37.01047363 -28.83959961 37.01586914 C-33.5228607 37.03391514 -38.20611871 37.04543053 -42.8894043 37.05493164 C-44.91968298 37.05997278 -46.94995802 37.06680557 -48.98022461 37.07543945 C-51.89177347 37.08751467 -54.8032745 37.09323034 -57.71484375 37.09765625 C-58.6283812 37.10281754 -59.54191864 37.10797882 -60.48313904 37.11329651 C-62.65575427 37.11349168 -64.82827296 37.06211805 -67 37 C-69.3717568 34.6282432 -68.2335387 28.74158882 -68.25 25.5625 C-68.270625 24.60150391 -68.29125 23.64050781 -68.3125 22.65039062 C-68.35238281 15.25711499 -67.97488288 7.22278979 -62.75 1.5625 C-46.2619639 -7.80570233 -16.45665194 -11.54852767 0 0 Z M-55.875 15.6875 C-57.20607683 18.42360236 -57.46233717 19.99480842 -57 23 C-55.45205397 25.28118362 -54.16541924 25.93034979 -51.625 27 C-48.76576966 27.2550222 -48.76576966 27.2550222 -46.125 24.9375 C-43.68862386 22.17382474 -43.68862386 22.17382474 -44 18.8125 C-44.78737233 15.70976172 -44.78737233 15.70976172 -48 14 C-52.34420391 13.42798904 -52.34420391 13.42798904 -55.875 15.6875 Z " fill="#0376BA" transform="translate(140,29)"/>
<path d="M0 0 C5.96313166 -0.02464574 11.92623395 -0.042834 17.8894043 -0.05493164 C19.91968298 -0.05997278 21.94995802 -0.06680557 23.98022461 -0.07543945 C26.89177347 -0.08751467 29.8032745 -0.09323034 32.71484375 -0.09765625 C33.6283812 -0.10281754 34.54191864 -0.10797882 35.48313904 -0.11329651 C37.65575427 -0.11349168 39.82827296 -0.06211805 42 0 C44.50283825 2.50283825 43.23425977 9.20392939 43.25 12.5625 C43.270625 13.63564453 43.29125 14.70878906 43.3125 15.81445312 C43.34419853 22.2849158 42.71355699 27.10872495 40 33 C39.4375 31.0625 39.4375 31.0625 39 29 C39.495 28.505 39.495 28.505 40 28 C40.07205511 26.31391034 40.08386068 24.62499341 40.0625 22.9375 C40.05347656 22.01839844 40.04445312 21.09929687 40.03515625 20.15234375 C40.02355469 19.44207031 40.01195312 18.73179687 40 18 C39.34 18 38.68 18 38 18 C38 18.66 38 19.32 38 20 C37.38125 20.144375 36.7625 20.28875 36.125 20.4375 C33.96741678 20.93152225 33.96741678 20.93152225 32 22 C31.79375 20.741875 31.5875 19.48375 31.375 18.1875 C30.49193978 14.51890422 30.27006117 14.17283915 26.875 12 C25.92625 11.67 24.9775 11.34 24 11 C24 10.34 24 9.68 24 9 C24.66 9 25.32 9 26 9 C25.04134491 6.66924071 25.04134491 6.66924071 22 5 C22 3.68 22 2.36 22 1 C21.01 1.33 20.02 1.66 19 2 C17.51876453 2.0806622 16.03417796 2.10761193 14.55078125 2.09765625 C13.70322266 2.09443359 12.85566406 2.09121094 11.98242188 2.08789062 C11.10134766 2.07951172 10.22027344 2.07113281 9.3125 2.0625 C8.41982422 2.05798828 7.52714844 2.05347656 6.60742188 2.04882812 C4.40488013 2.03704983 2.20247401 2.02060164 0 2 C0 1.34 0 0.68 0 0 Z " fill="#FBC00B" transform="translate(106,158)"/>
<path d="M0 0 C0.8971875 0.309375 0.8971875 0.309375 1.8125 0.625 C0.843125 0.893125 -0.12625 1.16125 -1.125 1.4375 C-2.135625 1.829375 -3.14625 2.22125 -4.1875 2.625 C-4.5175 3.615 -4.8475 4.605 -5.1875 5.625 C-6.1775 5.625 -7.1675 5.625 -8.1875 5.625 C-7.836875 6.2025 -7.48625 6.78 -7.125 7.375 C-6.1875 9.625 -6.1875 9.625 -6.3125 11.6875 C-7.1875 13.625 -7.1875 13.625 -11.1875 16.625 C-11.1875 23.225 -11.1875 29.825 -11.1875 36.625 C2.6725 36.955 16.5325 37.285 30.8125 37.625 C30.4825 38.615 30.1525 39.605 29.8125 40.625 C29.8125 39.965 29.8125 39.305 29.8125 38.625 C28.54543213 38.63023682 27.27836426 38.63547363 25.97290039 38.64086914 C21.2896393 38.65891514 16.60638129 38.67043053 11.9230957 38.67993164 C9.89281702 38.68497278 7.86254198 38.69180557 5.83227539 38.70043945 C2.92072653 38.71251467 0.0092255 38.71823034 -2.90234375 38.72265625 C-4.27264992 38.73039818 -4.27264992 38.73039818 -5.67063904 38.73829651 C-7.84325427 38.73849168 -10.01577296 38.68711805 -12.1875 38.625 C-14.5592568 36.2532432 -13.4210387 30.36658882 -13.4375 27.1875 C-13.458125 26.22650391 -13.47875 25.26550781 -13.5 24.27539062 C-13.53540708 17.71180336 -12.85649862 11.68725179 -10.1875 5.625 C-7.6875 3.125 -7.6875 3.125 -5.1875 1.625 C-2.1875 -0.375 -2.1875 -0.375 0 0 Z " fill="#2272A3" transform="translate(85.1875,27.375)"/>
<path d="M0 0 C5.96313166 -0.02464574 11.92623395 -0.042834 17.8894043 -0.05493164 C19.91968298 -0.05997278 21.94995802 -0.06680557 23.98022461 -0.07543945 C26.89177347 -0.08751467 29.8032745 -0.09323034 32.71484375 -0.09765625 C33.6283812 -0.10281754 34.54191864 -0.10797882 35.48313904 -0.11329651 C37.65575427 -0.11349168 39.82827296 -0.06211805 42 0 C44.50283825 2.50283825 43.23425977 9.20392939 43.25 12.5625 C43.270625 13.63564453 43.29125 14.70878906 43.3125 15.81445312 C43.34419853 22.2849158 42.71355699 27.10872495 40 33 C39.4375 31.0625 39.4375 31.0625 39 29 C39.495 28.505 39.495 28.505 40 28 C40.15786308 26.14825294 40.25107356 24.2909089 40.31640625 22.43359375 C40.37924805 20.7465332 40.37924805 20.7465332 40.44335938 19.02539062 C40.48267578 17.84138672 40.52199219 16.65738281 40.5625 15.4375 C40.62727539 13.65569336 40.62727539 13.65569336 40.69335938 11.83789062 C40.79983453 8.89207803 40.90045681 5.94605498 41 3 C34.73 3 28.46 3 22 3 C22 2.34 22 1.68 22 1 C21.01 1.33 20.02 1.66 19 2 C17.51876453 2.0806622 16.03417796 2.10761193 14.55078125 2.09765625 C13.70322266 2.09443359 12.85566406 2.09121094 11.98242188 2.08789062 C11.10134766 2.07951172 10.22027344 2.07113281 9.3125 2.0625 C8.41982422 2.05798828 7.52714844 2.05347656 6.60742188 2.04882812 C4.40488013 2.03704983 2.20247401 2.02060164 0 2 C0 1.34 0 0.68 0 0 Z " fill="#EDC03C" transform="translate(106,158)"/>
<path d="M0 0 C1.59130989 0.00033989 1.59130989 0.00033989 3.21476746 0.00068665 C4.93050713 0.02391243 4.93050713 0.02391243 6.6809082 0.04760742 C8.43912651 0.05397469 8.43912651 0.05397469 10.23286438 0.06047058 C13.98270479 0.07728545 17.73201102 0.11494385 21.48168945 0.15307617 C24.02139524 0.16811933 26.56110944 0.18180837 29.10083008 0.1940918 C35.33213264 0.22719821 41.56312289 0.27742589 47.79418945 0.34057617 C47.79418945 0.67057617 47.79418945 1.00057617 47.79418945 1.34057617 C37.46079492 2.31511995 27.2732207 2.39720602 16.90356445 2.21362305 C8.10686436 2.13163626 0.33897746 2.3107175 -7.20581055 7.34057617 C-7.86581055 7.34057617 -8.52581055 7.34057617 -9.20581055 7.34057617 C-8.21281729 1.58121527 -5.7149477 -0.04072409 0 0 Z " fill="#2175A0" transform="translate(83.205810546875,106.659423828125)"/>
<path d="M0 0 C1.6933475 0.01507142 3.38670794 0.02875549 5.08007812 0.04101562 C9.19954222 0.07383296 13.3183763 0.12547937 17.4375 0.1875 C17.4375 1.1775 17.4375 2.1675 17.4375 3.1875 C3.5775 3.1875 -10.2825 3.1875 -24.5625 3.1875 C-24.5625 3.8475 -24.5625 4.5075 -24.5625 5.1875 C-25.2225 5.1875 -25.8825 5.1875 -26.5625 5.1875 C-26.2325 6.1775 -25.9025 7.1675 -25.5625 8.1875 C-28.5325 7.6925 -28.5325 7.6925 -31.5625 7.1875 C-24.12588491 -2.18910164 -10.66256953 -0.16538372 0 0 Z " fill="#ECBC40" transform="translate(111.5625,115.8125)"/>
<path d="M0 0 C0.66 1.32 1.32 2.64 2 4 C1.34 4 0.68 4 0 4 C-0.13277344 4.77085938 -0.26554687 5.54171875 -0.40234375 6.3359375 C-0.57894531 7.33882813 -0.75554688 8.34171875 -0.9375 9.375 C-1.11152344 10.37273437 -1.28554688 11.37046875 -1.46484375 12.3984375 C-2 15 -2 15 -3 17 C-3.15441209 19.10374996 -3.24992639 21.21195119 -3.31640625 23.3203125 C-3.35830078 24.57714844 -3.40019531 25.83398438 -3.44335938 27.12890625 C-3.48267578 28.44761719 -3.52199219 29.76632813 -3.5625 31.125 C-3.60569512 32.46485751 -3.64930973 33.80470156 -3.69335938 35.14453125 C-3.79970981 38.42957815 -3.90173808 41.71470281 -4 45 C-4.33 45 -4.66 45 -5 45 C-8.4907134 30.98084457 -6.84384226 12.67165191 0 0 Z " fill="#1A6CA2" transform="translate(27,86)"/>
<path d="M0 0 C0.33 0.99 0.66 1.98 1 3 C-1.57456164 7.71357713 -5.42054747 12.2076509 -10 15 C-13.8125 15.75 -13.8125 15.75 -17 16 C-17.33 15.34 -17.66 14.68 -18 14 C-16.02 14 -14.04 14 -12 14 C-12 12.02 -12 10.04 -12 8 C-7.545 7.505 -7.545 7.505 -3 7 C-2.67 5.35 -2.34 3.7 -2 2 C-1.34 2 -0.68 2 0 2 C0 1.34 0 0.68 0 0 Z " fill="#F5BF1D" transform="translate(195,133)"/>
<path d="M0 0 C1.4540625 0.0309375 1.4540625 0.0309375 2.9375 0.0625 C-7.98411169 7.34357446 -25.51015787 6.98226997 -38.0625 5.0625 C-38.0625 4.7325 -38.0625 4.4025 -38.0625 4.0625 C-30.8025 4.0625 -23.5425 4.0625 -16.0625 4.0625 C-16.0625 3.4025 -16.0625 2.7425 -16.0625 2.0625 C-14.78052734 1.97162109 -14.78052734 1.97162109 -13.47265625 1.87890625 C-11.81556641 1.75322266 -11.81556641 1.75322266 -10.125 1.625 C-9.02285156 1.54378906 -7.92070313 1.46257812 -6.78515625 1.37890625 C-3.4829675 0.99515117 -3.44254582 0.07025604 0 0 Z " fill="#F4BE34" transform="translate(135.0625,196.9375)"/>
<path d="M0 0 C0.77472656 0.00451172 1.54945312 0.00902344 2.34765625 0.01367188 C4.23180524 0.02530242 6.11591365 0.04323094 8 0.0625 C8 0.3925 8 0.7225 8 1.0625 C6.35 1.0625 4.7 1.0625 3 1.0625 C3 1.7225 3 2.3825 3 3.0625 C0.69 3.0625 -1.62 3.0625 -4 3.0625 C-4 2.4025 -4 1.7425 -4 1.0625 C-5.32 1.0625 -6.64 1.0625 -8 1.0625 C-8 1.7225 -8 2.3825 -8 3.0625 C-9.03060547 3.13597656 -9.03060547 3.13597656 -10.08203125 3.2109375 C-11.43361328 3.32308594 -11.43361328 3.32308594 -12.8125 3.4375 C-13.70582031 3.50710937 -14.59914063 3.57671875 -15.51953125 3.6484375 C-18.24398499 3.92895036 -18.24398499 3.92895036 -21 6.0625 C-23.1875 5.6875 -23.1875 5.6875 -25 5.0625 C-23.84239068 4.40056914 -22.6731617 3.75895854 -21.5 3.125 C-20.8503125 2.76535156 -20.200625 2.40570313 -19.53125 2.03515625 C-13.33421356 -0.34611238 -6.54674455 -0.07375016 0 0 Z " fill="#196EA2" transform="translate(59,73.9375)"/>
<path d="M0 0 C0.33 0 0.66 0 1 0 C1 7.59 1 15.18 1 23 C1.99 23 2.98 23 4 23 C3.67 24.98 3.34 26.96 3 29 C4.32 28.67 5.64 28.34 7 28 C7 30.66666667 7 33.33333333 7 36 C0.02040963 28.28571591 -0.28099762 21.81284476 -0.125 11.625 C-0.11597656 10.50738281 -0.10695313 9.38976562 -0.09765625 8.23828125 C-0.07418346 5.49196538 -0.04134728 2.74609528 0 0 Z " fill="#F5BD37" transform="translate(72,158)"/>
<path d="M0 0 C7.06183831 10.59275746 6.50812345 24.80503727 6 37 C5.67 37 5.34 37 5 37 C5 32.05 5 27.1 5 22 C4.34 22 3.68 22 3 22 C3 18.37 3 14.74 3 11 C2.34 11 1.68 11 1 11 C0.67 7.37 0.34 3.74 0 0 Z " fill="#F1C033" transform="translate(194,79)"/>
<path d="M0 0 C0.556875 0.226875 1.11375 0.45375 1.6875 0.6875 C0.718125 0.955625 -0.25125 1.22375 -1.25 1.5 C-2.260625 1.891875 -3.27125 2.28375 -4.3125 2.6875 C-4.6425 3.6775 -4.9725 4.6675 -5.3125 5.6875 C-6.3025 5.6875 -7.2925 5.6875 -8.3125 5.6875 C-7.961875 6.265 -7.61125 6.8425 -7.25 7.4375 C-6.3125 9.6875 -6.3125 9.6875 -6.4375 11.8125 C-7.58089727 14.262637 -8.84367594 14.73182617 -11.3125 15.6875 C-11.79980964 8.49968274 -11.79980964 8.49968274 -9.625 4.875 C-3.9125 -0.52871622 -3.9125 -0.52871622 0 0 Z " fill="#106DAC" transform="translate(85.3125,27.3125)"/>
<path d="M0 0 C3.89569135 -0.08732726 7.79112982 -0.14050185 11.6875 -0.1875 C12.79029297 -0.21263672 13.89308594 -0.23777344 15.02929688 -0.26367188 C16.09599609 -0.27333984 17.16269531 -0.28300781 18.26171875 -0.29296875 C19.24100342 -0.3086792 20.22028809 -0.32438965 21.22924805 -0.34057617 C24.45781652 0.05627404 26.34779173 1.16483275 29 3 C25.52674819 4.1577506 22.63932552 4.06866652 19 4 C19.33 3.34 19.66 2.68 20 2 C13.4 2 6.8 2 0 2 C0 1.34 0 0.68 0 0 Z " fill="#F4BC1F" transform="translate(158,66)"/>
<path d="M0 0 C0 3.2234174 -0.69715293 5.0877536 -2 8 C-2.33 8.33 -2.66 8.66 -3 9 C-3.12375 10.134375 -3.2475 11.26875 -3.375 12.4375 C-3.58125 13.613125 -3.7875 14.78875 -4 16 C-4.99 16.66 -5.98 17.32 -7 18 C-6.96813777 10.22561581 -5.2451156 5.74235898 0 0 Z " fill="#ECB92A" transform="translate(79,123)"/>
<path d="M0 0 C1.65 0.33 3.3 0.66 5 1 C4.360625 1.7425 3.72125 2.485 3.0625 3.25 C1.21666593 5.7111121 0.43930826 7.03466926 0 10 C-0.66 10 -1.32 10 -2 10 C-2 8.68 -2 7.36 -2 6 C-2.99 6 -3.98 6 -5 6 C-5 5.01 -5 4.02 -5 3 C-3.68 3.33 -2.36 3.66 -1 4 C-0.67 2.68 -0.34 1.36 0 0 Z " fill="#F6C124" transform="translate(125,168)"/>
<path d="M0 0 C0.33 0.99 0.66 1.98 1 3 C-0.14453125 5.0078125 -0.14453125 5.0078125 -1.8125 7.125 C-2.62654297 8.18074219 -2.62654297 8.18074219 -3.45703125 9.2578125 C-5 11 -5 11 -7 12 C-7.33 10.35 -7.66 8.7 -8 7 C-6.35 7 -4.7 7 -3 7 C-2.67 5.35 -2.34 3.7 -2 2 C-1.34 2 -0.68 2 0 2 C0 1.34 0 0.68 0 0 Z " fill="#F2C429" transform="translate(195,133)"/>
<path d="M0 0 C1.32 0 2.64 0 4 0 C4.66 1.65 5.32 3.3 6 5 C4.35 6.65 2.7 8.3 1 10 C0.67 6.7 0.34 3.4 0 0 Z " fill="#0C74AF" transform="translate(66,113)"/>
<path d="M0 0 C1.3921875 0.3403125 1.3921875 0.3403125 2.8125 0.6875 C0.44452009 3.30474095 -2.08350354 5.01611729 -5.1875 6.6875 C-5.8475 6.6875 -6.5075 6.6875 -7.1875 6.6875 C-6.79412881 4.40594707 -6.27463789 2.82049993 -5 0.875 C-3.1875 -0.3125 -3.1875 -0.3125 0 0 Z " fill="#1070A7" transform="translate(81.1875,107.3125)"/>
<path d="M0 0 C-1.32 0.33 -2.64 0.66 -4 1 C-4 1.66 -4 2.32 -4 3 C-4.66 3 -5.32 3 -6 3 C-5.67 3.99 -5.34 4.98 -5 6 C-7.97 5.505 -7.97 5.505 -11 5 C-7.17906575 1.05170128 -5.52310605 -0.1453449 0 0 Z " fill="#EEC02B" transform="translate(91,118)"/>
<path d="M0 0 C0.33 0 0.66 0 1 0 C1.66 2.64 2.32 5.28 3 8 C1.02 8.99 -0.96 9.98 -3 11 C-2.01 7.37 -1.02 3.74 0 0 Z " fill="#ECB92D" transform="translate(156,93)"/>
<path d="M0 0 C0.33 0 0.66 0 1 0 C1 2.31 1 4.62 1 7 C-0.65 7 -2.3 7 -4 7 C-1.125 1.125 -1.125 1.125 0 0 Z " fill="#0773B0" transform="translate(62,152)"/>
<path d="M0 0 C4.8 3.44615385 4.8 3.44615385 5.8125 6.25 C5.874375 6.8275 5.93625 7.405 6 8 C3.5625 7.375 3.5625 7.375 1 6 C0.1875 2.875 0.1875 2.875 0 0 Z " fill="#F0BF2A" transform="translate(187,70)"/>
<path d="M0 0 C0.99 0.33 1.98 0.66 3 1 C2.67 1.99 2.34 2.98 2 4 C1.77820215 5.89212737 1.59385985 7.78884472 1.4375 9.6875 C1.35371094 10.68136719 1.26992187 11.67523438 1.18359375 12.69921875 C1.12300781 13.45847656 1.06242187 14.21773437 1 15 C0.67 15 0.34 15 0 15 C0 10.05 0 5.1 0 0 Z " fill="#0370B1" transform="translate(73,46)"/>
<path d="M0 0 C0.66 0.66 1.32 1.32 2 2 C1.34 2 0.68 2 0 2 C0 1.34 0 0.68 0 0 Z M-4 2 C-0.62537285 2.54723683 1.08235 3.0549 4 5 C4 5.66 4 6.32 4 7 C-1.75 5.375 -1.75 5.375 -4 2 Z " fill="#F2C02C" transform="translate(84,192)"/>
<path d="M0 0 C3.3 0.33 6.6 0.66 10 1 C8 3 8 3 5.6171875 3.1953125 C4.71226562 3.17210938 3.80734375 3.14890625 2.875 3.125 C1.50988281 3.09792969 1.50988281 3.09792969 0.1171875 3.0703125 C-0.58148438 3.04710938 -1.28015625 3.02390625 -2 3 C-1.34 2.01 -0.68 1.02 0 0 Z " fill="#0D72AA" transform="translate(126,104)"/>
<path d="M0 0 C0.99 0.33 1.98 0.66 3 1 C1.02 3.31 -0.96 5.62 -3 8 C-3.33 6.68 -3.66 5.36 -4 4 C-2.68 3.67 -1.36 3.34 0 3 C0 2.01 0 1.02 0 0 Z " fill="#166DA1" transform="translate(143,96)"/>
</svg>
