<?xml version="1.0" encoding="UTF-8"?>
<svg version="1.1" xmlns="http://www.w3.org/2000/svg" width="662" height="377">
<path d="M0 0 C0.78503906 0.51433594 1.57007813 1.02867188 2.37890625 1.55859375 C3.96649124 2.63943444 5.493464 3.80878549 7 5 C7 5.66 7 6.32 7 7 C7.5775 7.28875 8.155 7.5775 8.75 7.875 C10.83333333 8.91666667 12.91666667 9.95833333 15 11 C15.89525391 10.09121094 15.89525391 10.09121094 16.80859375 9.1640625 C28.89554656 -2.50981466 44.51240761 -12.92467671 61.6875 -13.5 C69.63038204 -13.25808481 74.16176103 -11.83823897 79.75 -6.25 C86.46161973 3.44456184 87.18655911 11.23257589 87.18530273 22.8515625 C87.18747251 25.09655192 87.20559734 27.34103601 87.22460938 29.5859375 C87.25365914 37.24294601 87.01232835 44.55495516 85 52 C85.72703125 52.30292969 86.4540625 52.60585937 87.203125 52.91796875 C89.32526034 53.80219181 91.44627112 54.68911663 93.56640625 55.578125 C95.75344242 56.48379185 97.94816172 57.37127522 100.15234375 58.234375 C106.69478565 60.82777539 112.30430055 63.87636197 118 68 C118.99 68.66 119.98 69.32 121 70 C121 70.66 121 71.32 121 72 C121.59683594 72.26554687 122.19367188 72.53109375 122.80859375 72.8046875 C128.23710308 75.76569259 131.68501311 81.18832445 133.5234375 86.98046875 C135.47302193 95.24223229 132.85968023 101.66132034 129 109 C126.03972821 112.62633294 123.0136765 114.67629255 119 117 C118.59007812 117.44214844 118.18015625 117.88429687 117.7578125 118.33984375 C115.28537709 120.67492164 112.43920585 122.26777505 109.5 123.9375 C108.88068604 124.29086426 108.26137207 124.64422852 107.62329102 125.00830078 C102.27499697 127.98575825 96.81040014 130.09154337 91 132 C89.32888295 132.65543117 87.66088839 133.31906537 86 134 C86.22429687 135.52367187 86.22429687 135.52367187 86.453125 137.078125 C87.26328954 143.61115397 87.48473576 150.17662272 87.75 156.75 C87.81832031 158.04421875 87.88664063 159.3384375 87.95703125 160.671875 C88.40763066 172.13327531 87.17512958 183.59346283 80 193 C73.57207795 199.02346853 67.73816235 199.25856949 59.29296875 199.13671875 C48.54552008 198.69050202 36.53343803 193.89934787 29 186 C28.20851563 185.52949219 27.41703125 185.05898437 26.6015625 184.57421875 C22.98330828 182.38479465 20.14561903 179.54235249 17.0859375 176.64453125 C15.05005856 174.69044017 15.05005856 174.69044017 12 175 C11.73832031 175.59683594 11.47664063 176.19367188 11.20703125 176.80859375 C8.39982855 181.90516564 2.95862191 185.20282867 -2 188 C-2.825 188.598125 -3.65 189.19625 -4.5 189.8125 C-14.75306289 196.65668373 -26.30282794 201.18923836 -38.68359375 199.46484375 C-45.9521456 198.00623048 -49.84157573 194.86997085 -54 189 C-63.65868879 173.82206047 -59.30535342 149.85789688 -57 133 C-57.83015625 132.90074219 -58.6603125 132.80148438 -59.515625 132.69921875 C-63.51702143 131.89624794 -67.04781241 130.47361312 -70.75 128.8125 C-71.45447266 128.49933838 -72.15894531 128.18617676 -72.88476562 127.86352539 C-81.38199973 124.01504161 -90.10975636 119.38983489 -97 113 C-97 112.34 -97 111.68 -97 111 C-97.66 111 -98.32 111 -99 111 C-100.47265625 109.171875 -100.47265625 109.171875 -102.0625 106.75 C-102.58972656 105.96109375 -103.11695313 105.1721875 -103.66015625 104.359375 C-106.55201272 99.26700966 -106.72266034 93.73201039 -106 88 C-103.76074949 81.41737566 -100.28492385 76.46282459 -95 72 C-94.34 72 -93.68 72 -93 72 C-93 71.34 -93 70.68 -93 70 C-90.525 69.01 -90.525 69.01 -88 68 C-88 67.34 -88 66.68 -88 66 C-85.62030817 64.81015408 -83.24041112 63.62074876 -80.859375 62.43359375 C-79.03221986 61.51752007 -77.20887567 60.59377898 -75.390625 59.66015625 C-62.3537234 53 -62.3537234 53 -57 53 C-57.09087891 52.40687012 -57.18175781 51.81374023 -57.27539062 51.20263672 C-63.54049172 9.70035805 -63.54049172 9.70035805 -52.75 -5.3125 C-37.75353153 -21.9859929 -15.25898002 -10.08576472 0 0 Z M-43 4 C-46.25627487 11.5242349 -46.42919298 18.98267831 -46.3125 27.0625 C-46.31572266 28.18205078 -46.31894531 29.30160156 -46.32226562 30.45507812 C-46.28042025 36.9411117 -45.6654881 42.72953684 -44 49 C-40.10018007 48.54935924 -36.20496795 48.07039242 -32.31176758 47.56567383 C-30.34052729 47.31604919 -28.36652915 47.08852428 -26.39257812 46.86132812 C-25.14541016 46.69697266 -23.89824219 46.53261719 -22.61328125 46.36328125 C-20.89298706 46.15119019 -20.89298706 46.15119019 -19.13793945 45.93481445 C-15.24372447 44.77470015 -13.63246228 43.04417574 -11 40 C-10.50040771 39.44505859 -10.00081543 38.89011719 -9.48608398 38.31835938 C-9.07688721 37.83173828 -8.66769043 37.34511719 -8.24609375 36.84375 C-7.55290039 36.02197266 -7.55290039 36.02197266 -6.84570312 35.18359375 C-6.14864258 34.35021484 -6.14864258 34.35021484 -5.4375 33.5 C-4.73463867 32.66662109 -4.73463867 32.66662109 -4.01757812 31.81640625 C-2.67168782 30.2163968 -1.33538669 28.60877695 0 27 C0.77214844 26.0821875 1.54429687 25.164375 2.33984375 24.21875 C4.19969915 22.19495721 4.19969915 22.19495721 4 20 C-6.30741036 10.0437439 -19.62551204 0.4667362 -34.3125 -0.4375 C-38.72087835 0.08552794 -40.15701657 0.58841989 -43 4 Z M24 20 C24.66 21.65 25.32 23.3 26 25 C26.66 25 27.32 25 28 25 C28.27328125 25.58499268 28.5465625 26.16998535 28.828125 26.77270508 C29.97199678 28.94677639 31.22059008 30.71956024 32.75 32.63671875 C33.2759375 33.29607422 33.801875 33.95542969 34.34375 34.63476562 C34.8903125 35.31216797 35.436875 35.98957031 36 36.6875 C36.81984375 37.72100586 36.81984375 37.72100586 37.65625 38.77539062 C38.1821875 39.43087891 38.708125 40.08636719 39.25 40.76171875 C39.72953125 41.35944092 40.2090625 41.95716309 40.703125 42.57299805 C42.99183798 45.09135787 45.29193671 45.26906148 48.54296875 45.71875 C49.45240234 45.84636719 50.36183594 45.97398438 51.29882812 46.10546875 C52.25208984 46.23566406 53.20535156 46.36585937 54.1875 46.5 C55.58838867 46.69529297 55.58838867 46.69529297 57.01757812 46.89453125 C58.8401445 47.1484849 60.66289367 47.40113086 62.48583984 47.65234375 C65.65877217 48.09109454 68.8295143 48.5439412 72 49 C74.22304401 42.02853397 74.37238035 35.30621927 74.37060547 28.01855469 C74.37499193 26.00370486 74.41144138 23.99102846 74.44921875 21.9765625 C74.47149428 14.53653424 74.25770016 9.2147483 70 3 C67.28415629 0.28415629 65.31402827 -0.44914629 61.5 -0.5 C46.8604471 0.05647423 34.68649856 10.96006164 24 20 Z M13 30 C12.9175 30.61875 12.835 31.2375 12.75 31.875 C12.5025 32.57625 12.255 33.2775 12 34 C11.4225 34.268125 10.845 34.53625 10.25 34.8125 C6.97849782 36.32415939 6.97849782 36.32415939 3 43 C9.6 43 16.2 43 23 43 C23 38.87731395 21.32277298 37.79669528 18.5625 34.8125 C17.73878906 33.91144531 16.91507813 33.01039062 16.06640625 32.08203125 C15.38449219 31.39496094 14.70257813 30.70789063 14 30 C13.67 30 13.34 30 13 30 Z M-8 57 C-9.70592553 59.20474453 -9.70592553 59.20474453 -11.3125 61.9375 C-11.92738281 62.94039063 -12.54226563 63.94328125 -13.17578125 64.9765625 C-13.77777344 65.97429687 -14.37976563 66.97203125 -15 68 C-15.50917969 68.81210938 -16.01835937 69.62421875 -16.54296875 70.4609375 C-18.08260751 72.94582365 -19.54695098 75.46350544 -21 78 C-22.00740234 79.69382812 -22.00740234 79.69382812 -23.03515625 81.421875 C-26.65053425 87.55545168 -26.65053425 87.55545168 -28.0546875 94.40234375 C-27.33003554 96.86524314 -26.30772163 98.78665397 -25 101 C-24.44183594 102.04542969 -23.88367188 103.09085938 -23.30859375 104.16796875 C-16.25880246 117.89323595 -16.25880246 117.89323595 -7 130 C0.01485487 131.02060388 6.92038106 131.15161511 14 131.125 C15.54300781 131.13080078 15.54300781 131.13080078 17.1171875 131.13671875 C27.46010905 131.76642671 27.46010905 131.76642671 36.64526367 128.59985352 C42.09917576 122.15914601 45.9407338 114.4201577 49.57421875 106.859375 C51.25631887 103.48595777 53.18107588 100.30474404 55.21484375 97.1328125 C56.37648825 93.97730058 55.91307771 92.24564598 55 89 C53.55833354 85.90335743 51.89329043 82.95767954 50.1875 80 C49.74857422 79.21882813 49.30964844 78.43765625 48.85742188 77.6328125 C46.40188771 73.29822916 43.80175981 69.12233449 41 65 C39.70150028 62.88724769 38.42133129 60.76496474 37.1484375 58.63671875 C36.08400007 56.84395932 36.08400007 56.84395932 34 56 C31.1181278 55.90081224 28.26094163 55.8601869 25.37890625 55.8671875 C24.095355 55.86575241 24.095355 55.86575241 22.78587341 55.86428833 C20.97435432 55.86360721 19.16283278 55.86545676 17.35131836 55.86962891 C14.57725537 55.87497158 11.80335477 55.86968501 9.02929688 55.86328125 C7.27083298 55.86394217 5.51236918 55.86522363 3.75390625 55.8671875 C2.50692711 55.86415115 2.50692711 55.86415115 1.23475647 55.86105347 C-2.09499449 55.87461184 -4.81915406 55.93971802 -8 57 Z M53 59 C53.31453125 59.6290625 53.6290625 60.258125 53.953125 60.90625 C56.63541667 66.27083333 59.31770833 71.63541667 62 77 C62.66 77 63.32 77 64 77 C64.67413211 75.08594633 65.3390332 73.16863974 66 71.25 C66.37125 70.18265625 66.7425 69.1153125 67.125 68.015625 C68.18577477 64.88307438 68.18577477 64.88307438 68 61 C65.87528825 60.6648342 63.75022095 60.33192171 61.625 60 C59.84996094 59.7215625 59.84996094 59.7215625 58.0390625 59.4375 C55.18179992 58.95250335 55.18179992 58.95250335 53 59 Z M-33.625 60 C-34.81351562 60.185625 -36.00203125 60.37125 -37.2265625 60.5625 C-38.14179688 60.706875 -39.05703125 60.85125 -40 61 C-39.71515154 62.73030291 -39.42180062 64.45920714 -39.125 66.1875 C-38.96257812 67.15042969 -38.80015625 68.11335938 -38.6328125 69.10546875 C-38.01960483 71.91032604 -37.14333657 74.37224747 -36 77 C-35.34 77 -34.68 77 -34 77 C-32.87159372 74.93930083 -31.74721229 72.87656904 -30.625 70.8125 C-29.99851562 69.66394531 -29.37203125 68.51539063 -28.7265625 67.33203125 C-27.30306245 64.58486938 -26.07941553 61.89479619 -25 59 C-27.92747735 59 -30.73454435 59.54659519 -33.625 60 Z M-66.25 69.5625 C-67.37607666 70.10777344 -67.37607666 70.10777344 -68.52490234 70.6640625 C-78.2143727 75.4617817 -89.07938932 81.46789876 -93.1875 92.0625 C-92.84813085 97.37928339 -90.61791901 100.48227998 -86.85546875 104.01171875 C-78.23568029 111.13831551 -69.82956871 116.19026654 -59 119 C-56.99657266 119.65629516 -54.99468882 120.31760646 -53 121 C-52.62875 119.80375 -52.2575 118.6075 -51.875 117.375 C-50.04633109 111.8362432 -47.6806818 106.55376522 -45.3046875 101.234375 C-42.90606185 95.28808147 -42.82508708 92.5411263 -45.1875 86.5 C-45.64898437 85.28054687 -46.11046875 84.06109375 -46.5859375 82.8046875 C-46.82280273 82.17916992 -47.05966797 81.55365234 -47.30371094 80.90917969 C-49.08890777 76.01428514 -50.51551542 70.99251239 -52 66 C-57.61661296 65.49662431 -61.33814987 67.14773569 -66.25 69.5625 Z M81 66 C78.91046189 71.25533148 76.85692863 76.52193451 74.84667969 81.80810547 C74.16918205 83.56201948 73.45399879 85.30135872 72.7265625 87.03515625 C70.05940158 94.04500226 72.07301608 98.36714288 75 105 C76.11500837 107.88416414 77.18021549 110.78631352 78.25 113.6875 C78.77493994 115.08765313 79.30089256 116.48742725 79.828125 117.88671875 C80.40820312 119.42779297 80.40820312 119.42779297 81 121 C94.98771073 117.14534903 111.28868404 111.29398833 119.3125 98.5 C121.30144116 94.37489251 121.30144116 94.37489251 121 90 C118.79709751 84.4193137 113.70864733 81.38037598 109 78 C108.23816406 77.44699219 107.47632813 76.89398438 106.69140625 76.32421875 C101.9290105 72.99797007 97.47069399 70.9147429 92 69 C91.13375 68.443125 90.2675 67.88625 89.375 67.3125 C86.41940733 65.67914616 84.32893182 65.90423621 81 66 Z M-36 110 C-36.69848264 111.93356782 -37.38344814 113.87202298 -38.0625 115.8125 C-38.44535156 116.89144531 -38.82820313 117.97039062 -39.22265625 119.08203125 C-40.29482689 122.03182229 -40.29482689 122.03182229 -39 125 C-36.81028864 126.03171399 -36.81028864 126.03171399 -34.1875 126.6875 C-33.31480469 126.93886719 -32.44210937 127.19023437 -31.54296875 127.44921875 C-28.78209622 128.1411211 -28.78209622 128.1411211 -25 128 C-26.32781495 123.35264766 -28.2725976 119.96713076 -31 116 C-32.02930047 114.01492052 -33.03863929 112.01885749 -34 110 C-34.66 110 -35.32 110 -36 110 Z M62 110 C55.8282132 118.42690518 55.8282132 118.42690518 53 128 C57.86896303 127.40380045 62.32790951 126.43023178 67 125 C68.43410153 121.21180727 67.51009497 118.93478721 66.0625 115.25 C65.49208984 113.77273437 65.49208984 113.77273437 64.91015625 112.265625 C64.45962891 111.14414063 64.45962891 111.14414063 64 110 C63.34 110 62.68 110 62 110 Z M-44 137 C-46.61681722 150.69156153 -49.35609605 169.06469881 -43.3125 182.1171875 C-41.93951322 184.29417587 -41.93951322 184.29417587 -38.9375 186.3125 C-28.41829502 188.14918658 -19.68268847 183.47919702 -10.9375 178.125 C-3.09446229 172.50556555 -3.09446229 172.50556555 4 166 C2.62211705 163.0530446 1.02522155 160.52949105 -0.9375 157.9375 C-1.44152344 157.26589844 -1.94554687 156.59429687 -2.46484375 155.90234375 C-3.90744925 154.02776398 -3.90744925 154.02776398 -5.41259766 152.66430664 C-7 151 -7 151 -8.40014648 148.82617188 C-10.7547342 145.20638219 -12.63250242 142.54807948 -16.71923828 140.91015625 C-19.83539241 140.2576434 -22.89637299 139.83145091 -26.0625 139.5 C-27.12533203 139.35820312 -28.18816406 139.21640625 -29.28320312 139.0703125 C-31.30934457 138.80201644 -33.33751496 138.54846388 -35.36767578 138.3125 C-38.26335792 137.9687351 -41.13035524 137.51723233 -44 137 Z M61.16821289 138.80395508 C56.75850265 139.71748096 52.425483 140.25834955 47.9375 140.6875 C43.54220061 141.34223324 41.31809498 141.9669695 38.625 145.5625 C37.73567595 147.03309911 36.86137659 148.51285865 36 150 C34.81546662 151.60121659 33.60656581 153.18466951 32.375 154.75 C31.55128906 155.82507813 31.55128906 155.82507813 30.7109375 156.921875 C29 159 29 159 26.8515625 161.078125 C24.77498191 162.95760005 24.77498191 162.95760005 24 166 C25.78673205 167.5058745 27.57953508 169.0045485 29.375 170.5 C30.87160156 171.75296875 30.87160156 171.75296875 32.3984375 173.03125 C34.72204708 175.20114756 34.72204708 175.20114756 37 175 C37 175.66 37 176.32 37 177 C39.55886504 178.32002556 42.12167068 179.63113782 44.6875 180.9375 C45.40873047 181.31068359 46.12996094 181.68386719 46.87304688 182.06835938 C53.40573214 185.37944643 58.69404716 186.34790252 66 186 C70.22565246 184.42167942 71.3759376 182.20247255 73.19677734 178.24707031 C74.48839845 174.63367194 74.72032399 171.18758345 74.8125 167.375 C74.84255127 166.59664795 74.87260254 165.8182959 74.90356445 165.01635742 C75.1915512 155.59755351 75.20095423 145.96267183 72 137 C68.32906609 137 64.74879243 138.04333626 61.16821289 138.80395508 Z M3 143 C3.99 143.495 3.99 143.495 5 144 C5.72159424 145.64363134 6.39351421 147.31050386 7 149 C7.66 149 8.32 149 9 149 C9.2475 149.61875 9.495 150.2375 9.75 150.875 C11.20628639 153.35068687 12.37812506 153.95125002 15 155 C18.78034623 151.52263974 18.78034623 151.52263974 21 147 C21.99 146.67 22.98 146.34 24 146 C24.33 145.01 24.66 144.02 25 143 C17.74 143 10.48 143 3 143 Z " fill="#7CD7F3" transform="translate(319,60)"/>
<path d="M0 0 C5.07431451 4.20071457 8.29574466 8.02106872 9.32421875 14.75 C9.46645972 23.13273424 8.59084041 29.12640162 2.8203125 35.453125 C-3.34860361 41.07971881 -9.51600949 42.39701971 -17.75 42.0546875 C-22.9701627 41.1390781 -27.21728025 38.97729366 -31.1796875 35.453125 C-31.1796875 34.793125 -31.1796875 34.133125 -31.1796875 33.453125 C-31.8396875 33.453125 -32.4996875 33.453125 -33.1796875 33.453125 C-37.39499989 26.00105488 -38.84059577 18.5569629 -36.5546875 10.15625 C-33.9734389 4.21015949 -29.11354483 -0.86093615 -23.12890625 -3.42578125 C-14.72148421 -5.76026931 -7.1032103 -5.04098796 0 0 Z " fill="#7DDCF9" transform="translate(347.1796875,134.546875)"/>
<path d="M0 0 C0.33 0.99 0.66 1.98 1 3 C3.37280163 4.30535085 3.37280163 4.30535085 6.3125 5.375 C7.39789063 5.80683594 8.48328125 6.23867187 9.6015625 6.68359375 C10.72304688 7.11800781 11.84453125 7.55242187 13 8 C20.64683219 10.96955146 27.34568946 14.18233568 34 19 C34.99 19.66 35.98 20.32 37 21 C37 21.66 37 22.32 37 23 C37.59683594 23.26554687 38.19367188 23.53109375 38.80859375 23.8046875 C44.23710308 26.76569259 47.68501311 32.18832445 49.5234375 37.98046875 C51.47302193 46.24223229 48.85968023 52.66132034 45 60 C42.03972821 63.62633294 39.0136765 65.67629255 35 68 C34.59910156 68.43570313 34.19820313 68.87140625 33.78515625 69.3203125 C31.17459962 71.77663493 28.14799171 73.4668469 25.0625 75.25 C24.44181641 75.62640625 23.82113281 76.0028125 23.18164062 76.390625 C18.57045863 79.0620659 18.57045863 79.0620659 15.55859375 78.734375 C14.78708984 78.37085938 14.78708984 78.37085938 14 78 C14.99 77.01 14.99 77.01 16 76 C15.525625 75.54625 15.05125 75.0925 14.5625 74.625 C13 73 13 73 12 71 C10.10466658 70.53476937 10.10466658 70.53476937 7.9375 70.375 C5.9884375 70.189375 5.9884375 70.189375 4 70 C6.42767929 68.38154714 8.40917382 67.34792807 11.0625 66.25 C15.61761582 64.27860561 19.74309462 61.82126725 23.93359375 59.171875 C26 58 26 58 28 58 C28.33 57.01 28.66 56.02 29 55 C30.66666667 53.33333333 32.33333333 51.66666667 34 50 C36.01519663 46.92922418 36.35603914 44.64940122 36 41 C35.00785097 37.29574869 35.00785097 37.29574869 32.1875 34.9375 C31.465625 34.628125 30.74375 34.31875 30 34 C28.33333333 32.66666667 26.66666667 31.33333333 25 30 C19.50811858 25.99155782 14.40480864 23.24168303 8 21 C7.13375 20.46375 6.2675 19.9275 5.375 19.375 C2.58748775 17.76117712 0.17723027 17.36944538 -3 17 C-3.22042969 17.93005859 -3.22042969 17.93005859 -3.4453125 18.87890625 C-5.5635972 27.24247861 -8.68734096 35.05605065 -12 43 C-14 40 -14 40 -14 38 C-13.34 38 -12.68 38 -12 38 C-11.67 35.69 -11.34 33.38 -11 31 C-10.34 31 -9.68 31 -9 31 C-9 27.04 -9 23.08 -9 19 C-8.01 19 -7.02 19 -6 19 C-5.9175 18.21625 -5.835 17.4325 -5.75 16.625 C-5 14 -5 14 -3.125 12.6875 C-1 12 -1 12 2 12 C1.649375 11.401875 1.29875 10.80375 0.9375 10.1875 C0 8 0 8 1 5 C0.01 5 -0.98 5 -2 5 C-2 4.01 -2 3.02 -2 2 C-1.34 2 -0.68 2 0 2 C0 1.34 0 0.68 0 0 Z " fill="#7CD8F5" transform="translate(403,109)"/>
<path d="M0 0 C5.93478871 4.75373623 10.03985352 11.81760368 11.5703125 19.2578125 C11.65022354 21.06363005 11.67801073 22.87213059 11.66796875 24.6796875 C11.66313477 26.21689453 11.66313477 26.21689453 11.65820312 27.78515625 C11.64563477 29.38037109 11.64563477 29.38037109 11.6328125 31.0078125 C11.62830078 32.08675781 11.62378906 33.16570312 11.61914062 34.27734375 C11.60736977 36.93755633 11.59092649 39.59765615 11.5703125 42.2578125 C11.2403125 42.2578125 10.9103125 42.2578125 10.5703125 42.2578125 C10.5703125 35.6578125 10.5703125 29.0578125 10.5703125 22.2578125 C9.9103125 22.2578125 9.2503125 22.2578125 8.5703125 22.2578125 C8.2403125 20.6078125 7.9103125 18.9578125 7.5703125 17.2578125 C6.9103125 17.2578125 6.2503125 17.2578125 5.5703125 17.2578125 C5.0753125 16.2678125 5.0753125 16.2678125 4.5703125 15.2578125 C4.3846875 16.6809375 4.3846875 16.6809375 4.1953125 18.1328125 C3.5703125 21.2578125 3.5703125 21.2578125 1.5703125 23.2578125 C1.2315419 25.74539079 1.2315419 25.74539079 1.2265625 28.640625 C1.18208984 30.26871094 1.18208984 30.26871094 1.13671875 31.9296875 C1.10384766 33.63898438 1.10384766 33.63898438 1.0703125 35.3828125 C0.92776245 42.64447992 0.68579819 49.28012179 -1.4296875 56.2578125 C-2.0896875 55.9278125 -2.7496875 55.5978125 -3.4296875 55.2578125 C-3.26960205 54.73541992 -3.1095166 54.21302734 -2.94458008 53.67480469 C-1.8922612 48.73504323 -2.16382097 43.61046195 -2.13452148 38.578125 C-2.12302458 37.20497311 -2.10260856 35.83186511 -2.07299805 34.45898438 C-1.89888385 26.37386049 -1.77770532 20.0639558 -6.4296875 13.2578125 C-10.77808802 10.35887882 -14.32627036 10.6103121 -19.4296875 11.2578125 C-31.32075067 14.48890139 -41.01990912 22.64204795 -50.4296875 30.2578125 C-50.0996875 31.9078125 -49.7696875 33.5578125 -49.4296875 35.2578125 C-48.7696875 35.2578125 -48.1096875 35.2578125 -47.4296875 35.2578125 C-47.7596875 35.9178125 -48.0896875 36.5778125 -48.4296875 37.2578125 C-49.39325915 40.355963 -49.5077314 43.08636847 -49.4296875 46.3203125 C-49.3551744 49.41726307 -49.43660748 51.27857245 -50.4296875 54.2578125 C-58.0196875 54.2578125 -65.6096875 54.2578125 -73.4296875 54.2578125 C-73.0996875 53.5978125 -72.7696875 52.9378125 -72.4296875 52.2578125 C-65.8296875 52.2578125 -59.2296875 52.2578125 -52.4296875 52.2578125 C-57.67544027 44.87063838 -57.67544027 44.87063838 -61.4296875 41.2578125 C-63.7396875 43.8978125 -66.0496875 46.5378125 -68.4296875 49.2578125 C-70.4296875 46.2578125 -70.4296875 46.2578125 -70.0546875 43.8203125 C-69.7453125 42.551875 -69.7453125 42.551875 -69.4296875 41.2578125 C-69.4296875 39.9378125 -69.4296875 38.6178125 -69.4296875 37.2578125 C-68.7696875 37.2578125 -68.1096875 37.2578125 -67.4296875 37.2578125 C-66.7696875 37.9178125 -66.1096875 38.5778125 -65.4296875 39.2578125 C-64.09368829 38.93532993 -62.76075372 38.60008667 -61.4296875 38.2578125 C-58.6796875 38.6953125 -58.6796875 38.6953125 -56.4296875 39.2578125 C-55.49545105 36.24749506 -55.38518839 35.39130982 -56.4296875 32.2578125 C-55.4396875 32.2578125 -54.4496875 32.2578125 -53.4296875 32.2578125 C-51.8006197 27.46643662 -51.22391322 24.20148704 -52.4296875 19.2578125 C-54.65708451 20.31982987 -54.65708451 20.31982987 -57.4296875 22.2578125 C-58.0896875 21.5978125 -58.7496875 20.9378125 -59.4296875 20.2578125 C-46.07140311 6.66977875 -19.30829192 -11.95275214 0 0 Z " fill="#79D0E9" transform="translate(394.4296875,49.7421875)"/>
<path d="M0 0 C6.15234375 -0.09765625 6.15234375 -0.09765625 8 0 C9 1 9 1 9.0625 4.5625 C9.041875 5.696875 9.02125 6.83125 9 8 C10.98 8 12.96 8 15 8 C15 10.31 15 12.62 15 15 C13.02 15 11.04 15 9 15 C9 20.28 9 25.56 9 31 C10.98 31 12.96 31 15 31 C16 32 16 32 16.0625 35.0625 C16.041875 36.031875 16.02125 37.00125 16 38 C14.08529156 38.13547465 12.16781519 38.23220869 10.25 38.3125 C9.18265625 38.37050781 8.1153125 38.42851562 7.015625 38.48828125 C4 38 4 38 1.65625 36.0625 C-0.59294843 31.90360479 -0.66905558 28.34916254 -0.75 23.6875 C-0.77964844 22.85154297 -0.80929687 22.01558594 -0.83984375 21.15429688 C-0.91016107 19.10337515 -0.95738973 17.05168438 -1 15 C-2.90068854 14.36320084 -2.90068854 14.36320084 -5 14 C-5.63421875 14.48082031 -6.2684375 14.96164062 -6.921875 15.45703125 C-9.63641711 17.47252774 -10.962655 17.16329993 -14.25 16.6875 C-15.14203125 16.56761719 -16.0340625 16.44773437 -16.953125 16.32421875 C-17.62859375 16.21722656 -18.3040625 16.11023438 -19 16 C-21.46270288 19.69405432 -21.22985417 21.63277072 -21 26 C-20.57145005 28.31036915 -20.57145005 28.31036915 -20 30 C-15.78121808 30.19622241 -12.82989106 29.80230168 -9 28 C-9 28.66 -9 29.32 -9 30 C-7.35 30.33 -5.7 30.66 -4 31 C-4.1875 32.8125 -4.1875 32.8125 -5 35 C-10.35858942 38.95652122 -15.58032052 38.78182835 -22 38 C-25.61996174 36.3148454 -27.35326402 35.29570209 -29.1328125 31.73046875 C-30.10069748 28.68293902 -30.26629023 26.19288429 -30.25 23 C-30.25515625 21.989375 -30.2603125 20.97875 -30.265625 19.9375 C-29.78765103 14.6516702 -28.03330848 11.42220114 -24 8 C-18.64127009 6.2137567 -12.99669358 6.04158708 -7.875 8.5 C-7.25625 8.995 -6.6375 9.49 -6 10 C-5.34 9.34 -4.68 8.68 -4 8 C-2.68 8 -1.36 8 0 8 C0 5.36 0 2.72 0 0 Z " fill="#D8D8D8" transform="translate(347,283)"/>
<path d="M0 0 C0.9075 -0.020625 1.815 -0.04125 2.75 -0.0625 C7.70849365 -0.09149704 11.283625 -0.08803837 15.25 3.25 C17.88068168 7.33209226 18.85406904 10.41744769 18.25 15.25 C16.72285921 18.95877049 15.13289366 21.51246232 12.25 24.25 C12.7553125 24.99765625 13.260625 25.7453125 13.78125 26.515625 C14.4309375 27.50046875 15.080625 28.4853125 15.75 29.5 C16.3996875 30.47453125 17.049375 31.4490625 17.71875 32.453125 C19.25 35.25 19.25 35.25 19.25 39.25 C16.02465151 39.98914236 13.45216534 40.16419844 10.25 39.25 C6.50095237 35.44471665 3.63643563 31.02287127 1.25 26.25 C0.59 26.58 -0.07 26.91 -0.75 27.25 C-1.21898963 30.0659849 -1.21898963 30.0659849 -1.375 33.3125 C-1.44976562 34.41722656 -1.52453125 35.52195312 -1.6015625 36.66015625 C-1.65054688 37.51480469 -1.69953125 38.36945313 -1.75 39.25 C-7.90234375 39.34765625 -7.90234375 39.34765625 -9.75 39.25 C-11.56565436 37.43434564 -10.87861899 34.93730038 -10.88894653 32.52111816 C-10.8869223 31.72008667 -10.88489807 30.91905518 -10.8828125 30.09375 C-10.88376923 29.27628296 -10.88472595 28.45881592 -10.88571167 27.61657715 C-10.88639345 25.88484622 -10.88453929 24.15311276 -10.88037109 22.42138672 C-10.87502279 19.76133518 -10.88031612 17.1014525 -10.88671875 14.44140625 C-10.88605797 12.76302046 -10.8847768 11.08463477 -10.8828125 9.40625 C-10.88483673 8.60521851 -10.88686096 7.80418701 -10.88894653 6.97888184 C-10.85225197 -1.6060035 -7.57267403 0.04230544 0 0 Z M-1.75 8.25 C-1.75 10.89 -1.75 13.53 -1.75 16.25 C-0.47125 16.270625 0.8075 16.29125 2.125 16.3125 C2.84429687 16.32410156 3.56359375 16.33570313 4.3046875 16.34765625 C6.33185404 16.37649242 6.33185404 16.37649242 8.25 15.25 C8.41687448 12.83354218 8.41687448 12.83354218 8.25 10.25 C6.48863645 8.06668311 6.48863645 8.06668311 4.3046875 8.0546875 C1.27734375 8.15234375 1.27734375 8.15234375 -1.75 8.25 Z " fill="#E1E1E1" transform="translate(234.75,281.75)"/>
<path d="M0 0 C0.98097656 0.64839844 1.96195312 1.29679687 2.97265625 1.96484375 C3.75769531 2.47917969 4.54273438 2.99351563 5.3515625 3.5234375 C6.93914749 4.60427819 8.46612025 5.77362924 9.97265625 6.96484375 C9.97265625 7.62484375 9.97265625 8.28484375 9.97265625 8.96484375 C10.55015625 9.25359375 11.12765625 9.54234375 11.72265625 9.83984375 C12.46515625 10.21109375 13.20765625 10.58234375 13.97265625 10.96484375 C14.69453125 11.29484375 15.41640625 11.62484375 16.16015625 11.96484375 C17.97265625 12.96484375 17.97265625 12.96484375 18.97265625 14.96484375 C17.85890625 15.08859375 16.74515625 15.21234375 15.59765625 15.33984375 C11.94161948 15.61142505 11.94161948 15.61142505 9.97265625 17.96484375 C9.97265625 17.30484375 9.97265625 16.64484375 9.97265625 15.96484375 C8.26425344 17.59896818 7.03812578 18.83390469 5.97265625 20.96484375 C6.63265625 20.96484375 7.29265625 20.96484375 7.97265625 20.96484375 C7.64265625 22.61484375 7.31265625 24.26484375 6.97265625 25.96484375 C6.64265625 25.30484375 6.31265625 24.64484375 5.97265625 23.96484375 C6.46765625 22.97484375 6.46765625 22.97484375 6.97265625 21.96484375 C6.40804687 21.7121875 5.8434375 21.45953125 5.26171875 21.19921875 C2.66044523 19.79648423 0.6097459 18.11588326 -1.65234375 16.21484375 C-10.5050924 9.06254976 -19.66151128 3.30401035 -31.27734375 2.46484375 C-36.10885748 3.10904558 -37.63628029 4.57378029 -41.02734375 7.96484375 C-40.4900848 4.5877875 -39.91669752 1.26815775 -39.02734375 -2.03515625 C-39.68734375 -2.03515625 -40.34734375 -2.03515625 -41.02734375 -2.03515625 C-41.02734375 -1.37515625 -41.02734375 -0.71515625 -41.02734375 -0.03515625 C-42.01734375 -0.36515625 -43.00734375 -0.69515625 -44.02734375 -1.03515625 C-45.35840997 -1.37743042 -46.69134454 -1.71267368 -48.02734375 -2.03515625 C-48.02734375 -5.03515625 -48.02734375 -5.03515625 -46.83203125 -6.578125 C-32.52449582 -18.1294469 -13.24855727 -8.47970829 0 0 Z " fill="#7DD6F1" transform="translate(316.02734375,58.03515625)"/>
<path d="M0 0 C3.25295092 1.66780593 4.62484779 3.14981734 7 6 C4.75 8.5 4.75 8.5 2 11 C-2 11 -2 11 -5 9 C-8.12521833 8.83300768 -8.12521833 8.83300768 -11 9 C-11.33 10.32 -11.66 11.64 -12 13 C-11.29875 13.07476562 -10.5975 13.14953125 -9.875 13.2265625 C-3.98082171 14.04341873 0.94643223 15.15233878 5.58984375 19.0234375 C7.96375585 22.35086 7.83353459 25.46461678 7.53125 29.4375 C6.81529059 32.89095128 5.66726557 34.70318798 3 37 C-2.34309324 40.38800685 -8.94809024 39.78850049 -15 39 C-18.23012277 37.51601606 -20.796436 35.81262362 -23 33 C-23 32.01 -23 31.02 -23 30 C-22.360625 29.71125 -21.72125 29.4225 -21.0625 29.125 C-18.84793921 28.17176549 -18.84793921 28.17176549 -18 26 C-15.50638429 27.20381448 -13.31856917 28.45428722 -11 30 C-8.94290404 30.24055468 -8.94290404 30.24055468 -6.8125 30.125 C-5.554375 30.08375 -4.29625 30.0425 -3 30 C-2.67 28.68 -2.34 27.36 -2 26 C-2.56847656 25.81824219 -3.13695312 25.63648438 -3.72265625 25.44921875 C-18.69601067 20.57475446 -18.69601067 20.57475446 -22 16 C-23.1475091 12.48997216 -23.55599982 10.23020434 -22.0078125 6.8046875 C-16.78717309 -1.81400123 -9.3421845 -1.02367471 0 0 Z " fill="#DBDBDB" transform="translate(424,282)"/>
<path d="M0 0 C0.66 0 1.32 0 2 0 C2.029729 1.3929126 2.029729 1.3929126 2.06005859 2.81396484 C2.13808613 6.2545052 2.22477462 9.69459891 2.31738281 13.13476562 C2.35569998 14.62458889 2.39054808 16.11450554 2.421875 17.60449219 C2.46746729 19.74448048 2.52546874 21.88382436 2.5859375 24.0234375 C2.6173584 25.31169434 2.6487793 26.59995117 2.68115234 27.92724609 C2.68458268 31.10481505 2.68458268 31.10481505 5 33 C5.33 32.01 5.66 31.02 6 30 C8.31 30.66 10.62 31.32 13 32 C11.45062915 39.74685426 8.99732381 47.11532433 2.4375 52 C-5.4262203 56.57525545 -15.90122866 56.10261052 -24.58984375 53.91015625 C-29.99937794 51.86733378 -35.00546192 48.88710548 -40 46 C-38.02 45.505 -38.02 45.505 -36 45 C-36 45.66 -36 46.32 -36 47 C-33.36 47 -30.72 47 -28 47 C-27.896875 46.21625 -27.79375 45.4325 -27.6875 44.625 C-27 42 -27 42 -24 40 C-21.30639452 40.04321292 -18.73532832 40.18146363 -16.0625 40.4375 C-9.91093346 41.26578195 -9.91093346 41.26578195 -4 40 C-2.75 37.08333333 -2.75 37.08333333 -2 34 C-1.505 33.01 -1.505 33.01 -1 32 C-0.76054329 29.24476973 -0.57527603 26.51061296 -0.4375 23.75 C-0.37381226 22.54947998 -0.37381226 22.54947998 -0.30883789 21.32470703 C0.04235274 14.21186014 0.10304257 7.12138638 0 0 Z " fill="#79D0E9" transform="translate(393,204)"/>
<path d="M0 0 C3.05270317 2.76651225 4.81537589 5.04324431 5.25585938 9.2644043 C5.33132377 12.20267163 5.31043313 15.12393915 5.25 18.0625 C5.24484375 19.08085937 5.2396875 20.09921875 5.234375 21.1484375 C5.15427055 28.65822945 5.15427055 28.65822945 4 29.8125 C0.57135097 30.11934737 -2.87180628 30.09088869 -6.3125 30.125 C-7.75786133 30.16850586 -7.75786133 30.16850586 -9.23242188 30.21289062 C-16.28608756 30.27643716 -16.28608756 30.27643716 -19.6328125 28.1015625 C-22.03195543 24.08471177 -21.80515638 20.32869534 -21 15.8125 C-18.85912641 12.26898509 -17.20401771 11.13210582 -13.21875 10.07421875 C-10.4826284 9.55590705 -7.76521541 9.13696486 -5 8.8125 C-5 8.1525 -5 7.4925 -5 6.8125 C-8.29611152 6.65919249 -10.53625676 6.5975946 -13.5625 8 C-16 8.8125 -16 8.8125 -18.8125 7.4375 C-19.534375 6.90125 -20.25625 6.365 -21 5.8125 C-20.3125 3.4375 -20.3125 3.4375 -19 0.8125 C-13.15203236 -2.17782202 -6.08547753 -2.40883486 0 0 Z M-11 16.8125 C-11.66 18.4625 -12.32 20.1125 -13 21.8125 C-10.6984589 22.59052187 -10.6984589 22.59052187 -8 22.8125 C-5.63517472 21.6852078 -5.63517472 21.6852078 -4 19.8125 C-4 18.8225 -4 17.8325 -4 16.8125 C-6.31 16.8125 -8.62 16.8125 -11 16.8125 Z " fill="#D8D8D8" transform="translate(308,291.1875)"/>
<path d="M0 0 C3.08206686 2.17999851 3.68964627 3.16238442 4.5625 6.8125 C5.04244689 9.80450935 5.48106886 12.78075592 5.5625 15.8125 C3.44324396 17.93175604 -1.0571093 17.23081017 -4 17.375 C-4.80630859 17.41818359 -5.61261719 17.46136719 -6.44335938 17.50585938 C-8.44118805 17.61225262 -10.4393207 17.71290888 -12.4375 17.8125 C-12.1075 19.1325 -11.7775 20.4525 -11.4375 21.8125 C-8.02093976 21.97927282 -8.02093976 21.97927282 -4.4375 21.8125 C-3.7775 21.1525 -3.1175 20.4925 -2.4375 19.8125 C0.57555957 20.20128188 1.95935311 21.07706874 4.5625 22.8125 C4.2104874 25.36459137 3.79398097 26.58157952 1.94921875 28.421875 C-1.26269738 30.2933024 -3.67550654 30.24605177 -7.375 30.25 C-8.58027344 30.26933594 -9.78554688 30.28867187 -11.02734375 30.30859375 C-15.01419649 29.72860486 -16.59645867 28.60755325 -19.4375 25.8125 C-22.97338974 20.69155624 -23.001726 15.81747668 -22.4375 9.8125 C-21.33254088 5.29221268 -18.90484108 2.85699461 -15.4375 -0.1875 C-10.17360927 -1.94213024 -5.23300261 -1.80776454 0 0 Z M-11.25 7.125 C-12.62933114 8.74119435 -12.62933114 8.74119435 -12.4375 10.8125 C-9.7975 10.8125 -7.1575 10.8125 -4.4375 10.8125 C-4.1075 10.1525 -3.7775 9.4925 -3.4375 8.8125 C-4.27197997 6.55894234 -4.27197997 6.55894234 -6.8125 6 C-9.45426873 5.52867526 -9.45426873 5.52867526 -11.25 7.125 Z " fill="#E1E1E1" transform="translate(278.4375,291.1875)"/>
<path d="M0 0 C0.33 0.99 0.66 1.98 1 3 C3.37280163 4.30535085 3.37280163 4.30535085 6.3125 5.375 C7.39660156 5.80554688 8.48070312 6.23609375 9.59765625 6.6796875 C10.72042969 7.11539063 11.84320313 7.55109375 13 8 C20.12545546 10.81521062 26.63226991 13.71402782 33 18 C32.01 18.495 32.01 18.495 31 19 C31.20625 19.598125 31.4125 20.19625 31.625 20.8125 C32 23 32 23 30 26 C29.34 25.67 28.68 25.34 28 25 C28.6954344 28.00384054 28.6954344 28.00384054 30 31 C32.03243548 31.96877057 32.03243548 31.96877057 34 32 C34 33.32 34 34.64 34 36 C30.53792475 34.46129989 27.95042033 32.36033626 25 30 C19.50811858 25.99155782 14.40480864 23.24168303 8 21 C7.13375 20.46375 6.2675 19.9275 5.375 19.375 C2.58748775 17.76117712 0.17723027 17.36944538 -3 17 C-3.22042969 17.93005859 -3.22042969 17.93005859 -3.4453125 18.87890625 C-5.5635972 27.24247861 -8.68734096 35.05605065 -12 43 C-14 40 -14 40 -14 38 C-13.34 38 -12.68 38 -12 38 C-11.67 35.69 -11.34 33.38 -11 31 C-10.34 31 -9.68 31 -9 31 C-9 27.04 -9 23.08 -9 19 C-8.01 19 -7.02 19 -6 19 C-5.9175 18.21625 -5.835 17.4325 -5.75 16.625 C-5 14 -5 14 -3.125 12.6875 C-1 12 -1 12 2 12 C1.649375 11.401875 1.29875 10.80375 0.9375 10.1875 C0 8 0 8 1 5 C0.01 5 -0.98 5 -2 5 C-2 4.01 -2 3.02 -2 2 C-1.34 2 -0.68 2 0 2 C0 1.34 0 0.68 0 0 Z " fill="#7CD7F4" transform="translate(403,109)"/>
<path d="M0 0 C1.23556641 0.01740234 1.23556641 0.01740234 2.49609375 0.03515625 C3.32238281 0.04417969 4.14867187 0.05320312 5 0.0625 C5.63808594 0.07410156 6.27617187 0.08570313 6.93359375 0.09765625 C7.03291651 4.54502367 7.10527378 8.99179338 7.15332031 13.43994141 C7.17336166 14.95112361 7.2006028 16.46222897 7.23535156 17.97314453 C7.28420484 20.15286268 7.30663599 22.33155056 7.32421875 24.51171875 C7.34516602 25.82092285 7.36611328 27.13012695 7.38769531 28.47900391 C6.85882536 32.69347189 5.58899392 34.8256255 2.93359375 38.09765625 C-0.03880416 39.5838552 -2.76260203 39.22942634 -6.06640625 39.22265625 C-7.95359375 39.22652344 -7.95359375 39.22652344 -9.87890625 39.23046875 C-13.06640625 39.09765625 -13.06640625 39.09765625 -15.06640625 38.09765625 C-14.47962294 34.5769564 -13.70990704 32.38465782 -12.06640625 29.09765625 C-7.61140625 30.08765625 -7.61140625 30.08765625 -3.06640625 31.09765625 C-3.07164307 30.194104 -3.07687988 29.29055176 -3.08227539 28.35961914 C-3.09928311 25.01814136 -3.11183958 21.67670933 -3.12133789 18.33520508 C-3.12637726 16.88695552 -3.13320878 15.43871108 -3.1418457 13.99047852 C-3.15392872 11.91291037 -3.15963836 9.83540928 -3.1640625 7.7578125 C-3.17191772 5.88041382 -3.17191772 5.88041382 -3.17993164 3.96508789 C-3.02861527 0.14312927 -3.02861527 0.14312927 0 0 Z " fill="#D5D5D5" transform="translate(390.06640625,281.90234375)"/>
<path d="M0 0 C8.08860759 0.34566699 8.08860759 0.34566699 11.4375 2.75 C14.52217642 7.19193404 15.48594508 10.37818915 14.609375 15.8671875 C13.52755193 19.65356825 11.67817593 23.10525998 9 26 C6.83203125 26.72265625 6.83203125 26.72265625 5 27 C5 28.32 5 29.64 5 31 C4.360625 31.12375 3.72125 31.2475 3.0625 31.375 C2.381875 31.58125 1.70125 31.7875 1 32 C0.67 32.66 0.34 33.32 0 34 C-2.0625 34.625 -2.0625 34.625 -4 35 C-4 34.34 -4 33.68 -4 33 C-3.01 32.505 -3.01 32.505 -2 32 C-1.34786708 29.97536745 -1.34786708 29.97536745 -1 28 C-1.66 27.67 -2.32 27.34 -3 27 C-2.75 23.625 -2.75 23.625 -2 20 C0.0625 18.5625 0.0625 18.5625 2 18 C1.67 16.35 1.34 14.7 1 13 C-1.97 12.505 -1.97 12.505 -5 12 C-3.92598892 9.08482708 -3.22189824 7.22189824 -1 5 C-0.35232207 2.42938689 -0.35232207 2.42938689 0 0 Z " fill="#7DDCF8" transform="translate(294,105)"/>
<path d="M0 0 C0.33 0.99 0.66 1.98 1 3 C1.66 3 2.32 3 3 3 C3.33 4.65 3.66 6.3 4 8 C4.66 8 5.32 8 6 8 C6.19616609 12.4579968 6.38047068 16.91640535 6.5625 21.375 C6.61857422 22.64601563 6.67464844 23.91703125 6.73242188 25.2265625 C6.78076172 26.43828125 6.82910156 27.65 6.87890625 28.8984375 C6.9260376 30.01911621 6.97316895 31.13979492 7.02172852 32.29443359 C7 35 7 35 6 37 C3.3147536 38.37891032 1.70223141 39.11387536 -1.3125 38.625 C-1.869375 38.41875 -2.42625 38.2125 -3 38 C-2.34 38 -1.68 38 -1 38 C-1 37.34 -1 36.68 -1 36 C-2.32 36 -3.64 36 -5 36 C-4.9185562 31.66593013 -4.80575957 27.33320928 -4.6875 23 C-4.66494141 21.77925781 -4.64238281 20.55851562 -4.61914062 19.30078125 C-4.16928534 4.16928534 -4.16928534 4.16928534 0 0 Z " fill="#7FDFFB" transform="translate(399,64)"/>
<path d="M0 0 C6.41601393 2.97135071 12.82824861 6.07383457 18 11 C18 11.66 18 12.32 18 13 C18.5775 13.28875 19.155 13.5775 19.75 13.875 C20.4925 14.24625 21.235 14.6175 22 15 C22.721875 15.33 23.44375 15.66 24.1875 16 C26 17 26 17 27 19 C25.88625 19.12375 24.7725 19.2475 23.625 19.375 C19.96896323 19.6465813 19.96896323 19.6465813 18 22 C18 21.34 18 20.68 18 20 C16.29159719 21.63412443 15.06546953 22.86906094 14 25 C14.66 25 15.32 25 16 25 C15.67 26.65 15.34 28.3 15 30 C14.67 29.34 14.34 28.68 14 28 C14.33 27.34 14.66 26.68 15 26 C14.43796875 25.74863281 13.8759375 25.49726562 13.296875 25.23828125 C10.6584215 23.81584969 8.55285257 22.10532149 6.25 20.1875 C2.00515441 16.72990322 -2.29338058 13.7891078 -7 11 C-6.41605469 10.86464844 -5.83210938 10.72929688 -5.23046875 10.58984375 C-1.98138293 9.73062841 0.96509459 8.43155916 4 7 C4.33 6.34 4.66 5.68 5 5 C3.35 4.67 1.7 4.34 0 4 C0 2.68 0 1.36 0 0 Z " fill="#7ED7F2" transform="translate(308,54)"/>
<path d="M0 0 C0.99 0.33 1.98 0.66 3 1 C4.33957845 8.18501171 4.33957845 8.18501171 2.75 12 C1.88375 12.99 1.88375 12.99 1 14 C0.01 14 -0.98 14 -2 14 C-1.443125 15.1446875 -1.443125 15.1446875 -0.875 16.3125 C-0.58625 17.199375 -0.2975 18.08625 0 19 C-0.66 19.99 -1.32 20.98 -2 22 C-3.258125 21.835 -4.51625 21.67 -5.8125 21.5 C-8.26456585 21.17841759 -10.51650694 21 -13 21 C-13.33 20.01 -13.66 19.02 -14 18 C-14.99 17.67 -15.98 17.34 -17 17 C-17 17.66 -17 18.32 -17 19 C-17.99 19.33 -18.98 19.66 -20 20 C-19.71125 19.443125 -19.4225 18.88625 -19.125 18.3125 C-17.9586747 15.91505355 -16.9660119 13.48403061 -16 11 C-16.66 11 -17.32 11 -18 11 C-18 9.68 -18 8.36 -18 7 C-16.58461283 6.66127487 -15.16762037 6.32925376 -13.75 6 C-12.56664062 5.7215625 -12.56664062 5.7215625 -11.359375 5.4375 C-9 5 -9 5 -5 5 C-5 4.34 -5 3.68 -5 3 C-4.360625 2.87625 -3.72125 2.7525 -3.0625 2.625 C-2.381875 2.41875 -1.70125 2.2125 -1 2 C-0.67 1.34 -0.34 0.68 0 0 Z " fill="#7EDEFC" transform="translate(340,68)"/>
<path d="M0 0 C3.12910998 1.67973695 3.8358048 3.0449105 5.296875 6.2421875 C5.70421875 7.10585938 6.1115625 7.96953125 6.53125 8.859375 C8.1903518 12.95608021 8.66911366 16.36422844 8.64453125 20.7890625 C8.64130859 21.81386719 8.63808594 22.83867188 8.63476562 23.89453125 C8.62638672 24.95800781 8.61800781 26.02148438 8.609375 27.1171875 C8.60486328 28.19613281 8.60035156 29.27507812 8.59570312 30.38671875 C8.58393227 33.04693133 8.56748899 35.70703115 8.546875 38.3671875 C8.216875 38.3671875 7.886875 38.3671875 7.546875 38.3671875 C7.546875 31.7671875 7.546875 25.1671875 7.546875 18.3671875 C6.886875 18.3671875 6.226875 18.3671875 5.546875 18.3671875 C5.051875 15.8921875 5.051875 15.8921875 4.546875 13.3671875 C3.886875 13.3671875 3.226875 13.3671875 2.546875 13.3671875 C2.216875 12.7071875 1.886875 12.0471875 1.546875 11.3671875 C1.423125 12.3159375 1.299375 13.2646875 1.171875 14.2421875 C0.546875 17.3671875 0.546875 17.3671875 -1.453125 19.3671875 C-1.7918956 21.85476579 -1.7918956 21.85476579 -1.796875 24.75 C-1.82652344 25.83539063 -1.85617187 26.92078125 -1.88671875 28.0390625 C-1.90863281 29.17859375 -1.93054688 30.318125 -1.953125 31.4921875 C-2.09567505 38.75385492 -2.33763931 45.38949679 -4.453125 52.3671875 C-5.113125 52.0371875 -5.773125 51.7071875 -6.453125 51.3671875 C-6.29303955 50.84479492 -6.1329541 50.32240234 -5.96801758 49.78417969 C-4.9156987 44.84441823 -5.18725847 39.71983695 -5.15795898 34.6875 C-5.14646208 33.31434811 -5.12604606 31.94124011 -5.09643555 30.56835938 C-4.92232135 22.48323549 -4.80114282 16.1733308 -9.453125 9.3671875 C-12.61553082 7.25891695 -13.95969969 7.02901285 -17.640625 6.7421875 C-18.54167969 6.66742188 -19.44273437 6.59265625 -20.37109375 6.515625 C-21.05816406 6.46664062 -21.74523437 6.41765625 -22.453125 6.3671875 C-22.453125 6.0371875 -22.453125 5.7071875 -22.453125 5.3671875 C-21.38191406 5.31820312 -20.31070312 5.26921875 -19.20703125 5.21875 C-17.80986861 5.14373456 -16.4127345 5.0681862 -15.015625 4.9921875 C-14.30857422 4.96125 -13.60152344 4.9303125 -12.87304688 4.8984375 C-11.06073312 4.79438121 -9.25494512 4.58798858 -7.453125 4.3671875 C-7.123125 3.7071875 -6.793125 3.0471875 -6.453125 2.3671875 C-6.453125 3.0271875 -6.453125 3.6871875 -6.453125 4.3671875 C-5.463125 4.3671875 -4.473125 4.3671875 -3.453125 4.3671875 C-3.783125 3.0471875 -4.113125 1.7271875 -4.453125 0.3671875 C-2.453125 -0.6328125 -2.453125 -0.6328125 0 0 Z " fill="#7DD6EF" transform="translate(397.453125,53.6328125)"/>
<path d="M0 0 C2.31005869 2.31005869 2.72174103 3.83083657 3.625 6.9375 C4.01558594 8.25041016 4.01558594 8.25041016 4.4140625 9.58984375 C5 12 5 12 5 15 C5.66 15.33 6.32 15.66 7 16 C6.01 16 5.02 16 4 16 C2.5305191 17.76732099 2.5305191 17.76732099 1.3125 20 C0.87550781 20.7425 0.43851562 21.485 -0.01171875 22.25 C-0.33785156 22.8275 -0.66398437 23.405 -1 24 C-1.99 23.01 -2.98 22.02 -4 21 C-4.33 21.99 -4.66 22.98 -5 24 C-8.01651083 17.32137824 -10.57534294 11.36072234 -11 4 C-16.30027425 5.13577305 -20.61056531 6.62906371 -25.3359375 9.29296875 C-25.88507813 9.52628906 -26.43421875 9.75960937 -27 10 C-27.66 9.67 -28.32 9.34 -29 9 C-28.67 8.01 -28.34 7.02 -28 6 C-25.29120665 4.64560332 -22.99066732 4.93498549 -20 5 C-20 4.34 -20 3.68 -20 3 C-18.39884424 2.7506643 -16.79379841 2.52621352 -15.1875 2.3125 C-14.29417969 2.18488281 -13.40085937 2.05726562 -12.48046875 1.92578125 C-10 2 -10 2 -8.3359375 3.50390625 C-7.89507812 3.99761719 -7.45421875 4.49132812 -7 5 C-4.44063441 4.67147918 -4.44063441 4.67147918 -2 4 C-1.34 4.33 -0.68 4.66 0 5 C0 3.35 0 1.7 0 0 Z " fill="#77D1EC" transform="translate(278,122)"/>
<path d="M0 0 C0.66 0 1.32 0 2 0 C6.76379626 8.28223461 11.46773738 16.5878459 16 25 C14.33333333 25 12.66666667 25 11 25 C10.855625 24.2575 10.71125 23.515 10.5625 22.75 C10.09812508 20.47972261 9.58136431 18.24240521 9 16 C7.00016466 16.79117904 7.00016466 16.79117904 5 18 C4.67 18.99 4.34 19.98 4 21 C3.34 21 2.68 21 2 21 C1.67 20.67 1.34 20.34 1 20 C1 21.65 1 23.3 1 25 C-2.50297874 20.97806144 -8 14.60566856 -8 9 C-8.66 9 -9.32 9 -10 9 C-10.33 10.98 -10.66 12.96 -11 15 C-11.33 15 -11.66 15 -12 15 C-12 12.36 -12 9.72 -12 7 C-9.36 7 -6.72 7 -4 7 C-3.34 5.35 -2.68 3.7 -2 2 C-1.34 2 -0.68 2 0 2 C0 1.34 0 0.68 0 0 Z " fill="#76C7E0" transform="translate(293,161)"/>
<path d="M0 0 C2.27034075 2.94050157 4.30412051 5.96058433 6.25 9.125 C6.79140625 9.99382812 7.3328125 10.86265625 7.890625 11.7578125 C8.25671875 12.49773437 8.6228125 13.23765625 9 14 C8.67 14.66 8.34 15.32 8 16 C7.34 16 6.68 16 6 16 C5.8453125 17.423125 5.8453125 17.423125 5.6875 18.875 C5 22 5 22 2 24 C2.66 25.98 3.32 27.96 4 30 C3.34 30.33 2.68 30.66 2 31 C0.17638933 27.77698876 -1.63187665 24.54561741 -3.4375 21.3125 C-3.95376953 20.40048828 -4.47003906 19.48847656 -5.00195312 18.54882812 C-5.74155273 17.21948242 -5.74155273 17.21948242 -6.49609375 15.86328125 C-6.95169678 15.05157471 -7.4072998 14.23986816 -7.87670898 13.40356445 C-9.03448493 10.9262108 -9.5787627 8.69298472 -10 6 C-8.00045254 5.95745644 -5.99958364 5.95919217 -4 6 C-3.67 6.33 -3.34 6.66 -3 7 C-2.67 5.35 -2.34 3.7 -2 2 C-1.34 2 -0.68 2 0 2 C0 1.34 0 0.68 0 0 Z " fill="#7BD1EA" transform="translate(372,120)"/>
<path d="M0 0 C0.66 0.99 1.32 1.98 2 3 C1.3203125 5.19140625 1.3203125 5.19140625 0.125 7.5625 C-1.51407846 10.64304876 -1.51407846 10.64304876 -2 14 C-1.54625 13.34 -1.0925 12.68 -0.625 12 C-0.08875 11.34 0.4475 10.68 1 10 C1.66 10 2.32 10 3 10 C3.33 9.34 3.66 8.68 4 8 C5.65 8.66 7.3 9.32 9 10 C9 11.65 9 13.3 9 15 C8.34 15 7.68 15 7 15 C6.7525 15.845625 6.505 16.69125 6.25 17.5625 C3.87690756 24.08850421 0.07965759 29.44713273 -4 35 C-4.66 34.67 -5.32 34.34 -6 34 C-5.1875 31.5625 -5.1875 31.5625 -4 29 C-3.01 28.67 -2.02 28.34 -1 28 C-0.83322718 24.58343976 -0.83322718 24.58343976 -1 21 C-1.66 20.34 -2.32 19.68 -3 19 C-3.33 19.66 -3.66 20.32 -4 21 C-4.66 21 -5.32 21 -6 21 C-6 20.34 -6 19.68 -6 19 C-6.66 19 -7.32 19 -8 19 C-8.66 20.32 -9.32 21.64 -10 23 C-10.66 22.67 -11.32 22.34 -12 22 C-11.63648438 21.41734375 -11.27296875 20.8346875 -10.8984375 20.234375 C-6.87201197 13.66820414 -3.35765047 6.92961906 0 0 Z " fill="#75C7E0" transform="translate(374,155)"/>
<path d="M0 0 C0.66 0 1.32 0 2 0 C2.66 0.66 3.32 1.32 4 2 C5.93761151 2.72249921 7.87635786 3.44232593 9.82421875 4.13671875 C13.09691034 5.43521936 15.98943413 7.18111646 19 9 C18.67 9.99 18.34 10.98 18 12 C17.34 12 16.68 12 16 12 C16 12.99 16 13.98 16 15 C16.66 15.66 17.32 16.32 18 17 C13.98195309 17.84098656 10.98196457 18.05404945 7 17 C7 16.34 7 15.68 7 15 C5.35 14.67 3.7 14.34 2 14 C1.67 12.35 1.34 10.7 1 9 C0.34 9 -0.32 9 -1 9 C-1.625 6.1875 -1.625 6.1875 -2 3 C-1.34 2.01 -0.68 1.02 0 0 Z " fill="#7EDBF8" transform="translate(350,234)"/>
<path d="M0 0 C0.33 0.66 0.66 1.32 1 2 C1.99 2.33 2.98 2.66 4 3 C4 3.66 4 4.32 4 5 C4.66 5 5.32 5 6 5 C5.67 5.66 5.34 6.32 5 7 C4.03642835 10.0981505 3.9219561 12.82855597 4 16.0625 C4.0745131 19.15945057 3.99308002 21.02075995 3 24 C-4.59 24 -12.18 24 -20 24 C-19.67 23.34 -19.34 22.68 -19 22 C-12.4 22 -5.8 22 1 22 C-4.24575277 14.61282588 -4.24575277 14.61282588 -8 11 C-10.31 13.64 -12.62 16.28 -15 19 C-17 16 -17 16 -16.625 13.5625 C-16.41875 12.716875 -16.2125 11.87125 -16 11 C-16 9.68 -16 8.36 -16 7 C-15.34 7 -14.68 7 -14 7 C-13.34 7.66 -12.68 8.32 -12 9 C-10.66400079 8.67751743 -9.33106622 8.34227417 -8 8 C-5.25 8.4375 -5.25 8.4375 -3 9 C-2.06576355 5.98968256 -1.95550089 5.13349732 -3 2 C-2.01 2 -1.02 2 0 2 C0 1.34 0 0.68 0 0 Z " fill="#70C3DA" transform="translate(341,80)"/>
<path d="M0 0 C0.66 0.33 1.32 0.66 2 1 C2 1.33 2 1.66 2 2 C2.99 2.33 3.98 2.66 5 3 C4.01 3.66 3.02 4.32 2 5 C2.33 6.32 2.66 7.64 3 9 C3.66 9 4.32 9 5 9 C5 9.66 5 10.32 5 11 C5.99 11.33 6.98 11.66 8 12 C6.25877451 13.03572896 4.50663405 14.0531252 2.75 15.0625 C1.77546875 15.63097656 0.8009375 16.19945312 -0.203125 16.78515625 C-3 18 -3 18 -5.359375 17.68359375 C-6.17148437 17.34521484 -6.17148437 17.34521484 -7 17 C-6.34 16.34 -5.68 15.68 -5 15 C-5.474375 14.54625 -5.94875 14.0925 -6.4375 13.625 C-8 12 -8 12 -9 10 C-10.89533342 9.53476937 -10.89533342 9.53476937 -13.0625 9.375 C-14.361875 9.25125 -15.66125 9.1275 -17 9 C-14.50775755 7.33850504 -12.35299016 6.22166306 -9.625 5.0625 C-6.9325747 3.89797133 -4.56983164 2.73457697 -2.0625 1.1875 C-1.381875 0.795625 -0.70125 0.40375 0 0 Z " fill="#72C7DE" transform="translate(424,170)"/>
<path d="M0 0 C0.66 0.33 1.32 0.66 2 1 C2 1.66 2 2.32 2 3 C2.53625 3.2475 3.0725 3.495 3.625 3.75 C6.56424252 5.29696975 9.25754408 7.13014369 12 9 C11.67 9.66 11.34 10.32 11 11 C10.01 10.67 9.02 10.34 8 10 C8 9.34 8 8.68 8 8 C6.37506099 9.12109566 6.37506099 9.12109566 5 11 C4.74951364 14.12549017 4.74951364 14.12549017 5 17 C5.66 17 6.32 17 7 17 C7.66 18.98 8.32 20.96 9 23 C1.16952299 19.38593369 -4.72322155 13.80539983 -11 8 C-8.50935112 7.31292445 -6.62113708 7 -4 7 C-4 7.66 -4 8.32 -4 9 C-2.68 8.67 -1.36 8.34 0 8 C0 5.36 0 2.72 0 0 Z " fill="#78CCE4" transform="translate(344,226)"/>
<path d="M0 0 C1.32 0.33 2.64 0.66 4 1 C4 1.99 4 2.98 4 4 C1.35261084 5.4606285 0.10551666 6 -3 6 C-2.67 7.32 -2.34 8.64 -2 10 C-3.98 10.99 -3.98 10.99 -6 12 C-6 13.65 -6 15.3 -6 17 C-6.66 17 -7.32 17 -8 17 C-8.33 18.32 -8.66 19.64 -9 21 C-9 20.01 -9 19.02 -9 18 C-10.32 18 -11.64 18 -13 18 C-13 17.34 -13 16.68 -13 16 C-13.66 16 -14.32 16 -15 16 C-15.50792861 12.44449976 -15.18132732 11.24365859 -13 8.3125 C-10.18127752 6.13973475 -9.1119644 5.62263468 -5.8125 4.9375 C-1.95637745 4.43106158 -1.95637745 4.43106158 -0.5 1.875 C-0.335 1.25625 -0.17 0.6375 0 0 Z " fill="#7DDEFB" transform="translate(401,117)"/>
<path d="M0 0 C0.33 0.66 0.66 1.32 1 2 C0.34 2 -0.32 2 -1 2 C-0.79375 2.598125 -0.5875 3.19625 -0.375 3.8125 C0 6 0 6 -2 9 C-2.66 8.67 -3.32 8.34 -4 8 C-3.3045656 11.00384054 -3.3045656 11.00384054 -2 14 C0.03243548 14.96877057 0.03243548 14.96877057 2 15 C2 16.32 2 17.64 2 19 C-1.45294486 17.46535784 -4.07220809 15.37011726 -7 13 C-8.5778125 12.01 -8.5778125 12.01 -10.1875 11 C-12.8943191 9.07515086 -13.90606672 8.06301317 -15 5 C-12.69 5.33 -10.38 5.66 -8 6 C-8 4.68 -8 3.36 -8 2 C-8 1.34 -8 0.68 -8 0 C-5.09660535 -1.45169732 -3.09125158 -0.72348441 0 0 Z " fill="#7CD4ED" transform="translate(435,126)"/>
<path d="M0 0 C0.66 0.66 1.32 1.32 2 2 C1.79131742 4.71287358 1.34506609 6.49148156 -0.1875 8.75 C-2.68282899 10.47091655 -5.02493408 10.66943712 -8 11 C-8 10.34 -8 9.68 -8 9 C-8.66 9 -9.32 9 -10 9 C-10.66 7.35 -11.32 5.7 -12 4 C-11.67 3.67 -11.34 3.34 -11 3 C-11.66 2.67 -12.32 2.34 -13 2 C-9.30452112 -1.69547888 -4.88274649 -1.62758216 0 0 Z " fill="#7DDCF8" transform="translate(437,170)"/>
<path d="M0 0 C2.57662108 3.86493162 2 6.43014128 2 11 C2.99 11.33 3.98 11.66 5 12 C5.0498487 16.12593843 5.08592957 20.25175752 5.10986328 24.37792969 C5.11985248 25.77835142 5.13344854 27.17875268 5.15087891 28.57910156 C5.24048615 35.96906389 5.32144933 42.90769811 3 50 C2.34 49.67 1.68 49.34 1 49 C1.16008545 48.47760742 1.3201709 47.95521484 1.48510742 47.41699219 C2.5374263 42.47723073 2.26586653 37.35264945 2.29516602 32.3203125 C2.30666292 30.94716061 2.32707894 29.57405261 2.35668945 28.20117188 C2.53080365 20.11604799 2.65198218 13.8061433 -2 7 C-5.16240582 4.89172945 -6.50657469 4.66182535 -10.1875 4.375 C-11.08855469 4.30023438 -11.98960937 4.22546875 -12.91796875 4.1484375 C-13.60503906 4.09945312 -14.29210937 4.05046875 -15 4 C-15 3.67 -15 3.34 -15 3 C-10.05 2.67 -5.1 2.34 0 2 C0 1.34 0 0.68 0 0 Z " fill="#5D8E9F" transform="translate(390,56)"/>
<path d="M0 0 C1.62974564 0.76074843 3.25366648 1.53398433 4.875 2.3125 C5.77992188 2.74175781 6.68484375 3.17101563 7.6171875 3.61328125 C10 5 10 5 12 8 C10.35 8.33 8.7 8.66 7 9 C7 9.66 7 10.32 7 11 C7.66 11.33 8.32 11.66 9 12 C6.32521756 13.6627026 4.0004856 14.99983813 1 16 C-1.04296875 15.00390625 -1.04296875 15.00390625 -3.1875 13.5625 C-3.90292969 13.08941406 -4.61835938 12.61632812 -5.35546875 12.12890625 C-5.89816406 11.75636719 -6.44085938 11.38382813 -7 11 C-6.41605469 10.86464844 -5.83210938 10.72929688 -5.23046875 10.58984375 C-1.98138293 9.73062841 0.96509459 8.43155916 4 7 C4.33 6.34 4.66 5.68 5 5 C3.35 4.67 1.7 4.34 0 4 C0 2.68 0 1.36 0 0 Z " fill="#75C6DE" transform="translate(308,54)"/>
<path d="M0 0 C2.09350689 3.4019487 2.17942163 6.05272412 2 10 C1.01 10.33 0.02 10.66 -1 11 C-1 12.32 -1 13.64 -1 15 C-5.05431692 16.15837626 -7.21812119 15.83691257 -11 14 C-10.34 13.01 -9.68 12.02 -9 11 C-9.3121764 8.35367713 -9.3121764 8.35367713 -10 6 C-7 7 -7 7 -6 8 C-5.67 6.35 -5.34 4.7 -5 3 C-4.360625 2.87625 -3.72125 2.7525 -3.0625 2.625 C-2.381875 2.41875 -1.70125 2.2125 -1 2 C-0.67 1.34 -0.34 0.68 0 0 Z " fill="#7EDFFA" transform="translate(350,203)"/>
<path d="M0 0 C0.66 0 1.32 0 2 0 C2.33 1.32 2.66 2.64 3 4 C3.66 4 4.32 4 5 4 C4.67 5.98 4.34 7.96 4 10 C5.65 9.67 7.3 9.34 9 9 C8.34 11.31 7.68 13.62 7 16 C5.68 16.33 4.36 16.66 3 17 C2.67 15.68 2.34 14.36 2 13 C0.68 12.67 -0.64 12.34 -2 12 C-2.33 10.02 -2.66 8.04 -3 6 C-2.34 5.67 -1.68 5.34 -1 5 C-0.34444881 2.47266765 -0.34444881 2.47266765 0 0 Z " fill="#7EDFFB" transform="translate(434,128)"/>
<path d="M0 0 C1.98 0.99 1.98 0.99 4 2 C4 2.66 4 3.32 4 4 C4.89138672 4.39058594 4.89138672 4.39058594 5.80078125 4.7890625 C8.14110539 6.07769569 9.46596641 7.34810441 11.1875 9.375 C11.69667969 9.96023437 12.20585937 10.54546875 12.73046875 11.1484375 C14.07559273 13.11024909 14.57514402 14.676089 15 17 C13.0625 16.6875 13.0625 16.6875 11 16 C10.67 15.01 10.34 14.02 10 13 C7.525 14.485 7.525 14.485 5 16 C5.33 14.02 5.66 12.04 6 10 C4.68 10 3.36 10 2 10 C2.33 8.02 2.66 6.04 3 4 C2.34 4 1.68 4 1 4 C0.67 2.68 0.34 1.36 0 0 Z M5 16 C4.67 17.98 4.34 19.96 4 22 C2.5 20.625 2.5 20.625 1 19 C1 18.34 1 17.68 1 17 C3 16 3 16 5 16 Z " fill="#6EBCD3" transform="translate(436,128)"/>
<path d="M0 0 C0.598125 0.495 1.19625 0.99 1.8125 1.5 C3.97029994 3.28276418 3.97029994 3.28276418 7 3 C7 3.66 7 4.32 7 5 C5.88625 5.12375 4.7725 5.2475 3.625 5.375 C-0.03103677 5.6465813 -0.03103677 5.6465813 -2 8 C-2 7.34 -2 6.68 -2 6 C-3.70840281 7.63412443 -4.93453047 8.86906094 -6 11 C-5.34 11 -4.68 11 -4 11 C-4.33 12.65 -4.66 14.3 -5 16 C-5.33 15.34 -5.66 14.68 -6 14 C-5.67 13.34 -5.34 12.68 -5 12 C-5.556875 11.773125 -6.11375 11.54625 -6.6875 11.3125 C-9.63246684 9.64103234 -11.68156544 7.44723648 -14 5 C-12.02 5 -10.04 5 -8 5 C-7.67 4.01 -7.34 3.02 -7 2 C-5.824375 1.7834375 -5.824375 1.7834375 -4.625 1.5625 C-2.03578982 1.12201075 -2.03578982 1.12201075 0 0 Z " fill="#6FBED5" transform="translate(328,68)"/>
<path d="M0 0 C1.04449911 3.13349732 0.93423645 3.98968256 0 7 C0.66 7 1.32 7 2 7 C2.33 7.99 2.66 8.98 3 10 C2.01 11.485 2.01 11.485 1 13 C-4.75 12.25 -4.75 12.25 -7 10 C-7.26991906 7.31160615 -7.08737357 4.70858064 -7 2 C-4.35261084 0.5393715 -3.10551666 0 0 0 Z " fill="#80DDFB" transform="translate(233,164)"/>
<path d="M0 0 C-0.53768872 3.8713588 -1.577473 5.97184125 -4 9 C-4.33 9.99 -4.66 10.98 -5 12 C-5.99 11.67 -6.98 11.34 -8 11 C-8.433125 9.845 -8.86625 8.69 -9.3125 7.5 C-9.869375 6.345 -10.42625 5.19 -11 4 C-14.08369887 2.94250443 -14.08369887 2.94250443 -17 3 C-17 2.67 -17 2.34 -17 2 C-11.23918159 0.7017874 -5.91260345 -0.25706972 0 0 Z " fill="#73C3DE" transform="translate(294,106)"/>
<path d="M0 0 C0.33 0.99 0.66 1.98 1 3 C1.66 3 2.32 3 3 3 C3.33 4.98 3.66 6.96 4 9 C5.32 8.67 6.64 8.34 8 8 C8 8.99 8 9.98 8 11 C8.66 11 9.32 11 10 11 C10.33 11.66 10.66 12.32 11 13 C12.83149018 13.56063562 12.83149018 13.56063562 15.03515625 13.8515625 C15.84404297 13.98046875 16.65292969 14.109375 17.48632812 14.2421875 C18.33646484 14.36851562 19.18660156 14.49484375 20.0625 14.625 C20.91650391 14.7590625 21.77050781 14.893125 22.65039062 15.03125 C24.76569589 15.36213574 26.88270604 15.68208799 29 16 C29 16.66 29 17.32 29 18 C20.24982917 18.68084903 14.10953399 18.44268018 6.6953125 13.5078125 C6.13585937 13.01023438 5.57640625 12.51265625 5 12 C5 11.34 5 10.68 5 10 C4.34 10 3.68 10 3 10 C0.96564469 6.27034861 0 4.33094958 0 0 Z " fill="#78BED4" transform="translate(311,158)"/>
<path d="M0 0 C0.33 1.32 0.66 2.64 1 4 C2.32 4.33 3.64 4.66 5 5 C5 6.98 5 8.96 5 11 C2.66666667 11 0.33333333 11 -2 11 C-3.62514468 12.45833358 -3.62514468 12.45833358 -5 14 C-6.3125 10.875 -6.3125 10.875 -7 7 C-5.40040576 3.89692447 -3.14954035 1.57477017 0 0 Z " fill="#80DEFB" transform="translate(446,140)"/>
<path d="M0 0 C2.14255793 -0.38932856 2.14255793 -0.38932856 4 -1 C4 0.32 4 1.64 4 3 C4.62648438 2.97679687 5.25296875 2.95359375 5.8984375 2.9296875 C6.71570313 2.91164062 7.53296875 2.89359375 8.375 2.875 C9.18710937 2.85179687 9.99921875 2.82859375 10.8359375 2.8046875 C13 3 13 3 15 5 C10.51874633 6.30017031 6.76540425 5.60973537 2.3125 4.625 C1.63638672 4.48578125 0.96027344 4.3465625 0.26367188 4.203125 C-4.67902861 3.16048569 -4.67902861 3.16048569 -7 2 C-7.33 6.62 -7.66 11.24 -8 16 C-8.33 16 -8.66 16 -9 16 C-9 11.05 -9 6.1 -9 1 C-3 -1 -3 -1 0 0 Z " fill="#85D3E8" transform="translate(282,195)"/>
<path d="M0 0 C0.66 1.65 1.32 3.3 2 5 C-0.58787727 7.58787727 -2.42007861 7.62709152 -6 8 C-6.66 7.67 -7.32 7.34 -8 7 C-8 7.66 -8 8.32 -8 9 C-8.66 9 -9.32 9 -10 9 C-10 7.35 -10 5.7 -10 4 C-10.66 4 -11.32 4 -12 4 C-12 3.34 -12 2.68 -12 2 C-8.09971775 -0.60018816 -4.52565431 -0.15085514 0 0 Z " fill="#7DDFFD" transform="translate(389,188)"/>
<path d="M0 0 C1.65 0.33 3.3 0.66 5 1 C4.01 1.33 3.02 1.66 2 2 C1.17819258 4.05600048 1.17819258 4.05600048 0.6875 6.625 C-1.13291958 14.05348636 -4.0637201 20.95862974 -7 28 C-9 25 -9 25 -9 23 C-8.34 23 -7.68 23 -7 23 C-6.67 20.69 -6.34 18.38 -6 16 C-5.34 16 -4.68 16 -4 16 C-4 12.04 -4 8.08 -4 4 C-3.01 4 -2.02 4 -1 4 C-0.67 2.68 -0.34 1.36 0 0 Z " fill="#72B1C8" transform="translate(398,124)"/>
<path d="M0 0 C0.33 0 0.66 0 1 0 C2.12844037 7.27217125 2.12844037 7.27217125 1.53125 10.65625 C0.82789563 15.08324516 0.89370742 19.40141945 0.9375 23.875 C0.94201172 24.75414062 0.94652344 25.63328125 0.95117188 26.5390625 C0.96287663 28.69273803 0.98080931 30.84637817 1 33 C0.67 33 0.34 33 0 33 C0 31.35 0 29.7 0 28 C-0.66 28 -1.32 28 -2 28 C-2 21.07 -2 14.14 -2 7 C-1.34 7 -0.68 7 0 7 C0 4.69 0 2.38 0 0 Z " fill="#7BC5D9" transform="translate(262,204)"/>
<path d="M0 0 C1.65 0.33 3.3 0.66 5 1 C5 1.66 5 2.32 5 3 C6.65 3.33 8.3 3.66 10 4 C9.67 4.99 9.34 5.98 9 7 C7.35448038 7.71727778 5.68577711 8.38325228 4 9 C3.34 9.66 2.68 10.32 2 11 C2 10.01 2 9.02 2 8 C0.68 8 -0.64 8 -2 8 C-1.34 5.36 -0.68 2.72 0 0 Z " fill="#7CDFFD" transform="translate(303,55)"/>
<path d="M0 0 C1.65 1.65 3.3 3.3 5 5 C4.67 5.99 4.34 6.98 4 8 C2.35 8 0.7 8 -1 8 C-0.67 10.64 -0.34 13.28 0 16 C-3 16 -3 16 -5 15 C-5 14.34 -5 13.68 -5 13 C-5.66 13 -6.32 13 -7 13 C-7.99 11.02 -8.98 9.04 -10 7 C-9.34 7 -8.68 7 -8 7 C-8 7.66 -8 8.32 -8 9 C-7.46375 8.855625 -6.9275 8.71125 -6.375 8.5625 C-3.60084173 7.90546252 -0.81474612 7.44780052 2 7 C1.34 4.69 0.68 2.38 0 0 Z " fill="#6BB6CB" transform="translate(227,158)"/>
<path d="M0 0 C1.2065625 0.0309375 1.2065625 0.0309375 2.4375 0.0625 C2.4375 0.7225 2.4375 1.3825 2.4375 2.0625 C3.0975 2.3925 3.7575 2.7225 4.4375 3.0625 C4.4375 2.4025 4.4375 1.7425 4.4375 1.0625 C5.0975 1.0625 5.7575 1.0625 6.4375 1.0625 C7.4375 4.0625 7.4375 4.0625 6 7.25 C5.2265625 8.6421875 5.2265625 8.6421875 4.4375 10.0625 C3.65375 9.7325 2.87 9.4025 2.0625 9.0625 C-0.40582497 7.94383489 -0.40582497 7.94383489 -2.5625 8.0625 C-2.94313221 5.7364143 -3.27519945 3.40194736 -3.5625 1.0625 C-2.5625 0.0625 -2.5625 0.0625 0 0 Z " fill="#7EDFFB" transform="translate(270.5625,54.9375)"/>
<path d="M0 0 C0.33 0 0.66 0 1 0 C1 1.65 1 3.3 1 5 C1.99 5.33 2.98 5.66 4 6 C3.01 6.495 3.01 6.495 2 7 C1.67 7.99 1.34 8.98 1 10 C0.67 10.99 0.34 11.98 0 13 C-4.17587745 14.39195915 -6.13474776 12.82323219 -10 11 C-10 10.34 -10 9.68 -10 9 C-11.98 9 -13.96 9 -16 9 C-16.33 8.01 -16.66 7.02 -17 6 C-16.11248047 6.30744141 -16.11248047 6.30744141 -15.20703125 6.62109375 C-14.41683594 6.89050781 -13.62664062 7.15992188 -12.8125 7.4375 C-11.64654297 7.83775391 -11.64654297 7.83775391 -10.45703125 8.24609375 C-8.01585787 8.99513423 -5.50391792 9.49921642 -3 10 C-2.01 6.7 -1.02 3.4 0 0 Z " fill="#72C3D7" transform="translate(269,170)"/>
<path d="M0 0 C0.56847656 0.38671875 1.13695312 0.7734375 1.72265625 1.171875 C6.38778468 4.31830553 11.07618899 7.27618965 16 10 C15.01 10.495 15.01 10.495 14 11 C13.67 11.99 13.34 12.98 13 14 C12.61199219 13.37609375 12.22398437 12.7521875 11.82421875 12.109375 C9.60764835 9.54631715 8.05887601 9.09321455 4.8125 8.25 C3.91144531 8.00765625 3.01039063 7.7653125 2.08203125 7.515625 C1.39496094 7.34546875 0.70789063 7.1753125 0 7 C0 4.69 0 2.38 0 0 Z " fill="#75C0D9" transform="translate(233,164)"/>
<path d="M0 0 C0 0.33 0 0.66 0 1 C-5.61 1 -11.22 1 -17 1 C-17 1.66 -17 2.32 -17 3 C-18.98 3.33 -20.96 3.66 -23 4 C-23.33 4.99 -23.66 5.98 -24 7 C-26.0625 7.6875 -26.0625 7.6875 -28 8 C-26.52395831 4.10861736 -24.68167064 2.84083532 -21 1 C-19.845 0.401875 -18.69 -0.19625 -17.5 -0.8125 C-11.73792824 -2.962196 -5.83089836 -1.23551048 0 0 Z " fill="#6BA4B2" transform="translate(295,48)"/>
<path d="M0 0 C4.455 0.99 4.455 0.99 9 2 C9.042721 3.66611905 9.04063832 5.33382885 9 7 C8.67 7.33 8.34 7.66 8 8 C9.32 9.32 10.64 10.64 12 12 C9.36 11.34 6.72 10.68 4 10 C4 8.68 4 7.36 4 6 C3.34 6 2.68 6 2 6 C1.34 4.02 0.68 2.04 0 0 Z " fill="#7CDFFB" transform="translate(315,209)"/>
<path d="M0 0 C-1.98 0.99 -1.98 0.99 -4 2 C-4 3.32 -4 4.64 -4 6 C-3.34 6 -2.68 6 -2 6 C-2 7.32 -2 8.64 -2 10 C-2.99 10 -3.98 10 -5 10 C-5 9.34 -5 8.68 -5 8 C-5.66 8 -6.32 8 -7 8 C-7.66 6.35 -8.32 4.7 -9 3 C-8.67 2.67 -8.34 2.34 -8 2 C-8.66 1.67 -9.32 1.34 -10 1 C-6.54366026 -2.45633974 -4.11562231 -2.49877069 0 0 Z " fill="#80DEFA" transform="translate(434,171)"/>
<path d="M0 0 C0.66 0.33 1.32 0.66 2 1 C1.29875 1.886875 0.5975 2.77375 -0.125 3.6875 C-3.95201409 8.9948777 -6.38833028 15.03175133 -9 21 C-9.33 21 -9.66 21 -10 21 C-9.39891424 15.34979382 -7.92471317 10.33835539 -6 5 C-4.68 5 -3.36 5 -2 5 C-2 3.68 -2 2.36 -2 1 C-1.34 0.67 -0.68 0.34 0 0 Z " fill="#74BECD" transform="translate(301,131)"/>
<path d="M0 0 C2 2 2 2 2.1875 4.5625 C2 7 2 7 1 8 C0.84285346 9.63256758 0.74914586 11.27135338 0.68359375 12.91015625 C0.64169922 13.89951172 0.59980469 14.88886719 0.55664062 15.90820312 C0.49766602 17.46958008 0.49766602 17.46958008 0.4375 19.0625 C0.39431641 20.10728516 0.35113281 21.15207031 0.30664062 22.22851562 C0.20018775 24.81886884 0.0981724 27.40932186 0 30 C-0.33 30 -0.66 30 -1 30 C-2.90469791 20.00033599 -2.70491341 9.80531111 0 0 Z " fill="#6598A2" transform="translate(261,68)"/>
<path d="M0 0 C-0.33 2.64 -0.66 5.28 -1 8 C-2.76462683 4.91190305 -3 3.76687864 -3 0 C-8.30027425 1.13577305 -12.61056531 2.62906371 -17.3359375 5.29296875 C-17.88507813 5.52628906 -18.43421875 5.75960937 -19 6 C-19.66 5.67 -20.32 5.34 -21 5 C-20.67 4.01 -20.34 3.02 -20 2 C-17.29120665 0.64560332 -14.99066732 0.93498549 -12 1 C-12 0.34 -12 -0.32 -12 -1 C-3.42857143 -2.42857143 -3.42857143 -2.42857143 0 0 Z " fill="#5E98A9" transform="translate(270,126)"/>
<path d="M0 0 C0 4.61538462 0 4.61538462 -1 7 C-3.97572727 8.78543636 -5.71684945 9.02220789 -9.1875 8.75 C-12 8 -12 8 -14 6 C-13.11248047 5.72736328 -13.11248047 5.72736328 -12.20703125 5.44921875 C-7.787492 4.04332943 -3.87459875 2.62472819 0 0 Z " fill="#6AB8CC" transform="translate(305,239)"/>
<path d="M0 0 C-0.86625 0.515625 -1.7325 1.03125 -2.625 1.5625 C-5.90918449 3.73379733 -8.23340338 6.37338373 -10.703125 9.4140625 C-12 11 -12 11 -14 13 C-14.48598131 5.71028037 -14.48598131 5.71028037 -12.375 2.625 C-8.38044197 -0.10811866 -4.71379067 -1.81299641 0 0 Z " fill="#67ACBF" transform="translate(240,138)"/>
<path d="M0 0 C1.32 0.66 2.64 1.32 4 2 C3.67 3.65 3.34 5.3 3 7 C2.01 7.33 1.02 7.66 0 8 C1.32 8.66 2.64 9.32 4 10 C-0.455 10.495 -0.455 10.495 -5 11 C-5 10.34 -5 9.68 -5 9 C-4.34 8.67 -3.68 8.34 -3 8 C-3.33 7.01 -3.66 6.02 -4 5 C-3.34 5 -2.68 5 -2 5 C-1.34 3.35 -0.68 1.7 0 0 Z " fill="#6BBED8" transform="translate(376,190)"/>
<path d="M0 0 C1.09658936 3.28976808 0.79953138 4.71303767 0 8 C-1.65 8.33 -3.3 8.66 -5 9 C-5.66 7.35 -6.32 5.7 -7 4 C-3.375 0 -3.375 0 0 0 Z " fill="#7EDFFD" transform="translate(291,189)"/>
<path d="M0 0 C0.33 0 0.66 0 1 0 C1.74318388 9.55128912 1.33680112 16.46478831 -5 24 C-5.66 24.33 -6.32 24.66 -7 25 C-7 23.02 -7 21.04 -7 19 C-5.68 18.67 -4.36 18.34 -3 18 C-3 17.01 -3 16.02 -3 15 C-2.34 15 -1.68 15 -1 15 C-0.67 10.05 -0.34 5.1 0 0 Z " fill="#67A2B3" transform="translate(355,146)"/>
<path d="M0 0 C2.00720923 0.28674418 4.0085944 0.61866701 6 1 C4.4411666 4.82622743 2.04566418 7.25147379 -1 10 C-1.99 10.33 -2.98 10.66 -4 11 C-4.33 9.68 -4.66 8.36 -5 7 C-4.01 6.34 -3.02 5.68 -2 5 C-2 5.66 -2 6.32 -2 7 C-1.34 7 -0.68 7 0 7 C-0.185625 6.030625 -0.37125 5.06125 -0.5625 4.0625 C-0.706875 3.051875 -0.85125 2.04125 -1 1 C-0.67 0.67 -0.34 0.34 0 0 Z " fill="#68ACC0" transform="translate(443,165)"/>
<path d="M0 0 C0.66 0.66 1.32 1.32 2 2 C2.99 1.34 3.98 0.68 5 0 C6 3 6 3 5.0625 5.1875 C4.5365625 6.0846875 4.5365625 6.0846875 4 7 C3.34 7 2.68 7 2 7 C2.33 8.32 2.66 9.64 3 11 C2.34 11 1.68 11 1 11 C-0.625 8.3125 -0.625 8.3125 -2 5 C-1.1875 2.125 -1.1875 2.125 0 0 Z " fill="#7FDFFB" transform="translate(269,243)"/>
<path d="M0 0 C0.33 0 0.66 0 1 0 C1.05399736 1.45792884 1.09279177 2.91642712 1.125 4.375 C1.14820313 5.18710938 1.17140625 5.99921875 1.1953125 6.8359375 C1 9 1 9 -1 11 C-3.33291811 11.04401732 -5.66700175 11.03954234 -8 11 C-9.67557379 11.28520405 -11.34817245 11.59955696 -13 12 C-11.71735273 9.43470546 -10.77227651 9.33500137 -8.125 8.375 C-7.42632812 8.11460938 -6.72765625 7.85421875 -6.0078125 7.5859375 C-4 7 -4 7 -1 7 C-1.020625 6.030625 -1.04125 5.06125 -1.0625 4.0625 C-1 1 -1 1 0 0 Z " fill="#71B6C7" transform="translate(263,106)"/>
<path d="M0 0 C2.64025839 3.96038759 2 7.39869972 2 12 C1.401875 11.21625 0.80375 10.4325 0.1875 9.625 C-2.17493382 6.79007941 -3.78549383 5.20273646 -7.48046875 4.5859375 C-8.37378906 4.51632813 -9.26710938 4.44671875 -10.1875 4.375 C-11.08855469 4.30023438 -11.98960937 4.22546875 -12.91796875 4.1484375 C-13.60503906 4.09945312 -14.29210937 4.05046875 -15 4 C-15 3.67 -15 3.34 -15 3 C-10.05 2.67 -5.1 2.34 0 2 C0 1.34 0 0.68 0 0 Z " fill="#65A8BA" transform="translate(390,56)"/>
<path d="M0 0 C1.32 0 2.64 0 4 0 C4 0.66 4 1.32 4 2 C5.65 2.33 7.3 2.66 9 3 C9 4.65 9 6.3 9 8 C7.02 8 5.04 8 3 8 C3 7.34 3 6.68 3 6 C2.34 5.67 1.68 5.34 1 5 C0.375 2.4375 0.375 2.4375 0 0 Z " fill="#7DDFFD" transform="translate(385,50)"/>
<path d="M0 0 C1.64630328 0.14042877 3.29204179 0.28749329 4.9375 0.4375 C6.31228516 0.55931641 6.31228516 0.55931641 7.71484375 0.68359375 C10 1 10 1 11 2 C13.34987262 2.23527773 15.70556039 2.41386417 18.0625 2.5625 C19.35285156 2.64628906 20.64320313 2.73007813 21.97265625 2.81640625 C23.47119141 2.90728516 23.47119141 2.90728516 25 3 C25 3.33 25 3.66 25 4 C21.39590081 4.05800828 17.79192149 4.09359869 14.1875 4.125 C12.65125977 4.15013672 12.65125977 4.15013672 11.08398438 4.17578125 C10.10107422 4.18222656 9.11816406 4.18867188 8.10546875 4.1953125 C7.19949951 4.20578613 6.29353027 4.21625977 5.36010742 4.22705078 C3 4 3 4 0 2 C0 1.34 0 0.68 0 0 Z " fill="#76BED4" transform="translate(311,189)"/>
<path d="M0 0 C0.66 0 1.32 0 2 0 C2.02689216 1.47906892 2.04634621 2.95827483 2.0625 4.4375 C2.07410156 5.26121094 2.08570313 6.08492187 2.09765625 6.93359375 C2 9 2 9 1 10 C1.66 10.33 2.32 10.66 3 11 C2.34 12.32 1.68 13.64 1 15 C-0.32 14.67 -1.64 14.34 -3 14 C-2.85691406 13.44828125 -2.71382813 12.8965625 -2.56640625 12.328125 C-1.9544691 9.81285231 -1.43873189 7.28957492 -0.9375 4.75 C-0.67259766 3.41195312 -0.67259766 3.41195312 -0.40234375 2.046875 C-0.26957031 1.37140625 -0.13679688 0.6959375 0 0 Z " fill="#78CBDF" transform="translate(275,151)"/>
<path d="M0 0 C0.99 0 1.98 0 3 0 C1.62211705 2.9469554 0.02522155 5.47050895 -1.9375 8.0625 C-2.44152344 8.73410156 -2.94554687 9.40570313 -3.46484375 10.09765625 C-4.88503966 11.85754279 -6.36860486 13.43678256 -8 15 C-8 13.68 -8 12.36 -8 11 C-7.34 10.67 -6.68 10.34 -6 10 C-4.94824948 8.18533883 -4.94824948 8.18533883 -4 6.0625 C-2.81586997 3.51384512 -2.01242841 2.01242841 0 0 Z " fill="#6296A5" transform="translate(357,203)"/>
<path d="M0 0 C2 2 2 2 2 5 C2.66 5.33 3.32 5.66 4 6 C2.35 6.66 0.7 7.32 -1 8 C-1 7.34 -1 6.68 -1 6 C-1.66 6 -2.32 6 -3 6 C-3 6.66 -3 7.32 -3 8 C-4.65 7.67 -6.3 7.34 -8 7 C-7.67 6.34 -7.34 5.68 -7 5 C-6.38125 4.87625 -5.7625 4.7525 -5.125 4.625 C-2.32606997 3.80178529 -1.54719585 2.39815356 0 0 Z " fill="#70BED2" transform="translate(339,209)"/>
<path d="M0 0 C1.98 0.99 1.98 0.99 4 2 C4 2.66 4 3.32 4 4 C4.639375 4.2475 5.27875 4.495 5.9375 4.75 C8 6 8 6 8.75 8.125 C8.87375 9.053125 8.87375 9.053125 9 10 C6.69 10 4.38 10 2 10 C2.33 8.02 2.66 6.04 3 4 C2.34 4 1.68 4 1 4 C0.67 2.68 0.34 1.36 0 0 Z " fill="#7CC7DE" transform="translate(436,128)"/>
<path d="M0 0 C4.455 0.99 4.455 0.99 9 2 C9 2.66 9 3.32 9 4 C9.66 4 10.32 4 11 4 C11 4.66 11 5.32 11 6 C11.99 6.33 12.98 6.66 14 7 C14 7.66 14 8.32 14 9 C8.40440609 7.60110152 4.29704147 4.74082545 0 1 C0 0.67 0 0.34 0 0 Z " fill="#6DA9BA" transform="translate(226,175)"/>
<path d="M0 0 C0.99 0.33 1.98 0.66 3 1 C2.75 3.375 2.75 3.375 2 6 C-0.0625 7.3125 -0.0625 7.3125 -2 8 C-2.99 7.01 -3.98 6.02 -5 5 C-3.35 3.35 -1.7 1.7 0 0 Z " fill="#7EDEFC" transform="translate(255,180)"/>
<path d="M0 0 C0.33 0.66 0.66 1.32 1 2 C1.66 2 2.32 2 3 2 C1.76468937 4.47062126 0.4942866 5.19386638 -1.8125 6.6875 C-2.49957031 7.14511719 -3.18664062 7.60273438 -3.89453125 8.07421875 C-6.40525028 9.17818983 -7.47518613 8.93616694 -10 8 C-9.195625 7.731875 -8.39125 7.46375 -7.5625 7.1875 C-6.716875 6.795625 -5.87125 6.40375 -5 6 C-4.67 5.01 -4.34 4.02 -4 3 C-1.9375 1.3125 -1.9375 1.3125 0 0 Z " fill="#6FB1C3" transform="translate(436,161)"/>
<path d="M0 0 C2.475 0.99 2.475 0.99 5 2 C1.97704729 5.25548753 -1.20462309 7.68977058 -5 10 C-5.66 10 -6.32 10 -7 10 C-7 9.34 -7 8.68 -7 8 C-6.34 8 -5.68 8 -5 8 C-5 6.68 -5 5.36 -5 4 C-3.02 4 -1.04 4 1 4 C0.67 2.68 0.34 1.36 0 0 Z " fill="#67A3B6" transform="translate(354,66)"/>
<path d="M0 0 C0.99 0.33 1.98 0.66 3 1 C2.01 3.97 1.02 6.94 0 10 C-2.97 9.505 -2.97 9.505 -6 9 C-4.25 5.125 -4.25 5.125 -2 4 C-2 3.34 -2 2.68 -2 2 C-1.34 2 -0.68 2 0 2 C0 1.34 0 0.68 0 0 Z " fill="#7EDEF9" transform="translate(317,61)"/>
<path d="M0 0 C-0.33 1.32 -0.66 2.64 -1 4 C-2.65 3.67 -4.3 3.34 -6 3 C-6.33 7.62 -6.66 12.24 -7 17 C-7.33 17 -7.66 17 -8 17 C-8 12.05 -8 7.1 -8 2 C-2 0 -2 0 0 0 Z " fill="#538DA0" transform="translate(281,194)"/>
<path d="M0 0 C1.134375 0.020625 2.26875 0.04125 3.4375 0.0625 C1.4375 2.0625 1.4375 2.0625 -1.5625 3.0625 C-1.5625 6.3625 -1.5625 9.6625 -1.5625 13.0625 C-2.5525 13.5575 -2.5525 13.5575 -3.5625 14.0625 C-3.75643875 11.91723901 -3.94248676 9.77126323 -4.125 7.625 C-4.28162109 5.83255859 -4.28162109 5.83255859 -4.44140625 4.00390625 C-4.48136719 3.03324219 -4.52132813 2.06257812 -4.5625 1.0625 C-3.5625 0.0625 -3.5625 0.0625 0 0 Z " fill="#64A3B6" transform="translate(406.5625,190.9375)"/>
<path d="M0 0 C1.32 0.33 2.64 0.66 4 1 C3.0625 3.375 3.0625 3.375 1 6 C-1.9481839 7.04022801 -4.90930595 7.56587736 -8 8 C-7.67 7.34 -7.34 6.68 -7 6 C-6.34 6 -5.68 6 -5 6 C-5 5.34 -5 4.68 -5 4 C-3.35 3.34 -1.7 2.68 0 2 C0 1.34 0 0.68 0 0 Z " fill="#6BAEBD" transform="translate(231,126)"/>
<path d="M0 0 C1.32 0.66 2.64 1.32 4 2 C1.8550764 4.35941596 -0.12566938 5.65265752 -3 7 C-3.99 7.66 -4.98 8.32 -6 9 C-6.66 8.34 -7.32 7.68 -8 7 C-5.36 4.69 -2.72 2.38 0 0 Z " fill="#78C2D4" transform="translate(343,63)"/>
<path d="M0 0 C1.98 0 3.96 0 6 0 C6 1.98 6 3.96 6 6 C4.1875 6.625 4.1875 6.625 2 7 C1.01 6.34 0.02 5.68 -1 5 C-0.67 3.35 -0.34 1.7 0 0 Z " fill="#7FDEFC" transform="translate(298,247)"/>
<path d="M0 0 C1.32 0 2.64 0 4 0 C2.8006207 3.41361802 1.66702528 5.56488996 -1 8 C-1.33 8.66 -1.66 9.32 -2 10 C-2.99 10.66 -3.98 11.32 -5 12 C-4.42365861 7.24518354 -2.44931479 4.02951788 0 0 Z " fill="#7ADFFC" transform="translate(375,160)"/>
<path d="M0 0 C1.98 0 3.96 0 6 0 C6 0.99 6 1.98 6 3 C6.61875 3.20625 7.2375 3.4125 7.875 3.625 C10.84653645 5.54775888 11.13024659 7.66594527 12 11 C7.36279281 7.72469104 3.31457218 4.69564393 0 0 Z " fill="#6AAFC1" transform="translate(333,233)"/>
<path d="M0 0 C-0.33 1.65 -0.66 3.3 -1 5 C-7.28571429 7.42857143 -7.28571429 7.42857143 -11 6 C-10.2575 5.566875 -9.515 5.13375 -8.75 4.6875 C-6.03331818 3.08762968 -6.03331818 3.08762968 -3.8125 1.3125 C-2 0 -2 0 0 0 Z " fill="#6BAFC0" transform="translate(317,232)"/>
<path d="M0 0 C2.125 7.625 2.125 7.625 1 11 C0.01 11 -0.98 11 -2 11 C-2 11.66 -2 12.32 -2 13 C-2.99 13.33 -3.98 13.66 -5 14 C-4.71125 13.443125 -4.4225 12.88625 -4.125 12.3125 C-2.9586747 9.91505355 -1.9660119 7.48403061 -1 5 C-1.66 5 -2.32 5 -3 5 C-3 3.68 -3 2.36 -3 1 C-1 0 -1 0 0 0 Z " fill="#84DCF5" transform="translate(325,74)"/>
<path d="M0 0 C0.33 0.99 0.66 1.98 1 3 C-5.07792208 9.24675325 -5.07792208 9.24675325 -8 11 C-8.99 10.67 -9.98 10.34 -11 10 C-10.67 9.34 -10.34 8.68 -10 8 C-9.01 8 -8.02 8 -7 8 C-6.67 7.01 -6.34 6.02 -6 5 C-4.68 5 -3.36 5 -2 5 C-1.34 3.35 -0.68 1.7 0 0 Z " fill="#67A5B4" transform="translate(400,247)"/>
<path d="M0 0 C2 2 2 2 2.1875 5 C2 8 2 8 1 10 C-2.63 10 -6.26 10 -10 10 C-6.71536341 7.81024227 -3.79303725 7.00193437 0 6 C0 4.02 0 2.04 0 0 Z " fill="#6EAFC0" transform="translate(386,178)"/>
<path d="M0 0 C0.66 0.99 1.32 1.98 2 3 C1.3203125 5.26171875 1.3203125 5.26171875 0.125 7.6875 C-0.26429688 8.49574219 -0.65359375 9.30398437 -1.0546875 10.13671875 C-1.52261719 11.05904297 -1.52261719 11.05904297 -2 12 C-2.99 12 -3.98 12 -5 12 C-4.35550393 8.98782888 -3.34977818 6.48344164 -1.9375 3.75 C-1.57527344 3.04359375 -1.21304687 2.3371875 -0.83984375 1.609375 C-0.56269531 1.07828125 -0.28554688 0.5471875 0 0 Z " fill="#63A2B3" transform="translate(374,155)"/>
<path d="M0 0 C7.18456726 1.76225235 7.18456726 1.76225235 10 5 C10.99 5.33 11.98 5.66 13 6 C13 7.32 13 8.64 13 10 C7.8183588 7.69704835 3.90131547 4.04580863 0 0 Z " fill="#578C9A" transform="translate(424,135)"/>
<path d="M0 0 C0 0.66 0 1.32 0 2 C-12.87 1.505 -12.87 1.505 -26 1 C-26 0.67 -26 0.34 -26 0 C-22.22958744 -0.19670554 -18.45866237 -0.38078426 -14.6875 -0.5625 C-13.61564453 -0.61857422 -12.54378906 -0.67464844 -11.43945312 -0.73242188 C-9.89741211 -0.80493164 -9.89741211 -0.80493164 -8.32421875 -0.87890625 C-7.37635498 -0.9260376 -6.42849121 -0.97316895 -5.4519043 -1.02172852 C-3 -1 -3 -1 0 0 Z " fill="#85D3E9" transform="translate(347,104)"/>
<path d="M0 0 C0.66 0.33 1.32 0.66 2 1 C0.625 3.5 0.625 3.5 -1 6 C-1.66 6 -2.32 6 -3 6 C-3.433125 7.7015625 -3.433125 7.7015625 -3.875 9.4375 C-4.24625 10.613125 -4.6175 11.78875 -5 13 C-5.99 13.495 -5.99 13.495 -7 14 C-7.74609375 12.328125 -7.74609375 12.328125 -8 10 C-6.34765625 7.421875 -6.34765625 7.421875 -4.0625 4.75 C-2.93521484 3.41195312 -2.93521484 3.41195312 -1.78515625 2.046875 C-1.19605469 1.37140625 -0.60695313 0.6959375 0 0 Z " fill="#639DAE" transform="translate(320,84)"/>
<path d="M0 0 C2.31 0 4.62 0 7 0 C7 0.66 7 1.32 7 2 C2.49646738 3.75747614 -1.17639811 4.19294408 -6 4 C-5.67 3.34 -5.34 2.68 -5 2 C-3.35 2 -1.7 2 0 2 C0 1.34 0 0.68 0 0 Z " fill="#8EE0F4" transform="translate(381,195)"/>
<path d="M0 0 C0 0.66 0 1.32 0 2 C-4.62 2 -9.24 2 -14 2 C-14 1.34 -14 0.68 -14 0 C-9.20699867 -1.39151652 -4.84864218 -0.68662689 0 0 Z " fill="#5B91A9" transform="translate(340,174)"/>
<path d="M0 0 C4 6 4 6 4 10 C1.525 9.01 1.525 9.01 -1 8 C-0.67 5.36 -0.34 2.72 0 0 Z " fill="#71B8D0" transform="translate(394,165)"/>
<path d="M0 0 C0.66 0.66 1.32 1.32 2 2 C1.625 4.125 1.625 4.125 1 6 C-3.1274515 6 -6.915021 5.54466387 -11 5 C-11 4.67 -11 4.34 -11 4 C-10.28972656 3.87882812 -9.57945312 3.75765625 -8.84765625 3.6328125 C-7.92855469 3.46523437 -7.00945312 3.29765625 -6.0625 3.125 C-5.14597656 2.96257812 -4.22945313 2.80015625 -3.28515625 2.6328125 C-2.53105469 2.42398438 -1.77695312 2.21515625 -1 2 C-0.67 1.34 -0.34 0.68 0 0 Z " fill="#6CB2C5" transform="translate(306,101)"/>
<path d="M0 0 C3.63094642 2.64960955 5.89851796 5.01824456 8 9 C7.01 9 6.02 9 5 9 C4.67 8.34 4.34 7.68 4 7 C2.35636866 6.27840576 0.68949614 5.60648579 -1 5 C-0.67 3.35 -0.34 1.7 0 0 Z " fill="#6FB0C3" transform="translate(347,87)"/>
<path d="M0 0 C1 2 1 2 1 7 C-3.29 6.67 -7.58 6.34 -12 6 C-12 5.67 -12 5.34 -12 5 C-6.555 4.01 -6.555 4.01 -1 3 C-0.67 2.01 -0.34 1.02 0 0 Z " fill="#508D9C" transform="translate(390,241)"/>
<path d="M0 0 C1.95216435 1.95216435 2.84826645 3.53199953 4 6 C3.34 6.66 2.68 7.32 2 8 C1.443125 7.195625 0.88625 6.39125 0.3125 5.5625 C-2.21864487 2.75771784 -3.32579134 2.30618405 -7 2 C-7 1.67 -7 1.34 -7 1 C-2.25 0 -2.25 0 0 0 Z " fill="#5F99A7" transform="translate(307,200)"/>
<path d="M0 0 C0.58007812 0.20496094 1.16015625 0.40992188 1.7578125 0.62109375 C6.1621984 2.14009813 10.35677777 3.4047151 15 4 C15 4.66 15 5.32 15 6 C12.69 6 10.38 6 8 6 C7.67 5.01 7.34 4.02 7 3 C5.02 3 3.04 3 1 3 C0.67 2.01 0.34 1.02 0 0 Z " fill="#619DA9" transform="translate(252,176)"/>
<path d="M0 0 C-0.33 0.99 -0.66 1.98 -1 3 C-4.76379687 4.8066225 -9.04138185 3.59379272 -13 3 C-8.54370064 0.02913376 -5.32064558 -0.12092376 0 0 Z " fill="#7AD0E2" transform="translate(345,171)"/>
<path d="M0 0 C0.66 0.33 1.32 0.66 2 1 C1.8125 3.375 1.8125 3.375 1 6 C-1.5625 7.3125 -1.5625 7.3125 -4 8 C-4.33 6.68 -4.66 5.36 -5 4 C-3.35 3.34 -1.7 2.68 0 2 C0 1.34 0 0.68 0 0 Z " fill="#80CFE7" transform="translate(449,159)"/>
<path d="M0 0 C0.20140476 3.62528568 -0.14223235 5.86501708 -2 9 C-2.66 8.67 -3.32 8.34 -4 8 C-4 7.34 -4 6.68 -4 6 C-4.66 5.67 -5.32 5.34 -6 5 C-6 3 -6 3 -4.6875 1.375 C-3 0 -3 0 0 0 Z " fill="#79C4DC" transform="translate(346,204)"/>
<path d="M0 0 C3.7910119 1.44950455 7.3874638 3.15172566 11 5 C10.34 5.66 9.68 6.32 9 7 C6 7 6 7 4.5 5.625 C4.005 5.08875 3.51 4.5525 3 4 C2.01 3.34 1.02 2.68 0 2 C0 1.34 0 0.68 0 0 Z " fill="#6BB2BD" transform="translate(420,119)"/>
<path d="M0 0 C4.95 0.99 4.95 0.99 10 2 C10.33 1.34 10.66 0.68 11 0 C11 1.65 11 3.3 11 5 C7.30099992 4.11223998 3.65449539 3.05418136 0 2 C0 1.34 0 0.68 0 0 Z " fill="#5B91A4" transform="translate(381,107)"/>
<path d="M0 0 C0 2.83967231 -0.40267181 5.23735711 -1 8 C-1.99 8.33 -2.98 8.66 -4 9 C-4.33 9.66 -4.66 10.32 -5 11 C-5 9.68 -5 8.36 -5 7 C-4.34 7 -3.68 7 -3 7 C-3.061875 6.21625 -3.12375 5.4325 -3.1875 4.625 C-3.125625 3.75875 -3.06375 2.8925 -3 2 C-2.01 1.34 -1.02 0.68 0 0 Z " fill="#7ACFE3" transform="translate(325,93)"/>
<path d="M0 0 C0.33 0.99 0.66 1.98 1 3 C0.00390625 4.82421875 0.00390625 4.82421875 -1.4375 6.6875 C-1.91058594 7.31011719 -2.38367188 7.93273437 -2.87109375 8.57421875 C-3.24363281 9.04472656 -3.61617188 9.51523438 -4 10 C-4.66 9.67 -5.32 9.34 -6 9 C-5.1875 6.5625 -5.1875 6.5625 -4 4 C-3.01 3.67 -2.02 3.34 -1 3 C-0.67 2.01 -0.34 1.02 0 0 Z " fill="#6CACBD" transform="translate(374,180)"/>
<path d="M0 0 C2 3 2 3 2 6 C4.31 5.34 6.62 4.68 9 4 C9 4.66 9 5.32 9 6 C3.25 9 3.25 9 1 9 C0.67 6.03 0.34 3.06 0 0 Z " fill="#69ABBD" transform="translate(398,175)"/>
<path d="M0 0 C1 3 1 3 0.00390625 5.48046875 C-0.47175781 6.37378906 -0.94742187 7.26710937 -1.4375 8.1875 C-1.91058594 9.08855469 -2.38367188 9.98960937 -2.87109375 10.91796875 C-3.24363281 11.60503906 -3.61617188 12.29210937 -4 13 C-4.33 13 -4.66 13 -5 13 C-4.37946828 7.62205844 -3.87574249 3.87574249 0 0 Z " fill="#65A5B6" transform="translate(296,139)"/>
<path d="M0 0 C2.97069541 2.54631035 4.4775751 5.42230149 6 9 C5.67 9.66 5.34 10.32 5 11 C3.0625 10 3.0625 10 1 8 C0.33450549 5.30075428 0.18319237 2.79368363 0 0 Z " fill="#60A3B3" transform="translate(398,54)"/>
<path d="M0 0 C1.93742341 -0.02703381 3.87495479 -0.04641125 5.8125 -0.0625 C6.89144531 -0.07410156 7.97039062 -0.08570313 9.08203125 -0.09765625 C12 0 12 0 15 1 C15 1.99 15 2.98 15 4 C10.05 3.01 5.1 2.02 0 1 C0 0.67 0 0.34 0 0 Z " fill="#55919F" transform="translate(282,59)"/>
<path d="M0 0 C2.15473199 1.5801368 4.10646634 3.10646634 6 5 C3.36 5.99 0.72 6.98 -2 8 C-1.125 2.25 -1.125 2.25 0 0 Z " fill="#7AE0FC" transform="translate(223,160)"/>
<path d="M0 0 C0.99 0.33 1.98 0.66 3 1 C2.67 2.65 2.34 4.3 2 6 C0.68 6 -0.64 6 -2 6 C-2 4.68 -2 3.36 -2 2 C-1.34 2 -0.68 2 0 2 C0 1.34 0 0.68 0 0 Z " fill="#7ADFFD" transform="translate(342,229)"/>
<path d="M0 0 C2.48724903 3.31633204 4.23109915 6.29373156 6 10 C4.33333333 10 2.66666667 10 1 10 C0.67 6.7 0.34 3.4 0 0 Z " fill="#66A5B5" transform="translate(303,176)"/>
<path d="M0 0 C2 0 2 0 3.625 1.375 C5 3 5 3 5 5 C3.35 5.66 1.7 6.32 0 7 C0 5.68 0 4.36 0 3 C-0.66 2.67 -1.32 2.34 -2 2 C-1.34 1.34 -0.68 0.68 0 0 Z " fill="#6EBED2" transform="translate(432,174)"/>
<path d="M0 0 C0 0.66 0 1.32 0 2 C0.99 2.33 1.98 2.66 3 3 C1.03533587 4.06775224 -0.96855359 5.06553465 -3 6 C-3.66 5.67 -4.32 5.34 -5 5 C-4.625 3.0625 -4.625 3.0625 -4 1 C-2 0 -2 0 0 0 Z " fill="#74BED0" transform="translate(429,179)"/>
<path d="M0 0 C0.33 0.99 0.66 1.98 1 3 C1.66 3 2.32 3 3 3 C3.33 4.98 3.66 6.96 4 9 C4.66 9 5.32 9 6 9 C6.33 9.99 6.66 10.98 7 12 C6.34 12 5.68 12 5 12 C5 11.34 5 10.68 5 10 C4.34 10 3.68 10 3 10 C0.96564469 6.27034861 0 4.33094958 0 0 Z " fill="#5E91A1" transform="translate(311,158)"/>
<path d="M0 0 C0.66 0.33 1.32 0.66 2 1 C1.01 1.33 0.02 1.66 -1 2 C-1.70211894 3.65204456 -2.36971413 5.31923769 -3 7 C-3.99 7.495 -3.99 7.495 -5 8 C-5 6.02 -5 4.04 -5 2 C-2.625 0.9375 -2.625 0.9375 0 0 Z " fill="#629FB0" transform="translate(347,218)"/>
<path d="M0 0 C3.77545388 1.09068668 6.47043472 1.9083091 9 5 C8.34 5 7.68 5 7 5 C6.67 5.99 6.34 6.98 6 8 C3 4.25 3 4.25 3 2 C2.01 2 1.02 2 0 2 C0 1.34 0 0.68 0 0 Z " fill="#63AEBF" transform="translate(240,170)"/>
<path d="M0 0 C3.98175544 2.10148204 6.35039045 4.36905358 9 8 C6.69 7.34 4.38 6.68 2 6 C2 4.68 2 3.36 2 2 C1.34 2 0.68 2 0 2 C0 1.34 0 0.68 0 0 Z " fill="#73AFC2" transform="translate(344,133)"/>
<path d="M0 0 C0.66 0 1.32 0 2 0 C2 4 2 4 0.0625 6.125 C-0.618125 6.74375 -1.29875 7.3625 -2 8 C-2.33 8.66 -2.66 9.32 -3 10 C-3.66 10 -4.32 10 -5 10 C-3.66749209 6.4124787 -2.169283 3.1635377 0 0 Z " fill="#64A2B0" transform="translate(294,119)"/>
<path d="M0 0 C5.15171623 -0.09038099 9.91913204 0.15318867 15 1 C15 1.33 15 1.66 15 2 C12.36 2.66 9.72 3.32 7 4 C6.67 3.01 6.34 2.02 6 1 C4.02 1 2.04 1 0 1 C0 0.67 0 0.34 0 0 Z " fill="#68B0BD" transform="translate(364,105)"/>
<path d="M0 0 C0.99 0 1.98 0 3 0 C3.6875 3.3125 3.6875 3.3125 4 7 C2.5625 8.9375 2.5625 8.9375 1 10 C0.34 9.67 -0.32 9.34 -1 9 C-0.01 8.01 0.98 7.02 2 6 C1.34 4.02 0.68 2.04 0 0 Z " fill="#578A97" transform="translate(320,220)"/>
<path d="M0 0 C1.27875 0.103125 2.5575 0.20625 3.875 0.3125 C4.95394531 0.39951172 4.95394531 0.39951172 6.0546875 0.48828125 C8 1 8 1 10 4 C9.01 5.485 9.01 5.485 8 7 C8 5.68 8 4.36 8 3 C7.05125 2.87625 6.1025 2.7525 5.125 2.625 C2 2 2 2 0 0 Z " fill="#4F838F" transform="translate(254,190)"/>
<path d="M0 0 C0.66 0 1.32 0 2 0 C2 2.97 2 5.94 2 9 C1.01 9.33 0.02 9.66 -1 10 C-0.67 6.7 -0.34 3.4 0 0 Z " fill="#66A3B2" transform="translate(275,151)"/>
<path d="M0 0 C0 3.20395416 -0.74335022 5.09399739 -2 8 C-2.66 8 -3.32 8 -4 8 C-4 8.66 -4 9.32 -4 10 C-4.66 9.67 -5.32 9.34 -6 9 C-2.25 2.25 -2.25 2.25 0 0 Z " fill="#6399A6" transform="translate(221,135)"/>
<path d="M0 0 C1.32 0.33 2.64 0.66 4 1 C3.1875 3.4375 3.1875 3.4375 2 6 C1.01 6.33 0.02 6.66 -1 7 C-2 4 -2 4 -1.0625 1.8125 C-0.5365625 0.9153125 -0.5365625 0.9153125 0 0 Z " fill="#7BDEFB" transform="translate(226,137)"/>
<path d="M0 0 C-0.99 0.33 -1.98 0.66 -3 1 C-3.33 1.66 -3.66 2.32 -4 3 C-6.31 3 -8.62 3 -11 3 C-7.6562111 -0.84535724 -4.83651161 -1.55459302 0 0 Z " fill="#64A0AB" transform="translate(330,132)"/>
<path d="M0 0 C4.42857143 5.14285714 4.42857143 5.14285714 5 9 C2.5 7.875 2.5 7.875 0 6 C-0.3125 2.8125 -0.3125 2.8125 0 0 Z " fill="#5B98A8" transform="translate(376,127)"/>
<path d="M0 0 C1.65 0.33 3.3 0.66 5 1 C4.01 1.33 3.02 1.66 2 2 C0.77030122 5.51190809 0.77030122 5.51190809 0 9 C-1.125 7.3125 -1.125 7.3125 -2 5 C-1.125 2.25 -1.125 2.25 0 0 Z " fill="#5A95AE" transform="translate(398,124)"/>
<path d="M0 0 C1.15941038 3.47823115 0.70820884 5.45895578 0 9 C-1.65 7.35 -3.3 5.7 -5 4 C-4.67 3.34 -4.34 2.68 -4 2 C-2.68 2 -1.36 2 0 2 C0 1.34 0 0.68 0 0 Z " fill="#569EB1" transform="translate(405,99)"/>
<path d="M0 0 C2.475 0.99 2.475 0.99 5 2 C5 2.66 5 3.32 5 4 C5.66 4.33 6.32 4.66 7 5 C4.36 5 1.72 5 -1 5 C-0.67 3.35 -0.34 1.7 0 0 Z " fill="#73BED3" transform="translate(321,63)"/>
<path d="M0 0 C2.8125 -0.25 2.8125 -0.25 6 0 C7.875 2 7.875 2 9 4 C5.87709365 3.51421457 3.00419641 3.0013988 0 2 C0 1.34 0 0.68 0 0 Z " fill="#6DB2C0" transform="translate(389,50)"/>
<path d="M0 0 C-1.29299694 2.88437779 -2.65941363 4.87219421 -5 7 C-5.6875 5.1875 -5.6875 5.1875 -6 3 C-4.04862098 0.26806937 -3.44686768 0 0 0 Z " fill="#70B4C5" transform="translate(360,203)"/>
<path d="M0 0 C2 4 2 4 1.3125 7.1875 C0.6628125 8.5796875 0.6628125 8.5796875 0 10 C-0.99 10.33 -1.98 10.66 -3 11 C-2.01 7.37 -1.02 3.74 0 0 Z " fill="#5898AA" transform="translate(440,150)"/>
<path d="M0 0 C2 4 2 4 1.125 7.25 C0.75375 8.1575 0.3825 9.065 0 10 C-0.99 10 -1.98 10 -3 10 C-2.01 6.7 -1.02 3.4 0 0 Z " fill="#83DFFB" transform="translate(281,135)"/>
<path d="M0 0 C7.50769231 0.49230769 7.50769231 0.49230769 10 3.0625 C10.33 3.701875 10.66 4.34125 11 5 C9.53932801 4.54917531 8.08151968 4.08906463 6.625 3.625 C5.81289063 3.36976563 5.00078125 3.11453125 4.1640625 2.8515625 C2 2 2 2 0 0 Z " fill="#58909E" transform="translate(411,129)"/>
<path d="M0 0 C0.99 0 1.98 0 3 0 C4.06775224 1.96466413 5.06553465 3.96855359 6 6 C5.67 6.66 5.34 7.32 5 8 C2.74754119 5.31158141 1.11786042 3.35358125 0 0 Z " fill="#6EAEBB" transform="translate(264,246)"/>
<path d="M0 0 C3.82097239 0.53069061 6.06171403 1.49701566 9 4 C3.48 4.368 3.48 4.368 1.125 2.5625 C0 1 0 1 0 0 Z " fill="#73B5C5" transform="translate(360,240)"/>
<path d="M0 0 C-0.99 0.33 -1.98 0.66 -3 1 C-3 1.66 -3 2.32 -3 3 C-5.64 3 -8.28 3 -11 3 C-7.72430636 -0.27569364 -4.48909309 -0.12469703 0 0 Z " fill="#93E1F1" transform="translate(374,198)"/>
<path d="M0 0 C0.556875 0.474375 1.11375 0.94875 1.6875 1.4375 C4.18346074 3.12395996 6.0446237 3.58953107 9 4 C9 4.33 9 4.66 9 5 C5.7 5 2.4 5 -1 5 C-0.67 3.35 -0.34 1.7 0 0 Z " fill="#63A9B9" transform="translate(278,182)"/>
<path d="M0 0 C3 1 3 1 5 3 C5.99 3.33 6.98 3.66 8 4 C8 4.66 8 5.32 8 6 C7.01 6.33 6.02 6.66 5 7 C0 1.125 0 1.125 0 0 Z " fill="#62A3B5" transform="translate(335,92)"/>
<path d="M0 0 C2 2 2 2 2.3125 4.5 C2.209375 5.325 2.10625 6.15 2 7 C1.01 7.66 0.02 8.32 -1 9 C-0.67 6.03 -0.34 3.06 0 0 Z " fill="#6CB8CC" transform="translate(261,68)"/>
<path d="M0 0 C2.64 0.33 5.28 0.66 8 1 C6 3 6 3 2.875 3.125 C1.451875 3.063125 1.451875 3.063125 0 3 C0 2.01 0 1.02 0 0 Z " fill="#65A1B6" transform="translate(369,244)"/>
<path d="M0 0 C3.875 4.75 3.875 4.75 5 7 C3.35 6.67 1.7 6.34 0 6 C-1 3 -1 3 0 0 Z " fill="#7DC6D5" transform="translate(275,240)"/>
<path d="M0 0 C1.65 0.33 3.3 0.66 5 1 C3.68 2.65 2.36 4.3 1 6 C0.34 5.67 -0.32 5.34 -1 5 C-0.67 3.35 -0.34 1.7 0 0 Z " fill="#578F9F" transform="translate(321,239)"/>
<path d="M0 0 C2.625 0.375 2.625 0.375 5 1 C5.33 1.99 5.66 2.98 6 4 C3.36 3.34 0.72 2.68 -2 2 C-1.34 1.34 -0.68 0.68 0 0 Z " fill="#69A5BA" transform="translate(248,186)"/>
<path d="M0 0 C1.32 0 2.64 0 4 0 C4 2.31 4 4.62 4 7 C0 2.25 0 2.25 0 0 Z " fill="#5F98A8" transform="translate(368,138)"/>
<path d="M0 0 C0.99 0 1.98 0 3 0 C3.33 2.97 3.66 5.94 4 9 C1.49701566 6.06171403 0.53069061 3.82097239 0 0 Z " fill="#629FB0" transform="translate(270,137)"/>
<path d="M0 0 C1.98 0.99 1.98 0.99 4 2 C3.67 4.64 3.34 7.28 3 10 C1.11608215 6.73454239 0.50712033 3.71888239 0 0 Z " fill="#74B4C2" transform="translate(266,124)"/>
<path d="M0 0 C5.75 1.75 5.75 1.75 8 4 C5.69 4 3.38 4 1 4 C0.67 2.68 0.34 1.36 0 0 Z " fill="#76BBCB" transform="translate(410,115)"/>
<path d="M0 0 C1.98 0.495 1.98 0.495 4 1 C3 3 3 3 1 6 C0.34 5.67 -0.32 5.34 -1 5 C-0.67 3.35 -0.34 1.7 0 0 Z " fill="#66ADBE" transform="translate(330,88)"/>
<path d="M0 0 C0.66 1.98 1.32 3.96 2 6 C-0.95409701 4.62845496 -3.44008376 3.01136276 -6 1 C-3.92446352 0.4465236 -2.15634036 0 0 0 Z " fill="#64A6B8" transform="translate(351,243)"/>
<path d="M0 0 C0.66 0 1.32 0 2 0 C2 0.66 2 1.32 2 2 C2.66 2 3.32 2 4 2 C4.33 3.32 4.66 4.64 5 6 C2.525 5.01 2.525 5.01 0 4 C0 2.68 0 1.36 0 0 Z " fill="#88DDF6" transform="translate(340,224)"/>
<path d="M0 0 C-0.66 0.66 -1.32 1.32 -2 2 C-4.1640625 1.9765625 -4.1640625 1.9765625 -6.625 1.625 C-7.44226563 1.51414063 -8.25953125 1.40328125 -9.1015625 1.2890625 C-9.72804688 1.19367188 -10.35453125 1.09828125 -11 1 C-11 0.67 -11 0.34 -11 0 C-6.98195309 -0.84098656 -3.98196457 -1.05404945 0 0 Z " fill="#4E8591" transform="translate(297,199)"/>
<path d="M0 0 C0.33 0.66 0.66 1.32 1 2 C1.66 2 2.32 2 3 2 C2.34 3.32 1.68 4.64 1 6 C0.34 6 -0.32 6 -1 6 C-1.625 4.125 -1.625 4.125 -2 2 C-1.34 1.34 -0.68 0.68 0 0 Z " fill="#609DAE" transform="translate(440,170)"/>
<path d="M0 0 C0.99 0.99 1.98 1.98 3 3 C2.01 3 1.02 3 0 3 C0 2.01 0 1.02 0 0 Z M0 4 C0.66 4.99 1.32 5.98 2 7 C1.01 7.66 0.02 8.32 -1 9 C-0.67 7.35 -0.34 5.7 0 4 Z " fill="#87DFFD" transform="translate(345,86)"/>
<path d="M0 0 C0.99 0.33 1.98 0.66 3 1 C2.67 2.32 2.34 3.64 2 5 C0.68 5.33 -0.64 5.66 -2 6 C-2 5.34 -2 4.68 -2 4 C-1.34 4 -0.68 4 0 4 C0 2.68 0 1.36 0 0 Z " fill="#6EB1C7" transform="translate(349,70)"/>
<path d="M0 0 C1.32 0.66 2.64 1.32 4 2 C2.8125 3.5625 2.8125 3.5625 1 5 C-1.6875 4.6875 -1.6875 4.6875 -4 4 C-2.68 2.68 -1.36 1.36 0 0 Z " fill="#5DADBC" transform="translate(343,63)"/>
<path d="M0 0 C3.465 1.485 3.465 1.485 7 3 C5.1875 4.0625 5.1875 4.0625 3 5 C2.01 4.67 1.02 4.34 0 4 C0 2.68 0 1.36 0 0 Z " fill="#5C96A2" transform="translate(308,54)"/>
</svg>
