<?xml version="1.0" encoding="UTF-8"?>
<svg version="1.1" xmlns="http://www.w3.org/2000/svg" width="500" height="500">
<path d="M0 0 C0.66777249 -0.00367669 1.33554499 -0.00735338 2.02355301 -0.01114148 C4.24236412 -0.02207997 6.46112825 -0.02600533 8.67996216 -0.02983093 C10.27900843 -0.03610327 11.87805327 -0.04275074 13.47709656 -0.04974365 C18.71414186 -0.07070355 23.95118716 -0.0811419 29.18826294 -0.09111023 C30.99910624 -0.0951615 32.80994939 -0.09927852 34.62079239 -0.10346031 C43.13547765 -0.12249819 51.65015436 -0.13672936 60.16485679 -0.14507228 C69.95344667 -0.15482467 79.74180921 -0.18109774 89.53031909 -0.22157317 C97.12132313 -0.25187089 104.71226252 -0.26655421 112.30332577 -0.26985329 C116.82491811 -0.27218917 121.34626725 -0.2809562 125.86779404 -0.30631447 C130.13116637 -0.32983921 134.39413958 -0.33373209 138.65756035 -0.32355309 C140.20816957 -0.3230634 141.75880012 -0.3292127 143.30934715 -0.34310913 C159.26202056 -0.4778892 177.41114063 1.76357817 190.34060669 11.90107727 C192.06376219 13.24240927 192.06376219 13.24240927 194.33279419 14.46748352 C197.54087334 16.48131423 200.24670898 18.89057443 203.00857544 21.45967102 C203.51646606 21.92051086 204.02435669 22.38135071 204.54763794 22.8561554 C209.27913582 27.21762587 213.51900958 31.80087683 216.57107544 37.52217102 C216.9436145 38.2105304 217.31615356 38.89888977 217.69998169 39.60810852 C218.13181763 40.44599915 218.56365356 41.28388977 219.00857544 42.14717102 C219.30804864 42.70592013 219.60752184 43.26466925 219.91606998 43.84035015 C229.9479417 63.04493319 228.74577609 84.74828791 228.64727139 105.80004668 C228.63064498 110.28386795 228.63973016 114.76765601 228.64479065 119.25149536 C228.64928385 126.77142889 228.63361214 134.29111143 228.60549927 141.81098938 C228.57342497 150.45616776 228.57348592 159.10089483 228.59071404 167.74610537 C228.60667421 176.13054025 228.59978722 184.51481256 228.58277702 192.89924049 C228.57597527 196.43746179 228.57686696 199.97555005 228.58432198 203.51376915 C228.5920839 207.69122783 228.57954262 211.86818361 228.55247307 216.04555702 C228.54569178 217.56186559 228.54537805 219.07822209 228.5526886 220.5945282 C228.62126185 236.69396574 226.49141647 255.4231541 216.25466919 268.47920227 C214.91001472 270.20959737 214.91001472 270.20959737 213.65310669 272.50654602 C206.93700602 283.29059365 197.14718597 291.39254737 186.00857544 297.14717102 C185.40658325 297.49650696 184.80459106 297.8458429 184.18435669 298.20576477 C174.54950089 303.57704013 162.18854896 306.24995563 151.23988342 306.30107117 C150.57185292 306.30545342 149.90382242 306.30983567 149.21554857 306.31435072 C146.98371275 306.3276725 144.75191635 306.33390288 142.52005005 306.34004211 C140.91631393 306.34794903 139.31257957 306.35621834 137.70884705 306.36482239 C132.44288826 306.39099937 127.17692175 306.40635714 121.91091919 306.42060852 C120.0908616 306.42597213 118.27080405 306.43134965 116.45074654 306.43674088 C108.86817964 306.45837342 101.28561481 306.47710191 93.70302486 306.48836327 C82.88159526 306.50454553 72.06052796 306.53757887 61.23923486 306.59476411 C53.60831155 306.63369395 45.97748412 306.65302364 38.34646422 306.65828383 C33.8017688 306.66190921 29.2574601 306.67362417 24.71287346 306.70638657 C-21.84578772 307.0252764 -21.84578772 307.0252764 -41.99142456 293.14717102 C-43.16511597 292.4742804 -43.16511597 292.4742804 -44.36251831 291.78779602 C-55.00063231 285.14885415 -63.41733239 275.26018759 -68.99142456 264.14717102 C-69.28863183 263.58461514 -69.5858391 263.02205927 -69.89205265 262.44245625 C-79.84888827 243.26238922 -78.72697657 222.17682301 -78.63012052 201.15889955 C-78.61351381 196.61321139 -78.62257665 192.06755651 -78.62763977 187.52185059 C-78.63213511 179.8975891 -78.61644771 172.273575 -78.58834839 164.64936829 C-78.5562736 155.87979272 -78.55633413 147.11066201 -78.57356316 138.34105474 C-78.58951426 129.84182298 -78.58264205 121.34275172 -78.56562614 112.84352684 C-78.55881805 109.25424013 -78.55972283 105.66508452 -78.5671711 102.07579994 C-78.5749235 97.83926415 -78.56242143 93.60322513 -78.53532219 89.36677361 C-78.52853121 87.82746986 -78.52823817 86.28811886 -78.53553772 84.74881744 C-78.60220708 68.83734232 -76.34464126 50.7058638 -66.23751831 37.81513977 C-64.89618631 36.09198427 -64.89618631 36.09198427 -63.67111206 33.82295227 C-61.65728135 30.61487312 -59.24802115 27.90903748 -56.67892456 25.14717102 C-55.98766479 24.38533508 -55.98766479 24.38533508 -55.28244019 23.60810852 C-49.56870483 17.40961954 -43.45052193 13.0500378 -35.99142456 9.14717102 C-35.37654175 8.79654602 -34.76165894 8.44592102 -34.12814331 8.08467102 C-23.77818698 2.41103329 -11.70746791 0.04210588 0 0 Z " fill="#E5E6E6" transform="translate(174.99142456054688,96.85282897949219)"/>
<path d="M0 0 C0.76699219 0.35707031 1.53398437 0.71414062 2.32421875 1.08203125 C9.22863074 4.38299774 14.12442637 8.0274223 19 14 C22.62376965 17.81036948 22.62376965 17.81036948 27.5625 19.125 C30.77317279 17.64315102 32.555606 15.55808674 35 13 C45.68850294 3.77139014 61.18549181 -6.04739615 75.72265625 -5.3125 C82.909811 -4.3262695 87.60568877 -0.49561504 92 5 C95.99600059 11.47086501 97.15477567 16.97384178 97.1328125 24.546875 C97.13376923 25.27690735 97.13472595 26.0069397 97.13571167 26.75909424 C97.13639098 28.30228766 97.13455405 29.84548397 97.13037109 31.38867188 C97.1250502 33.72793155 97.13030849 36.06699652 97.13671875 38.40625 C97.13605732 39.91145875 97.13477483 41.41666738 97.1328125 42.921875 C97.13483673 43.611745 97.13686096 44.30161499 97.13894653 45.01239014 C97.1224726 48.49928516 96.91879754 51.87083857 96.42919922 55.31738281 C95.74358242 58.93728867 95.74358242 58.93728867 97 62 C98.01320313 62.18175781 98.01320313 62.18175781 99.046875 62.3671875 C99.93890625 62.53476563 100.8309375 62.70234375 101.75 62.875 C102.63171875 63.03742188 103.5134375 63.19984375 104.421875 63.3671875 C106.88730978 63.97233967 108.74709524 64.86677536 111 66 C112.47186313 66.30806438 113.95210293 66.5782346 115.4375 66.8125 C119.93453791 67.72815304 121.96255629 69.5158734 125 73 C125.99 73.33 126.98 73.66 128 74 C128 74.66 128 75.32 128 76 C128.598125 76.144375 129.19625 76.28875 129.8125 76.4375 C131.56150404 76.8872439 133.28677023 77.42892341 135 78 C135.70710678 79.64991582 136.36562656 81.3207762 137 83 C137.99 84.485 137.99 84.485 139 86 C142.70867804 91.56301706 144.04491651 96.35433103 143 103 C141.15619409 107.96409283 139.46735519 112.02176321 135 115 C134.71382812 115.63035156 134.42765625 116.26070313 134.1328125 116.91015625 C132.58150699 119.77204744 130.64676664 120.76594714 127.875 122.4375 C126.88628906 123.03949219 125.89757812 123.64148438 124.87890625 124.26171875 C123.45384766 125.12216797 123.45384766 125.12216797 122 126 C120.60341075 126.91551457 119.20747807 127.83203232 117.8125 128.75 C114.04316903 131.09911462 110.18584151 132.56693627 106 134 C104.56166341 134.56035734 103.12414584 135.12282202 101.6875 135.6875 C98 137 98 137 95 137 C95.47566406 138.30710937 95.47566406 138.30710937 95.9609375 139.640625 C99.94697504 152.52781404 100.49440879 174.35425752 95.15234375 187.0078125 C91.84801186 193.18838471 88.11670549 198.42075947 81.2734375 200.51953125 C68.94998456 203.12397233 57.56430633 198.67645764 47.265625 192.0703125 C35.56695464 184.1577219 35.56695464 184.1577219 33.96533203 180.88720703 C33.10722916 178.6782101 33.10722916 178.6782101 30.203125 178 C26.00874617 178 24.81915798 179.20651489 21.75 182 C20.79480469 182.83015625 19.83960938 183.6603125 18.85546875 184.515625 C17.91316406 185.33546875 16.97085938 186.1553125 16 187 C5.25406353 195.48979118 -7.59542911 201.62139505 -21.53125 201.3203125 C-25.4528062 200.81150299 -28.89371454 199.4667561 -32 197 C-33.21875 194.859375 -33.21875 194.859375 -34 193 C-34.66 193 -35.32 193 -36 193 C-36.6509259 191.75264433 -37.29551669 190.50198168 -37.9375 189.25 C-38.29714844 188.55390625 -38.65679687 187.8578125 -39.02734375 187.140625 C-41.13718544 182.49727863 -41.16040662 178.05590663 -41.16796875 173.015625 C-41.17296135 171.85398834 -41.17296135 171.85398834 -41.17805481 170.66888428 C-41.18310986 169.03154085 -41.18546357 167.39418716 -41.18530273 165.75683594 C-41.18748018 163.27260982 -41.20562572 160.78883459 -41.22460938 158.3046875 C-41.22754554 156.70833484 -41.22952884 155.11198008 -41.23046875 153.515625 C-41.23765427 152.78200745 -41.24483978 152.04838989 -41.25224304 151.2925415 C-41.23022574 146.23137287 -40.38445102 141.87112764 -39 137 C-39.58007812 136.89042969 -40.16015625 136.78085937 -40.7578125 136.66796875 C-45.62561156 135.67995013 -49.60430689 134.38896365 -54 132 C-55.093125 131.566875 -56.18625 131.13375 -57.3125 130.6875 C-61.17634011 129.06828541 -64.49374643 126.78229061 -67.9296875 124.40625 C-70.06568334 122.90639187 -70.06568334 122.90639187 -72.75 121.5 C-75.80074703 119.46616864 -77.72555756 116.85763281 -80 114 C-80.70125 113.34 -81.4025 112.68 -82.125 112 C-86.51273009 107.31975457 -87.53202502 102.85173478 -87.37109375 96.61328125 C-86.76656614 92.35613417 -85.03158464 88.75480376 -83 85 C-82.34 85 -81.68 85 -81 85 C-80.7525 84.443125 -80.505 83.88625 -80.25 83.3125 C-77.41930273 78.07571005 -74.03505141 75.09849318 -69 72 C-68.22462891 71.44892578 -68.22462891 71.44892578 -67.43359375 70.88671875 C-62.65757108 67.6065421 -57.51740995 65.39800767 -52.1875 63.1875 C-51.43364014 62.87321045 -50.67978027 62.5589209 -49.90307617 62.23510742 C-46.80436292 60.98050984 -44.37468485 60 -41 60 C-41.01332367 59.44813522 -41.02664734 58.89627045 -41.04037476 58.3276825 C-41.17407177 52.53567028 -41.26400178 46.74410265 -41.32958984 40.95092773 C-41.35959177 38.79482186 -41.40040762 36.63883627 -41.45263672 34.4831543 C-42.00299185 11.16860024 -42.00299185 11.16860024 -35 3 C-24.37955416 -8.09917989 -12.98514632 -6.33820429 0 0 Z " fill="#08D6F9" transform="translate(222,151)"/>
<path d="M0 0 C1.95663989 -0.07650943 3.91230965 -0.18537214 5.86523438 -0.328125 C21.63148768 -1.45677534 21.63148768 -1.45677534 26.5423584 2.64431763 C29.97883903 6.68757581 32.39093902 11.17925642 34.61811829 15.9733429 C35.90321525 18.68081053 37.47025491 21.17511428 39.08447266 23.69677734 C39.92214793 25.1317515 40.75616986 26.56887283 41.58447266 28.00927734 C42.54353516 29.61802734 42.54353516 29.61802734 43.52197266 31.25927734 C44.86223088 34.72818099 44.45523435 36.41188813 43.58447266 40.00927734 C42.09619141 42.93896484 42.09619141 42.93896484 40.27197266 45.88427734 C38.23742937 49.23262489 36.27761056 52.50934768 34.64697266 56.07177734 C32.02268559 61.4334673 28.68143853 66.66817197 24.58447266 71.00927734 C20.02542137 72.40477344 15.28574509 72.13638636 10.56494141 72.10693359 C9.27708488 72.10481117 9.27708488 72.10481117 7.96321106 72.10264587 C5.23276217 72.09706792 2.50239658 72.08451948 -0.22802734 72.07177734 C-2.08414595 72.06675949 -3.94026584 72.06219709 -5.79638672 72.05810547 C-10.33613215 72.0471057 -14.87581564 72.02985627 -19.41552734 72.00927734 C-19.87958984 70.36958984 -19.87958984 70.36958984 -20.35302734 68.69677734 C-20.99890631 66.4551974 -21.67783904 64.22234224 -22.41552734 62.00927734 C-23.03395508 61.87481201 -23.65238281 61.74034668 -24.28955078 61.60180664 C-27.33032207 60.75431561 -27.8786105 59.22394853 -29.43115234 56.52880859 C-29.95966797 55.61164063 -30.48818359 54.69447266 -31.03271484 53.74951172 C-31.57154297 52.78335938 -32.11037109 51.81720703 -32.66552734 50.82177734 C-33.21982422 49.87496094 -33.77412109 48.92814453 -34.34521484 47.95263672 C-34.86857422 47.02902344 -35.39193359 46.10541016 -35.93115234 45.15380859 C-36.40842773 44.31180908 -36.88570312 43.46980957 -37.37744141 42.60229492 C-38.58671872 39.58166125 -38.60247137 37.23406176 -38.41552734 34.00927734 C-37.75552734 34.00927734 -37.09552734 34.00927734 -36.41552734 34.00927734 C-36.14740234 33.28740234 -35.87927734 32.56552734 -35.60302734 31.82177734 C-34.41552734 29.00927734 -34.41552734 29.00927734 -33.04052734 26.75927734 C-30.81509127 22.99315476 -29.13893042 19.02471902 -27.41552734 15.00927734 C-26.75552734 15.00927734 -26.09552734 15.00927734 -25.41552734 15.00927734 C-25.13837891 14.44595703 -24.86123047 13.88263672 -24.57568359 13.30224609 C-23.38338505 10.94575031 -22.13231465 8.63213204 -20.85302734 6.32177734 C-20.41861328 5.53416016 -19.98419922 4.74654297 -19.53662109 3.93505859 C-16.35063331 -1.53773575 -5.81572271 0.180925 0 0 Z " fill="#E0E6E8" transform="translate(246.41552734375,211.99072265625)"/>
<path d="M0 0 C4.89587155 6.27283542 5.47478897 13.66440415 5.3125 21.375 C5.303396 22.24431152 5.29429199 23.11362305 5.28491211 24.00927734 C4.98518622 39.59212755 4.98518622 39.59212755 2 45.5625 C-0.62559844 45.2544856 -3.25039806 44.94129818 -5.875 44.625 C-6.62136719 44.53798828 -7.36773437 44.45097656 -8.13671875 44.36132812 C-13.7734375 43.67578125 -13.7734375 43.67578125 -16 42.5625 C-19.05000724 42.36501752 -22.09789376 42.24434822 -25.15234375 42.13671875 C-28 41.5625 -28 41.5625 -29.87890625 39.70703125 C-31 37.5625 -31 37.5625 -31 34.5625 C-31.9590625 34.129375 -31.9590625 34.129375 -32.9375 33.6875 C-35 32.5625 -35 32.5625 -36 30.5625 C-38.01669827 29.42899466 -38.01669827 29.42899466 -40 28.5625 C-40 27.5725 -40 26.5825 -40 25.5625 C-40.99 25.2325 -41.98 24.9025 -43 24.5625 C-45 21.5625 -45 21.5625 -44.875 19.6875 C-42.68012973 14.35710077 -38.9975315 11.70121293 -34.203125 8.88671875 C-31.90513738 7.50548151 -29.75018966 5.98647607 -27.5625 4.4375 C-19.58099574 -0.85621565 -9.16927302 -4.39360999 0 0 Z " fill="#E4E6E6" transform="translate(304,160.4375)"/>
<path d="M0 0 C8.77691648 3.8696558 18.36658227 10.07223966 24.80859375 17.23828125 C25.30359375 18.72328125 25.30359375 18.72328125 25.80859375 20.23828125 C25.12796875 20.89828125 24.44734375 21.55828125 23.74609375 22.23828125 C19.31706126 26.67989622 14.9396834 31.269568 11.62109375 36.61328125 C8.94406162 40.49036226 6.29492887 41.22374227 1.796875 42.0546875 C0.23936458 42.31008216 -1.3192908 42.5585731 -2.87890625 42.80078125 C-3.64396484 42.92646484 -4.40902344 43.05214844 -5.19726562 43.18164062 C-10.51453121 44.03724107 -15.83527654 44.67756977 -21.19140625 45.23828125 C-23.98166774 37.63707747 -24.68242851 30.73817918 -24.62890625 22.67578125 C-24.64888672 21.60392578 -24.66886719 20.53207031 -24.68945312 19.42773438 C-24.68473246 11.70944979 -23.48807335 5.26754104 -18.50390625 -0.82421875 C-12.56108785 -3.23346945 -5.92523131 -1.95042716 0 0 Z " fill="#E2E6E7" transform="translate(215.19140625,160.76171875)"/>
<path d="M0 0 C10.31951569 1.89191121 19.5157942 5.53311743 28.0625 11.66796875 C29.95400645 13.04758455 29.95400645 13.04758455 32.04296875 13.94921875 C35.77993222 15.95569215 38.09484183 19.27450234 40 23 C40.45617336 26.77684705 39.82205576 29.85627025 37.5625 33 C36 34 36 34 34 34 C33.92523438 34.60070312 33.85046875 35.20140625 33.7734375 35.8203125 C32.71951875 38.79044715 31.35092397 39.35295413 28.625 40.875 C27.72136719 41.38417969 26.81773437 41.89335937 25.88671875 42.41796875 C24.93410156 42.94003906 23.98148437 43.46210938 23 44 C22.07832031 44.53238281 21.15664063 45.06476563 20.20703125 45.61328125 C7.21153846 53 7.21153846 53 0 53 C-1.46796084 49.19664692 -2.86447444 45.49692705 -3.9375 41.5625 C-4.82085628 38.60065836 -5.84258936 36.1918033 -7.1875 33.4375 C-8.97819426 29.460415 -9.42097137 27.26291411 -8 23 C-7.02680137 20.7502681 -6.01500484 18.5229797 -4.98046875 16.30078125 C-3.54586588 12.93432271 -2.81841654 9.56595776 -2 6 C-1.354876 3.99294757 -0.69643985 1.98982813 0 0 Z " fill="#E1E6E7" transform="translate(313,222)"/>
<path d="M0 0 C1.25458831 2.70991076 2.13470982 5.16527332 3 8 C3.67810191 9.89921512 4.36592987 11.79498043 5.0625 13.6875 C5.38347656 14.57824219 5.70445312 15.46898437 6.03515625 16.38671875 C6.6935701 18.17003399 7.39360727 19.93839242 8.12890625 21.69140625 C9.45792972 25.21361643 8.6751704 27.47686677 7.17578125 30.859375 C6.49104406 32.34252117 5.80613666 33.82558876 5.12109375 35.30859375 C3.00133809 40.39748452 1.53670354 45.7114511 0 51 C-9.61019512 49.37246695 -16.8467424 46.27563727 -25 41 C-25.88429687 40.48566406 -26.76859375 39.97132813 -27.6796875 39.44140625 C-30.5504015 37.65808392 -32.64786685 35.41403139 -35 33 C-35.99 32.34 -36.98 31.68 -38 31 C-39.77350969 27.54632323 -40.31978696 24.85488639 -40 21 C-37.17387491 15.52814079 -33.61913639 12.42394119 -28 10 C-26.65730312 9.05483036 -25.32497704 8.0948538 -24 7.125 C-17.71771784 2.86202282 -7.64826858 -2.95220421 0 0 Z " fill="#E2E6E7" transform="translate(187,224)"/>
<path d="M0 0 C1.71872549 6.7236541 2.38701478 12.94247277 2.375 19.875 C2.37258301 21.32374512 2.37258301 21.32374512 2.37011719 22.80175781 C2.25476053 29.50375317 1.94156841 36.30662341 -2 42 C-4.140625 43.265625 -4.140625 43.265625 -6 44 C-6 44.66 -6 45.32 -6 46 C-12.64003975 46.32419724 -18.11058651 46.37549551 -24 43 C-24.96292969 42.46632813 -25.92585938 41.93265625 -26.91796875 41.3828125 C-31.93037844 38.53776632 -36.51956578 35.62991112 -41 32 C-41.9075 31.525625 -42.815 31.05125 -43.75 30.5625 C-46 29 -46 29 -46.8125 26.3125 C-46.874375 25.549375 -46.93625 24.78625 -47 24 C-45.68 23.34 -44.36 22.68 -43 22 C-43 21.01 -43 20.02 -43 19 C-41.37550757 17.29220027 -39.70779973 15.62449243 -38 14 C-37.67 13.34 -37.34 12.68 -37 12 C-36.34 12 -35.68 12 -35 12 C-34.34 10.35 -33.68 8.7 -33 7 C-32.34 7 -31.68 7 -31 7 C-31 6.01 -31 5.02 -31 4 C-29.74703125 3.79503906 -28.4940625 3.59007812 -27.203125 3.37890625 C-25.55206909 3.10685726 -23.90102821 2.83471707 -22.25 2.5625 C-21.425 2.42779297 -20.6 2.29308594 -19.75 2.15429688 C-18.55117188 1.95610352 -18.55117188 1.95610352 -17.328125 1.75390625 C-16.22839355 1.57323608 -16.22839355 1.57323608 -15.10644531 1.38891602 C-13.68693165 1.12682917 -12.27575523 0.81544085 -10.87695312 0.45898438 C-7.32061431 -0.41067184 -3.6391656 -0.05351714 0 0 Z " fill="#E0E6E7" transform="translate(307,292)"/>
<path d="M0 0 C1.88138672 0.2165625 1.88138672 0.2165625 3.80078125 0.4375 C7.35759927 0.83850356 10.91237779 1.15592439 14.48046875 1.4375 C16.3829667 1.62342891 18.28531002 1.8109464 20.1875 2 C21.14591797 2.06316406 22.10433594 2.12632812 23.09179688 2.19140625 C30.00904002 2.94670992 30.00904002 2.94670992 32.91357422 6.03393555 C34.50390625 8.44921875 34.50390625 8.44921875 35.79907227 10.8269043 C37.39631007 13.71712867 39.6464738 15.71184953 42 18 C42.69748583 19.31747324 43.36959957 20.64914193 44 22 C45.5412312 23.70921589 45.5412312 23.70921589 47 25 C44.62875608 32.11373177 36.56740744 36.07829288 30.4375 39.8125 C29.81278809 40.19744629 29.18807617 40.58239258 28.54443359 40.97900391 C22.82025752 44.37205396 17.30477883 46.30971997 10.5625 46.125 C9.69753906 46.10695313 8.83257812 46.08890625 7.94140625 46.0703125 C6.98041016 46.03550781 6.98041016 46.03550781 6 46 C6 45.34 6 44.68 6 44 C5.401875 43.79375 4.80375 43.5875 4.1875 43.375 C1.10420076 41.43692619 0.35040716 39.34386534 -1 36 C-2.20806496 30.5802565 -2.18359068 25.21136929 -2.1875 19.6875 C-2.19974609 18.78837891 -2.21199219 17.88925781 -2.22460938 16.96289062 C-2.2375305 11.00625298 -1.48803796 5.76982309 0 0 Z " fill="#E1E6E7" transform="translate(193,292)"/>
<path d="M0 0 C1.20462891 -0.02416992 1.20462891 -0.02416992 2.43359375 -0.04882812 C7.15996252 -0.05272134 10.29897966 0.24303735 14.125 3.3125 C17.05848499 7.03881878 18.125 8.50122494 18.125 13.3125 C18.785 13.3125 19.445 13.3125 20.125 13.3125 C22.68846109 18.11898955 22.88924606 23.0100505 22.125 28.3125 C19.3289126 35.90873745 14.83114624 40.28460866 7.8125 44.125 C2.23375382 45.92154538 -2.45273827 46.18451422 -8 44.1875 C-13.80230889 40.4033855 -19.35686916 36.3800635 -21.4296875 29.4609375 C-22.94146437 22.16727714 -21.85995942 16.0286587 -18.875 9.3125 C-18.215 9.3125 -17.555 9.3125 -16.875 9.3125 C-16.606875 8.714375 -16.33875 8.11625 -16.0625 7.5 C-12.29131876 0.55308719 -7.23939279 -0.02877342 0 0 Z " fill="#05D7FB" transform="translate(249.875,226.6875)"/>
<path d="M0 0 C1.1446875 1.175625 1.1446875 1.175625 2.3125 2.375 C4.90891805 5.07257717 4.90891805 5.07257717 8 7 C11.01590804 6.87673921 11.01590804 6.87673921 14.3125 6.25 C15.42238281 6.06953125 16.53226563 5.8890625 17.67578125 5.703125 C21.01412095 5.0626678 21.01412095 5.0626678 24.20703125 3.9296875 C27.28376496 2.90554397 29.77915515 2.84662644 33 3 C33 2.34 33 1.68 33 1 C34.875 0.375 34.875 0.375 37 0 C37.66 0.66 38.32 1.32 39 2 C38.67 2.99 38.34 3.98 38 5 C38.495 6.485 38.495 6.485 39 8 C37.53716064 11.65142848 36.3856856 12.81236917 32.8203125 14.546875 C31.60085937 14.94390625 30.38140625 15.3409375 29.125 15.75 C27.91070312 16.15734375 26.69640625 16.5646875 25.4453125 16.984375 C17.90928342 19.20588017 9.26268378 20.87343135 2 17 C2 16.01 2 15.02 2 14 C1.34 14 0.68 14 0 14 C0 13.34 0 12.68 0 12 C-0.66 12 -1.32 12 -2 12 C-3.01911045 8.10885099 -3.16782969 6.39403493 -1.5625 2.625 C-1.046875 1.75875 -0.53125 0.8925 0 0 Z " fill="#08D5F8" transform="translate(191,333)"/>
<path d="M0 0 C0.73828125 1.66015625 0.73828125 1.66015625 1 4 C-0.58203125 6.62109375 -0.58203125 6.62109375 -2.8125 9.4375 C-5.90896869 13.30872922 -5.90896869 13.30872922 -7.88671875 17.78515625 C-8.25410156 18.51605469 -8.62148438 19.24695313 -9 20 C-15.27030643 21.4623892 -21.66165595 21.18400036 -28.0625 21.1875 C-29.21427734 21.19974609 -30.36605469 21.21199219 -31.55273438 21.22460938 C-39.54265004 21.23805287 -47.14303477 20.43839266 -55 19 C-56.33333333 15 -57.66666667 11 -59 7 C-58.34 7 -57.68 7 -57 7 C-54.40276088 10.49628343 -53.84163126 12.71684549 -54 17 C-48.55536877 16.90616651 -43.11116658 16.8000066 -37.66699219 16.68261719 C-35.81647249 16.64442878 -33.96588113 16.60955849 -32.11523438 16.578125 C-29.44895893 16.53225359 -26.78317252 16.47429641 -24.1171875 16.4140625 C-23.29507782 16.40251129 -22.47296814 16.39096008 -21.62594604 16.37905884 C-17.07064532 16.26307024 -13.2491865 15.83588688 -9 14 C-7.13407851 12.05886237 -7.13407851 12.05886237 -5.8125 9.6875 C-5.32136719 8.88828125 -4.83023438 8.0890625 -4.32421875 7.265625 C-3.88722656 6.51796875 -3.45023437 5.7703125 -3 5 C-2.38125 3.989375 -1.7625 2.97875 -1.125 1.9375 C-0.75375 1.298125 -0.3825 0.65875 0 0 Z " fill="#0FC7E8" transform="translate(281,267)"/>
<path d="M0 0 C0.33 0 0.66 0 1 0 C1.16738578 5.94466225 1.32796884 11.88945397 1.48217773 17.83447266 C1.53563266 19.85796079 1.59096466 21.88140023 1.64819336 23.90478516 C1.73000696 26.80881243 1.80512562 29.71294644 1.87890625 32.6171875 C1.90594131 33.52556366 1.93297638 34.43393982 1.96083069 35.36984253 C1.98092697 36.21056305 2.00102325 37.05128357 2.02172852 37.91748047 C2.04171402 38.65916473 2.06169952 39.400849 2.08229065 40.16500854 C2 42 2 42 1 44 C-1.26090065 44.99157069 -3.50248131 45.88860842 -5.8125 46.75 C-16.06209309 50.71481266 -25.74409002 54.74409002 -33.625 62.625 C-36 65 -36 65 -39 67 C-39 65.68 -39 64.36 -39 63 C-38.34 63 -37.68 63 -37 63 C-37 62.01 -37 61.02 -37 60 C-36.01 60 -35.02 60 -34 60 C-34 59.01 -34 58.02 -34 57 C-33.0925 56.71125 -32.185 56.4225 -31.25 56.125 C-28.67797092 55.23468224 -26.38653234 54.28505587 -24 53 C-24 52.34 -24 51.68 -24 51 C-21.03 50.505 -21.03 50.505 -18 50 C-18 49.34 -18 48.68 -18 48 C-16.35 48 -14.7 48 -13 48 C-13 47.34 -13 46.68 -13 46 C-12.01 46 -11.02 46 -10 46 C-10 45.34 -10 44.68 -10 44 C-7.69 44 -5.38 44 -3 44 C-1.85985995 39.88395614 -1.79272439 35.86745971 -1.71875 31.62109375 C-1.70034058 30.8126149 -1.68193115 30.00413605 -1.66296387 29.17115784 C-1.58447141 25.71913556 -1.5165221 22.2669248 -1.44775391 18.81469727 C-1.39598861 16.29173279 -1.33876423 13.76893265 -1.28125 11.24609375 C-1.26767456 10.46479599 -1.25409912 9.68349823 -1.2401123 8.87852478 C-1.16656401 5.67733509 -1.01917914 3.05753743 0 0 Z " fill="#B6E6F2" transform="translate(180,167)"/>
<path d="M0 0 C7.39529421 1.35580394 14.27328705 3.59296357 21 7 C21.33 7.66 21.66 8.32 22 9 C18.7 8.34 15.4 7.68 12 7 C12 6.34 12 5.68 12 5 C10.35 5 8.7 5 7 5 C7 4.34 7 3.68 7 3 C4.03 2.505 4.03 2.505 1 2 C0.87625 2.804375 0.7525 3.60875 0.625 4.4375 C0.14314086 7.18409712 -0.44926139 9.80161138 -1.125 12.5 C-1.99546462 16.28268082 -1.97712223 19.18922332 -1 23 C-2.32 23.33 -3.64 23.66 -5 24 C-4.67 27.96 -4.34 31.92 -4 36 C-3.34 36 -2.68 36 -2 36 C-1.63536268 37.74784829 -1.2836922 39.49840502 -0.9375 41.25 C-0.74027344 42.22453125 -0.54304688 43.1990625 -0.33984375 44.203125 C-0.01602465 46.868119 -0.14496801 48.48871723 -1 51 C-1.15855469 50.24976563 -1.31710937 49.49953125 -1.48046875 48.7265625 C-2.71727564 43.30101181 -4.06948709 38.52309602 -6.75 33.625 C-8.29708412 30.68507278 -8.99381734 29.30295035 -9.0625 25.9375 C-7.86857479 22.63664794 -6.46140014 19.48184326 -4.98046875 16.30078125 C-3.54586588 12.93432271 -2.81841654 9.56595776 -2 6 C-1.354876 3.99294757 -0.69643985 1.98982813 0 0 Z " fill="#BFEBF4" transform="translate(313,222)"/>
<path d="M0 0 C0.495 0.99 0.495 0.99 1 2 C1.66 2 2.32 2 3 2 C3.64215985 27.69627318 3.64215985 27.69627318 0 38 C-0.33 38.33 -0.66 38.66 -1 39 C-3.76636858 38.96141331 -6.49089411 38.85395845 -9.25 38.6875 C-10.39662109 38.63432617 -10.39662109 38.63432617 -11.56640625 38.58007812 C-15.81026782 38.33453518 -19.07804784 37.74692587 -23 36 C-25.1706211 35.63179131 -25.1706211 35.63179131 -27.25 35.5 C-28.4875 35.335 -29.725 35.17 -31 35 C-31.33 34.34 -31.66 33.68 -32 33 C-25.23734528 32.80011858 -19.48468588 32.87773917 -13 35 C-9.3453087 35.73691323 -5.6753781 36.37525219 -2 37 C0.39227481 24.6755128 0.21003783 12.50209796 0 0 Z " fill="#1DBDDA" transform="translate(308,169)"/>
<path d="M0 0 C3.5262915 0.0875811 5.47408811 0.27274014 8.6875 1.8125 C13.58337155 8.08533542 14.16228897 15.47690415 14 23.1875 C13.990896 24.05681152 13.98179199 24.92612305 13.97241211 25.82177734 C13.67268622 41.40462755 13.67268622 41.40462755 10.6875 47.375 C8.06190156 47.0669856 5.43710194 46.75379818 2.8125 46.4375 C2.06613281 46.35048828 1.31976563 46.26347656 0.55078125 46.17382812 C-5.0859375 45.48828125 -5.0859375 45.48828125 -7.3125 44.375 C-10.36316098 44.21698015 -13.41100909 44.12108726 -16.46484375 44.046875 C-19.3125 43.375 -19.3125 43.375 -21.19140625 40.828125 C-21.56136719 40.01859375 -21.93132812 39.2090625 -22.3125 38.375 C-21.6525 38.375 -20.9925 38.375 -20.3125 38.375 C-19.6525 39.365 -18.9925 40.355 -18.3125 41.375 C-16.42603358 41.93951137 -16.42603358 41.93951137 -14.2421875 42.03515625 C-13.4275 42.10669922 -12.6128125 42.17824219 -11.7734375 42.25195312 C-10.92007812 42.31318359 -10.06671875 42.37441406 -9.1875 42.4375 C-4.26765205 42.82329553 0.4611364 43.22349358 5.2421875 44.49609375 C6.37914062 44.78613281 7.51609375 45.07617188 8.6875 45.375 C12.67629848 41.38620152 11.07768538 29.1154131 11.25 23.9375 C11.31477539 22.12475586 11.31477539 22.12475586 11.38085938 20.27539062 C11.48639404 17.30869394 11.58850714 14.34192098 11.6875 11.375 C11.0275 11.375 10.3675 11.375 9.6875 11.375 C9.3575 9.395 9.0275 7.415 8.6875 5.375 C7.6975 5.045 6.7075 4.715 5.6875 4.375 C5.3575 3.715 5.0275 3.055 4.6875 2.375 C0.7275 2.375 -3.2325 2.375 -7.3125 2.375 C-4.73850489 -0.19899511 -3.57680716 0.04840064 0 0 Z " fill="#B2EAF3" transform="translate(295.3125,158.625)"/>
<path d="M0 0 C6.27 0 12.54 0 19 0 C18 3 18 3 16 4 C14.98648336 5.65848177 13.98879205 7.32665961 13 9 C11.68962066 10.68477344 10.36176922 12.35648543 9 14 C5.27688802 11.51792535 3.58712201 8.97486493 2.3125 4.6875 C2.209375 4.130625 2.10625 3.57375 2 3 C1.34 3 0.68 3 0 3 C0 2.01 0 1.02 0 0 Z " fill="#B1F0F9" transform="translate(240,298)"/>
<path d="M0 0 C5.36891879 0.49869404 10.69235173 1.02227532 16 2 C15.71515154 3.73030291 15.42180062 5.45920714 15.125 7.1875 C14.96257812 8.15042969 14.80015625 9.11335937 14.6328125 10.10546875 C14.01960483 12.91032604 13.14333657 15.37224747 12 18 C11.34 18 10.68 18 10 18 C6.25744191 13.05016511 3.96254964 7.88764893 2 2 C1.34 2 0.68 2 0 2 C0 1.34 0 0.68 0 0 Z " fill="#B8EBF5" transform="translate(286,216)"/>
<path d="M0 0 C-0.42152344 0.8353125 -0.42152344 0.8353125 -0.8515625 1.6875 C-1.6338297 3.26267749 -2.39883945 4.84651639 -3.1484375 6.4375 C-7.20140689 14.90485006 -7.20140689 14.90485006 -11 18 C-14.17692157 12.75117306 -14.65697965 7.98511371 -15 2 C-13.43883181 1.66048381 -11.87598662 1.32867456 -10.3125 1 C-9.44238281 0.814375 -8.57226562 0.62875 -7.67578125 0.4375 C-5.06287036 0.01027953 -2.64186962 -0.07616201 0 0 Z " fill="#B9EBF5" transform="translate(213,216)"/>
<path d="M0 0 C0.66 0 1.32 0 2 0 C3.3410005 2.4335567 4.67294856 4.87135301 6 7.3125 C6.3815625 8.00279297 6.763125 8.69308594 7.15625 9.40429688 C10 14.66015625 10 14.66015625 10 18 C5.38 17.01 0.76 16.02 -4 15 C-3.56214095 9.22026059 -2.99862039 5.08461719 0 0 Z " fill="#D7E9EE" transform="translate(202,264)"/>
<path d="M0 0 C0.99 0 1.98 0 3 0 C3.53532823 1.55759343 4.05265378 3.12138045 4.5625 4.6875 C4.85253906 5.55761719 5.14257812 6.42773438 5.44140625 7.32421875 C6.05141961 10.24631074 5.77703633 12.14400553 5 15 C3.58461283 15.33872513 2.16762037 15.67074624 0.75 16 C-0.03890625 16.185625 -0.8278125 16.37125 -1.640625 16.5625 C-4 17 -4 17 -8 17 C-6.51095825 13.10391502 -4.75621287 9.40902982 -2.875 5.6875 C-2.06675781 4.08455078 -2.06675781 4.08455078 -1.2421875 2.44921875 C-0.62730469 1.23685547 -0.62730469 1.23685547 0 0 Z " fill="#E3E7E6" transform="translate(296,264)"/>
<path d="M0 0 C2.01953125 2.03125 2.01953125 2.03125 3.8125 4.5 C4.41707031 5.3146875 5.02164062 6.129375 5.64453125 6.96875 C7 9 7 9 7 10 C0.4 10 -6.2 10 -13 10 C-12.01 8.35 -11.02 6.7 -10 5 C-9.484375 4.0925 -8.96875 3.185 -8.4375 2.25 C-6.01283441 -1.54512875 -4.07903971 -1.31699937 0 0 Z " fill="#B8EAF0" transform="translate(253,190)"/>
<path d="M0 0 C2 2 2 2 2 5 C2.556875 5.226875 3.11375 5.45375 3.6875 5.6875 C6 7 6 7 8.17578125 9.296875 C11.38792519 12.37129216 14.63295737 14.4191572 18.5 16.5625 C19.19544922 16.95236084 19.89089844 17.34222168 20.60742188 17.74389648 C26.84469339 21.1276305 33.09613687 23.30949927 40 25 C40.66 22.36 41.32 19.72 42 17 C43.19156292 21.76625167 42.3415946 22.87879351 40 27 C24.41940776 24.24040115 11.79968374 19.49115613 1.29296875 6.96484375 C-0.32740781 4.50245882 -0.24082232 2.88986783 0 0 Z " fill="#7CD8EA" transform="translate(147,250)"/>
<path d="M0 0 C0 4.25557558 -2.03410786 7.33564072 -4 11 C-4.60859863 12.13598633 -4.60859863 12.13598633 -5.22949219 13.29492188 C-14.48506499 30.25026691 -14.48506499 30.25026691 -19.05639648 31.61303711 C-23.05680527 32.13892646 -26.98926656 32.12280079 -31.01953125 32.09765625 C-32.30738777 32.09553383 -32.30738777 32.09553383 -33.6212616 32.09336853 C-36.35171049 32.08779057 -39.08207607 32.07524214 -41.8125 32.0625 C-43.6686186 32.05748215 -45.5247385 32.05291974 -47.38085938 32.04882812 C-51.9206048 32.03782836 -56.4602883 32.02057893 -61 32 C-61 31.34 -61 30.68 -61 30 C-59.98687744 30.00523682 -58.97375488 30.01047363 -57.92993164 30.01586914 C-54.13355408 30.03411234 -50.33718031 30.04550191 -46.54077148 30.05493164 C-44.90469712 30.05992803 -43.26862715 30.06672739 -41.63256836 30.07543945 C-29.28255464 30.16317302 -29.28255464 30.16317302 -17 29 C-16.85691406 28.39414062 -16.71382813 27.78828125 -16.56640625 27.1640625 C-16 25 -16 25 -14.9375 22.375 C-13.87761116 20.11550447 -13.87761116 20.11550447 -14 18 C-13.01 18 -12.02 18 -11 18 C-11 17.34 -11 16.68 -11 16 C-10.01 15.34 -9.02 14.68 -8 14 C-6.99831469 12.05167065 -6.99831469 12.05167065 -6.3125 9.875 C-5.93544922 8.78832031 -5.93544922 8.78832031 -5.55078125 7.6796875 C-5.36902344 7.12539063 -5.18726563 6.57109375 -5 6 C-4.34 6 -3.68 6 -3 6 C-3.495 4.02 -3.495 4.02 -4 2 C-2.68 1.34 -1.36 0.68 0 0 Z " fill="#B7E6F0" transform="translate(288,252)"/>
<path d="M0 0 C1.23992828 3.71978483 0.42836931 4.47528868 -1 8 C-1.30379816 10.73255968 -1.30379816 10.73255968 -1.265625 13.60546875 C-1.26820313 14.67216797 -1.27078125 15.73886719 -1.2734375 16.83789062 C-1.26570312 17.94326172 -1.25796875 19.04863281 -1.25 20.1875 C-1.25773438 21.27353516 -1.26546875 22.35957031 -1.2734375 23.47851562 C-1.25724357 30.21923815 -0.61584365 36.45288862 1 43 C2.34114583 42.73177083 3.68229167 42.46354167 5.0234375 42.1953125 C6.80729167 41.83854167 8.59114583 41.48177083 10.375 41.125 C11.24511719 40.95097656 12.11523438 40.77695313 13.01171875 40.59765625 C13.88183594 40.42363281 14.75195312 40.24960938 15.6484375 40.0703125 C16.52725586 39.89274414 17.40607422 39.71517578 18.31152344 39.53222656 C20.1349838 39.17124367 21.96134868 38.8246893 23.79003906 38.49121094 C24.6765918 38.3265332 25.56314453 38.16185547 26.4765625 37.9921875 C27.27400879 37.84894043 28.07145508 37.70569336 28.89306641 37.55810547 C31.27863512 37.04763179 31.27863512 37.04763179 34 35 C32.125 38.875 32.125 38.875 31 40 C29.54048079 40.28391411 28.07034666 40.51384388 26.59765625 40.71875 C25.70755859 40.84636719 24.81746094 40.97398437 23.90039062 41.10546875 C22.96388672 41.23566406 22.02738281 41.36585938 21.0625 41.5 C19.2196095 41.75726598 17.37713557 42.01753929 15.53515625 42.28125 C14.714104 42.39533203 13.89305176 42.50941406 13.04711914 42.62695312 C10.94355203 42.91171684 10.94355203 42.91171684 9 44 C7.29636178 44.22622081 5.58671299 44.40888473 3.875 44.5625 C2.96492187 44.64628906 2.05484375 44.73007813 1.1171875 44.81640625 C0.41851562 44.87699219 -0.28015625 44.93757813 -1 45 C-3.13634269 35.25164017 -4.10048773 25.77909566 -4.3125 15.8125 C-4.34230957 15.05195313 -4.37211914 14.29140625 -4.40283203 13.5078125 C-4.46065699 7.86803364 -3.1433712 4.68095711 0 0 Z " fill="#34C4DC" transform="translate(193,163)"/>
<path d="M0 0 C3.35867712 0.75970078 6.52123658 1.87093255 9.75 3.0625 C11.22726563 3.60583984 11.22726563 3.60583984 12.734375 4.16015625 C13.48203125 4.43730469 14.2296875 4.71445312 15 5 C14.84152588 6.14146484 14.68305176 7.28292969 14.51977539 8.45898438 C13.97114832 12.86153686 13.78287249 17.22373385 13.68359375 21.65625 C13.66281265 22.44398804 13.64203156 23.23172607 13.62062073 24.04333496 C13.55589026 26.52881206 13.49660094 29.01438333 13.4375 31.5 C13.39424177 33.19792592 13.35062532 34.89584275 13.30664062 36.59375 C13.20028887 40.72907325 13.09881251 44.86449001 13 49 C12.34 49 11.68 49 11 49 C10.95046707 43.67978261 10.91421744 38.35970024 10.89013672 33.03930664 C10.88009513 31.23036357 10.8664592 29.42143667 10.84912109 27.61254883 C10.82479168 25.00858565 10.81349839 22.40483758 10.8046875 19.80078125 C10.78920364 18.59268547 10.78920364 18.59268547 10.77340698 17.36018372 C10.77256271 13.11030774 11.03483771 9.87932557 13 6 C11.35 6 9.7 6 8 6 C8 5.34 8 4.68 8 4 C6.8553125 4.12375 6.8553125 4.12375 5.6875 4.25 C3 4 3 4 1.1875 2 C0.5996875 1.01 0.5996875 1.01 0 0 Z " fill="#B3EEF6" transform="translate(168,283)"/>
<path d="M0 0 C2.31 0.33 4.62 0.66 7 1 C2.25 5 2.25 5 0 5 C-0.433125 5.928125 -0.433125 5.928125 -0.875 6.875 C-2 9 -2 9 -4 11 C-8.17315511 10.73009445 -10.30691078 9.23932046 -13.3125 6.4375 C-14.00988281 5.79683594 -14.70726562 5.15617188 -15.42578125 4.49609375 C-16.20501953 3.75552734 -16.20501953 3.75552734 -17 3 C-16.071875 2.76990234 -16.071875 2.76990234 -15.125 2.53515625 C-13.74523329 2.18767824 -12.3697062 1.82272987 -11 1.4375 C-7.68299479 0.71190511 -5.19621791 0.93459403 -2 2 C-2 2.66 -2 3.32 -2 4 C-1.01 4 -0.02 4 1 4 C0.67 2.68 0.34 1.36 0 0 Z " fill="#E2E7E6" transform="translate(255,160)"/>
<path d="M0 0 C0.98886563 3.17830029 0.96893595 5.61527451 0.5703125 8.90625 C-0.10593429 15.44692633 -0.14739995 21.92934693 -0.125 28.5 C-0.12886719 29.6653125 -0.13273438 30.830625 -0.13671875 32.03125 C-0.13542969 33.145 -0.13414062 34.25875 -0.1328125 35.40625 C-0.13168457 36.40978516 -0.13055664 37.41332031 -0.12939453 38.44726562 C-0.10803266 41.12222957 -0.10803266 41.12222957 1 44 C1.1875 47.5625 1.1875 47.5625 1 51 C-2.21991601 54.21991601 -5.84142939 54.15644744 -10.25 54.5625 C-11.14203125 54.64628906 -12.0340625 54.73007813 -12.953125 54.81640625 C-13.62859375 54.87699219 -14.3040625 54.93757813 -15 55 C-12.94876752 52.94876752 -11.72994937 52.35852882 -9.0625 51.375 C-8.02802734 50.98441406 -8.02802734 50.98441406 -6.97265625 50.5859375 C-5 50 -5 50 -2 50 C-2.00444122 49.43259094 -2.00888245 48.86518188 -2.01345825 48.28057861 C-2.05769954 42.3758801 -2.08786975 36.47122868 -2.10986328 30.56640625 C-2.11992183 28.36261075 -2.13357026 26.1588286 -2.15087891 23.95507812 C-2.1751334 20.78772691 -2.1864846 17.62055213 -2.1953125 14.453125 C-2.20563507 13.46757629 -2.21595764 12.48202759 -2.22659302 11.46661377 C-2.22674408 10.5459613 -2.22689514 9.62530884 -2.22705078 8.67675781 C-2.231492 7.8684552 -2.23593323 7.06015259 -2.24050903 6.22735596 C-1.97424 3.76143649 -1.23223044 2.13457422 0 0 Z " fill="#30CBE7" transform="translate(183,161)"/>
<path d="M0 0 C-2.97 1.32 -5.94 2.64 -9 4 C-9 5.32 -9 6.64 -9 8 C-11.40625 9.921875 -11.40625 9.921875 -14.5 11.75 C-15.5209375 12.36359375 -16.541875 12.9771875 -17.59375 13.609375 C-18.78484375 14.29773438 -18.78484375 14.29773438 -20 15 C-20 14.34 -20 13.68 -20 13 C-20.66 13 -21.32 13 -22 13 C-24.50671795 17.07341667 -24.4706111 20.76459729 -23.5 25.375 C-23.335 25.91125 -23.17 26.4475 -23 27 C-23.66 27 -24.32 27 -25 27 C-26.61247435 23.47271236 -27.33997836 20.87458095 -27 17 C-24.17387491 11.52814079 -20.61913639 8.42394119 -15 6 C-12.61576864 4.48312861 -10.28577847 2.89946079 -7.953125 1.3046875 C-4.36601307 -1.09150327 -4.36601307 -1.09150327 0 0 Z " fill="#C9EBF3" transform="translate(174,228)"/>
<path d="M0 0 C0.515625 0.5775 1.03125 1.155 1.5625 1.75 C3.93351059 3.93862516 6.31501641 5.3961307 9.140625 6.9296875 C11.05234064 8.03012886 12.78919031 9.25213399 14.5625 10.5625 C19.64118121 14.26122774 25.24125333 16.54720049 31 19 C32.34013497 19.65288627 33.67741528 20.31225595 35 21 C26.71227135 21.52900396 19.51039107 19.17492623 13 14 C13 13.34 13 12.68 13 12 C12.175 11.835 11.35 11.67 10.5 11.5 C5.58549023 9.39378153 2.57131497 5.89762801 -1 2 C-0.67 1.34 -0.34 0.68 0 0 Z " fill="#77DBED" transform="translate(259,318)"/>
<path d="M0 0 C0.66 0 1.32 0 2 0 C2.125 6.75 2.125 6.75 1 9 C0.75903094 12.39017144 0.81479735 15.78971736 0.8125 19.1875 C0.80025391 20.12142578 0.78800781 21.05535156 0.77539062 22.01757812 C0.75869127 29.92750599 2.014176 36.024808 6 43 C6.66 43.33 7.32 43.66 8 44 C8 44.66 8 45.32 8 46 C8.99 46 9.98 46 11 46 C11.33 46.99 11.66 47.98 12 49 C8.36564708 48.75220321 6.50298403 48.47424208 3.8125 45.9375 C-1.30406878 37.64512991 -1.4094039 30.49675265 -1.25 20.9375 C-1.24484375 19.69677734 -1.2396875 18.45605469 -1.234375 17.17773438 C-1.18460953 11.3645055 -1.05447939 5.72310183 0 0 Z " fill="#34CBE3" transform="translate(191,292)"/>
<path d="M0 0 C5.33024558 5.33024558 3.17782889 19.01972976 3.19189453 26.44482422 C3.12876568 32.44464177 2.43998446 38.16292012 1 44 C0.67 44 0.34 44 0 44 C0 29.48 0 14.96 0 0 Z " fill="#2CCFEC" transform="translate(317,292)"/>
<path d="M0 0 C0 0.66 0 1.32 0 2 C-8.00330039 9.85577412 -21.34556637 19.39053284 -32.7734375 20.1953125 C-33.63195312 20.17210937 -34.49046875 20.14890625 -35.375 20.125 C-36.24898437 20.10695313 -37.12296875 20.08890625 -38.0234375 20.0703125 C-38.67570313 20.04710937 -39.32796875 20.02390625 -40 20 C-40 19.67 -40 19.34 -40 19 C-39.19820312 18.91105469 -38.39640625 18.82210938 -37.5703125 18.73046875 C-29.42734973 17.44716736 -23.41010364 14.93521996 -16.4375 10.625 C-15.67646973 10.15473389 -14.91543945 9.68446777 -14.13134766 9.19995117 C-10.83007875 7.08064069 -7.86009203 5.00648216 -5.16015625 2.1484375 C-3 0 -3 0 0 0 Z " fill="#27AEC3" transform="translate(242,319)"/>
<path d="M0 0 C1.20462891 -0.02416992 1.20462891 -0.02416992 2.43359375 -0.04882812 C7.15631979 -0.05271834 10.307665 0.23562735 14.125 3.3125 C18.125 8.6097973 18.125 8.6097973 18.125 11.3125 C17.465 11.3125 16.805 11.3125 16.125 11.3125 C16.125 10.6525 16.125 9.9925 16.125 9.3125 C15.5475 9.02375 14.97 8.735 14.375 8.4375 C12.29166667 7.39583333 10.20833333 6.35416667 8.125 5.3125 C8.125 4.6525 8.125 3.9925 8.125 3.3125 C2.89861203 1.57037068 -3.01874632 1.15559725 -8.19921875 3.25390625 C-12.29862297 5.74478234 -15.64806619 8.78304115 -18.875 12.3125 C-18.875 11.3225 -18.875 10.3325 -18.875 9.3125 C-18.215 9.3125 -17.555 9.3125 -16.875 9.3125 C-16.606875 8.714375 -16.33875 8.11625 -16.0625 7.5 C-12.29131876 0.55308719 -7.23939279 -0.02877342 0 0 Z " fill="#59D7EC" transform="translate(249.875,226.6875)"/>
<path d="M0 0 C0.33 0 0.66 0 1 0 C1.33 13.86 1.66 27.72 2 42 C0.68 42 -0.64 42 -2 42 C-1.88179429 36.50058401 -1.75754879 31.00135035 -1.62768555 25.50219727 C-1.58435378 23.63114134 -1.54267743 21.76004631 -1.50268555 19.88891602 C-1.44494051 17.20056369 -1.38125819 14.51240785 -1.31640625 11.82421875 C-1.29969376 10.98662521 -1.28298126 10.14903168 -1.26576233 9.28605652 C-1.18085939 5.96326712 -1.05749327 3.17247982 0 0 Z " fill="#AFEBF6" transform="translate(180,167)"/>
<path d="M0 0 C2.66760247 1.33380124 2.97462693 2.19219748 4 5 C4.20387716 7.75478825 4.30409582 10.40567393 4.30078125 13.16015625 C4.30506638 13.94643906 4.3093515 14.73272186 4.31376648 15.54283142 C4.31949792 17.20115192 4.32001878 18.85949755 4.31567383 20.51782227 C4.31250656 23.05723695 4.33601161 25.59549428 4.36132812 28.13476562 C4.36360049 29.74739436 4.36430491 31.36002624 4.36328125 32.97265625 C4.372491 33.73208023 4.38170074 34.49150421 4.39118958 35.27394104 C4.3447751 40.5467675 4.3447751 40.5467675 2.47729492 43.00170898 C1.74603394 43.49586304 1.74603394 43.49586304 1 44 C1.00523682 42.88028809 1.01047363 41.76057617 1.01586914 40.60693359 C1.0340266 36.43604335 1.0454712 32.26515657 1.05493164 28.09423828 C1.05994733 26.29214896 1.06676146 24.49006369 1.07543945 22.68798828 C1.08762636 20.09146118 1.09325606 17.49498808 1.09765625 14.8984375 C1.10281754 14.0982016 1.10797882 13.2979657 1.11329651 12.47348022 C1.11372102 8.20008833 0.85075701 4.20962814 0 0 Z " fill="#ACECF8" transform="translate(317,162)"/>
<path d="M0 0 C0.66 0.33 1.32 0.66 2 1 C1.34 2.32 0.68 3.64 0 5 C-0.66 5 -1.32 5 -2 5 C-2.2784375 5.86625 -2.2784375 5.86625 -2.5625 6.75 C-4.63791989 9.99848331 -7.68305767 11.26255402 -11 13 C-11.886875 13.556875 -12.77375 14.11375 -13.6875 14.6875 C-15.9215656 15.95548318 -17.53222314 16.39168438 -20 17 C-23.08122043 18.06705352 -26.15316012 19.15749868 -29.22265625 20.2578125 C-32 21 -32 21 -35 20 C-34.33355469 19.78085937 -33.66710937 19.56171875 -32.98046875 19.3359375 C-25.86617624 16.88822287 -19.49621793 13.77470339 -13 10 C-11.57494141 9.20142578 -11.57494141 9.20142578 -10.12109375 8.38671875 C-9.21488281 7.86722656 -8.30867188 7.34773438 -7.375 6.8125 C-6.55773437 6.34457031 -5.74046875 5.87664062 -4.8984375 5.39453125 C-2.69938771 4.06043382 -2.69938771 4.06043382 -2 1 C-1.34 0.67 -0.68 0.34 0 0 Z " fill="#1BADC3" transform="translate(349,255)"/>
<path d="M0 0 C0.33 0.66 0.66 1.32 1 2 C0.01 2.495 0.01 2.495 -1 3 C-1.65772428 6.02934491 -1.65772428 6.02934491 -2 9 C-2.66 9 -3.32 9 -4 9 C-3.86041436 13.52104878 -3.71222243 18.04177646 -3.5625 22.5625 C-3.52318359 23.83931641 -3.48386719 25.11613281 -3.44335938 26.43164062 C-3.40146484 27.67236328 -3.35957031 28.91308594 -3.31640625 30.19140625 C-3.27974854 31.32779541 -3.24309082 32.46418457 -3.20532227 33.63500977 C-2.99195699 37.13181545 -2.54045723 40.53991975 -2 44 C-1.01 44.33 -0.02 44.66 1 45 C-0.32 45 -1.64 45 -3 45 C-5.79026149 37.39879622 -6.49102226 30.49989793 -6.4375 22.4375 C-6.45748047 21.36564453 -6.47746094 20.29378906 -6.49804688 19.18945312 C-6.49391998 12.44197374 -5.73206833 6.76350196 -2 1 C-1.34 0.67 -0.68 0.34 0 0 Z " fill="#BAECF5" transform="translate(197,161)"/>
<path d="M0 0 C0.99 0.33 1.98 0.66 3 1 C4.17955117 5.69624023 4.1958021 10.28674096 4.23828125 15.09765625 C4.246353 15.96893661 4.25442474 16.84021698 4.26274109 17.73789978 C4.27653106 19.57435137 4.28727581 21.41082804 4.29516602 23.24731445 C4.3067335 25.12597151 4.32725973 27.0045945 4.35668945 28.88305664 C4.39924471 31.60064978 4.41551298 34.31727188 4.42578125 37.03515625 C4.44328934 37.87377701 4.46079742 38.71239777 4.47883606 39.57643127 C4.45703133 45.42261323 4.45703133 45.42261323 1.97338867 48.56030273 C1.32217041 49.03540283 0.67095215 49.51050293 0 50 C0.144375 49.27039063 0.28875 48.54078125 0.4375 47.7890625 C3.22308562 32.12014336 2.75505277 15.65055185 0 0 Z " fill="#B6EDF6" transform="translate(317,288)"/>
<path d="M0 0 C0.73828125 1.65625 0.73828125 1.65625 1 4 C-0.58203125 6.65625 -0.58203125 6.65625 -2.8125 9.5 C-5.27467433 12.67250073 -7.19260869 15.38521737 -9 19 C-28.8 18.505 -28.8 18.505 -49 18 C-49 17.67 -49 17.34 -49 17 C-47.50218994 16.970271 -47.50218994 16.970271 -45.97412109 16.93994141 C-42.25024268 16.86355736 -38.52673839 16.774892 -34.80322266 16.68261719 C-33.19522518 16.64446241 -31.58714627 16.60958652 -29.97900391 16.578125 C-27.66018684 16.5321794 -25.3419238 16.47423619 -23.0234375 16.4140625 C-22.31069672 16.40251129 -21.59795593 16.39096008 -20.86361694 16.37905884 C-16.56843922 16.25359974 -12.96787941 15.66945567 -9 14 C-7.13407851 12.05886237 -7.13407851 12.05886237 -5.8125 9.6875 C-5.32136719 8.88828125 -4.83023438 8.0890625 -4.32421875 7.265625 C-3.88722656 6.51796875 -3.45023437 5.7703125 -3 5 C-2.38125 3.989375 -1.7625 2.97875 -1.125 1.9375 C-0.75375 1.298125 -0.3825 0.65875 0 0 Z " fill="#38B6CC" transform="translate(281,267)"/>
<path d="M0 0 C0.66 0.99 1.32 1.98 2 3 C-2.75 1.125 -2.75 1.125 -5 0 C-13.43109145 -0.67492989 -19.80185687 -0.47231569 -27 4 C-28.7325 4.7115625 -28.7325 4.7115625 -30.5 5.4375 C-34.01322113 7.00590229 -37.02866244 8.85943313 -40.203125 11.01171875 C-42 12 -42 12 -45 12 C-40.7646174 8.26059441 -36.56318952 5.42221895 -31.5625 2.8125 C-30.93279297 2.47025391 -30.30308594 2.12800781 -29.65429688 1.77539062 C-20.04796088 -3.30915515 -9.82616681 -5.52721883 0 0 Z " fill="#35BAD1" transform="translate(307,149)"/>
<path d="M0 0 C2.43359375 1.2890625 2.43359375 1.2890625 4.43359375 3.2890625 C0.77022825 2.92272595 -1.99825542 2.62724752 -5.19140625 0.7265625 C-11.3678984 -1.90416564 -18.45799681 -1.48440854 -24.91015625 0.12109375 C-25.78671875 0.50652344 -26.66328125 0.89195312 -27.56640625 1.2890625 C-27.89640625 2.2790625 -28.22640625 3.2690625 -28.56640625 4.2890625 C-29.55640625 4.9490625 -30.54640625 5.6090625 -31.56640625 6.2890625 C-31.89640625 7.2790625 -32.22640625 8.2690625 -32.56640625 9.2890625 C-33.22640625 9.2890625 -33.88640625 9.2890625 -34.56640625 9.2890625 C-33.19439184 4.10589695 -29.86270505 1.22501018 -25.56640625 -1.7109375 C-16.67949364 -5.93869204 -8.63653575 -3.84095608 0 0 Z " fill="#2FBAD5" transform="translate(219.56640625,149.7109375)"/>
<path d="M0 0 C0.33 0.66 0.66 1.32 1 2 C0.34 2 -0.32 2 -1 2 C-1.04125 2.5775 -1.0825 3.155 -1.125 3.75 C-2.4473883 7.15042705 -4.94116234 8.1646974 -8 10 C-8.99 10.66 -9.98 11.32 -11 12 C-13.9375 12.375 -13.9375 12.375 -17 12 C-19.375 10 -19.375 10 -21 8 C-20.67 7.34 -20.34 6.68 -20 6 C-19.608125 6.515625 -19.21625 7.03125 -18.8125 7.5625 C-17.07542291 9.24596874 -17.07542291 9.24596874 -14.625 9 C-11.20086932 7.69556926 -9.43493619 5.69817253 -7 3 C-4.64046906 0.64046906 -3.22104383 0.50858587 0 0 Z " fill="#16C7E4" transform="translate(264,161)"/>
<path d="M0 0 C5.92646399 -0.0987934 11.85244995 -0.17143282 17.77954102 -0.21972656 C19.79622749 -0.23985609 21.81285551 -0.26716237 23.8293457 -0.30175781 C26.72622082 -0.35021722 29.62232515 -0.37295499 32.51953125 -0.390625 C33.42274612 -0.41127014 34.325961 -0.43191528 35.25654602 -0.45318604 C37.57518691 -0.45401934 39.72170895 -0.43172818 42 0 C43.9050293 2.02441406 43.9050293 2.02441406 45 4 C45.99 4 46.98 4 48 4 C49.125 10.75 49.125 10.75 48 13 C47.60639282 11.82957153 47.60639282 11.82957153 47.20483398 10.63549805 C45.51635165 6.93347321 44.0712071 4.70552502 41 2 C34.34503377 -0.06620331 26.94260341 0.64698726 20.0625 0.8125 C18.11915212 0.81946308 16.17577975 0.8214677 14.23242188 0.81835938 C9.48607579 0.82153813 4.7450827 0.89248158 0 1 C0 0.67 0 0.34 0 0 Z " fill="#29CCE7" transform="translate(230,212)"/>
<path d="M0 0 C6.76265472 -0.19988142 12.51531412 -0.12226083 19 2 C22.6546913 2.73691323 26.3246219 3.37525219 30 4 C29.67 4.66 29.34 5.32 29 6 C26.60325733 5.88543872 24.20818782 5.75871281 21.8125 5.625 C21.13896484 5.5940625 20.46542969 5.563125 19.77148438 5.53125 C15.76447124 5.29669313 12.65996279 4.59456355 9 3 C6.8293789 2.63179131 6.8293789 2.63179131 4.75 2.5 C2.89375 2.2525 2.89375 2.2525 1 2 C0.67 1.34 0.34 0.68 0 0 Z " fill="#38CDE6" transform="translate(276,202)"/>
<path d="M0 0 C3.73483058 3.35198918 6.06150564 7.08999111 8.5625 11.375 C8.94857422 12.02210938 9.33464844 12.66921875 9.73242188 13.3359375 C11.98470358 17.14217847 14.22375726 20.94514283 16 25 C15.67 25.66 15.34 26.32 15 27 C14.67 25.68 14.34 24.36 14 23 C13.34 23 12.68 23 12 23 C12 22.01 12 21.02 12 20 C10.35 20 8.7 20 7 20 C7.33 17.69 7.66 15.38 8 13 C7.01 13 6.02 13 5 13 C4.01 10.69 3.02 8.38 2 6 C1.34 6 0.68 6 0 6 C0 4.02 0 2.04 0 0 Z " fill="#BFE9F2" transform="translate(273,218)"/>
<path d="M0 0 C3.96 0 7.92 0 12 0 C12 0.99 12 1.98 12 3 C11.34 3 10.68 3 10 3 C10 4.98 10 6.96 10 9 C8.68 9.33 7.36 9.66 6 10 C3 5.375 3 5.375 3 2 C2.01 1.67 1.02 1.34 0 1 C0 0.67 0 0.34 0 0 Z " fill="#D8E7EB" transform="translate(242,299)"/>
<path d="M0 0 C2.97 0 5.94 0 9 0 C8.34 3.63 7.68 7.26 7 11 C5.68 11 4.36 11 3 11 C2.01 7.37 1.02 3.74 0 0 Z " fill="#E4E6E6" transform="translate(291,219)"/>
<path d="M0 0 C0.99 0 1.98 0 3 0 C3.53341184 1.57914015 4.05125763 3.16354387 4.5625 4.75 C4.85253906 5.63171875 5.14257812 6.5134375 5.44140625 7.421875 C6.01697435 10.07834316 5.89248371 11.47031106 5 14 C4.67 13.67 4.34 13.34 4 13 C3.01 13 2.02 13 1 13 C1.33 10.69 1.66 8.38 2 6 C1.01 6 0.02 6 -1 6 C-1.28875 6.804375 -1.5775 7.60875 -1.875 8.4375 C-3 11 -3 11 -5 12 C-3.87143971 7.57257117 -2.78443571 3.67545514 0 0 Z " fill="#CBE9ED" transform="translate(296,264)"/>
<path d="M0 0 C0.66666667 1.33333333 1.33333333 2.66666667 2 4 C2.515625 5.010625 3.03125 6.02125 3.5625 7.0625 C5 10 5 10 6 13 C7.32 13 8.64 13 10 13 C10.50435694 14.9363704 11.00333874 16.87414146 11.5 18.8125 C11.7784375 19.89144531 12.056875 20.97039062 12.34375 22.08203125 C13 25 13 25 13 28 C11.30344767 25.34913699 9.64262815 22.68438995 8 20 C7.66274902 19.4534375 7.32549805 18.906875 6.97802734 18.34375 C5.86640337 16.52934093 4.77551089 14.70365063 3.6875 12.875 C3.32591797 12.28960449 2.96433594 11.70420898 2.59179688 11.10107422 C0.32130122 7.2322978 -0.40050957 4.46669999 0 0 Z " fill="#83DCEB" transform="translate(208,246)"/>
<path d="M0 0 C8.80987248 2.09047822 17.43092991 5.09523048 26 8 C26.66 5.36 27.32 2.72 28 0 C29.19156292 4.76625167 28.3415946 5.87879351 26 10 C6.56943708 6.28411243 6.56943708 6.28411243 0 1 C0 0.67 0 0.34 0 0 Z " fill="#59CEE2" transform="translate(161,267)"/>
<path d="M0 0 C7.39529421 1.35580394 14.27328705 3.59296357 21 7 C21.33 7.66 21.66 8.32 22 9 C18.7 8.34 15.4 7.68 12 7 C12 6.34 12 5.68 12 5 C10.35 5 8.7 5 7 5 C7 4.34 7 3.68 7 3 C4.03 2.505 4.03 2.505 1 2 C0.896875 2.825 0.79375 3.65 0.6875 4.5 C-0.11646056 8.59289012 -1.46352158 12.12540225 -3 16 C-4.94759139 12.10481722 -2.16073599 6.50006753 -0.875 2.5 C-0.58625 1.675 -0.2975 0.85 0 0 Z " fill="#B4EDF8" transform="translate(313,222)"/>
<path d="M0 0 C3.06273831 -0.05410136 6.12451452 -0.09372225 9.1875 -0.125 C10.48397461 -0.15013672 10.48397461 -0.15013672 11.80664062 -0.17578125 C20.09300742 -0.23927831 20.09300742 -0.23927831 24 2 C24.33 2.66 24.66 3.32 25 4 C24.01 3.67 23.02 3.34 22 3 C19.04555573 2.77572157 16.08711128 2.81485462 13.125 2.8125 C12.32191406 2.80025391 11.51882812 2.78800781 10.69140625 2.77539062 C6.39010811 2.76476139 2.85514287 2.84565546 -1 5 C-1.33 5.66 -1.66 6.32 -2 7 C-2.33 5.35 -2.66 3.7 -3 2 C-2.01 2.33 -1.02 2.66 0 3 C0 2.01 0 1.02 0 0 Z " fill="#C3EAF1" transform="translate(237,225)"/>
<path d="M0 0 C2.64 0 5.28 0 8 0 C7.67 2.31 7.34 4.62 7 7 C6.67 7 6.34 7 6 7 C5.67 8.65 5.34 10.3 5 12 C4.01 11.67 3.02 11.34 2 11 C1.34 7.37 0.68 3.74 0 0 Z " fill="#E3E6E6" transform="translate(200,219)"/>
<path d="M0 0 C1.73684533 3.47369066 2.30084112 5.07619937 2.625 8.75 C2.69976562 9.54921875 2.77453125 10.3484375 2.8515625 11.171875 C2.92503906 12.07679688 2.92503906 12.07679688 3 13 C0.93827387 13.33808686 -1.1244203 13.67027361 -3.1875 14 C-4.91033203 14.2784375 -4.91033203 14.2784375 -6.66796875 14.5625 C-9.50415393 14.93489477 -12.14719564 15.08596021 -15 15 C-15 14.34 -15 13.68 -15 13 C-10.05918728 11.22637492 -5.12600561 10.08733452 0 9 C0 6.03 0 3.06 0 0 Z " fill="#29BFDC" transform="translate(301,269)"/>
<path d="M0 0 C0.66 0.66 1.32 1.32 2 2 C2.5775 1.649375 3.155 1.29875 3.75 0.9375 C6.35801776 -0.14917407 7.39417629 0.06934867 10 1 C8.63875 1.8353125 8.63875 1.8353125 7.25 2.6875 C1.53103372 6.75676447 -1.10162091 11.78698524 -4 18 C-4.66 17.34 -5.32 16.68 -6 16 C-6 15.01 -6 14.02 -6 13 C-5.34 13 -4.68 13 -4 13 C-3.67 11.68 -3.34 10.36 -3 9 C-2.34 9 -1.68 9 -1 9 C-1.020625 7.88625 -1.04125 6.7725 -1.0625 5.625 C-1 2 -1 2 0 0 Z " fill="#CEEAEF" transform="translate(186,147)"/>
<path d="M0 0 C5.59973582 3.05440135 10.80124189 6.55014218 16.03515625 10.1953125 C18.9798817 11.98775408 21.69818927 13.04821503 25 14 C22.44855176 14.93045933 21.25993522 15.08564091 18.640625 14.22265625 C17.85171875 13.83980469 17.0628125 13.45695312 16.25 13.0625 C15.45078125 12.68222656 14.6515625 12.30195313 13.828125 11.91015625 C13.22484375 11.60980469 12.6215625 11.30945313 12 11 C12 10.34 12 9.68 12 9 C11.38511719 8.86722656 10.77023437 8.73445313 10.13671875 8.59765625 C9.32847656 8.42105469 8.52023437 8.24445313 7.6875 8.0625 C6.88699219 7.88847656 6.08648437 7.71445312 5.26171875 7.53515625 C3 7 3 7 0 6 C0 4.02 0 2.04 0 0 Z " fill="#BFF0F7" transform="translate(257,334)"/>
<path d="M0 0 C0.99 0.33 1.98 0.66 3 1 C3.33 1.99 3.66 2.98 4 4 C5.49985609 5.66710346 5.49985609 5.66710346 7 7 C5.31508735 12.05473795 0.63880584 15.41229082 -3.86328125 18.12109375 C-5.2185158 18.7970938 -6.60618116 19.40762699 -8 20 C-8 19.01 -8 18.02 -8 17 C-6.906875 16.443125 -5.81375 15.88625 -4.6875 15.3125 C-1.32226941 13.37390875 0.54907192 11.71800322 2 8 C1.72323446 5.09396188 0.92416454 2.77249363 0 0 Z " fill="#BDEAF4" transform="translate(233,310)"/>
<path d="M0 0 C1.09898702 3.29696105 0.87124444 4.40494903 0.0625 7.6875 C-0.13214844 8.49574219 -0.32679688 9.30398438 -0.52734375 10.13671875 C-0.76130859 11.05904297 -0.76130859 11.05904297 -1 12 C0.19625 12.12375 1.3925 12.2475 2.625 12.375 C6.27596813 12.82325054 9.54524899 13.70446837 13 15 C13 15.33 13 15.66 13 16 C7.84828377 16.09038099 3.08086796 15.84681133 -2 15 C-2 10.71 -2 6.42 -2 2 C-1.34 2 -0.68 2 0 2 C0 1.34 0 0.68 0 0 Z " fill="#35D1E8" transform="translate(199,267)"/>
<path d="M0 0 C0.66 0 1.32 0 2 0 C2 0.66 2 1.32 2 2 C8.93 2.33 15.86 2.66 23 3 C23 3.66 23 4.32 23 5 C15.08 5 7.16 5 -1 5 C-0.67 3.35 -0.34 1.7 0 0 Z " fill="#22C2E0" transform="translate(239,197)"/>
<path d="M0 0 C-0.33 0.99 -0.66 1.98 -1 3 C-3.30824842 3.71023028 -5.58303983 4.01261364 -7.96875 4.375 C-8.6390625 4.58125 -9.309375 4.7875 -10 5 C-10.33 5.99 -10.66 6.98 -11 8 C-11.70125 7.649375 -12.4025 7.29875 -13.125 6.9375 C-16.50268586 5.8360807 -18.58080593 6.20483859 -22 7 C-19.30907163 4.30907163 -16.22213506 3.53411769 -12.6875 2.375 C-12.02298828 2.14554687 -11.35847656 1.91609375 -10.67382812 1.6796875 C-7.01112168 0.46240821 -3.86331186 -0.28395716 0 0 Z " fill="#D5D5D5" transform="translate(162,99)"/>
<path d="M0 0 C0.33 0 0.66 0 1 0 C1 6.27 1 12.54 1 19 C1.66 19 2.32 19 3 19 C3.12375 19.639375 3.2475 20.27875 3.375 20.9375 C3.58125 21.618125 3.7875 22.29875 4 23 C4.66 23.33 5.32 23.66 6 24 C5.67 24.66 5.34 25.32 5 26 C1.45676012 23.63784008 -0.30877673 21.23354459 -1.57421875 17.14453125 C-2.71151869 11.4162958 -2.79040938 5.23201758 0 0 Z " fill="#2ECCE9" transform="translate(230,239)"/>
<path d="M0 0 C0.66 0 1.32 0 2 0 C2.33 0.66 2.66 1.32 3 2 C3.99 2.33 4.98 2.66 6 3 C6 3.66 6 4.32 6 5 C6.598125 5.144375 7.19625 5.28875 7.8125 5.4375 C9.56150404 5.8872439 11.28677023 6.42892341 13 7 C13.33 8.65 13.66 10.3 14 12 C13.34 12 12.68 12 12 12 C12 11.34 12 10.68 12 10 C10.2984375 10.0309375 10.2984375 10.0309375 8.5625 10.0625 C5 10 5 10 4 9 C3.95936168 7.33382885 3.957279 5.66611905 4 4 C2.68 3.34 1.36 2.68 0 2 C0 1.34 0 0.68 0 0 Z " fill="#49D7F2" transform="translate(344,222)"/>
<path d="M0 0 C0.639375 0.804375 1.27875 1.60875 1.9375 2.4375 C5.5647578 5.47255245 7.31781154 5.43863621 11.83984375 5.6953125 C15.06904742 6.15078788 16.81183031 7.67065808 19 10 C19 10.66 19 11.32 19 12 C14.15046881 11.21781755 9.62764021 9.59454269 5 8 C4.01 7.67 3.02 7.34 2 7 C0 4 0 4 0 0 Z " fill="#84DDEB" transform="translate(317,206)"/>
<path d="M0 0 C0.99 0 1.98 0 3 0 C2.1875 2.4375 2.1875 2.4375 1 5 C0.01 5.33 -0.98 5.66 -2 6 C-2 6.66 -2 7.32 -2 8 C-9.63309233 8.37268263 -15.89447357 8.57578108 -21.9375 3.3125 C-22.4634375 2.6628125 -22.4634375 2.6628125 -23 2 C-21.68 1.67 -20.36 1.34 -19 1 C-18.67 1.99 -18.34 2.98 -18 4 C-13.06836739 5.81162014 -8.20955943 6.45162532 -3 7 C-1.79371992 4.66785852 -0.8345262 2.50357861 0 0 Z " fill="#C1E9F1" transform="translate(303,330)"/>
<path d="M0 0 C0.66 0.33 1.32 0.66 2 1 C1.34 2.32 0.68 3.64 0 5 C1.2065625 5.433125 1.2065625 5.433125 2.4375 5.875 C5 7 5 7 6 9 C7.65051288 10.11634152 7.65051288 10.11634152 9.5625 11.125 C10.696875 11.74375 11.83125 12.3625 13 13 C13 13.66 13 14.32 13 15 C9.50756192 13.69343185 6.39702579 12.18871271 3.25 10.1875 C2.08210938 9.46626953 2.08210938 9.46626953 0.890625 8.73046875 C-1.48138113 6.55939702 -1.85656369 5.18121236 -2 2 C-1.34 1.34 -0.68 0.68 0 0 Z " fill="#D4E7ED" transform="translate(262,314)"/>
<path d="M0 0 C3 1 3 1 4.16015625 3.13671875 C5.96574042 9.29250107 6.37171582 16.70692614 3.87890625 22.69140625 C2.68439756 24.58299367 1.46680248 26.31317715 0 28 C0 25 0 25 1.5 22.4375 C4.04453929 16.60626412 3.63093573 10.11600901 2 4 C1.34 4 0.68 4 0 4 C0 2.68 0 1.36 0 0 Z " fill="#B0E9F4" transform="translate(268,236)"/>
<path d="M0 0 C1 4 1 4 0.00390625 6.359375 C-0.47175781 7.14828125 -0.94742188 7.9371875 -1.4375 8.75 C-1.91058594 9.54921875 -2.38367188 10.3484375 -2.87109375 11.171875 C-3.24363281 11.77515625 -3.61617187 12.3784375 -4 13 C-5.32 13 -6.64 13 -8 13 C-9.4783226 10.04335481 -9.06032783 7.25770263 -9 4 C-7.68 5.65 -6.36 7.3 -5 9 C-3.35 6.03 -1.7 3.06 0 0 Z " fill="#32D1F0" transform="translate(208,224)"/>
<path d="M0 0 C7.59 0 15.18 0 23 0 C23 0.33 23 0.66 23 1 C16.73 1 10.46 1 4 1 C4 1.99 4 2.98 4 4 C4.66 4 5.32 4 6 4 C6 4.66 6 5.32 6 6 C4.35 6 2.7 6 1 6 C0.67 4.02 0.34 2.04 0 0 Z " fill="#29D1F0" transform="translate(236,297)"/>
<path d="M0 0 C0.74958984 0.00902344 1.49917969 0.01804688 2.27148438 0.02734375 C4.11862654 0.05087422 5.96560412 0.08674439 7.8125 0.125 C7.8125 0.455 7.8125 0.785 7.8125 1.125 C6.966875 1.13917969 6.12125 1.15335938 5.25 1.16796875 C-4.13449472 1.5625441 -9.51348164 3.4303321 -16.1875 9.9375 C-16.8475 10.659375 -17.5075 11.38125 -18.1875 12.125 C-18.1875 11.135 -18.1875 10.145 -18.1875 9.125 C-17.5275 9.125 -16.8675 9.125 -16.1875 9.125 C-15.919375 8.526875 -15.65125 7.92875 -15.375 7.3125 C-11.81541372 0.75536738 -7.03880777 -0.15983319 0 0 Z " fill="#31B1C8" transform="translate(249.1875,226.875)"/>
<path d="M0 0 C2.99324263 1.0975223 3.84610901 1.67682892 5.25 4.625 C5.4975 5.40875 5.745 6.1925 6 7 C-0.625 7.25 -0.625 7.25 -4 5 C-2.68 3.35 -1.36 1.7 0 0 Z " fill="#E3E6E7" transform="translate(250,191)"/>
<path d="M0 0 C2.98941468 1.49470734 3.53778532 4.07557063 5 7 C5.66 7.33 6.32 7.66 7 8 C7 8.66 7 9.32 7 10 C7.99 10 8.98 10 10 10 C10.33 10.99 10.66 11.98 11 13 C7.29258749 12.74722187 5.46290515 12.4253723 2.6875 9.875 C0.72436895 6.53040635 0.30110137 3.83904245 0 0 Z " fill="#5ED8EF" transform="translate(192,328)"/>
<path d="M0 0 C13.96331738 7.88995215 13.96331738 7.88995215 16 14 C14.02 14.99 14.02 14.99 12 16 C11.896875 15.21625 11.79375 14.4325 11.6875 13.625 C11.22404978 10.66954819 11.22404978 10.66954819 8 9 C8 8.34 8 7.68 8 7 C6.865625 6.5875 5.73125 6.175 4.5625 5.75 C1 4 1 4 0.27734375 1.890625 C0.18582031 1.26671875 0.09429687 0.6428125 0 0 Z " fill="#BDEEF6" transform="translate(225,167)"/>
<path d="M0 0 C0.99 1.32 1.98 2.64 3 4 C4.5625 3.6875 6.125 3.375 7.6875 3.0625 C10.40234375 2.51953125 13.1171875 1.9765625 15.83203125 1.43359375 C16.54746094 1.29050781 17.26289063 1.14742188 18 1 C18 1.66 18 2.32 18 3 C7.25233645 6.79750779 7.25233645 6.79750779 3 7 C1.125 5.8125 1.125 5.8125 0 4 C0 2.68 0 1.36 0 0 Z " fill="#13C5E6" transform="translate(311,271)"/>
<path d="M0 0 C0.33 0 0.66 0 1 0 C1.125 3.375 1.125 3.375 1 7 C-2.21991601 10.21991601 -5.84142939 10.15644744 -10.25 10.5625 C-11.14203125 10.64628906 -12.0340625 10.73007813 -12.953125 10.81640625 C-13.62859375 10.87699219 -14.3040625 10.93757812 -15 11 C-12.61874536 8.61874536 -10.66142433 7.99813759 -7.5 6.875 C-6.03046875 6.34519531 -6.03046875 6.34519531 -4.53125 5.8046875 C-2 5 -2 5 0 5 C0 3.35 0 1.7 0 0 Z " fill="#13BDD8" transform="translate(183,205)"/>
<path d="M0 0 C0.66 0 1.32 0 2 0 C4.79457766 3.76193147 5 5.0763803 5 10 C9.29 10.33 13.58 10.66 18 11 C18 11.33 18 11.66 18 12 C13.38 12 8.76 12 4 12 C2.66666667 8 1.33333333 4 0 0 Z " fill="#28CDE9" transform="translate(222,274)"/>
<path d="M0 0 C3.63 0 7.26 0 11 0 C11 1.32 11 2.64 11 4 C9.824375 3.9690625 9.824375 3.9690625 8.625 3.9375 C6.01885039 3.81315937 6.01885039 3.81315937 4 5 C4 4.34 4 3.68 4 3 C3.01 3 2.02 3 1 3 C0.67 2.01 0.34 1.02 0 0 Z " fill="#EDEDED" transform="translate(328,98)"/>
<path d="M0 0 C0 0.66 0 1.32 0 2 C-2.08203125 3.91015625 -2.08203125 3.91015625 -4.8125 6.0625 C-5.70582031 6.77535156 -6.59914062 7.48820312 -7.51953125 8.22265625 C-10 10 -10 10 -13 11 C-13 10.01 -13 9.02 -13 8 C-11.03501678 6.61558 -9.02951535 5.28796166 -7 4 C-6.278125 3.2575 -5.55625 2.515 -4.8125 1.75 C-3 0 -3 0 0 0 Z " fill="#13ADC6" transform="translate(242,319)"/>
<path d="M0 0 C0.73828125 1.65625 0.73828125 1.65625 1 4 C-0.58203125 6.65625 -0.58203125 6.65625 -2.8125 9.5 C-5.20463396 12.58225403 -7.40718605 15.4267031 -9 19 C-9.99 18.67 -10.98 18.34 -12 18 C-11.34 18 -10.68 18 -10 18 C-9.89429688 17.43152344 -9.78859375 16.86304688 -9.6796875 16.27734375 C-8.88999259 13.63141196 -7.70136127 11.82508819 -6.125 9.5625 C-3.97390332 6.42893128 -1.90980057 3.28910099 0 0 Z " fill="#1EADC5" transform="translate(281,267)"/>
<path d="M0 0 C3.63 0 7.26 0 11 0 C11.33 1.32 11.66 2.64 12 4 C10.02 5.65 8.04 7.3 6 9 C7.12451727 6.0280615 8.22293791 3.66559313 10 1 C9.41992188 1.144375 8.83984375 1.28875 8.2421875 1.4375 C3.73340325 2.50889428 -0.33054247 3.23945936 -5 3 C-5 2.67 -5 2.34 -5 2 C-3.35 2 -1.7 2 0 2 C0 1.34 0 0.68 0 0 Z " fill="#22C6E3" transform="translate(203,215)"/>
<path d="M0 0 C0.99 0.99 1.98 1.98 3 3 C0.375 8.75 0.375 8.75 -3 11 C-2.67 9.35 -2.34 7.7 -2 6 C-2.66 6 -3.32 6 -4 6 C-4 5.01 -4 4.02 -4 3 C-2 1.3125 -2 1.3125 0 0 Z " fill="#D2E7EB" transform="translate(234,180)"/>
<path d="M0 0 C8.68727286 -0.76954189 15.2959062 0.91917985 23 5 C23.66 5.66 24.32 6.32 25 7 C20.82506317 6.6520886 17.85046633 6.05901977 14.1875 4 C9.61445257 1.5203122 5.13132687 1.21030028 0 1 C0 0.67 0 0.34 0 0 Z " fill="#61D5E7" transform="translate(199,146)"/>
<path d="M0 0 C0.66 0.33 1.32 0.66 2 1 C1.835 1.598125 1.67 2.19625 1.5 2.8125 C0.8885876 5.11344336 0.8885876 5.11344336 1 8 C-0.32 7.67 -1.64 7.34 -3 7 C-3 7.99 -3 8.98 -3 10 C-4.65 10.33 -6.3 10.66 -8 11 C-7.04454634 9.53977837 -6.08553322 8.08188532 -5.125 6.625 C-4.59132812 5.81289062 -4.05765625 5.00078125 -3.5078125 4.1640625 C-2 2 -2 2 0 0 Z " fill="#16BEDA" transform="translate(239,181)"/>
<path d="M0 0 C2.3125 0.25 2.3125 0.25 5 1 C5.474375 1.639375 5.94875 2.27875 6.4375 2.9375 C8.54626014 5.72106338 10.6966921 6.11911789 14 7 C13.67 7.66 13.34 8.32 13 9 C8.85935519 8.47788717 6.74547153 7.31033918 3.6875 4.5 C2.99011719 3.8709375 2.29273438 3.241875 1.57421875 2.59375 C0 1 0 1 0 0 Z " fill="#96E0F0" transform="translate(238,162)"/>
<path d="M0 0 C0.33 1.32 0.66 2.64 1 4 C4.3 4.33 7.6 4.66 11 5 C10.67 3.35 10.34 1.7 10 0 C12.55028983 1.27514492 12.93081711 2.40341297 14 5 C14 5.99 14 6.98 14 8 C9.38 7.01 4.76 6.02 0 5 C0 3.35 0 1.7 0 0 Z " fill="#ACE8F6" transform="translate(198,274)"/>
<path d="M0 0 C3.68725859 0.99655638 4.79351462 1.6582311 6.8125 5 C8 8 8 8 8 10 C8.66 10 9.32 10 10 10 C9.67 10.99 9.34 11.98 9 13 C5.27688802 10.51792535 3.58712201 7.97486493 2.3125 3.6875 C2.209375 3.130625 2.10625 2.57375 2 2 C1.34 2 0.68 2 0 2 C0 1.34 0 0.68 0 0 Z " fill="#78DCEE" transform="translate(240,299)"/>
<path d="M0 0 C1.65 0 3.3 0 5 0 C5 0.66 5 1.32 5 2 C5.66 2 6.32 2 7 2 C7 2.99 7 3.98 7 5 C4.03 4.67 1.06 4.34 -2 4 C-1.34 2.68 -0.68 1.36 0 0 Z " fill="#E4E6E7" transform="translate(202,274)"/>
<path d="M0 0 C0.66 0.33 1.32 0.66 2 1 C-0.23663711 4.41381454 -2.27407482 6.29903415 -6 8 C-8.99140061 8.52286666 -11.97060896 8.80860057 -15 9 C-12.92156354 6.92156354 -11.90302246 6.5076746 -9.1875 5.625 C-5.52700074 4.32482267 -2.90230988 2.63021833 0 0 Z " fill="#BBEDF2" transform="translate(233,340)"/>
<path d="M0 0 C1.66419723 0.71322738 3.3283389 1.42658471 4.9921875 2.140625 C6.28797998 2.69524435 7.5847866 3.24750304 8.8828125 3.796875 C11.97297699 5.10785387 15.02119001 6.45101881 18 8 C13.83861737 8.08159574 10.0527516 7.98248524 6 7 C5.67 6.01 5.34 5.02 5 4 C2.49552484 2.78130071 2.49552484 2.78130071 0 2 C0 1.34 0 0.68 0 0 Z " fill="#6FD4E7" transform="translate(276,331)"/>
<path d="M0 0 C3 1 3 1 5 3 C6.32 3.33 7.64 3.66 9 4 C5.04 5.98 1.08 7.96 -3 10 C-3 9.01 -3 8.02 -3 7 C-1.68 6.34 -0.36 5.68 1 5 C0.67 3.35 0.34 1.7 0 0 Z " fill="#CBE8F0" transform="translate(272,146)"/>
<path d="M0 0 C1.65 0 3.3 0 5 0 C5 0.66 5 1.32 5 2 C3.01399663 3.3540932 1.01182457 4.68457624 -1 6 C-2.36886951 7.29682374 -3.7169291 8.61823134 -5 10 C-5 8.68 -5 7.36 -5 6 C-4.34 6 -3.68 6 -3 6 C-3 5.01 -3 4.02 -3 3 C-2.01 3 -1.02 3 0 3 C0 2.01 0 1.02 0 0 Z " fill="#C7EAEE" transform="translate(146,224)"/>
<path d="M0 0 C1.32 0.33 2.64 0.66 4 1 C-1.01372252 4.52913975 -4.83543922 6.61471495 -11 7 C-11 6.34 -11 5.68 -11 5 C-9.35 5 -7.7 5 -6 5 C-6 4.34 -6 3.68 -6 3 C-4.02 2.67 -2.04 2.34 0 2 C0 1.34 0 0.68 0 0 Z " fill="#C1EAF5" transform="translate(220,330)"/>
<path d="M0 0 C0.66 0.33 1.32 0.66 2 1 C0.76238177 2.65516419 -0.49057455 4.29886798 -1.75 5.9375 C-2.44609375 6.85402344 -3.1421875 7.77054687 -3.859375 8.71484375 C-6.01029035 11.01098513 -6.93617261 11.67567593 -10 12 C-9.071875 10.88625 -9.071875 10.88625 -8.125 9.75 C-6.00729849 7.21436809 -6.00729849 7.21436809 -5 4.875 C-3.74952436 2.53035817 -2.18751764 1.45834509 0 0 Z " fill="#14A9C1" transform="translate(260,298)"/>
<path d="M0 0 C0.99 0 1.98 0 3 0 C3.53341184 1.57914015 4.05125763 3.16354387 4.5625 4.75 C4.85253906 5.63171875 5.14257812 6.5134375 5.44140625 7.421875 C6.01697435 10.07834316 5.89248371 11.47031106 5 14 C3.11608215 10.73454239 2.50712033 7.71888239 2 4 C1.01 4 0.02 4 -1 4 C-0.67 2.68 -0.34 1.36 0 0 Z " fill="#AAEBF8" transform="translate(296,264)"/>
<path d="M0 0 C3.63 0 7.26 0 11 0 C11.99 1.98 12.98 3.96 14 6 C9.27775484 4.46527032 4.64144669 2.76054874 0 1 C0 0.67 0 0.34 0 0 Z " fill="#CAE9EE" transform="translate(210,146)"/>
<path d="M0 0 C2.64 0.33 5.28 0.66 8 1 C8.33 1.99 8.66 2.98 9 4 C11.50447516 5.21869929 11.50447516 5.21869929 14 6 C14 6.66 14 7.32 14 8 C8.76481294 6.56032356 4.36973991 4.18303389 0 1 C0 0.67 0 0.34 0 0 Z " fill="#CCE8EC" transform="translate(157,261)"/>
<path d="M0 0 C3.11993835 0.62958397 5.43341776 1.68636476 8.125 3.375 C8.80820313 3.79523438 9.49140625 4.21546875 10.1953125 4.6484375 C12 6 12 6 14 9 C8.40440609 7.60110152 4.29704147 4.74082545 0 1 C0 0.67 0 0.34 0 0 Z " fill="#6CD9ED" transform="translate(224,153)"/>
<path d="M0 0 C0.66 0 1.32 0 2 0 C2.66 1.32 3.32 2.64 4 4 C5.65 3.67 7.3 3.34 9 3 C9 4.65 9 6.3 9 8 C8.01 8.33 7.02 8.66 6 9 C0.42857143 3.85714286 0.42857143 3.85714286 0 0 Z " fill="#959696" transform="translate(110,366)"/>
<path d="M0 0 C0.84051229 2.35343441 1.08353007 3.68444196 0.4375 6.125 C-1.59995095 8.78254472 -3.83141251 9.17341196 -7 10 C-6.02223933 8.51990357 -5.0427506 7.04094856 -4.0625 5.5625 C-3.51722656 4.73878906 -2.97195313 3.91507812 -2.41015625 3.06640625 C-1 1 -1 1 0 0 Z " fill="#BAEBF0" transform="translate(316,339)"/>
<path d="M0 0 C3.465 1.98 3.465 1.98 7 4 C6.67 4.99 6.34 5.98 6 7 C4.35 7 2.7 7 1 7 C0 2.25 0 2.25 0 0 Z " fill="#D0EBEF" transform="translate(257,334)"/>
<path d="M0 0 C1.30048841 2.60097682 1.56471422 5.13955062 2 8 C0.35 8.33 -1.3 8.66 -3 9 C-2.4140625 2.84765625 -2.4140625 2.84765625 -2 1 C-1.34 0.67 -0.68 0.34 0 0 Z " fill="#D1E9EF" transform="translate(310,237)"/>
<path d="M0 0 C0.66 0.33 1.32 0.66 2 1 C1.0409375 2.1446875 1.0409375 2.1446875 0.0625 3.3125 C-2.14232781 5.88246713 -2.14232781 5.88246713 -3 9 C-2.34 9 -1.68 9 -1 9 C-0.67 10.32 -0.34 11.64 0 13 C-3 12 -3 12 -5 9 C-4.74309434 5.14641513 -2.44365371 2.8377914 0 0 Z " fill="#96E6F3" transform="translate(264,173)"/>
<path d="M0 0 C1.50560497 2.85410334 2.63216796 5.68124642 3.625 8.75 C3.88539063 9.54921875 4.14578125 10.3484375 4.4140625 11.171875 C4.60742188 11.77515625 4.80078125 12.3784375 5 13 C4.01 12.67 3.02 12.34 2 12 C2 10.68 2 9.36 2 8 C1.01 8 0.02 8 -1 8 C-0.67 5.36 -0.34 2.72 0 0 Z " fill="#B9EAF4" transform="translate(189,232)"/>
<path d="M0 0 C0.66 0.33 1.32 0.66 2 1 C1.67 2.32 1.34 3.64 1 5 C-2.3 5.66 -5.6 6.32 -9 7 C-7.61423347 4.22846695 -5.65868859 3.51925062 -3 2 C-2.01 1.34 -1.02 0.68 0 0 Z " fill="#C0EBF5" transform="translate(275,166)"/>
<path d="M0 0 C2.58347022 1.29173511 2.94936092 2.34086037 4 5 C4.1953125 7.359375 4.1953125 7.359375 4.125 9.75 C4.10695313 10.54921875 4.08890625 11.3484375 4.0703125 12.171875 C4.03550781 13.07679688 4.03550781 13.07679688 4 14 C3.34 14 2.68 14 2 14 C1.34 9.38 0.68 4.76 0 0 Z " fill="#B4EFF6" transform="translate(317,162)"/>
<path d="M0 0 C1.31225809 3.93677426 0.3393954 5.7794262 -0.9375 9.6875 C-1.50791016 11.45673828 -1.50791016 11.45673828 -2.08984375 13.26171875 C-2.39019531 14.16535156 -2.69054687 15.06898438 -3 16 C-3.96661363 12.87819599 -3.98988909 10.47916205 -3.5625 7.25 C-3.46066406 6.45078125 -3.35882813 5.6515625 -3.25390625 4.828125 C-3.17011719 4.22484375 -3.08632813 3.6215625 -3 3 C-2.01 2.67 -1.02 2.34 0 2 C0 1.34 0 0.68 0 0 Z " fill="#8D8D8D" transform="translate(400,340)"/>
<path d="M0 0 C2.31 0.33 4.62 0.66 7 1 C2.25 5 2.25 5 0 5 C-0.66 6.32 -1.32 7.64 -2 9 C-2.33 7.68 -2.66 6.36 -3 5 C-1.68 4.67 -0.36 4.34 1 4 C0.67 2.68 0.34 1.36 0 0 Z " fill="#C5E9F1" transform="translate(255,160)"/>
<path d="M0 0 C0.33 0.99 0.66 1.98 1 3 C4.3 2.67 7.6 2.34 11 2 C8.41073669 4.58926331 6.97294721 4.37398043 3.375 4.625 C2.37210937 4.69976562 1.36921875 4.77453125 0.3359375 4.8515625 C-0.82035156 4.92503906 -0.82035156 4.92503906 -2 5 C-1.34 3.35 -0.68 1.7 0 0 Z " fill="#B5ECF6" transform="translate(290,276)"/>
<path d="M0 0 C0.99 0.33 1.98 0.66 3 1 C4.6875 4.5625 4.6875 4.5625 6 8 C4.68 7.67 3.36 7.34 2 7 C2.33 6.34 2.66 5.68 3 5 C1.68 4.67 0.36 4.34 -1 4 C-0.67 2.68 -0.34 1.36 0 0 Z " fill="#D9E9E8" transform="translate(139,263)"/>
<path d="M0 0 C0.66 0.33 1.32 0.66 2 1 C0.07423885 3.43929746 -1.80090595 5.80090595 -4 8 C-6.625 8.125 -6.625 8.125 -9 8 C-6.17493137 5.0702992 -3.21203935 2.49825283 0 0 Z " fill="#1FB7CD" transform="translate(154,222)"/>
<path d="M0 0 C0.66 0.33 1.32 0.66 2 1 C2.96070434 3.88211302 3.10581883 5.69850044 3.0625 8.6875 C3.05347656 9.49574219 3.04445313 10.30398437 3.03515625 11.13671875 C3.02355469 11.75160156 3.01195312 12.36648437 3 13 C2.67 13 2.34 13 2 13 C1.690625 12.05125 1.38125 11.1025 1.0625 10.125 C0.12605258 7.13919592 0.12605258 7.13919592 -1 5 C-0.72057545 3.32345271 -0.39171753 1.65391846 0 0 Z " fill="#1DD1F3" transform="translate(315,160)"/>
<path d="M0 0 C0.66 0.33 1.32 0.66 2 1 C2.625 3.0625 2.625 3.0625 3 5 C2.01 5.495 2.01 5.495 1 6 C0.01 5.67 -0.98 5.34 -2 5 C-2.99 5 -3.98 5 -5 5 C-5 4.34 -5 3.68 -5 3 C-2.625 1.3125 -2.625 1.3125 0 0 Z " fill="#F4F4F4" transform="translate(130,113)"/>
<path d="M0 0 C3.01217112 0.64449607 5.51655836 1.65022182 8.25 3.0625 C8.95640625 3.42472656 9.6628125 3.78695313 10.390625 4.16015625 C10.92171875 4.43730469 11.4528125 4.71445312 12 5 C9.44345185 5.95582656 8.39658231 6.17802782 5.859375 5.0390625 C5.16328125 4.57242187 4.4671875 4.10578125 3.75 3.625 C3.04359375 3.16351563 2.3371875 2.70203125 1.609375 2.2265625 C1.07828125 1.82179688 0.5471875 1.41703125 0 1 C0 0.67 0 0.34 0 0 Z " fill="#51DAF5" transform="translate(161,267)"/>
<path d="M0 0 C0.66 0 1.32 0 2 0 C4.31332486 3.46998729 4.33957563 4.92509248 4 9 C3.01 10.485 3.01 10.485 2 12 C1.34 11.67 0.68 11.34 0 11 C0.29296875 9.01432292 0.5859375 7.02864583 0.87890625 5.04296875 C1.13904799 2.7974658 1.13904799 2.7974658 0 0 Z " fill="#1EB9D3" transform="translate(351,242)"/>
<path d="M0 0 C0.33 0.66 0.66 1.32 1 2 C1.99 2 2.98 2 4 2 C3.67 3.65 3.34 5.3 3 7 C0.37812506 5.95125002 -0.79371361 5.35068687 -2.25 2.875 C-2.4975 2.25625 -2.745 1.6375 -3 1 C-2.01 0.67 -1.02 0.34 0 0 Z " fill="#D7E6EA" transform="translate(363,235)"/>
<path d="M0 0 C1.32 0 2.64 0 4 0 C4 0.66 4 1.32 4 2 C5.65 2.33 7.3 2.66 9 3 C9.33 3.99 9.66 4.98 10 6 C6.40992874 4.66654496 3.20429093 3.1056769 0 1 C0 0.67 0 0.34 0 0 Z " fill="#59DBF6" transform="translate(272,331)"/>
<path d="M0 0 C0.66 0 1.32 0 2 0 C2.33 0.99 2.66 1.98 3 3 C3.66 3.268125 4.32 3.53625 5 3.8125 C5.66 4.204375 6.32 4.59625 7 5 C7.75 8.125 7.75 8.125 8 11 C7.67 10.34 7.34 9.68 7 9 C6.34 9 5.68 9 5 9 C4.896875 8.360625 4.79375 7.72125 4.6875 7.0625 C4.3471875 6.0415625 4.3471875 6.0415625 4 5 C3.01 4.67 2.02 4.34 1 4 C0.3125 1.9375 0.3125 1.9375 0 0 Z " fill="#27CEEE" transform="translate(235,310)"/>
<path d="M0 0 C0.66 0 1.32 0 2 0 C2.33 1.98 2.66 3.96 3 6 C1.35 6.33 -0.3 6.66 -2 7 C-2 6.34 -2 5.68 -2 5 C-1.34 5 -0.68 5 0 5 C-0.2784375 4.0409375 -0.2784375 4.0409375 -0.5625 3.0625 C-0.7790625 2.0415625 -0.7790625 2.0415625 -1 1 C-0.67 0.67 -0.34 0.34 0 0 Z " fill="#EBE1ED" transform="translate(200,295)"/>
<path d="M0 0 C1.32 0 2.64 0 4 0 C5.89353366 1.89353366 7.4198632 3.84526801 9 6 C8.67 6.66 8.34 7.32 8 8 C6.66372225 6.85760183 5.33104612 5.71098945 4 4.5625 C3.2575 3.92441406 2.515 3.28632813 1.75 2.62890625 C1.1725 2.09136719 0.595 1.55382812 0 1 C0 0.67 0 0.34 0 0 Z " fill="#B8E5F0" transform="translate(304,147)"/>
<path d="M0 0 C0.99 0 1.98 0 3 0 C1.375 5.75 1.375 5.75 -2 8 C-2 6.35 -2 4.7 -2 3 C-1.34 3 -0.68 3 0 3 C0 2.01 0 1.02 0 0 Z " fill="#C3EBF2" transform="translate(254,299)"/>
<path d="M0 0 C0.66 0 1.32 0 2 0 C2.33 1.32 2.66 2.64 3 4 C2.01 4 1.02 4 0 4 C-0.66 5.98 -1.32 7.96 -2 10 C-2.6875 8.375 -2.6875 8.375 -3 6 C-1.5625 2.75 -1.5625 2.75 0 0 Z " fill="#A7EDFB" transform="translate(202,264)"/>
<path d="M0 0 C0 0.66 0 1.32 0 2 C-1.98 2 -3.96 2 -6 2 C-6.33 2.99 -6.66 3.98 -7 5 C-8.32 4.67 -9.64 4.34 -11 4 C-7.30030748 0.96096686 -4.76995305 0 0 0 Z " fill="#C1ECF9" transform="translate(288,161)"/>
<path d="M0 0 C0.33 0.99 0.66 1.98 1 3 C-1 5 -1 5 -3.1640625 5.1953125 C-4.38222656 5.16050781 -4.38222656 5.16050781 -5.625 5.125 C-6.44226563 5.10695313 -7.25953125 5.08890625 -8.1015625 5.0703125 C-8.72804688 5.04710937 -9.35453125 5.02390625 -10 5 C-10 4.67 -10 4.34 -10 4 C-7.69 4 -5.38 4 -3 4 C-3 3.34 -3 2.68 -3 2 C-2.01 1.34 -1.02 0.68 0 0 Z " fill="#27ADC3" transform="translate(304,334)"/>
<path d="M0 0 C0.33 1.32 0.66 2.64 1 4 C0.34 4 -0.32 4 -1 4 C-1.33 5.32 -1.66 6.64 -2 8 C-2.66 8 -3.32 8 -4 8 C-2.25 2.25 -2.25 2.25 0 0 Z " fill="#B8EAF3" transform="translate(216,235)"/>
<path d="M0 0 C0.66 0.33 1.32 0.66 2 1 C0.7260411 3.03833424 -0.61061923 5.03852126 -2 7 C-2.66 7 -3.32 7 -4 7 C-4.33 7.66 -4.66 8.32 -5 9 C-5 7.35 -5 5.7 -5 4 C-4.360625 3.71125 -3.72125 3.4225 -3.0625 3.125 C-0.84793921 2.17176549 -0.84793921 2.17176549 0 0 Z " fill="#2DCEED" transform="translate(223,220)"/>
<path d="M0 0 C2.64 0 5.28 0 8 0 C8 1.98 8 3.96 8 6 C7.62875 5.34 7.2575 4.68 6.875 4 C5.09105222 1.64696955 5.09105222 1.64696955 1.8125 1.75 C0.884375 1.8325 -0.04375 1.915 -1 2 C-0.67 1.34 -0.34 0.68 0 0 Z " fill="#45D2F1" transform="translate(181,222)"/>
<path d="M0 0 C3.3 0.33 6.6 0.66 10 1 C10 1.33 10 1.66 10 2 C9.030625 2.12375 8.06125 2.2475 7.0625 2.375 C6.051875 2.58125 5.04125 2.7875 4 3 C3.67 3.66 3.34 4.32 3 5 C2.67 4.01 2.34 3.02 2 2 C1.34 2 0.68 2 0 2 C0 1.34 0 0.68 0 0 Z " fill="#9AE9F6" transform="translate(286,216)"/>
<path d="M0 0 C0.66 0.33 1.32 0.66 2 1 C1.835 1.763125 1.67 2.52625 1.5 3.3125 C0.90854604 6.03596236 0.90854604 6.03596236 1 9 C-0.5625 7.8125 -0.5625 7.8125 -2 6 C-1.57894737 1.57894737 -1.57894737 1.57894737 0 0 Z " fill="#A1E1ED" transform="translate(262,314)"/>
<path d="M0 0 C4.875 3.625 4.875 3.625 6 7 C4.35 6.67 2.7 6.34 1 6 C0.67 4.02 0.34 2.04 0 0 Z " fill="#C3EDF1" transform="translate(227,303)"/>
<path d="M0 0 C1.32 0 2.64 0 4 0 C4 0.99 4 1.98 4 3 C3.34 3 2.68 3 2 3 C2 3.99 2 4.98 2 6 C1.34 6 0.68 6 0 6 C0 4.02 0 2.04 0 0 Z " fill="#E8E5E6" transform="translate(250,299)"/>
<path d="M0 0 C0.33 0 0.66 0 1 0 C1.125 2.375 1.125 2.375 1 5 C0.34 5.66 -0.32 6.32 -1 7 C-1.99 6.67 -2.98 6.34 -4 6 C-3.34 4.68 -2.68 3.36 -2 2 C-1.34 2 -0.68 2 0 2 C0 1.34 0 0.68 0 0 Z " fill="#06C2E8" transform="translate(353,252)"/>
<path d="M0 0 C0.75 1.5625 0.75 1.5625 1 4 C-0.13084437 6.50286409 -1.52139516 8.67007722 -3 11 C-3.75 9.4375 -3.75 9.4375 -4 7 C-2.86915563 4.49713591 -1.47860484 2.32992278 0 0 Z " fill="#26BBD6" transform="translate(208,224)"/>
<path d="M0 0 C-0.33 0.99 -0.66 1.98 -1 3 C-5.455 3.495 -5.455 3.495 -10 4 C-7.02096266 1.02096266 -4.19714671 0 0 0 Z " fill="#666666" transform="translate(150,102)"/>
<path d="M0 0 C0.0825 0.61875 0.165 1.2375 0.25 1.875 C0.81258459 4.18437567 0.81258459 4.18437567 3.0625 5.25 C3.701875 5.4975 4.34125 5.745 5 6 C2 6 2 6 -0.6875 3.5 C-1.450625 2.675 -2.21375 1.85 -3 1 C-2.01 0.67 -1.02 0.34 0 0 Z " fill="#8C8C8C" transform="translate(121,376)"/>
<path d="M0 0 C2.31 0 4.62 0 7 0 C5.8125 1.5625 5.8125 1.5625 4 3 C1.3125 2.6875 1.3125 2.6875 -1 2 C-0.67 1.34 -0.34 0.68 0 0 Z " fill="#10C3E7" transform="translate(295,339)"/>
<path d="M0 0 C0.66 0 1.32 0 2 0 C3.6875 2.3125 3.6875 2.3125 5 5 C4.67 5.99 4.34 6.98 4 8 C0 2.25 0 2.25 0 0 Z " fill="#77DAF0" transform="translate(222,274)"/>
<path d="M0 0 C2.97 0.495 2.97 0.495 6 1 C4.75 2.5625 4.75 2.5625 3 4 C0.8125 3.6875 0.8125 3.6875 -1 3 C-0.67 2.01 -0.34 1.02 0 0 Z " fill="#D5D5D5" transform="translate(340,99)"/>
</svg>
