<?xml version="1.0" encoding="UTF-8"?>
<svg version="1.1" xmlns="http://www.w3.org/2000/svg" width="225" height="225">
<path d="M0 0 C1.74376923 -0.01292336 1.74376923 -0.01292336 3.52276611 -0.02610779 C7.33385006 -0.04865625 11.14419202 -0.04204882 14.95532227 -0.03295898 C16.94826443 -0.03687292 18.94120697 -0.0407997 20.93414551 -0.04625839 C27.19006717 -0.06318983 33.44574452 -0.05976037 39.70166016 -0.04296875 C46.12356325 -0.02605287 52.54478627 -0.04188918 58.96661514 -0.07419163 C64.51097827 -0.10100834 70.05513129 -0.10813126 75.59955269 -0.09967655 C78.89753812 -0.09478233 82.19502907 -0.09891614 85.49297905 -0.11746407 C89.17550217 -0.13500218 92.85659526 -0.12028784 96.5390625 -0.09765625 C97.61007706 -0.10934845 98.68109161 -0.12104065 99.78456116 -0.13308716 C111.4156654 0.01138897 121.44058424 4.50692063 129.83422852 12.53344727 C136.42101557 19.73912706 140.92469103 28.63444118 140.98812866 38.48937988 C140.99672913 39.48723511 141.00532959 40.48509033 141.01419067 41.51318359 C141.0205806 43.14646606 141.0205806 43.14646606 141.02709961 44.81274414 C141.03936584 46.54034973 141.03936584 46.54034973 141.05187988 48.30285645 C141.07671594 52.11929813 141.09324807 55.93570258 141.10766602 59.75219727 C141.11298969 61.05745865 141.11831337 62.36272003 141.12379837 63.70753479 C141.14542319 69.19781293 141.1641542 74.68808821 141.17542076 80.17839813 C141.19162229 88.01967846 141.22471109 95.86046036 141.28182161 103.70155287 C141.32069022 109.22873904 141.34007366 114.75579291 141.34534132 120.28311205 C141.34897365 123.57681054 141.36331607 126.86985887 141.39344406 130.16343689 C141.42522634 133.84900205 141.42511148 137.5333267 141.41772461 141.21899414 C141.43412994 142.29165527 141.45053528 143.36431641 141.46743774 144.46948242 C141.3725135 156.11367683 136.86668734 166.13359947 128.83422852 174.53344727 C121.64438386 181.10575925 112.74790797 185.63170547 102.90953064 185.68061829 C101.42320129 185.69135124 101.42320129 185.69135124 99.90684509 185.70230103 C98.28523216 185.70633438 98.28523216 185.70633438 96.63085938 185.71044922 C95.48726959 185.71702042 94.34367981 185.72359161 93.16543579 185.73036194 C89.37664727 185.75008902 85.58789843 185.76175762 81.79907227 185.77172852 C80.50359529 185.77580404 79.20811832 185.77987957 77.87338448 185.7840786 C71.72083214 185.80278864 65.56829962 185.81735307 59.41572469 185.82569057 C52.33637981 185.83544449 45.25734913 185.8617181 38.17811483 185.90219146 C32.02932339 185.93612642 25.88066277 185.94784686 19.73178291 185.95189476 C17.12560461 185.95675479 14.51942951 185.96835196 11.91331291 185.98693275 C8.25641041 186.01138022 4.60031924 186.01034807 0.94335938 186.00341797 C-0.1235463 186.01622803 -1.19045197 186.02903809 -2.28968811 186.04223633 C-14.0943258 185.96112885 -24.55898738 181.83932833 -33.13842773 173.65063477 C-43.31983539 162.62618062 -45.3275564 149.96143653 -45.29516602 135.43652344 C-45.29691833 134.45816025 -45.29867065 133.47979706 -45.30047607 132.4717865 C-45.30485569 129.25664464 -45.30196963 126.04155838 -45.29858398 122.82641602 C-45.2992583 120.57733652 -45.3002294 118.3282571 -45.30148315 116.07917786 C-45.302955 111.37113754 -45.30082266 106.66311623 -45.29614258 101.95507812 C-45.29045549 95.94331689 -45.29372111 89.9316004 -45.29971504 83.91984081 C-45.30334292 79.27594165 -45.30217168 74.63205295 -45.29958725 69.98815346 C-45.29892362 67.77274889 -45.29972652 65.55734335 -45.3020668 63.34193993 C-45.3046289 60.23411959 -45.30070259 57.12636982 -45.29516602 54.01855469 C-45.29719025 53.11689575 -45.29921448 52.21523682 -45.30130005 51.28625488 C-45.25280704 36.46566702 -43.81896549 23.67644329 -33.16577148 12.53344727 C-23.35723545 3.12662602 -13.45069694 -0.08180284 0 0 Z " fill="#F8F9FB" transform="translate(64.165771484375,19.466552734375)"/>
<path d="M0 0 C6.03158221 3.40360085 11.00575985 8.10878387 16.09765625 12.75 C17.26554687 13.81154297 17.26554687 13.81154297 18.45703125 14.89453125 C19.13507813 15.53261719 19.813125 16.17070313 20.51171875 16.828125 C25.45483683 20.717333 30.46172839 20.99314951 36.56640625 20.91796875 C41.37587834 20.18284219 44.11483588 17.68194068 47.58203125 14.45703125 C48.57203125 13.79703125 49.56203125 13.13703125 50.58203125 12.45703125 C48.32392955 21.01404822 44.2956532 28.65744426 36.58203125 33.45703125 C26.57976155 38.58274953 14.91212069 39.11881852 4.08203125 36.33203125 C-3.2073605 33.69570123 -8.08132672 28.84997029 -13.35546875 23.33203125 C-18.46080897 18.17221332 -22.76926057 14.82333347 -30.14453125 14.2421875 C-37.24400371 14.46710192 -41.20350833 16.85680552 -46.41796875 21.45703125 C-47.07796875 21.78703125 -47.73796875 22.11703125 -48.41796875 22.45703125 C-46.79941618 14.38112834 -43.72864745 8.8253435 -37.41796875 3.45703125 C-26.17185934 -3.51356023 -12.38493425 -5.2547772 0 0 Z " fill="#37B0D6" transform="translate(128.41796875,56.54296875)"/>
<path d="M0 0 C4.71276359 2.85206081 8.50852696 6.61369353 12.4140625 10.4609375 C13.86128265 11.78568133 15.31876326 13.0993561 16.7890625 14.3984375 C17.39492187 14.94371094 18.00078125 15.48898438 18.625 16.05078125 C24.31823952 20.53824733 30.41293213 20.1695885 37.4140625 19.4609375 C40.28073646 18.45760161 41.92771761 17.31247093 44.4140625 15.4609375 C45.2184375 14.8834375 46.0228125 14.3059375 46.8515625 13.7109375 C47.3671875 13.2984375 47.8828125 12.8859375 48.4140625 12.4609375 C48.06355095 19.29591271 44.36893151 24.6461963 39.51953125 29.265625 C32.04103807 35.19531782 24.83943728 36.97687743 15.4765625 36.8984375 C14.21295898 36.9284082 14.21295898 36.9284082 12.92382812 36.95898438 C2.97355006 36.95132442 -5.2548075 32.6521574 -12.3671875 25.76953125 C-14.18098807 23.8540953 -15.99348704 21.93742599 -17.8046875 20.01953125 C-23.51898249 14.76270089 -28.22033881 13.97787813 -35.7421875 14.1640625 C-39.2417372 14.52940011 -41.64452659 15.54902041 -44.5859375 17.4609375 C-45.3490625 17.7909375 -46.1121875 18.1209375 -46.8984375 18.4609375 C-48.93596848 19.41947956 -48.93596848 19.41947956 -49.5859375 22.4609375 C-50.81497137 18.77383588 -50.26967437 18.09945794 -48.5859375 14.7109375 C-39.37502283 -2.69591501 -17.73055329 -7.73996289 0 0 Z " fill="#30B6E3" transform="translate(96.5859375,97.5390625)"/>
<path d="M0 0 C1.23492187 -0.01417969 2.46984375 -0.02835938 3.7421875 -0.04296875 C6.95247464 0.17574596 8.40477984 0.65363137 11.125 2.1875 C12.28 2.249375 13.435 2.31125 14.625 2.375 C18.125 3.1875 18.125 3.1875 19.46484375 4.734375 C22.125 9.31628114 22.125 9.31628114 22.125 12.1875 C22.681875 12.249375 23.23875 12.31125 23.8125 12.375 C27.08265706 13.5239741 28.75546369 15.69948688 31.125 18.1875 C33.10248444 19.76948755 34.86473609 21.05736804 37.125 22.1875 C37.125 22.8475 37.125 23.5075 37.125 24.1875 C37.90875 24.125625 38.6925 24.06375 39.5 24 C40.799375 24.0928125 40.799375 24.0928125 42.125 24.1875 C42.785 25.1775 43.445 26.1675 44.125 27.1875 C43.155625 27.47625 42.18625 27.765 41.1875 28.0625 C38.01835797 28.82964682 38.01835797 28.82964682 37.125 31.1875 C37.785 31.5175 38.445 31.8475 39.125 32.1875 C38.08859375 32.1153125 37.0521875 32.043125 35.984375 31.96875 C34.6145882 31.87492899 33.24479626 31.78118292 31.875 31.6875 C30.85212891 31.61595703 30.85212891 31.61595703 29.80859375 31.54296875 C26.56768497 31.32271281 23.3756634 31.1875 20.125 31.1875 C20.125 29.8675 20.125 28.5475 20.125 27.1875 C17.155 26.8575 14.185 26.5275 11.125 26.1875 C11.125 25.5275 11.125 24.8675 11.125 24.1875 C10.135 23.8575 9.145 23.5275 8.125 23.1875 C7.465 22.8575 6.805 22.5275 6.125 22.1875 C6.125 21.1975 6.125 20.2075 6.125 19.1875 C5.135 19.5175 4.145 19.8475 3.125 20.1875 C2.50625 19.548125 1.8875 18.90875 1.25 18.25 C-0.70097612 16.14866416 -0.70097612 16.14866416 -2.875 15.1875 C-3.28229228 12.86593403 -3.61938677 10.5306213 -3.875 8.1875 C-4.535 8.1875 -5.195 8.1875 -5.875 8.1875 C-5.875 7.5275 -5.875 6.8675 -5.875 6.1875 C-6.865 6.5175 -7.855 6.8475 -8.875 7.1875 C-9.535 6.5275 -10.195 5.8675 -10.875 5.1875 C-8.36235418 -0.37621574 -5.90886915 0.03071138 0 0 Z " fill="#5CD0F8" transform="translate(114.875,57.8125)"/>
<path d="M0 0 C8.26524777 0.00462624 17.12899846 0.0782921 23.5625 5.8125 C24.26375 6.616875 24.965 7.42125 25.6875 8.25 C28.85451423 9.58563611 28.85451423 9.58563611 31.6875 10.25 C31.3575 11.24 31.0275 12.23 30.6875 13.25 C33.1625 13.745 33.1625 13.745 35.6875 14.25 C35.6875 15.24 35.6875 16.23 35.6875 17.25 C39.27502742 19.11551426 42.96562193 20.67535928 46.6875 22.25 C46.6875 22.91 46.6875 23.57 46.6875 24.25 C48.0075 24.25 49.3275 24.25 50.6875 24.25 C50.38873405 27.13807083 49.9068272 28.07055047 47.625 29.9375 C43.85842217 31.62043903 40.80387403 31.97557506 36.6875 32.25 C36.3575 31.92 36.0275 31.59 35.6875 31.25 C34.1096875 31.2809375 34.1096875 31.2809375 32.5 31.3125 C28.71296322 31.25041743 26.12551555 30.80529275 22.6875 29.25 C22.3575 28.26 22.0275 27.27 21.6875 26.25 C20.04198038 25.53272222 18.37327711 24.86674772 16.6875 24.25 C14.6875 22.25 14.6875 22.25 13.9375 19.25 C13.525 18.26 13.1125 17.27 12.6875 16.25 C10.70026732 15.54618843 8.69972047 14.8788189 6.6875 14.25 C6.378125 13.425 6.06875 12.6 5.75 11.75 C4.881415 8.89362659 4.881415 8.89362659 1.5 7.9375 C-2.20494845 7.26939454 -5.55774634 7.09674475 -9.3125 7.25 C-8.21535475 -0.1165467 -7.1150152 0.02835959 0 0 Z " fill="#5BCFF8" transform="translate(73.3125,97.75)"/>
<path d="M0 0 C0.66 0.33 1.32 0.66 2 1 C2 1.99 2 2.98 2 4 C3.32 4.33 4.64 4.66 6 5 C6.33 6.98 6.66 8.96 7 11 C7.66 11 8.32 11 9 11 C10.4783226 13.95664519 10.06032783 16.74229737 10 20 C14.53140653 20.93380961 14.53140653 20.93380961 19 20 C19.99 20.33 20.98 20.66 22 21 C22.103125 21.763125 22.20625 22.52625 22.3125 23.3125 C23.05657891 26.22117209 23.48017068 27.38010972 26 29 C26.65452148 28.86094238 27.30904297 28.72188477 27.98339844 28.57861328 C32.32819004 27.74524034 36.60153966 27.85758273 41.015625 27.8671875 C41.98602722 27.86623077 42.95642944 27.86527405 43.95623779 27.86428833 C46.00712143 27.86360889 48.05800724 27.86544672 50.10888672 27.86962891 C53.22498498 27.87495723 56.34093759 27.8696879 59.45703125 27.86328125 C61.45572948 27.86394253 63.45442762 27.86522471 65.453125 27.8671875 C66.83639984 27.86415115 66.83639984 27.86415115 68.24761963 27.86105347 C73.19591433 27.87869575 77.98172728 28.18340125 82.89065552 28.78881836 C86.17690691 29.11782861 89.41011369 29.00089074 92.70703125 28.87890625 C94.17944244 28.82996893 95.65185459 28.7810607 97.12426758 28.73217773 C97.88865143 28.70437225 98.65303528 28.67656677 99.44058228 28.6479187 C113.73289715 28.13321663 128.01124903 27.90256725 142.3125 27.9375 C143.10878815 27.9393631 143.90507629 27.9412262 144.72549438 27.94314575 C149.15037617 27.95504075 153.5751745 27.97416102 158 28 C158.33 28.66 158.66 29.32 159 30 C151.99725538 32.8915058 145.75349033 33.43591486 138.22900391 33.40405273 C137.08468399 33.41091599 135.94036407 33.41777924 134.7613678 33.42485046 C130.9996378 33.44306791 127.23832691 33.43928774 123.4765625 33.43359375 C120.84776678 33.43815814 118.21897225 33.44346448 115.59017944 33.44947815 C110.08774855 33.45948373 104.58543536 33.45623311 99.08300781 33.44604492 C92.74755978 33.43457261 86.41253552 33.44863315 80.07714331 33.4754414 C73.95233293 33.50037582 67.82771625 33.50275825 61.70286179 33.49632454 C59.11065339 33.49617168 56.51843669 33.50218644 53.92625809 33.51461601 C50.29378474 33.52958021 46.66223078 33.51880746 43.02978516 33.50170898 C41.97073471 33.51137695 40.91168427 33.52104492 39.82054138 33.53100586 C28.04540922 33.41559988 17.58525964 29.28533693 9.02734375 21.1171875 C3.68552408 15.33305155 -0.4127282 9.02604794 -1 1 C-0.67 0.67 -0.34 0.34 0 0 Z " fill="#CED4EC" transform="translate(22,172)"/>
<path d="M0 0 C8.55473846 0.85547385 13.70888674 4.43377767 19.5 10.4375 C25.90936601 17.02765696 30.05604929 21.19394889 39.5625 21.5625 C45.25356911 21.33854589 48.45947323 20.38124334 53 17 C53.804375 16.4225 54.60875 15.845 55.4375 15.25 C55.953125 14.8375 56.46875 14.425 57 14 C56.64948845 20.83497521 52.95486901 26.1852588 48.10546875 30.8046875 C40.73169764 36.65134625 33.81088282 38.48320393 24.5 38.1875 C23.67757812 38.17396484 22.85515625 38.16042969 22.0078125 38.14648438 C20.00491779 38.11155016 18.00236644 38.05776057 16 38 C16 37.34 16 36.68 16 36 C18.54046458 35.49311395 21.08208876 34.99433126 23.625 34.5 C24.33785156 34.35691406 25.05070312 34.21382812 25.78515625 34.06640625 C29.92144935 33.26950574 33.76433679 32.83965944 38 33 C38 32.34 38 31.68 38 31 C38.969375 30.731875 39.93875 30.46375 40.9375 30.1875 C41.948125 29.795625 42.95875 29.40375 44 29 C44.495 27.515 44.495 27.515 45 26 C44.154375 26.185625 43.30875 26.37125 42.4375 26.5625 C38.7226718 27.03529632 35.67025727 26.66064631 32 26 C32 25.34 32 24.68 32 24 C31.113125 23.9175 30.22625 23.835 29.3125 23.75 C25.5400395 22.895858 23.71852438 21.71852438 21 19 C21 18.01 21 17.02 21 16 C20.34 16 19.68 16 19 16 C18.95875 15.401875 18.9175 14.80375 18.875 14.1875 C17.56974595 10.92436489 15.07310023 10.50519195 12 9 C11.71125 8.319375 11.4225 7.63875 11.125 6.9375 C10.19475785 4.83982465 10.19475785 4.83982465 8.1796875 4.40625 C6.75185775 4.09918984 5.31631215 3.82564666 3.875 3.58984375 C2 3 2 3 0 0 Z " fill="#41C1EB" transform="translate(88,96)"/>
<path d="M0 0 C4.84216179 2.68912914 8.50840106 6.14315039 12.5 9.94140625 C14.98348545 11.9864013 16.9991233 12.92896341 20 14 C20.99 14.66 21.98 15.32 23 16 C25.28648848 16.24107326 25.28648848 16.24107326 27.6875 16.125 C28.49574219 16.10695313 29.30398437 16.08890625 30.13671875 16.0703125 C30.75160156 16.04710938 31.36648437 16.02390625 32 16 C32.66 17.32 33.32 18.64 34 20 C31.48780847 23.7682873 29.10318974 24.28412065 25 26 C24.67 26.66 24.34 27.32 24 28 C20.28400809 28.20086443 19.22791555 28.1519437 16 26 C16.33 25.01 16.66 24.02 17 23 C18.65 22.67 20.3 22.34 22 22 C19.8614515 19.8614515 18.86724686 19.57344937 16 19 C16 18.34 16 17.68 16 17 C15.071875 16.773125 14.14375 16.54625 13.1875 16.3125 C9.367962 14.73974906 9.02407118 13.45778826 7 10 C5.989375 9.525625 4.97875 9.05125 3.9375 8.5625 C1 7 1 7 -0.375 3.8125 C-0.58125 2.884375 -0.7875 1.95625 -1 1 C-0.67 0.67 -0.34 0.34 0 0 Z " fill="#3EBFEB" transform="translate(136,63)"/>
<path d="M0 0 C0.87914063 0.00902344 1.75828125 0.01804687 2.6640625 0.02734375 C4.8178271 0.05075423 6.97145014 0.0866199 9.125 0.125 C9.125 0.785 9.125 1.445 9.125 2.125 C10.77817835 2.67605945 12.43361616 3.22094601 14.09765625 3.73828125 C19.86856022 5.66910707 19.86856022 5.66910707 21.25 8.125 C21.53875 8.785 21.8275 9.445 22.125 10.125 C24.10022846 11.17308041 26.09981509 12.1770411 28.125 13.125 C28.62 14.115 28.62 14.115 29.125 15.125 C28.465 15.785 27.805 16.445 27.125 17.125 C26.465 16.795 25.805 16.465 25.125 16.125 C25.125 15.465 25.125 14.805 25.125 14.125 C23.145 13.135 21.165 12.145 19.125 11.125 C19.125 10.465 19.125 9.805 19.125 9.125 C18.135 8.795 17.145 8.465 16.125 8.125 C15.031875 7.63 13.93875 7.135 12.8125 6.625 C6.7810028 4.17150961 1.15717113 3.98718967 -5.25 4.0625 C-6.35408203 4.06926758 -6.35408203 4.06926758 -7.48046875 4.07617188 C-9.27868158 4.08784858 -11.07685197 4.10577989 -12.875 4.125 C-12.875 5.115 -12.875 6.105 -12.875 7.125 C-13.865 7.62 -13.865 7.62 -14.875 8.125 C-12.32670177 8.8385235 -10.10294647 9.18114935 -7.4375 9.375 C-3.13282842 10.28124665 -1.59884207 11.74083258 1.125 15.125 C1.125 15.785 1.125 16.445 1.125 17.125 C2.115 17.455 3.105 17.785 4.125 18.125 C2.3125 18.75 2.3125 18.75 0.125 19.125 C-0.865 18.465 -1.855 17.805 -2.875 17.125 C-2.875 15.805 -2.875 14.485 -2.875 13.125 C-3.679375 13.145625 -4.48375 13.16625 -5.3125 13.1875 C-7.875 13.125 -7.875 13.125 -8.875 12.125 C-10.8701727 11.86755836 -12.86612677 11.61300166 -14.8671875 11.40625 C-16.875 11.125 -16.875 11.125 -19.875 10.125 C-17.05865257 2.68179607 -17.05865257 2.68179607 -13.3671875 0.9453125 C-8.84708487 -0.11645657 -4.62281202 -0.09050686 0 0 Z " fill="#42BCE3" transform="translate(78.875,94.875)"/>
<path d="M0 0 C3.5 0.25 3.5 0.25 5.5 2.25 C6.49 1.59 7.48 0.93 8.5 0.25 C11.6875 0.125 11.6875 0.125 14.5 0.25 C14.5 1.24 14.5 2.23 14.5 3.25 C12.025 2.755 12.025 2.755 9.5 2.25 C10.89195915 5.0339183 12.65575779 5.22898997 15.5 6.25 C14.625 11.125 14.625 11.125 13.5 12.25 C9.77775401 12.54386153 8.72213757 12.39809171 5.5 10.25 C5.17 11.24 4.84 12.23 4.5 13.25 C0.74850024 12.9614231 -1.84903797 12.68939937 -5 10.5625 C-6.5 8.25 -6.5 8.25 -6.375 5.125 C-5.09928181 0.93335451 -4.42157608 0.31582686 0 0 Z " fill="#E9E9EB" transform="translate(145.5,158.75)"/>
<path d="M0 0 C3.06795873 1.69061811 5.02731679 3.50225641 7.21875 6.22265625 C6.55875 6.55265625 5.89875 6.88265625 5.21875 7.22265625 C4.868125 6.74828125 4.5175 6.27390625 4.15625 5.78515625 C1.38011297 3.54633607 -1.29579177 3.60288806 -4.78125 3.22265625 C-5.44125 2.89265625 -6.10125 2.56265625 -6.78125 2.22265625 C-9.49885108 2.15083804 -12.18984388 2.12966119 -14.90625 2.16015625 C-16.03740234 2.16692383 -16.03740234 2.16692383 -17.19140625 2.17382812 C-19.05472127 2.18562126 -20.91799555 2.20355683 -22.78125 2.22265625 C-23.11125 3.54265625 -23.44125 4.86265625 -23.78125 6.22265625 C-22.46125 6.55265625 -21.14125 6.88265625 -19.78125 7.22265625 C-19.78125 7.88265625 -19.78125 8.54265625 -19.78125 9.22265625 C-19.12125 9.22265625 -18.46125 9.22265625 -17.78125 9.22265625 C-17.45125 10.54265625 -17.12125 11.86265625 -16.78125 13.22265625 C-19.09125 12.56265625 -21.40125 11.90265625 -23.78125 11.22265625 C-23.78125 10.56265625 -23.78125 9.90265625 -23.78125 9.22265625 C-25.43125 9.22265625 -27.08125 9.22265625 -28.78125 9.22265625 C-29.44125 7.90265625 -30.10125 6.58265625 -30.78125 5.22265625 C-30.12125 5.22265625 -29.46125 5.22265625 -28.78125 5.22265625 C-28.78125 4.56265625 -28.78125 3.90265625 -28.78125 3.22265625 C-30.10125 2.89265625 -31.42125 2.56265625 -32.78125 2.22265625 C-30.80125 1.56265625 -28.82125 0.90265625 -26.78125 0.22265625 C-27.11125 -0.43734375 -27.44125 -1.09734375 -27.78125 -1.77734375 C-19.14480313 -4.65615937 -8.25925028 -3.47037775 0 0 Z " fill="#4AC5F1" transform="translate(128.78125,56.77734375)"/>
<path d="M0 0 C0.66 0.33 1.32 0.66 2 1 C0.02 3.97 0.02 3.97 -2 7 C-1.01 7 -0.02 7 1 7 C1 7.66 1 8.32 1 9 C3.97 9.66 6.94 10.32 10 11 C10 11.66 10 12.32 10 13 C10.66 13.33 11.32 13.66 12 14 C10.98679687 13.96519531 9.97359375 13.93039063 8.9296875 13.89453125 C7.5781417 13.86637405 6.22657781 13.83907597 4.875 13.8125 C4.20984375 13.78736328 3.5446875 13.76222656 2.859375 13.73632812 C-1.89304459 13.6664396 -4.92444689 14.61709192 -9 17 C-9.763125 17.33 -10.52625 17.66 -11.3125 18 C-13.35003098 18.95854206 -13.35003098 18.95854206 -14 22 C-15.22903387 18.31289838 -14.68373687 17.63852044 -13 14.25 C-9.80494503 8.14548156 -5.7094434 3.8062956 0 0 Z " fill="#3AB1DB" transform="translate(61,98)"/>
<path d="M0 0 C0.99 0 1.98 0 3 0 C3 5.28 3 10.56 3 16 C1.39125 16.04125 -0.2175 16.0825 -1.875 16.125 C-2.77992188 16.14820313 -3.68484375 16.17140625 -4.6171875 16.1953125 C-7 16 -7 16 -9 14 C-9.25 10.5 -9.25 10.5 -9 7 C-7 5 -7 5 -3.875 4.875 C-2.92625 4.91625 -1.9775 4.9575 -1 5 C-0.67 3.35 -0.34 1.7 0 0 Z " fill="#313136" transform="translate(134,154)"/>
<path d="M0 0 C0.66 0.33 1.32 0.66 2 1 C2 1.99 2 2.98 2 4 C3.32 4.33 4.64 4.66 6 5 C6.33 6.98 6.66 8.96 7 11 C7.66 11 8.32 11 9 11 C10.4783226 13.95664519 10.06032783 16.74229737 10 20 C10.721875 20.0825 11.44375 20.165 12.1875 20.25 C16.40344128 21.37425101 19.11167108 23.47715043 21.3125 27.25 C21.6528125 28.11625 21.6528125 28.11625 22 29 C14.42909022 27.44699287 8.68027339 21.48653754 4.125 15.5 C1.52495334 11.55479031 -1.49254863 6.56573059 -0.5703125 1.76171875 C-0.38210937 1.18035156 -0.19390625 0.59898437 0 0 Z " fill="#DFE1F3" transform="translate(22,172)"/>
<path d="M0 0 C2.57161458 0.03255208 5.14322917 0.06510417 7.71484375 0.09765625 C7.71484375 3.72765625 7.71484375 7.35765625 7.71484375 11.09765625 C0.47881891 12.54486122 0.47881891 12.54486122 -2.84765625 10.59765625 C-4.85500435 7.10661608 -4.22341133 4.92285002 -3.28515625 1.09765625 C-2.28515625 0.09765625 -2.28515625 0.09765625 0 0 Z " fill="#202022" transform="translate(66.28515625,158.90234375)"/>
<path d="M0 0 C0.763125 0.474375 1.52625 0.94875 2.3125 1.4375 C4.96410548 3.10106097 4.96410548 3.10106097 8 4 C8 4.99 8 5.98 8 7 C8.99 7.33 9.98 7.66 11 8 C11.66 8.33 12.32 8.66 13 9 C13 9.66 13 10.32 13 11 C14.670625 10.9690625 14.670625 10.9690625 16.375 10.9375 C20 11 20 11 22 12 C22 13.32 22 14.64 22 16 C22.56847656 15.91621094 23.13695312 15.83242187 23.72265625 15.74609375 C28.76635545 15.08089803 33.00294069 15.0431163 38 16 C33.12041724 19.25305518 27.71030755 18.45952771 22 18 C19.12597324 17.25065121 16.73160739 16.21946758 14 15 C12.34327363 14.62033354 10.67929755 14.26239024 9 14 C9.33 13.34 9.66 12.68 10 12 C9.175 11.38125 8.35 10.7625 7.5 10.125 C6.675 9.42375 5.85 8.7225 5 8 C5 7.34 5 6.68 5 6 C4.360625 5.7525 3.72125 5.505 3.0625 5.25 C1 4 1 4 0.25 1.875 C0.1675 1.25625 0.085 0.6375 0 0 Z " fill="#3ABEEA" transform="translate(113,73)"/>
<path d="M0 0 C0.33 0 0.66 0 1 0 C1 18.48 1 36.96 1 56 C0.34 56 -0.32 56 -1 56 C-1.66 43.13 -2.32 30.26 -3 17 C-2.34 16.67 -1.68 16.34 -1 16 C-0.68758545 13.28553021 -0.48663408 10.66090639 -0.375 7.9375 C-0.33632812 7.17888672 -0.29765625 6.42027344 -0.2578125 5.63867188 C-0.16326438 3.75952805 -0.08053244 1.87979664 0 0 Z " fill="#E5E9F6" transform="translate(204,104)"/>
<path d="M0 0 C0.99 0.99 1.98 1.98 3 3 C3.66 2.67 4.32 2.34 5 2 C9.66854952 1.79169202 14.32910735 1.90279632 19 2 C19.85722656 1.99355469 20.71445313 1.98710938 21.59765625 1.98046875 C23.6875 2.0625 23.6875 2.0625 27 3 C28.6875 6.25 28.6875 6.25 30 10 C32.37505218 12.70848923 32.37505218 12.70848923 35 15 C36.33333333 16.33333333 37.66666667 17.66666667 39 19 C34.79516543 18.5092756 33.07786564 16.22895689 30.3125 13.1875 C25.11022689 7.87874761 20.83268552 4.380799 13.2734375 3.78515625 C6.17396504 4.01007067 2.21446042 6.39977427 -3 11 C-3.99 11.495 -3.99 11.495 -5 12 C-4.54965877 10.37276701 -4.08944646 8.74826336 -3.625 7.125 C-3.36976562 6.22007813 -3.11453125 5.31515625 -2.8515625 4.3828125 C-2 2 -2 2 0 0 Z " fill="#35ACCE" transform="translate(85,67)"/>
<path d="M0 0 C0.84933105 0.00016113 1.69866211 0.00032227 2.57373047 0.00048828 C8.83461841 0.11432261 14.52652252 0.8351864 19.875 4.375 C20.37 5.365 20.37 5.365 20.875 6.375 C20.30136719 6.1584375 19.72773437 5.941875 19.13671875 5.71875 C9.21838 2.46782258 -4.36319178 0.92317042 -14.3125 4.9375 C-18.74812643 7.40470586 -22.49749073 10.85621716 -26.125 14.375 C-26.785 13.055 -27.445 11.735 -28.125 10.375 C-26.805 10.045 -25.485 9.715 -24.125 9.375 C-24.455 8.055 -24.785 6.735 -25.125 5.375 C-21.90237087 4.30079029 -18.70428722 3.64223381 -15.37890625 2.97265625 C-13.1227147 2.46867954 -13.1227147 2.46867954 -11.24633789 1.35864258 C-7.63107004 -0.31771997 -3.92832461 -0.00684245 0 0 Z " fill="#D2F6FC" transform="translate(78.125,92.625)"/>
<path d="M0 0 C0.33 0.66 0.66 1.32 1 2 C2.32 1.67 3.64 1.34 5 1 C4.67 2.32 4.34 3.64 4 5 C2.02 5.33 0.04 5.66 -2 6 C-2 6.66 -2 7.32 -2 8 C-9.3197277 9.86094772 -16.46783285 10.55761615 -24 11 C-24 11.66 -24 12.32 -24 13 C-26.7839183 11.60804085 -26.97898997 9.84424221 -28 7 C-26.56260487 6.97287934 -25.12506137 6.95354933 -23.6875 6.9375 C-22.48673828 6.92009766 -22.48673828 6.92009766 -21.26171875 6.90234375 C-19 7 -19 7 -16 8 C-12.86090004 7.76115544 -9.93625332 7.14034603 -7 6 C-5.15565651 3.53884453 -5.15565651 3.53884453 -4 1 C-1.8125 0.1875 -1.8125 0.1875 0 0 Z " fill="#44C1F2" transform="translate(128,121)"/>
<path d="M0 0 C4.67336477 1.64199303 4.67336477 1.64199303 6.3828125 3.515625 C8.89473877 5.82125781 11.65526587 5.80789512 14.94140625 6.27734375 C17 7 17 7 18.08984375 9.00390625 C18.39019531 9.66261719 18.69054687 10.32132813 19 11 C19.99 11.33 20.98 11.66 22 12 C22 12.66 22 13.32 22 14 C22.66 14.33 23.32 14.66 24 15 C24.33 15.66 24.66 16.32 25 17 C14.8952741 16.57001166 8.42150505 9.76348464 1.65234375 2.85546875 C0 1 0 1 0 0 Z " fill="#38B0D5" transform="translate(78,116)"/>
<path d="M0 0 C0.99 0 1.98 0 3 0 C3.33 1.98 3.66 3.96 4 6 C4.66 6 5.32 6 6 6 C6.33 4.02 6.66 2.04 7 0 C7.99 0 8.98 0 10 0 C10.66 1.65 11.32 3.3 12 5 C12.45375 4.175 12.9075 3.35 13.375 2.5 C13.91125 1.675 14.4475 0.85 15 0 C15.66 0 16.32 0 17 0 C16.01 3.63 15.02 7.26 14 11 C13.01 11 12.02 11 11 11 C10.34 9.35 9.68 7.7 9 6 C8.34 7.65 7.68 9.3 7 11 C5.109375 10.81640625 5.109375 10.81640625 3 10 C1.953125 7.71484375 1.953125 7.71484375 1.25 4.9375 C1.00765625 4.01839844 0.7653125 3.09929687 0.515625 2.15234375 C0.34546875 1.44207031 0.1753125 0.73179687 0 0 Z " fill="#19191D" transform="translate(87,159)"/>
<path d="M0 0 C4.67239034 -0.18215947 7.55456736 0.85392364 11.56640625 3.171875 C12.47390625 3.48125 13.38140625 3.790625 14.31640625 4.109375 C16.56640625 5.171875 16.56640625 5.171875 17.50390625 7.109375 C19.07106739 10.15151133 21.54450975 10.75737025 24.56640625 12.171875 C25.06140625 13.161875 25.06140625 13.161875 25.56640625 14.171875 C24.90640625 14.831875 24.24640625 15.491875 23.56640625 16.171875 C22.90640625 15.841875 22.24640625 15.511875 21.56640625 15.171875 C21.56640625 14.511875 21.56640625 13.851875 21.56640625 13.171875 C19.58640625 12.181875 17.60640625 11.191875 15.56640625 10.171875 C15.56640625 9.511875 15.56640625 8.851875 15.56640625 8.171875 C14.57640625 7.841875 13.58640625 7.511875 12.56640625 7.171875 C11.47328125 6.676875 10.38015625 6.181875 9.25390625 5.671875 C3.5207105 3.33972758 -1.65411445 3.05131387 -7.80859375 3.109375 C-9.05382812 3.11839844 -10.2990625 3.12742187 -11.58203125 3.13671875 C-12.52304688 3.14832031 -13.4640625 3.15992187 -14.43359375 3.171875 C-14.76359375 2.511875 -15.09359375 1.851875 -15.43359375 1.171875 C-10.29204555 0.73296235 -5.14728474 0.36353215 0 0 Z " fill="#44C1EC" transform="translate(82.43359375,95.828125)"/>
<path d="M0 0 C1 3 1 3 0.43359375 4.796875 C-2.06766415 9.70130225 -4.90306953 14.254235 -9 18 C-9.66 18 -10.32 18 -11 18 C-10.67 17.01 -10.34 16.02 -10 15 C-9.34 15 -8.68 15 -8 15 C-8 13.68 -8 12.36 -8 11 C-10.97 10.67 -13.94 10.34 -17 10 C-14.50708327 8.33805551 -12.93905866 7.5721234 -10.1875 6.6875 C-5.97403408 5.17657137 -3.27103726 3.02570946 0 0 Z " fill="#32B0DB" transform="translate(144,110)"/>
<path d="M0 0 C1.43793392 0.31049726 2.8753318 0.6234776 4.3125 0.9375 C5.11300781 1.11152344 5.91351563 1.28554687 6.73828125 1.46484375 C9 2 9 2 12 3 C13.48123547 3.0806622 14.96582204 3.10761193 16.44921875 3.09765625 C17.29677734 3.09443359 18.14433594 3.09121094 19.01757812 3.08789062 C20.33918945 3.07532227 20.33918945 3.07532227 21.6875 3.0625 C22.58017578 3.05798828 23.47285156 3.05347656 24.39257812 3.04882812 C26.59511987 3.03704983 28.79752599 3.02060164 31 3 C31.33 3.66 31.66 4.32 32 5 C22.86700192 7.60942802 12.68987529 8.20915835 4 4 C1.375 1.8125 1.375 1.8125 0 0 Z " fill="#2EB8E5" transform="translate(124,87)"/>
<path d="M0 0 C20.62916741 -0.93180681 20.62916741 -0.93180681 28.78125 5.37890625 C30.1875 6.75 30.1875 6.75 32 9 C31.01 9.495 31.01 9.495 30 10 C29.649375 9.525625 29.29875 9.05125 28.9375 8.5625 C26.16573565 6.32720617 23.50110216 6.46681362 20 6 C18.96875 5.505 17.9375 5.01 16.875 4.5 C11.63830335 2.03213146 5.68803477 2.24804964 0 2 C0 1.34 0 0.68 0 0 Z " fill="#51BDDF" transform="translate(104,54)"/>
<path d="M0 0 C0.94875 0.04125 1.8975 0.0825 2.875 0.125 C-0.73394684 4.07314915 -5.19648972 5.8293331 -10.4609375 6.36083984 C-12.85637953 6.41827155 -15.23021209 6.38855597 -17.625 6.3125 C-18.44742188 6.29896484 -19.26984375 6.28542969 -20.1171875 6.27148438 C-22.12008221 6.23655016 -24.12263356 6.18276057 -26.125 6.125 C-26.125 5.465 -26.125 4.805 -26.125 4.125 C-13.52878123 1.97442606 -13.52878123 1.97442606 -8.4375 2.125 C-7.344375 2.125 -6.25125 2.125 -5.125 2.125 C-3.125 0.125 -3.125 0.125 0 0 Z " fill="#2DB1DD" transform="translate(130.125,127.875)"/>
<path d="M0 0 C1.32 0 2.64 0 4 0 C4 5.61 4 11.22 4 17 C2.68 17 1.36 17 0 17 C0 11.39 0 5.78 0 0 Z " fill="#6C6C6B" transform="translate(82,153)"/>
<path d="M0 0 C2.00401011 0.30830925 4.00291344 0.64963394 6 1 C9.66819871 1.09586764 13.33129574 1.05875149 17 1 C17.33 1.66 17.66 2.32 18 3 C20.52733235 3.65555119 20.52733235 3.65555119 23 4 C22.67 4.66 22.34 5.32 22 6 C20.73736328 5.75636719 20.73736328 5.75636719 19.44921875 5.5078125 C15.85343431 4.97842181 12.44535672 4.86721253 8.8125 4.875 C7.60207031 4.87242188 6.39164063 4.86984375 5.14453125 4.8671875 C1.97106051 4.85636141 1.97106051 4.85636141 -1 6 C-1.625 4.125 -1.625 4.125 -2 2 C-1.34 1.34 -0.68 0.68 0 0 Z " fill="#2EB7E7" transform="translate(88,65)"/>
<path d="M0 0 C0 0.99 0 1.98 0 3 C-1.65 2.67 -3.3 2.34 -5 2 C-3.60804085 4.7839183 -1.84424221 4.97898997 1 6 C0.125 10.875 0.125 10.875 -1 12 C-3.4375 12.25 -3.4375 12.25 -6 12 C-6.66 11.01 -7.32 10.02 -8 9 C-5.50907189 7.75453595 -4.58919267 8.2232422 -2 9 C-2 8.34 -2 7.68 -2 7 C-3.98 6.34 -5.96 5.68 -8 5 C-8 3.68 -8 2.36 -8 1 C-5.29120665 -0.35439668 -2.99066732 -0.06501451 0 0 Z " fill="#2C2B2F" transform="translate(160,159)"/>
<path d="M0 0 C1.4540625 0.0309375 1.4540625 0.0309375 2.9375 0.0625 C2.9375 1.0525 2.9375 2.0425 2.9375 3.0625 C1.6175 2.7325 0.2975 2.4025 -1.0625 2.0625 C0.31441962 4.81633923 2.30470042 5.57733101 4.9375 7.0625 C4.6075 8.3825 4.2775 9.7025 3.9375 11.0625 C1.9575 11.3925 -0.0225 11.7225 -2.0625 12.0625 C-2.7225 11.0725 -3.3825 10.0825 -4.0625 9.0625 C-1.57157189 7.81703595 -0.65169267 8.2857422 1.9375 9.0625 C1.9375 8.4025 1.9375 7.7425 1.9375 7.0625 C0.2875 6.7325 -1.3625 6.4025 -3.0625 6.0625 C-3.44468767 4.40635343 -3.77645102 2.73792976 -4.0625 1.0625 C-3.0625 0.0625 -3.0625 0.0625 0 0 Z " fill="#28282A" transform="translate(167.0625,158.9375)"/>
<path d="M0 0 C0.66 0 1.32 0 2 0 C2 1.32 2 2.64 2 4 C2.99 4 3.98 4 5 4 C5 4.66 5 5.32 5 6 C4.01 6 3.02 6 2 6 C2 8.31 2 10.62 2 13 C2.99 13 3.98 13 5 13 C5 13.99 5 14.98 5 16 C0.125 15.125 0.125 15.125 -1 14 C-1.14115161 11.32941149 -1.04247107 8.67567762 -1 6 C-1.66 6 -2.32 6 -3 6 C-3 5.34 -3 4.68 -3 4 C-2.34 4 -1.68 4 -1 4 C-0.67 2.68 -0.34 1.36 0 0 Z " fill="#232228" transform="translate(56,155)"/>
<path d="M0 0 C1.670625 0.061875 1.670625 0.061875 3.375 0.125 C3.705 1.115 4.035 2.105 4.375 3.125 C2.065 3.125 -0.245 3.125 -2.625 3.125 C-2.625 4.775 -2.625 6.425 -2.625 8.125 C-0.315 8.125 1.995 8.125 4.375 8.125 C4.045 9.115 3.715 10.105 3.375 11.125 C0.625 11.875 0.625 11.875 -2.625 12.125 C-5.0625 10.5625 -5.0625 10.5625 -6.625 8.125 C-6.41066621 2.76665515 -5.73679829 0.19782063 0 0 Z " fill="#1D1D1F" transform="translate(145.625,158.875)"/>
<path d="M0 0 C0.99 0 1.98 0 3 0 C3 0.66 3 1.32 3 2 C4.32 2 5.64 2 7 2 C6.8125 3.8125 6.8125 3.8125 6 6 C2.62712264 8.62334906 0.24348127 9.36372697 -4 9 C-3.625 7.0625 -3.625 7.0625 -3 5 C-2.34 4.67 -1.68 4.34 -1 4 C-0.34786708 1.97536745 -0.34786708 1.97536745 0 0 Z " fill="#50C8F3" transform="translate(117,120)"/>
<path d="M0 0 C-0.61875 0.28875 -1.2375 0.5775 -1.875 0.875 C-4.13325765 1.93720042 -4.13325765 1.93720042 -6 4 C-8 4 -10 4 -12 4 C-12.33 4.66 -12.66 5.32 -13 6 C-13.66 5.67 -14.32 5.34 -15 5 C-15 5.66 -15 6.32 -15 7 C-16.093125 7.28875 -17.18625 7.5775 -18.3125 7.875 C-22.04013845 8.81893204 -22.04013845 8.81893204 -25 11 C-25.33 10.34 -25.66 9.68 -26 9 C-18.25180362 2.8014429 -10.02112493 -0.75631132 0 0 Z " fill="#D3D4D6" transform="translate(60,20)"/>
<path d="M0 0 C6.93359375 -0.09765625 6.93359375 -0.09765625 9 0 C10 1 10 1 10.09765625 3.28515625 C10.08605469 4.20167969 10.07445313 5.11820313 10.0625 6.0625 C10.05347656 6.98160156 10.04445313 7.90070313 10.03515625 8.84765625 C10.02355469 9.55792969 10.01195313 10.26820313 10 11 C9.34 11 8.68 11 8 11 C7.67 8.36 7.34 5.72 7 3 C5.68 3 4.36 3 3 3 C2.67 5.64 2.34 8.28 2 11 C1.34 11 0.68 11 0 11 C0 7.37 0 3.74 0 0 Z " fill="#0B0B0C" transform="translate(112,159)"/>
<path d="M0 0 C10.32404315 1.03240431 16.18341366 6.6153648 23 14 C18.46149338 14 15.6995556 11.4663704 12 9 C11.6596875 8.01 11.6596875 8.01 11.3125 7 C9.66749792 4.49333017 8.85719341 4.55012345 6 3.9375 C5.29875 3.82277344 4.5975 3.70804687 3.875 3.58984375 C2 3 2 3 0 0 Z " fill="#3FADCC" transform="translate(88,96)"/>
<path d="M0 0 C3.25 -0.25 3.25 -0.25 7 0 C9.25 1.9375 9.25 1.9375 11 4 C11.99 4.33 12.98 4.66 14 5 C14 5.66 14 6.32 14 7 C12.35 7 10.7 7 9 7 C9 7.66 9 8.32 9 9 C8.01 8.67 7.02 8.34 6 8 C6 6.68 6 5.36 6 4 C4.02 3.34 2.04 2.68 0 2 C0 1.34 0 0.68 0 0 Z " fill="#ECECED" transform="translate(155,161)"/>
<path d="M0 0 C0.33 0 0.66 0 1 0 C1.40368295 6.45892714 0.5915262 11.06108578 -2 17 C-2.66 17 -3.32 17 -4 17 C-4.48736475 10.29873464 -3.07708804 5.93438408 0 0 Z " fill="#D4D7E1" transform="translate(204,164)"/>
<path d="M0 0 C1.43739513 -0.02712066 2.87493863 -0.04645067 4.3125 -0.0625 C5.51326172 -0.07990234 5.51326172 -0.07990234 6.73828125 -0.09765625 C9 0 9 0 12 1 C13.66621616 1.03874921 15.33394172 1.0450286 17 1 C17 1.66 17 2.32 17 3 C10.565 3.495 10.565 3.495 4 4 C4 4.66 4 5.32 4 6 C1.2160817 4.60804085 1.02101003 2.84424221 0 0 Z " fill="#3CBFEA" transform="translate(100,128)"/>
<path d="M0 0 C3.0625 0.25 3.0625 0.25 6.0625 2.25 C6.0625 2.91 6.0625 3.57 6.0625 4.25 C3.7525 3.92 1.4425 3.59 -0.9375 3.25 C-1.2675 4.9 -1.5975 6.55 -1.9375 8.25 C-0.6175 9.24 0.7025 10.23 2.0625 11.25 C-0.3125 11.375 -0.3125 11.375 -2.9375 11.25 C-4.9375 9.25 -4.9375 9.25 -5.1875 5.75 C-4.87509082 1.37627151 -4.42473247 0.37657298 0 0 Z " fill="#161619" transform="translate(129.9375,158.75)"/>
<path d="M0 0 C2.625 0.375 2.625 0.375 5 1 C5.625 2.875 5.625 2.875 6 5 C5.34 5.66 4.68 6.32 4 7 C1.375 6.625 1.375 6.625 -1 6 C-1.625 4.125 -1.625 4.125 -2 2 C-1.34 1.34 -0.68 0.68 0 0 Z " fill="#EFEFF0" transform="translate(66,161)"/>
<path d="M0 0 C4.35699326 2.3684583 7.73189628 5.31572857 11.3125 8.6875 C11.86228516 9.19861328 12.41207031 9.70972656 12.97851562 10.23632812 C14.3226638 11.48697034 15.661846 12.74294624 17 14 C16.67 14.66 16.34 15.32 16 16 C11.99292806 13.82473237 9.13735352 11.2942212 6 8 C5.113125 7.113125 4.22625 6.22625 3.3125 5.3125 C1.875 3.875 0.4375 2.4375 -1 1 C-0.67 0.67 -0.34 0.34 0 0 Z " fill="#34B0D1" transform="translate(136,63)"/>
<path d="M0 0 C2.61437258 3.92155886 2.21703011 7.44236768 2 12 C1.67 12.99 1.34 13.98 1 15 C0.34 15 -0.32 15 -1 15 C-2.14806378 5.58997722 -2.14806378 5.58997722 -2 1 C-1.34 0.67 -0.68 0.34 0 0 Z " fill="#DADFEB" transform="translate(203,49)"/>
<path d="M0 0 C1.17571451 3.67410785 1.07366746 7.16929183 1 11 C-1.31 11.66 -3.62 12.32 -6 13 C-4.75696561 7.82069003 -3.14512215 4.29833361 0 0 Z " fill="#E0E1E7" transform="translate(28,35)"/>
<path d="M0 0 C2.625 0.375 2.625 0.375 5 1 C5.042721 2.66611905 5.04063832 4.33382885 5 6 C4 7 4 7 1.4375 7.0625 C0.2309375 7.0315625 0.2309375 7.0315625 -1 7 C-1.625 4.625 -1.625 4.625 -2 2 C-1.34 1.34 -0.68 0.68 0 0 Z " fill="#F6F6F9" transform="translate(129,161)"/>
<path d="M0 0 C2.97 0.495 2.97 0.495 6 1 C6 5 6 5 3.8125 7.25 C0.81718319 9.11375268 -0.55736871 9.39344358 -4 9 C-4 8.34 -4 7.68 -4 7 C-2.5459375 6.5978125 -2.5459375 6.5978125 -1.0625 6.1875 C0.4534375 5.5996875 0.4534375 5.5996875 2 5 C2.33 4.01 2.66 3.02 3 2 C2.01 1.67 1.02 1.34 0 1 C0 0.67 0 0.34 0 0 Z M-10 9 C-8.02 9 -6.04 9 -4 9 C-4.33 9.66 -4.66 10.32 -5 11 C-6.65 10.67 -8.3 10.34 -10 10 C-10 9.67 -10 9.34 -10 9 Z " fill="#34BCE9" transform="translate(130,120)"/>
<path d="M0 0 C1.99609375 0.015625 1.99609375 0.015625 4.4375 0.25 C5.64212891 0.35054688 5.64212891 0.35054688 6.87109375 0.453125 C9 1 9 1 11 4 C7.38026598 5.31626692 4.90432869 6 1 6 C1 4.68 1 3.36 1 2 C0.34 1.67 -0.32 1.34 -1 1 C-0.67 0.67 -0.34 0.34 0 0 Z " fill="#4CC8F1" transform="translate(134,83)"/>
<path d="M0 0 C3.875 0.875 3.875 0.875 5 2 C5.04063832 3.66617115 5.042721 5.33388095 5 7 C5.99 7.33 6.98 7.66 8 8 C5.6875 8.625 5.6875 8.625 3 9 C2.01 8.34 1.02 7.68 0 7 C-0.1875 3.375 -0.1875 3.375 0 0 Z " fill="#3ABEE8" transform="translate(83,113)"/>
<path d="M0 0 C0.99 0 1.98 0 3 0 C3 0.66 3 1.32 3 2 C4.0828125 2.12375 4.0828125 2.12375 5.1875 2.25 C9.40344128 3.37425101 12.11167108 5.47715043 14.3125 9.25 C14.539375 9.8275 14.76625 10.405 15 11 C8.61438203 9.69012965 4.45486113 5.50435959 0 1 C0 0.67 0 0.34 0 0 Z " fill="#BABDCD" transform="translate(29,190)"/>
<path d="M0 0 C3.3 0.33 6.6 0.66 10 1 C10 1.99 10 2.98 10 4 C12.97 4 15.94 4 19 4 C19 4.33 19 4.66 19 5 C6.10331231 5.68884385 6.10331231 5.68884385 2.1875 3.0625 C1.465625 2.381875 0.74375 1.70125 0 1 C0 0.67 0 0.34 0 0 Z " fill="#DCF8FB" transform="translate(115,113)"/>
<path d="M0 0 C0.99 0.33 1.98 0.66 3 1 C4.1875 4.0625 4.1875 4.0625 5 7 C8.3 7.33 11.6 7.66 15 8 C15 8.33 15 8.66 15 9 C12.87506859 9.02693575 10.75004088 9.04636628 8.625 9.0625 C7.44164062 9.07410156 6.25828125 9.08570313 5.0390625 9.09765625 C2 9 2 9 0 8 C0 5.36 0 2.72 0 0 Z " fill="#C3C3C4" transform="translate(122,162)"/>
<path d="M0 0 C0.66 0 1.32 0 2 0 C2 2.31 2 4.62 2 7 C1.34 7 0.68 7 0 7 C0.33 8.98 0.66 10.96 1 13 C-0.65 13 -2.3 13 -4 13 C-3.52343588 11.20763933 -3.04366502 9.41613103 -2.5625 7.625 C-2.29566406 6.62726563 -2.02882812 5.62953125 -1.75390625 4.6015625 C-1 2 -1 2 0 0 Z " fill="#DAF7FC" transform="translate(179,67)"/>
<path d="M0 0 C0.99 0 1.98 0 3 0 C3 3.96 3 7.92 3 12 C2.01 12 1.02 12 0 12 C0 8.04 0 4.08 0 0 Z " fill="#38393C" transform="translate(106,159)"/>
<path d="M0 0 C0.99 0 1.98 0 3 0 C3 3.96 3 7.92 3 12 C2.01 12 1.02 12 0 12 C0 8.04 0 4.08 0 0 Z " fill="#36353B" transform="translate(77,159)"/>
<path d="M0 0 C1.32 1.65 2.64 3.3 4 5 C-0.75 9 -0.75 9 -3 9 C-3.33 9.99 -3.66 10.98 -4 12 C-5 9 -5 9 -4.2578125 6.9921875 C-3.88398437 6.29351562 -3.51015625 5.59484375 -3.125 4.875 C-2.75632813 4.17117187 -2.38765625 3.46734375 -2.0078125 2.7421875 C-1 1 -1 1 0 0 Z " fill="#3EABCB" transform="translate(51,108)"/>
<path d="M0 0 C0.33 0.66 0.66 1.32 1 2 C-0.41396902 2.50757862 -1.83131729 3.00574925 -3.25 3.5 C-4.43335938 3.91765625 -4.43335938 3.91765625 -5.640625 4.34375 C-8 5 -8 5 -12 5 C-12 4.34 -12 3.68 -12 3 C-4.71428571 -0.42857143 -4.71428571 -0.42857143 0 0 Z " fill="#C1C5D6" transform="translate(180,200)"/>
<path d="M0 0 C1.63001953 0.01353516 1.63001953 0.01353516 3.29296875 0.02734375 C4.12441406 0.03894531 4.95585938 0.05054687 5.8125 0.0625 C5.8125 0.3925 5.8125 0.7225 5.8125 1.0625 C3.8634375 1.18625 3.8634375 1.18625 1.875 1.3125 C-2.70737147 1.79103879 -6.26139587 3.23433387 -10.33984375 5.3203125 C-10.94957031 5.56523438 -11.55929688 5.81015625 -12.1875 6.0625 C-12.8475 5.7325 -13.5075 5.4025 -14.1875 5.0625 C-9.27583303 0.94731956 -6.3766432 -0.06856606 0 0 Z " fill="#D9FBFD" transform="translate(64.1875,110.9375)"/>
<path d="M0 0 C0.59732819 2.76264289 1 5.16032769 1 8 C0.0925 7.21625 -0.815 6.4325 -1.75 5.625 C-4.05190236 3.69947504 -6.21577207 2.17794259 -9 1 C-5.64919071 -1.10976881 -3.77897651 -1.0497157 0 0 Z " fill="#D9DEF0" transform="translate(44,193)"/>
<path d="M0 0 C2 1 2 1 3 3.9375 C3.33 4.948125 3.66 5.95875 4 7 C4.66 7.66 5.32 8.32 6 9 C6 9.99 6 10.98 6 12 C4.35 11.67 2.7 11.34 1 11 C-0.28317892 7.15046324 -0.06643637 4.05261865 0 0 Z " fill="#F0F0F2" transform="translate(137,161)"/>
<path d="M0 0 C2.64 0 5.28 0 8 0 C8 3.3 8 6.6 8 10 C6 8 6 8 5.1875 5.4375 C4.795625 4.633125 4.40375 3.82875 4 3 C1.45224694 2.10613836 1.45224694 2.10613836 -1 2 C-0.67 1.34 -0.34 0.68 0 0 Z " fill="#070709" transform="translate(66,159)"/>
<path d="M0 0 C1.16144531 0.00902344 2.32289063 0.01804688 3.51953125 0.02734375 C4.39996094 0.03894531 5.28039062 0.05054688 6.1875 0.0625 C3.60346392 2.60085868 2.42681642 3.05735632 -1.265625 3.13671875 C-2.51859375 3.00910156 -3.7715625 2.88148438 -5.0625 2.75 C-6.95742187 2.57017578 -6.95742187 2.57017578 -8.890625 2.38671875 C-9.85484375 2.27972656 -10.8190625 2.17273438 -11.8125 2.0625 C-11.8125 1.7325 -11.8125 1.4025 -11.8125 1.0625 C-7.81454108 0.10630267 -4.10446078 -0.0414592 0 0 Z " fill="#D8DEF3" transform="translate(167.8125,199.9375)"/>
<path d="M0 0 C2.3125 0.125 2.3125 0.125 5 1 C6.8125 4.0625 6.8125 4.0625 8 7 C5.125 6.6875 5.125 6.6875 2 6 C0 3 0 3 0 0 Z " fill="#38BCE7" transform="translate(90,122)"/>
<path d="M0 0 C4.17882671 2.56428003 7.12505529 5.01930733 10 9 C6.7 8.01 3.4 7.02 0 6 C0.33 5.34 0.66 4.68 1 4 C0.60061233 1.90178785 0.60061233 1.90178785 0 0 Z " fill="#DDF9FB" transform="translate(72,112)"/>
<path d="M0 0 C1 3 1 3 0.328125 4.97265625 C-0.02765625 5.66230469 -0.3834375 6.35195312 -0.75 7.0625 C-1.26820313 8.10083984 -1.26820313 8.10083984 -1.796875 9.16015625 C-3 11 -3 11 -6 13 C-5.505 11.6078125 -5.505 11.6078125 -5 10.1875 C-3.85032996 7.07970709 -3.85032996 7.07970709 -4 4 C-2 1.8125 -2 1.8125 0 0 Z " fill="#3DA6C5" transform="translate(144,110)"/>
<path d="M0 0 C5.68046944 0.94055703 9.72424312 1.86217076 14 6 C8.29290936 5.53411505 4.84060277 4.06242216 0 1 C0 0.67 0 0.34 0 0 Z " fill="#36ABCD" transform="translate(124,87)"/>
<path d="M0 0 C0.99 0 1.98 0 3 0 C3 0.99 3 1.98 3 3 C2.03320312 3.32097656 2.03320312 3.32097656 1.046875 3.6484375 C-1.27839115 4.8473523 -1.27839115 4.8473523 -1.609375 7.6015625 C-1.65578125 8.59929687 -1.7021875 9.59703125 -1.75 10.625 C-1.80671875 11.62789062 -1.8634375 12.63078125 -1.921875 13.6640625 C-1.94765625 14.43492187 -1.9734375 15.20578125 -2 16 C-2.33 16 -2.66 16 -3 16 C-3 12.37 -3 8.74 -3 5 C-3.66 4.67 -4.32 4.34 -5 4 C-4.01 3.01 -3.02 2.02 -2 1 C-1.34 1.33 -0.68 1.66 0 2 C0 1.34 0 0.68 0 0 Z " fill="#A3A2A4" transform="translate(77,154)"/>
<path d="M0 0 C0.33 0 0.66 0 1 0 C1.57046343 4.84893917 -0.15140329 7.17474157 -3 11 C-3.5775 11.78375 -4.155 12.5675 -4.75 13.375 C-5.1625 13.91125 -5.575 14.4475 -6 15 C-6.99 14.67 -7.98 14.34 -9 14 C-8.51789063 13.40832031 -8.03578125 12.81664063 -7.5390625 12.20703125 C-6.59160156 11.02173828 -6.59160156 11.02173828 -5.625 9.8125 C-4.99851563 9.03519531 -4.37203125 8.25789063 -3.7265625 7.45703125 C-2.02192866 5.03120618 -0.98012094 2.78690955 0 0 Z " fill="#D8F9FC" transform="translate(144,113)"/>
<path d="M0 0 C0.56203125 0.29648438 1.1240625 0.59296875 1.703125 0.8984375 C4.01967305 2.00943503 6.30709092 2.83464706 8.75 3.625 C9.54921875 3.88539062 10.3484375 4.14578125 11.171875 4.4140625 C11.77515625 4.60742188 12.3784375 4.80078125 13 5 C13 5.99 13 6.98 13 8 C11.3501725 7.57781184 9.70516335 7.13675575 8.0625 6.6875 C7.14597656 6.44386719 6.22945313 6.20023437 5.28515625 5.94921875 C4.15400391 5.47935547 4.15400391 5.47935547 3 5 C2.67 4.01 2.34 3.02 2 2 C1.34 2 0.68 2 0 2 C0 1.34 0 0.68 0 0 Z " fill="#3AAED4" transform="translate(113,113)"/>
<path d="M0 0 C1.32 0 2.64 0 4 0 C4.33 0.99 4.66 1.98 5 3 C6.98320018 4.03291676 8.98347806 5.0337499 11 6 C11.33 6.66 11.66 7.32 12 8 C11.34 8.66 10.68 9.32 10 10 C9.34 9.67 8.68 9.34 8 9 C8 8.34 8 7.68 8 7 C6.02 6.01 4.04 5.02 2 4 C2 3.34 2 2.68 2 2 C1.01 1.67 0.02 1.34 -1 1 C-0.67 0.67 -0.34 0.34 0 0 Z " fill="#4AC7F1" transform="translate(96,102)"/>
<path d="M0 0 C0.99 0.495 0.99 0.495 2 1 C2.625 3.5625 2.625 3.5625 3 6 C3.99 6.33 4.98 6.66 6 7 C6 7.99 6 8.98 6 10 C1.125 9.125 1.125 9.125 0 8 C-0.14115161 5.32941149 -0.04247107 2.67567762 0 0 Z " fill="#3C3B3F" transform="translate(55,161)"/>
<path d="M0 0 C1.98 0 3.96 0 6 0 C6 0.99 6 1.98 6 3 C4.68 2.67 3.36 2.34 2 2 C2.66 3.32 3.32 4.64 4 6 C2.35 5.67 0.7 5.34 -1 5 C-0.67 3.35 -0.34 1.7 0 0 Z " fill="#1A191C" transform="translate(164,159)"/>
<path d="M0 0 C3.21524305 1.40844718 5.32183868 3.10344786 7.75 5.625 C8.67039062 6.57246094 8.67039062 6.57246094 9.609375 7.5390625 C10.29773438 8.26222656 10.29773438 8.26222656 11 9 C10.01 9.33 9.02 9.66 8 10 C7.34 9.67 6.68 9.34 6 9 C6 8.01 6 7.02 6 6 C5.01 5.67 4.02 5.34 3 5 C3 4.34 3 3.68 3 3 C2.01 3 1.02 3 0 3 C0 2.01 0 1.02 0 0 Z " fill="#CBF3FD" transform="translate(108,74)"/>
<path d="M0 0 C0.66 0 1.32 0 2 0 C1.01 3.63 0.02 7.26 -1 11 C-1.99 11 -2.98 11 -4 11 C-4 10.01 -4 9.02 -4 8 C-3.34 8 -2.68 8 -2 8 C-1.855625 6.865625 -1.71125 5.73125 -1.5625 4.5625 C-1 1 -1 1 0 0 Z " fill="#111215" transform="translate(102,159)"/>
<path d="M0 0 C1.32 0 2.64 0 4 0 C3.814375 0.78375 3.62875 1.5675 3.4375 2.375 C2.74037734 4.97089775 2.74037734 4.97089775 4 7 C2.35 6.67 0.7 6.34 -1 6 C-1.042721 4.33388095 -1.04063832 2.66617115 -1 1 C-0.67 0.67 -0.34 0.34 0 0 Z " fill="#F0F0F1" transform="translate(143,161)"/>
<path d="M0 0 C1.9375 0.6875 1.9375 0.6875 4 2 C4.75 4.625 4.75 4.625 5 7 C2.69 7 0.38 7 -2 7 C-1.125 1.125 -1.125 1.125 0 0 Z " fill="#4DC8F6" transform="translate(66,98)"/>
<path d="M0 0 C0.66 0.33 1.32 0.66 2 1 C-0.47422158 3.60444377 -3.09023917 5.8904234 -6 8 C-6.99 8 -7.98 8 -9 8 C-9 6.02 -9 4.04 -9 2 C-8.34 2 -7.68 2 -7 2 C-7 3.32 -7 4.64 -7 6 C-4.69 4.02 -2.38 2.04 0 0 Z " fill="#CDF3F9" transform="translate(88,72)"/>
<path d="M0 0 C-0.99 0.66 -1.98 1.32 -3 2 C-4.08474609 2.72896484 -4.08474609 2.72896484 -5.19140625 3.47265625 C-5.97386719 3.99730469 -6.75632812 4.52195312 -7.5625 5.0625 C-8.34753906 5.58972656 -9.13257812 6.11695313 -9.94140625 6.66015625 C-12 8 -12 8 -14 9 C-14 6.75 -14 6.75 -13 4 C-9.05788266 1.11709643 -4.93545967 -0.61693246 0 0 Z " fill="#DCF9FC" transform="translate(101,55)"/>
<path d="M0 0 C3.33511388 2.9901021 5.21521119 5.89498574 7 10 C7 10.66 7 11.32 7 12 C6.34 12 5.68 12 5 12 C5 11.01 5 10.02 5 9 C4.01 8.67 3.02 8.34 2 8 C2 6.68 2 5.36 2 4 C1.01 4 0.02 4 -1 4 C-0.67 2.68 -0.34 1.36 0 0 Z " fill="#D2D5DC" transform="translate(195,34)"/>
<path d="M0 0 C0.66 0 1.32 0 2 0 C2.2493357 1.60115576 2.47378648 3.20620159 2.6875 4.8125 C2.87892578 6.15248047 2.87892578 6.15248047 3.07421875 7.51953125 C3 10 3 10 0 13 C0 8.71 0 4.42 0 0 Z " fill="#CBCFDB" transform="translate(20,160)"/>
<path d="M0 0 C2.64 0 5.28 0 8 0 C8.33 1.65 8.66 3.3 9 5 C6.03 4.01 3.06 3.02 0 2 C0 1.34 0 0.68 0 0 Z " fill="#39B5D9" transform="translate(104,70)"/>
<path d="M0 0 C3.465 1.98 3.465 1.98 7 4 C7 4.99 7 5.98 7 7 C5.35 7 3.7 7 2 7 C1.34 4.69 0.68 2.38 0 0 Z " fill="#D4D6DC" transform="translate(184,25)"/>
<path d="M0 0 C0.99 0 1.98 0 3 0 C3.33 1.98 3.66 3.96 4 6 C4.66 6 5.32 6 6 6 C5.34 7.32 4.68 8.64 4 10 C1.81024227 6.71536341 1.00193437 3.79303725 0 0 Z " fill="#252428" transform="translate(87,159)"/>
<path d="M0 0 C5.20112114 2.1772135 7.68090651 4.60708214 11 9 C7.22272911 7.18690997 3.62730178 5.0926741 0 3 C0 2.01 0 1.02 0 0 Z " fill="#37B1DA" transform="translate(100,102)"/>
<path d="M0 0 C3.33727786 1.17255709 5.77437487 2.18868404 8 5 C8 5.66 8 6.32 8 7 C8.99 7.33 9.98 7.66 11 8 C10.34 8.66 9.68 9.32 9 10 C7.49702124 8.52386015 5.99768715 7.04400843 4.5 5.5625 C3.6646875 4.73878906 2.829375 3.91507812 1.96875 3.06640625 C0 1 0 1 0 0 Z " fill="#41ACC9" transform="translate(78,116)"/>
<path d="M0 0 C0.66 0.33 1.32 0.66 2 1 C2 2.65 2 4.3 2 6 C-0.64 5.67 -3.28 5.34 -6 5 C-5.38125 4.731875 -4.7625 4.46375 -4.125 4.1875 C-1.7004767 3.04443152 -1.7004767 3.04443152 0 0 Z " fill="#242329" transform="translate(135,164)"/>
<path d="M0 0 C0.66 0.33 1.32 0.66 2 1 C2.33 1.99 2.66 2.98 3 4 C0.36 4.33 -2.28 4.66 -5 5 C-5 4.01 -5 3.02 -5 2 C-2.625 0.9375 -2.625 0.9375 0 0 Z " fill="#28282A" transform="translate(71,166)"/>
<path d="M0 0 C-2.12121657 2.33333823 -4.01594365 3.9148886 -7 5 C-9.25 4.625 -9.25 4.625 -11 4 C-7.26280719 0.48264206 -5.13496308 -0.47767098 0 0 Z " fill="#35A7D0" transform="translate(133,128)"/>
<path d="M0 0 C1.134375 0.020625 2.26875 0.04125 3.4375 0.0625 C3.4375 1.3825 3.4375 2.7025 3.4375 4.0625 C1.7875 4.0625 0.1375 4.0625 -1.5625 4.0625 C-1.5625 3.4025 -1.5625 2.7425 -1.5625 2.0625 C-2.5525 1.7325 -3.5425 1.4025 -4.5625 1.0625 C-3.5625 0.0625 -3.5625 0.0625 0 0 Z " fill="#4DC5F4" transform="translate(127.5625,79.9375)"/>
<path d="M0 0 C2.62187494 1.04874998 3.79371361 1.64931313 5.25 4.125 C5.4975 4.74375 5.745 5.3625 6 6 C5.46375 5.690625 4.9275 5.38125 4.375 5.0625 C1.6015043 3.82172561 -1.00042837 3.4090325 -4 3 C-2.68 2.01 -1.36 1.02 0 0 Z " fill="#4AC4F3" transform="translate(130,60)"/>
<path d="M0 0 C5.7097955 0.41778991 8.60957142 2.57546571 13 6 C12.34 6.66 11.68 7.32 11 8 C10.59136719 7.55011719 10.18273437 7.10023437 9.76171875 6.63671875 C7.87453987 4.8834417 6.13192342 3.91517671 3.8125 2.8125 C3.09707031 2.46832031 2.38164063 2.12414063 1.64453125 1.76953125 C1.10183594 1.51558594 0.55914062 1.26164062 0 1 C0 0.67 0 0.34 0 0 Z " fill="#3AABCB" transform="translate(123,56)"/>
<path d="M0 0 C1.32 0.33 2.64 0.66 4 1 C2.9024777 3.99324263 2.32317108 4.84610901 -0.625 6.25 C-1.40875 6.4975 -2.1925 6.745 -3 7 C-3 4 -3 4 -1 2 C-0.67 1.34 -0.34 0.68 0 0 Z " fill="#C3C5D4" transform="translate(185,194)"/>
<path d="M0 0 C1.27875 0.103125 2.5575 0.20625 3.875 0.3125 C4.95394531 0.39951172 4.95394531 0.39951172 6.0546875 0.48828125 C8 1 8 1 10 4 C6.88772805 4 4.05847848 3.54372951 1 3 C0.67 2.01 0.34 1.02 0 0 Z " fill="#ECF8F8" transform="translate(112,83)"/>
<path d="M0 0 C1.53202706 0.25195908 3.05257128 0.57596777 4.5625 0.9375 C5.38878906 1.13214844 6.21507812 1.32679688 7.06640625 1.52734375 C8.02353516 1.76130859 8.02353516 1.76130859 9 2 C8.67 2.66 8.34 3.32 8 4 C1.25 3.25 1.25 3.25 -1 1 C-0.67 0.67 -0.34 0.34 0 0 Z " fill="#B6BCCF" transform="translate(45,200)"/>
<path d="M0 0 C0.66 0 1.32 0 2 0 C2.99 2.97 3.98 5.94 5 9 C4.34 9 3.68 9 3 9 C3 8.34 3 7.68 3 7 C2.34 7 1.68 7 1 7 C0.67 4.69 0.34 2.38 0 0 Z " fill="#ECEFF9" transform="translate(28,176)"/>
<path d="M0 0 C0.66 0 1.32 0 2 0 C2.268125 0.94875 2.53625 1.8975 2.8125 2.875 C3.74986588 6.25267273 3.74986588 6.25267273 7 8 C4.625 8.125 4.625 8.125 2 8 C0 6 0 6 -0.125 2.875 C-0.08375 1.92625 -0.0425 0.9775 0 0 Z " fill="#050506" transform="translate(125,162)"/>
<path d="M0 0 C3.63 1.65 7.26 3.3 11 5 C7.06329512 6.31223496 4.87511856 5.24296256 1 4 C0.67 2.68 0.34 1.36 0 0 Z " fill="#D5F7FC" transform="translate(122,87)"/>
<path d="M0 0 C2.31 0.66 4.62 1.32 7 2 C7.33 3.32 7.66 4.64 8 6 C7.01 6.495 7.01 6.495 6 7 C5.38125 6.360625 4.7625 5.72125 4.125 5.0625 C2.17402388 2.96116416 2.17402388 2.96116416 0 2 C0 1.34 0 0.68 0 0 Z " fill="#4BC0F4" transform="translate(112,71)"/>
<path d="M0 0 C0.33 0.66 0.66 1.32 1 2 C0.34 2 -0.32 2 -1 2 C-1.33 3.98 -1.66 5.96 -2 8 C-2.99 7.67 -3.98 7.34 -5 7 C-5.99 7.495 -5.99 7.495 -7 8 C-5.50902342 4.2047869 -3.24299151 2.38957269 0 0 Z " fill="#3CACD1" transform="translate(93,59)"/>
<path d="M0 0 C1.98 0 3.96 0 6 0 C6.33 1.65 6.66 3.3 7 5 C7.66 5 8.32 5 9 5 C8.67 5.66 8.34 6.32 8 7 C6.66382648 6.02471263 5.3311249 5.04466681 4 4.0625 C3.2575 3.51722656 2.515 2.97195312 1.75 2.41015625 C1.1725 1.94480469 0.595 1.47945312 0 1 C0 0.67 0 0.34 0 0 Z " fill="#C9F3F8" transform="translate(131,58)"/>
<path d="M0 0 C2.99529289 0.99843096 4.15840327 1.51384442 6 4 C5.6875 6.1875 5.6875 6.1875 5 8 C2.20127563 5.47211993 0.54226981 3.79588866 0 0 Z " fill="#B5B8C4" transform="translate(23,180)"/>
<path d="M0 0 C0.99 0 1.98 0 3 0 C2.67 2.31 2.34 4.62 2 7 C1.34 7 0.68 7 0 7 C-0.38133299 5.0085944 -0.71325582 3.00720923 -1 1 C-0.67 0.67 -0.34 0.34 0 0 Z " fill="#F2F1F4" transform="translate(91,158)"/>
<path d="M0 0 C0.66 0.33 1.32 0.66 2 1 C0.02 3.31 -1.96 5.62 -4 8 C-4.33 7.01 -4.66 6.02 -5 5 C-3.35 3.35 -1.7 1.7 0 0 Z " fill="#B7BAC0" transform="translate(195,188)"/>
<path d="M0 0 C0.99 0.33 1.98 0.66 3 1 C2.67 1.99 2.34 2.98 2 4 C0.35 4.33 -1.3 4.66 -3 5 C-2.625 3.0625 -2.625 3.0625 -2 1 C-1.34 0.67 -0.68 0.34 0 0 Z " fill="#DBDCE7" transform="translate(196,184)"/>
<path d="M0 0 C3 2 3 2 3.6875 4.625 C3.8421875 5.800625 3.8421875 5.800625 4 7 C2.68 7 1.36 7 0 7 C0 4.69 0 2.38 0 0 Z " fill="#F2F2F3" transform="translate(86,161)"/>
<path d="M0 0 C1.98 0 3.96 0 6 0 C6 0.99 6 1.98 6 3 C4.824375 2.9690625 4.824375 2.9690625 3.625 2.9375 C1.01885039 2.81315937 1.01885039 2.81315937 -1 4 C-0.67 2.68 -0.34 1.36 0 0 Z " fill="#1E1D21" transform="translate(154,159)"/>
<path d="M0 0 C0.66 0.33 1.32 0.66 2 1 C1.4409112 4.24271506 0.5867822 5.93057424 -2 8 C-2.66 8 -3.32 8 -4 8 C-3.67 7.01 -3.34 6.02 -3 5 C-2.34 5 -1.68 5 -1 5 C-0.67 3.35 -0.34 1.7 0 0 Z " fill="#39AFD2" transform="translate(137,120)"/>
<path d="M0 0 C1.98 0.66 3.96 1.32 6 2 C6 2.99 6 3.98 6 5 C4.68 5 3.36 5 2 5 C2 4.01 2 3.02 2 2 C1.34 2 0.68 2 0 2 C0 1.34 0 0.68 0 0 Z " fill="#3DBBE3" transform="translate(107,110)"/>
<path d="M0 0 C2.52588702 2.36292656 3.88820837 3.66462511 5 7 C3.35 6.67 1.7 6.34 0 6 C0 4.02 0 2.04 0 0 Z " fill="#51CBF7" transform="translate(142,72)"/>
<path d="M0 0 C2.31 0.66 4.62 1.32 7 2 C4.64046906 4.35953094 3.22104383 4.49141413 0 5 C0 3.35 0 1.7 0 0 Z " fill="#CED1D9" transform="translate(177,22)"/>
<path d="M0 0 C0.66 0.33 1.32 0.66 2 1 C2 1.99 2 2.98 2 4 C2.66 4.33 3.32 4.66 4 5 C2.02 5.99 2.02 5.99 0 7 C-0.38133299 5.0085944 -0.71325582 3.00720923 -1 1 C-0.67 0.67 -0.34 0.34 0 0 Z " fill="#C7C9D9" transform="translate(22,172)"/>
<path d="M0 0 C1.67542976 0.28604898 3.34385343 0.61781233 5 1 C4.01 1.66 3.02 2.32 2 3 C0.66209359 3.99387334 -0.67218122 4.9926892 -2 6 C-1.125 1.125 -1.125 1.125 0 0 Z " fill="#EAEBEC" transform="translate(129,161)"/>
<path d="M0 0 C1.32 0.33 2.64 0.66 4 1 C4.625 2.875 4.625 2.875 5 5 C4.34 5.66 3.68 6.32 3 7 C0 2.25 0 2.25 0 0 Z " fill="#49C6F1" transform="translate(83,113)"/>
<path d="M0 0 C0.98120464 3.05263664 0.98120464 4.94736336 0 8 C-0.99 8 -1.98 8 -3 8 C-3 4.42424104 -1.91159393 2.94704065 0 0 Z " fill="#BFC0C4" transform="translate(28,35)"/>
<path d="M0 0 C1.32 0.99 2.64 1.98 4 3 C1.36 3.33 -1.28 3.66 -4 4 C-4 3.34 -4 2.68 -4 2 C-2.68 1.34 -1.36 0.68 0 0 Z " fill="#B4BACC" transform="translate(172,201)"/>
<path d="M0 0 C1.32 0.66 2.64 1.32 4 2 C1.03 4.475 1.03 4.475 -2 7 C-1.34 4.69 -0.68 2.38 0 0 Z " fill="#35A2C5" transform="translate(82,72)"/>
</svg>
