<?xml version="1.0" encoding="UTF-8"?>
<svg version="1.1" xmlns="http://www.w3.org/2000/svg" width="628" height="397">
<path d="M0 0 C0 0.66 0 1.32 0 2 C0.58483154 2.09442383 1.16966309 2.18884766 1.7722168 2.28613281 C4.50597975 3.16213532 5.66864167 4.35307361 7.64453125 6.421875 C8.32193359 7.11796875 8.99933594 7.8140625 9.69726562 8.53125 C10.39529297 9.2634375 11.09332031 9.995625 11.8125 10.75 C20.18980349 19.49700608 27.82333484 26.61452026 40.578125 27.09765625 C50.78169192 26.43987914 59.00109905 22.39344683 66 15 C66.99 13.515 66.99 13.515 68 12 C68.99 12 69.98 12 71 12 C70.479547 17.57318421 69.03147532 21.8387325 66.5 26.8125 C66.14542725 27.51101074 65.79085449 28.20952148 65.42553711 28.92919922 C59.12779866 40.84741113 50.24907751 49.17335151 37.375 53.3125 C20.55016923 58.23532085 1.60997835 57.36226386 -14.0625 49.125 C-18.53351262 46.43145417 -23.20487481 43.61026236 -27 40 C-27 39.34 -27 38.68 -27 38 C-27.53882813 37.79117188 -28.07765625 37.58234375 -28.6328125 37.3671875 C-32.50683038 35.12971843 -35.34239298 31.73600124 -38.40234375 28.51953125 C-44.98193841 21.7380053 -51.02868928 18.55289914 -60.375 17.6875 C-70.93234543 18.59761599 -79.54233107 23.0116562 -86.625 30.9375 C-87.305625 31.9584375 -87.305625 31.9584375 -88 33 C-88.99 32.67 -89.98 32.34 -91 32 C-88.98973786 19.93842714 -83.57929319 10.61402717 -75 2 C-74.35417969 1.31035156 -73.70835937 0.62070313 -73.04296875 -0.08984375 C-55.20721691 -16.7661012 -18.3882895 -14.63852066 0 0 Z " fill="#38BCF6" transform="translate(305,169)"/>
<path d="M0 0 C0.80308594 0.56976563 1.60617187 1.13953125 2.43359375 1.7265625 C6.2263069 4.52792567 9.46516172 7.38742874 12.5 11 C18.88476534 18.59110349 27.06357435 25.07514325 37.10546875 26.4140625 C43.96303717 26.71955793 48.85217985 25.76122344 54.78125 22.2890625 C57 21 57 21 59.71875 20.0234375 C60.84796875 19.51683594 60.84796875 19.51683594 62 19 C62.33 18.01 62.66 17.02 63 16 C65.4375 13.3125 65.4375 13.3125 68 11 C68.66 11 69.32 11 70 11 C69.04470207 20.17086013 65.79533648 30.50011293 59 37 C57.7934375 38.5159375 57.7934375 38.5159375 56.5625 40.0625 C54.24543531 42.71864733 53.09337087 43.65953929 50 45 C49.5978125 45.45761719 49.195625 45.91523438 48.78125 46.38671875 C46.31664295 48.61891768 43.73097968 49.46647669 40.625 50.625 C39.50351562 51.05039063 38.38203125 51.47578125 37.2265625 51.9140625 C23.86240695 56.41192599 4.17374844 56.22307207 -9 51 C-12.50727427 49.21960835 -15.74519211 47.2004335 -19 45 C-20.37671875 44.2265625 -20.37671875 44.2265625 -21.78125 43.4375 C-22.5134375 42.963125 -23.245625 42.48875 -24 42 C-24 41.34 -24 40.68 -24 40 C-24.53625 39.773125 -25.0725 39.54625 -25.625 39.3125 C-30.17661469 36.79713399 -33.59885248 33.58623595 -36.8125 29.5625 C-42.46724855 22.78566035 -50.58673092 17.96520772 -59.3359375 16.6484375 C-65.64541509 16.27026692 -70.17369307 18.05472941 -75.75 20.90625 C-78 22 -78 22 -80 22 C-80.33 22.99 -80.66 23.98 -81 25 C-81.99 25 -82.98 25 -84 25 C-84.0825 25.598125 -84.165 26.19625 -84.25 26.8125 C-85.21576779 29.62932273 -86.48868567 30.47799132 -89 32 C-89.66 32 -90.32 32 -91 32 C-90.65473984 26.53536505 -90.19307604 22.5980295 -87 18 C-86.70222656 17.21882813 -86.40445312 16.43765625 -86.09765625 15.6328125 C-81.53036025 4.6778036 -71.52747768 -2.54940201 -61.3203125 -7.73828125 C-41.19934553 -15.3842487 -17.213682 -12.61095095 0 0 Z " fill="#38BCF6" transform="translate(359,106)"/>
<path d="M0 0 C2.27338765 2.6522856 2.95526736 4.32901036 3.1875 7.8125 C3.125625 8.534375 3.06375 9.25625 3 10 C3.66 10 4.32 10 5 10 C5.12375 9.05125 5.2475 8.1025 5.375 7.125 C6 4 6 4 8 2 C14.14705882 1.44117647 14.14705882 1.44117647 16.8125 3.1875 C18.23711069 5.36190579 19.13984883 7.55187745 20 10 C20.13277344 9.36191406 20.26554687 8.72382813 20.40234375 8.06640625 C20.57894531 7.24011719 20.75554687 6.41382813 20.9375 5.5625 C21.19853516 4.32693359 21.19853516 4.32693359 21.46484375 3.06640625 C22 1 22 1 23 0 C25.9375 -0.1875 25.9375 -0.1875 29 0 C31 2 31 2 31.23828125 5.0703125 C30.96990978 9.49624207 30.2077637 13.5713422 29.1875 17.875 C29.02185547 18.64585937 28.85621094 19.41671875 28.68554688 20.2109375 C28.16796875 22.4296875 28.16796875 22.4296875 27 26 C23.23448942 27.25517019 19.93771153 27.43478898 16 27 C14 25.9375 14 25.9375 13 24 C12.8125 20.3125 12.8125 20.3125 13 17 C12.34 17 11.68 17 11 17 C10.87625 18.27875 10.7525 19.5575 10.625 20.875 C10.25 24.75 10.25 24.75 8 27 C5.94140625 27.30078125 5.94140625 27.30078125 3.5625 27.3125 C2.38880859 27.33763672 2.38880859 27.33763672 1.19140625 27.36328125 C-1.55820244 26.90746377 -2.23971142 26.12150387 -4 24 C-4.70776367 22.08642578 -4.70776367 22.08642578 -5.16796875 19.9453125 C-5.33876953 19.16542969 -5.50957031 18.38554687 -5.68554688 17.58203125 C-5.85119141 16.77121094 -6.01683594 15.96039063 -6.1875 15.125 C-6.45336914 13.92037109 -6.45336914 13.92037109 -6.72460938 12.69140625 C-7.56763052 8.73994805 -8.23861883 5.0647483 -8 1 C-5.13879744 -0.43060128 -3.15989415 -0.38692581 0 0 Z " fill="#353331" transform="translate(260,261)"/>
<path d="M0 0 C2.23591744 3.13971216 2.24585871 5.98095158 2.23046875 9.75390625 C2.22853516 10.85541016 2.22660156 11.95691406 2.22460938 13.09179688 C2.20624023 14.80979492 2.20624023 14.80979492 2.1875 16.5625 C2.18685547 17.71169922 2.18621094 18.86089844 2.18554688 20.04492188 C2.14055525 28.57833426 2.14055525 28.57833426 1 32 C-3.35412783 35.65184915 -8.48865111 36.13778372 -14 36 C-19.11029937 34.9159971 -22.17545682 32.33661126 -25 28 C-25.42578125 24.73828125 -25.42578125 24.73828125 -25.3125 21.3125 C-25.28800781 20.17425781 -25.26351563 19.03601563 -25.23828125 17.86328125 C-25 15 -25 15 -24 13 C-23.34 13 -22.68 13 -22 13 C-21.566875 12.0409375 -21.566875 12.0409375 -21.125 11.0625 C-20 9 -20 9 -18 8 C-16.45976004 7.93049459 -14.91665012 7.91547643 -13.375 7.9375 C-12.14910156 7.95103516 -12.14910156 7.95103516 -10.8984375 7.96484375 C-9.95871094 7.98224609 -9.95871094 7.98224609 -9 8 C-9 5.36 -9 2.72 -9 0 C-5.81926598 -1.59036701 -3.37573597 -0.78365299 0 0 Z M-15 18 C-15 20.64 -15 23.28 -15 26 C-13.34385343 26.38218767 -11.67542976 26.71395102 -10 27 C-8.79438816 26.01732141 -8.79438816 26.01732141 -8.90234375 24.15234375 C-8.91394531 23.42144531 -8.92554688 22.69054687 -8.9375 21.9375 C-8.958125 20.638125 -8.97875 19.33875 -9 18 C-12.04913228 16.98888907 -12.04913228 16.98888907 -15 18 Z " fill="#4A4744" transform="translate(361,253)"/>
<path d="M0 0 C1.8125 1.875 1.8125 1.875 2.125 5.0625 C2.021875 5.990625 1.91875 6.91875 1.8125 7.875 C-1.9255022 8.83620056 -4.4467975 8.68380054 -8.1875 7.875 C-9.1775 8.37 -9.1775 8.37 -10.1875 8.875 C-9.59582031 9.10574219 -9.00414062 9.33648437 -8.39453125 9.57421875 C-3.4534865 11.61350802 0.64659012 13.3814505 3.8125 17.875 C4.76701477 22.06804701 4.29620645 24.98498013 2.25 28.75 C-2.18715557 32.61828947 -6.6097004 33.08945236 -12.3125 32.75 C-16.61788792 32.2183896 -19.10653641 31.05866238 -22.1875 27.875 C-21.3125 23.125 -21.3125 23.125 -20.1875 20.875 C-19.41664063 21.019375 -18.64578125 21.16375 -17.8515625 21.3125 C-16.84867187 21.498125 -15.84578125 21.68375 -14.8125 21.875 C-13.81476563 22.060625 -12.81703125 22.24625 -11.7890625 22.4375 C-9.29846455 22.93027983 -9.29846455 22.93027983 -7.1875 22.875 C-7.1875 22.215 -7.1875 21.555 -7.1875 20.875 C-8.21875 20.7925 -9.25 20.71 -10.3125 20.625 C-15.14751074 19.68919147 -18.6016679 18.03749832 -21.5625 14 C-22.74337554 9.98502317 -22.66209346 6.97405853 -21 3.125 C-16.16777652 -2.87362225 -6.70020251 -2.36477736 0 0 Z " fill="#524F4C" transform="translate(426.1875,256.125)"/>
<path d="M0 0 C1.39412109 -0.00773438 1.39412109 -0.00773438 2.81640625 -0.015625 C5.53387539 0.25976681 7.16565799 0.75264958 9.4375 2.25 C10.375 4.625 10.375 4.625 10.4375 7.25 C9 9.5625 9 9.5625 7.4375 11.25 C5.4575 10.59 3.4775 9.93 1.4375 9.25 C1.4375 9.91 1.4375 10.57 1.4375 11.25 C2.06398438 11.56453125 2.69046875 11.8790625 3.3359375 12.203125 C4.15320313 12.63109375 4.97046875 13.0590625 5.8125 13.5 C6.62460937 13.91765625 7.43671875 14.3353125 8.2734375 14.765625 C10.68900997 16.42251586 11.44823627 17.52555712 12.4375 20.25 C12.79263367 23.58825653 12.6095327 25.78766213 11.4375 28.9375 C8.56838452 32.25491477 5.72216412 33.45067611 1.4375 34.25 C-3.46603845 34.30146142 -8.39450367 34.05037253 -12.5625 31.25 C-13.3125 27.625 -13.3125 27.625 -13.5625 24.25 C-12.9025 24.25 -12.2425 24.25 -11.5625 24.25 C-11.5625 23.59 -11.5625 22.93 -11.5625 22.25 C-10.5725 22.4665625 -10.5725 22.4665625 -9.5625 22.6875 C-5.90650449 23.37299916 -2.25627805 23.81175515 1.4375 24.25 C1.4375 23.59 1.4375 22.93 1.4375 22.25 C0.57125 22.1675 -0.295 22.085 -1.1875 22 C-5.09402991 21.13188224 -7.38574019 19.65021852 -10.5625 17.25 C-11.18125 16.8375 -11.8 16.425 -12.4375 16 C-14.37692191 12.98312147 -14.06679055 9.66950438 -13.5625 6.25 C-10.82319265 0.77138529 -5.7199402 -0.03182164 0 0 Z M-2.5625 9.25 C-2.5625 9.91 -2.5625 10.57 -2.5625 11.25 C-1.9025 10.92 -1.2425 10.59 -0.5625 10.25 C-1.2225 9.92 -1.8825 9.59 -2.5625 9.25 Z " fill="#4A4644" transform="translate(445.5625,254.75)"/>
<path d="M0 0 C1.30710938 -0.03996094 2.61421875 -0.07992188 3.9609375 -0.12109375 C8.45069366 0.56337867 9.82571535 1.95149945 12.625 5.4375 C14.1970124 8.58152481 13.80946744 11.92697397 13.8125 15.375 C13.82474609 16.10396484 13.83699219 16.83292969 13.84960938 17.58398438 C13.86012685 21.4088391 13.79595624 23.18106564 11.625 26.4375 C5.24516952 29.08115069 -2.13516734 29.07406018 -8.55078125 26.59765625 C-10.375 25.4375 -10.375 25.4375 -11.75 22.125 C-12.63771874 16.88745941 -11.23851575 14.73277362 -8.375 10.4375 C-9.035 9.7775 -9.695 9.1175 -10.375 8.4375 C-10.6875 5.4375 -10.6875 5.4375 -10.375 2.4375 C-6.64250107 -0.05083262 -4.45553598 0.07440482 0 0 Z M-6.375 10.4375 C-3.735 10.1075 -1.095 9.7775 1.625 9.4375 C1.625 9.1075 1.625 8.7775 1.625 8.4375 C-2.86804582 8.01246554 -2.86804582 8.01246554 -6.375 10.4375 Z M-0.375 17.4375 C-0.705 18.0975 -1.035 18.7575 -1.375 19.4375 C-0.385 19.4375 0.605 19.4375 1.625 19.4375 C1.625 18.7775 1.625 18.1175 1.625 17.4375 C0.965 17.4375 0.305 17.4375 -0.375 17.4375 Z " fill="#343230" transform="translate(208.375,260.5625)"/>
<path d="M0 0 C1.25 2.625 1.25 2.625 2 5 C1.34 5 0.68 5 0 5 C-0.33 5.99 -0.66 6.98 -1 8 C-1.99 8.33 -2.98 8.66 -4 9 C-4.639375 8.67 -5.27875 8.34 -5.9375 8 C-7.93013216 6.81482578 -7.93013216 6.81482578 -10.0625 7.1875 C-12.46419692 8.19466322 -13.54141136 8.81211703 -15 11 C-15.50007794 14.54213985 -15.50007794 14.54213985 -15 18 C-14.01 18.66 -13.02 19.32 -12 20 C-12 20.66 -12 21.32 -12 22 C-11.31292969 21.89300781 -10.62585938 21.78601563 -9.91796875 21.67578125 C-9.01691406 21.55589844 -8.11585938 21.43601562 -7.1875 21.3125 C-6.29417969 21.18488281 -5.40085937 21.05726563 -4.48046875 20.92578125 C-2 21 -2 21 -0.1796875 22.32421875 C1 24 1 24 1.0625 26.5 C0 29 0 29 -2.5625 30.8125 C-8.18931662 32.75630938 -12.22353726 32.59215425 -17.75 30.75 C-21.83677597 28.54942832 -24.41737192 26.77321589 -25.8984375 22.265625 C-27.12685738 14.49234513 -27.46707937 9.05305897 -23.25 2.125 C-17.68536022 -3.13049313 -6.54305748 -4.31313655 0 0 Z " fill="#464240" transform="translate(402,257)"/>
<path d="M0 0 C1.22332031 -0.03738281 2.44664062 -0.07476562 3.70703125 -0.11328125 C7.79249454 0.38651168 9.38365239 1.34188078 12.1875 4.3125 C12.89453125 6.21484375 12.89453125 6.21484375 13 8.25 C13.04511719 9.02214844 13.09023438 9.79429687 13.13671875 10.58984375 C13.16185547 11.93755859 13.16185547 11.93755859 13.1875 13.3125 C13.21457031 14.44816406 13.24164063 15.58382813 13.26953125 16.75390625 C13.34690546 23.1618979 13.34690546 23.1618979 13.1875 26.3125 C12.1875 27.3125 12.1875 27.3125 8.75 27.4375 C5.1875 27.3125 5.1875 27.3125 3.1875 26.3125 C2.87508545 23.59803021 2.67413408 20.97340639 2.5625 18.25 C2.52382813 17.49138672 2.48515625 16.73277344 2.4453125 15.95117188 C2.35076438 14.07202805 2.26803244 12.19229664 2.1875 10.3125 C0.8675 10.3125 -0.4525 10.3125 -1.8125 10.3125 C-2.1425 15.9225 -2.4725 21.5325 -2.8125 27.3125 C-9.8125 27.3125 -9.8125 27.3125 -11.72290039 26.06591797 C-13.76745496 22.77575644 -13.28295045 19.20583316 -13.25 15.4375 C-13.26998047 14.63441406 -13.28996094 13.83132813 -13.31054688 13.00390625 C-13.30718958 8.92815016 -13.13699153 6.82555642 -10.91015625 3.3046875 C-7.35398575 -0.07268113 -4.83414345 0.09617668 0 0 Z " fill="#484542" transform="translate(319.8125,260.6875)"/>
<path d="M0 0 C1.03688965 0.01047363 2.0737793 0.02094727 3.14208984 0.03173828 C4.26357422 0.03818359 5.38505859 0.04462891 6.54052734 0.05126953 C7.71615234 0.06802734 8.89177734 0.08478516 10.10302734 0.10205078 C11.87806641 0.11558594 11.87806641 0.11558594 13.68896484 0.12939453 C16.61885257 0.15302266 19.54834075 0.18596564 22.47802734 0.22705078 C23.10302734 3.60205078 23.10302734 3.60205078 23.47802734 7.22705078 C21.47802734 9.22705078 21.47802734 9.22705078 17.85302734 9.35205078 C16.73927734 9.31080078 15.62552734 9.26955078 14.47802734 9.22705078 C14.48588257 10.26430298 14.48588257 10.26430298 14.49389648 11.32250977 C14.51460235 14.4365143 14.52766698 17.55050439 14.54052734 20.66455078 C14.54890625 21.75316406 14.55728516 22.84177734 14.56591797 23.96337891 C14.57075195 25.51508789 14.57075195 25.51508789 14.57568359 27.09814453 C14.58353882 28.53565063 14.58353882 28.53565063 14.59155273 30.00219727 C14.47802734 32.22705078 14.47802734 32.22705078 13.47802734 33.22705078 C7.01648888 33.58602514 7.01648888 33.58602514 3.47802734 31.22705078 C3.0456543 29.07226562 3.0456543 29.07226562 2.96630859 26.43798828 C2.93085938 25.49697266 2.89541016 24.55595703 2.85888672 23.58642578 C2.83632812 22.60158203 2.81376953 21.61673828 2.79052734 20.60205078 C2.73928711 19.11318359 2.73928711 19.11318359 2.68701172 17.59423828 C2.60437078 15.13862172 2.53527608 12.68336937 2.47802734 10.22705078 C0.16802734 9.89705078 -2.14197266 9.56705078 -4.52197266 9.22705078 C-4.64697266 5.85205078 -4.64697266 5.85205078 -4.52197266 2.22705078 C-2.52197266 0.22705078 -2.52197266 0.22705078 0 0 Z " fill="#353331" transform="translate(174.52197265625,254.77294921875)"/>
<path d="M0 0 C0.99 0 1.98 0 3 0 C2.479547 5.57318421 1.03147532 9.8387325 -1.5 14.8125 C-1.85457275 15.51101074 -2.20914551 16.20952148 -2.57446289 16.92919922 C-8.87220134 28.84741113 -17.75092249 37.17335151 -30.625 41.3125 C-47.44983077 46.23532085 -66.39002165 45.36226386 -82.0625 37.125 C-86.53351262 34.43145417 -91.20487481 31.61026236 -95 28 C-95 27.34 -95 26.68 -95 26 C-93.35 26.33 -91.7 26.66 -90 27 C-89.67 27.99 -89.34 28.98 -89 30 C-87.35 30 -85.7 30 -84 30 C-84 30.66 -84 31.32 -84 32 C-83.175 32.495 -82.35 32.99 -81.5 33.5 C-80.675 33.995 -79.85 34.49 -79 35 C-79 35.66 -79 36.32 -79 37 C-62.12442985 40.36530379 -62.12442985 40.36530379 -45 41 C-44.67 40.67 -44.34 40.34 -44 40 C-40.9109096 39.58560982 -37.82422573 39.23055975 -34.72265625 38.92578125 C-30.40431044 38.42522643 -27.61667864 37.34699359 -24 35 C-23.01 35 -22.02 35 -21 35 C-21 34.01 -21 33.02 -21 32 C-19.02 31.67 -17.04 31.34 -15 31 C-15.495 29.02 -15.495 29.02 -16 27 C-14.68 27 -13.36 27 -12 27 C-12 26.34 -12 25.68 -12 25 C-11.01 25 -10.02 25 -9 25 C-9 22.36 -9 19.72 -9 17 C-10.98 17.66 -12.96 18.32 -15 19 C-14.67 18.34 -14.34 17.68 -14 17 C-17.3 16.67 -20.6 16.34 -24 16 C-21.02941919 14.51470959 -18.34895915 13.40305728 -15.25 12.3125 C-8.77329429 9.76397379 -3.85844974 5.78767462 0 0 Z " fill="#71C0DB" transform="translate(373,181)"/>
<path d="M0 0 C2 2 2 2 2.22705078 5.25634766 C2.22673382 6.64229295 2.21541759 8.02826301 2.1953125 9.4140625 C2.1924826 10.14370209 2.18965271 10.87334167 2.18673706 11.62509155 C2.17553002 13.95856028 2.1504251 16.29164703 2.125 18.625 C2.11497085 20.20572363 2.10584489 21.78645327 2.09765625 23.3671875 C2.07558905 27.24493914 2.04105615 31.12240478 2 35 C0.54207116 35.05399736 -0.91642712 35.09279177 -2.375 35.125 C-3.18710938 35.14820313 -3.99921875 35.17140625 -4.8359375 35.1953125 C-7 35 -7 35 -9 33 C-9.17495606 30.49079154 -9.23169569 28.09375059 -9.1953125 25.5859375 C-9.1924826 24.85629791 -9.18965271 24.12665833 -9.18673706 23.37490845 C-9.17553002 21.04143972 -9.1504251 18.70835297 -9.125 16.375 C-9.11497085 14.79427637 -9.10584489 13.21354673 -9.09765625 11.6328125 C-9.07558905 7.75506086 -9.04105615 3.87759522 -9 0 C-5.88135455 -1.55932272 -3.33704665 -0.65549131 0 0 Z " fill="#504D49" transform="translate(248,253)"/>
<path d="M0 0 C2 2 2 2 2.3125 4.375 C1.94914998 7.42714016 1.01544839 8.73262056 -1 11 C-0.34 11 0.32 11 1 11 C1.99259618 13.97778854 2.12891582 15.96242951 2.1328125 19.0703125 C2.13474609 20.53791016 2.13474609 20.53791016 2.13671875 22.03515625 C2.13285156 23.05480469 2.12898437 24.07445312 2.125 25.125 C2.12886719 26.15238281 2.13273438 27.17976563 2.13671875 28.23828125 C2.13542969 29.21410156 2.13414062 30.18992187 2.1328125 31.1953125 C2.13168457 32.09266113 2.13055664 32.99000977 2.12939453 33.91455078 C2 36 2 36 1 37 C-4.73611111 37.27314815 -4.73611111 37.27314815 -7 37 C-9 35 -9 35 -9.24291992 32.6015625 C-9.23881104 31.61929687 -9.23470215 30.63703125 -9.23046875 29.625 C-9.22853516 28.55765625 -9.22660156 27.4903125 -9.22460938 26.390625 C-9.21236328 25.27171875 -9.20011719 24.1528125 -9.1875 23 C-9.18685547 21.88109375 -9.18621094 20.7621875 -9.18554688 19.609375 C-9.14028159 11.28056319 -9.14028159 11.28056319 -8 9 C-8.33 8.34 -8.66 7.68 -9 7 C-9.039992 5.00039988 -9.04346799 2.99952758 -9 1 C-5.75778445 -0.08073852 -3.39597063 -0.21676408 0 0 Z " fill="#53504E" transform="translate(234,251)"/>
<path d="M0 0 C2.25 1.5 2.25 1.5 3.1875 3.875 C3.25562203 6.73612509 2.75751963 8.10570412 1.25 10.5 C1.58 10.83 1.91 11.16 2.25 11.5 C2.63386532 15.2784889 2.72032728 19.08096927 2.875 22.875 C2.9265625 23.94234375 2.978125 25.0096875 3.03125 26.109375 C3.07507813 27.13289063 3.11890625 28.15640625 3.1640625 29.2109375 C3.2048291 30.15243652 3.2455957 31.09393555 3.28759766 32.06396484 C3.25 34.5 3.25 34.5 2.25 37.5 C-4.22073619 37.86626809 -4.22073619 37.86626809 -6.45996094 36.31665039 C-8.20395766 33.8607307 -8.10806172 32.24157234 -8.078125 29.24609375 C-8.07296875 28.22708984 -8.0678125 27.20808594 -8.0625 26.15820312 C-8.041875 25.09537109 -8.02125 24.03253906 -8 22.9375 C-7.99484375 21.87080078 -7.9896875 20.80410156 -7.984375 19.70507812 C-7.90436126 11.80872253 -7.90436126 11.80872253 -6.75 9.5 C-7.03241883 7.1599583 -7.36250787 4.82495277 -7.75 2.5 C-3.52247191 -0.64044944 -3.52247191 -0.64044944 0 0 Z " fill="#444241" transform="translate(300.75,250.5)"/>
<path d="M0 0 C2.27338765 2.6522856 2.95526736 4.32901036 3.1875 7.8125 C3.125625 8.534375 3.06375 9.25625 3 10 C3.66 10 4.32 10 5 10 C5 11.32 5 12.64 5 14 C5.928125 13.773125 6.85625 13.54625 7.8125 13.3125 C11 13 11 13 12.8125 14.25 C14.60388855 16.88994103 15.07653061 18.52988337 14.5625 21.6875 C14.376875 22.450625 14.19125 23.21375 14 24 C13.67 24 13.34 24 13 24 C13 21.69 13 19.38 13 17 C12.34 17 11.68 17 11 17 C10.87625 18.27875 10.7525 19.5575 10.625 20.875 C10.25 24.75 10.25 24.75 8 27 C5.94140625 27.30078125 5.94140625 27.30078125 3.5625 27.3125 C2.38880859 27.33763672 2.38880859 27.33763672 1.19140625 27.36328125 C-1.55820244 26.90746377 -2.23971142 26.12150387 -4 24 C-4.70776367 22.08642578 -4.70776367 22.08642578 -5.16796875 19.9453125 C-5.33876953 19.16542969 -5.50957031 18.38554687 -5.68554688 17.58203125 C-5.85119141 16.77121094 -6.01683594 15.96039063 -6.1875 15.125 C-6.45336914 13.92037109 -6.45336914 13.92037109 -6.72460938 12.69140625 C-7.56763052 8.73994805 -8.23861883 5.0647483 -8 1 C-5.13879744 -0.43060128 -3.15989415 -0.38692581 0 0 Z " fill="#595754" transform="translate(260,261)"/>
<path d="M0 0 C1.8125 1.875 1.8125 1.875 2.125 5.0625 C2.021875 5.990625 1.91875 6.91875 1.8125 7.875 C-1.98318461 8.85298721 -4.6880999 8.80153069 -8.5 7.9375 C-9.38300781 7.74285156 -10.26601563 7.54820312 -11.17578125 7.34765625 C-11.83964844 7.19167969 -12.50351562 7.03570312 -13.1875 6.875 C-13.0225 7.49375 -12.8575 8.1125 -12.6875 8.75 C-12.1875 10.875 -12.1875 10.875 -12.1875 12.875 C-8.7225 12.38 -8.7225 12.38 -5.1875 11.875 C-4.89875 12.679375 -4.61 13.48375 -4.3125 14.3125 C-3.45487432 17.0076468 -3.45487432 17.0076468 -1.1875 17.875 C-4.1875 18.875 -4.1875 18.875 -6.5625 17.875 C-9.59861787 16.71838367 -11.11454527 16.99701294 -14.1875 17.875 C-14.5175 17.215 -14.8475 16.555 -15.1875 15.875 C-16.9638932 14.8004644 -16.9638932 14.8004644 -18.1875 14.875 C-19.1775 14.545 -20.1675 14.215 -21.1875 13.875 C-22.59750664 11.05498673 -22.43298451 9.00492745 -22.1875 5.875 C-20.83883943 2.75178604 -19.98919224 1.27101665 -16.91796875 -0.24609375 C-11.38133772 -2.02827112 -5.46895895 -1.9302208 0 0 Z " fill="#494644" transform="translate(426.1875,256.125)"/>
<path d="M0 0 C1.875 0.1875 1.875 0.1875 4 1 C5.375 3.375 5.375 3.375 6 6 C5.01 7.485 5.01 7.485 4 9 C3.97250522 11.06910593 3.97250522 11.06910593 4.375 13.1875 C4.58125 14.445625 4.7875 15.70375 5 17 C7.41645782 17.16687448 7.41645782 17.16687448 10 17 C10.66 16.34 11.32 15.68 12 15 C11.6875 16.875 11.6875 16.875 11 19 C10.01 19.66 9.02 20.32 8 21 C8 21.99 8 22.98 8 24 C7.34 24 6.68 24 6 24 C6 24.66 6 25.32 6 26 C2.09129988 25.81819999 0.23593027 25.18464108 -2.875 22.75 C-6.48583139 18.02814357 -5.54266602 11.61271716 -5 6 C-4.67 5.34 -4.34 4.68 -4 4 C-3.34 4 -2.68 4 -2 4 C-1.34 2.68 -0.68 1.36 0 0 Z " fill="#43423C" transform="translate(341,262)"/>
<path d="M0 0 C1.00998047 0.00064453 2.01996094 0.00128906 3.06054688 0.00195312 C7.59336334 0.02888075 11.75011204 0.18974707 16.1875 1.1875 C15.1975 1.8475 14.2075 2.5075 13.1875 3.1875 C13.6825 4.1775 13.6825 4.1775 14.1875 5.1875 C11.7125 4.6925 11.7125 4.6925 9.1875 4.1875 C9.1875 3.5275 9.1875 2.8675 9.1875 2.1875 C-11.09692237 1.8482348 -11.09692237 1.8482348 -28.9921875 10.07421875 C-30.8035762 12.14449066 -30.8035762 12.14449066 -32.8125 15.1875 C-33.4725 15.1875 -34.1325 15.1875 -34.8125 15.1875 C-35.1425 15.8475 -35.4725 16.5075 -35.8125 17.1875 C-36.8025 16.5275 -37.7925 15.8675 -38.8125 15.1875 C-38.8125 16.5075 -38.8125 17.8275 -38.8125 19.1875 C-39.616875 19.435 -40.42125 19.6825 -41.25 19.9375 C-43.983581 20.90988859 -43.983581 20.90988859 -44.625 23.3125 C-44.686875 23.93125 -44.74875 24.55 -44.8125 25.1875 C-46.1325 24.8575 -47.4525 24.5275 -48.8125 24.1875 C-39.9336451 11.95132809 -29.81664219 3.36195549 -14.56445312 0.55151367 C-9.71013625 -0.09058946 -4.88860927 -0.06043173 0 0 Z " fill="#5CBADC" transform="translate(322.8125,94.8125)"/>
<path d="M0 0 C0.66 0.33 1.32 0.66 2 1 C0.68 2.65 -0.64 4.3 -2 6 C-1.01 5.67 -0.02 5.34 1 5 C1.99 6.485 1.99 6.485 3 8 C3.99 7.34 4.98 6.68 6 6 C8.1875 6.375 8.1875 6.375 10 7 C9.01 7.66 8.02 8.32 7 9 C6.61615491 11.93597539 6.396157 14.68027373 6.3125 17.625 C6.27833984 18.42679687 6.24417969 19.22859375 6.20898438 20.0546875 C6.12643122 22.03596318 6.06154084 24.01796037 6 26 C-0.50180045 26.36802644 -0.50180045 26.36802644 -2.70336914 24.74169922 C-5.06428544 21.57039873 -4.4708778 17.9422064 -4.4375 14.125 C-4.45748047 13.32191406 -4.47746094 12.51882813 -4.49804688 11.69140625 C-4.49460463 7.51251647 -4.3350788 5.50746038 -1.97265625 1.9296875 C-1.32167969 1.29289062 -0.67070312 0.65609375 0 0 Z " fill="#373532" transform="translate(311,262)"/>
<path d="M0 0 C0.66 0.33 1.32 0.66 2 1 C1.01 2.485 1.01 2.485 0 4 C1.32 3.67 2.64 3.34 4 3 C4 3.66 4 4.32 4 5 C3.34 5 2.68 5 2 5 C2.33 6.32 2.66 7.64 3 9 C3.99 7.68 4.98 6.36 6 5 C7.32 5.33 8.64 5.66 10 6 C9.01 6.495 9.01 6.495 8 7 C8.99 7.33 9.98 7.66 11 8 C11.33 7.01 11.66 6.02 12 5 C12 5.99 12 6.98 12 8 C12.7425 8.268125 13.485 8.53625 14.25 8.8125 C16.86636554 9.94229421 18.80187111 11.20893202 21 13 C20 15 20 15 18.25 15.66796875 C11.90955628 17.13199482 5.99625012 17.5425382 -0.17578125 15.16015625 C-2 14 -2 14 -3.375 10.6875 C-4.031961 6.81143008 -3.91601479 5.35302589 -2 2 C-1.34 1.34 -0.68 0.68 0 0 Z " fill="#514F4B" transform="translate(200,272)"/>
<path d="M0 0 C-0.99 0.66 -1.98 1.32 -3 2 C-3.33 2.99 -3.66 3.98 -4 5 C-6.0390625 5.95703125 -6.0390625 5.95703125 -8.625 6.8125 C-14.34869486 8.98242724 -19.2409173 11.51952923 -22.09375 17.1640625 C-22.82340355 19.07602504 -23.42439154 21.03615938 -24 23 C-24.99 23 -25.98 23 -27 23 C-27.309375 23.78375 -27.61875 24.5675 -27.9375 25.375 C-29 28 -29 28 -30 30 C-26.535 29.505 -26.535 29.505 -23 29 C-23 28.34 -23 27.68 -23 27 C-21.35 27 -19.7 27 -18 27 C-18.99 27.7734375 -18.99 27.7734375 -20 28.5625 C-22.44859282 30.55198167 -24.86012445 32.56609642 -27.25 34.625 C-27.93578125 35.21539062 -28.6215625 35.80578125 -29.328125 36.4140625 C-31.09861901 37.91295942 -31.09861901 37.91295942 -32 40 C-32.99 39.67 -33.98 39.34 -35 39 C-32.98973786 26.93842714 -27.57929319 17.61402717 -19 9 C-18.36191406 8.31421875 -17.72382813 7.6284375 -17.06640625 6.921875 C-14.84988235 4.86038207 -12.76589191 3.59961322 -10.0625 2.25 C-8.81146484 1.60804688 -8.81146484 1.60804688 -7.53515625 0.953125 C-4.83736582 -0.06114444 -2.85635373 -0.18395122 0 0 Z " fill="#57B7DA" transform="translate(249,162)"/>
<path d="M0 0 C0.99 0.33 1.98 0.66 3 1 C3 1.66 3 2.32 3 3 C3.68707031 2.89300781 4.37414062 2.78601563 5.08203125 2.67578125 C5.98308594 2.55589844 6.88414062 2.43601562 7.8125 2.3125 C8.70582031 2.18488281 9.59914063 2.05726563 10.51953125 1.92578125 C13 2 13 2 14.8203125 3.32421875 C16 5 16 5 16.0625 7.5 C15 10 15 10 12.4375 11.8125 C6.81068338 13.75630938 2.77646274 13.59215425 -2.75 11.75 C-5.79018402 10.11297783 -7.76065975 8.59763469 -10 6 C-9.67 5.01 -9.34 4.02 -9 3 C-9 3.66 -9 4.32 -9 5 C-7.35 5.33 -5.7 5.66 -4 6 C-3.67 5.34 -3.34 4.68 -3 4 C-2.01 4.66 -1.02 5.32 0 6 C0.66 4.68 1.32 3.36 2 2 C1.34 2 0.68 2 0 2 C0 1.34 0 0.68 0 0 Z " fill="#5D5957" transform="translate(387,276)"/>
<path d="M0 0 C0.99 0 1.98 0 3 0 C2.57664615 6.49142565 0.08900201 11.33492989 -3 17 C-3.66 17 -4.32 17 -5 17 C-5 17.66 -5 18.32 -5 19 C-6.32 19.33 -7.64 19.66 -9 20 C-9 19.01 -9 18.02 -9 17 C-10.98 17.66 -12.96 18.32 -15 19 C-14.67 18.34 -14.34 17.68 -14 17 C-17.3 16.67 -20.6 16.34 -24 16 C-21.02941919 14.51470959 -18.34895915 13.40305728 -15.25 12.3125 C-8.77329429 9.76397379 -3.85844974 5.78767462 0 0 Z " fill="#3CB8EC" transform="translate(373,181)"/>
<path d="M0 0 C0.4125 0.66 0.825 1.32 1.25 2 C1.8275 2.66 2.405 3.32 3 4 C4.32 4 5.64 4 7 4 C8.65497356 7.30994713 8.10084335 10.99123 8.0625 14.625 C8.05798828 15.42679687 8.05347656 16.22859375 8.04882812 17.0546875 C8.03703168 19.03649006 8.01909605 21.01825433 8 23 C1.25 23.125 1.25 23.125 -1 22 C-1.02887814 18.52085059 -1.04675687 15.04173169 -1.0625 11.5625 C-1.07087891 10.56927734 -1.07925781 9.57605469 -1.08789062 8.55273438 C-1.09111328 7.60849609 -1.09433594 6.66425781 -1.09765625 5.69140625 C-1.10289307 4.81685791 -1.10812988 3.94230957 -1.11352539 3.04125977 C-1 1 -1 1 0 0 Z " fill="#3D3A38" transform="translate(180,265)"/>
<path d="M0 0 C0.99 0.495 0.99 0.495 2 1 C-1.90909091 11.22377622 -1.90909091 11.22377622 -6 15 C-6.804375 16.010625 -7.60875 17.02125 -8.4375 18.0625 C-10.75456469 20.71864733 -11.90662913 21.65953929 -15 23 C-15.4021875 23.45761719 -15.804375 23.91523438 -16.21875 24.38671875 C-18.68335705 26.61891768 -21.26902032 27.46647669 -24.375 28.625 C-25.49648438 29.05039063 -26.61796875 29.47578125 -27.7734375 29.9140625 C-32.53308595 31.51597808 -36.76276513 32.1270911 -41.78125 32.1328125 C-43.41513672 32.13474609 -43.41513672 32.13474609 -45.08203125 32.13671875 C-46.20996094 32.13285156 -47.33789062 32.12898438 -48.5 32.125 C-50.19189453 32.13080078 -50.19189453 32.13080078 -51.91796875 32.13671875 C-53.00722656 32.13542969 -54.09648437 32.13414062 -55.21875 32.1328125 C-56.20810547 32.13168457 -57.19746094 32.13055664 -58.21679688 32.12939453 C-60.91168052 32.00410608 -63.37469861 31.60357957 -66 31 C-66 30.67 -66 30.34 -66 30 C-64.82195801 29.970271 -64.82195801 29.970271 -63.62011719 29.93994141 C-59.99645801 29.84357316 -56.37328963 29.73435482 -52.75 29.625 C-50.89761719 29.57859375 -50.89761719 29.57859375 -49.0078125 29.53125 C-35.92388244 29.90334743 -35.92388244 29.90334743 -24.33105469 25.49462891 C-23.89180664 25.00140137 -23.45255859 24.50817383 -23 24 C-21.34183216 23.31246699 -19.67540664 22.64438717 -18 22 C-17.34 21.34 -16.68 20.68 -16 20 C-15.01 20 -14.02 20 -13 20 C-13 18.68 -13 17.36 -13 16 C-11.35 15.67 -9.7 15.34 -8 15 C-8 13.68 -8 12.36 -8 11 C-6.68 11 -5.36 11 -4 11 C-3.855625 10.05125 -3.71125 9.1025 -3.5625 8.125 C-3 5 -3 5 -2 3 C-1.34 3 -0.68 3 0 3 C0 2.01 0 1.02 0 0 Z " fill="#63BADE" transform="translate(424,128)"/>
<path d="M0 0 C2.30791463 6.61602194 3.11800818 12.03751751 3 19 C-1.75 20.125 -1.75 20.125 -4 19 C-4 18.01 -4 17.02 -4 16 C-4.66 16 -5.32 16 -6 16 C-6.33951619 14.43883181 -6.67132544 12.87598662 -7 11.3125 C-7.185625 10.44238281 -7.37125 9.57226562 -7.5625 8.67578125 C-7.98972047 6.06287036 -8.07616201 3.64186962 -8 1 C-5.29120665 -0.35439668 -2.99066732 -0.06501451 0 0 Z " fill="#3F3C39" transform="translate(260,261)"/>
<path d="M0 0 C1.4540625 0.0309375 1.4540625 0.0309375 2.9375 0.0625 C3.2675 1.0525 3.5975 2.0425 3.9375 3.0625 C4.5975 3.0625 5.2575 3.0625 5.9375 3.0625 C6.28365998 8.71644631 5.37175238 12.09256806 2.9375 17.0625 C1.2875 17.0625 -0.3625 17.0625 -2.0625 17.0625 C-2.3925 16.0725 -2.7225 15.0825 -3.0625 14.0625 C-4.0525 13.4025 -5.0425 12.7425 -6.0625 12.0625 C-6.0625 11.4025 -6.0625 10.7425 -6.0625 10.0625 C-5.4025 10.0625 -4.7425 10.0625 -4.0625 10.0625 C-4.07410156 9.42441406 -4.08570313 8.78632813 -4.09765625 8.12890625 C-4.10667969 7.30261719 -4.11570312 6.47632813 -4.125 5.625 C-4.13660156 4.80128906 -4.14820313 3.97757812 -4.16015625 3.12890625 C-4.00103255 -0.23815127 -3.43619093 0.07012635 0 0 Z " fill="#353231" transform="translate(357.0625,253.9375)"/>
<path d="M0 0 C1.30710938 -0.03996094 2.61421875 -0.07992188 3.9609375 -0.12109375 C8.45069366 0.56337867 9.82571535 1.95149945 12.625 5.4375 C14.21912284 8.62574568 13.72674735 12.06646662 13.6875 15.5625 C13.68298828 16.31660156 13.67847656 17.07070313 13.67382812 17.84765625 C13.66203499 19.71097127 13.64409942 21.57424555 13.625 23.4375 C13.295 23.4375 12.965 23.4375 12.625 23.4375 C12.625 18.4875 12.625 13.5375 12.625 8.4375 C11.965 8.1075 11.305 7.7775 10.625 7.4375 C9.29166667 6.77083333 7.95833333 6.10416667 6.625 5.4375 C6.955 4.4475 7.285 3.4575 7.625 2.4375 C5.645 2.4375 3.665 2.4375 1.625 2.4375 C1.295 3.0975 0.965 3.7575 0.625 4.4375 C-0.365 4.4375 -1.355 4.4375 -2.375 4.4375 C-2.375 5.0975 -2.375 5.7575 -2.375 6.4375 C0.595 6.9325 0.595 6.9325 3.625 7.4375 C3.955 8.7575 4.285 10.0775 4.625 11.4375 C1.625 11.4375 1.625 11.4375 -1.3125 10.375 C-4.46451812 9.41009649 -5.36229161 9.57672617 -8.375 10.4375 C-10.375 8.4375 -10.375 8.4375 -10.6875 5.4375 C-10.584375 4.4475 -10.48125 3.4575 -10.375 2.4375 C-6.64250107 -0.05083262 -4.45553598 0.07440482 0 0 Z " fill="#3E3B37" transform="translate(208.375,260.5625)"/>
<path d="M0 0 C0.9590625 0.2165625 0.9590625 0.2165625 1.9375 0.4375 C5.93844788 1.17236798 9.95504896 1.58581111 14 2 C14.85709523 5.07394306 15.15444061 6.95647475 14 10 C11.67404054 11.16297973 10.21276769 11.16600691 7.625 11.1875 C6.85414063 11.20167969 6.08328125 11.21585937 5.2890625 11.23046875 C2.70072445 10.96986816 1.14130448 10.47987932 -1 9 C-1.75 5.375 -1.75 5.375 -2 2 C-1.34 2 -0.68 2 0 2 C0 1.34 0 0.68 0 0 Z " fill="#353432" transform="translate(434,277)"/>
<path d="M0 0 C2.25 1.5 2.25 1.5 3.25 3.8125 C3.25 7.33639936 2.54674566 8.83281149 0.25 11.5 C-1.73 11.83 -3.71 12.16 -5.75 12.5 C-6.08 19.76 -6.41 27.02 -6.75 34.5 C-7.08 34.5 -7.41 34.5 -7.75 34.5 C-7.7789337 30.70834926 -7.79677601 26.91672673 -7.8125 23.125 C-7.82087891 22.04476563 -7.82925781 20.96453125 -7.83789062 19.8515625 C-7.84111328 18.8203125 -7.84433594 17.7890625 -7.84765625 16.7265625 C-7.85289307 15.77346191 -7.85812988 14.82036133 -7.86352539 13.83837891 C-7.75 11.5 -7.75 11.5 -6.75 9.5 C-7.03241883 7.1599583 -7.36250787 4.82495277 -7.75 2.5 C-3.52247191 -0.64044944 -3.52247191 -0.64044944 0 0 Z " fill="#85827C" transform="translate(300.75,250.5)"/>
<path d="M0 0 C3.0625 0.1875 3.0625 0.1875 5.0625 2.1875 C5.82450457 9.04554117 3.73232798 15.57776424 2.0625 22.1875 C1.7325 22.1875 1.4025 22.1875 1.0625 22.1875 C0.98902344 21.23037109 0.98902344 21.23037109 0.9140625 20.25390625 C0.83929688 19.42761719 0.76453125 18.60132813 0.6875 17.75 C0.58308594 16.51443359 0.58308594 16.51443359 0.4765625 15.25390625 C0.27160156 14.23103516 0.27160156 14.23103516 0.0625 13.1875 C-0.5975 12.8575 -1.2575 12.5275 -1.9375 12.1875 C-1.9375 11.5275 -1.9375 10.8675 -1.9375 10.1875 C-2.9275 10.1875 -3.9175 10.1875 -4.9375 10.1875 C-4.79700482 8.70781676 -4.64995174 7.22875484 -4.5 5.75 C-4.41878906 4.92628906 -4.33757812 4.10257812 -4.25390625 3.25390625 C-3.7555027 -0.00109963 -3.3899687 0.21638098 0 0 Z M1.0625 11.1875 C2.0625 13.1875 2.0625 13.1875 2.0625 13.1875 Z " fill="#4D4A46" transform="translate(285.9375,260.8125)"/>
<path d="M0 0 C0.33 1.32 0.66 2.64 1 4 C0.34 3.34 -0.32 2.68 -1 2 C-4.08347826 1.83318891 -4.08347826 1.83318891 -7 2 C-7.33 4.97 -7.66 7.94 -8 11 C-8.66 11 -9.32 11 -10 11 C-9.34 11.78375 -8.68 12.5675 -8 13.375 C-6 16 -6 16 -6 18 C-6.66 18 -7.32 18 -8 18 C-8 19.65 -8 21.3 -8 23 C-8.33 23 -8.66 23 -9 23 C-9.33 21.35 -9.66 19.7 -10 18 C-11.65 18 -13.3 18 -15 18 C-15 19.98 -15 21.96 -15 24 C-15.33 24 -15.66 24 -16 24 C-17.12765957 17.60992908 -17.12765957 17.60992908 -16.4375 14.3125 C-15.68602341 11.61847762 -15.68602341 11.61847762 -18 8 C-15.03 8 -12.06 8 -9 8 C-9 5.36 -9 2.72 -9 0 C-5.93109813 -1.53445094 -3.29905734 -0.54984289 0 0 Z " fill="#646156" transform="translate(361,253)"/>
<path d="M0 0 C4.99781971 1.51449082 8.2451686 4.52989516 12 8 C12.804375 8.7425 13.60875 9.485 14.4375 10.25 C16 12 16 12 16 14 C17.2065625 14.433125 17.2065625 14.433125 18.4375 14.875 C21 16 21 16 22 18 C24.02463255 18.65213292 24.02463255 18.65213292 26 19 C26 19.66 26 20.32 26 21 C27.65 21.33 29.3 21.66 31 22 C31 22.66 31 23.32 31 24 C32.65 24 34.3 24 36 24 C36.495 25.485 36.495 25.485 37 27 C30.66893159 26.66678587 26.1838854 23.30257041 21 20 C20.07316406 19.48179687 19.14632813 18.96359375 18.19140625 18.4296875 C17.46824219 17.95789063 16.74507813 17.48609375 16 17 C16 16.34 16 15.68 16 15 C15.46375 14.773125 14.9275 14.54625 14.375 14.3125 C8.53090348 11.08286771 4.00394381 6.28179821 0 1 C0 0.67 0 0.34 0 0 Z " fill="#73BEDD" transform="translate(319,131)"/>
<path d="M0 0 C2.475 0.99 2.475 0.99 5 2 C5 1.34 5 0.68 5 0 C5.66 0.33 6.32 0.66 7 1 C7 1.33 7 1.66 7 2 C8.98 2 10.96 2 13 2 C11.68 2.33 10.36 2.66 9 3 C9 10.59 9 18.18 9 26 C8.67 26 8.34 26 8 26 C7.67 20.72 7.34 15.44 7 10 C5.35 9.67 3.7 9.34 2 9 C0.9986012 5.99580359 0.48578543 3.12290635 0 0 Z M-2 4 C-1.01 4.495 -1.01 4.495 0 5 C-0.33 11.6 -0.66 18.2 -1 25 C-1.33 25 -1.66 25 -2 25 C-2 18.07 -2 11.14 -2 4 Z " fill="#6A6562" transform="translate(180,261)"/>
<path d="M0 0 C3.83742934 0.09120033 7.52894004 0.55690667 11.3125 1.1875 C10.3125 4.1875 10.3125 4.1875 8.3125 5.1875 C7.3225 6.6725 7.3225 6.6725 6.3125 8.1875 C4.9203125 7.9090625 4.9203125 7.9090625 3.5 7.625 C0.29906229 6.94626119 0.29906229 6.94626119 -2.6875 8.1875 C-3.0175 9.1775 -3.3475 10.1675 -3.6875 11.1875 C-4.3475 9.5375 -5.0075 7.8875 -5.6875 6.1875 C-6.3475 6.1875 -7.0075 6.1875 -7.6875 6.1875 C-4.91666667 0.25 -4.91666667 0.25 0 0 Z " fill="#353232" transform="translate(316.6875,261.8125)"/>
<path d="M0 0 C2 2 2 2 2.3125 4.375 C1.92888601 7.5973575 1.45740444 8.85968 -1 11 C-4.6875 11.25 -4.6875 11.25 -8 11 C-8.33 7.7 -8.66 4.4 -9 1 C-5.75778445 -0.08073852 -3.39597063 -0.21676408 0 0 Z " fill="#63605E" transform="translate(234,251)"/>
<path d="M0 0 C0.33 0 0.66 0 1 0 C1.19622241 4.21878192 0.80230168 7.17010894 -1 11 C-0.34 11 0.32 11 1 11 C1 9.68 1 8.36 1 7 C4 5 4 5 7 4 C7.99 4.33 8.98 4.66 10 5 C10 4.34 10 3.68 10 3 C11.98 3 13.96 3 16 3 C13.94212197 5.66313628 12.73400298 6.07337849 9.375 7 C8.26125 7.33 7.1475 7.66 6 8 C5.67 8.99 5.34 9.98 5 11 C4.01 11 3.02 11 2 11 C1.9175 11.598125 1.835 12.19625 1.75 12.8125 C0.78423221 15.62932273 -0.48868567 16.47799132 -3 18 C-3.66 18 -4.32 18 -5 18 C-4.65402571 12.5240621 -4.17088679 8.6242099 -1 4 C-0.30420546 1.80869466 -0.30420546 1.80869466 0 0 Z " fill="#61BDE3" transform="translate(273,120)"/>
<path d="M0 0 C2.4375 0.375 2.4375 0.375 5 1 C6.24377393 3.48754786 6.13306235 5.22655301 6.125 8 C6.12757813 8.886875 6.13015625 9.77375 6.1328125 10.6875 C6 13 6 13 5 15 C3.35 15 1.7 15 0 15 C-0.33 14.01 -0.66 13.02 -1 12 C-1.66 11.34 -2.32 10.68 -3 10 C-2.01 10 -1.02 10 0 10 C-0.185625 9.46375 -0.37125 8.9275 -0.5625 8.375 C-1.11419324 5.38009386 -0.60597444 2.96254171 0 0 Z " fill="#343131" transform="translate(281,271)"/>
<path d="M0 0 C1 3 1 3 1 5 C4.465 4.505 4.465 4.505 8 4 C8.28875 4.804375 8.5775 5.60875 8.875 6.4375 C9.73262568 9.1326468 9.73262568 9.1326468 12 10 C9 11 9 11 6.625 10 C3.58888213 8.84338367 2.07295473 9.12201294 -1 10 C-1.33 9.34 -1.66 8.68 -2 8 C-3.7763932 6.9254644 -3.7763932 6.9254644 -5 7 C-5.66 7 -6.32 7 -7 7 C-7 3 -7 3 -5.75 1.25 C-4 0 -4 0 0 0 Z " fill="#353131" transform="translate(413,264)"/>
<path d="M0 0 C1.03688965 0.01047363 2.0737793 0.02094727 3.14208984 0.03173828 C4.26357422 0.03818359 5.38505859 0.04462891 6.54052734 0.05126953 C7.71615234 0.06802734 8.89177734 0.08478516 10.10302734 0.10205078 C11.87806641 0.11558594 11.87806641 0.11558594 13.68896484 0.12939453 C16.61885257 0.15302266 19.54834075 0.18596564 22.47802734 0.22705078 C22.80802734 2.53705078 23.13802734 4.84705078 23.47802734 7.22705078 C21.49802734 8.21705078 21.49802734 8.21705078 19.47802734 9.22705078 C19.80802734 7.24705078 20.13802734 5.26705078 20.47802734 3.22705078 C14.20802734 3.22705078 7.93802734 3.22705078 1.47802734 3.22705078 C0.81802734 4.87705078 0.15802734 6.52705078 -0.52197266 8.22705078 C0.46802734 8.55705078 1.45802734 8.88705078 2.47802734 9.22705078 C-2.27197266 10.35205078 -2.27197266 10.35205078 -4.52197266 9.22705078 C-4.64697266 5.85205078 -4.64697266 5.85205078 -4.52197266 2.22705078 C-2.52197266 0.22705078 -2.52197266 0.22705078 0 0 Z " fill="#5D5C50" transform="translate(174.52197265625,254.77294921875)"/>
<path d="M0 0 C3.40312738 1.05875074 6.01353231 2.00902154 9 4 C9 4.66 9 5.32 9 6 C9.59329102 6.1043335 10.18658203 6.20866699 10.79785156 6.31616211 C13.33922519 7.10534033 14.39312304 8.04491673 16.234375 9.94140625 C16.80800781 10.52470703 17.38164062 11.10800781 17.97265625 11.70898438 C18.55917969 12.32064453 19.14570313 12.93230469 19.75 13.5625 C20.35199219 14.17802734 20.95398438 14.79355469 21.57421875 15.42773438 C23.05634381 16.94514813 24.5290967 18.47170596 26 20 C25.01 20.33 24.02 20.66 23 21 C23 20.34 23 19.68 23 19 C21.35 18.34 19.7 17.68 18 17 C18 16.34 18 15.68 18 15 C17.01 15 16.02 15 15 15 C14.67 14.01 14.34 13.02 14 12 C10.85485381 9.00462268 8.24756627 6.96944253 4.1875 5.4375 C1 4 1 4 0.0625 1.8125 C0.041875 1.214375 0.02125 0.61625 0 0 Z " fill="#72BDDF" transform="translate(296,165)"/>
<path d="M0 0 C-3.88959827 1.27159943 -7.78563579 1.12651187 -11.828125 1.09765625 C-12.57713074 1.0962413 -13.32613647 1.09482635 -14.09783936 1.09336853 C-16.48193412 1.08778659 -18.86593378 1.07523745 -21.25 1.0625 C-22.86979031 1.05748266 -24.48958209 1.05292016 -26.109375 1.04882812 C-30.07295312 1.03782308 -34.03646045 1.02057091 -38 1 C-27.21006432 -6.19329045 -11.6189491 -3.51708729 0 0 Z " fill="#77C1DA" transform="translate(287,161)"/>
<path d="M0 0 C0 0.66 0 1.32 0 2 C-7.35630749 3.96323396 -14.15744935 4.27245787 -21.75 4.1875 C-22.85988281 4.18685547 -23.96976562 4.18621094 -25.11328125 4.18554688 C-29.89499921 4.1596531 -34.32169659 4.06639363 -39 3 C-39 2.67 -39 2.34 -39 2 C-37.79839233 1.96241577 -37.79839233 1.96241577 -36.57250977 1.92407227 C-32.90237974 1.80720265 -29.23244983 1.68489255 -25.5625 1.5625 C-24.30244141 1.52318359 -23.04238281 1.48386719 -21.74414062 1.44335938 C-14.51941802 1.1981338 -7.19000734 0 0 0 Z " fill="#63B8DA" transform="translate(397,156)"/>
<path d="M0 0 C1.27875 -0.061875 2.5575 -0.12375 3.875 -0.1875 C4.95394531 -0.23970703 4.95394531 -0.23970703 6.0546875 -0.29296875 C6.69664062 -0.19628906 7.33859375 -0.09960938 8 0 C8.66 0.99 9.32 1.98 10 3 C9.01 4.485 9.01 4.485 8 6 C6.68 6 5.36 6 4 6 C3.34 7.65 2.68 9.3 2 11 C1.01 10.34 0.02 9.68 -1 9 C-0.67 8.01 -0.34 7.02 0 6 C-0.99 6 -1.98 6 -3 6 C-2 4 -1 2 0 0 Z " fill="#3D3938" transform="translate(202,271)"/>
<path d="M0 0 C2.59696508 1.44275838 4.76847591 2.76011941 6.83984375 4.90625 C12.48674436 10.37955692 19.38148303 13.29922921 27.19995117 13.41308594 C30.14047835 13.35845664 33.0671652 13.21635667 36 13 C36 13.66 36 14.32 36 15 C14.56096863 15.71818095 14.56096863 15.71818095 8.203125 10.53515625 C6.7546845 9.0687895 5.37338742 7.53688592 4 6 C1.80077378 4.64380371 1.80077378 4.64380371 0 4 C0 2.68 0 1.36 0 0 Z " fill="#70C1DF" transform="translate(372,119)"/>
<path d="M0 0 C3.55780196 0.60990891 6.6828589 1.5783681 10 3 C9.0409375 3.1546875 9.0409375 3.1546875 8.0625 3.3125 C7.381875 3.539375 6.70125 3.76625 6 4 C5.67 4.99 5.34 5.98 5 7 C5.66 7.66 6.32 8.32 7 9 C6.34 9 5.68 9 5 9 C5 9.66 5 10.32 5 11 C3.02 10.34 1.04 9.68 -1 9 C-1.33 6.69 -1.66 4.38 -2 2 C-1.34 2 -0.68 2 0 2 C0 1.34 0 0.68 0 0 Z " fill="#605C59" transform="translate(434,277)"/>
<path d="M0 0 C1.02802734 -0.00386719 2.05605469 -0.00773437 3.11523438 -0.01171875 C4.10974609 -0.01042969 5.10425781 -0.00914063 6.12890625 -0.0078125 C7.02810791 -0.00668457 7.92730957 -0.00555664 8.85375977 -0.00439453 C11.47081752 0.12666855 13.88522724 0.54620512 16.4375 1.125 C15.4475 1.785 14.4575 2.445 13.4375 3.125 C13.7675 3.785 14.0975 4.445 14.4375 5.125 C11.9625 4.63 11.9625 4.63 9.4375 4.125 C9.4375 3.465 9.4375 2.805 9.4375 2.125 C0.5275 2.125 -8.3825 2.125 -17.5625 2.125 C-17.5625 1.795 -17.5625 1.465 -17.5625 1.125 C-11.72186938 -0.13729753 -5.94290249 -0.02244016 0 0 Z " fill="#7BC4E3" transform="translate(322.5625,94.875)"/>
<path d="M0 0 C1.4540625 0.0309375 1.4540625 0.0309375 2.9375 0.0625 C3.2675 1.0525 3.5975 2.0425 3.9375 3.0625 C4.5975 3.0625 5.2575 3.0625 5.9375 3.0625 C5.9375 5.0425 5.9375 7.0225 5.9375 9.0625 C5.6075 9.0625 5.2775 9.0625 4.9375 9.0625 C4.9375 7.4125 4.9375 5.7625 4.9375 4.0625 C4.525 4.578125 4.1125 5.09375 3.6875 5.625 C2.82125 6.3365625 2.82125 6.3365625 1.9375 7.0625 C-0.25 6.75 -0.25 6.75 -2.0625 6.0625 C-2.3925 7.7125 -2.7225 9.3625 -3.0625 11.0625 C-4.0525 11.3925 -5.0425 11.7225 -6.0625 12.0625 C-6.0625 11.4025 -6.0625 10.7425 -6.0625 10.0625 C-5.4025 10.0625 -4.7425 10.0625 -4.0625 10.0625 C-4.07410156 9.42441406 -4.08570313 8.78632813 -4.09765625 8.12890625 C-4.10667969 7.30261719 -4.11570312 6.47632813 -4.125 5.625 C-4.13660156 4.80128906 -4.14820313 3.97757812 -4.16015625 3.12890625 C-4.00103255 -0.23815127 -3.43619093 0.07012635 0 0 Z " fill="#403C3A" transform="translate(357.0625,253.9375)"/>
<path d="M0 0 C-1.28965176 1.37562854 -2.62689293 2.70766393 -4 4 C-4.66 4 -5.32 4 -6 4 C-6.33 4.66 -6.66 5.32 -7 6 C-7.99 5.34 -8.98 4.68 -10 4 C-10 5.32 -10 6.64 -10 8 C-10.804375 8.2475 -11.60875 8.495 -12.4375 8.75 C-15.171081 9.72238859 -15.171081 9.72238859 -15.8125 12.125 C-15.874375 12.74375 -15.93625 13.3625 -16 14 C-17.32 13.67 -18.64 13.34 -20 13 C-15.66123243 6.5964813 -8.85108254 -3.15681951 0 0 Z " fill="#3CB9ED" transform="translate(294,106)"/>
<path d="M0 0 C0.99 0 1.98 0 3 0 C3.33 0.66 3.66 1.32 4 2 C7.63 2 11.26 2 15 2 C14.67 3.32 14.34 4.64 14 6 C13.10539062 5.90460938 12.21078125 5.80921875 11.2890625 5.7109375 C3.77781386 5.02227291 -2.71265596 4.96827505 -10 7 C-9.67 6.01 -9.34 5.02 -9 4 C-6.68152126 3.2833793 -4.34680297 2.61757973 -2 2 C-1.34 1.34 -0.68 0.68 0 0 Z " fill="#58B8E0" transform="translate(241,182)"/>
<path d="M0 0 C1.546875 0.8971875 1.546875 0.8971875 3.125 1.8125 C9.05046565 4.81801597 15.51723273 5.79813865 22 7 C22 7.33 22 7.66 22 8 C21.09636719 8.06058594 20.19273437 8.12117187 19.26171875 8.18359375 C18.08222656 8.26738281 16.90273438 8.35117188 15.6875 8.4375 C13.92986328 8.55931641 13.92986328 8.55931641 12.13671875 8.68359375 C8.97409042 8.8867371 8.97409042 8.8867371 6 10 C5.67 9.01 5.34 8.02 5 7 C4.154375 6.34 3.30875 5.68 2.4375 5 C1.633125 4.34 0.82875 3.68 0 3 C0 2.01 0 1.02 0 0 Z " fill="#59BDE2" transform="translate(327,190)"/>
<path d="M0 0 C3 0 3 0 5 1 C5 3.64 5 6.28 5 9 C0.25 10.125 0.25 10.125 -2 9 C-2.40729228 6.67843403 -2.74438677 4.3431213 -3 2 C-2.34 2 -1.68 2 -1 2 C-0.67 1.34 -0.34 0.68 0 0 Z " fill="#353230" transform="translate(258,271)"/>
<path d="M0 0 C6.27 0 12.54 0 19 0 C19 0.66 19 1.32 19 2 C20.093125 2.20625 21.18625 2.4125 22.3125 2.625 C26 4 26 4 27.9375 7.125 C28.288125 8.07375 28.63875 9.0225 29 10 C25.31120701 8.19752161 21.77349917 6.1723788 18.21875 4.12109375 C13.85648459 1.91692091 10.11791008 1.8888209 5.25 1.9375 C3.49429687 1.95103516 3.49429687 1.95103516 1.703125 1.96484375 C0.81109375 1.97644531 -0.0809375 1.98804687 -1 2 C-0.67 1.34 -0.34 0.68 0 0 Z " fill="#5AB1D5" transform="translate(290,121)"/>
<path d="M0 0 C2.39774745 -0.13572155 4.78775245 -0.23436868 7.1875 -0.3125 C8.19780273 -0.3753418 8.19780273 -0.3753418 9.22851562 -0.43945312 C13.21836318 -0.53676648 14.7989502 -0.16454409 17.92578125 2.39453125 C21.32857016 6.66884426 21.12181204 9.84166556 21.0625 15.125 C21.05798828 15.87910156 21.05347656 16.63320313 21.04882812 17.41015625 C21.03703499 19.27347127 21.01909942 21.13674555 21 23 C20.67 23 20.34 23 20 23 C20 18.05 20 13.1 20 8 C19.34 7.67 18.68 7.34 18 7 C16.66666667 6.33333333 15.33333333 5.66666667 14 5 C14.33 4.01 14.66 3.02 15 2 C10.05 1.67 5.1 1.34 0 1 C0 0.67 0 0.34 0 0 Z " fill="#7A7970" transform="translate(201,261)"/>
<path d="M0 0 C1.875 0.1875 1.875 0.1875 4 1 C5.25 3.5625 5.25 3.5625 6 6 C4.68 6 3.36 6 2 6 C2 5.34 2 4.68 2 4 C-0.66401683 5.27198441 -0.66401683 5.27198441 -3 8 C-3.74756245 11.65884437 -3.92928996 15.27165244 -4 19 C-4.33 19 -4.66 19 -5 19 C-5.02693575 16.87506859 -5.04636628 14.75004088 -5.0625 12.625 C-5.07410156 11.44164062 -5.08570313 10.25828125 -5.09765625 9.0390625 C-5 6 -5 6 -4 4 C-3.34 4 -2.68 4 -2 4 C-1.34 2.68 -0.68 1.36 0 0 Z " fill="#47423E" transform="translate(341,262)"/>
<path d="M0 0 C0 1.65 0 3.3 0 5 C-0.99 5.33 -1.98 5.66 -3 6 C-3.33 6.66 -3.66 7.32 -4 8 C-4.66 7.67 -5.32 7.34 -6 7 C-6 6.34 -6 5.68 -6 5 C-6.66 5 -7.32 5 -8 5 C-7.67 3.35 -7.34 1.7 -7 0 C-3.86650268 -1.04449911 -3.01031744 -0.93423645 0 0 Z " fill="#4E4A46" transform="translate(302,251)"/>
<path d="M0 0 C0.66 0.33 1.32 0.66 2 1 C-0.06312934 5.01767292 -1.90027691 7.05263153 -6 9 C-6.99 9 -7.98 9 -9 9 C-9 9.66 -9 10.32 -9 11 C-12.3 11 -15.6 11 -19 11 C-15.99078289 9.49539144 -13.20114235 8.32398837 -10.0625 7.1875 C-5.61880379 5.44809159 -3.03866147 3.64639377 0 0 Z " fill="#65C3DA" transform="translate(368,186)"/>
<path d="M0 0 C0.33 0 0.66 0 1 0 C1.34833144 4.87664009 0.41685712 7.77050005 -2 12 C-1.34 12 -0.68 12 0 12 C-0.25 13.875 -0.25 13.875 -1 16 C-3.046875 17.1328125 -3.046875 17.1328125 -5 18 C-4.65402571 12.5240621 -4.17088679 8.6242099 -1 4 C-0.30420546 1.80869466 -0.30420546 1.80869466 0 0 Z " fill="#76B7CE" transform="translate(273,120)"/>
<path d="M0 0 C-0.46800711 4.05606165 -0.87953208 7.46588679 -3 11 C-3.33 9.35 -3.66 7.7 -4 6 C-4.556875 6.639375 -5.11375 7.27875 -5.6875 7.9375 C-8.22066561 10.19680987 -9.68341424 10.63149047 -13 11 C-11.625 9.5 -11.625 9.5 -10 8 C-9.34 8 -8.68 8 -8 8 C-7.67 7.01 -7.34 6.02 -7 5 C-2.46511628 0 -2.46511628 0 0 0 Z " fill="#81C3D5" transform="translate(429,117)"/>
<path d="M0 0 C0.99 0 1.98 0 3 0 C2.57664615 6.49142565 0.08900201 11.33492989 -3 17 C-4.125 13.25 -4.125 13.25 -3 11 C-2.34 11 -1.68 11 -1 11 C-0.67 9.02 -0.34 7.04 0 5 C-0.99 4.67 -1.98 4.34 -3 4 C-1.6875 2 -1.6875 2 0 0 Z " fill="#7AC0D8" transform="translate(373,181)"/>
<path d="M0 0 C0.33 0 0.66 0 1 0 C1.48452463 6.94485303 -0.30712509 13.2990368 -2 20 C-2.33 20 -2.66 20 -3 20 C-3.33 15.38 -3.66 10.76 -4 6 C-3.01 5.67 -2.02 5.34 -1 5 C-0.67 3.35 -0.34 1.7 0 0 Z M-3 9 C-2 11 -2 11 -2 11 Z " fill="#6A6460" transform="translate(290,263)"/>
<path d="M0 0 C0.66 0.33 1.32 0.66 2 1 C0.68 2.65 -0.64 4.3 -2 6 C-1.01 5.67 -0.02 5.34 1 5 C1.33 5.99 1.66 6.98 2 8 C1.01 8.99 0.02 9.98 -1 11 C-1 9.68 -1 8.36 -1 7 C-1.66 7 -2.32 7 -3 7 C-3 12.28 -3 17.56 -3 23 C-3.33 23 -3.66 23 -4 23 C-4.10829314 20.10315842 -4.18743954 17.21038981 -4.25 14.3125 C-4.28351563 13.49587891 -4.31703125 12.67925781 -4.3515625 11.83789062 C-4.42031147 7.59264166 -4.37134905 5.5678186 -1.984375 1.91796875 C-1.32953125 1.28503906 -0.6746875 0.65210938 0 0 Z " fill="#6D6864" transform="translate(311,262)"/>
<path d="M0 0 C2.31 0.33 4.62 0.66 7 1 C4.82842681 3.28015185 2.70076396 5.36317336 0 7 C-2.25 6.6875 -2.25 6.6875 -4 6 C-2.68 4.02 -1.36 2.04 0 0 Z " fill="#403D3A" transform="translate(444,267)"/>
<path d="M0 0 C1.65 0 3.3 0 5 0 C4.34 0.66 3.68 1.32 3 2 C7.455 3.98 7.455 3.98 12 6 C12 6.99 12 7.98 12 9 C11.01 8.67 10.02 8.34 9 8 C8.67 7.34 8.34 6.68 8 6 C7.236875 6 6.47375 6 5.6875 6 C3.79166667 6 1.89583333 6 0 6 C0 4 0 2 0 0 Z " fill="#5E5B56" transform="translate(413,263)"/>
<path d="M0 0 C3.5 0.4375 3.5 0.4375 5.4375 1.9375 C5.788125 2.4325 6.13875 2.9275 6.5 3.4375 C6.17 4.0975 5.84 4.7575 5.5 5.4375 C5.17 4.4475 4.84 3.4575 4.5 2.4375 C3.51 3.7575 2.52 5.0775 1.5 6.4375 C0.88125 5.9425 0.2625 5.4475 -0.375 4.9375 C-2.33880904 3.24527227 -2.33880904 3.24527227 -4.5 3.4375 C-4.83 5.0875 -5.16 6.7375 -5.5 8.4375 C-6.1875 6.6875 -6.1875 6.6875 -6.5 4.4375 C-4.89877092 0.83473456 -3.95168678 0.49396085 0 0 Z " fill="#78766D" transform="translate(271.5,262.5625)"/>
<path d="M0 0 C6.36 0.6 6.36 0.6 9 2.25 C10 4 10 4 9.8125 6.5625 C9 9 9 9 7 11 C4.525 10.01 4.525 10.01 2 9 C3.32 8.67 4.64 8.34 6 8 C6 6.35 6 4.7 6 3 C4.02 2.34 2.04 1.68 0 1 C0 0.67 0 0.34 0 0 Z " fill="#6B6861" transform="translate(446,255)"/>
<path d="M0 0 C1.66842534 0.32441604 3.33480481 0.65939189 5 1 C6.0209375 1.061875 6.0209375 1.061875 7.0625 1.125 C9.9072839 2.40974112 10.69622076 4.5888006 12.0703125 7.30859375 C12.99960775 9.18565151 12.99960775 9.18565151 15 11 C11.09810564 11 10.319023 9.79509628 7.5 7.1875 C6.7265625 6.47980469 5.953125 5.77210938 5.15625 5.04296875 C3.40870442 3.38723263 1.68849667 1.71555591 0 0 Z " fill="#6FC0DE" transform="translate(256,188)"/>
<path d="M0 0 C2.03144641 0.93446535 4.03533587 1.93224776 6 3 C5.67 3.99 5.34 4.98 5 6 C2.36 6.33 -0.28 6.66 -3 7 C-2.625 4.0625 -2.625 4.0625 -2 1 C-1.34 0.67 -0.68 0.34 0 0 Z " fill="#545351" transform="translate(215,281)"/>
<path d="M0 0 C2.475 0.495 2.475 0.495 5 1 C5.33 1.99 5.66 2.98 6 4 C7.65 4 9.3 4 11 4 C11 4.66 11 5.32 11 6 C11.66 6.66 12.32 7.32 13 8 C8.86469356 8.33314203 6.93376536 7.68044053 3.6875 5.125 C2.99011719 4.59132812 2.29273438 4.05765625 1.57421875 3.5078125 C1.05472656 3.01023438 0.53523438 2.51265625 0 2 C0 1.34 0 0.68 0 0 Z " fill="#79C0DF" transform="translate(278,207)"/>
<path d="M0 0 C0.66 0 1.32 0 2 0 C1.67 1.65 1.34 3.3 1 5 C-0.45823212 5.0270043 -1.91660675 5.04639787 -3.375 5.0625 C-4.18710937 5.07410156 -4.99921875 5.08570313 -5.8359375 5.09765625 C-8 5 -8 5 -10 4 C-9.67 3.34 -9.34 2.68 -9 2 C-7.1875 1.62109375 -7.1875 1.62109375 -5 1.4375 C-2.21067942 1.37334592 -2.21067942 1.37334592 0 0 Z " fill="#63625C" transform="translate(267,283)"/>
<path d="M0 0 C0.66 0.66 1.32 1.32 2 2 C2.66 2 3.32 2 4 2 C4 2.66 4 3.32 4 4 C4.99 4 5.98 4 7 4 C7.33 3.34 7.66 2.68 8 2 C8 2.99 8 3.98 8 5 C4.10835652 6.29721449 1.10570774 6.13033993 -3 6 C-3.66 5.67 -4.32 5.34 -5 5 C-4.67 4.34 -4.34 3.68 -4 3 C-3.01 3.33 -2.02 3.66 -1 4 C-0.67 2.68 -0.34 1.36 0 0 Z " fill="#706E66" transform="translate(279,282)"/>
<path d="M0 0 C0.99 0.66 1.98 1.32 3 2 C3.29296875 4.1640625 3.29296875 4.1640625 3.1875 6.625 C3.16042969 7.44226563 3.13335937 8.25953125 3.10546875 9.1015625 C3.07066406 9.72804688 3.03585937 10.35453125 3 11 C2.34 11 1.68 11 1 11 C1 10.34 1 9.68 1 9 C-0.32 9 -1.64 9 -3 9 C-3.33 7.68 -3.66 6.36 -4 5 C-3.01 4.67 -2.02 4.34 -1 4 C-0.26676204 1.98491642 -0.26676204 1.98491642 0 0 Z " fill="#565451" transform="translate(278,269)"/>
<path d="M0 0 C0 1.98 0 3.96 0 6 C-1.32 6.33 -2.64 6.66 -4 7 C-4 6.01 -4 5.02 -4 4 C-5.65 4 -7.3 4 -9 4 C-6.10130984 1.70103884 -3.84906588 0 0 0 Z " fill="#51BCE8" transform="translate(420,127)"/>
<path d="M0 0 C0.515625 0.53625 1.03125 1.0725 1.5625 1.625 C1.2325 1.955 0.9025 2.285 0.5625 2.625 C1.2225 3.285 1.8825 3.945 2.5625 4.625 C-0.3125 4.75 -0.3125 4.75 -3.4375 4.625 C-4.0975 3.965 -4.7575 3.305 -5.4375 2.625 C-6.75497324 1.92751417 -8.08664193 1.25540043 -9.4375 0.625 C-3.0375 -1.71346154 -3.0375 -1.71346154 0 0 Z " fill="#3DB4E6" transform="translate(359.4375,153.375)"/>
<path d="M0 0 C5.07009471 0.47532138 8.97493258 3.04362294 13 6 C13 6.33 13 6.66 13 7 C11.35 7 9.7 7 8 7 C7.67 6.01 7.34 5.02 7 4 C5.02 4 3.04 4 1 4 C0.67 2.68 0.34 1.36 0 0 Z " fill="#7BC2E2" transform="translate(345,99)"/>
<path d="M0 0 C-2.31881505 2.67901932 -4.31814468 3.66204403 -7.6875 4.6875 C-8.89986328 5.06455078 -8.89986328 5.06455078 -10.13671875 5.44921875 C-11.05904297 5.72185547 -11.05904297 5.72185547 -12 6 C-8.70729291 1.36581964 -5.87436551 -1.95812184 0 0 Z " fill="#77BCD9" transform="translate(409,151)"/>
<path d="M0 0 C1.875 0.1875 1.875 0.1875 4 1 C5.25 3.5625 5.25 3.5625 6 6 C5.34 6 4.68 6 4 6 C3.67 6.99 3.34 7.98 3 9 C0.90250005 6.64031256 0.03094296 5.45383006 -0.1875 2.25 C-0.125625 1.5075 -0.06375 0.765 0 0 Z " fill="#625751" transform="translate(398,256)"/>
<path d="M0 0 C0.33 1.32 0.66 2.64 1 4 C0.360625 4.4125 -0.27875 4.825 -0.9375 5.25 C-3.20990931 7.17810487 -3.60196439 8.11424181 -4 11 C-5.32 10.67 -6.64 10.34 -8 10 C-6.85500893 8.52018126 -5.708983 7.04116318 -4.5625 5.5625 C-3.60537109 4.32693359 -3.60537109 4.32693359 -2.62890625 3.06640625 C-1 1 -1 1 0 0 Z " fill="#66B9DA" transform="translate(282,109)"/>
<path d="M0 0 C1.485 0.99 1.485 0.99 3 2 C3 2.66 3 3.32 3 4 C3.99 3.67 4.98 3.34 6 3 C6 6 6 6 4.5 7.6875 C4.005 8.120625 3.51 8.55375 3 9 C2.34 8.67 1.68 8.34 1 8 C0.40644386 5.35139573 0.25790731 2.70802678 0 0 Z " fill="#55504D" transform="translate(255,277)"/>
<path d="M0 0 C2.875 -0.125 2.875 -0.125 6 0 C8 2 8 2 8.125 4.625 C8.08375 5.40875 8.0425 6.1925 8 7 C6.68 6.67 5.36 6.34 4 6 C4.33 5.34 4.66 4.68 5 4 C4.175 3.525625 3.35 3.05125 2.5 2.5625 C1.675 2.046875 0.85 1.53125 0 1 C0 0.67 0 0.34 0 0 Z " fill="#5B5753" transform="translate(228,251)"/>
<path d="M0 0 C0.33 0.99 0.66 1.98 1 3 C0.34 3.66 -0.32 4.32 -1 5 C-0.67 5.66 -0.34 6.32 0 7 C-1.98 7 -3.96 7 -6 7 C-6 6.01 -6 5.02 -6 4 C-4.08512183 2.34043892 -2.26423282 1.13211641 0 0 Z " fill="#595957" transform="translate(353,282)"/>
<path d="M0 0 C1.65 0.33 3.3 0.66 5 1 C5.33 1.99 5.66 2.98 6 4 C5.01 4.33 4.02 4.66 3 5 C1.33289654 6.49985609 1.33289654 6.49985609 0 8 C-0.79953138 4.71303767 -1.09658936 3.28976808 0 0 Z M2 1 C2 1.66 2 2.32 2 3 C2.66 2.67 3.32 2.34 4 2 C3.34 1.67 2.68 1.34 2 1 Z " fill="#6D6A69" transform="translate(441,263)"/>
<path d="M0 0 C2.912575 0.08566397 4.56798024 0.57910955 6.66796875 2.625 C8.16091772 4.38391375 9.60436262 6.16313019 11 8 C10.01 8 9.02 8 8 8 C8 7.34 8 6.68 8 6 C5.525 5.01 5.525 5.01 3 4 C3 3.34 3 2.68 3 2 C2.01 2 1.02 2 0 2 C0 1.34 0 0.68 0 0 Z " fill="#65B7D7" transform="translate(311,178)"/>
<path d="M0 0 C3.84935246 -0.219963 6.63192664 0.05006279 10 2 C11.8125 5.125 11.8125 5.125 13 8 C10.03216871 6.54331217 7.13584687 4.98767914 4.25 3.375 C3.45078125 2.92898437 2.6515625 2.48296875 1.828125 2.0234375 C1.22484375 1.68570313 0.6215625 1.34796875 0 1 C0 0.67 0 0.34 0 0 Z " fill="#77BFDD" transform="translate(306,123)"/>
<path d="M0 0 C2.31 0 4.62 0 7 0 C7.33 0.66 7.66 1.32 8 2 C2.25 5 2.25 5 0 5 C0 3.35 0 1.7 0 0 Z " fill="#383631" transform="translate(226,262)"/>
<path d="M0 0 C1.32 0 2.64 0 4 0 C4 0.66 4 1.32 4 2 C4.99 1.67 5.98 1.34 7 1 C7.33 2.98 7.66 4.96 8 7 C4.2047869 5.50902342 2.38957269 3.24299151 0 0 Z " fill="#7AC5DF" transform="translate(270,200)"/>
<path d="M0 0 C4.69023454 0.56606279 9.34500026 1.18537505 14 2 C14 2.33 14 2.66 14 3 C10.7 3.33 7.4 3.66 4 4 C4 3.34 4 2.68 4 2 C2.68 2 1.36 2 0 2 C0 1.34 0 0.68 0 0 Z " fill="#6FBEDC" transform="translate(335,195)"/>
<path d="M0 0 C3.40739705 2.24578442 6.76478258 4.51137122 10 7 C9.67 7.66 9.34 8.32 9 9 C6.66471585 8.82701599 5.30822418 8.29774631 3.62109375 6.66796875 C0 2.42788462 0 2.42788462 0 0 Z " fill="#73C0DD" transform="translate(358,106)"/>
<path d="M0 0 C0.33 0.99 0.66 1.98 1 3 C-3.05606165 2.53199289 -6.46588679 2.12046792 -10 0 C-6.7169902 -1.6415049 -3.57454967 -0.51888624 0 0 Z " fill="#52B2DC" transform="translate(344,98)"/>
<path d="M0 0 C0.598125 0.20625 1.19625 0.4125 1.8125 0.625 C0.8225 1.285 -0.1675 1.945 -1.1875 2.625 C-1.92093428 5.69056598 -1.92093428 5.69056598 -2.1875 8.625 C-2.5175 7.635 -2.8475 6.645 -3.1875 5.625 C-4.1775 5.295 -5.1675 4.965 -6.1875 4.625 C-5.03076352 1.15479057 -3.91311293 -0.67081936 0 0 Z " fill="#5E5C57" transform="translate(319.1875,268.375)"/>
<path d="M0 0 C0.33 2.31 0.66 4.62 1 7 C-0.98 7.99 -0.98 7.99 -3 9 C-2.67 7.02 -2.34 5.04 -2 3 C-3.65 2.67 -5.3 2.34 -7 2 C-7 1.67 -7 1.34 -7 1 C-2.25 0 -2.25 0 0 0 Z " fill="#817F78" transform="translate(197,255)"/>
<path d="M0 0 C5.53846154 -0.36923077 5.53846154 -0.36923077 7.875 1.5 C8.24625 1.995 8.6175 2.49 9 3 C8 4 8 4 5.4375 4.0625 C4.2309375 4.0315625 4.2309375 4.0315625 3 4 C3 3.34 3 2.68 3 2 C2.01 2 1.02 2 0 2 C0 1.34 0 0.68 0 0 Z " fill="#6DBFDF" transform="translate(287,162)"/>
<path d="M0 0 C1.32 0.66 2.64 1.32 4 2 C-0.81384901 5.81788025 -6.10647769 5.70067925 -12 6 C-12 5.34 -12 4.68 -12 4 C-6.06 3.505 -6.06 3.505 0 3 C0 2.01 0 1.02 0 0 Z " fill="#3EB6E8" transform="translate(396,152)"/>
<path d="M0 0 C1.65 0.33 3.3 0.66 5 1 C4.67 1.99 4.34 2.98 4 4 C3.01 4 2.02 4 1 4 C0.34 5.32 -0.32 6.64 -1 8 C-1.33 6.68 -1.66 5.36 -2 4 C-1.34 4 -0.68 4 0 4 C0 2.68 0 1.36 0 0 Z " fill="#6FC2E4" transform="translate(274,127)"/>
<path d="M0 0 C1.52519276 0.08937803 3.04681929 0.24537146 4.5625 0.4375 C5.38878906 0.53933594 6.21507812 0.64117187 7.06640625 0.74609375 C7.70449219 0.82988281 8.34257812 0.91367188 9 1 C5.78817851 2.90608098 3.46117397 3.22266247 -0.25 3.125 C-1.14203125 3.10695312 -2.0340625 3.08890625 -2.953125 3.0703125 C-3.96632813 3.03550781 -3.96632813 3.03550781 -5 3 C-4.360625 2.690625 -3.72125 2.38125 -3.0625 2.0625 C-1.06389179 1.1654837 -1.06389179 1.1654837 0 0 Z " fill="#3CB9EB" transform="translate(335,218)"/>
<path d="M0 0 C0.33 0 0.66 0 1 0 C1 2.31 1 4.62 1 7 C-0.98 7.99 -0.98 7.99 -3 9 C-3 8.01 -3 7.02 -3 6 C-3.33 5.67 -3.66 5.34 -4 5 C-2.69254251 3.31295807 -1.35827971 1.64639965 0 0 Z " fill="#40B3E3" transform="translate(425,122)"/>
<path d="M0 0 C1.32 0 2.64 0 4 0 C4 0.66 4 1.32 4 2 C4.66 2.33 5.32 2.66 6 3 C3.03 3.66 0.06 4.32 -3 5 C-1 1 -1 1 0 0 Z " fill="#35302D" transform="translate(202,272)"/>
<path d="M0 0 C0.66 0.33 1.32 0.66 2 1 C0.68 1.33 -0.64 1.66 -2 2 C-1.67 3.32 -1.34 4.64 -1 6 C-3.475 7.485 -3.475 7.485 -6 9 C-5.45276317 5.62537285 -4.9451 3.91765 -3 1 C-2.01 0.67 -1.02 0.34 0 0 Z " fill="#686361" transform="translate(438,256)"/>
<path d="M0 0 C0.66 0.33 1.32 0.66 2 1 C0.55049545 4.7910119 -1.15172566 8.3874638 -3 12 C-3.33 12 -3.66 12 -4 12 C-3.125 5.25 -3.125 5.25 -2 3 C-1.34 3 -0.68 3 0 3 C0 2.01 0 1.02 0 0 Z " fill="#7CC4DE" transform="translate(424,128)"/>
<path d="M0 0 C2.1385485 2.1385485 2.42655063 3.13275314 3 6 C-1.75 6.125 -1.75 6.125 -4 5 C-3.67 3.68 -3.34 2.36 -3 1 C-2.01 1.33 -1.02 1.66 0 2 C0 1.34 0 0.68 0 0 Z " fill="#343332" transform="translate(299,281)"/>
<path d="M0 0 C2 2 2 2 2 5 C-0.31 5 -2.62 5 -5 5 C-3.35 3.35 -1.7 1.7 0 0 Z " fill="#363430" transform="translate(233,282)"/>
<path d="M0 0 C2.8992226 0.46761655 3.86675182 0.86675182 6 3 C5.34 3 4.68 3 4 3 C4 3.66 4 4.32 4 5 C2.02 4.34 0.04 3.68 -2 3 C-1 1 -1 1 0 0 Z " fill="#53514F" transform="translate(435,283)"/>
<path d="M0 0 C0.33 0.66 0.66 1.32 1 2 C-0.24313463 5.72940389 -1.76985216 6.84656811 -5 9 C-5.99 8.67 -6.98 8.34 -8 8 C-6.50260417 6.79557292 -5.00520833 5.59114583 -3.5078125 4.38671875 C-1.74707893 2.87729455 -1.74707893 2.87729455 0 0 Z " fill="#7CBBDA" transform="translate(234,167)"/>
<path d="M0 0 C0.33 0.99 0.66 1.98 1 3 C-4.2734375 6.22265625 -4.2734375 6.22265625 -6 7 C-6.66 6.67 -7.32 6.34 -8 6 C-2.25 1.125 -2.25 1.125 0 0 Z " fill="#6DBEDA" transform="translate(291,102)"/>
<path d="M0 0 C0.33 0 0.66 0 1 0 C1 2.31 1 4.62 1 7 C-1.31 7 -3.62 7 -6 7 C-5.54625 6.566875 -5.0925 6.13375 -4.625 5.6875 C-2.79975666 3.89201658 -2.79975666 3.89201658 -1 1 C-0.67 0.67 -0.34 0.34 0 0 Z " fill="#74716A" transform="translate(316,281)"/>
<path d="M0 0 C2.64 0 5.28 0 8 0 C8.33 1.32 8.66 2.64 9 4 C5.84915995 4 4.66128684 3.54526333 2 2 C1.34 1.34 0.68 0.68 0 0 Z " fill="#828280" transform="translate(204,268)"/>
<path d="M0 0 C1.65 0 3.3 0 5 0 C5 0.99 5 1.98 5 3 C3.125 4.0625 3.125 4.0625 1 5 C0.34 4.67 -0.32 4.34 -1 4 C-0.67 2.68 -0.34 1.36 0 0 Z " fill="#353330" transform="translate(295,262)"/>
<path d="M0 0 C0 3.59857954 -0.95830515 5.09451118 -3 8 C-3.66 8 -4.32 8 -5 8 C-5.33 7.01 -5.66 6.02 -6 5 C-5.01 4.67 -4.02 4.34 -3 4 C-3 3.01 -3 2.02 -3 1 C-2.01 0.67 -1.02 0.34 0 0 Z " fill="#343130" transform="translate(411,257)"/>
<path d="M0 0 C4.29 0.33 8.58 0.66 13 1 C13 1.33 13 1.66 13 2 C11.39884424 2.2493357 9.79379841 2.47378648 8.1875 2.6875 C6.84751953 2.87892578 6.84751953 2.87892578 5.48046875 3.07421875 C3 3 3 3 0 0 Z " fill="#5AB6DC" transform="translate(306,221)"/>
<path d="M0 0 C-3.64116773 3.33773709 -7.28607242 3.97864902 -12 5 C-8.36219404 0.99841344 -5.42711258 -0.30150625 0 0 Z " fill="#81C0D8" transform="translate(249,162)"/>
<path d="M0 0 C3.87302138 1.14430177 7.00263439 2.23320098 10 5 C10 5.66 10 6.32 10 7 C5.56541027 5.6062718 3.12621626 3.39417765 0 0 Z " fill="#45B5E7" transform="translate(316,127)"/>
<path d="M0 0 C0.66 0 1.32 0 2 0 C1.34 4.95 0.68 9.9 0 15 C-0.33 15 -0.66 15 -1 15 C-1.02693575 12.87506859 -1.04636628 10.75004088 -1.0625 8.625 C-1.07410156 7.44164062 -1.08570313 6.25828125 -1.09765625 5.0390625 C-1 2 -1 2 0 0 Z " fill="#65635B" transform="translate(337,266)"/>
<path d="M0 0 C0.66 0 1.32 0 2 0 C2 0.66 2 1.32 2 2 C2.99 2.33 3.98 2.66 5 3 C4.34 3.66 3.68 4.32 3 5 C0.375 4.625 0.375 4.625 -2 4 C-1.34 2.68 -0.68 1.36 0 0 Z " fill="#373234" transform="translate(341,266)"/>
<path d="M0 0 C0.99 0.495 0.99 0.495 2 1 C2 1.66 2 2.32 2 3 C2.66 3 3.32 3 4 3 C4.33 2.34 4.66 1.68 5 1 C4.67 2.32 4.34 3.64 4 5 C3.34 5 2.68 5 2 5 C1.67 5.99 1.34 6.98 1 8 C-0.35439668 5.29120665 -0.06501451 2.99066732 0 0 Z " fill="#6F6C67" transform="translate(404,262)"/>
<path d="M0 0 C0.66 0 1.32 0 2 0 C1.67 1.65 1.34 3.3 1 5 C0.34 5 -0.32 5 -1 5 C-1.33 5.66 -1.66 6.32 -2 7 C-2.66 6.67 -3.32 6.34 -4 6 C-3.67 5.01 -3.34 4.02 -3 3 C-2.01 3 -1.02 3 0 3 C0 2.01 0 1.02 0 0 Z " fill="#373431" transform="translate(300,252)"/>
<path d="M0 0 C0 0.99 0 1.98 0 3 C-2.31 3 -4.62 3 -7 3 C-7.33 2.34 -7.66 1.68 -8 1 C-2.25 -1.125 -2.25 -1.125 0 0 Z " fill="#343031" transform="translate(396,285)"/>
<path d="M0 0 C0.99 0.33 1.98 0.66 3 1 C3.33 1.99 3.66 2.98 4 4 C3.34 4.66 2.68 5.32 2 6 C1.01 5.67 0.02 5.34 -1 5 C-0.67 3.35 -0.34 1.7 0 0 Z " fill="#353333" transform="translate(407,278)"/>
<path d="M0 0 C0.66 0.33 1.32 0.66 2 1 C1.979375 1.94875 1.95875 2.8975 1.9375 3.875 C1.77448174 6.90666283 1.77448174 6.90666283 3 9 C1.68 8.34 0.36 7.68 -1 7 C-1.04254356 5.00045254 -1.04080783 2.99958364 -1 1 C-0.67 0.67 -0.34 0.34 0 0 Z " fill="#9D9C8F" transform="translate(199,262)"/>
<path d="M0 0 C0.33 0.66 0.66 1.32 1 2 C-2.05263664 2.98120464 -3.94736336 2.98120464 -7 2 C-7.33 3.32 -7.66 4.64 -8 6 C-8 4.35 -8 2.7 -8 1 C-5.29120665 -0.35439668 -2.99066732 -0.06501451 0 0 Z " fill="#918E86" transform="translate(260,261)"/>
<path d="M0 0 C1.98 0 3.96 0 6 0 C6.33 0.99 6.66 1.98 7 3 C7.99 3 8.98 3 10 3 C10 3.66 10 4.32 10 5 C5 3 5 3 0 1 C0 0.67 0 0.34 0 0 Z " fill="#7EC6DA" transform="translate(287,215)"/>
<path d="M0 0 C0.99 0.33 1.98 0.66 3 1 C2.34 1 1.68 1 1 1 C1 3.64 1 6.28 1 9 C0.01 8.34 -0.98 7.68 -2 7 C-1.125 2.25 -1.125 2.25 0 0 Z " fill="#827C78" transform="translate(406,277)"/>
<path d="M0 0 C1.65 0 3.3 0 5 0 C5 0.66 5 1.32 5 2 C5.66 2.66 6.32 3.32 7 4 C5.35 4 3.7 4 2 4 C1.34 2.68 0.68 1.36 0 0 Z " fill="#53B1DE" transform="translate(284,211)"/>
<path d="M0 0 C1.32 1.65 2.64 3.3 4 5 C3.01 6.485 3.01 6.485 2 8 C1.01 7.67 0.02 7.34 -1 7 C-0.67 4.69 -0.34 2.38 0 0 Z " fill="#92C2D4" transform="translate(215,194)"/>
<path d="M0 0 C0 0.99 0 1.98 0 3 C-3.3 3 -6.6 3 -10 3 C-6.48579734 1.24289867 -3.89581553 0 0 0 Z " fill="#7DC8E6" transform="translate(359,194)"/>
<path d="M0 0 C0.99 0 1.98 0 3 0 C3 1.32 3 2.64 3 4 C1.02 4.33 -0.96 4.66 -3 5 C-1.6875 2.5 -1.6875 2.5 0 0 Z " fill="#84B6C9" transform="translate(373,181)"/>
<path d="M0 0 C2.475 0.495 2.475 0.495 5 1 C3.74458443 3.51083114 2.49936512 3.87125446 0 5 C0 3.35 0 1.7 0 0 Z " fill="#383330" transform="translate(282,262)"/>
<path d="M0 0 C1.65 0 3.3 0 5 0 C0.375 4 0.375 4 -3 4 C-3 3.34 -3 2.68 -3 2 C-2.01 2 -1.02 2 0 2 C0 1.34 0 0.68 0 0 Z " fill="#7DBEDA" transform="translate(226,189)"/>
</svg>
