<?xml version="1.0" encoding="UTF-8"?>
<svg version="1.1" xmlns="http://www.w3.org/2000/svg" width="225" height="225">
<path d="M0 0 C1.32 0 2.64 0 4 0 C4.33 0.99 4.66 1.98 5 3 C5.495 2.505 5.99 2.01 6.5 1.5 C9.96423989 -0.57854394 13.11624438 -0.81998679 17 0 C20.0190434 1.75299294 22.41511201 3.83022401 24 7 C24.54855133 13.95183316 24.5766388 19.90646724 21 26 C17.42280778 28.38479482 15.28596411 28.85471308 11 29 C9.02 27.68 7.04 26.36 5 25 C4.67 29.95 4.34 34.9 4 40 C2.35 39.67 0.7 39.34 -1 39 C-1.02464849 33.60653012 -1.04283531 28.21309275 -1.05493164 22.81958008 C-1.05997231 20.98331125 -1.06680477 19.14704646 -1.07543945 17.31079102 C-1.08751672 14.67723599 -1.09323081 12.04373384 -1.09765625 9.41015625 C-1.10281754 8.58411392 -1.10797882 7.75807159 -1.11329651 6.90699768 C-1.11349205 4.93763632 -1.06204152 2.96838386 -1 1 C-0.67 0.67 -0.34 0.34 0 0 Z M5 8 C4.40645759 10.93622686 4.40645759 10.93622686 4.5625 14.0625 C4.56378906 15.10535156 4.56507812 16.14820313 4.56640625 17.22265625 C4.79156793 19.99287075 4.79156793 19.99287075 6.30859375 21.8828125 C8.1500805 23.34003068 8.1500805 23.34003068 11.5 22.8125 C15.08709033 22.19629245 15.08709033 22.19629245 18 20 C19.24040113 16.27879661 19.5339994 12.86585484 19 9 C17.56348718 5.91125677 17.56348718 5.91125677 15 4 C10.06320945 3.07435177 8.04041673 4.12685766 5 8 Z " fill="#067DDA" transform="translate(59,98)"/>
<path d="M0 0 C3.4458426 1.94765016 4.69946258 3.32736863 6.3125 6.9375 C7 10 7 10 7 15 C-1.91 15.99 -1.91 15.99 -11 17 C-10.01 18.65 -9.02 20.3 -8 22 C-3.42149218 22.4430814 0.52796459 22.11800885 5 21 C5.33 22.65 5.66 24.3 6 26 C1.08635548 28.40668303 -2.41006182 29.60981144 -8 29 C-11.29529398 27.75649284 -13.36226247 26.97179052 -15.3125 24 C-17.38435035 17.97279899 -17.95604747 12.81502865 -15.875 6.6875 C-11.57732229 0.52749529 -7.14076382 -0.90676366 0 0 Z M-11 8 C-11.33 8.99 -11.66 9.98 -12 11 C-7.71 11 -3.42 11 1 11 C0.50847518 6.13867505 0.50847518 6.13867505 -2 4 C-6.50566593 3.28857906 -8.20990439 4.51238049 -11 8 Z " fill="#0F94DC" transform="translate(102,98)"/>
<path d="M0 0 C2.3671875 0.21484375 2.3671875 0.21484375 5 1 C6.2578125 3.00390625 6.2578125 3.00390625 7.125 5.5625 C7.41632812 6.38878906 7.70765625 7.21507813 8.0078125 8.06640625 C8.33523437 9.03449219 8.66265625 10.00257812 9 11 C9.98625877 13.67198748 10.99337778 16.33557905 12 19 C12.1858667 18.45996338 12.3717334 17.91992676 12.56323242 17.36352539 C13.41692649 14.92188144 14.30164187 12.49264911 15.1875 10.0625 C15.47947266 9.21236328 15.77144531 8.36222656 16.07226562 7.48632812 C16.92076598 5.19628953 17.73714825 3.09129172 19 1 C21.73828125 -0.06640625 21.73828125 -0.06640625 24 0 C25 2 25 2 24.24316406 4.37915039 C23.83807617 5.35875732 23.43298828 6.33836426 23.015625 7.34765625 C22.57476562 8.42853516 22.13390625 9.50941406 21.6796875 10.62304688 C21.20789063 11.75806641 20.73609375 12.89308594 20.25 14.0625 C19.33605428 16.28152924 18.42455123 18.50156628 17.515625 20.72265625 C17.07669922 21.78887207 16.63777344 22.85508789 16.18554688 23.95361328 C14.86401643 27.34942401 13.79717202 30.77033521 12.86230469 34.29077148 C11.7056319 36.58348558 10.29319875 36.96998953 8 38 C7.67 38.66 7.34 39.32 7 40 C4.69 39.67 2.38 39.34 0 39 C0 37.35 0 35.7 0 34 C0.94875 33.9175 1.8975 33.835 2.875 33.75 C5.99672025 33.31679357 5.99672025 33.31679357 7.4375 31.375 C8.97070813 24.90145457 5.88213233 18.68445845 3.4375 12.8125 C2.78403079 11.23829139 2.13664957 9.66153845 1.49609375 8.08203125 C1.20919678 7.39343018 0.9222998 6.7048291 0.62670898 5.99536133 C0 4 0 4 0 0 Z " fill="#077ED2" transform="translate(32,98)"/>
<path d="M0 0 C3 1 3 1 4 3 C4.495 2.505 4.99 2.01 5.5 1.5 C8.96720192 -0.58032115 12.11330796 -0.8131467 16 0 C19.52185256 1.97678176 21.69957163 4.0987149 23 8 C23.48517167 14.45391158 23.7897964 21.65224432 19.4375 26.875 C15.78644457 28.56010251 12.01796202 29.14855141 8 29 C6.68 28.34 5.36 27.68 4 27 C3.67 30.63 3.34 34.26 3 38 C1.515 38.495 1.515 38.495 0 39 C0 26.13 0 13.26 0 0 Z M5.0625 4.75 C2.02583343 9.53505035 1.89782884 14.47394184 3 20 C4.62707296 22.45556008 4.62707296 22.45556008 7 24 C10.1409678 24.43548947 12.96877248 23.89153751 16 23 C18.51491607 20.87803957 18.90430747 19.33124337 19.8125 16.1875 C20.07893028 11.65818523 19.19258374 7.94579452 16.8125 4.0625 C12.65957517 1.62802683 9.02367447 2.39015138 5.0625 4.75 Z " fill="#106EB9" transform="translate(177,98)"/>
<path d="M0 0 C8.25 0 16.5 0 25 0 C25.33 1.32 25.66 2.64 26 4 C24.41727399 5.58272601 22.61965997 5.34735747 20.4375 5.5625 C19.61121094 5.64628906 18.78492187 5.73007813 17.93359375 5.81640625 C16.97646484 5.90728516 16.97646484 5.90728516 16 6 C16.00785522 7.0355603 16.00785522 7.0355603 16.01586914 8.09204102 C16.03677867 11.24885126 16.04970442 14.40564686 16.0625 17.5625 C16.07087891 18.64853516 16.07925781 19.73457031 16.08789062 20.85351562 C16.10459218 26.34832611 15.98582259 31.58961935 15 37 C13.35 36.67 11.7 36.34 10 36 C10 25.77 10 15.54 10 5 C6.7 5 3.4 5 0 5 C0 3.35 0 1.7 0 0 Z " fill="#0C61B5" transform="translate(11,88)"/>
<path d="M0 0 C1.19882813 0.15275391 1.19882813 0.15275391 2.421875 0.30859375 C3.02515625 0.39238281 3.6284375 0.47617188 4.25 0.5625 C3.92 1.8825 3.59 3.2025 3.25 4.5625 C2.55132812 4.55089844 1.85265625 4.53929688 1.1328125 4.52734375 C0.22273438 4.51832031 -0.68734375 4.50929688 -1.625 4.5 C-2.52992187 4.48839844 -3.43484375 4.47679688 -4.3671875 4.46484375 C-6.7668585 4.40000743 -6.7668585 4.40000743 -8.75 5.5625 C-9.57813 9.13718689 -9.57813 9.13718689 -8.75 12.5625 C-6.16853104 14.87752292 -3.4689572 16.70729184 -0.546875 18.5703125 C3.01874438 21.11006932 5.7513437 23.52316768 6.81640625 27.87890625 C6.80949465 31.85307659 6.79662566 33.87921792 4.25 37.0625 C-2.52377221 40.4493861 -7.78957335 39.67548666 -14.75 37.5625 C-14.42 35.9125 -14.09 34.2625 -13.75 32.5625 C-13.16992188 32.73007813 -12.58984375 32.89765625 -11.9921875 33.0703125 C-6.9007692 34.397778 -3.71438099 34.85375276 1.25 32.5625 C1.66771804 29.23049815 1.66771804 29.23049815 1.25 25.5625 C-0.76211967 23.33247412 -0.76211967 23.33247412 -3.75 21.5625 C-5.15409253 20.55305681 -6.54952885 19.53149769 -7.9375 18.5 C-8.94876953 17.77103516 -8.94876953 17.77103516 -9.98046875 17.02734375 C-12.59631798 14.86190564 -13.66610335 13.10183563 -14.1875 9.75 C-13.56921267 5.24533517 -11.99335866 3.73214597 -8.75 0.5625 C-5.69083394 -0.57194075 -3.20463786 -0.42414325 0 0 Z " fill="#1873BB" transform="translate(123.75,87.4375)"/>
<path d="M0 0 C1.32 0 2.64 0 4 0 C4.33 0.99 4.66 1.98 5 3 C5.495 2.505 5.99 2.01 6.5 1.5 C9.96423989 -0.57854394 13.11624438 -0.81998679 17 0 C20.0190434 1.75299294 22.41511201 3.83022401 24 7 C24.12199138 8.9972542 24.17547512 10.99905981 24.1875 13 C24.20167969 14.0725 24.21585938 15.145 24.23046875 16.25 C24 19 24 19 22 21 C22.33 18.03 22.66 15.06 23 12 C20.48916886 13.25541557 20.12874554 14.50063488 19 17 C18.87882812 16.30132812 18.75765625 15.60265625 18.6328125 14.8828125 C18.46523437 13.97273438 18.29765625 13.06265625 18.125 12.125 C17.96257812 11.22007813 17.80015625 10.31515625 17.6328125 9.3828125 C17.16955297 6.83494012 17.16955297 6.83494012 15 5 C10.95031368 4.53006817 10.95031368 4.53006817 7.3515625 6.1328125 C5.43922178 8.77471673 5.48602921 10.95985664 5.3125 14.1875 C5.24675781 15.27417969 5.18101563 16.36085938 5.11328125 17.48046875 C5.07589844 18.31191406 5.03851563 19.14335938 5 20 C4.67 20 4.34 20 4 20 C3.93941406 19.02417969 3.87882812 18.04835938 3.81640625 17.04296875 C3.73261719 15.77066406 3.64882813 14.49835938 3.5625 13.1875 C3.48128906 11.92292969 3.40007813 10.65835938 3.31640625 9.35546875 C3.12815453 6.00818107 3.12815453 6.00818107 2 3 C1.34 2.67 0.68 2.34 0 2 C0 13.88 0 25.76 0 38 C-0.33 38 -0.66 38 -1 38 C-1.02464928 32.74894558 -1.04283568 27.49792455 -1.05493164 22.24682617 C-1.05997218 20.45905979 -1.06680454 18.67129755 -1.07543945 16.88354492 C-1.0875173 14.31948832 -1.09323094 11.75548603 -1.09765625 9.19140625 C-1.10281754 8.3872377 -1.10797882 7.58306915 -1.11329651 6.75453186 C-1.11349215 4.83598285 -1.06201983 2.91754632 -1 1 C-0.67 0.67 -0.34 0.34 0 0 Z " fill="#176FB4" transform="translate(59,98)"/>
<path d="M0 0 C0.66 0.33 1.32 0.66 2 1 C1.67 1.99 1.34 2.98 1 4 C-0.01320312 3.93039063 -0.01320312 3.93039063 -1.046875 3.859375 C-6.53197116 3.57602203 -6.53197116 3.57602203 -11.5625 5.4375 C-13.6438698 9.1477679 -14.20573957 12.76176484 -14 17 C-13.34 18.98 -12.68 20.96 -12 23 C-7.38 23 -2.76 23 2 23 C2.33 23.99 2.66 24.98 3 26 C-2.44766005 28.38932458 -6.0701477 29.79014409 -12 28 C-15.4407298 25.23245647 -17.22017192 23.30874708 -18 19 C-18.50409511 13.9921043 -18.55757693 10.13580485 -16.3125 5.5625 C-11.36773534 0.08316618 -7.15781551 -0.73125031 0 0 Z " fill="#1A81C7" transform="translate(150,98)"/>
<path d="M0 0 C3.4458426 1.94765016 4.69946258 3.32736863 6.3125 6.9375 C7 10 7 10 7 15 C1.72 14.67 -3.56 14.34 -9 14 C-9 13.34 -9 12.68 -9 12 C-5.37 12 -1.74 12 2 12 C2 10.35 2 8.7 2 7 C-0.77703351 5.11161721 -2.18729234 5.00645836 -5.625 5.125 C-9.07858349 5.59762966 -9.07858349 5.59762966 -10.1875 8 C-10.455625 8.66 -10.72375 9.32 -11 10 C-13.125 10.75 -13.125 10.75 -15 11 C-15.75 9.3125 -15.75 9.3125 -16 7 C-11.95085285 0.70132666 -7.45088841 -1.18503195 0 0 Z " fill="#1075C2" transform="translate(102,98)"/>
<path d="M0 0 C0.66 0 1.32 0 2 0 C2 2.31 2 4.62 2 7 C4.31 7 6.62 7 9 7 C9 7.99 9 8.98 9 10 C6.69 10 4.38 10 2 10 C2.13857841 13.12536637 2.28709569 16.25018217 2.4375 19.375 C2.47681641 20.26445313 2.51613281 21.15390625 2.55664062 22.0703125 C2.61948242 23.34648438 2.61948242 23.34648438 2.68359375 24.6484375 C2.72025146 25.43395996 2.75690918 26.21948242 2.79467773 27.02880859 C2.890891 29.07523496 2.890891 29.07523496 4 31 C5.65 31 7.3 31 9 31 C8.67 32.32 8.34 33.64 8 35 C4.625 34.6875 4.625 34.6875 1 34 C-1.16926659 30.74610012 -1.24080049 29.86604043 -1.1953125 26.11328125 C-1.18564453 24.7065918 -1.18564453 24.7065918 -1.17578125 23.27148438 C-1.15902344 22.29501953 -1.14226562 21.31855469 -1.125 20.3125 C-1.11597656 19.32443359 -1.10695312 18.33636719 -1.09765625 17.31835938 C-1.0740843 14.87866235 -1.04118022 12.43945303 -1 10 C-2.65 10 -4.3 10 -6 10 C-5.67 9.01 -5.34 8.02 -5 7 C-3.68 7 -2.36 7 -1 7 C-1.020625 6.030625 -1.04125 5.06125 -1.0625 4.0625 C-1 1 -1 1 0 0 Z " fill="#1571B9" transform="translate(205,91)"/>
<path d="M0 0 C0.99 0 1.98 0 3 0 C3.33 0.66 3.66 1.32 4 2 C4.99 1.34 5.98 0.68 7 0 C10.1875 -0.125 10.1875 -0.125 13 0 C13 0.99 13 1.98 13 3 C11.88625 3.226875 10.7725 3.45375 9.625 3.6875 C5.95556711 4.57879361 5.95556711 4.57879361 4.8125 7.03125 C3.73604344 10.96445667 3.53840265 14.75126327 3.375 18.8125 C3.33632812 19.60076172 3.29765625 20.38902344 3.2578125 21.20117188 C3.16411156 23.1337538 3.08099221 25.06684376 3 27 C2.01 27 1.02 27 0 27 C0 18.09 0 9.18 0 0 Z " fill="#1D71B3" transform="translate(154,98)"/>
<path d="M0 0 C1.32 0 2.64 0 4 0 C4.77253219 8.03433476 4.77253219 8.03433476 2 11.5 C-4.77377221 14.8868861 -10.03957335 14.11298666 -17 12 C-16.67 10.35 -16.34 8.7 -16 7 C-15.41992188 7.16757813 -14.83984375 7.33515625 -14.2421875 7.5078125 C-9.1507692 8.835278 -5.96438099 9.29125276 -1 7 C-0.67 4.69 -0.34 2.38 0 0 Z " fill="#1287CD" transform="translate(126,113)"/>
<path d="M0 0 C2.36328125 0.2109375 2.36328125 0.2109375 5 1 C6.29296875 3.0390625 6.29296875 3.0390625 7.1875 5.625 C7.50589844 6.5221875 7.82429688 7.419375 8.15234375 8.34375 C9.17546594 11.5498472 10.15042323 14.74328906 11 18 C10.67 18.33 10.34 18.66 10 19 C9.92794489 20.68608966 9.91613932 22.37500659 9.9375 24.0625 C9.95103516 25.44115234 9.95103516 25.44115234 9.96484375 26.84765625 C9.97644531 27.55792969 9.98804688 28.26820312 10 29 C7.57570817 24.3158208 5.76359752 19.41836174 3.875 14.5 C3.31619141 13.07494141 3.31619141 13.07494141 2.74609375 11.62109375 C2.39417969 10.70457031 2.04226562 9.78804687 1.6796875 8.84375 C1.35726074 8.01037109 1.03483398 7.17699219 0.70263672 6.31835938 C0 4 0 4 0 0 Z " fill="#197BC1" transform="translate(32,98)"/>
<path d="M0 0 C0.66 0 1.32 0 2 0 C2.77442754 9.82662495 2.77442754 9.82662495 -0.0625 14.125 C-3.54366076 16.3470175 -5.8812277 16.92511323 -10 17 C-12.4375 16.0625 -12.4375 16.0625 -14 15 C-14 14.01 -14 13.02 -14 12 C-11.02148438 11.70703125 -11.02148438 11.70703125 -8.04296875 11.4140625 C-5.70011858 11.07334609 -5.70011858 11.07334609 -3 9 C-1.99194445 6.82102508 -1.99194445 6.82102508 -1.3125 4.375 C-1.06113281 3.55773437 -0.80976562 2.74046875 -0.55078125 1.8984375 C-0.36902344 1.27195312 -0.18726562 0.64546875 0 0 Z " fill="#0176CD" transform="translate(80,110)"/>
<path d="M0 0 C0.99 0.33 1.98 0.66 3 1 C4.18681726 4.56045177 4.09689832 7.43808337 4.0625 11.1875 C4.05347656 12.45980469 4.04445313 13.73210937 4.03515625 15.04296875 C4.02355469 16.01878906 4.01195312 16.99460937 4 18 C4.99 18.33 5.98 18.66 7 19 C7 19.66 7 20.32 7 21 C5.02 20.67 3.04 20.34 1 20 C1 21.65 1 23.3 1 25 C0.67 25 0.34 25 0 25 C0 16.75 0 8.5 0 0 Z " fill="#0276CD" transform="translate(59,100)"/>
<path d="M0 0 C0.33 0.99 0.66 1.98 1 3 C-1.8845623 6.62896548 -4.01009277 8.33652215 -8.5625 8.9375 C-12.41323757 9.30455471 -13.25214097 8.87392951 -17 7 C-17.33 10.3 -17.66 13.6 -18 17 C-18.33 17 -18.66 17 -19 17 C-19 12.38 -19 7.76 -19 3 C-17.02 3.99 -17.02 3.99 -15 5 C-14.01 5.33 -13.02 5.66 -12 6 C-12 5.34 -12 4.68 -12 4 C-11.16855469 3.69255859 -11.16855469 3.69255859 -10.3203125 3.37890625 C-9.59585938 3.10949219 -8.87140625 2.84007813 -8.125 2.5625 C-7.40570313 2.29566406 -6.68640625 2.02882813 -5.9453125 1.75390625 C-1.41968912 0 -1.41968912 0 0 0 Z " fill="#1E9CE5" transform="translate(198,118)"/>
<path d="M0 0 C3.0970773 1.05753859 4.4945717 2.36394421 6.5625 4.875 C7.53801509 7.80154527 7.72728088 9.82154996 7.75 12.875 C7.76417969 13.74125 7.77835938 14.6075 7.79296875 15.5 C7.5625 17.875 7.5625 17.875 5.5625 20.875 C4.5725 20.875 3.5825 20.875 2.5625 20.875 C2.76875 19.740625 2.975 18.60625 3.1875 17.4375 C3.81560502 12.62776427 2.85781167 8.49958381 1.5625 3.875 C-0.7475 3.215 -3.0575 2.555 -5.4375 1.875 C-2.4375 -0.125 -2.4375 -0.125 0 0 Z " fill="#0F83D5" transform="translate(192.4375,98.125)"/>
<path d="M0 0 C1.65 0.33 3.3 0.66 5 1 C2.03 8.92 2.03 8.92 -1 17 C-2.32 17 -3.64 17 -5 17 C-6.34581972 12.96254085 -5.19157055 11.27844375 -3.625 7.375 C-3.16351563 6.20710938 -2.70203125 5.03921875 -2.2265625 3.8359375 C-1 1 -1 1 0 0 Z " fill="#0C74C9" transform="translate(52,98)"/>
<path d="M0 0 C0.99 0.33 1.98 0.66 3 1 C3 9.58 3 18.16 3 27 C2.01 27 1.02 27 0 27 C0 18.09 0 9.18 0 0 Z " fill="#1E72B4" transform="translate(169,98)"/>
<path d="M0 0 C1.19882813 0.15275391 1.19882813 0.15275391 2.421875 0.30859375 C3.02515625 0.39238281 3.6284375 0.47617188 4.25 0.5625 C3.92 1.8825 3.59 3.2025 3.25 4.5625 C2.57453125 4.55089844 1.8990625 4.53929688 1.203125 4.52734375 C0.31109375 4.51832031 -0.5809375 4.50929688 -1.5 4.5 C-2.38171875 4.48839844 -3.2634375 4.47679688 -4.171875 4.46484375 C-6.5318838 4.55423802 -8.49498524 4.89337179 -10.75 5.5625 C-10.75 7.8725 -10.75 10.1825 -10.75 12.5625 C-11.74 12.5625 -12.73 12.5625 -13.75 12.5625 C-14.09372111 9.6752427 -14.25436056 7.44361181 -12.77734375 4.86328125 C-8.85863836 -0.08603168 -6.02364257 -0.79724681 0 0 Z " fill="#156BBC" transform="translate(123.75,87.4375)"/>
<path d="M0 0 C0.33 0.66 0.66 1.32 1 2 C1.99 2 2.98 2 4 2 C4.33 1.34 4.66 0.68 5 0 C6 3 6 3 5.3125 5.0625 C3.77617643 7.33040622 2.45716327 7.89031336 0 9 C-0.33 9.66 -0.66 10.32 -1 11 C-3.31 10.67 -5.62 10.34 -8 10 C-8 8.35 -8 6.7 -8 5 C-6.576875 4.87625 -6.576875 4.87625 -5.125 4.75 C-1.89538209 4.34925077 -1.89538209 4.34925077 -0.625 1.9375 C-0.41875 1.298125 -0.2125 0.65875 0 0 Z " fill="#117AD2" transform="translate(40,127)"/>
<path d="M0 0 C0.598125 0.185625 1.19625 0.37125 1.8125 0.5625 C4.16408762 1.22093687 4.16408762 1.22093687 7 0 C9.06145107 -0.068991 11.12501401 -0.08467727 13.1875 -0.0625 C14.81751953 -0.04896484 14.81751953 -0.04896484 16.48046875 -0.03515625 C17.31191406 -0.02355469 18.14335937 -0.01195313 19 0 C19.33 0.99 19.66 1.98 20 3 C14.55233995 5.38932458 10.9298523 6.79014409 5 5 C2.0625 2.4375 2.0625 2.4375 0 0 Z " fill="#179CE1" transform="translate(133,121)"/>
<path d="M0 0 C0.99 0 1.98 0 3 0 C3 6.6 3 13.2 3 20 C3.99 20 4.98 20 6 20 C6.33 20.66 6.66 21.32 7 22 C8.65 22 10.3 22 12 22 C11.67 23.32 11.34 24.64 11 26 C7.625 25.6875 7.625 25.6875 4 25 C1.83073341 21.74610012 1.75919951 20.86604043 1.8046875 17.11328125 C1.81113281 16.17548828 1.81757813 15.23769531 1.82421875 14.27148438 C1.84097656 13.29501953 1.85773438 12.31855469 1.875 11.3125 C1.88402344 10.32443359 1.89304688 9.33636719 1.90234375 8.31835938 C1.9259157 5.87866235 1.95881978 3.43945303 2 1 C1.34 0.67 0.68 0.34 0 0 Z " fill="#167AD5" transform="translate(202,100)"/>
<path d="M0 0 C0.33 1.65 0.66 3.3 1 5 C-4.86193869 7.87115365 -9.47643494 9.19951151 -15.9375 7 C-16.618125 6.67 -17.29875 6.34 -18 6 C-17.67 5.01 -17.34 4.02 -17 3 C-16.505 3.33 -16.01 3.66 -15.5 4 C-11.90909106 5.43636358 -8.85543873 5.12851462 -5 5 C-5 4.01 -5 3.02 -5 2 C-2 0 -2 0 0 0 Z " fill="#27A9F1" transform="translate(107,119)"/>
<path d="M0 0 C2.64 0.66 5.28 1.32 8 2 C8.05389087 3.95803507 8.09274217 5.91648909 8.125 7.875 C8.14820312 8.96554688 8.17140625 10.05609375 8.1953125 11.1796875 C8 14 8 14 6 16 C6.33 13.03 6.66 10.06 7 7 C4.48916886 8.25541557 4.12874554 9.50063488 3 12 C2.86722656 11.30132812 2.73445313 10.60265625 2.59765625 9.8828125 C2.42105469 8.97273438 2.24445313 8.06265625 2.0625 7.125 C1.88847656 6.22007813 1.71445313 5.31515625 1.53515625 4.3828125 C1.10036299 2.00043683 1.10036299 2.00043683 0 0 Z " fill="#137DCD" transform="translate(75,103)"/>
<path d="M0 0 C0.99 0.33 1.98 0.66 3 1 C2.67 1.66 2.34 2.32 2 3 C1.91346087 5.44598671 1.88436565 7.86299268 1.90234375 10.30859375 C1.9037587 11.03111832 1.90517365 11.75364288 1.90663147 12.49806213 C1.91223407 14.81124996 1.92477583 17.12434144 1.9375 19.4375 C1.94251565 20.99283713 1.94707844 22.54817579 1.95117188 24.10351562 C1.95934808 26.95631861 1.97005157 29.8090853 1.98413086 32.66186523 C1.99417439 34.77455957 2 36.88728179 2 39 C1.34 39 0.68 39 0 39 C0 26.13 0 13.26 0 0 Z " fill="#2068A1" transform="translate(177,98)"/>
<path d="M0 0 C6.98942918 -0.602537 6.98942918 -0.602537 9.8671875 1.11328125 C11.30861002 2.33745588 12.66278229 3.66278229 14 5 C13.67 5.66 13.34 6.32 13 7 C11.02 6.34 9.04 5.68 7 5 C7 4.34 7 3.68 7 3 C4.69 3 2.38 3 0 3 C0 2.01 0 1.02 0 0 Z " fill="#0861C1" transform="translate(68,98)"/>
<path d="M0 0 C0 0.66 0 1.32 0 2 C2.31 2 4.62 2 7 2 C6.67 2.66 6.34 3.32 6 4 C4.6078125 3.9071875 4.6078125 3.9071875 3.1875 3.8125 C0.10709502 3.72057915 0.10709502 3.72057915 -1.65625 5.125 C-3.55437342 7.77354431 -3.51407847 9.96185963 -3.6875 13.1875 C-3.75324219 14.27417969 -3.81898437 15.36085938 -3.88671875 16.48046875 C-3.92410156 17.31191406 -3.96148437 18.14335938 -4 19 C-4.33 19 -4.66 19 -5 19 C-5.27565727 16.39623726 -5.52127265 13.79544032 -5.75 11.1875 C-5.83121094 10.44951172 -5.91242187 9.71152344 -5.99609375 8.95117188 C-6.171875 6.79296875 -6.171875 6.79296875 -6 3 C-3.96762176 0.80110337 -3.00353444 0 0 0 Z " fill="#1674C1" transform="translate(68,99)"/>
<path d="M0 0 C0.66 0.33 1.32 0.66 2 1 C1.67 1.99 1.34 2.98 1 4 C0.31292969 3.98839844 -0.37414062 3.97679688 -1.08203125 3.96484375 C-1.98308594 3.95582031 -2.88414062 3.94679688 -3.8125 3.9375 C-4.70582031 3.92589844 -5.59914062 3.91429688 -6.51953125 3.90234375 C-9.13413791 3.88990033 -9.13413791 3.88990033 -12 5 C-12.66 4.34 -13.32 3.68 -14 3 C-9.52479327 -0.46467618 -5.438918 -0.55564585 0 0 Z " fill="#1662AC" transform="translate(150,98)"/>
<path d="M0 0 C-0.62687294 2.92540704 -1.35127493 5.4835249 -3 8 C-5.125 8.75 -5.125 8.75 -7 9 C-7.75 7.3125 -7.75 7.3125 -8 5 C-4.93181818 0 -4.93181818 0 0 0 Z " fill="#0C75C7" transform="translate(94,100)"/>
<path d="M0 0 C0.66 0.33 1.32 0.66 2 1 C0.63016497 4.16115776 0.0109362 4.9927092 -3 7 C-9.04908447 8.23032226 -13.11352129 7.78696675 -19 6 C-19 5.34 -19 4.68 -19 4 C-17.67935547 4.16048828 -17.67935547 4.16048828 -16.33203125 4.32421875 C-15.17058594 4.44410156 -14.00914063 4.56398438 -12.8125 4.6875 C-11.08966797 4.87892578 -11.08966797 4.87892578 -9.33203125 5.07421875 C-5.58171717 4.99068303 -3.9428007 4.26493436 -1 2 C-0.67 1.34 -0.34 0.68 0 0 Z " fill="#28BEEE" transform="translate(128,119)"/>
<path d="M0 0 C0.33 0.99 0.66 1.98 1 3 C-1 6 -1 6 -2.83984375 6.546875 C-3.53207031 6.61390625 -4.22429687 6.6809375 -4.9375 6.75 C-5.97197266 6.86601563 -5.97197266 6.86601563 -7.02734375 6.984375 C-9 7 -9 7 -12 6 C-12 5.34 -12 4.68 -12 4 C-11.16855469 3.69255859 -11.16855469 3.69255859 -10.3203125 3.37890625 C-9.59585938 3.10949219 -8.87140625 2.84007813 -8.125 2.5625 C-7.40570313 2.29566406 -6.68640625 2.02882813 -5.9453125 1.75390625 C-1.41968912 0 -1.41968912 0 0 0 Z " fill="#08A4E4" transform="translate(198,118)"/>
<path d="M0 0 C0.66 0.66 1.32 1.32 2 2 C-0.74356799 5.24239854 -2.42295196 6.8380216 -6.5625 8 C-10.41067102 8 -11.17075233 7.37731095 -14 5 C-13.32453125 4.97421875 -12.6490625 4.9484375 -11.953125 4.921875 C-6.24236068 4.65678272 -6.24236068 4.65678272 -1.375 1.9375 C-0.92125 1.298125 -0.4675 0.65875 0 0 Z " fill="#139EFA" transform="translate(80,119)"/>
<path d="M0 0 C5 1 5 1 8 3 C8 3.66 8 4.32 8 5 C8.99 5.33 9.98 5.66 11 6 C6.38308839 5.47535095 4.90012114 4.92509086 1 2 C1 6.29 1 10.58 1 15 C0.67 15 0.34 15 0 15 C0 10.05 0 5.1 0 0 Z " fill="#0C79C3" transform="translate(178,119)"/>
<path d="M0 0 C5.28 0 10.56 0 16 0 C16 0.99 16 1.98 16 3 C11.545 3.495 11.545 3.495 7 4 C7.33 3.34 7.66 2.68 8 2 C5.03 2 2.06 2 -1 2 C-0.67 1.34 -0.34 0.68 0 0 Z " fill="#0855C4" transform="translate(19,89)"/>
<path d="M0 0 C1.67542976 0.28604898 3.34385343 0.61781233 5 1 C4.01 3.64 3.02 6.28 2 9 C1.67 7.68 1.34 6.36 1 5 C0.01 6.485 0.01 6.485 -1 8 C-1.66 8 -2.32 8 -3 8 C-1.125 1.125 -1.125 1.125 0 0 Z " fill="#1362AA" transform="translate(52,98)"/>
<path d="M0 0 C0 0.99 0 1.98 0 3 C-1.670625 3.433125 -1.670625 3.433125 -3.375 3.875 C-7.00291092 4.69241329 -7.00291092 4.69241329 -9 7 C-9.1875 4.625 -9.1875 4.625 -9 2 C-5.5647952 -0.29013653 -4.014669 -0.17842973 0 0 Z " fill="#1F69AD" transform="translate(167,98)"/>
<path d="M0 0 C0 0.66 0 1.32 0 2 C-3.21451269 3.60725635 -6.43612536 3.05748185 -10 3 C-10 2.01 -10 1.02 -10 0 C-2.25 -1.125 -2.25 -1.125 0 0 Z " fill="#007CC8" transform="translate(104,122)"/>
<path d="M0 0 C0.33 0.99 0.66 1.98 1 3 C-3.62 3 -8.24 3 -13 3 C-13 2.34 -13 1.68 -13 1 C-11.20843648 0.83222817 -9.4167455 0.66581706 -7.625 0.5 C-6.62726563 0.4071875 -5.62953125 0.314375 -4.6015625 0.21875 C-2 0 -2 0 0 0 Z " fill="#0376C7" transform="translate(106,109)"/>
<path d="M0 0 C0.33 0.66 0.66 1.32 1 2 C1.99 2 2.98 2 4 2 C4.33 1.34 4.66 0.68 5 0 C6 3 6 3 5.3125 5.125 C4 7 4 7 1.875 7.75 C0.946875 7.87375 0.946875 7.87375 0 8 C0.66 6.68 1.32 5.36 2 4 C1.01 4 0.02 4 -1 4 C-0.67 2.68 -0.34 1.36 0 0 Z " fill="#12ABE5" transform="translate(40,127)"/>
<path d="M0 0 C0.99 0 1.98 0 3 0 C2.34 2.31 1.68 4.62 1 7 C-0.32 7.33 -1.64 7.66 -3 8 C-2.45276317 4.62537285 -1.9451 2.91765 0 0 Z " fill="#1872BC" transform="translate(135,102)"/>
<path d="M0 0 C0 0.99 0 1.98 0 3 C-1.093125 3.268125 -2.18625 3.53625 -3.3125 3.8125 C-6.61692663 4.87663739 -7.94960422 5.34654664 -10 8 C-9.67372714 4.98197607 -9.38918764 3.40308719 -7.25 1.1875 C-4.62847443 -0.19608294 -2.92325122 -0.24360427 0 0 Z " fill="#165DA4" transform="translate(190,98)"/>
<path d="M0 0 C2.98191427 1.04367 3.8747545 2.22328366 5.5 4.875 C4.51 5.37 4.51 5.37 3.5 5.875 C1.3359375 5.09765625 1.3359375 5.09765625 -1.125 3.9375 C-1.94226563 3.55722656 -2.75953125 3.17695312 -3.6015625 2.78515625 C-4.22804687 2.48480469 -4.85453125 2.18445313 -5.5 1.875 C-2.5 -0.125 -2.5 -0.125 0 0 Z " fill="#1174C6" transform="translate(192.5,98.125)"/>
<path d="M0 0 C0.66 0.99 1.32 1.98 2 3 C1.34 3 0.68 3 0 3 C0 5.31 0 7.62 0 10 C-0.99 10 -1.98 10 -3 10 C-3.36923077 4.58461538 -3.36923077 4.58461538 -1.5 1.625 C-1.005 1.08875 -0.51 0.5525 0 0 Z " fill="#106FC9" transform="translate(113,90)"/>
<path d="M0 0 C0.33 1.65 0.66 3.3 1 5 C-0.98 5.99 -0.98 5.99 -3 7 C-3.66 5.02 -4.32 3.04 -5 1 C-2 0 -2 0 0 0 Z " fill="#1EA5E1" transform="translate(107,119)"/>
<path d="M0 0 C0 0.33 0 0.66 0 1 C-1.65 1.33 -3.3 1.66 -5 2 C-3.68 2.33 -2.36 2.66 -1 3 C-1.33 3.66 -1.66 4.32 -2 5 C-3.98 5 -5.96 5 -8 5 C-8 4.01 -8 3.02 -8 2 C-8.66 1.67 -9.32 1.34 -10 1 C-6.78548731 -0.60725635 -3.56387464 -0.05748185 0 0 Z " fill="#1362B2" transform="translate(102,98)"/>
<path d="M0 0 C-0.33 0.99 -0.66 1.98 -1 3 C-2.45635371 3.22174933 -3.91522956 3.42698698 -5.375 3.625 C-6.18710938 3.74101563 -6.99921875 3.85703125 -7.8359375 3.9765625 C-8.55007812 3.98429687 -9.26421875 3.99203125 -10 4 C-10.66 3.34 -11.32 2.68 -12 2 C-10.37548581 1.66430703 -8.75037083 1.3315204 -7.125 1 C-6.22007812 0.814375 -5.31515625 0.62875 -4.3828125 0.4375 C-2 0 -2 0 0 0 Z " fill="#2BBFF1" transform="translate(195,123)"/>
<path d="M0 0 C0.33 0.99 0.66 1.98 1 3 C1.66 3 2.32 3 3 3 C3 4.98 3 6.96 3 9 C2.01 9.33 1.02 9.66 0 10 C0 6.7 0 3.4 0 0 Z " fill="#0C6FC7" transform="translate(155,99)"/>
<path d="M0 0 C2.475 0.495 2.475 0.495 5 1 C5.33 2.32 5.66 3.64 6 5 C3.03 4.505 3.03 4.505 0 4 C0 2.68 0 1.36 0 0 Z " fill="#1165BF" transform="translate(32,98)"/>
<path d="M0 0 C0.33 0.66 0.66 1.32 1 2 C1.99 2 2.98 2 4 2 C3.67 4.64 3.34 7.28 3 10 C2.67 10 2.34 10 2 10 C2 8.35 2 6.7 2 5 C1.34 5 0.68 5 0 5 C0 3.35 0 1.7 0 0 Z " fill="#077AC9" transform="translate(35,101)"/>
<path d="M0 0 C0.99 0 1.98 0 3 0 C3 1.98 3 3.96 3 6 C2.34 6 1.68 6 1 6 C0.67 6.66 0.34 7.32 0 8 C0 5.36 0 2.72 0 0 Z " fill="#0F80CA" transform="translate(127,113)"/>
<path d="M0 0 C0.66 0 1.32 0 2 0 C2.33 2.64 2.66 5.28 3 8 C1.68 8 0.36 8 -1 8 C-2.2077558 4.37673261 -1.54311128 3.35853631 0 0 Z " fill="#1973B6" transform="translate(48,107)"/>
<path d="M0 0 C0.33 0 0.66 0 1 0 C1.144375 1.11375 1.28875 2.2275 1.4375 3.375 C1.78372035 6.82142047 1.78372035 6.82142047 3 9 C2.34 9 1.68 9 1 9 C0.67 9.66 0.34 10.32 0 11 C-0.66 9.68 -1.32 8.36 -2 7 C-1.34 7 -0.68 7 0 7 C0 4.69 0 2.38 0 0 Z " fill="#207ABE" transform="translate(113,93)"/>
<path d="M0 0 C2.64 0.66 5.28 1.32 8 2 C6 4 6 4 3.375 4.125 C2.59125 4.08375 1.8075 4.0425 1 4 C0.67 2.68 0.34 1.36 0 0 Z " fill="#2091D0" transform="translate(110,120)"/>
<path d="M0 0 C1.875 0.25 1.875 0.25 4 1 C5.25 3.0625 5.25 3.0625 6 5 C4.02 4.34 2.04 3.68 0 3 C0 2.01 0 1.02 0 0 Z " fill="#0F70C5" transform="translate(76,100)"/>
<path d="M0 0 C1.98 0 3.96 0 6 0 C6 0.99 6 1.98 6 3 C4.02 3 2.04 3 0 3 C0 2.01 0 1.02 0 0 Z " fill="#135EB5" transform="translate(208,98)"/>
<path d="M0 0 C2.64 0 5.28 0 8 0 C8.33 0.66 8.66 1.32 9 2 C6.75 2.6875 6.75 2.6875 4 3 C1.6875 1.5625 1.6875 1.5625 0 0 Z " fill="#0AA5DC" transform="translate(66,124)"/>
<path d="M0 0 C0.99 0 1.98 0 3 0 C3.33 0.99 3.66 1.98 4 3 C3.01 3.66 2.02 4.32 1 5 C0.34 4.67 -0.32 4.34 -1 4 C-0.67 2.68 -0.34 1.36 0 0 Z " fill="#1456B0" transform="translate(169,88)"/>
<path d="" fill="#00FFFF" transform="translate(0,0)"/>
</svg>
